<svg width="85" height="40" viewBox="0 0 85 40" fill="none" xmlns="http://www.w3.org/2000/svg">
<path d="M19.6295 16.8435H23.1882C22.7612 14.3887 21.5629 12.197 19.8548 10.5244L17.415 13.0099C18.4745 14.0444 19.2565 15.3638 19.6295 16.8435Z" fill="url(#paint0_linear)"/>
<path d="M11.6691 10.6682C13.9269 10.6682 15.9774 11.582 17.4657 13.06L19.9271 10.5979C17.8099 8.48915 14.8873 7.18604 11.6691 7.18604C11.6349 7.18604 11.6006 7.18604 11.5664 7.18604L11.597 10.67C11.6223 10.6682 11.6457 10.6682 11.6691 10.6682Z" fill="url(#paint1_linear)"/>
<path d="M11.669 10.6681V7.18408C8.40945 7.18408 5.46339 8.52144 3.34619 10.6753L5.83097 13.1175C7.31571 11.6053 9.38246 10.6681 11.669 10.6681Z" fill="url(#paint2_linear)"/>
<path d="M3.48302 18.8566C3.48302 16.5946 4.40017 14.5489 5.88131 13.0656L3.41815 10.6035C1.30636 12.7159 0 15.6339 0 18.8566C0 18.8908 0 18.9251 0 18.9593L3.48302 18.9287C3.48302 18.9052 3.48302 18.88 3.48302 18.8566Z" fill="url(#paint3_linear)"/>
<path d="M3.48302 18.8564H0C0 22.1169 1.33699 25.0638 3.49022 27.1816L5.93176 24.6961C4.41999 23.211 3.48302 21.1437 3.48302 18.8564Z" fill="url(#paint4_linear)"/>
<path d="M11.6686 27.0464C9.40724 27.0464 7.36211 26.129 5.87917 24.6475L3.41602 27.1113C5.52781 29.2237 8.44504 30.5304 11.6668 30.5304C11.701 30.5304 11.7353 30.5304 11.7695 30.5304L11.7389 27.0464C11.7172 27.0446 11.692 27.0464 11.6686 27.0464Z" fill="url(#paint5_linear)"/>
<path d="M18.1647 23.8418C16.6673 25.7902 14.3159 27.0446 11.6689 27.0446V30.5286C15.4403 30.5286 18.7935 28.7388 20.927 25.9632L18.1647 23.8418Z" fill="url(#paint6_linear)"/>
<path d="M70.4928 16.8435H74.0515C73.6245 14.3887 72.4262 12.197 70.7181 10.5244L68.2783 13.0081C69.3378 14.0444 70.118 15.3638 70.4928 16.8435Z" fill="url(#paint7_linear)"/>
<path d="M62.5324 10.6682C64.7901 10.6682 66.8407 11.582 68.329 13.06L70.7904 10.5979C68.6732 8.48915 65.7505 7.18604 62.5324 7.18604C62.4982 7.18604 62.4639 7.18604 62.4297 7.18604L62.4603 10.67C62.4855 10.6682 62.509 10.6682 62.5324 10.6682Z" fill="url(#paint8_linear)"/>
<path d="M62.5318 10.6681V7.18408C59.2722 7.18408 56.3262 8.52144 54.209 10.6753L56.6938 13.1175C58.1785 11.6053 60.2452 10.6681 62.5318 10.6681Z" fill="url(#paint9_linear)"/>
<path d="M54.3463 18.8564C54.3463 16.5945 55.2635 14.5488 56.7446 13.0654L54.2814 10.6016C52.1696 12.7139 50.8633 15.632 50.8633 18.8546C50.8633 18.8889 50.8633 18.9231 50.8633 18.9574L54.3463 18.9267C54.3463 18.9051 54.3463 18.8799 54.3463 18.8564Z" fill="url(#paint10_linear)"/>
<path d="M54.3463 18.8564H50.8633C50.8633 22.1169 52.2003 25.0638 54.3535 27.1816L56.795 24.6961C55.2833 23.211 54.3463 21.1437 54.3463 18.8564Z" fill="url(#paint11_linear)"/>
<path d="M62.5319 27.0464C60.2705 27.0464 58.2254 26.129 56.7425 24.6475L54.2793 27.1113C56.3911 29.2237 59.3083 30.5304 62.5301 30.5304C62.5643 30.5304 62.5985 30.5304 62.6328 30.5304L62.6021 27.0464C62.5787 27.0446 62.5553 27.0464 62.5319 27.0464Z" fill="url(#paint12_linear)"/>
<path d="M69.028 23.8418C67.5306 25.7902 65.1792 27.0446 62.5322 27.0446V30.5286C66.3035 30.5286 69.6568 28.7388 71.7902 25.9632L69.028 23.8418Z" fill="url(#paint13_linear)"/>
<path d="M81.0177 12.1924H77.5347V22.7236H81.0177V12.1924Z" fill="url(#paint14_linear)"/>
<path d="M81.0177 22.6704C81.0177 25.1847 82.1763 26.2697 84.2088 27.6576L82.2195 30.5143C79.2482 28.5624 77.5347 26.3472 77.5347 22.6722H81.0177V22.6704Z" fill="url(#paint15_linear)"/>
<path d="M37.9076 7.18799C34.8751 7.18799 32.147 8.40098 30.1523 10.3692V17.4435C30.6767 14.6462 33.1543 10.6738 37.904 10.6738C37.9905 10.6738 38.0788 10.6756 38.1653 10.6792V7.19159C38.0806 7.18979 37.9941 7.18799 37.9076 7.18799Z" fill="url(#paint16_linear)"/>
<path d="M47.5852 17.9824H44.1022V16.8361C44.1022 13.3954 41.3652 10.726 38.0083 10.672V7.18799C43.2896 7.24026 47.5852 11.483 47.5852 16.8361V17.9824Z" fill="url(#paint17_linear)"/>
<path d="M30.1544 8.13428H26.6714V20.3273H30.1544V8.13428Z" fill="#B1B1AC"/>
<path d="M81.0177 0H77.5347V12.193H81.0177V0Z" fill="#B1B1AC"/>
<path d="M47.5856 17.9819H44.1025V30.175H47.5856V17.9819Z" fill="#B1B1AC"/>
<path d="M23.1901 16.8433H11.0005V20.3272H23.1901V16.8433Z" fill="#B1B1AC"/>
<path d="M74.0515 16.8433H61.8618V20.3272H74.0515V16.8433Z" fill="#B1B1AC"/>
<path d="M59.3354 37.577C59.303 37.0633 58.975 36.8164 58.4219 36.8164C57.8092 36.8164 57.429 37.4563 57.429 38.2169C57.429 38.9829 57.8092 39.6299 58.4219 39.6299C58.9426 39.6299 59.3012 39.3091 59.3354 38.8495H59.7697C59.6633 39.6173 59.2237 39.9958 58.4633 39.9958C57.4633 39.9958 56.9966 39.1361 56.9966 38.2223C56.9966 37.3157 57.4975 36.4487 58.4903 36.4487C59.1768 36.4487 59.7372 36.8615 59.7697 37.5752H59.3354V37.577Z" fill="#424243"/>
<path d="M63.4348 38.2242C63.4348 39.1038 62.9411 39.9977 61.8744 39.9977C60.8077 39.9977 60.314 39.1038 60.314 38.2242C60.314 37.3447 60.8077 36.4507 61.8744 36.4507C62.9411 36.4507 63.4348 37.3447 63.4348 38.2242ZM61.8744 36.8166C61.0671 36.8166 60.7482 37.6042 60.7482 38.2242C60.7482 38.8442 61.0689 39.6319 61.8744 39.6319C62.6816 39.6319 63.0006 38.8442 63.0006 38.2242C63.0024 37.6042 62.6816 36.8166 61.8744 36.8166Z" fill="#424243"/>
<path d="M66.5686 39.4051L66.556 39.3781C66.2821 39.7782 65.8767 39.9981 65.4082 39.9981C64.4153 39.9981 64.0352 39.0518 64.0352 38.2101C64.0352 37.3432 64.4153 36.4492 65.4082 36.4492C65.855 36.4492 66.3217 36.6619 66.556 37.0566L66.5686 37.044V35.083H66.9686V39.1438C66.9686 39.4033 66.9884 39.67 67.001 39.8971H66.5884L66.5686 39.4051ZM65.4748 36.8169C64.7145 36.8169 64.4676 37.5234 64.4676 38.1633C64.4676 38.7833 64.6478 39.6304 65.4136 39.6304C66.2875 39.6304 66.5542 38.904 66.5542 38.1434C66.556 37.4639 66.2551 36.8169 65.4748 36.8169Z" fill="#424243"/>
<path d="M68.2025 38.3186C68.2151 39.0323 68.543 39.6325 69.3629 39.6325C69.8368 39.6325 70.2296 39.2919 70.3305 38.8323H70.7503C70.5431 39.6325 70.044 40.0002 69.2367 40.0002C68.2367 40.0002 67.77 39.1405 67.77 38.2267C67.77 37.3201 68.2691 36.4531 69.2638 36.4531C70.3845 36.4531 70.79 37.2732 70.79 38.3204H68.2025V38.3186ZM70.3557 37.9509C70.3089 37.3038 69.9629 36.8172 69.2692 36.8172C68.6151 36.8172 68.2691 37.3633 68.2151 37.9509H70.3557Z" fill="#424243"/>
<path d="M72.075 39.8986H71.675V37.305C71.675 37.0455 71.6552 36.7787 71.6426 36.5516H72.0552L72.075 37.0455L72.0876 37.0581C72.3219 36.6453 72.7003 36.4507 73.1345 36.4507C74.2283 36.4507 74.3148 37.4186 74.3148 37.8043V39.8986H73.9147V37.7376C73.9147 37.1572 73.5814 36.8166 73.0354 36.8166C72.3759 36.8166 72.075 37.3699 72.075 37.9701V39.8986Z" fill="#424243"/>
<path d="M76.4967 36.4507C77.131 36.4507 77.6643 36.6706 77.7166 37.3771H77.2823C77.2427 36.9571 76.8697 36.8166 76.4552 36.8166C76.0823 36.8166 75.7021 36.9626 75.7021 37.3573C75.7021 37.8511 76.3489 37.8043 77.2553 38.1233C77.6012 38.244 77.8211 38.5432 77.8211 38.9037C77.8211 39.6571 77.1219 39.9977 76.4138 39.9977C75.8336 39.9977 75.1669 39.7238 75.1543 38.9848H75.5885C75.621 39.4859 76.0624 39.6319 76.5147 39.6319C76.9418 39.6319 77.3886 39.4318 77.3886 38.965C77.3886 38.4856 76.8625 38.4045 76.3291 38.2855C75.803 38.1593 75.2696 38.0061 75.2696 37.3843C75.2696 36.6904 75.9093 36.4507 76.4967 36.4507Z" fill="#424243"/>
<path d="M80.6087 37.5375C80.569 36.9914 80.2879 36.8166 79.8158 36.8166C79.396 36.8166 79.0501 36.9427 78.996 37.3969H78.569C78.6681 36.7102 79.1816 36.4507 79.8231 36.4507C80.5636 36.4507 81.0231 36.7913 81.0105 37.5573V39.1452C81.0033 39.4048 81.0303 39.6715 81.0429 39.8986H80.6303L80.6177 39.4048H80.6051L80.5853 39.4516C80.4393 39.731 79.9924 39.9977 79.5384 39.9977C78.9185 39.9977 78.4248 39.6174 78.4248 38.9632C78.4248 38.509 78.6987 38.1629 79.0987 37.9953C79.5456 37.8025 80.1258 37.8691 80.6123 37.8421V37.5375H80.6087ZM79.6086 39.6319C80.4825 39.6319 80.6483 38.9109 80.6087 38.2116C80.0411 38.2314 78.8555 38.1251 78.8555 38.965C78.8555 39.4174 79.2032 39.6319 79.6086 39.6319Z" fill="#424243"/>
<defs>
<linearGradient id="paint0_linear" x1="18.9306" y1="11.7146" x2="21.5128" y2="16.643" gradientUnits="userSpaceOnUse">
<stop stop-color="#CD3128"/>
<stop offset="1" stop-color="#CC2128"/>
</linearGradient>
<linearGradient id="paint1_linear" x1="11.8039" y1="8.48053" x2="18.7433" y2="11.4633" gradientUnits="userSpaceOnUse">
<stop stop-color="#CD3428"/>
<stop offset="1" stop-color="#CD3128"/>
</linearGradient>
<linearGradient id="paint2_linear" x1="11.5209" y1="8.40227" x2="4.61499" y2="11.5862" gradientUnits="userSpaceOnUse">
<stop stop-color="#CD3428"/>
<stop offset="1" stop-color="#CE3D29"/>
</linearGradient>
<linearGradient id="paint3_linear" x1="4.26045" y1="11.7562" x2="1.37632" y2="18.5623" gradientUnits="userSpaceOnUse">
<stop stop-color="#CE3D29"/>
<stop offset="1" stop-color="#D14F2C"/>
</linearGradient>
<linearGradient id="paint4_linear" x1="1.32421" y1="19.0459" x2="4.34249" y2="26.2207" gradientUnits="userSpaceOnUse">
<stop stop-color="#D14F2C"/>
<stop offset="1" stop-color="#D2542C"/>
</linearGradient>
<linearGradient id="paint5_linear" x1="4.51209" y1="26.3461" x2="11.4849" y2="29.0942" gradientUnits="userSpaceOnUse">
<stop stop-color="#D2542C"/>
<stop offset="1" stop-color="#D46132"/>
</linearGradient>
<linearGradient id="paint6_linear" x1="12.0898" y1="30.8117" x2="18.4353" y2="24.4207" gradientUnits="userSpaceOnUse">
<stop offset="0.27" stop-color="#D46132"/>
<stop offset="1" stop-color="#D45E31" stop-opacity="0"/>
</linearGradient>
<linearGradient id="paint7_linear" x1="72.1099" y1="15.85" x2="69.9237" y2="12.0934" gradientUnits="userSpaceOnUse">
<stop stop-color="#1976BD"/>
<stop offset="1" stop-color="#257DC2"/>
</linearGradient>
<linearGradient id="paint8_linear" x1="69.0491" y1="11.1544" x2="63.2665" y2="8.76459" gradientUnits="userSpaceOnUse">
<stop stop-color="#257DC2"/>
<stop offset="1" stop-color="#3589CA"/>
</linearGradient>
<linearGradient id="paint9_linear" x1="55.8771" y1="11.2517" x2="61.7052" y2="8.77085" gradientUnits="userSpaceOnUse">
<stop stop-color="#4393CD"/>
<stop offset="1" stop-color="#3589CA"/>
</linearGradient>
<linearGradient id="paint10_linear" x1="52.4703" y1="18.0439" x2="54.8616" y2="12.3061" gradientUnits="userSpaceOnUse">
<stop stop-color="#4F9FD4"/>
<stop offset="1" stop-color="#4393CD"/>
</linearGradient>
<linearGradient id="paint11_linear" x1="52.4527" y1="19.7066" x2="54.9352" y2="25.4898" gradientUnits="userSpaceOnUse">
<stop stop-color="#4F9FD4"/>
<stop offset="1" stop-color="#5BAADA"/>
</linearGradient>
<linearGradient id="paint12_linear" x1="55.478" y1="26.3571" x2="61.6935" y2="28.8991" gradientUnits="userSpaceOnUse">
<stop offset="0.00551789" stop-color="#5BAADA"/>
<stop offset="0.9422" stop-color="#85C2E3"/>
</linearGradient>
<linearGradient id="paint13_linear" x1="62.5255" y1="31.6436" x2="69.3849" y2="24.0862" gradientUnits="userSpaceOnUse">
<stop offset="0.3185" stop-color="#85C2E3"/>
<stop offset="1" stop-color="#85C2E3" stop-opacity="0"/>
</linearGradient>
<linearGradient id="paint14_linear" x1="79.2755" y1="12.2706" x2="79.2755" y2="22.7191" gradientUnits="userSpaceOnUse">
<stop stop-color="#2BA577"/>
<stop offset="1" stop-color="#89BF75"/>
</linearGradient>
<linearGradient id="paint15_linear" x1="80.582" y1="25.8037" x2="83.7716" y2="28.4331" gradientUnits="userSpaceOnUse">
<stop stop-color="#89BF75"/>
<stop offset="1" stop-color="#89BF75" stop-opacity="0"/>
</linearGradient>
<linearGradient id="paint16_linear" x1="30.1539" y1="12.3152" x2="38.1661" y2="12.3152" gradientUnits="userSpaceOnUse">
<stop offset="0.00470224" stop-color="#CB126B"/>
<stop offset="0.9957" stop-color="#CA558B"/>
</linearGradient>
<linearGradient id="paint17_linear" x1="42.797" y1="11.4005" x2="42.797" y2="17.5664" gradientUnits="userSpaceOnUse">
<stop offset="0.021" stop-color="#CA558B"/>
<stop offset="1" stop-color="#CA558B" stop-opacity="0"/>
</linearGradient>
</defs>
</svg>
