<svg width="24" height="24" viewBox="0 0 24 24" fill="none" xmlns="http://www.w3.org/2000/svg">
  <path d="M9.06691 10.5H4.93088C4.13972 10.5 3.5 9.85807 3.5 9.06744V4.93256C3.5 4.14009 4.13935 3.5 4.93088 3.5H9.06691C9.85734 3.5 10.5 4.14121 10.5 4.93256V9.06744C10.5 9.85695 9.85697 10.5 9.06691 10.5Z" fill="#4D336D" stroke="#4D336D"/>
  <path d="M9.06691 20.5H4.93088C4.13972 20.5 3.5 19.8581 3.5 19.0674V14.9326C3.5 14.1401 4.13935 13.5 4.93088 13.5H9.06691C9.85734 13.5 10.5 14.1412 10.5 14.9326V19.0674C10.5 19.857 9.85697 20.5 9.06691 20.5Z" fill="#4D336D" stroke="#4D336D"/>
  <path d="M19.0669 10.5H14.9309C14.1397 10.5 13.5 9.85807 13.5 9.06744V4.93256C13.5 4.14009 14.1394 3.5 14.9309 3.5H19.0669C19.8573 3.5 20.5 4.14121 20.5 4.93256V9.06744C20.5 9.85695 19.857 10.5 19.0669 10.5Z" fill="#4D336D" stroke="#4D336D"/>
  <path d="M19.0669 20.5H14.9309C14.1397 20.5 13.5 19.8581 13.5 19.0674V14.9326C13.5 14.1401 14.1394 13.5 14.9309 13.5H19.0669C19.8573 13.5 20.5 14.1412 20.5 14.9326V19.0674C20.5 19.857 19.857 20.5 19.0669 20.5Z" fill="#4D336D" stroke="#4D336D"/>
  <rect opacity="0.01" width="24" height="24" fill="#4D336D"/>
</svg>
