<svg width="24" height="24" viewBox="0 0 24 24" fill="none" xmlns="http://www.w3.org/2000/svg">
  <path d="M9.56691 10.5H5.43088C4.63972 10.5 4 9.85807 4 9.06744V4.93256C4 4.14009 4.63935 3.5 5.43088 3.5H9.56691C10.3573 3.5 11 4.14121 11 4.93256V9.06744C11 9.85695 10.357 10.5 9.56691 10.5Z" stroke="#210049"/>
  <path d="M9.56691 20.5H5.43088C4.63972 20.5 4 19.8581 4 19.0674V14.9326C4 14.1401 4.63935 13.5 5.43088 13.5H9.56691C10.3573 13.5 11 14.1412 11 14.9326V19.0674C11 19.857 10.357 20.5 9.56691 20.5Z" stroke="#210049"/>
  <path d="M19.5669 10.5H15.4309C14.6397 10.5 14 9.85807 14 9.06744V4.93256C14 4.14009 14.6394 3.5 15.4309 3.5H19.5669C20.3573 3.5 21 4.14121 21 4.93256V9.06744C21 9.85695 20.357 10.5 19.5669 10.5Z" stroke="#210049"/>
  <path d="M19.5669 20.5H15.4309C14.6397 20.5 14 19.8581 14 19.0674V14.9326C14 14.1401 14.6394 13.5 15.4309 13.5H19.5669C20.3573 13.5 21 14.1412 21 14.9326V19.0674C21 19.857 20.357 20.5 19.5669 20.5Z" stroke="#210049"/>
</svg>
