<svg width="24" height="24" viewBox="0 0 24 24" fill="none" xmlns="http://www.w3.org/2000/svg">
  <path d="M20.4496 20.5H3.5504L4.58628 9.7313C4.59801 9.60934 4.65412 9.49593 4.74395 9.4126L11.66 2.99739C11.8518 2.8195 12.1482 2.8195 12.34 2.99739L19.2561 9.4126C19.3459 9.49593 19.402 9.60934 19.4137 9.7313L20.4496 20.5Z" stroke="#210049" stroke-linecap="round" stroke-linejoin="round"/>
  <mask id="path-2-inside-1" fill="white">
    <path d="M10 21V16.6901C10 15.7529 10.896 15 12 15C13.104 15 14 15.7606 14 16.6901V21"/>
  </mask>
  <path d="M9 21C9 21.5523 9.44772 22 10 22C10.5523 22 11 21.5523 11 21H9ZM13 21C13 21.5523 13.4477 22 14 22C14.5523 22 15 21.5523 15 21H13ZM11 21V16.6901H9V21H11ZM11 16.6901C11 16.4578 11.2821 16 12 16V14C10.5099 14 9 15.0479 9 16.6901H11ZM12 16C12.7147 16 13 16.4628 13 16.6901H15C15 15.0583 13.4933 14 12 14V16ZM13 16.6901V21H15V16.6901H13Z" fill="#210049" mask="url(#path-2-inside-1)"/>
  <rect opacity="0.01" width="24" height="24" fill="#210049"/>
</svg>
