<svg width="24" height="24" viewBox="0 0 24 24" fill="none" xmlns="http://www.w3.org/2000/svg">
  <mask id="path-1-inside-1_180_3851" fill="white">
    <path fill-rule="evenodd" clip-rule="evenodd" d="M10 21H3L4.08857 9.68343C4.11204 9.4395 4.22425 9.21268 4.40392 9.04602L11.3199 2.63081C11.7035 2.27502 12.2965 2.27502 12.6801 2.63081L19.5961 9.04602C19.7757 9.21268 19.888 9.4395 19.9114 9.68343L21 21H14V16.6901C14 15.7606 13.104 15 12 15C10.896 15 10 15.7529 10 16.6901V21Z"/>
  </mask>
  <path fill-rule="evenodd" clip-rule="evenodd" d="M10 21H3L4.08857 9.68343C4.11204 9.4395 4.22425 9.21268 4.40392 9.04602L11.3199 2.63081C11.7035 2.27502 12.2965 2.27502 12.6801 2.63081L19.5961 9.04602C19.7757 9.21268 19.888 9.4395 19.9114 9.68343L21 21H14V16.6901C14 15.7606 13.104 15 12 15C10.896 15 10 15.7529 10 16.6901V21Z" fill="#4D336D"/>
  <path d="M3 21L2.00459 20.9042C1.97761 21.1848 2.07028 21.4638 2.25981 21.6724C2.44935 21.881 2.71813 22 3 22V21ZM10 21V22C10.5523 22 11 21.5523 11 21H10ZM4.08857 9.68343L3.09317 9.58768H3.09317L4.08857 9.68343ZM4.40392 9.04602L5.08398 9.77918L5.08398 9.77918L4.40392 9.04602ZM11.3199 2.63081L12 3.36397L12 3.36397L11.3199 2.63081ZM12.6801 2.63081L12 3.36397L12 3.36397L12.6801 2.63081ZM19.5961 9.04602L18.916 9.77918L19.5961 9.04602ZM19.9114 9.68343L18.916 9.77918L19.9114 9.68343ZM21 21V22C21.2819 22 21.5507 21.881 21.7402 21.6724C21.9297 21.4638 22.0224 21.1848 21.9954 20.9042L21 21ZM14 21H13C13 21.5523 13.4477 22 14 22V21ZM3 22H10V20H3V22ZM3.09317 9.58768L2.00459 20.9042L3.99541 21.0957L5.08398 9.77918L3.09317 9.58768ZM3.72385 8.31287C3.36453 8.64617 3.1401 9.09982 3.09317 9.58768L5.08398 9.77918L5.08398 9.77918L3.72385 8.31287ZM10.6399 1.89766L3.72385 8.31287L5.08398 9.77918L12 3.36397L10.6399 1.89766ZM13.3601 1.89766C12.593 1.18607 11.407 1.18607 10.6399 1.89766L12 3.36397L12 3.36397L13.3601 1.89766ZM20.2761 8.31287L13.3601 1.89766L12 3.36397L18.916 9.77918L20.2761 8.31287ZM20.9068 9.58768C20.8599 9.09982 20.6355 8.64618 20.2761 8.31287L18.916 9.77918V9.77918L20.9068 9.58768ZM21.9954 20.9042L20.9068 9.58768L18.916 9.77918L20.0046 21.0957L21.9954 20.9042ZM14 22H21V20H14V22ZM13 16.6901V21H15V16.6901H13ZM12 16C12.7147 16 13 16.4628 13 16.6901H15C15 15.0583 13.4933 14 12 14V16ZM11 16.6901C11 16.4578 11.2821 16 12 16V14C10.5099 14 9 15.0479 9 16.6901H11ZM11 21V16.6901H9V21H11Z" fill="#4D336D" mask="url(#path-1-inside-1_180_3851)"/>
</svg>
