<svg width="25" height="24" viewBox="0 0 25 24" fill="none" xmlns="http://www.w3.org/2000/svg">
  <path d="M18.3349 19.1474C18.2585 19.1025 18.1716 19.0787 18.0831 19.0784L8.04675 19.0469C6.37265 19.0415 5 17.6498 5 15.911V3C5 2.72386 5.22386 2.5 5.5 2.5H17.0461C18.6667 2.5 20 3.84627 20 5.53005V19.5356V20.1261L18.3349 19.1474Z" stroke="#210049" stroke-linecap="round" stroke-linejoin="round"/>
  <path d="M8.5 6.25C8.22386 6.25 8 6.47386 8 6.75C8 7.02614 8.22386 7.25 8.5 7.25V6.25ZM16.5 7.25C16.7761 7.25 17 7.02614 17 6.75C17 6.47386 16.7761 6.25 16.5 6.25V7.25ZM8.5 7.25H16.5V6.25H8.5V7.25Z" fill="#210049"/>
  <path d="M8.5 10.4722C8.22386 10.4722 8 10.6961 8 10.9722C8 11.2484 8.22386 11.4722 8.5 11.4722V10.4722ZM16.5 11.4722C16.7761 11.4722 17 11.2484 17 10.9722C17 10.6961 16.7761 10.4722 16.5 10.4722V11.4722ZM8.5 11.4722H16.5V10.4722H8.5V11.4722Z" fill="#210049"/>
  <path d="M8.5 14.6944C8.22386 14.6944 8 14.9183 8 15.1944C8 15.4706 8.22386 15.6944 8.5 15.6944V14.6944ZM16.5 15.6944C16.7761 15.6944 17 15.4706 17 15.1944C17 14.9183 16.7761 14.6944 16.5 14.6944V15.6944ZM8.5 15.6944H16.5V14.6944H8.5V15.6944Z" fill="#210049"/>
</svg>
