<svg width="24" height="24" viewBox="0 0 24 24" fill="none" xmlns="http://www.w3.org/2000/svg">
  <rect opacity="0.01" width="24" height="24" fill="#4D336D"/>
  <path fill-rule="evenodd" clip-rule="evenodd" d="M7.54515 19.5469L17.5815 19.5784L20 21V19.5356V5.53005C20 3.58039 18.453 2 16.5461 2H5C4.44771 2 4 2.44772 4 3V15.911C4 17.9148 5.58521 19.5406 7.54515 19.5469Z" fill="#4D336D"/>
  <path d="M8 6.25C7.72386 6.25 7.5 6.47386 7.5 6.75C7.5 7.02614 7.72386 7.25 8 7.25V6.25ZM16 7.25C16.2761 7.25 16.5 7.02614 16.5 6.75C16.5 6.47386 16.2761 6.25 16 6.25V7.25ZM8 7.25H16V6.25H8V7.25Z" fill="white"/>
  <path d="M8 10.4722C7.72386 10.4722 7.5 10.696 7.5 10.9722C7.5 11.2483 7.72386 11.4722 8 11.4722V10.4722ZM16 11.4722C16.2761 11.4722 16.5 11.2483 16.5 10.9722C16.5 10.696 16.2761 10.4722 16 10.4722V11.4722ZM8 11.4722H16V10.4722H8V11.4722Z" fill="white"/>
  <path d="M8 14.6943C7.72386 14.6943 7.5 14.9182 7.5 15.1943C7.5 15.4705 7.72386 15.6943 8 15.6943V14.6943ZM16 15.6943C16.2761 15.6943 16.5 15.4705 16.5 15.1943C16.5 14.9182 16.2761 14.6943 16 14.6943V15.6943ZM8 15.6943H16V14.6943H8V15.6943Z" fill="white"/>
</svg>
