<svg width="113" height="100" viewBox="0 0 113 100" fill="none" xmlns="http://www.w3.org/2000/svg">
<rect x="13.8271" width="98.6565" height="99.5874" fill="black" fill-opacity="0.01"/>
<rect x="13.8271" width="98.6565" height="99.5874" fill="black" fill-opacity="0.01"/>
<rect x="13.8271" width="98.6565" height="99.5874" fill="black" fill-opacity="0.01"/>
<mask id="mask0" mask-type="alpha" maskUnits="userSpaceOnUse" x="13" y="0" width="100" height="100">
<path fill-rule="evenodd" clip-rule="evenodd" d="M13.8271 0H112.484V99.5873H13.8271V0Z" fill="white"/>
</mask>
<g mask="url(#mask0)">
<path fill-rule="evenodd" clip-rule="evenodd" d="M39.0943 65.1832C39.0943 66.7096 38.481 67.9484 37.7246 67.9484C36.9688 67.9484 36.3555 66.7096 36.3555 65.1832C36.3555 63.6567 36.9688 62.418 37.7246 62.418C38.481 62.418 39.0943 63.6567 39.0943 65.1832Z" fill="#210049"/>
<path fill-rule="evenodd" clip-rule="evenodd" d="M50.0519 65.1832C50.0519 66.7096 49.4385 67.9484 48.6822 67.9484C47.9264 67.9484 47.3125 66.7096 47.3125 65.1832C47.3125 63.6567 47.9264 62.418 48.6822 62.418C49.4385 62.418 50.0519 63.6567 50.0519 65.1832Z" fill="#210049"/>
<path fill-rule="evenodd" clip-rule="evenodd" d="M74.7286 49.0423C74.7286 49.6747 74.2792 50.1848 73.7256 50.1848C73.1709 50.1848 72.7231 49.6747 72.7231 49.0423C72.7231 48.4121 73.1709 47.9004 73.7256 47.9004C74.2792 47.9004 74.7286 48.4121 74.7286 49.0423Z" stroke="#210049" stroke-linecap="round"/>
<path fill-rule="evenodd" clip-rule="evenodd" d="M78.6407 49.0423C78.6407 49.6747 78.1918 50.1848 77.6382 50.1848C77.0846 50.1848 76.6357 49.6747 76.6357 49.0423C76.6357 48.4121 77.0846 47.9004 77.6382 47.9004C78.1918 47.9004 78.6407 48.4121 78.6407 49.0423Z" fill="#210049"/>
<path fill-rule="evenodd" clip-rule="evenodd" d="M40.8528 31.3351C40.8528 32.1119 40.4587 32.7426 39.9726 32.7426C39.4859 32.7426 39.0918 32.1119 39.0918 31.3351C39.0918 30.5583 39.4859 29.9276 39.9726 29.9276C40.4587 29.9276 40.8528 30.5583 40.8528 31.3351Z" stroke="#210049" stroke-linecap="round"/>
<path fill-rule="evenodd" clip-rule="evenodd" d="M56.1151 31.3351C56.1151 32.1119 55.7205 32.7426 55.2343 32.7426C54.7481 32.7426 54.3535 32.1119 54.3535 31.3351C54.3535 30.5583 54.7481 29.9276 55.2343 29.9276C55.7205 29.9276 56.1151 30.5583 56.1151 31.3351Z" stroke="#210049" stroke-linecap="round"/>
<path fill-rule="evenodd" clip-rule="evenodd" d="M36.8309 92.13L14.422 34.6845C12.6525 30.1484 14.8604 25.0216 19.3552 23.2365L76.2626 0.615151C80.7574 -1.17106 85.8352 1.05872 87.6047 5.59482L110.014 63.0402C111.784 67.5763 109.574 72.7021 105.08 74.4894L48.173 97.1096C43.6782 98.8948 38.6004 96.6661 36.8309 92.13Z" fill="#FFE924"/>
<path fill-rule="evenodd" clip-rule="evenodd" d="M105.509 51.2426C96.6574 53.1428 86.7933 50.4065 78.2674 53.9126C73.424 55.9057 69.5187 59.7393 65.2719 62.9213C60.1295 66.7744 54.4827 68.3375 48.1425 68.5455C41.307 68.7697 34.4463 68.1502 27.7812 68.6812L29.8794 74.0604C37.9632 73.5517 46.3606 74.8678 54.36 73.682C58.9387 73.0039 63.1065 71.3442 66.9505 68.6497C71.6992 65.3205 75.8357 60.7475 81.2992 58.9037C89.6676 56.08 99.0853 58.5991 107.613 56.6354L105.509 51.2426Z" fill="#F3DE1C"/>
<path fill-rule="evenodd" clip-rule="evenodd" d="M53.1159 60.1372C62.5218 57.5866 68.3682 48.0236 77.2879 44.5065C84.9516 41.4841 93.7202 43.3354 101.187 40.1626L99.1352 34.9012C90.9761 38.6718 80.694 35.9821 72.6097 40.4265C67.9734 42.9739 64.1569 46.9839 59.9025 50.2344C54.915 54.0451 49.4467 55.6576 43.1932 55.5381C36.0463 55.4013 28.7687 53.506 21.604 52.848L23.8409 58.5812C33.6819 59.6839 43.7117 62.6884 53.1159 60.1372Z" fill="#F3DE1C"/>
<path fill-rule="evenodd" clip-rule="evenodd" d="M19.2746 46.8753C26.2376 46.8205 33.3533 47.631 40.178 46.6207C44.7578 45.9409 48.9256 44.2818 52.7696 41.5878C57.5182 38.2591 61.6548 33.6856 67.1188 31.8418C76.5602 28.6554 87.3386 32.2707 96.6654 28.5702L94.5829 23.2343C84.9559 26.8659 73.6735 22.908 64.0864 26.8513C59.2436 28.8427 55.3367 32.6763 51.0915 35.8594C45.9491 39.712 40.3017 41.2745 33.9616 41.4835C28.3352 41.6676 22.6915 41.2848 17.1533 41.4385L19.2746 46.8753Z" fill="#F3DE1C"/>
<rect x="23.8218" y="21.2272" width="64.4646" height="66.4798" fill="black" fill-opacity="0.01"/>
</g>
<path d="M43.5254 23.1234C43.5254 23.6756 43.9731 24.1234 44.5254 24.1234C45.0777 24.1234 45.5254 23.6756 45.5254 23.1234H43.5254ZM45.5254 7.76233C45.5254 7.21004 45.0777 6.76233 44.5254 6.76233C43.9731 6.76233 43.5254 7.21004 43.5254 7.76233H45.5254ZM45.5254 23.1234V7.76233H43.5254V23.1234H45.5254Z" fill="#210049"/>
<path d="M43.5254 92.9725C43.5254 93.5248 43.9731 93.9725 44.5254 93.9725C45.0777 93.9725 45.5254 93.5248 45.5254 92.9725H43.5254ZM45.5254 85.4369C45.5254 84.8846 45.0777 84.4369 44.5254 84.4369C43.9731 84.4369 43.5254 84.8846 43.5254 85.4369H45.5254ZM45.5254 92.9725V85.4369H43.5254V92.9725H45.5254Z" fill="#210049"/>
<path d="M15.572 23.568C15.9527 23.9681 16.5857 23.9837 16.9858 23.603C17.3858 23.2223 17.4015 22.5893 17.0208 22.1892L15.572 23.568ZM8.15165 12.8696C7.77091 12.4695 7.13794 12.4538 6.73787 12.8346C6.33779 13.2153 6.32211 13.8483 6.70285 14.2483L8.15165 12.8696ZM17.0208 22.1892L8.15165 12.8696L6.70285 14.2483L15.572 23.568L17.0208 22.1892Z" fill="#210049"/>
<path d="M13.8037 51.6573C14.356 51.6573 14.8037 51.2096 14.8037 50.6573C14.8037 50.105 14.356 49.6573 13.8037 49.6573L13.8037 51.6573ZM2.21045 49.6573C1.65816 49.6573 1.21045 50.105 1.21045 50.6573C1.21045 51.2096 1.65816 51.6573 2.21045 51.6573L2.21045 49.6573ZM13.8037 49.6573L2.21045 49.6573L2.21045 51.6573L13.8037 51.6573L13.8037 49.6573Z" fill="#210049"/>
<path d="M81.3327 88.7798C81.7254 89.1682 82.3585 89.1648 82.7469 88.7721C83.1353 88.3795 83.1318 87.7463 82.7392 87.3579L81.3327 88.7798ZM73.6319 78.3496C73.2393 77.9612 72.6061 77.9647 72.2178 78.3573C71.8294 78.75 71.8328 79.3831 72.2255 79.7715L73.6319 78.3496ZM82.7392 87.3579L73.6319 78.3496L72.2255 79.7715L81.3327 88.7798L82.7392 87.3579Z" fill="#210049"/>
<path d="M16.8466 78.5905C17.2272 78.1904 17.2114 77.5574 16.8112 77.1768C16.4111 76.7961 15.7781 76.8119 15.3975 77.2121L16.8466 78.5905ZM1.27544 92.0584C0.894799 92.4585 0.910624 93.0915 1.31079 93.4721C1.71095 93.8528 2.34392 93.8369 2.72456 93.4368L1.27544 92.0584ZM15.3975 77.2121L1.27544 92.0584L2.72456 93.4368L16.8466 78.5905L15.3975 77.2121Z" fill="#210049"/>
<path d="M88 51.6573C88.5522 51.6573 89 51.2096 89 50.6573C89 50.105 88.5522 49.6573 88 49.6573L88 51.6573ZM76.4067 49.6573C75.8545 49.6573 75.4067 50.105 75.4067 50.6573C75.4067 51.2096 75.8545 51.6573 76.4067 51.6573L76.4067 49.6573ZM88 49.6573L76.4067 49.6573L76.4067 51.6573L88 51.6573L88 49.6573Z" fill="#210049"/>
<path d="M65.2785 27.9104C64.8809 28.2937 64.8694 28.9268 65.2528 29.3244C65.6361 29.7219 66.2692 29.7334 66.6667 29.3501L65.2785 27.9104ZM82.8973 13.6992C83.2948 13.3159 83.3063 12.6828 82.923 12.2852C82.5396 11.8877 81.9065 11.8762 81.509 12.2595L82.8973 13.6992ZM66.6667 29.3501L82.8973 13.6992L81.509 12.2595L65.2785 27.9104L66.6667 29.3501Z" fill="#210049"/>
<path d="M22.3389 47.5997H66.7118V71.3793C66.7118 76.3499 62.6823 80.3793 57.7118 80.3793H31.3389C26.3683 80.3793 22.3389 76.3499 22.3389 71.3793V47.5997Z" stroke="#210049" stroke-width="2"/>
<rect x="18.8613" y="37.5861" width="50.7492" height="9.59322" rx="3" stroke="#210049" stroke-width="2"/>
<path d="M30.7148 32.659C30.7148 30.17 32.7326 28.1522 35.2216 28.1522H35.8013C38.6105 28.1522 40.8877 30.4295 40.8877 33.2387V37.1658H35.2216C32.7326 37.1658 30.7148 35.148 30.7148 32.659Z" stroke="#210049" stroke-width="2"/>
<path d="M57.7559 32.659C57.7559 30.17 55.7381 28.1522 53.2491 28.1522C50.7601 28.1522 48.7423 30.17 48.7423 32.659V37.1658H53.2491C55.7381 37.1658 57.7559 35.148 57.7559 32.659Z" stroke="#210049" stroke-width="2"/>
<circle cx="44.8153" cy="33.2386" r="3.92712" stroke="#210049" stroke-width="2"/>
<circle cx="8.87634" cy="68.9165" r="3.92712" stroke="#210049" stroke-width="2"/>
<circle cx="64.5238" cy="15.5878" r="3.92712" stroke="#210049" stroke-width="2"/>
<circle cx="28.8745" cy="15.2979" r="2.47797" stroke="#210049" stroke-width="2"/>
<circle cx="64.8134" cy="87.1758" r="2.47797" stroke="#210049" stroke-width="2"/>
<circle cx="28.2948" cy="87.7556" r="1.89831" stroke="#210049" stroke-width="2"/>
<circle cx="82.2035" cy="35.5861" r="1.89831" stroke="#210049" stroke-width="2"/>
<circle cx="7.42711" cy="36.1657" r="1.89831" stroke="#210049" stroke-width="2"/>
<circle cx="80.4642" cy="68.6267" r="1.89831" stroke="#210049" stroke-width="2"/>
<rect x="40.75" y="47.7225" width="8.5" height="32.5" stroke="#210049" stroke-width="1.5"/>
</svg>
