<svg width="240" height="248" viewBox="0 0 240 248" fill="none" xmlns="http://www.w3.org/2000/svg">
<rect width="240" height="248" fill="white"/>
<g clip-path="url(#clip0)">
<path d="M28.8423 224.671H19.8916V234H28.8423V224.671Z" fill="#2FCAD7"/>
<path d="M220.108 224.671H211.158V234H220.108V224.671Z" fill="#2FCAD7"/>
<path d="M222.885 175.432H17.1154C11.5288 175.432 7 179.951 7 185.525V214.578C7 220.153 11.5288 224.671 17.1154 224.671H222.885C228.471 224.671 233 220.153 233 214.578V185.525C233 179.951 228.471 175.432 222.885 175.432Z" fill="#D5F4F7"/>
<path d="M43.7757 141.444H196.224C197.98 141.436 199.72 141.773 201.344 142.437C202.969 143.102 204.446 144.079 205.691 145.314C206.936 146.549 207.925 148.017 208.6 149.634C209.275 151.251 209.624 152.985 209.626 154.737V176.785H30.4375V154.737C30.4417 151.21 31.8489 147.829 34.3498 145.337C36.8508 142.844 40.241 141.444 43.7757 141.444Z" fill="#D5F4F7"/>
<path d="M171.016 50.592H95.8365C94.0742 50.592 92.6455 52.0175 92.6455 53.7759V172.838C92.6455 174.596 94.0742 176.021 95.8365 176.021H171.016C172.778 176.021 174.207 174.596 174.207 172.838V53.7759C174.207 52.0175 172.778 50.592 171.016 50.592Z" fill="white" stroke="#2FCAD7" stroke-width="2" stroke-miterlimit="10"/>
<path d="M163.517 72.927C162.067 73.3321 160.529 73.2989 159.097 72.8315C157.848 72.4386 156.712 71.7498 155.786 70.824C154.861 69.8981 154.174 68.7626 153.784 67.5144C153.337 66.0828 153.304 64.5542 153.689 63.1047C153.757 62.8632 153.767 62.609 153.718 62.363C153.668 62.117 153.562 61.886 153.406 61.6889C153.251 61.4918 153.051 61.3342 152.822 61.2289C152.594 61.1235 152.344 61.0735 152.093 61.0829H114.184C113.935 61.0743 113.687 61.1242 113.46 61.2287C113.234 61.3331 113.035 61.4891 112.88 61.6842C112.724 61.8793 112.617 62.1081 112.567 62.352C112.516 62.5959 112.524 62.8483 112.589 63.0887C112.997 64.5633 112.959 66.1255 112.477 67.578C112.08 68.8127 111.392 69.9342 110.47 70.8484C109.548 71.7625 108.42 72.4426 107.18 72.8315C105.744 73.2983 104.201 73.3315 102.745 72.927C102.503 72.8591 102.248 72.8492 102.002 72.8982C101.755 72.9471 101.524 73.0535 101.326 73.2087C101.128 73.3639 100.97 73.5635 100.865 73.7912C100.759 74.0189 100.709 74.2682 100.719 74.5189V155.565C100.71 155.814 100.76 156.061 100.865 156.287C100.969 156.514 101.126 156.712 101.321 156.867C101.517 157.022 101.746 157.129 101.991 157.179C102.235 157.229 102.488 157.222 102.729 157.157C104.207 156.749 105.772 156.788 107.228 157.268C108.467 157.662 109.592 158.348 110.509 159.268C111.425 160.188 112.106 161.315 112.493 162.554C112.961 163.987 112.994 165.527 112.589 166.979C112.524 167.22 112.516 167.472 112.567 167.716C112.617 167.96 112.724 168.189 112.88 168.384C113.035 168.579 113.234 168.735 113.46 168.839C113.687 168.944 113.935 168.994 114.184 168.985H152.093C152.343 168.994 152.591 168.944 152.817 168.839C153.044 168.735 153.243 168.579 153.398 168.384C153.553 168.189 153.66 167.96 153.711 167.716C153.761 167.472 153.754 167.22 153.689 166.979C153.296 165.508 153.335 163.956 153.8 162.506C154.198 161.269 154.888 160.145 155.813 159.231C156.738 158.316 157.87 157.638 159.113 157.252C160.542 156.8 162.07 156.767 163.517 157.157C163.758 157.222 164.011 157.229 164.255 157.179C164.5 157.129 164.729 157.022 164.924 156.867C165.12 156.712 165.276 156.514 165.381 156.287C165.486 156.061 165.536 155.814 165.527 155.565V74.3756C165.514 74.1389 165.448 73.908 165.334 73.6999C165.22 73.4918 165.061 73.3118 164.868 73.173C164.676 73.0341 164.454 72.94 164.22 72.8974C163.987 72.8549 163.746 72.865 163.517 72.927Z" fill="#EAFAFB"/>
<path d="M104.739 69.0427C106.942 69.0427 108.728 67.2609 108.728 65.0629C108.728 62.8649 106.942 61.083 104.739 61.083C102.536 61.083 100.75 62.8649 100.75 65.0629C100.75 67.2609 102.536 69.0427 104.739 69.0427Z" fill="#EAFAFB"/>
<path d="M161.538 69.0427C163.741 69.0427 165.527 67.2609 165.527 65.0629C165.527 62.8649 163.741 61.083 161.538 61.083C159.335 61.083 157.55 62.8649 157.55 65.0629C157.55 67.2609 159.335 69.0427 161.538 69.0427Z" fill="#EAFAFB"/>
<path d="M104.739 169.033C106.942 169.033 108.728 167.251 108.728 165.053C108.728 162.855 106.942 161.073 104.739 161.073C102.536 161.073 100.75 162.855 100.75 165.053C100.75 167.251 102.536 169.033 104.739 169.033Z" fill="#EAFAFB"/>
<path d="M161.889 169.033C164.092 169.033 165.878 167.251 165.878 165.053C165.878 162.855 164.092 161.073 161.889 161.073C159.686 161.073 157.901 162.855 157.901 165.053C157.901 167.251 159.686 169.033 161.889 169.033Z" fill="#EAFAFB"/>
<path d="M127.65 121.083C126.733 121.994 125.491 122.505 124.196 122.505C122.902 122.505 121.66 121.994 120.742 121.083" stroke="#2FCAD7" stroke-width="2" stroke-miterlimit="10" stroke-linecap="round"/>
<path d="M139.824 112.582C139.858 113.114 139.782 113.648 139.602 114.15C139.421 114.651 139.139 115.111 138.774 115.5C138.408 115.889 137.967 116.199 137.476 116.41C136.986 116.622 136.457 116.732 135.923 116.732C135.388 116.732 134.86 116.622 134.369 116.41C133.879 116.199 133.438 115.889 133.072 115.5C132.706 115.111 132.425 114.651 132.244 114.15C132.063 113.648 131.988 113.114 132.022 112.582" stroke="#2FCAD7" stroke-width="2" stroke-miterlimit="10" stroke-linecap="round"/>
<path d="M116.386 112.582C116.42 113.114 116.345 113.648 116.164 114.15C115.984 114.651 115.702 115.111 115.336 115.5C114.971 115.889 114.529 116.199 114.039 116.41C113.548 116.622 113.02 116.732 112.485 116.732C111.951 116.732 111.422 116.622 110.932 116.41C110.442 116.199 110 115.889 109.634 115.5C109.269 115.111 108.987 114.651 108.806 114.15C108.626 113.648 108.55 113.114 108.584 112.582" stroke="#2FCAD7" stroke-width="2" stroke-miterlimit="10" stroke-linecap="round"/>
<path d="M92.805 127.976C92.805 127.976 69.0323 148.417 51.833 117.501" stroke="#2FCAD7" stroke-width="1.5" stroke-linecap="round" stroke-linejoin="round"/>
<path d="M161.539 130.492L188.04 180.399H198.777" stroke="#2FCAD7" stroke-width="1.5" stroke-linecap="round" stroke-linejoin="round"/>
<path d="M105.92 176.228L41.2231 176.738" stroke="#2FCAD7" stroke-width="1.5" stroke-linecap="round" stroke-linejoin="round"/>
<path d="M155.523 176.881L120.279 155.565C119.744 155.232 119.122 155.065 118.491 155.085C117.861 155.105 117.25 155.31 116.737 155.676V155.676C116.389 155.913 116.091 156.217 115.861 156.569C115.631 156.922 115.473 157.316 115.397 157.73L108.887 191.304" stroke="#2FCAD7" stroke-width="1.5" stroke-linecap="round" stroke-linejoin="round"/>
<path d="M32.7671 117.151H51.3225V118.074C51.3226 120.521 50.3531 122.868 48.6254 124.603C46.8978 126.339 44.5523 127.323 42.1007 127.34C39.6379 127.34 37.2761 126.363 35.5347 124.626C33.7933 122.888 32.815 120.532 32.815 118.074V117.151H32.7671Z" fill="#2FCAD7"/>
<path d="M36.5803 109.844V102.41" stroke="#2FCAD7" stroke-width="0.5" stroke-linecap="round" stroke-linejoin="round"/>
<path d="M40.2339 113.219V105.785" stroke="#2FCAD7" stroke-width="0.5" stroke-linecap="round" stroke-linejoin="round"/>
<path d="M44.4619 109.144V101.709" stroke="#2FCAD7" stroke-width="0.5" stroke-linecap="round" stroke-linejoin="round"/>
<path d="M47.5571 112.662V105.228" stroke="#2FCAD7" stroke-width="0.5" stroke-linecap="round" stroke-linejoin="round"/>
</g>
<defs>
<clipPath id="clip0">
<rect width="226" height="185" fill="white" transform="translate(7 49)"/>
</clipPath>
</defs>
</svg>
