<svg width="88" height="88" viewBox="0 0 88 88" fill="none" xmlns="http://www.w3.org/2000/svg">
<path d="M22.0073 81.0919L2.52126 31.8315C1.00778 27.9549 2.89963 23.5111 6.77791 21.9983L56.1551 2.52102C60.0334 1.00823 64.4792 2.89922 65.9927 6.77576L85.4787 56.2253C86.9922 60.1019 85.1004 64.5457 81.2221 66.0585L31.8449 85.4412C27.872 87.0485 23.5208 85.063 22.0073 81.0919Z" fill="#D5F4F7"/>
<path d="M81.5057 46.0139C73.8438 47.6213 65.3304 45.3521 57.8577 48.2831C53.601 49.985 50.1957 53.2943 46.6012 56.0362C42.1553 59.3454 37.2365 60.6691 31.7502 60.8582C25.8854 61.0473 19.8315 60.5746 14.0614 61.0473L15.8587 65.6803C22.9531 65.2075 30.1421 66.3421 37.1419 65.3966C41.1148 64.8293 44.8039 63.4111 48.0201 61.0473C52.1821 58.1163 55.7766 54.3343 60.5062 52.6324C67.7899 50.1741 75.9248 52.3488 83.3976 50.7414L81.5057 46.0139Z" fill="#ACEAEF"/>
<path d="M36.1015 53.6725C44.331 51.4978 49.3444 43.272 57.0064 40.2464C63.6279 37.599 71.2898 39.3009 77.7221 36.4644L76.0194 31.926C69.0196 35.2353 60.0333 32.8715 53.0335 36.6535C48.966 38.8282 45.6553 42.232 42.0608 45.0684C37.7096 48.3777 32.9799 49.7014 27.5882 49.6068C21.4397 49.5123 15.0074 47.9049 8.85889 47.3376L10.7507 52.2542C19.1695 53.1997 27.8719 55.8471 36.1015 53.6725Z" fill="#ACEAEF"/>
<path d="M6.77833 42.2318C12.8322 42.2318 19.0753 42.8937 24.9401 42.0427C28.9129 41.4754 32.602 40.0572 35.8182 37.6934C39.9802 34.7624 43.5748 30.9804 48.3044 29.2785C56.5339 26.5366 65.8985 29.6567 73.9389 26.442L72.1416 21.8091C63.7229 24.9292 53.9799 21.5254 45.6558 24.9292C41.3991 26.6311 37.9938 29.9404 34.3993 32.6823C29.9535 35.9916 25.0347 37.3152 19.5483 37.5043C14.6295 37.6934 9.80529 37.3152 4.98108 37.5043L6.77833 42.2318Z" fill="#ACEAEF"/>
<path d="M43.5623 50.8734H40.8313H30.2289V21.8523H53.7631V50.8734" stroke="#210049" stroke-width="2" stroke-linejoin="round"/>
<path d="M30.3092 27.5443H28.7831C25.5703 27.5443 23 24.9789 23 21.7722C23 18.5654 25.5703 16 28.7831 16H54.245C57.4578 16 60.0281 18.5654 60.0281 21.7722C60.0281 24.9789 57.4578 27.5443 54.245 27.5443H53.4418" stroke="#210049" stroke-width="2"/>
<path d="M53.6827 41.8945L55.6907 43.7384C60.3494 47.9874 63 54.0802 63 60.3333V61.9367C63 68.0296 58.0201 73 51.9156 73C45.8112 73 40.8313 68.0296 40.8313 61.9367V51.1139" stroke="#210049" stroke-width="2"/>
<path d="M55.3695 52.7173L44.0442 41.4135C42.6787 40.0506 40.51 40.0506 39.2249 41.4135C37.8594 42.7764 37.8594 44.9409 39.2249 46.2236L45.49 52.4768C45.49 52.4768 41.2329 59.2911 47.9799 64.5021" stroke="#210049" stroke-width="2" stroke-linecap="round" stroke-linejoin="round"/>
<path d="M32.3976 46.384C32.3976 46.0633 32.4779 45.7427 32.5582 45.5022H32.9598C32.8795 45.8228 32.7189 46.1435 32.7189 46.384C32.7189 46.6245 32.7992 46.7849 32.9598 46.9452C33.2008 47.1857 33.5221 47.1857 33.8434 47.1857C34.1647 47.1857 34.4859 47.1857 34.7269 46.9452C34.8875 46.7849 34.9679 46.6245 34.9679 46.384C34.9679 46.0633 34.8072 45.7427 34.6466 45.422H35.1285C35.2891 45.7427 35.3695 46.0633 35.3695 46.3039C35.3695 47.2659 34.7269 47.7469 33.9237 47.7469C33.1205 47.8271 32.3976 47.346 32.3976 46.384Z" fill="#210049"/>
<path d="M32.9598 45.2616H32.5582V44.7004L32.9598 45.2616ZM35.2892 45.2616H33.2811V44.7004H35.2892V45.2616Z" fill="#210049"/>
<path d="M33.2811 43.0169V42.5359L35.2892 43.2574V43.8186L33.2811 44.6203V44.0591L34.7269 43.4979L33.2811 43.0169Z" fill="#210049"/>
<path d="M32.9598 42.4557H32.5582V41.8945H32.9598V42.4557ZM35.2892 42.4557H33.2811V41.8945H35.2892V42.4557Z" fill="#210049"/>
<path d="M34.9679 40.6118C34.9679 40.3713 34.8876 40.211 34.8072 39.9705H35.2088C35.2892 40.211 35.2892 40.4515 35.2892 40.6118C35.2892 41.4135 34.8072 41.7342 34.245 41.7342C33.7631 41.7342 33.2008 41.4937 33.2008 40.6118C33.2008 40.4515 33.2008 40.211 33.2811 39.9705H33.6827C33.6024 40.211 33.6024 40.4515 33.6024 40.6118C33.6024 41.0928 33.9237 41.2532 34.3253 41.2532C34.5663 41.2532 34.9679 41.0928 34.9679 40.6118Z" fill="#210049"/>
<path d="M34.004 38.1266H35.2892V38.6878H35.1285C35.2892 38.8481 35.3695 39.0886 35.3695 39.3291C35.3695 39.6498 35.1285 39.9705 34.8072 39.9705C34.5663 39.9705 34.4056 39.8101 34.3253 39.6498C34.1647 39.4093 34.1647 39.0886 34.1647 38.6878H34.004C33.8434 38.6878 33.6024 38.6878 33.6024 39.0084C33.6024 39.2489 33.6827 39.4895 33.7631 39.73H33.3614C33.2811 39.4895 33.2008 39.2489 33.2008 39.0084C33.2008 38.1266 33.6024 38.1266 34.004 38.1266ZM34.3253 38.6076C34.3253 38.8481 34.3253 39.0084 34.4056 39.1688C34.4859 39.2489 34.5663 39.3291 34.6466 39.3291C34.8072 39.3291 34.8876 39.2489 34.8876 39.0084C34.8876 38.8481 34.8072 38.6878 34.7269 38.6076H34.3253Z" fill="#210049"/>
<rect x="8" y="8" width="72" height="72" fill="white" fill-opacity="0.01"/>
</svg>
