<svg width="48" height="48" viewBox="0 0 48 48" fill="none" xmlns="http://www.w3.org/2000/svg">
<path fill-rule="evenodd" clip-rule="evenodd" d="M21.6218 45.0152L2.98481 26.3782C1.67173 25.0651 1.67173 22.9357 2.98481 21.6227L21.6218 2.98481C22.9349 1.67173 25.0643 1.67173 26.3773 2.98481L45.0152 21.6227C46.3283 22.9357 46.3283 25.0651 45.0152 26.3782L26.3773 45.0152C25.0643 46.3283 22.9349 46.3283 21.6218 45.0152Z" fill="#D9E4FF"/>
<path d="M33 33V23.25" stroke="#210049" stroke-width="1.5" stroke-linecap="round" stroke-linejoin="round"/>
<path d="M15 23.25V33" stroke="#210049" stroke-width="1.5" stroke-linecap="round" stroke-linejoin="round"/>
<path d="M29.9283 14.25H18.0717C17.0503 14.25 16.1278 14.8125 15.7312 15.6778L13.7015 20.1094C13.0181 21.6005 14.1529 23.2898 15.9136 23.3438C15.9448 23.3438 15.9761 23.3438 16.0073 23.3438C17.4792 23.3438 18.6722 22.1634 18.6722 20.8955C18.6722 22.1611 19.8656 23.3438 21.3375 23.3438C22.8094 23.3438 24 22.2478 24 20.8955C24 22.1611 25.1929 23.3438 26.6648 23.3438C28.1367 23.3438 29.3301 22.2478 29.3301 20.8955C29.3301 22.2478 30.5231 23.3438 31.995 23.3438C32.0262 23.3438 32.0567 23.3438 32.0864 23.3438C33.847 23.2889 34.9819 21.5995 34.2984 20.1094L32.2687 15.6778C31.8722 14.8125 30.9497 14.25 29.9283 14.25Z" stroke="#210049" stroke-width="1.5" stroke-linecap="round" stroke-linejoin="round"/>
<path d="M13.5 33.75H34.5" stroke="#210049" stroke-width="1.5" stroke-linecap="round" stroke-linejoin="round"/>
<path d="M18.375 25.5H22.125C22.4234 25.5 22.7095 25.6185 22.9205 25.8295C23.1315 26.0405 23.25 26.3266 23.25 26.625V30.75H17.25V26.625C17.25 26.3266 17.3685 26.0405 17.5795 25.8295C17.7905 25.6185 18.0766 25.5 18.375 25.5Z" stroke="#210049" stroke-width="1.5" stroke-linecap="round" stroke-linejoin="round"/>
<path d="M25.5 33.75V26.625C25.5 26.3266 25.6185 26.0405 25.8295 25.8295C26.0405 25.6185 26.3266 25.5 26.625 25.5H29.625C29.9234 25.5 30.2095 25.6185 30.4205 25.8295C30.6315 26.0405 30.75 26.3266 30.75 26.625V33.75" stroke="#210049" stroke-width="1.5" stroke-linecap="round" stroke-linejoin="round"/>
</svg>
