<svg width="88" height="88" viewBox="0 0 88 88" fill="none" xmlns="http://www.w3.org/2000/svg">
<path d="M22.0073 81.0919L2.52126 31.8315C1.00778 27.9549 2.89963 23.5111 6.77791 21.9983L56.1551 2.52102C60.0334 1.00823 64.4792 2.89922 65.9927 6.77576L85.4787 56.2253C86.9922 60.1019 85.1004 64.5457 81.2221 66.0585L31.8449 85.4412C27.872 87.0485 23.5208 85.063 22.0073 81.0919Z" fill="#D5F4F7"/>
<path d="M81.5057 46.0139C73.8438 47.6213 65.3304 45.3521 57.8577 48.2831C53.601 49.985 50.1957 53.2943 46.6012 56.0362C42.1553 59.3454 37.2365 60.6691 31.7502 60.8582C25.8854 61.0473 19.8315 60.5746 14.0614 61.0473L15.8587 65.6803C22.9531 65.2075 30.1421 66.3421 37.1419 65.3966C41.1148 64.8293 44.8039 63.4111 48.0201 61.0473C52.1821 58.1163 55.7766 54.3343 60.5062 52.6324C67.7899 50.1741 75.9248 52.3488 83.3976 50.7414L81.5057 46.0139Z" fill="#ACEAEF"/>
<path d="M36.1015 53.6725C44.331 51.4978 49.3444 43.272 57.0064 40.2464C63.6279 37.599 71.2898 39.3009 77.7221 36.4644L76.0194 31.926C69.0196 35.2353 60.0333 32.8715 53.0335 36.6535C48.966 38.8282 45.6553 42.232 42.0608 45.0684C37.7096 48.3777 32.9799 49.7014 27.5882 49.6068C21.4397 49.5123 15.0074 47.9049 8.85889 47.3376L10.7507 52.2542C19.1695 53.1997 27.8719 55.8471 36.1015 53.6725Z" fill="#ACEAEF"/>
<path d="M6.77833 42.2318C12.8322 42.2318 19.0753 42.8937 24.9401 42.0427C28.9129 41.4754 32.602 40.0572 35.8182 37.6934C39.9802 34.7624 43.5748 30.9804 48.3044 29.2785C56.5339 26.5366 65.8985 29.6567 73.9389 26.442L72.1416 21.8091C63.7229 24.9292 53.9799 21.5254 45.6558 24.9292C41.3991 26.6311 37.9938 29.9404 34.3993 32.6823C29.9535 35.9916 25.0347 37.3152 19.5483 37.5043C14.6295 37.6934 9.80529 37.3152 4.98108 37.5043L6.77833 42.2318Z" fill="#ACEAEF"/>
<path d="M53.476 68.4763H28.3515C27.8686 68.4471 27.4147 68.2295 27.0828 67.8683C26.751 67.507 26.5661 67.0292 26.5661 66.5327C26.5661 66.0361 26.751 65.5584 27.0828 65.1971C27.4147 64.8358 27.8686 64.6183 28.3515 64.5891H52.9687C53.3557 64.5427 53.736 64.4497 54.1018 64.3119L55.4193 63.7981C56.0516 63.555 56.7415 63.5172 57.3955 63.6899L60.2347 64.4336C60.3641 64.4655 60.4793 64.5413 60.5616 64.6486C60.644 64.7559 60.6888 64.8885 60.6888 65.0251C60.6888 65.1617 60.644 65.2943 60.5616 65.4016C60.4793 65.5089 60.3641 65.5847 60.2347 65.6166L55.1031 68.0233C54.6227 68.2492 54.1119 68.3996 53.588 68.4695L53.476 68.4763ZM56.5787 64.8121C56.331 64.8102 56.0852 64.8561 55.8541 64.9474L54.5366 65.4544C54.057 65.6365 53.5567 65.7547 53.0478 65.8059H28.3515C28.1755 65.8234 28.0121 65.9075 27.8932 66.0418C27.7743 66.1762 27.7085 66.3512 27.7085 66.5327C27.7085 66.7142 27.7743 66.8892 27.8932 67.0235C28.0121 67.1579 28.1755 67.242 28.3515 67.2594H53.4365C53.8328 67.2022 54.2189 67.086 54.5827 66.9146L58.2782 65.184L57.0925 64.873C56.9241 64.832 56.7517 64.8116 56.5787 64.8121Z" fill="#210049" stroke="#210049" stroke-width="0.3"/>
<path d="M29.2013 70.531C28.8589 70.5292 28.5205 70.4557 28.2067 70.3151C27.893 70.1744 27.6105 69.9695 27.3766 69.713C27.0654 69.3564 26.8275 68.9392 26.677 68.4862C26.5265 68.0332 26.4664 67.5537 26.5004 67.0764V66.4004C26.4953 66.2507 26.5441 66.1044 26.6375 65.9894C26.7309 65.8743 26.8624 65.7987 27.0068 65.777C27.1511 65.7552 27.2982 65.7888 27.4199 65.8714C27.5416 65.954 27.6294 66.0797 27.6664 66.2246C27.6732 66.283 27.6732 66.342 27.6664 66.4004V66.5558C27.6601 66.6485 27.6724 66.7415 27.7027 66.8291C27.7329 66.9167 27.7804 66.9969 27.8422 67.0648C27.9041 67.1327 27.9788 67.1867 28.0619 67.2236C28.145 67.2605 28.2346 67.2794 28.3251 67.2792H53.4101C53.8064 67.222 54.1925 67.1058 54.5563 66.9344L59.7406 64.5074C59.9457 64.4123 60.1749 64.3865 60.3952 64.4339C60.6154 64.4813 60.8153 64.5994 60.9658 64.7711C61.0998 64.9269 61.2012 65.1093 61.2635 65.3071C61.3258 65.5048 61.3478 65.7135 61.3282 65.9204C61.3011 66.1185 61.2315 66.308 61.1244 66.4751C61.0173 66.6423 60.8754 66.783 60.7089 66.8871L56.8882 69.6927C56.2175 70.1268 55.4618 70.4037 54.6749 70.5039H54.6024L29.2013 70.531ZM27.9365 68.4285C28.0104 68.5911 28.1106 68.7397 28.2329 68.8679C28.3561 69.0044 28.5046 69.1143 28.6698 69.1909C28.835 69.2675 29.0135 69.3094 29.1947 69.3141L54.5892 69.3006C55.1809 69.223 55.7494 69.0155 56.2558 68.6921L60.0568 65.8933C60.1424 65.8392 60.1754 65.7987 60.1754 65.7784C60.1841 65.7475 60.1841 65.7147 60.1754 65.6838L55.103 68.0229C54.6227 68.2487 54.1119 68.3991 53.5879 68.469H28.3515C28.2121 68.473 28.0727 68.4594 27.9365 68.4285Z" fill="#210049" stroke="#210049" stroke-width="0.3"/>
<path d="M39.1088 67.0493H37.0536C36.9062 67.0334 36.7699 66.9621 36.6708 66.8491C36.5717 66.7361 36.5168 66.5895 36.5168 66.4375C36.5168 66.2855 36.5717 66.1388 36.6708 66.0259C36.7699 65.9129 36.9062 65.8416 37.0536 65.8257H38.371C36.5134 58.1458 39.234 53.3797 39.3526 53.1769C39.4338 53.0379 39.5655 52.9378 39.7187 52.8985C39.8719 52.8592 40.034 52.8839 40.1694 52.9673C40.3048 53.0507 40.4024 53.1858 40.4407 53.343C40.479 53.5003 40.4548 53.6666 40.3736 53.8056C40.3736 53.8529 37.6201 58.6731 39.7149 66.2718C39.7404 66.3626 39.7447 66.4582 39.7276 66.551C39.7104 66.6438 39.6722 66.7311 39.6161 66.8059C39.5584 66.8871 39.4817 66.9521 39.393 66.9946C39.3043 67.0372 39.2065 67.056 39.1088 67.0493Z" fill="#210049" stroke="#210049" stroke-width="0.3"/>
<path d="M47.2772 67.0491H45.2219C45.0746 67.0332 44.9382 66.9619 44.8391 66.8489C44.74 66.7359 44.6852 66.5893 44.6852 66.4373C44.6852 66.2853 44.74 66.1387 44.8391 66.0257C44.9382 65.9127 45.0746 65.8414 45.2219 65.8255H46.5394C44.662 58.1727 47.1981 53.8933 47.2772 53.704C47.3645 53.566 47.5017 53.4692 47.6586 53.4349C47.8155 53.4007 47.9792 53.4318 48.1138 53.5215C48.2483 53.6111 48.3426 53.7519 48.376 53.913C48.4093 54.074 48.379 54.242 48.2916 54.3801C48.2587 54.4341 45.795 58.7338 47.8832 66.3055C47.9087 66.3962 47.9131 66.4918 47.8959 66.5846C47.8788 66.6774 47.8406 66.7647 47.7844 66.8396C47.7232 66.9146 47.6449 66.973 47.5564 67.0096C47.4679 67.0461 47.372 67.0597 47.2772 67.0491Z" fill="#210049" stroke="#210049" stroke-width="0.3"/>
<path d="M53.746 54.658H53.6011L34.4383 53.6304C34.0742 53.6131 33.7171 53.5221 33.3874 53.3627C33.0577 53.2033 32.7619 52.9787 32.5171 52.7016C32.2722 52.4246 32.0831 52.1007 31.9607 51.7484C31.8382 51.3962 31.7847 51.0225 31.8033 50.649L32.9693 27.8528C32.978 27.6914 33.0488 27.5402 33.1662 27.4325C33.2836 27.3247 33.4378 27.2692 33.5951 27.2782C33.7523 27.2871 33.8996 27.3598 34.0046 27.4803C34.1097 27.6007 34.1637 27.759 34.155 27.9204L33.0022 50.7031C32.9825 51.1313 33.1287 51.5501 33.4088 51.8681C33.689 52.186 34.0804 52.3772 34.4975 52.4L53.6604 53.4276C54.0783 53.4479 54.4871 53.298 54.798 53.0107C55.1088 52.7233 55.2966 52.3216 55.3204 51.8929L56.3415 29.2793C56.3622 29.1277 56.4372 28.9895 56.5518 28.8917C56.6665 28.7938 56.8126 28.7433 56.9616 28.7501C57.1105 28.7569 57.2517 28.8204 57.3575 28.9282C57.4633 29.0361 57.5262 29.1805 57.5338 29.3333L56.5127 51.9538C56.4773 52.6826 56.1704 53.3696 55.6555 53.8728C55.1406 54.3761 54.457 54.6571 53.746 54.658Z" fill="#210049" stroke="#210049" stroke-width="0.3"/>
<path d="M57.3428 22.3696C57.2616 22.3665 57.1818 22.3461 57.1087 22.3097C57.0355 22.2733 56.9706 22.2216 56.9179 22.1581C56.8652 22.0945 56.8261 22.0204 56.8028 21.9404C56.7796 21.8604 56.7728 21.7764 56.7829 21.6936L57.0398 16.9207C57.053 16.7081 57.0242 16.4948 56.9552 16.2939C56.8861 16.0929 56.7782 15.9083 56.6379 15.7512C56.4998 15.5916 56.3318 15.4621 56.1439 15.3704C55.9561 15.2786 55.7523 15.2265 55.5444 15.2171L36.3816 14.1895C36.1743 14.1751 35.9663 14.2043 35.7704 14.2752C35.5745 14.3461 35.3947 14.4573 35.242 14.6019C35.0753 14.7439 34.9394 14.9201 34.843 15.1192C34.7466 15.3183 34.6918 15.5358 34.6821 15.7579L34.4186 20.4902C34.4128 20.5726 34.391 20.653 34.3546 20.7267C34.3182 20.8003 34.2679 20.8658 34.2066 20.9193C34.1453 20.9728 34.0742 21.0132 33.9975 21.0382C33.9208 21.0632 33.84 21.0723 33.7598 21.0649C33.6792 21.0598 33.6005 21.0381 33.5282 21.0011C33.456 20.964 33.3918 20.9124 33.3395 20.8493C33.2873 20.7861 33.2479 20.7128 33.2239 20.6337C33.1999 20.5546 33.1918 20.4713 33.1999 20.3888L33.4634 15.6565C33.4815 15.2844 33.5711 14.9196 33.7271 14.5831C33.8831 14.2466 34.1025 13.9451 34.3724 13.696C34.9131 13.1979 35.6229 12.9381 36.3487 12.9726L55.5115 14.0002C55.8744 14.0173 56.2304 14.1086 56.5584 14.2688C56.8865 14.429 57.18 14.6549 57.4219 14.9332C57.9089 15.4873 58.1644 16.2157 58.1333 16.9613L57.8698 21.7409C57.8757 21.8947 57.8246 22.045 57.7269 22.1617C57.6291 22.2784 57.4918 22.3527 57.3428 22.3696Z" fill="#210049" stroke="#210049" stroke-width="0.3"/>
<path d="M44.9124 45.6728L44.5632 45.639C42.8319 45.5919 41.1882 44.8469 39.9881 43.5653C38.788 42.2838 38.128 40.5687 38.151 38.7914C38.1739 37.0141 38.878 35.3175 40.1108 34.069C41.3435 32.8205 43.0058 32.1205 44.7378 32.1205C46.4698 32.1205 48.1321 32.8205 49.3649 34.069C50.5976 35.3175 51.3017 37.0141 51.3247 38.7914C51.3476 40.5687 50.6876 42.2838 49.4875 43.5653C48.2874 44.8469 46.6437 45.5919 44.9124 45.639V45.6728ZM44.9124 33.2471C43.4803 33.2854 42.1205 33.9009 41.1275 34.9606C40.1344 36.0203 39.588 37.4387 39.6067 38.9088C39.6253 40.3789 40.2074 41.7823 41.227 42.8151C42.2465 43.8479 43.6214 44.427 45.054 44.427C46.4866 44.427 47.8615 43.8479 48.8811 42.8151C49.9006 41.7823 50.4827 40.3789 50.5013 38.9088C50.52 37.4387 49.9736 36.0203 48.9806 34.9606C47.9875 33.9009 46.6277 33.2854 45.1956 33.2471H44.9124Z" fill="#210049" stroke="#210049" stroke-width="0.3"/>
<path d="M44.2537 43.2998L44.2998 42.3669C43.8012 42.2966 43.3166 42.146 42.8637 41.9207C42.4314 41.7062 42.039 41.4156 41.7043 41.0621L42.508 40.048C43.0024 40.5996 43.6515 40.9799 44.3657 41.1365L44.4513 39.3855L43.8848 39.2368C43.3429 39.1428 42.8394 38.8891 42.4356 38.5066C42.2874 38.3189 42.1777 38.1023 42.1132 37.87C42.0486 37.6376 42.0306 37.3943 42.0601 37.1546C42.0709 36.7542 42.1969 36.366 42.4224 36.0391C42.6536 35.7293 42.9669 35.4946 43.3248 35.363C43.7446 35.1971 44.1929 35.1212 44.6423 35.1399L44.6884 34.2408L45.3999 34.2746L45.3538 35.2143C45.7874 35.2798 46.212 35.3979 46.6186 35.5658C47.0258 35.726 47.411 35.9396 47.7648 36.2013L47.106 37.31C46.8107 37.1051 46.5001 36.9243 46.1772 36.7692C45.8964 36.6347 45.6028 36.5305 45.3011 36.4582L45.222 38.2024L45.7754 38.3309C46.3531 38.4353 46.8939 38.6942 47.3432 39.0813C47.5022 39.2499 47.623 39.4524 47.697 39.6744C47.771 39.8965 47.7964 40.1325 47.7714 40.3658C47.7607 40.7663 47.6296 41.1536 47.3959 41.4745C47.1447 41.7957 46.8152 42.0429 46.4407 42.1911C45.9813 42.365 45.4943 42.4499 45.0046 42.4412L44.9585 43.3539L44.2537 43.2998ZM44.5172 38.0604L44.6094 36.3703C44.3126 36.3539 44.0169 36.4193 43.753 36.5596C43.6495 36.6146 43.562 36.6967 43.4995 36.7976C43.4371 36.8986 43.4018 37.0148 43.3973 37.1343C43.3866 37.2831 43.4138 37.4322 43.4764 37.5669C43.5498 37.6911 43.6576 37.7899 43.786 37.8509C43.978 37.9391 44.1791 38.0049 44.3854 38.0469L44.5172 38.0604ZM45.0705 41.2311C45.3942 41.2371 45.7139 41.1579 45.9993 41.0012C46.1094 40.9475 46.2029 40.8634 46.2692 40.7583C46.3355 40.6533 46.372 40.5314 46.3748 40.4063C46.3878 40.2675 46.3651 40.1277 46.3089 40.0007C46.2327 39.8771 46.1194 39.7822 45.9862 39.7303C45.7747 39.6392 45.5536 39.5734 45.3274 39.5342L45.1759 39.4937L45.0705 41.2311Z" fill="#210049" stroke="#210049" stroke-width="0.3"/>
<path d="M39.8138 22.4915C39.4377 22.4812 39.0724 22.6214 38.7952 22.8824C38.518 23.1435 38.3505 23.5049 38.3283 23.8903C38.306 24.2758 38.4307 24.655 38.676 24.9478C38.9212 25.2406 39.2678 25.4241 39.6425 25.4594C40.0186 25.4697 40.3839 25.3295 40.6611 25.0685C40.9383 24.8074 41.1057 24.446 41.128 24.0605C41.1502 23.6751 41.0255 23.2959 40.7803 23.0031C40.535 22.7103 40.1884 22.5268 39.8138 22.4915ZM40.5384 23.6137C40.5296 23.6738 40.5092 23.7315 40.4786 23.7834C40.4479 23.8353 40.4075 23.8805 40.3598 23.9163C40.312 23.9522 40.2578 23.9779 40.2002 23.9921C40.1427 24.0063 40.083 24.0087 40.0246 23.9991C39.9062 23.9839 39.7983 23.9214 39.7244 23.8253C39.6504 23.7292 39.6163 23.607 39.6293 23.4853C39.6488 23.3648 39.7135 23.257 39.8096 23.1849C39.9056 23.1129 40.0254 23.0824 40.1431 23.1C40.2021 23.1067 40.2592 23.1253 40.3111 23.1549C40.363 23.1844 40.4087 23.2242 40.4455 23.272C40.4822 23.3198 40.5094 23.3747 40.5253 23.4333C40.5413 23.492 40.5457 23.5533 40.5384 23.6137Z" fill="#210049" stroke="#210049" stroke-width="0.3"/>
<path d="M51.447 23.1467C51.1623 23.1299 50.8792 23.2 50.6334 23.3482C50.3875 23.4964 50.19 23.716 50.0657 23.9793C49.9414 24.2426 49.8959 24.5379 49.935 24.8277C49.9741 25.1176 50.096 25.389 50.2853 25.6078C50.4746 25.8266 50.7228 25.9829 50.9986 26.057C51.2744 26.1312 51.5655 26.1197 51.835 26.0242C52.1045 25.9287 52.3403 25.7534 52.5128 25.5204C52.6853 25.2874 52.7866 25.0072 52.804 24.7151C52.8165 24.5204 52.7911 24.3251 52.7295 24.1405C52.6678 23.956 52.5711 23.7858 52.4449 23.6399C52.3186 23.494 52.1654 23.3752 51.9941 23.2906C51.8228 23.2059 51.6368 23.157 51.447 23.1467ZM52.1848 24.3501C52.158 24.4641 52.0908 24.5639 51.9964 24.63C51.9019 24.6961 51.7869 24.7239 51.6736 24.7079C51.5604 24.6919 51.4569 24.6333 51.3834 24.5434C51.3099 24.4535 51.2715 24.3389 51.2757 24.2216C51.3025 24.1075 51.3697 24.0078 51.4641 23.9416C51.5586 23.8755 51.6736 23.8478 51.7869 23.8638C51.9001 23.8798 52.0036 23.9384 52.0771 24.0283C52.1506 24.1181 52.189 24.2328 52.1848 24.3501Z" fill="#210049" stroke="#210049" stroke-width="0.3"/>
<path d="M55.854 29.9954H55.6301L34.7545 28.7785C33.7237 28.7176 32.7588 28.2388 32.0719 27.4477C31.3851 26.6566 31.0325 25.6179 31.0919 24.56L31.3159 20.47C31.3156 20.3771 31.3341 20.2851 31.37 20.1998C31.406 20.1146 31.4587 20.0378 31.5248 19.9744C31.591 19.911 31.6691 19.8622 31.7544 19.8311C31.8398 19.8001 31.9304 19.7874 32.0207 19.7939L59.3388 21.3894C59.5153 21.4032 59.6802 21.4854 59.7999 21.6192C59.8578 21.6862 59.9022 21.7643 59.9305 21.849C59.9588 21.9338 59.9704 22.0234 59.9646 22.1128L59.7143 26.2299C59.6558 27.2428 59.2247 28.1951 58.508 28.8942C57.7914 29.5933 56.8427 29.9869 55.854 29.9954ZM55.6959 28.7718C56.0506 28.7946 56.4062 28.7451 56.742 28.6259C57.0779 28.5068 57.3874 28.3205 57.6527 28.0779C57.918 27.8352 58.1337 27.5409 58.2874 27.2121C58.4412 26.8833 58.5298 26.5265 58.5483 26.1623L58.7459 22.5995L32.4752 21.0716L32.2776 24.6344C32.238 25.3683 32.4834 26.0883 32.9599 26.637C33.4365 27.1856 34.1055 27.5181 34.8204 27.5617L55.6959 28.7718Z" fill="#210049" stroke="#210049" stroke-width="0.3"/>
<path d="M60.2611 22.5864H60.2216L31.1776 20.8963C31.0973 20.8904 31.019 20.8681 30.9472 20.8307C30.8754 20.7934 30.8116 20.7417 30.7595 20.6788C30.7074 20.6159 30.668 20.5429 30.6436 20.4642C30.6193 20.3855 30.6105 20.3025 30.6177 20.2203C30.6311 20.0546 30.708 19.9011 30.8314 19.7934C30.9549 19.6857 31.1149 19.6326 31.2764 19.6456L60.3204 21.3358C60.401 21.3408 60.4797 21.3625 60.552 21.3995C60.6242 21.4366 60.6883 21.4882 60.7406 21.5514C60.7929 21.6145 60.8323 21.6878 60.8563 21.767C60.8803 21.8461 60.8884 21.9294 60.8803 22.0118C60.8685 22.1708 60.7977 22.319 60.6825 22.426C60.5672 22.5329 60.4164 22.5904 60.2611 22.5864Z" fill="#210049" stroke="#210049" stroke-width="0.3"/>
<path d="M63.9499 51.1565C63.8775 51.1971 62.975 52.1706 63.2912 52.2652C63.6074 52.3599 64.3715 51.8325 64.3715 51.8325C64.3715 51.8325 64.5099 53.9621 64.8458 53.9148C65.1818 53.8674 65.0105 52.4477 65.0105 52.4477C65.0105 52.4477 65.4453 53.9891 65.8076 53.935C66.1699 53.881 65.7417 52.3328 65.7417 52.3328C65.7417 52.3328 66.552 53.739 66.7891 53.3536C67.0263 52.9683 65.0566 50.3182 65.0566 50.3182L63.9499 51.1565Z" fill="#210049" stroke="#210049" stroke-width="0.3"/>
<path d="M64.7471 51.6022C64.5986 51.6028 64.4553 51.5461 64.3455 51.4435C64.2357 51.3408 64.1675 51.1996 64.1543 51.0478C64.1543 50.8179 64.095 50.5137 64.0554 50.2365L64.0028 49.8309C63.9853 49.6704 64.0306 49.5094 64.1288 49.3833C64.2271 49.2571 64.3701 49.1762 64.5264 49.1583C64.6828 49.1403 64.8397 49.1869 64.9626 49.2877C65.0856 49.3885 65.1644 49.5352 65.1819 49.6957L65.2346 50.0811C65.2741 50.3785 65.3202 50.7098 65.34 50.9531C65.3482 51.034 65.3407 51.1157 65.3179 51.1936C65.2951 51.2715 65.2575 51.3439 65.2073 51.4068C65.157 51.4696 65.0952 51.5217 65.0252 51.5598C64.9553 51.598 64.8787 51.6216 64.7998 51.6292L64.7471 51.6022Z" fill="#210049" stroke="#210049" stroke-width="0.3"/>
<path d="M63.9236 46.8431C63.7961 46.8404 63.6727 46.7964 63.571 46.7175C63.4693 46.6386 63.3944 46.5288 63.357 46.4037C61.3808 39.4946 56.7235 37.1081 56.6774 37.0878C56.5359 37.017 56.4276 36.8914 56.3763 36.7386C56.325 36.5858 56.335 36.4184 56.404 36.2732C56.473 36.128 56.5954 36.0168 56.7443 35.9642C56.8931 35.9116 57.0563 35.9218 57.1978 35.9926C57.4086 36.094 62.336 38.636 64.4967 46.0589C64.5189 46.1357 64.5261 46.2163 64.5179 46.2959C64.5097 46.3756 64.4863 46.4528 64.449 46.5232C64.4116 46.5935 64.3611 46.6556 64.3004 46.7059C64.2396 46.7562 64.1697 46.7936 64.0948 46.8161C64.0397 46.8354 63.9818 46.8446 63.9236 46.8431Z" fill="#210049" stroke="#210049" stroke-width="0.3"/>
<path d="M66.9604 48.2418L66.5124 46.5314C66.4811 46.4101 66.4267 46.2963 66.3524 46.1966C66.2781 46.0969 66.1853 46.0132 66.0795 45.9504C65.9736 45.8876 65.8566 45.8469 65.7354 45.8306C65.6141 45.8142 65.4909 45.8227 65.3728 45.8553L64.0883 46.2069C63.9701 46.2391 63.8592 46.2949 63.762 46.3711C63.6649 46.4474 63.5834 46.5426 63.5222 46.6512C63.461 46.7599 63.4213 46.8799 63.4054 47.0044C63.3895 47.1288 63.3977 47.2553 63.4295 47.3764C63.4094 47.6898 63.2836 47.9862 63.0738 48.2147L62.8696 48.3702C62.8135 48.4111 62.7713 48.4689 62.7489 48.5355C62.7264 48.6022 62.7249 48.6744 62.7444 48.7421L62.9223 49.4181C62.9448 49.4912 62.9897 49.5549 63.0501 49.6C63.1106 49.645 63.1836 49.6689 63.2583 49.6682C63.6087 49.6312 63.9618 49.6312 64.3123 49.6682H64.3452C64.5482 49.7759 64.7829 49.8024 65.0039 49.7426L66.2885 49.3911C66.5253 49.3288 66.7287 49.1732 66.8545 48.9581C66.9802 48.7429 67.0183 48.4855 66.9604 48.2418ZM65.9789 49.0192L65.1159 49.2558C65.0316 49.2759 64.9442 49.2787 64.8588 49.264C64.7734 49.2494 64.6917 49.2176 64.6182 49.1705C64.5448 49.1234 64.4812 49.0619 64.4309 48.9896C64.3807 48.9172 64.3448 48.8354 64.3254 48.7488L63.9895 47.4576C63.9666 47.3714 63.9606 47.2815 63.9717 47.193C63.9829 47.1045 64.011 47.0191 64.0545 46.9418C64.098 46.8645 64.156 46.7968 64.2251 46.7426C64.2942 46.6884 64.3731 46.6488 64.4572 46.626L65.3201 46.3894C65.4045 46.3649 65.4927 46.3579 65.5797 46.3689C65.6667 46.3799 65.7508 46.4085 65.8268 46.4532C65.9029 46.4979 65.9695 46.5578 66.0228 46.6292C66.076 46.7007 66.1148 46.7824 66.137 46.8694L66.4729 48.1607C66.4996 48.2504 66.5077 48.3448 66.4969 48.4379C66.4861 48.531 66.4565 48.6208 66.41 48.7015C66.3636 48.7823 66.3012 48.8522 66.227 48.9069C66.1528 48.9616 66.0683 48.9999 65.9789 49.0192Z" fill="#210049" stroke="#210049" stroke-width="0.3"/>
<path d="M64.6704 47.2268L64.5249 47.2701C64.4795 47.2836 64.4533 47.3323 64.4665 47.3789L64.5435 47.6517C64.5566 47.6983 64.6041 47.7251 64.6496 47.7116L64.7951 47.6683C64.8405 47.6548 64.8667 47.6061 64.8535 47.5595L64.7765 47.2867C64.7633 47.2401 64.7158 47.2133 64.6704 47.2268Z" fill="#210049" stroke="#210049" stroke-width="0.3"/>
<path d="M65.6619 46.7011L65.4658 46.7598C65.4344 46.7692 65.4164 46.803 65.4255 46.8353L65.4532 46.9326C65.4624 46.9649 65.4953 46.9834 65.5267 46.974L65.7228 46.9153C65.7542 46.9059 65.7722 46.8721 65.7631 46.8399L65.7354 46.7425C65.7262 46.7103 65.6933 46.6917 65.6619 46.7011Z" fill="#210049" stroke="#210049" stroke-width="0.3"/>
<path d="M64.901 48.0082L64.7301 48.059C64.6917 48.0705 64.6696 48.1117 64.6807 48.1512L64.7302 48.3265C64.7413 48.3659 64.7815 48.3886 64.8199 48.3772L64.9908 48.3264C65.0292 48.315 65.0514 48.2737 65.0402 48.2343L64.9907 48.059C64.9796 48.0195 64.9394 47.9968 64.901 48.0082Z" fill="#210049" stroke="#210049" stroke-width="0.3"/>
<path d="M65.89 47.7174L65.7191 47.7682C65.6807 47.7796 65.6586 47.8209 65.6697 47.8603L65.7192 48.0356C65.7303 48.0751 65.7705 48.0978 65.809 48.0864L65.9798 48.0356C66.0182 48.0241 66.0404 47.9829 66.0292 47.9434L65.9797 47.7681C65.9686 47.7287 65.9284 47.706 65.89 47.7174Z" fill="#210049" stroke="#210049" stroke-width="0.3"/>
<path d="M65.6982 47.9531L65.0338 48.1507C64.9639 48.1715 64.9237 48.2465 64.944 48.3182L64.9605 48.3766C64.9807 48.4484 65.0538 48.4897 65.1237 48.4689L65.788 48.2713C65.8579 48.2505 65.8981 48.1755 65.8779 48.1038L65.8614 48.0454C65.8411 47.9737 65.7681 47.9324 65.6982 47.9531Z" fill="#210049" stroke="#210049" stroke-width="0.3"/>
<path d="M31.6584 36.1002C28.8259 36.1002 26.5268 35.2687 24.8009 33.6259C21.6983 30.6648 21.6258 26.1894 21.6192 25.9866C21.6209 25.8251 21.6837 25.6706 21.7943 25.5558C21.905 25.441 22.0548 25.3749 22.2121 25.3714C22.3688 25.3731 22.5186 25.4378 22.6294 25.5515C22.7402 25.6652 22.8032 25.819 22.8049 25.9798C22.8049 26.0204 22.884 30.1442 25.6112 32.7403C27.2844 34.3357 29.6361 35.0456 32.5807 34.8495C32.7307 34.8533 32.874 34.9148 32.982 35.0218C33.09 35.1288 33.155 35.2734 33.1641 35.4272C33.1732 35.581 33.1258 35.7327 33.0312 35.8523C32.9366 35.9719 32.8017 36.0507 32.6531 36.0732C32.3172 36.0934 31.9812 36.1002 31.6584 36.1002Z" fill="#210049" stroke="#210049" stroke-width="0.3"/>
<path d="M47.4946 23.4723L44.0494 23.3303C43.9987 23.3276 43.948 23.3353 43.9002 23.3529C43.8524 23.3705 43.8085 23.3978 43.7711 23.433C43.7337 23.4683 43.7035 23.5108 43.6823 23.5582C43.6611 23.6056 43.6493 23.6568 43.6476 23.7089L43.5883 25.061C43.5651 25.6362 43.7648 26.1974 44.1438 26.6219C44.5228 27.0463 45.0503 27.2994 45.6106 27.3257C46.17 27.3477 46.7152 27.1419 47.1274 26.7531C47.5395 26.3644 47.7852 25.8242 47.8108 25.2503L47.8635 23.8982C47.8671 23.8452 47.8604 23.7921 47.8437 23.7419C47.827 23.6916 47.8007 23.6453 47.7663 23.6057C47.7319 23.566 47.6902 23.5338 47.6436 23.5109C47.5969 23.488 47.5463 23.4748 47.4946 23.4723ZM46.6976 25.0542L44.6686 24.946C44.5556 24.9276 44.4538 24.8656 44.384 24.7725C44.3141 24.6795 44.2816 24.5626 44.2932 24.4458C44.2896 24.3878 44.2974 24.3298 44.3162 24.275C44.335 24.2202 44.3643 24.1699 44.4024 24.127C44.4405 24.0841 44.4866 24.0495 44.538 24.0253C44.5894 24.0011 44.645 23.9878 44.7016 23.9861L46.7305 24.0942C46.7872 24.1017 46.8419 24.1206 46.8914 24.1498C46.941 24.1791 46.9844 24.218 47.0193 24.2645C47.0542 24.3109 47.0798 24.364 47.0947 24.4206C47.1095 24.4773 47.1134 24.5363 47.106 24.5945C47.1086 24.6522 47.1002 24.7099 47.0811 24.7643C47.062 24.8186 47.0326 24.8686 46.9947 24.9113C46.9568 24.954 46.911 24.9886 46.86 25.0131C46.809 25.0376 46.7538 25.0516 46.6976 25.0542Z" fill="#210049" stroke="#210049" stroke-width="0.3"/>
<path d="M23.2859 26.1962C23.365 26.1962 24.4651 25.4458 24.195 25.2836C23.9249 25.1213 23.0422 25.4391 23.0422 25.4391C23.0422 25.4391 23.4045 23.3366 23.0422 23.3028C22.6799 23.269 22.5415 24.6548 22.5415 24.6548C22.5415 24.6548 22.502 23.0797 22.1661 23.0459C21.8301 23.0121 21.8564 24.6143 21.8564 24.6143C21.8564 24.6143 21.3953 23.0459 21.0791 23.3704C20.7629 23.6949 22.0475 26.7506 22.0475 26.7506L23.2859 26.1962Z" fill="#210049" stroke="#210049" stroke-width="0.3"/>
<path d="M35.9996 73.2169H34.1683C34.0111 73.2169 33.8603 73.1528 33.7491 73.0387C33.6379 72.9246 33.5754 72.7698 33.5754 72.6084C33.5754 72.4471 33.6379 72.2923 33.7491 72.1782C33.8603 72.0641 34.0111 72 34.1683 72H35.9996C36.1568 72 36.3076 72.0641 36.4188 72.1782C36.53 72.2923 36.5925 72.4471 36.5925 72.6084C36.5925 72.7698 36.53 72.9246 36.4188 73.0387C36.3076 73.1528 36.1568 73.2169 35.9996 73.2169Z" fill="#210049" stroke="#210049" stroke-width="0.3"/>
<path d="M37.6069 75.2169H32.6005C32.4433 75.2169 32.2925 75.1528 32.1813 75.0387C32.0701 74.9246 32.0076 74.7698 32.0076 74.6084C32.0076 74.4471 32.0701 74.2923 32.1813 74.1782C32.2925 74.0641 32.4433 74 32.6005 74H37.6069C37.7642 74 37.915 74.0641 38.0262 74.1782C38.1373 74.2923 38.1998 74.4471 38.1998 74.6084C38.1998 74.7698 38.1373 74.9246 38.0262 75.0387C37.915 75.1528 37.7642 75.2169 37.6069 75.2169Z" fill="#210049" stroke="#210049" stroke-width="0.3"/>
<path d="M49.7936 73.2169H47.9623C47.8051 73.2169 47.6543 73.1528 47.5431 73.0387C47.4319 72.9246 47.3694 72.7698 47.3694 72.6084C47.3694 72.4471 47.4319 72.2923 47.5431 72.1782C47.6543 72.0641 47.8051 72 47.9623 72H49.7936C49.9509 72 50.1017 72.0641 50.2128 72.1782C50.324 72.2923 50.3865 72.4471 50.3865 72.6084C50.3865 72.7698 50.324 72.9246 50.2128 73.0387C50.1017 73.1528 49.9509 73.2169 49.7936 73.2169Z" fill="#210049" stroke="#210049" stroke-width="0.3"/>
<path d="M51.3746 75.2169H46.3747C46.2175 75.2169 46.0667 75.1528 45.9555 75.0387C45.8443 74.9246 45.7819 74.7698 45.7819 74.6084C45.7819 74.4471 45.8443 74.2923 45.9555 74.1782C46.0667 74.0641 46.2175 74 46.3747 74H51.3746C51.5318 74 51.6826 74.0641 51.7938 74.1782C51.905 74.2923 51.9675 74.4471 51.9675 74.6084C51.9675 74.7698 51.905 74.9246 51.7938 75.0387C51.6826 75.1528 51.5318 75.2169 51.3746 75.2169Z" fill="#210049" stroke="#210049" stroke-width="0.3"/>
<path d="M56.8686 19.4429H56.8356L34.6821 18.2531C34.6006 18.2499 34.5207 18.2295 34.4472 18.1931C34.3738 18.1568 34.3084 18.1052 34.2552 18.0418C34.2021 17.9783 34.1622 17.9043 34.1382 17.8243C34.1142 17.7444 34.1065 17.6602 34.1156 17.577C34.1198 17.4971 34.1393 17.4188 34.1731 17.3466C34.2068 17.2744 34.2541 17.2098 34.3123 17.1564C34.3704 17.103 34.4382 17.0619 34.5119 17.0355C34.5855 17.0091 34.6635 16.9978 34.7414 17.0024L56.9147 18.1922C56.9956 18.1963 57.0748 18.2174 57.1475 18.2541C57.2202 18.2909 57.2848 18.3425 57.3372 18.4059C57.3897 18.4692 57.429 18.5429 57.4526 18.6225C57.4762 18.702 57.4837 18.7856 57.4746 18.8683C57.4678 19.0267 57.4003 19.1759 57.2868 19.2835C57.1733 19.3911 57.023 19.4484 56.8686 19.4429Z" fill="#210049" stroke="#210049" stroke-width="0.3"/>
<path d="M55.6236 48.9317L32.7059 47.708C32.558 47.6863 32.4233 47.6087 32.3283 47.4904C32.2332 47.3721 32.1847 47.2216 32.1921 47.0685C32.1995 46.9153 32.2624 46.7705 32.3684 46.6625C32.4744 46.5545 32.6159 46.4909 32.7652 46.4844L55.6433 47.7148C55.8006 47.7148 55.9514 47.7789 56.0626 47.893C56.1737 48.0071 56.2362 48.1619 56.2362 48.3232C56.2362 48.4846 56.1737 48.6394 56.0626 48.7535C55.9514 48.8676 55.8006 48.9317 55.6433 48.9317H55.6236Z" fill="#210049" stroke="#210049" stroke-width="0.3"/>
<path d="M46.5395 16.8603H46.4933L44.9387 16.7386C44.8589 16.7327 44.7811 16.7104 44.71 16.6729C44.6389 16.6354 44.5759 16.5835 44.5248 16.5203C44.4737 16.4571 44.4356 16.384 44.4128 16.3054C44.39 16.2267 44.3829 16.1441 44.392 16.0626C44.3967 15.9803 44.4179 15.9 44.4542 15.8265C44.4904 15.753 44.541 15.688 44.6028 15.6354C44.6645 15.5828 44.7361 15.5438 44.8132 15.5207C44.8902 15.4977 44.9711 15.4911 45.0507 15.5014L46.6053 15.6231C46.6848 15.6299 46.7621 15.6528 46.8328 15.6907C46.9035 15.7285 46.9661 15.7804 47.0171 15.8433C47.068 15.9063 47.1061 15.979 47.1293 16.0573C47.1525 16.1356 47.1602 16.2178 47.1521 16.2992C47.1387 16.4551 47.0679 16.6 46.9541 16.7043C46.8403 16.8085 46.692 16.8643 46.5395 16.8603Z" fill="#210049" stroke="#210049" stroke-width="0.3"/>
<path d="M44.9915 51.2438H44.9454L43.2458 51.1154C43.1654 51.1104 43.0869 51.0887 43.015 51.0516C42.9431 51.0144 42.8793 50.9626 42.8276 50.8994C42.7758 50.8361 42.7371 50.7627 42.7139 50.6836C42.6907 50.6045 42.6834 50.5214 42.6925 50.4393C42.6982 50.3572 42.72 50.2771 42.7564 50.2038C42.7929 50.1305 42.8434 50.0654 42.9048 50.0124C42.9662 49.9595 43.0374 49.9197 43.1141 49.8955C43.1907 49.8713 43.2714 49.8631 43.3512 49.8715L45.0903 49.9999C45.1706 50.0049 45.2491 50.0266 45.321 50.0637C45.3929 50.1009 45.4567 50.1526 45.5085 50.2159C45.5603 50.2792 45.599 50.3526 45.6222 50.4317C45.6454 50.5108 45.6527 50.5939 45.6436 50.676C45.6378 50.7575 45.6163 50.8369 45.5802 50.9098C45.5441 50.9826 45.4943 51.0474 45.4336 51.1003C45.3729 51.1531 45.3025 51.193 45.2266 51.2177C45.1507 51.2423 45.0708 51.2512 44.9915 51.2438Z" fill="#210049" stroke="#210049" stroke-width="0.3"/>
</svg>
