<svg width="48" height="48" viewBox="0 0 48 48" fill="none" xmlns="http://www.w3.org/2000/svg">
<path fill-rule="evenodd" clip-rule="evenodd" d="M21.6218 45.0152L2.98481 26.3782C1.67173 25.0651 1.67173 22.9357 2.98481 21.6227L21.6218 2.98481C22.9349 1.67173 25.0643 1.67173 26.3773 2.98481L45.0152 21.6227C46.3283 22.9357 46.3283 25.0651 45.0152 26.3782L26.3773 45.0152C25.0643 46.3283 22.9349 46.3283 21.6218 45.0152Z" fill="#D5F4F7"/>
<g clip-path="url(#clip0_862_12169)">
<path d="M24 16.5C25.0355 16.5 25.875 15.6605 25.875 14.625C25.875 13.5895 25.0355 12.75 24 12.75C22.9645 12.75 22.125 13.5895 22.125 14.625C22.125 15.6605 22.9645 16.5 24 16.5Z" stroke="#210049" stroke-width="1.5" stroke-linejoin="round"/>
<path d="M21.5733 24.8644C21.7092 24.0178 21.7701 23.1994 21.5498 22.6336C21.3623 22.147 20.9545 21.8747 20.4623 21.6891L16.125 20.2856C15.5625 20.0981 15.037 19.7841 15 19.1634C14.9531 18.3666 15.6562 17.8509 16.3594 18.0384C16.3594 18.0384 20.4844 19.4981 24 19.4981C27.5156 19.4981 31.5937 18.045 31.5937 18.045C32.4375 17.8106 33 18.4669 33 19.1602C33 19.8262 32.4844 20.0606 31.875 20.2823L27.75 21.7781C27.375 21.9187 26.7656 22.2 26.5312 22.6303C26.25 23.1342 26.2969 24.0145 26.4328 24.8611L26.7094 26.25L28.4629 33.9328C28.5942 34.5492 28.1676 35.1253 27.5536 35.2331C26.9395 35.3409 26.4375 34.9219 26.2556 34.3256L24.495 28.8914C24.4103 28.6308 24.3353 28.3672 24.27 28.1006L24 27L23.7515 28.0148C23.6728 28.3383 23.5822 28.6583 23.4797 28.9748L21.75 34.3209C21.5625 34.9233 21.0703 35.3405 20.4562 35.2331C19.8422 35.1258 19.4062 34.5023 19.5441 33.9328L21.2967 26.2533L21.5733 24.8644Z" stroke="#210049" stroke-width="1.5" stroke-linejoin="round"/>
</g>
<defs>
<clipPath id="clip0_862_12169">
<rect width="24" height="24" fill="white" transform="translate(12 12)"/>
</clipPath>
</defs>
</svg>
