<svg width="48" height="48" viewBox="0 0 48 48" fill="none" xmlns="http://www.w3.org/2000/svg">
<path fill-rule="evenodd" clip-rule="evenodd" d="M21.6218 45.0152L2.98481 26.3782C1.67173 25.0651 1.67173 22.9357 2.98481 21.6227L21.6218 2.98481C22.9349 1.67173 25.0643 1.67173 26.3773 2.98481L45.0152 21.6227C46.3283 22.9357 46.3283 25.0651 45.0152 26.3782L26.3773 45.0152C25.0643 46.3283 22.9349 46.3283 21.6218 45.0152Z" fill="#F8BBD0"/>
<path d="M26.7783 13.5469L16.5 26.25H22.5L21.023 34.3702C21.0202 34.3861 21.0209 34.4024 21.0251 34.4181C21.0293 34.4337 21.0368 34.4482 21.0473 34.4606C21.0577 34.473 21.0707 34.4829 21.0853 34.4897C21.1 34.4965 21.116 34.5 21.1322 34.5V34.5C21.1494 34.5 21.1664 34.4959 21.1818 34.4882C21.1971 34.4805 21.2105 34.4693 21.2208 34.4555L31.5 21.75H25.5L26.9841 13.6289C26.9861 13.6127 26.9846 13.5963 26.9797 13.5807C26.9749 13.5652 26.9668 13.5508 26.956 13.5386C26.9452 13.5264 26.9319 13.5167 26.917 13.51C26.9021 13.5034 26.886 13.4999 26.8697 13.5V13.5C26.8518 13.5001 26.8343 13.5044 26.8184 13.5125C26.8025 13.5206 26.7888 13.5324 26.7783 13.5469V13.5469Z" stroke="#210049" stroke-width="1.5" stroke-linecap="round" stroke-linejoin="round"/>
</svg>
