<svg xmlns="http://www.w3.org/2000/svg" class="ionicon" viewBox="0 0 26 32">
  <path d="M12.563 21.333c-1.63 0-2.963 1.192-2.963 2.65v5.367c0 1.457 1.333 2.65 2.963 2.65s2.963-1.193 2.963-2.65v-5.367c0-1.458-1.333-2.65-2.963-2.65zM22.995 3.468h-5.531c-0.647-2.011-2.586-3.468-4.884-3.468s-4.238 1.457-4.884 3.468h-5.459c-0.79 0-1.437 0.624-1.437 1.387s0.646 1.387 1.437 1.387h5.531c0.359 1.179 1.149 2.15 2.227 2.774-3.879 1.11-6.752 4.578-6.752 8.67v7.283c0 1.249 1.077 2.289 2.37 2.289h1.939v-3.954c0-2.705 2.299-4.925 5.1-4.925s5.1 2.22 5.1 4.925v3.954h1.939c1.293 0 2.37-1.040 2.37-2.289v-7.214c0-4.092-2.873-7.63-6.752-8.67 1.077-0.624 1.868-1.595 2.227-2.774h5.531c0.79 0 1.437-0.624 1.437-1.387-0.072-0.832-0.718-1.457-1.508-1.457zM12.58 7.699c-1.58 0-2.873-1.248-2.873-2.774s1.293-2.774 2.873-2.774c1.58 0 2.873 1.248 2.873 2.774 0.072 1.526-1.221 2.774-2.873 2.774z"></path>
</svg>