<svg width="64" height="64" viewBox="0 0 64 64" fill="none" xmlns="http://www.w3.org/2000/svg">
<path d="M0 8C0 3.58172 3.58172 0 8 0H56C60.4183 0 64 3.58172 64 8V56C64 60.4183 60.4183 64 56 64H8C3.58172 64 0 60.4183 0 56V8Z" fill="#F9D641"/>
<mask id="mask0" mask-type="alpha" maskUnits="userSpaceOnUse" x="0" y="0" width="64" height="64">
<path d="M0 8C0 3.58172 3.58172 0 8 0H56C60.4183 0 64 3.58172 64 8V56C64 60.4183 60.4183 64 56 64H8C3.58172 64 0 60.4183 0 56V8Z" fill="#F9D641"/>
</mask>
<g mask="url(#mask0)">
<path d="M-19.8093 35.4736C-11.7093 32.8736 -5.10935 28.1736 0.190653 21.5736C2.09065 19.1736 -2.00935 16.5736 -3.90935 18.9736C-8.30935 24.4736 -14.1093 28.5736 -20.9093 30.7736C-23.8093 31.6736 -22.7093 36.3736 -19.8093 35.4736Z" fill="#EDC70A"/>
<path d="M18.9907 16.9736C24.9907 16.1736 30.7907 17.4736 35.9907 20.5736C38.6907 22.1736 41.1907 18.0736 38.4907 16.4736C32.0907 12.6736 25.0906 11.3736 17.7906 12.2736C14.6906 12.6736 15.8907 17.3736 18.9907 16.9736Z" fill="#EDC70A"/>
<path d="M39.5907 32.8736C47.2907 30.4736 54.7907 26.2736 55.5907 17.4736C55.8907 14.3736 50.9907 14.2736 50.7907 17.2736C50.1906 23.6736 43.8907 26.4736 38.4907 28.1736C35.4907 29.0736 36.5907 33.7736 39.5907 32.8736Z" fill="#EDC70A"/>
<path d="M49.7907 45.5736C53.9907 46.8736 57.3907 49.2736 60.0907 52.7736C61.9907 55.2736 65.5907 51.9736 63.5907 49.4736C60.3907 45.3736 56.0907 42.4736 51.0907 40.8736C48.0907 40.0736 46.7907 44.6736 49.7907 45.5736Z" fill="#EDC70A"/>
<path d="M23.5907 65.0736C31.5907 66.1736 41.6907 65.6736 44.5907 56.5736C45.4907 53.5736 40.8907 52.1736 39.8907 55.1736C37.7907 61.8736 29.1907 60.9736 23.6907 60.2736C20.5907 59.8736 20.4907 64.6736 23.5907 65.0736Z" fill="#EDC70A"/>
<path d="M4.39066 46.0736C10.3907 46.6736 16.0907 48.3736 21.3907 51.2736C24.0907 52.7736 26.6907 48.6736 23.8907 47.1736C17.7907 43.8736 11.3907 41.8736 4.49066 41.1736C1.39066 40.8736 1.29066 45.7736 4.39066 46.0736Z" fill="#EDC70A"/>
<path d="M15.2906 32.6736C16.8906 30.0736 12.7906 27.4736 11.1906 30.0736C9.49065 32.6736 13.6906 35.2736 15.2906 32.6736Z" fill="#EDC70A"/>
<path d="M6.59065 66.8736C8.19065 64.2736 4.09066 61.6736 2.49066 64.2736C0.790656 66.9736 4.89065 69.5736 6.59065 66.8736Z" fill="#EDC70A"/>
<path d="M37.9907 43.9736C37.8907 43.8736 37.6907 43.7736 37.5907 43.6736C36.4907 42.9736 34.8907 43.2736 34.2907 44.4736C33.6907 45.5736 33.8907 47.0736 35.0907 47.7736C35.1907 47.8736 35.3907 47.9736 35.4907 48.0736C36.5907 48.7736 38.1907 48.4736 38.7907 47.2736C39.4907 46.1736 39.1907 44.6736 37.9907 43.9736Z" fill="#EDC70A"/>
</g>
</svg>
