<svg width="64" height="64" viewBox="0 0 64 64" fill="none" xmlns="http://www.w3.org/2000/svg">
<path d="M0 8C0 3.58172 3.58172 0 8 0H56C60.4183 0 64 3.58172 64 8V56C64 60.4183 60.4183 64 56 64H8C3.58172 64 0 60.4183 0 56V8Z" fill="#4F3386"/>
<mask id="mask0" mask-type="alpha" maskUnits="userSpaceOnUse" x="0" y="0" width="64" height="64">
<path d="M0 8C0 3.58172 3.58172 0 8 0H56C60.4183 0 64 3.58172 64 8V56C64 60.4183 60.4183 64 56 64H8C3.58172 64 0 60.4183 0 56V8Z" fill="#4F3386"/>
</mask>
<g mask="url(#mask0)">
<g opacity="0.7">
<path opacity="0.7" d="M47.2675 11.6C46.4675 16.2 44.2675 20.3 40.8675 23.5C39.0675 25.2 41.5675 28 43.3675 26.3C47.5675 22.4 50.1675 17.4 51.0675 11.8C51.4675 9.39998 47.6675 9.19997 47.2675 11.6Z" fill="#7551CC"/>
<path opacity="0.7" d="M30.8675 23.5C30.8675 29.8 32.3675 36.3 38.8675 38.9C41.0675 39.8 42.2675 36.2 40.0675 35.3C35.3675 33.5 34.6675 28.1 34.6675 23.7C34.5675 21.3 30.8675 21.1 30.8675 23.5Z" fill="#7551CC"/>
<path opacity="0.7" d="M19.0675 28.2C17.1675 31 14.5675 33 11.4675 34.3C9.16749 35.2 10.8675 38.6 13.0675 37.7C16.8675 36.2 19.9675 33.6 22.2675 30.3C23.6675 28.3 20.4675 26.2 19.0675 28.2Z" fill="#7551CC"/>
<path opacity="0.7" d="M10.3675 4.40005C7.7675 10.2001 5.8675 17.8 12.0675 22C14.0675 23.3 16.1675 20.2 14.1675 18.8C9.5675 15.7 12.1675 9.5 13.9675 5.6C14.9675 3.3 11.3675 2.20005 10.3675 4.40005Z" fill="#7551CC"/>
<path opacity="0.7" d="M28.8675 -5.7C27.0675 -1.3 24.5675 2.5 21.1675 5.8C19.4675 7.5 21.8675 10.3 23.6675 8.59999C27.4675 4.79998 30.3675 0.40001 32.4675 -4.49999C33.3675 -6.79999 29.7675 -7.9 28.8675 -5.7Z" fill="#7551CC"/>
<g opacity="0.7">
<path opacity="0.7" d="M36.4675 5.40005C38.0675 7.20005 40.8675 4.70005 39.2675 2.90005C37.6675 1.10005 34.7675 3.60005 36.4675 5.40005Z" fill="#7551CC"/>
</g>
<path opacity="0.7" d="M-5.93251 11.9001C-2.63251 9.70005 0.567494 7.50002 3.86749 5.30002C5.86749 3.90002 3.36749 1.10003 1.36749 2.50003C-1.93251 4.70003 -5.13251 6.90001 -8.43251 9.10001C-10.4325 10.5 -7.93251 13.3001 -5.93251 11.9001Z" fill="#7551CC"/>
<path opacity="0.7" d="M22.9675 19.9C23.0675 19.8 23.1675 19.7 23.2675 19.6C23.9675 18.9 24.1675 17.7 23.4675 16.9C22.7675 16.2 21.5675 16 20.7675 16.8C20.6675 16.9 20.5675 17 20.4675 17.1C19.7675 17.8 19.5675 19 20.2675 19.8C20.9675 20.5 22.1675 20.6 22.9675 19.9Z" fill="#7551CC"/>
</g>
<g opacity="0.7">
<g opacity="0.7">
<path opacity="0.7" d="M54.6675 5.00003C56.2675 6.80003 59.0675 4.30003 57.4675 2.50003C55.8675 0.700027 52.9675 3.20003 54.6675 5.00003Z" fill="#7551CC"/>
</g>
</g>
</g>
</svg>
