<svg width="64" height="64" viewBox="0 0 64 64" fill="none" xmlns="http://www.w3.org/2000/svg">
<path d="M0 8C0 3.58172 3.58172 0 8 0H56C60.4183 0 64 3.58172 64 8V56C64 60.4183 60.4183 64 56 64H8C3.58172 64 0 60.4183 0 56V8Z" fill="#F98484"/>
<mask id="mask0" mask-type="alpha" maskUnits="userSpaceOnUse" x="0" y="0" width="64" height="64">
<path d="M0 8C0 3.58172 3.58172 0 8 0H56C60.4183 0 64 3.58172 64 8V56C64 60.4183 60.4183 64 56 64H8C3.58172 64 0 60.4183 0 56V8Z" fill="#F98484"/>
</mask>
<g mask="url(#mask0)">
<g opacity="0.7">
<g opacity="0.45">
<path opacity="0.45" d="M-1.62803 4.50001C1.57197 2.40001 5.37196 1.39999 9.27196 1.59999C12.372 1.69999 12.772 -3 9.67197 -3.2C4.47197 -3.4 -0.32803 -2.1 -4.62803 0.8C-7.22803 2.5 -4.22803 6.20001 -1.62803 4.50001Z" fill="#E00E95"/>
<path opacity="0.45" d="M0.571971 17.8C8.67197 15.7 15.572 11.5 21.172 5.30002C23.272 3.00002 19.272 0.300028 17.272 2.50003C12.572 7.70003 6.57197 11.3 -0.228032 13.1C-3.22803 13.9 -2.42803 18.6 0.571971 17.8Z" fill="#E00E95"/>
<path opacity="0.45" d="M39.972 1.99998C45.872 1.59998 51.572 3.19995 56.572 6.59995C59.172 8.29995 61.872 4.49999 59.372 2.69999C53.372 -1.40001 46.472 -3.20003 39.172 -2.70003C36.072 -2.60003 36.872 2.19998 39.972 1.99998Z" fill="#E00E95"/>
<path opacity="0.45" d="M59.372 18.9C67.172 17.1 74.772 13.3 76.172 4.7C76.672 1.7 71.872 1.2 71.372 4.2C70.472 10.5 63.972 12.9 58.572 14.2C55.572 14.9 56.372 19.6 59.372 18.9Z" fill="#E00E95"/>
<path opacity="0.45" d="M-4.42803 42.8C1.67197 44.6 7.87197 43.7 13.072 40.1C15.572 38.4 12.572 34.7 10.072 36.4C6.37197 39 1.57196 39.6 -2.72804 38.3C-5.72804 37.4 -7.42803 41.8 -4.42803 42.8Z" fill="#E00E95"/>
<path opacity="0.45" d="M10.172 59.7C16.172 59.7 21.772 61 27.172 63.8C29.872 65.2 31.472 60.7 28.772 59.3C23.072 56.4 16.972 54.9 10.572 54.9C7.47197 54.9 7.07197 59.7 10.172 59.7Z" fill="#E00E95"/>
<path opacity="0.45" d="M41.472 49.7C49.372 51.2 59.372 51.4 62.772 42.6C63.872 39.7 59.372 38.1 58.272 40.9C55.772 47.4 47.372 46 41.972 44.9C38.872 44.4 38.472 49.1 41.472 49.7Z" fill="#E00E95"/>
<path opacity="0.45" d="M23.772 29.7C29.672 30.6 35.172 32.7 40.172 35.9C42.772 37.6 45.572 33.7 42.972 32C37.172 28.3 30.972 26 24.172 24.9C21.172 24.5 20.772 29.2 23.772 29.7Z" fill="#E00E95"/>
<g opacity="0.45">
<path opacity="0.45" d="M35.372 17.2C37.172 14.7 33.272 11.9 31.472 14.4C29.672 16.9 33.572 19.7 35.372 17.2Z" fill="#E00E95"/>
</g>
<path opacity="0.45" d="M55.472 67.8C51.772 64.4 48.172 61 44.472 57.6C42.172 55.5 39.472 59.4 41.672 61.5C45.372 64.9 48.972 68.3 52.672 71.7C54.972 73.7 57.672 69.8 55.472 67.8Z" fill="#E00E95"/>
<g opacity="0.45">
<path opacity="0.45" d="M24.672 50.5C26.472 48 22.572 45.2 20.772 47.7C18.972 50.2 22.872 53 24.672 50.5Z" fill="#E00E95"/>
</g>
<g opacity="0.45">
<path opacity="0.45" d="M10.272 29.1C12.072 26.6 8.17197 23.8 6.37197 26.3C4.57197 28.9 8.47197 31.6 10.272 29.1Z" fill="#E00E95"/>
</g>
<path opacity="0.45" d="M57.072 29.7C56.972 29.6 56.772 29.5 56.672 29.4C55.672 28.7 54.072 28.9 53.372 29.9C52.672 31 52.872 32.5 53.972 33.2C54.072 33.3 54.272 33.4 54.372 33.5C55.372 34.2 56.972 34 57.672 33C58.372 32 58.172 30.5 57.072 29.7Z" fill="#E00E95"/>
</g>
</g>
</g>
</svg>
