<svg width="64" height="64" viewBox="0 0 64 64" fill="none" xmlns="http://www.w3.org/2000/svg">
<path d="M0 8C0 3.58172 3.58172 0 8 0H56C60.4183 0 64 3.58172 64 8V56C64 60.4183 60.4183 64 56 64H8C3.58172 64 0 60.4183 0 56V8Z" fill="#DB4CB0"/>
<mask id="mask0" mask-type="alpha" maskUnits="userSpaceOnUse" x="0" y="0" width="64" height="64">
<path d="M0 8C0 3.58172 3.58172 0 8 0H56C60.4183 0 64 3.58172 64 8V56C64 60.4183 60.4183 64 56 64H8C3.58172 64 0 60.4183 0 56V8Z" fill="#DB4CB0"/>
</mask>
<g mask="url(#mask0)">
<g opacity="0.45">
<g opacity="0.83">
<path opacity="0.83" d="M31.6209 5.30001C32.8209 8.60001 32.9209 12.2 32.0209 15.7C31.2209 18.4 35.4209 19.8 36.2209 17C37.5209 12.4 37.2209 7.80001 35.6209 3.30001C34.6209 0.700011 30.7209 2.70001 31.6209 5.30001Z" fill="#E00E95"/>
<path opacity="0.83" d="M19.3209 4.59995C19.5209 12.2999 21.8209 19.2999 26.3209 25.5999C27.9209 27.8999 31.2209 24.9999 29.6209 22.6999C25.9209 17.3999 23.9209 11.3 23.7209 4.79996C23.6209 1.99996 19.2209 1.69995 19.3209 4.59995Z" fill="#E00E95"/>
<path opacity="0.83" d="M25.3209 43.1999C24.4209 48.5999 21.8209 53.3999 17.8209 57.0999C15.7209 58.9999 18.6209 62.3 20.7209 60.4C25.6209 55.8 28.7209 50 29.7209 43.4C30.2209 40.6 25.8209 40.3999 25.3209 43.1999Z" fill="#E00E95"/>
<path opacity="0.83" d="M6.12091 57.1C6.22091 64.5 7.92091 72.1 15.4209 75.1C18.0209 76.1 19.4209 71.9 16.8209 70.9C11.4209 68.8 10.5209 62.5 10.5209 57.4C10.5209 54.5 6.12091 54.2 6.12091 57.1Z" fill="#E00E95"/>
<path opacity="0.83" d="M-2.07908 -5.09997C-4.97908 -0.0999746 -5.37908 5.79998 -3.27908 11.1C-2.27908 13.7 1.72092 11.8 0.720924 9.09998C-0.779076 5.19998 -0.479082 0.800014 1.62092 -2.79999C3.02092 -5.09999 -0.67908 -7.49997 -2.07908 -5.09997Z" fill="#E00E95"/>
<path opacity="0.83" d="M3.82092 22.9C1.72092 28 -1.27908 32.5 -5.17908 36.3C-7.17908 38.3 -4.27908 41.5999 -2.27908 39.5999C2.22092 35.1999 5.62091 29.9999 7.92091 24.1999C9.02092 21.6999 4.82092 20.3 3.82092 22.9Z" fill="#E00E95"/>
<g opacity="0.83">
<path opacity="0.83" d="M12.6209 35.9C14.5209 38 17.8209 35.1 15.9209 33C14.1209 30.9 10.7209 33.8 12.6209 35.9Z" fill="#E00E95"/>
</g>
<g opacity="0.83">
<path opacity="0.83" d="M7.12091 11C9.02091 13.1 12.3209 10.2 10.4209 8.09997C8.52091 5.89997 5.22091 8.89999 7.12091 11Z" fill="#E00E95"/>
</g>
<path opacity="0.83" d="M36.9209 32.9C40.3209 32.1 43.9209 32.3999 47.2209 33.6999C49.8209 34.7999 51.7209 30.7999 49.0209 29.6999C44.6209 27.8999 40.0209 27.5999 35.4209 28.6999C32.7209 29.3999 34.2209 33.6 36.9209 32.9Z" fill="#E00E95"/>
<path opacity="0.83" d="M34.7209 45.0999C42.4209 45.7999 49.6209 44.2999 56.4209 40.6999C58.9209 39.3999 56.3209 35.6999 53.9209 37.0999C48.2209 40.0999 41.9209 41.4 35.5209 40.8C32.6209 40.6 31.8209 44.8999 34.7209 45.0999Z" fill="#E00E95"/>
<g opacity="0.83">
<path opacity="0.83" d="M39.6209 58C41.9209 56.4 39.4209 52.8 37.1209 54.4C34.7209 56 37.2209 59.6 39.6209 58Z" fill="#E00E95"/>
</g>
</g>
</g>
</g>
</svg>
