<svg width="64" height="64" viewBox="0 0 64 64" fill="none" xmlns="http://www.w3.org/2000/svg">
<path d="M0 8C0 3.58172 3.58172 0 8 0H56C60.4183 0 64 3.58172 64 8V56C64 60.4183 60.4183 64 56 64H8C3.58172 64 0 60.4183 0 56V8Z" fill="#F7BE69"/>
<mask id="mask0" mask-type="alpha" maskUnits="userSpaceOnUse" x="0" y="0" width="64" height="64">
<path d="M0 8C0 3.58172 3.58172 0 8 0H56C60.4183 0 64 3.58172 64 8V56C64 60.4183 60.4183 64 56 64H8C3.58172 64 0 60.4183 0 56V8Z" fill="#F7BE69"/>
</mask>
<g mask="url(#mask0)">
<path opacity="0.45" d="M58.2172 -2.81844C62.1172 -1.41844 65.4172 1.18157 67.8172 4.58157C69.7172 7.28157 74.0172 4.58156 72.2172 1.88156C69.0172 -2.71844 64.7172 -6.01844 59.5172 -7.81844C56.3172 -9.01844 55.1172 -3.91844 58.2172 -2.81844Z" fill="#F79661"/>
<path opacity="0.45" d="M48.2172 7.68156C55.3172 13.2816 63.3172 16.4816 72.2172 17.2816C75.5172 17.5816 75.3172 12.3816 72.1172 12.0816C64.6172 11.3816 57.6172 8.58155 51.7172 3.88155C49.2172 1.88155 45.6172 5.58156 48.2172 7.68156Z" fill="#F79661"/>
<path opacity="0.45" d="M23.6172 19.5816C25.9172 25.9816 30.8172 30.6816 37.2172 32.8816C40.3172 33.9816 41.5172 28.8816 38.4172 27.8816C33.8172 26.3816 30.1172 22.6816 28.5172 18.0816C27.3172 14.8816 22.4172 16.3816 23.6172 19.5816Z" fill="#F79661"/>
<path opacity="0.45" d="M18.5172 42.9816C22.4172 48.1816 24.9172 53.8816 26.0172 60.2816C26.6172 63.5816 31.5172 61.9816 30.9172 58.7816C29.7172 51.9816 27.0172 45.7816 22.9172 40.2816C20.8172 37.6816 16.5172 40.3816 18.5172 42.9816Z" fill="#F79661"/>
<path opacity="0.45" d="M47.3172 63.5815C51.1172 71.3815 57.4172 80.0816 67.2172 77.1816C70.4172 76.2816 68.9172 71.2816 65.7172 72.1816C58.5172 74.2816 54.3172 66.0816 51.7172 60.7816C50.2172 57.8816 45.8172 60.5815 47.3172 63.5815Z" fill="#F79661"/>
<path opacity="0.45" d="M53.0172 35.3816C56.0172 41.0816 57.8172 47.0816 58.3172 53.4816C58.6172 56.7816 63.7172 56.6816 63.4172 53.3816C62.8172 46.0816 60.8172 39.1816 57.4172 32.6816C55.8172 29.6816 51.5172 32.3816 53.0172 35.3816Z" fill="#F79661"/>
<g opacity="0.45">
<path opacity="0.45" d="M35.7172 49.4816C39.0172 49.3816 38.9172 44.1816 35.6172 44.2816C32.3172 44.4816 32.4172 49.5816 35.7172 49.4816Z" fill="#F79661"/>
</g>
<g opacity="0.45">
<path opacity="0.45" d="M44.8172 23.3816C48.1172 23.2816 48.0172 18.0816 44.7172 18.1816C41.3172 18.2816 41.5172 23.4816 44.8172 23.3816Z" fill="#F79661"/>
</g>
</g>
</svg>
