<svg width="64" height="64" viewBox="0 0 64 64" fill="none" xmlns="http://www.w3.org/2000/svg">
<path d="M0 8C0 3.58172 3.58172 0 8 0H56C60.4183 0 64 3.58172 64 8V56C64 60.4183 60.4183 64 56 64H8C3.58172 64 0 60.4183 0 56V8Z" fill="#55D355"/>
<mask id="mask0" mask-type="alpha" maskUnits="userSpaceOnUse" x="0" y="0" width="64" height="64">
<path d="M0 8C0 3.58172 3.58172 0 8 0H56C60.4183 0 64 3.58172 64 8V56C64 60.4183 60.4183 64 56 64H8C3.58172 64 0 60.4183 0 56V8Z" fill="#55D355"/>
</mask>
<g mask="url(#mask0)">
<g opacity="0.45">
<g opacity="0.83">
<path opacity="0.83" d="M64.2783 7.30002C65.7783 11.5 65.9783 16 64.7783 20.3C63.8783 23.7 69.0783 25.4 69.9783 22C71.5783 16.2 71.2783 10.5 69.1783 4.90001C67.9783 1.50001 63.0783 4.00002 64.2783 7.30002Z" fill="#21B1A0"/>
<path opacity="0.83" d="M48.7783 6.30001C49.0783 16 51.9783 24.7 57.4783 32.6C59.4783 35.5 63.6783 31.8 61.5783 28.9C56.9783 22.3 54.4783 14.6 54.2783 6.5C54.1783 3.1 48.6783 2.80001 48.7783 6.30001Z" fill="#21B1A0"/>
<path opacity="0.83" d="M21.9783 -5.7C18.3783 0.600002 17.7783 7.9 20.4783 14.6C21.7783 17.9 26.7783 15.4 25.4783 12.1C23.5783 7.3 23.9783 1.7 26.6783 -2.8C28.3783 -5.8 23.7783 -8.8 21.9783 -5.7Z" fill="#21B1A0"/>
<path opacity="0.83" d="M-0.721666 6.30001C-2.22167 13.1 -5.22167 19 -9.72167 24.3C-12.0217 27 -7.42167 30 -5.12167 27.3C-0.321669 21.7 2.87833 15.1 4.47833 8.00001C5.27833 4.50001 0.0783339 2.80001 -0.721666 6.30001Z" fill="#21B1A0"/>
<path opacity="0.83" d="M2.27833 44.1C-1.52167 52.5 -4.22167 63.7 4.77833 69.8C7.67833 71.8 10.7783 67.1 7.77833 65.2C1.07833 60.7 4.87833 51.6 7.47833 45.8C8.97833 42.5 3.67833 40.9 2.27833 44.1Z" fill="#21B1A0"/>
<path opacity="0.83" d="M29.3783 29.3C26.7783 35.7 23.0783 41.3 18.1783 46.1C15.6783 48.6 19.2783 52.7 21.7783 50.2C27.3783 44.7 31.6783 38.2 34.5783 30.9C35.8783 27.7 30.6783 26 29.3783 29.3Z" fill="#21B1A0"/>
<g opacity="0.83">
<path opacity="0.83" d="M5.87833 24.9C8.17833 27.5 12.3783 23.9 9.97833 21.2C7.67833 18.6 3.47833 22.3 5.87833 24.9Z" fill="#21B1A0"/>
</g>
<g opacity="0.83">
<path opacity="0.83" d="M33.4783 14.3C35.7783 16.9 39.9783 13.3 37.5783 10.6C35.2783 8.00001 31.1783 11.7 33.4783 14.3Z" fill="#21B1A0"/>
</g>
<path opacity="0.83" d="M20.6783 66.8C20.7783 66.7 20.9783 66.6 21.0783 66.4C22.1783 65.4 22.3783 63.6 21.3783 62.5C20.3783 61.4 18.6783 61.3 17.4783 62.3C17.3783 62.4 17.1783 62.5 17.0783 62.7C15.9783 63.7 15.7783 65.5 16.7783 66.6C17.8783 67.6 19.5783 67.8 20.6783 66.8Z" fill="#21B1A0"/>
</g>
</g>
</g>
</svg>
