<svg width="64" height="64" viewBox="0 0 64 64" fill="none" xmlns="http://www.w3.org/2000/svg">
<path d="M0 8C0 3.58172 3.58172 0 8 0H56C60.4183 0 64 3.58172 64 8V56C64 60.4183 60.4183 64 56 64H8C3.58172 64 0 60.4183 0 56V8Z" fill="#32BF90"/>
<mask id="mask0" mask-type="alpha" maskUnits="userSpaceOnUse" x="0" y="0" width="64" height="64">
<path d="M0 8C0 3.58172 3.58172 0 8 0H56C60.4183 0 64 3.58172 64 8V56C64 60.4183 60.4183 64 56 64H8C3.58172 64 0 60.4183 0 56V8Z" fill="#32BF90"/>
</mask>
<g mask="url(#mask0)">
<path opacity="0.45" d="M7.33156 46.8C13.5316 42.8 17.4316 36.6 18.1316 29.3C18.5316 25.7 12.9316 25.7 12.5316 29.2C11.9316 34.4 9.03155 39.1 4.53155 42C1.53155 43.9 4.23156 48.8 7.33156 46.8Z" fill="#2FA37C"/>
<path opacity="0.45" d="M33.2315 46.7C37.7316 41.4 43.2316 37.4 49.7316 34.8C53.0315 33.4 50.3316 28.6 47.0316 30C40.1316 32.8 34.2316 37.1 29.4316 42.8C27.0316 45.4 30.9315 49.4 33.2315 46.7Z" fill="#2FA37C"/>
<path opacity="0.45" d="M48.1316 11.5C55.4316 5.7 63.1316 -3.00001 57.8316 -12.7C56.1316 -15.8 51.2316 -13.1 52.9316 -10C56.8316 -2.9 49.2316 3.5 44.1316 7.5C41.4316 9.8 45.3316 13.7 48.1316 11.5Z" fill="#2FA37C"/>
<path opacity="0.45" d="M17.0316 12C22.3316 7.49999 28.3316 4.2 34.9316 2.2C38.3316 1.1 37.0316 -4.20002 33.6316 -3.20002C26.0316 -0.900022 19.2316 2.89999 13.2316 7.99999C10.4316 10.4 14.3316 14.4 17.0316 12Z" fill="#2FA37C"/>
<path opacity="0.45" d="M74.6316 12.8C68.8316 13.5 63.0316 14.1 57.2316 14.8C53.6316 15.2 55.0316 20.6 58.5316 20.2C64.3316 19.5 70.1316 18.9 75.9316 18.2C79.5316 17.7 78.1316 12.3 74.6316 12.8Z" fill="#2FA37C"/>
<g opacity="0.45">
<path opacity="0.45" d="M36.0315 26.9C35.1315 23.4 29.7316 24.8 30.6316 28.3C31.5316 31.8 36.9315 30.4 36.0315 26.9Z" fill="#2FA37C"/>
</g>
<g opacity="0.45">
<path opacity="0.45" d="M6.43156 23.5C5.53156 20 0.131556 21.4 1.03156 24.9C1.83156 28.3 7.23156 27 6.43156 23.5Z" fill="#2FA37C"/>
</g>
</g>
</svg>
