<svg width="65" height="64" viewBox="0 0 65 64" fill="none" xmlns="http://www.w3.org/2000/svg">
<path d="M0.600098 8C0.600098 3.58172 4.18182 0 8.6001 0H56.6001C61.0184 0 64.6001 3.58172 64.6001 8V56C64.6001 60.4183 61.0184 64 56.6001 64H8.6001C4.18182 64 0.600098 60.4183 0.600098 56V8Z" fill="#A5DCE0"/>
<mask id="mask0" mask-type="alpha" maskUnits="userSpaceOnUse" x="0" y="0" width="65" height="64">
<path d="M0.600098 8C0.600098 3.58172 4.18182 0 8.6001 0H56.6001C61.0184 0 64.6001 3.58172 64.6001 8V56C64.6001 60.4183 61.0184 64 56.6001 64H8.6001C4.18182 64 0.600098 60.4183 0.600098 56V8Z" fill="#A5DCE0"/>
</mask>
<g mask="url(#mask0)">
<path opacity="0.45" d="M-2.56938 37.2002C-1.96938 32.6002 0.0306263 28.4002 3.23063 25.0002C5.73063 22.3002 1.73063 18.2002 -0.769374 20.9002C-5.06937 25.5002 -7.56937 30.9002 -8.36937 37.1002C-8.86937 40.7002 -3.06938 40.8002 -2.56938 37.2002Z" fill="#85D2D8"/>
<path opacity="0.45" d="M11.3306 45.5002C15.7306 36.4002 17.2306 26.9002 15.9306 16.9002C15.4306 13.3002 9.83063 14.7002 10.3306 18.3002C11.4306 26.6002 10.0306 34.9002 6.33063 42.5002C4.73063 45.9002 9.63063 48.9002 11.3306 45.5002Z" fill="#85D2D8"/>
<path opacity="0.45" d="M27.5306 -2.79977C31.8306 -8.49977 37.7306 -12.4998 44.6306 -14.3998C48.2306 -15.3998 46.8306 -20.8998 43.2306 -19.9998C34.7306 -17.6998 27.7306 -12.7998 22.5306 -5.79977C20.4306 -2.79977 25.3306 0.100233 27.5306 -2.79977Z" fill="#85D2D8"/>
<path opacity="0.45" d="M30.2306 69.6002C36.6306 65.5002 40.6306 59.0002 41.4306 51.5002C41.8306 47.8002 36.0306 47.7002 35.6306 51.4002C35.0306 56.8002 31.9306 61.7002 27.3306 64.6002C24.2306 66.6002 27.0306 71.6002 30.2306 69.6002Z" fill="#85D2D8"/>
<path opacity="0.45" d="M57.0306 69.5002C61.7306 64.0002 67.3306 59.9002 74.0306 57.2002C77.4306 55.8002 74.6306 50.8002 71.2306 52.2002C64.1306 55.1002 57.9306 59.6002 53.0306 65.4002C50.6306 68.2002 54.6306 72.3002 57.0306 69.5002Z" fill="#85D2D8"/>
<path opacity="0.45" d="M40.3306 33.6002C45.8306 28.9002 51.9306 25.6002 58.8306 23.4002C62.3306 22.3002 61.0306 16.7002 57.4306 17.8002C49.5306 20.2002 42.5306 24.1002 36.2306 29.4002C33.4306 32.0002 37.5306 36.0002 40.3306 33.6002Z" fill="#85D2D8"/>
<g opacity="0.45">
<path opacity="0.45" d="M37.9306 13.3002C37.0306 9.7002 31.4306 11.1002 32.3306 14.7002C33.1306 18.2002 38.8306 16.8002 37.9306 13.3002Z" fill="#85D2D8"/>
</g>
<g opacity="0.45">
<path opacity="0.45" d="M59.9306 49.0002C59.0306 45.4002 53.4306 46.8002 54.3306 50.4002C55.2306 54.0002 60.8306 52.6002 59.9306 49.0002Z" fill="#85D2D8"/>
</g>
<g opacity="0.45">
<path opacity="0.45" d="M29.2306 45.5002C28.3306 41.9002 22.7306 43.3002 23.6306 46.9002C24.5306 50.5002 30.1306 49.1002 29.2306 45.5002Z" fill="#85D2D8"/>
</g>
<path opacity="0.45" d="M66.3306 3.20023C66.1306 3.20023 65.9306 3.30021 65.7306 3.30021C64.2306 3.70021 63.1306 5.30021 63.6306 6.80021C64.0306 8.30021 65.5306 9.30022 67.1306 8.90022C67.3306 8.90022 67.5306 8.80021 67.7306 8.80021C69.2306 8.40021 70.3306 6.80021 69.8306 5.30021C69.4306 3.80021 67.9306 2.80023 66.3306 3.20023Z" fill="#85D2D8"/>
</g>
</svg>
