<svg width="64" height="64" viewBox="0 0 64 64" fill="none" xmlns="http://www.w3.org/2000/svg">
<path d="M0 8C0 3.58172 3.58172 0 8 0H56C60.4183 0 64 3.58172 64 8V56C64 60.4183 60.4183 64 56 64H8C3.58172 64 0 60.4183 0 56V8Z" fill="#34B1E8"/>
<mask id="mask0" mask-type="alpha" maskUnits="userSpaceOnUse" x="0" y="0" width="64" height="64">
<path d="M0 8C0 3.58172 3.58172 0 8 0H56C60.4183 0 64 3.58172 64 8V56C64 60.4183 60.4183 64 56 64H8C3.58172 64 0 60.4183 0 56V8Z" fill="#34B1E8"/>
</mask>
<g mask="url(#mask0)">
<path opacity="0.45" d="M-3.16948 37.2C-2.56948 32.6 -0.569471 28.4 2.63053 25C5.13053 22.3 1.13053 18.2 -1.36947 20.9C-5.66947 25.5 -8.16947 30.9 -8.96947 37.1C-9.46947 40.7 -3.66948 40.8 -3.16948 37.2Z" fill="#2E9AC9"/>
<path opacity="0.45" d="M10.7305 45.5C15.1305 36.4 16.6305 26.9 15.3305 16.9C14.8305 13.3 9.23053 14.7 9.73053 18.3C10.8305 26.6 9.43053 34.9 5.73053 42.5C4.13053 45.9 9.03053 48.9 10.7305 45.5Z" fill="#2E9AC9"/>
<path opacity="0.45" d="M26.9305 -2.79998C31.2305 -8.49998 37.1305 -12.5 44.0305 -14.4C47.6305 -15.4 46.2305 -20.9 42.6305 -20C34.1305 -17.7 27.1305 -12.8 21.9305 -5.79998C19.8305 -2.79998 24.7305 0.100019 26.9305 -2.79998Z" fill="#2E9AC9"/>
<path opacity="0.45" d="M29.6305 69.6C36.0305 65.5 40.0305 59 40.8305 51.5C41.2305 47.8 35.4305 47.7 35.0305 51.4C34.4305 56.8 31.3305 61.7 26.7305 64.6C23.6305 66.6 26.4305 71.6 29.6305 69.6Z" fill="#2E9AC9"/>
<path opacity="0.45" d="M56.4305 69.5C61.1305 64 66.7305 59.9 73.4305 57.2C76.8305 55.8 74.0305 50.8 70.6305 52.2C63.5305 55.1 57.3305 59.6 52.4305 65.4C50.0305 68.2 54.0305 72.3 56.4305 69.5Z" fill="#2E9AC9"/>
<path opacity="0.45" d="M39.7305 33.6C45.2305 28.9 51.3305 25.6 58.2305 23.4C61.7305 22.3 60.4305 16.7 56.8305 17.8C48.9305 20.2 41.9305 24.1 35.6305 29.4C32.8305 32 36.9305 36 39.7305 33.6Z" fill="#2E9AC9"/>
<g opacity="0.45">
<path opacity="0.45" d="M37.3305 13.3C36.4305 9.69999 30.8305 11.1 31.7305 14.7C32.5305 18.2 38.2305 16.8 37.3305 13.3Z" fill="#2E9AC9"/>
</g>
<g opacity="0.45">
<path opacity="0.45" d="M59.3305 49C58.4305 45.4 52.8305 46.8 53.7305 50.4C54.6305 54 60.2305 52.6 59.3305 49Z" fill="#2E9AC9"/>
</g>
<g opacity="0.45">
<path opacity="0.45" d="M28.6305 45.5C27.7305 41.9 22.1305 43.3 23.0305 46.9C23.9305 50.5 29.5305 49.1 28.6305 45.5Z" fill="#2E9AC9"/>
</g>
<path opacity="0.45" d="M65.7305 3.20002C65.5305 3.20002 65.3305 3.3 65.1305 3.3C63.6305 3.7 62.5305 5.3 63.0305 6.8C63.4305 8.3 64.9305 9.3 66.5305 8.9C66.7305 8.9 66.9305 8.8 67.1305 8.8C68.6305 8.4 69.7305 6.8 69.2305 5.3C68.8305 3.8 67.3305 2.80002 65.7305 3.20002Z" fill="#2E9AC9"/>
</g>
</svg>
