<svg width="64" height="64" viewBox="0 0 64 64" fill="none" xmlns="http://www.w3.org/2000/svg">
<path d="M0 8C0 3.58172 3.58172 0 8 0H56C60.4183 0 64 3.58172 64 8V56C64 60.4183 60.4183 64 56 64H8C3.58172 64 0 60.4183 0 56V8Z" fill="#1D6DCD"/>
<mask id="mask0" mask-type="alpha" maskUnits="userSpaceOnUse" x="0" y="0" width="64" height="64">
<path d="M0 8C0 3.58172 3.58172 0 8 0H56C60.4183 0 64 3.58172 64 8V56C64 60.4183 60.4183 64 56 64H8C3.58172 64 0 60.4183 0 56V8Z" fill="#1D6DCD"/>
</mask>
<g mask="url(#mask0)">
<g opacity="0.45">
<g opacity="0.45">
<path opacity="0.45" d="M34.1309 32.6C37.0309 33.4 38.3309 28.9 35.4309 28C32.5309 27.3 31.2309 31.8 34.1309 32.6Z" fill="#10B4C1"/>
</g>
<path opacity="0.45" d="M48.3309 -19.2C50.3309 -13.6 50.9309 -7.99998 50.1309 -2.09999C49.7309 0.900015 54.4309 0.900015 54.8309 -2.09999C55.7309 -8.29998 55.0309 -14.6 52.9309 -20.5C51.8309 -23.3 47.2309 -22.1 48.3309 -19.2Z" fill="#10B4C1"/>
<path opacity="0.45" d="M67.6309 43.7C67.6309 43.5 67.7309 43.4 67.7309 43.2C68.0309 42 67.3309 40.6 66.1309 40.3C64.9309 40 63.6309 40.7 63.2309 41.9C63.2309 42.1 63.1309 42.2 63.1309 42.4C62.8309 43.6 63.5309 45 64.7309 45.3C65.9309 45.6 67.2309 45 67.6309 43.7Z" fill="#10B4C1"/>
<path opacity="0.45" d="M55.7309 25.5C57.7309 21 59.6309 16.4 61.6309 11.9C62.8309 9.10002 58.3309 7.79997 57.1309 10.6C55.1309 15.1 53.2309 19.7 51.2309 24.2C50.0309 27 54.5309 28.3 55.7309 25.5Z" fill="#10B4C1"/>
</g>
<g opacity="0.45">
<path opacity="0.45" d="M35.2309 -15C37.5309 -9.59998 37.9309 -3.79996 36.4309 1.90004C35.6309 4.80004 40.1309 6.10003 40.9309 3.20003C42.7309 -3.79997 42.1309 -10.7 39.3309 -17.3C38.1309 -20.2 34.0309 -17.8 35.2309 -15Z" fill="#10B4C1"/>
<path opacity="0.45" d="M25.9309 8.50003C30.2309 15.1 36.2309 21.0001 44.6309 19.4001C47.6309 18.8001 46.4309 14.2 43.4309 14.8C37.3309 16 32.9309 10.8 29.9309 6.20004C28.3309 3.70004 24.2309 6.00003 25.9309 8.50003Z" fill="#10B4C1"/>
<path opacity="0.45" d="M16.6309 21.5C16.5309 25.8 15.1309 29.6 12.6309 33.1C10.8309 35.6 14.8309 38 16.6309 35.6C19.6309 31.5 21.2309 26.7 21.3309 21.6C21.4309 18.4 16.7309 18.4 16.6309 21.5Z" fill="#10B4C1"/>
<path opacity="0.45" d="M-8.66914 2.09997C-7.46914 9.89997 -4.36914 19.3 4.93086 19.5C7.93086 19.6 8.03086 14.8 5.03086 14.8C-1.86914 14.6 -3.26914 6.3 -4.06914 0.999995C-4.56914 -2.1 -9.06914 -0.900029 -8.66914 2.09997Z" fill="#10B4C1"/>
<path opacity="0.45" d="M4.13086 -20.9C5.23086 -15.1 5.03086 -9.29996 3.73086 -3.59996C3.03086 -0.599957 7.53086 0.700031 8.23086 -2.29997C9.73086 -8.89997 9.83086 -15.5 8.63086 -22.1C8.13086 -25.1 3.53086 -23.9 4.13086 -20.9Z" fill="#10B4C1"/>
<path opacity="0.45" d="M15.0309 10C15.0309 9.80001 15.1309 9.70001 15.1309 9.50001C15.4309 8.30001 14.7309 6.89999 13.5309 6.59999C12.3309 6.29999 11.0309 7.00003 10.6309 8.20003C10.6309 8.40003 10.5309 8.50003 10.5309 8.70003C10.2309 9.90003 10.9309 11.3 12.1309 11.6C13.4309 12 14.7309 11.3 15.0309 10Z" fill="#10B4C1"/>
</g>
</g>
</svg>
