<svg width="65" height="64" viewBox="0 0 65 64" fill="none" xmlns="http://www.w3.org/2000/svg">
<path d="M0.600098 8C0.600098 3.58172 4.18182 0 8.6001 0H56.6001C61.0184 0 64.6001 3.58172 64.6001 8V56C64.6001 60.4183 61.0184 64 56.6001 64H8.6001C4.18182 64 0.600098 60.4183 0.600098 56V8Z" fill="#C395EE"/>
<mask id="mask0" mask-type="alpha" maskUnits="userSpaceOnUse" x="0" y="0" width="65" height="64">
<path d="M0.600098 8C0.600098 3.58172 4.18182 0 8.6001 0H56.6001C61.0184 0 64.6001 3.58172 64.6001 8V56C64.6001 60.4183 61.0184 64 56.6001 64H8.6001C4.18182 64 0.600098 60.4183 0.600098 56V8Z" fill="#C395EE"/>
</mask>
<g mask="url(#mask0)">
<path opacity="0.45" d="M3.33063 23.5002C7.73063 14.4002 9.23063 4.90022 7.93063 -5.09978C7.43063 -8.69978 1.83063 -7.29979 2.33063 -3.69979C3.43063 4.60021 2.03063 12.9002 -1.66937 20.5002C-3.26937 23.9002 1.63063 26.9002 3.33063 23.5002Z" fill="#A66DD9"/>
<path opacity="0.45" d="M22.2306 47.6002C28.6306 43.5002 32.6306 37.0002 33.4306 29.5002C33.8306 25.8002 28.0306 25.7002 27.6306 29.4002C27.0306 34.8002 23.9306 39.7002 19.3306 42.6002C16.2306 44.6002 19.0306 49.6002 22.2306 47.6002Z" fill="#A66DD9"/>
<path opacity="0.45" d="M49.0306 47.5002C53.7306 42.0002 59.3306 37.9002 66.0306 35.2002C69.4306 33.8002 66.6306 28.8002 63.2306 30.2002C56.1306 33.1002 49.9306 37.6002 45.0306 43.4002C42.6306 46.2002 46.6306 50.3002 49.0306 47.5002Z" fill="#A66DD9"/>
<path opacity="0.45" d="M64.4306 11.0002C72.0306 5.00022 79.9306 -3.99978 74.5306 -13.9998C72.7306 -17.1998 67.7306 -14.3998 69.5306 -11.1998C73.5306 -3.79979 65.6306 2.80021 60.4306 6.90021C57.5306 9.30021 61.5306 13.3002 64.4306 11.0002Z" fill="#A66DD9"/>
<path opacity="0.45" d="M32.3306 11.6002C37.8306 6.90021 43.9306 3.6002 50.8306 1.4002C54.3306 0.300198 53.0306 -5.29981 49.4306 -4.19981C41.5306 -1.79981 34.5306 2.1002 28.2306 7.4002C25.4306 10.0002 29.5306 14.0002 32.3306 11.6002Z" fill="#A66DD9"/>
<g opacity="0.45">
<path opacity="0.45" d="M51.9306 27.0002C51.0306 23.4002 45.4306 24.8002 46.3306 28.4002C47.2306 32.0002 52.8306 30.6002 51.9306 27.0002Z" fill="#A66DD9"/>
</g>
<g opacity="0.45">
<path opacity="0.45" d="M21.2306 23.5002C20.3306 19.9002 14.7306 21.3002 15.6306 24.9002C16.5306 28.5002 22.1306 27.1002 21.2306 23.5002Z" fill="#A66DD9"/>
</g>
</g>
</svg>
