<svg width="64" height="64" viewBox="0 0 64 64" fill="none" xmlns="http://www.w3.org/2000/svg">
<path d="M0 8C0 3.58172 3.58172 0 8 0H56C60.4183 0 64 3.58172 64 8V56C64 60.4183 60.4183 64 56 64H8C3.58172 64 0 60.4183 0 56V8Z" fill="#8D3CBC"/>
<mask id="mask0" mask-type="alpha" maskUnits="userSpaceOnUse" x="0" y="0" width="64" height="64">
<path d="M0 8C0 3.58172 3.58172 0 8 0H56C60.4183 0 64 3.58172 64 8V56C64 60.4183 60.4183 64 56 64H8C3.58172 64 0 60.4183 0 56V8Z" fill="#8D3CBC"/>
</mask>
<g mask="url(#mask0)">
<path d="M0 8C0 3.58172 3.58172 0 8 0H56C60.4183 0 64 3.58172 64 8V56C64 60.4183 60.4183 64 56 64H8C3.58172 64 0 60.4183 0 56V8Z" fill="#8D3CBC"/>
<g opacity="0.45">
<path opacity="0.45" d="M44.9209 35.3C46.1209 38.6 46.2209 42.2 45.3209 45.6C44.6209 48.3 48.7209 49.7 49.4209 46.9C50.7209 42.3 50.4209 37.8 48.8209 33.3C47.9209 30.7 43.9209 32.7 44.9209 35.3Z" fill="#3E1357"/>
<path opacity="0.45" d="M32.6209 34.6C32.8209 42.3 35.1209 49.2 39.5209 55.5C41.1209 57.8 44.4209 54.9 42.8209 52.6C39.1209 47.4 37.2209 41.3 37.0209 34.9C36.9209 32 32.5209 31.8 32.6209 34.6Z" fill="#3E1357"/>
<path opacity="0.45" d="M11.4209 25C8.52092 30 8.12092 35.8 10.2209 41.1C11.2209 43.7 15.2209 41.7 14.1209 39.2C12.6209 35.4 12.9209 31.0001 15.0209 27.4001C16.5209 24.9001 12.9209 22.5 11.4209 25Z" fill="#3E1357"/>
<path opacity="0.45" d="M-4.17909 64.5C-7.17909 71.2 -9.37909 80.1 -2.17909 84.9C0.120911 86.5 2.52091 82.8 0.220912 81.2C-5.07909 77.6 -2.07908 70.4 0.0209155 65.8C1.12092 63.2 -2.97909 61.9 -4.17909 64.5Z" fill="#3E1357"/>
<path opacity="0.45" d="M17.3209 52.8C15.3209 57.9 12.3209 62.3 8.42092 66.1C6.42092 68.1 9.32091 71.3 11.3209 69.4C15.7209 65 19.1209 59.9 21.5209 54.1C22.5209 51.5 18.3209 50.2 17.3209 52.8Z" fill="#3E1357"/>
<g opacity="0.45">
<path opacity="0.45" d="M26.0209 65.7C27.9209 67.8 31.1209 64.9 29.3209 62.8C27.5209 60.6 24.2209 63.6 26.0209 65.7Z" fill="#3E1357"/>
</g>
<g opacity="0.45">
<path opacity="0.45" d="M-1.37909 49.3C0.520913 51.4 3.72092 48.5 1.92092 46.4C0.120916 44.3 -3.17909 47.2 -1.37909 49.3Z" fill="#3E1357"/>
</g>
<g opacity="0.45">
<path opacity="0.45" d="M20.5209 40.9C22.4209 43 25.6209 40.1 23.8209 38C22.0209 35.9 18.7209 38.8 20.5209 40.9Z" fill="#3E1357"/>
</g>
</g>
<g opacity="0.45">
<g opacity="0.45">
<path opacity="0.45" d="M13.9209 0.500024C15.8209 2.60002 19.0209 -0.300001 17.2209 -2.4C15.3209 -4.5 12.0209 -1.59998 13.9209 0.500024Z" fill="#3E1357"/>
</g>
<path opacity="0.45" d="M63.3209 24.7C61.1209 28 58.1209 30.3 54.4209 31.8C51.8209 32.8 53.7209 36.7 56.3209 35.7C60.7209 34 64.3209 31 66.9209 27.1C68.5209 24.7 64.9209 22.3 63.3209 24.7Z" fill="#3E1357"/>
<path opacity="0.45" d="M53.2209 -3.00001C50.2209 3.69999 48.0209 12.6 55.2209 17.4C57.5209 19 59.9209 15.3 57.6209 13.7C52.3209 10.1 55.3209 2.89998 57.4209 -1.70002C58.5209 -4.30002 54.3209 -5.60001 53.2209 -3.00001Z" fill="#3E1357"/>
<path opacity="0.45" d="M74.6209 -14.7C72.6209 -9.60002 69.6209 -5.20004 65.7209 -1.40004C63.7209 0.599964 66.6209 3.80001 68.6209 1.90001C73.0209 -2.49999 76.4209 -7.60004 78.8209 -13.4C79.8209 -16 75.7209 -17.3 74.6209 -14.7Z" fill="#3E1357"/>
<path opacity="0.45" d="M34.5209 25.8C34.6209 25.7 34.7209 25.6 34.8209 25.5C35.7209 24.7 35.8209 23.3 35.0209 22.4C34.2209 21.6 32.8209 21.4 31.9209 22.2C31.8209 22.3 31.7209 22.4 31.6209 22.5C30.7209 23.3 30.6209 24.7 31.4209 25.6C32.3209 26.5 33.6209 26.6 34.5209 25.8Z" fill="#3E1357"/>
<path opacity="0.45" d="M34.3209 5.69999C38.1209 3.09999 41.9209 0.59998 45.7209 -2.00002C48.0209 -3.60002 45.1209 -6.80001 42.8209 -5.30001C39.0209 -2.70001 35.2209 -0.199996 31.4209 2.4C29.0209 4 32.0209 7.29999 34.3209 5.69999Z" fill="#3E1357"/>
<path opacity="0.45" d="M67.8209 14.9C67.9209 14.8 68.0209 14.7 68.1209 14.6C69.0209 13.8 69.1209 12.4 68.3209 11.5C67.5209 10.7 66.1209 10.5 65.2209 11.3C65.1209 11.4 65.0209 11.5 64.9209 11.6C64.0209 12.4 63.9209 13.8 64.7209 14.7C65.5209 15.6 66.8209 15.8 67.8209 14.9Z" fill="#3E1357"/>
</g>
</g>
</svg>
