<svg width="88" height="89" viewBox="0 0 88 89" fill="none" xmlns="http://www.w3.org/2000/svg">
<path d="M22.0073 81.5919L2.52126 32.3315C1.00778 28.4549 2.89963 24.0111 6.77791 22.4983L56.1551 3.02102C60.0334 1.50823 64.4792 3.39922 65.9927 7.27576L85.4787 56.7253C86.9922 60.6019 85.1004 65.0457 81.2221 66.5585L31.8449 85.9412C27.872 87.5485 23.5208 85.563 22.0073 81.5919Z" fill="#FDE7D3"/>
<path d="M81.5057 46.5139C73.8438 48.1213 65.3304 45.8521 57.8577 48.7831C53.601 50.485 50.1957 53.7943 46.6012 56.5362C42.1553 59.8454 37.2365 61.1691 31.7502 61.3582C25.8854 61.5473 19.8315 61.0746 14.0614 61.5473L15.8587 66.1803C22.9531 65.7075 30.1421 66.8421 37.1419 65.8966C41.1148 65.3293 44.8039 63.9111 48.0201 61.5473C52.1821 58.6163 55.7766 54.8343 60.5062 53.1324C67.7899 50.6741 75.9248 52.8488 83.3976 51.2414L81.5057 46.5139Z" fill="#F3C9A1"/>
<path d="M36.1015 54.1725C44.331 51.9978 49.3444 43.772 57.0064 40.7464C63.6279 38.099 71.2898 39.8009 77.7221 36.9644L76.0194 32.426C69.0196 35.7353 60.0333 33.3715 53.0335 37.1535C48.966 39.3282 45.6553 42.732 42.0608 45.5684C37.7096 48.8777 32.9799 50.2014 27.5882 50.1068C21.4397 50.0123 15.0074 48.4049 8.85889 47.8376L10.7507 52.7542C19.1695 53.6997 27.8719 56.3471 36.1015 54.1725Z" fill="#F3C9A1"/>
<path d="M6.77833 42.7318C12.8322 42.7318 19.0753 43.3937 24.9401 42.5427C28.9129 41.9754 32.602 40.5572 35.8182 38.1934C39.9802 35.2624 43.5748 31.4804 48.3044 29.7785C56.5339 27.0366 65.8985 30.1567 73.9389 26.942L72.1416 22.3091C63.7229 25.4292 53.9799 22.0254 45.6558 25.4292C41.3991 27.1311 37.9938 30.4404 34.3993 33.1823C29.9535 36.4916 25.0347 37.8152 19.5483 38.0043C14.6295 38.1934 9.80529 37.8152 4.98108 38.0043L6.77833 42.7318Z" fill="#F3C9A1"/>
<path d="M52.3562 46.906L59.8976 44.1612C61.8575 43.4478 62.8681 41.2806 62.1547 39.3206C61.4414 37.3607 59.2742 36.3501 57.3142 37.0635L46.3909 41.0392C43.1188 42.2302 43.4762 38.5835 40.8929 31.4858C38.3095 24.388 34.2327 21.8529 31.5377 22.8338C28.8428 23.8147 29.5627 27.0693 30.6929 30.1745C31.8231 33.2798 33.2763 37.2722 33.1964 39.8132V39.8132C33.0812 43.4737 30.2425 46.3924 28.8306 49.7717C27.377 53.2509 26.4767 58.3723 29.4893 64.1345C33.7047 72.1973 40.3896 75.3754 47.8064 72.6759L64.986 66.423C66.946 65.7097 67.9565 63.5425 67.2432 61.5825C66.5298 59.6225 64.3626 58.612 62.4026 59.3253L57.0793 61.2629L65.0643 58.3566C67.0242 57.6432 68.0348 55.476 67.3214 53.5161C66.6081 51.5561 64.4409 50.5455 62.4809 51.2589L54.496 54.1652L65.1426 50.2901C67.1025 49.5767 68.1131 47.4096 67.3997 45.4496C66.6864 43.4896 64.5192 42.479 62.5592 43.1924L52.7999 46.7445" stroke="#210049" stroke-width="2" stroke-linecap="round" stroke-linejoin="round"/>
<path d="M24.8445 29.2889L19.5212 31.2264" stroke="#210049" stroke-linecap="round" stroke-linejoin="round"/>
<path d="M46.1376 21.5389L40.8143 23.4764" stroke="#210049" stroke-linecap="round" stroke-linejoin="round"/>
<path d="M27.9856 13.0744L29.9232 18.3977" stroke="#210049" stroke-linecap="round" stroke-linejoin="round"/>
<path d="M38.8146 13.5472L36.4205 18.6814" stroke="#210049" stroke-linecap="round" stroke-linejoin="round"/>
<path d="M19.994 20.3974L25.1282 22.7915" stroke="#210049" stroke-linecap="round" stroke-linejoin="round"/>
</svg>
