<svg width="32" height="32" viewBox="0 0 32 32" fill="none" xmlns="http://www.w3.org/2000/svg">
  <path d="M24.25 18C23.3105 18 22.3922 18.2786 21.611 18.8005C20.8299 19.3225 20.2211 20.0643 19.8616 20.9323C19.5021 21.8002 19.408 22.7553 19.5913 23.6767C19.7746 24.5981 20.2269 25.4445 20.8912 26.1088C21.5555 26.7731 22.4019 27.2254 23.3233 27.4087C24.2447 27.592 25.1998 27.4979 26.0677 27.1384C26.9357 26.7789 27.6775 26.1701 28.1995 25.389C28.7214 24.6078 29 23.6895 29 22.75C28.996 21.4914 28.4943 20.2856 27.6044 19.3956C26.7144 18.5057 25.5086 18.004 24.25 18V18Z" stroke="#4376FF" stroke-width="1.5" stroke-miterlimit="10"/>
  <path d="M7.75 18C6.81054 18 5.89218 18.2786 5.11104 18.8005C4.32991 19.3225 3.72109 20.0643 3.36157 20.9323C3.00206 21.8002 2.90799 22.7553 3.09127 23.6767C3.27455 24.5981 3.72695 25.4445 4.39125 26.1088C5.05554 26.7731 5.90191 27.2254 6.82332 27.4087C7.74473 27.592 8.6998 27.4979 9.56775 27.1384C10.4357 26.7789 11.1775 26.1701 11.6995 25.389C12.2214 24.6078 12.5 23.6895 12.5 22.75C12.496 21.4914 11.9943 20.2856 11.1044 19.3956C10.2144 18.5057 9.00856 18.004 7.75 18Z" stroke="#4376FF" stroke-width="1.5" stroke-miterlimit="10"/>
  <path d="M16 22.5V17.125L12 14.5L17 9L19.5 13.5H23" stroke="#4376FF" stroke-width="1.5" stroke-linecap="round" stroke-linejoin="round"/>
  <path d="M20.0021 8.00008L20.0019 8.00007C19.6041 7.99883 19.2231 7.8396 18.9426 7.55742C18.6622 7.27523 18.5054 6.89321 18.5066 6.49538C18.5078 6.09755 18.6671 5.71651 18.9493 5.43609C19.089 5.29723 19.2547 5.18726 19.4369 5.11245C19.6191 5.03763 19.8143 4.99944 20.0113 5.00006V5.00009L20.0168 5.00005C20.2125 4.99848 20.4065 5.03595 20.5875 5.11024C20.7685 5.18454 20.9329 5.29417 21.071 5.43274C21.2091 5.57131 21.3183 5.73602 21.392 5.91726L21.819 5.74353L21.392 5.91726C21.4657 6.09849 21.5026 6.29261 21.5004 6.48826L21.5003 6.48825L21.5004 6.49711C21.5017 6.69445 21.4638 6.8901 21.3891 7.07272L21.8155 7.24734L21.3891 7.07272C21.3143 7.25535 21.204 7.42135 21.0647 7.56111C20.9254 7.70087 20.7597 7.81163 20.5773 7.88697C20.395 7.96232 20.1994 8.00076 20.0021 8.00008Z" stroke="#4376FF"/>
</svg>
