<svg width="24" height="24" viewBox="0 0 24 24" fill="none" xmlns="http://www.w3.org/2000/svg">
<path d="M20.2 15.1V9.90002H14.7H3.70001V17.9C3.70001 19.2 4.70001 20.2 6.00001 20.2H14.7H17.9C19.2 20.2 20.2 19.2 20.2 17.9V15.1Z" stroke-width="1.5" stroke-miterlimit="10" stroke-linecap="round" stroke-linejoin="round"/>
<path d="M20.2 9.90005H3.79999V7.60005C3.79999 6.30005 4.79999 5.30005 6.09999 5.30005H17.9C19.2 5.30005 20.2 6.30005 20.2 7.60005V9.90005Z" stroke-width="1.5" stroke-miterlimit="10" stroke-linecap="round" stroke-linejoin="round"/>
<path d="M7.50001 14.1C7.94184 14.1 8.30001 13.7418 8.30001 13.3C8.30001 12.8582 7.94184 12.5 7.50001 12.5C7.05818 12.5 6.70001 12.8582 6.70001 13.3C6.70001 13.7418 7.05818 14.1 7.50001 14.1Z"/>
<path d="M12 14.1C12.4418 14.1 12.8 13.7418 12.8 13.3C12.8 12.8582 12.4418 12.5 12 12.5C11.5582 12.5 11.2 12.8582 11.2 13.3C11.2 13.7418 11.5582 14.1 12 14.1Z"/>
<path d="M16.5 14.1C16.9418 14.1 17.3 13.7418 17.3 13.3C17.3 12.8582 16.9418 12.5 16.5 12.5C16.0582 12.5 15.7 12.8582 15.7 13.3C15.7 13.7418 16.0582 14.1 16.5 14.1Z"/>
<path d="M7.50001 17.7001C7.94184 17.7001 8.30001 17.3419 8.30001 16.9001C8.30001 16.4583 7.94184 16.1001 7.50001 16.1001C7.05818 16.1001 6.70001 16.4583 6.70001 16.9001C6.70001 17.3419 7.05818 17.7001 7.50001 17.7001Z"/>
<path d="M12 17.7001C12.4418 17.7001 12.8 17.3419 12.8 16.9001C12.8 16.4583 12.4418 16.1001 12 16.1001C11.5582 16.1001 11.2 16.4583 11.2 16.9001C11.2 17.3419 11.5582 17.7001 12 17.7001Z"/>
<path d="M8.20001 6.80005V3.80005" stroke-width="1.5" stroke-miterlimit="10" stroke-linecap="round" stroke-linejoin="round"/>
<path d="M15.8 6.80005V3.80005" stroke-width="1.5" stroke-miterlimit="10" stroke-linecap="round" stroke-linejoin="round"/>
</svg>
