<svg viewBox="0 0 40 40" fill="none" xmlns="http://www.w3.org/2000/svg">
  <path d="M26.3333 12.1667L25.5 10.3333C25 9.16667 23.8333 8.5 22.5 8.5H17.5C16.1667 8.5 15 9.33333 14.5 10.3333L13.6667 12.1667C13.3333 12.8333 12.6667 13.1667 12.1667 13.1667H9.66668C7.83334 13.1667 6.33334 14.6667 6.33334 16.5V28.1667C6.33334 30 7.83334 31.5 9.66668 31.5H24.6667H30.5C32.3333 31.5 33.8333 30 33.8333 28.1667V22.3333V16.5C33.8333 14.6667 32.3333 13.1667 30.5 13.1667H28C27.3333 13.1667 26.6667 12.8333 26.3333 12.1667Z" stroke="#9B9B9B" stroke-width="1.5" stroke-miterlimit="10" stroke-linecap="round" stroke-linejoin="round"/>
  <path d="M20 26.6667C22.5773 26.6667 24.6667 24.5773 24.6667 22C24.6667 19.4227 22.5773 17.3333 20 17.3333C17.4227 17.3333 15.3334 19.4227 15.3334 22C15.3334 24.5773 17.4227 26.6667 20 26.6667Z" stroke="#9B9B9B" stroke-width="1.5" stroke-miterlimit="10" stroke-linecap="round" stroke-linejoin="round"/>
  </svg>
