<svg width="88" height="88" viewBox="0 0 88 88" fill="none" xmlns="http://www.w3.org/2000/svg">
<path d="M22.0073 81.0919L2.52126 31.8315C1.00778 27.9549 2.89963 23.5111 6.77791 21.9983L56.1551 2.52102C60.0334 1.00823 64.4792 2.89922 65.9927 6.77576L85.4787 56.2253C86.9922 60.1019 85.1004 64.5457 81.2221 66.0585L31.8449 85.4412C27.872 87.0485 23.5208 85.063 22.0073 81.0919Z" fill="#FFD5E3"/>
<path d="M81.5057 46.0139C73.8438 47.6213 65.3304 45.3521 57.8577 48.2831C53.601 49.985 50.1957 53.2943 46.6012 56.0362C42.1553 59.3454 37.2365 60.6691 31.7502 60.8582C25.8854 61.0473 19.8315 60.5746 14.0614 61.0473L15.8587 65.6803C22.9531 65.2075 30.1421 66.3421 37.1419 65.3966C41.1148 64.8293 44.8039 63.4111 48.0201 61.0473C52.1821 58.1163 55.7766 54.3343 60.5062 52.6324C67.7899 50.1741 75.9248 52.3488 83.3976 50.7414L81.5057 46.0139Z" fill="#FFACC7"/>
<path d="M36.1015 53.6725C44.331 51.4978 49.3444 43.272 57.0064 40.2464C63.6279 37.599 71.2898 39.3009 77.7221 36.4644L76.0194 31.926C69.0196 35.2353 60.0333 32.8715 53.0335 36.6535C48.966 38.8282 45.6553 42.232 42.0608 45.0684C37.7096 48.3777 32.9799 49.7014 27.5882 49.6068C21.4397 49.5123 15.0074 47.9049 8.85889 47.3376L10.7507 52.2542C19.1695 53.1997 27.8719 55.8471 36.1015 53.6725Z" fill="#FFACC7"/>
<path d="M6.77833 42.2318C12.8322 42.2318 19.0753 42.8937 24.9401 42.0427C28.9129 41.4754 32.602 40.0572 35.8182 37.6934C39.9802 34.7624 43.5748 30.9804 48.3044 29.2785C56.5339 26.5366 65.8985 29.6567 73.9389 26.442L72.1416 21.8091C63.7229 24.9292 53.9799 21.5254 45.6558 24.9292C41.3991 26.6311 37.9938 29.9404 34.3993 32.6823C29.9535 35.9916 25.0347 37.3152 19.5483 37.5043C14.6295 37.6934 9.80529 37.3152 4.98108 37.5043L6.77833 42.2318Z" fill="#FFACC7"/>
<path d="M73 44C73 60.0163 60.0163 73 44 73C27.9837 73 15 60.0163 15 44C15 27.9837 27.9837 15 44 15C60.0163 15 73 27.9837 73 44Z" stroke="#210049" stroke-width="2" stroke-miterlimit="10" stroke-linecap="round"/>
<path d="M22 44H20" stroke="#210049" stroke-miterlimit="10" stroke-linecap="round"/>
<path d="M68 44H66" stroke="#210049" stroke-miterlimit="10" stroke-linecap="round"/>
<path d="M44 22L44 20" stroke="#210049" stroke-miterlimit="10" stroke-linecap="round"/>
<path d="M28.4436 59.5564L27.0294 60.9706" stroke="#210049" stroke-miterlimit="10" stroke-linecap="round"/>
<path d="M60.9706 27.0295L59.5564 28.4437" stroke="#210049" stroke-miterlimit="10" stroke-linecap="round"/>
<path d="M28.4436 28.4437L27.0294 27.0294" stroke="#210049" stroke-miterlimit="10" stroke-linecap="round"/>
<path d="M60.9706 60.9706L59.5564 59.5564" stroke="#210049" stroke-miterlimit="10" stroke-linecap="round"/>
<path d="M23.68 35.5678L21.8328 34.8013" stroke="#210049" stroke-miterlimit="10" stroke-linecap="round"/>
<path d="M66.1672 53.1987L64.3199 52.4322" stroke="#210049" stroke-miterlimit="10" stroke-linecap="round"/>
<path d="M52.4322 23.6801L53.1987 21.8328" stroke="#210049" stroke-miterlimit="10" stroke-linecap="round"/>
<path d="M23.6692 52.4059L21.8209 53.1701" stroke="#210049" stroke-miterlimit="10" stroke-linecap="round"/>
<path d="M66.1791 34.8299L64.3308 35.5941" stroke="#210049" stroke-miterlimit="10" stroke-linecap="round"/>
<path d="M35.5941 23.6692L34.83 21.821" stroke="#210049" stroke-miterlimit="10" stroke-linecap="round"/>
<path d="M29 67.9554C33.1207 64.2288 38.3184 62 43.9766 62C49.6582 62 54.8793 64.2467 59 68" stroke="#210049" stroke-width="2" stroke-miterlimit="10" stroke-linecap="round"/>
<path d="M46 44C46 45.1046 45.1046 46 44 46C42.8954 46 42 45.1046 42 44C42 42.8954 42.8954 42 44 42C45.1046 42 46 42.8954 46 44Z" stroke="#210049" stroke-width="2" stroke-miterlimit="10" stroke-linecap="round"/>
<path d="M45.9999 46L55.9999 56" stroke="#210049" stroke-width="2" stroke-miterlimit="10" stroke-linecap="round"/>
</svg>
