<svg width="88" height="88" viewBox="0 0 88 88" fill="none" xmlns="http://www.w3.org/2000/svg">
<path d="M22.0073 81.0919L2.52126 31.8315C1.00778 27.9549 2.89963 23.5111 6.77791 21.9983L56.1551 2.52102C60.0334 1.00823 64.4792 2.89922 65.9927 6.77576L85.4787 56.2253C86.9922 60.1019 85.1004 64.5457 81.2221 66.0585L31.8449 85.4412C27.872 87.0485 23.5208 85.063 22.0073 81.0919Z" fill="#E4D2FF"/>
<path d="M81.5057 46.0137C73.8438 47.621 65.3304 45.3518 57.8577 48.2829C53.601 49.9848 50.1957 53.294 46.6012 56.036C42.1553 59.3452 37.2365 60.6689 31.7502 60.858C25.8854 61.0471 19.8315 60.5743 14.0614 61.0471L15.8587 65.68C22.9531 65.2073 30.1421 66.3419 37.1419 65.3964C41.1148 64.8291 44.8039 63.4108 48.0201 61.0471C52.1821 58.116 55.7766 54.3341 60.5062 52.6322C67.7899 50.1739 75.9248 52.3485 83.3976 50.7412L81.5057 46.0137Z" fill="#C7B1EB"/>
<path d="M36.1015 53.6722C44.331 51.4976 49.3444 43.2718 57.0064 40.2462C63.6279 37.5988 71.2898 39.3007 77.7221 36.4642L76.0194 31.9258C69.0196 35.235 60.0333 32.8713 53.0335 36.6533C48.966 38.8279 45.6553 42.2317 42.0608 45.0682C37.7096 48.3774 32.9799 49.7011 27.5882 49.6066C21.4397 49.512 15.0074 47.9047 8.85889 47.3374L10.7507 52.254C19.1695 53.1995 27.8719 55.8469 36.1015 53.6722Z" fill="#C7B1EB"/>
<path d="M6.77833 42.2318C12.8322 42.2318 19.0753 42.8937 24.9401 42.0427C28.9129 41.4754 32.602 40.0572 35.8182 37.6934C39.9802 34.7624 43.5748 30.9804 48.3044 29.2785C56.5339 26.5366 65.8985 29.6567 73.9389 26.442L72.1416 21.8091C63.7229 24.9292 53.9799 21.5254 45.6558 24.9292C41.3991 26.6311 37.9938 29.9404 34.3993 32.6823C29.9535 35.9916 25.0347 37.3152 19.5483 37.5043C14.6295 37.6934 9.80529 37.3152 4.98108 37.5043L6.77833 42.2318Z" fill="#C7B1EB"/>
<path d="M73 44C73 60.0163 60.0163 73 44 73C27.9837 73 15 60.0163 15 44C15 27.9837 27.9837 15 44 15C60.0163 15 73 27.9837 73 44Z" stroke="#210049" stroke-width="2" stroke-miterlimit="10" stroke-linecap="round"/>
<path d="M22 44H20" stroke="#210049" stroke-miterlimit="10" stroke-linecap="round"/>
<path d="M68 44H66" stroke="#210049" stroke-miterlimit="10" stroke-linecap="round"/>
<path d="M44 22L44 20" stroke="#210049" stroke-miterlimit="10" stroke-linecap="round"/>
<path d="M44 68L44 66" stroke="#210049" stroke-miterlimit="10" stroke-linecap="round"/>
<path d="M28.4436 59.5565L27.0294 60.9707" stroke="#210049" stroke-miterlimit="10" stroke-linecap="round"/>
<path d="M60.9706 27.0296L59.5564 28.4438" stroke="#210049" stroke-miterlimit="10" stroke-linecap="round"/>
<path d="M28.4436 28.4435L27.0294 27.0293" stroke="#210049" stroke-miterlimit="10" stroke-linecap="round"/>
<path d="M60.9706 60.9704L59.5564 59.5562" stroke="#210049" stroke-miterlimit="10" stroke-linecap="round"/>
<path d="M46 44C46 45.1046 45.1046 46 44 46C42.8954 46 42 45.1046 42 44C42 42.8954 42.8954 42 44 42C45.1046 42 46 42.8954 46 44Z" stroke="#210049" stroke-width="2" stroke-miterlimit="10" stroke-linecap="round"/>
<path d="M44.7929 41.7929C44.4024 42.1834 44.4024 42.8166 44.7929 43.2071C45.1834 43.5976 45.8166 43.5976 46.2071 43.2071L44.7929 41.7929ZM57.7071 31.7071C58.0976 31.3166 58.0976 30.6834 57.7071 30.2929C57.3166 29.9024 56.6834 29.9024 56.2929 30.2929L57.7071 31.7071ZM46.2071 43.2071L57.7071 31.7071L56.2929 30.2929L44.7929 41.7929L46.2071 43.2071Z" fill="#210049"/>
<path d="M44 42V33" stroke="#210049" stroke-width="2" stroke-linecap="round"/>
</svg>
