<svg width="88" height="89" viewBox="0 0 88 89" fill="none" xmlns="http://www.w3.org/2000/svg">
<path d="M22.0073 81.5919L2.52126 32.3315C1.00778 28.4549 2.89963 24.0111 6.77791 22.4983L56.1551 3.02102C60.0334 1.50823 64.4792 3.39922 65.9927 7.27576L85.4787 56.7253C86.9922 60.6019 85.1004 65.0457 81.2221 66.5585L31.8449 85.9412C27.872 87.5485 23.5208 85.563 22.0073 81.5919Z" fill="#D5F4F7"/>
<path d="M81.5057 46.5137C73.8438 48.121 65.3304 45.8518 57.8577 48.7829C53.601 50.4848 50.1957 53.794 46.6012 56.536C42.1553 59.8452 37.2365 61.1689 31.7502 61.358C25.8854 61.5471 19.8315 61.0743 14.0614 61.5471L15.8587 66.18C22.9531 65.7073 30.1421 66.8419 37.1419 65.8964C41.1148 65.3291 44.8039 63.9108 48.0201 61.5471C52.1821 58.616 55.7766 54.8341 60.5062 53.1322C67.7899 50.6739 75.9248 52.8485 83.3976 51.2412L81.5057 46.5137Z" fill="#ACEAEF"/>
<path d="M36.1015 54.1722C44.331 51.9976 49.3444 43.7718 57.0064 40.7462C63.6279 38.0988 71.2898 39.8007 77.7221 36.9642L76.0194 32.4258C69.0196 35.735 60.0333 33.3713 53.0335 37.1533C48.966 39.3279 45.6553 42.7317 42.0608 45.5682C37.7096 48.8774 32.9799 50.2011 27.5882 50.1066C21.4397 50.012 15.0074 48.4047 8.85889 47.8374L10.7507 52.754C19.1695 53.6995 27.8719 56.3469 36.1015 54.1722Z" fill="#ACEAEF"/>
<path d="M6.77833 42.7318C12.8322 42.7318 19.0753 43.3937 24.9401 42.5427C28.9129 41.9754 32.602 40.5572 35.8182 38.1934C39.9802 35.2624 43.5748 31.4804 48.3044 29.7785C56.5339 27.0366 65.8985 30.1567 73.9389 26.942L72.1416 22.3091C63.7229 25.4292 53.9799 22.0254 45.6558 25.4292C41.3991 27.1311 37.9938 30.4404 34.3993 33.1823C29.9535 36.4916 25.0347 37.8152 19.5483 38.0043C14.6295 38.1934 9.80529 37.8152 4.98108 38.0043L6.77833 42.7318Z" fill="#ACEAEF"/>
<path d="M73 44.5C73 60.5163 60.0163 73.5 44 73.5C27.9837 73.5 15 60.5163 15 44.5C15 28.4837 27.9837 15.5 44 15.5C60.0163 15.5 73 28.4837 73 44.5Z" stroke="#210049" stroke-width="2" stroke-miterlimit="10" stroke-linecap="round"/>
<path d="M22 44.5H20" stroke="#210049" stroke-miterlimit="10" stroke-linecap="round"/>
<path d="M68 44.5H66" stroke="#210049" stroke-miterlimit="10" stroke-linecap="round"/>
<path d="M44 22.5L44 20.5" stroke="#210049" stroke-miterlimit="10" stroke-linecap="round"/>
<path d="M44 68.5L44 66.5" stroke="#210049" stroke-miterlimit="10" stroke-linecap="round"/>
<path d="M28.4436 60.0565L27.0294 61.4707" stroke="#210049" stroke-miterlimit="10" stroke-linecap="round"/>
<path d="M60.9706 27.5296L59.5564 28.9438" stroke="#210049" stroke-miterlimit="10" stroke-linecap="round"/>
<path d="M28.4436 28.9435L27.0294 27.5293" stroke="#210049" stroke-miterlimit="10" stroke-linecap="round"/>
<path d="M60.9706 61.4704L59.5564 60.0562" stroke="#210049" stroke-miterlimit="10" stroke-linecap="round"/>
<path d="M46 44.5C46 45.6046 45.1046 46.5 44 46.5C42.8954 46.5 42 45.6046 42 44.5C42 43.3954 42.8954 42.5 44 42.5C45.1046 42.5 46 43.3954 46 44.5Z" stroke="#210049" stroke-width="2" stroke-miterlimit="10" stroke-linecap="round"/>
<path d="M45.5 43L57 31.5" stroke="#210049" stroke-width="2" stroke-linecap="round"/>
<path d="M44 42.5V33.5" stroke="#210049" stroke-width="2" stroke-linecap="round"/>
</svg>
