<svg width="88" height="88" viewBox="0 0 88 88" fill="none" xmlns="http://www.w3.org/2000/svg">
<path d="M22.0073 81.0919L2.52126 31.8315C1.00778 27.9549 2.89963 23.5111 6.77791 21.9983L56.1551 2.52102C60.0334 1.00823 64.4792 2.89922 65.9927 6.77576L85.4787 56.2253C86.9922 60.1019 85.1004 64.5457 81.2221 66.0585L31.8449 85.4412C27.872 87.0485 23.5208 85.063 22.0073 81.0919Z" fill="#FFF69F"/>
<path d="M81.5059 46.0137C73.8439 47.621 65.3306 45.3518 57.8578 48.2829C53.6011 49.9848 50.1958 53.294 46.6013 56.036C42.1554 59.3452 37.2366 60.6689 31.7503 60.858C25.8856 61.0471 19.8317 60.5743 14.0615 61.0471L15.8588 65.68C22.9532 65.2073 30.1422 66.3419 37.1421 65.3964C41.1149 64.8291 44.804 63.4108 48.0202 61.0471C52.1822 58.116 55.7767 54.3341 60.5064 52.6322C67.79 50.1739 75.9249 52.3485 83.3977 50.7412L81.5059 46.0137Z" fill="#FFEF57"/>
<path d="M36.102 53.6722C44.3315 51.4976 49.3449 43.2718 57.0069 40.2462C63.6283 37.5988 71.2903 39.3007 77.7226 36.4642L76.0199 31.9258C69.0201 35.235 60.0338 32.8713 53.034 36.6533C48.9665 38.8279 45.6558 42.2317 42.0613 45.0682C37.71 48.3774 32.9804 49.7011 27.5887 49.6066C21.4402 49.512 15.0079 47.9047 8.85938 47.3374L10.7512 52.254C19.1699 53.1995 27.8724 55.8469 36.102 53.6722Z" fill="#FFEF57"/>
<path d="M6.7787 42.2313C12.8326 42.2313 19.0757 42.8932 24.9404 42.0423C28.9133 41.475 32.6024 40.0567 35.8185 37.693C39.9806 34.7619 43.5751 30.9799 48.3047 29.278C56.5343 26.5361 65.8989 29.6562 73.9393 26.4415L72.142 21.8086C63.7233 24.9287 53.9803 21.5249 45.6562 24.9287C41.3995 26.6306 37.9942 29.9399 34.3997 32.6818C29.9538 35.9911 25.035 37.3148 19.5487 37.5039C14.6299 37.693 9.80565 37.3148 4.98145 37.5039L6.7787 42.2313Z" fill="#FFEF57"/>
<path d="M73 44C73 60.0163 60.0163 73 44 73C27.9837 73 15 60.0163 15 44C15 27.9837 27.9837 15 44 15C60.0163 15 73 27.9837 73 44Z" stroke="#210049" stroke-width="2" stroke-miterlimit="10" stroke-linecap="round"/>
<path d="M22 44H20" stroke="#210049" stroke-miterlimit="10" stroke-linecap="round"/>
<path d="M68 44H66" stroke="#210049" stroke-miterlimit="10" stroke-linecap="round"/>
<path d="M44 22L44 20" stroke="#210049" stroke-miterlimit="10" stroke-linecap="round"/>
<path d="M44 68L44 66" stroke="#210049" stroke-miterlimit="10" stroke-linecap="round"/>
<path d="M28.4435 59.5565L27.0293 60.9707" stroke="#210049" stroke-miterlimit="10" stroke-linecap="round"/>
<path d="M60.9709 27.0291L59.5566 28.4434" stroke="#210049" stroke-miterlimit="10" stroke-linecap="round"/>
<path d="M28.4435 28.4435L27.0293 27.0293" stroke="#210049" stroke-miterlimit="10" stroke-linecap="round"/>
<path d="M60.9709 60.9709L59.5566 59.5566" stroke="#210049" stroke-miterlimit="10" stroke-linecap="round"/>
<path d="M46 44C46 45.1046 45.1046 46 44 46C42.8954 46 42 45.1046 42 44C42 42.8954 42.8954 42 44 42C45.1046 42 46 42.8954 46 44Z" stroke="#210049" stroke-width="2" stroke-miterlimit="10" stroke-linecap="round"/>
<path d="M44.7929 41.7929C44.4024 42.1834 44.4024 42.8166 44.7929 43.2071C45.1834 43.5976 45.8166 43.5976 46.2071 43.2071L44.7929 41.7929ZM57.7071 31.7071C58.0976 31.3166 58.0976 30.6834 57.7071 30.2929C57.3166 29.9024 56.6834 29.9024 56.2929 30.2929L57.7071 31.7071ZM46.2071 43.2071L57.7071 31.7071L56.2929 30.2929L44.7929 41.7929L46.2071 43.2071Z" fill="#210049"/>
<path d="M44 42V33" stroke="#210049" stroke-width="2" stroke-linecap="round"/>
<rect x="1" y="1" width="85" height="85" fill="white" fill-opacity="0.01"/>
</svg>
