<svg width="48" height="48" viewBox="0 0 48 48" fill="none" xmlns="http://www.w3.org/2000/svg">
<path fill-rule="evenodd" clip-rule="evenodd" d="M21.6218 45.0152L2.98481 26.3782C1.67173 25.0651 1.67173 22.9357 2.98481 21.6227L21.6218 2.98481C22.9349 1.67173 25.0643 1.67173 26.3773 2.98481L45.0152 21.6227C46.3283 22.9357 46.3283 25.0651 45.0152 26.3782L26.3773 45.0152C25.0643 46.3283 22.9349 46.3283 21.6218 45.0152Z" fill="#FFD2D2"/>
<path d="M22.3636 15C20.9072 15 19.4835 15.4319 18.2726 16.241C17.0617 17.0501 16.1179 18.2001 15.5605 19.5457C15.0032 20.8912 14.8574 22.3718 15.1415 23.8002C15.4256 25.2286 16.1269 26.5406 17.1568 27.5704C18.1866 28.6003 19.4986 29.3016 20.927 29.5857C22.3554 29.8698 23.836 29.724 25.1815 29.1667C26.527 28.6093 27.6771 27.6655 28.4862 26.4546C29.2953 25.2437 29.7272 23.82 29.7272 22.3636C29.7271 20.4107 28.9512 18.5378 27.5703 17.1569C26.1894 15.776 24.3165 15.0001 22.3636 15V15Z" stroke="#210049" stroke-width="1.5" stroke-miterlimit="10"/>
<path d="M27.8574 27.8582L33.0001 33.0009" stroke="#210049" stroke-width="1.5" stroke-miterlimit="10" stroke-linecap="round"/>
</svg>
