<svg width="88" height="88" viewBox="0 0 88 88" fill="none" xmlns="http://www.w3.org/2000/svg">
<path d="M22.0073 81.0919L2.52126 31.8315C1.00778 27.9549 2.89963 23.5111 6.77791 21.9983L56.1551 2.52102C60.0334 1.00823 64.4792 2.89922 65.9927 6.77576L85.4787 56.2253C86.9922 60.1019 85.1004 64.5457 81.2221 66.0585L31.8449 85.4412C27.872 87.0485 23.5208 85.063 22.0073 81.0919Z" fill="#D5F4F7"/>
<path d="M81.5059 46.0137C73.8439 47.621 65.3306 45.3518 57.8578 48.2829C53.6011 49.9848 50.1958 53.294 46.6013 56.036C42.1554 59.3452 37.2366 60.6689 31.7503 60.858C25.8856 61.0471 19.8317 60.5743 14.0615 61.0471L15.8588 65.68C22.9532 65.2073 30.1422 66.3419 37.1421 65.3964C41.1149 64.8291 44.804 63.4108 48.0202 61.0471C52.1822 58.116 55.7767 54.3341 60.5064 52.6322C67.79 50.1739 75.9249 52.3485 83.3977 50.7412L81.5059 46.0137Z" fill="#ACEAEF"/>
<path d="M36.102 53.6722C44.3315 51.4976 49.3449 43.2718 57.0069 40.2462C63.6283 37.5988 71.2903 39.3007 77.7226 36.4642L76.0199 31.9258C69.0201 35.235 60.0338 32.8713 53.034 36.6533C48.9665 38.8279 45.6558 42.2317 42.0613 45.0682C37.71 48.3774 32.9804 49.7011 27.5887 49.6066C21.4402 49.512 15.0079 47.9047 8.85938 47.3374L10.7512 52.254C19.1699 53.1995 27.8724 55.8469 36.102 53.6722Z" fill="#ACEAEF"/>
<path d="M6.7787 42.2313C12.8326 42.2313 19.0757 42.8932 24.9404 42.0423C28.9133 41.475 32.6024 40.0567 35.8185 37.693C39.9806 34.7619 43.5751 30.9799 48.3047 29.278C56.5343 26.5361 65.8989 29.6562 73.9393 26.4415L72.142 21.8086C63.7233 24.9287 53.9803 21.5249 45.6562 24.9287C41.3995 26.6306 37.9942 29.9399 34.3997 32.6818C29.9538 35.9911 25.035 37.3148 19.5487 37.5039C14.6299 37.693 9.80565 37.3148 4.98145 37.5039L6.7787 42.2313Z" fill="#ACEAEF"/>
<path d="M70.9795 31.6955L47.4604 20.334C47.0054 20.1143 46.5047 20 45.9973 20C45.4899 20 44.9893 20.1143 44.5342 20.334L21.0151 31.6955C20.1134 32.1279 19.3533 32.7984 18.8205 33.6314C18.2877 34.4644 18.0035 35.4265 18 36.4093V60.7303C18 63.6405 20.4417 66 23.4541 66H68.5459C71.5583 66 74 63.6405 74 60.7303V36.4093C73.996 35.426 73.711 34.4634 73.1772 33.6304C72.6434 32.7974 71.8822 32.1272 70.9795 31.6955V31.6955Z" stroke="#210049" stroke-width="2" stroke-linecap="round" stroke-linejoin="round"/>
<path d="M63.9688 57.2691L47.8393 45.2257C47.3136 44.8332 46.6667 44.6201 46.0007 44.6201C45.3347 44.6201 44.6877 44.8332 44.162 45.2257L28.0312 57.2691" stroke="#210049" stroke-width="2" stroke-linecap="round" stroke-linejoin="round"/>
<path d="M52.9883 48.5236L69.9588 36.1855" stroke="#210049" stroke-width="2" stroke-linecap="round" stroke-linejoin="round"/>
<path d="M22.042 36.1855L39.3869 48.7632" stroke="#210049" stroke-width="2" stroke-linecap="round" stroke-linejoin="round"/>
<path d="M29 41V36C29 33.7909 30.7909 32 33 32H59C61.2091 32 63 33.7909 63 36V41M31.8333 37.5H60.1667" stroke="#210049" stroke-linecap="round" stroke-linejoin="round"/>
<path d="M35 42H57" stroke="#210049" stroke-linecap="round" stroke-linejoin="round"/>
</svg>
