<svg width="48" height="48" viewBox="0 0 48 48" fill="none" xmlns="http://www.w3.org/2000/svg">
<path fill-rule="evenodd" clip-rule="evenodd" d="M21.6218 45.0152L2.98481 26.3782C1.67173 25.0651 1.67173 22.9357 2.98481 21.6227L21.6218 2.98481C22.9349 1.67173 25.0643 1.67173 26.3773 2.98481L45.0152 21.6227C46.3283 22.9357 46.3283 25.0651 45.0152 26.3782L26.3773 45.0152C25.0643 46.3283 22.9349 46.3283 21.6218 45.0152Z" fill="#FFD5E3"/>
<path d="M26.75 20.5C26.6275 22.1522 25.375 23.5 24 23.5C22.625 23.5 21.3703 22.1525 21.25 20.5C21.125 18.7812 22.3437 17.5 24 17.5C25.6562 17.5 26.875 18.8125 26.75 20.5Z" stroke="#210049" stroke-width="0.666667" stroke-linecap="round" stroke-linejoin="round"/>
<path d="M24 25.5C21.2813 25.5 18.5219 27 18.0113 29.8313C17.9497 30.1725 18.1428 30.5 18.5 30.5H29.5C29.8575 30.5 30.0506 30.1725 29.9891 29.8313C29.4781 27 26.7188 25.5 24 25.5Z" stroke="#210049" stroke-width="0.666667" stroke-miterlimit="10"/>
<path d="M27.75 33H30.375C31.0712 33 31.7389 32.7234 32.2312 32.2312C32.7234 31.7389 33 31.0712 33 30.375V27.75" stroke="#210049" stroke-linecap="round" stroke-linejoin="round"/>
<path d="M33 20.25V17.625C33 16.9288 32.7234 16.2611 32.2312 15.7688C31.7389 15.2766 31.0712 15 30.375 15H27.75" stroke="#210049" stroke-linecap="round" stroke-linejoin="round"/>
<path d="M20.25 33H17.625C16.9288 33 16.2611 32.7234 15.7688 32.2312C15.2766 31.7389 15 31.0712 15 30.375V27.75" stroke="#210049" stroke-linecap="round" stroke-linejoin="round"/>
<path d="M15 20.25V17.625C15 16.9288 15.2766 16.2611 15.7688 15.7688C16.2611 15.2766 16.9288 15 17.625 15H20.25" stroke="#210049" stroke-linecap="round" stroke-linejoin="round"/>
</svg>
