<svg width="88" height="89" viewBox="0 0 88 89" fill="none" xmlns="http://www.w3.org/2000/svg">
<path d="M22.0073 81.5919L2.52126 32.3315C1.00778 28.4549 2.89963 24.0111 6.77791 22.4983L56.1551 3.02102C60.0334 1.50823 64.4792 3.39922 65.9927 7.27576L85.4787 56.7253C86.9922 60.6019 85.1004 65.0457 81.2221 66.5585L31.8449 85.9412C27.872 87.5485 23.5208 85.563 22.0073 81.5919Z" fill="#E4D2FF"/>
<path d="M81.5057 46.5139C73.8438 48.1213 65.3304 45.8521 57.8577 48.7831C53.601 50.485 50.1957 53.7943 46.6012 56.5362C42.1553 59.8454 37.2365 61.1691 31.7502 61.3582C25.8854 61.5473 19.8315 61.0746 14.0614 61.5473L15.8587 66.1803C22.9531 65.7075 30.1421 66.8421 37.1419 65.8966C41.1148 65.3293 44.8039 63.9111 48.0201 61.5473C52.1821 58.6163 55.7766 54.8343 60.5062 53.1324C67.7899 50.6741 75.9248 52.8488 83.3976 51.2414L81.5057 46.5139Z" fill="#C7B1EB"/>
<path d="M36.1015 54.1725C44.331 51.9978 49.3444 43.772 57.0064 40.7464C63.6279 38.099 71.2898 39.8009 77.7221 36.9644L76.0194 32.426C69.0196 35.7353 60.0333 33.3715 53.0335 37.1535C48.966 39.3282 45.6553 42.732 42.0608 45.5684C37.7096 48.8777 32.9799 50.2014 27.5882 50.1068C21.4397 50.0123 15.0074 48.4049 8.85889 47.8376L10.7507 52.7542C19.1695 53.6997 27.8719 56.3471 36.1015 54.1725Z" fill="#C7B1EB"/>
<path d="M6.77833 42.7318C12.8322 42.7318 19.0753 43.3937 24.9401 42.5427C28.9129 41.9754 32.602 40.5572 35.8182 38.1934C39.9802 35.2624 43.5748 31.4804 48.3044 29.7785C56.5339 27.0366 65.8985 30.1567 73.9389 26.942L72.1416 22.3091C63.7229 25.4292 53.9799 22.0254 45.6558 25.4292C41.3991 27.1311 37.9938 30.4404 34.3993 33.1823C29.9535 36.4916 25.0347 37.8152 19.5483 38.0043C14.6295 38.1934 9.80529 37.8152 4.98108 38.0043L6.77833 42.7318Z" fill="#C7B1EB"/>
<path d="M17 63.5V71.5H25" stroke="#210049" stroke-width="2" stroke-linecap="round" stroke-linejoin="round"/>
<path d="M72 24.5L72 16.5L64 16.5" stroke="#210049" stroke-width="2" stroke-linecap="round" stroke-linejoin="round"/>
<path d="M25 16.5L17 16.5L17 24.5" stroke="#210049" stroke-width="2" stroke-linecap="round" stroke-linejoin="round"/>
<path d="M64 71.5L72 71.5L72 63.5" stroke="#210049" stroke-width="2" stroke-linecap="round" stroke-linejoin="round"/>
<path d="M20 50.5H68" stroke="#210049" stroke-width="2" stroke-linecap="round" stroke-linejoin="round"/>
<path d="M27.1718 50.5C26.8926 48.6159 26.3343 43.9783 31.3591 45.2826V39.1957C33.3132 38.471 37.2214 35.7174 37.2214 30.5C39.5942 34.1232 46.7684 41.1087 56.483 40.0652V45.2826C58.9954 43.5435 62.0103 45.9783 60.6703 50.5" stroke="#210049" stroke-linejoin="round"/>
<path d="M59.3123 43.8921L59.1227 44.874L61.0863 45.2533L61.276 44.2715L59.3123 43.8921ZM27.091 44.7458L27.3368 45.7151L29.2754 45.2235L29.0296 44.2542L27.091 44.7458ZM29.0296 44.2542C27.7763 39.3113 27.4175 33.8421 29.3889 29.663C31.2996 25.6126 35.5402 22.5 44.1772 22.5V20.5C35.0009 20.5 29.9106 23.8693 27.58 28.8097C25.3101 33.6216 25.7995 39.6523 27.091 44.7458L29.0296 44.2542ZM44.1772 22.5C48.5049 22.5 51.6607 23.3382 53.9491 24.6595C56.2266 25.9744 57.7075 27.8031 58.6376 29.9028C60.5231 34.1589 60.1516 39.5476 59.3123 43.8921L61.276 44.2715C62.1333 39.8342 62.61 33.932 60.4662 29.0927C59.3817 26.6446 57.6286 24.4745 54.9491 22.9274C52.2806 21.3868 48.7563 20.5 44.1772 20.5V22.5Z" fill="#210049"/>
<path d="M31 54.5C31 54.5 34.8235 66.5 44 66.5C53.1765 66.5 57 54.5 57 54.5" stroke="#210049" stroke-width="2" stroke-linecap="round" stroke-linejoin="round"/>
</svg>
