<?xml version="1.0" encoding="UTF-8" standalone="no"?>
<svg width="100px" height="100px" viewBox="0 0 100 100" version="1.1" xmlns="http://www.w3.org/2000/svg" xmlns:xlink="http://www.w3.org/1999/xlink">
    <!-- Generator: Sketch 40.1 (33804) - http://www.bohemiancoding.com/sketch -->
    <title>Page 1</title>
    <desc>Created with Sketch.</desc>
    <defs>
        <polygon id="path-1" points="0 100 100 100 100 0 0 0"></polygon>
    </defs>
    <g id="Page-1" stroke="none" stroke-width="1" fill="none" fill-rule="evenodd">
        <g>
            <path d="M28.5358,90.1346 L7.1918,39.4606 C5.5058,35.4586 7.3838,30.8486 11.3858,29.1626 L62.0598,7.8186 C66.0618,6.1336 70.6718,8.0106 72.3578,12.0126 L93.7018,62.6866 C95.3868,66.6886 93.5098,71.2986 89.5078,72.9846 L38.8338,94.3286 C34.8318,96.0146 30.2218,94.1366 28.5358,90.1346 L28.5358,90.1346 Z" id="Fill-1" fill="#17DEE2"></path>
            <g id="Group-9" transform="translate(9.000000, 27.000000)" fill="#13CECE">
                <path d="M80.3173,25.3646 C72.4013,27.2436 63.4783,25.0156 55.8893,28.3186 C51.5773,30.1946 48.1473,33.6906 44.3973,36.6136 C39.8573,40.1526 34.8143,41.6646 29.1203,41.9836 C22.9813,42.3276 16.8013,41.9206 10.8223,42.5346 L12.8213,47.2796 C20.0763,46.6556 27.6503,47.6506 34.8153,46.4256 C38.9163,45.7256 42.6283,44.1586 46.0263,41.6786 C50.2243,38.6136 53.8463,34.4556 58.7183,32.6976 C66.1803,30.0066 74.6983,32.0506 82.3213,30.1216 L80.3173,25.3646 Z" id="Fill-3"></path>
                <path d="M33.4139,34.3921 C41.8139,31.9211 46.8689,23.2831 54.8109,19.9631 C61.6359,17.1111 69.5559,18.5731 76.2009,15.5911 L74.2449,10.9491 C66.9909,14.4791 57.6949,12.3021 50.5209,16.4301 C46.4079,18.7971 43.0609,22.4471 39.3049,25.4311 C34.9029,28.9291 30.0219,30.4811 24.3989,30.5071 C17.9729,30.5361 11.3919,29.0021 4.9399,28.5681 L7.0699,33.6261 C15.9369,34.3991 25.0139,36.8631 33.4139,34.3921" id="Fill-5"></path>
                <path d="M2.7203,23.2995 C8.9773,23.1025 15.3893,23.6755 21.5033,22.6305 C25.6043,21.9295 29.3163,20.3635 32.7143,17.8825 C36.9123,14.8185 40.5343,10.6595 45.4063,8.9025 C53.8253,5.8655 63.5883,8.8575 71.8933,5.3645 L69.9103,0.6585 C61.3333,4.0945 51.1113,0.8095 42.5763,4.5225 C38.2653,6.3995 34.8353,9.8945 31.0853,12.8185 C26.5443,16.3575 21.5013,17.8685 15.8073,18.1875 C10.7543,18.4715 5.6743,18.2495 0.7003,18.5035 L2.7203,23.2995 Z" id="Fill-7"></path>
            </g>
            <mask id="mask-2" fill="white">
                <use xlink:href="#path-1"></use>
            </mask>
            <g id="Clip-11"></g>
            <polygon id="Stroke-10" stroke="#210049" stroke-width="3" stroke-linecap="round" stroke-linejoin="round" mask="url(#mask-2)" points="17.964 80.875 73.881 80.875 73.881 38.272 17.964 38.272"></polygon>
            <path d="M60.5677,26.0505 L60.5677,21.7645 C60.5677,14.0015 53.6777,7.6505 45.2577,7.6505 L45.2567,7.6505 C36.8367,7.6505 29.9467,14.0015 29.9467,21.7645 L29.9467,38.2715" id="Stroke-12" stroke="#210049" stroke-width="3" stroke-linecap="round" stroke-linejoin="round" mask="url(#mask-2)"></path>
            <path d="M46.9169,64.8987 L44.9289,64.8987 C43.2789,64.8987 41.9289,63.5487 41.9289,61.8987 L41.9289,51.9227 C41.9289,50.2727 43.2789,48.9227 44.9289,48.9227 L46.9169,48.9227 C48.5669,48.9227 49.9169,50.2727 49.9169,51.9227 L49.9169,61.8987 C49.9169,63.5487 48.5669,64.8987 46.9169,64.8987 L46.9169,64.8987 Z" id="Stroke-13" stroke="#210049" stroke-width="1.5" stroke-linecap="round" mask="url(#mask-2)"></path>
            <polygon id="Stroke-14" stroke="#210049" stroke-width="1.5" stroke-linecap="round" mask="url(#mask-2)" points="17.964 80.875 73.881 80.875 73.881 72.887 17.964 72.887"></polygon>
            <polygon id="Fill-15" fill-opacity="0.01" fill="#FFFFFF" mask="url(#mask-2)" points="0 100 100 100 100 0 0 0"></polygon>
        </g>
    </g>
</svg>