<svg width="90" height="90" viewBox="0 0 90 90" fill="none" xmlns="http://www.w3.org/2000/svg">
<path d="M21.3992 84.8492L0.569238 31.9392C-1.08076 27.7592 0.979239 23.0392 5.15924 21.3992L58.0592 0.569238C62.2392 -1.08076 66.9592 0.979239 68.5992 5.15924L89.4292 58.0592C91.0792 62.2392 89.0192 66.9592 84.8392 68.5992L31.9392 89.4292C27.7692 91.0792 23.0392 89.0192 21.3992 84.8492Z" fill="#66FFCC"/>
<path d="M85.239 47.1892C77.009 48.9392 67.839 46.4192 59.919 49.6492C55.419 51.4792 51.789 55.0192 47.839 57.9492C43.059 61.4992 37.809 62.9392 31.919 63.1292C25.569 63.3392 19.189 62.7692 12.989 63.2592L14.939 68.2092C22.459 67.7392 30.259 68.9492 37.699 67.8592C41.959 67.2392 45.829 65.7092 49.399 63.2292C53.809 60.1592 57.659 55.9492 62.739 54.2592C70.519 51.6592 79.269 53.9792 87.199 52.1692L85.239 47.1892Z" fill="#5BD8A9"/>
<path d="M36.539 55.3793C45.279 53.0293 50.719 44.2193 59.009 40.9793C66.129 38.1993 74.289 39.8993 81.229 36.9793L79.319 32.1293C71.739 35.5993 62.179 33.1293 54.659 37.2193C50.349 39.5693 46.799 43.2593 42.849 46.2493C38.209 49.7593 33.129 51.2393 27.319 51.1293C20.679 50.9993 13.909 49.2593 7.24902 48.6493L9.32902 53.9293C18.469 54.9693 27.799 57.7293 36.539 55.3793Z" fill="#5BD8A9"/>
<path d="M5.07913 43.1692C11.5491 43.1192 18.1691 43.8692 24.5091 42.9292C28.7691 42.3092 32.6391 40.7792 36.2091 38.2992C40.6191 35.2292 44.4691 31.0192 49.5491 29.3292C58.3291 26.3992 68.3491 29.7292 77.0191 26.3192L75.0891 21.4092C66.1391 24.7492 55.6491 21.1092 46.7391 24.7392C42.2391 26.5692 38.6091 30.1092 34.6591 33.0392C29.8791 36.5892 24.6291 38.0292 18.7391 38.2192C13.5091 38.3892 8.25913 38.0392 3.10913 38.1792L5.07913 43.1692Z" fill="#5BD8A9"/>
<path d="M49.2191 88.7192H14.4891C13.4791 88.7192 12.5591 88.1692 12.0791 87.2892C11.5991 86.4092 11.6391 85.3292 12.1891 84.4892L26.3291 62.8192C27.6291 60.8292 29.7291 59.6092 32.1091 59.4792C34.4891 59.3492 36.7091 60.3192 38.2291 62.1492L38.3491 62.3192L51.5791 84.5992C52.0891 85.4592 52.0991 86.4892 51.5991 87.3492C51.1091 88.2092 50.2191 88.7192 49.2191 88.7192Z" stroke="#210049" stroke-width="2" stroke-miterlimit="10"/>
<path d="M53.2992 41.2493H31.9092V30.5593H53.2992L46.1692 35.9093L53.2992 41.2493Z" stroke="#210049" stroke-width="2" stroke-miterlimit="10"/>
<path d="M36.299 28.2992C36.199 28.2892 36.099 28.2492 36.009 28.1892C35.699 27.9792 35.619 27.5592 35.819 27.2492L36.569 26.1292C36.779 25.8192 37.189 25.7392 37.509 25.9392C37.819 26.1492 37.899 26.5692 37.699 26.8792L36.949 27.9992C36.799 28.2192 36.549 28.3292 36.299 28.2992Z" fill="#210049"/>
<path d="M38.1691 25.4892C38.0691 25.4792 37.9691 25.4392 37.8791 25.3792C37.5691 25.1692 37.4891 24.7492 37.6891 24.4392L38.4391 23.3192C38.6491 23.0092 39.0691 22.9292 39.3791 23.1292C39.6891 23.3392 39.7691 23.7592 39.5691 24.0692L38.8191 25.1892C38.6691 25.4092 38.4191 25.5192 38.1691 25.4892Z" fill="#210049"/>
<path d="M26.3491 43.9692C26.2491 43.9592 26.1491 43.9192 26.0591 43.8592C25.7491 43.6492 25.6691 43.2292 25.8691 42.9192L26.6191 41.7992C26.8291 41.4892 27.2391 41.4092 27.5591 41.6092C27.8691 41.8192 27.9491 42.2392 27.7491 42.5492L26.9991 43.6692C26.8491 43.8992 26.5891 43.9992 26.3491 43.9692Z" fill="#210049"/>
<path d="M28.2192 41.1592C28.1192 41.1492 28.0192 41.1092 27.9292 41.0492C27.6192 40.8392 27.5392 40.4192 27.7392 40.1092L28.4892 38.9892C28.6992 38.6792 29.1092 38.5992 29.4292 38.7992C29.7392 39.0092 29.8192 39.4292 29.6192 39.7392L28.8692 40.8592C28.7192 41.0892 28.4592 41.1892 28.2192 41.1592Z" fill="#210049"/>
<path d="M26.2489 29.8192C26.1589 29.8092 26.0689 29.7792 25.9889 29.7292L24.8189 29.0492C24.4989 28.8592 24.3889 28.4492 24.5789 28.1292C24.7689 27.8092 25.1789 27.6992 25.4989 27.8892L26.6689 28.5692C26.9889 28.7592 27.0989 29.1692 26.9089 29.4892C26.7789 29.7292 26.5089 29.8492 26.2489 29.8192Z" fill="#210049"/>
<path d="M23.329 28.1192C23.239 28.1092 23.149 28.0792 23.069 28.0292L21.899 27.3492C21.579 27.1592 21.469 26.7492 21.659 26.4292C21.849 26.1092 22.259 25.9992 22.579 26.1892L23.749 26.8692C24.069 27.0592 24.179 27.4692 23.989 27.7892C23.859 28.0292 23.589 28.1492 23.329 28.1192Z" fill="#210049"/>
<path d="M21.0791 36.1992C20.7891 36.1592 20.5391 35.9392 20.4991 35.6292C20.4391 35.2592 20.6891 34.9192 21.0591 34.8592L22.3891 34.6492C22.7591 34.5992 23.0991 34.8392 23.1591 35.2092C23.2191 35.5792 22.9691 35.9192 22.5991 35.9792L21.2691 36.1892C21.2091 36.2092 21.1391 36.2092 21.0791 36.1992Z" fill="#210049"/>
<path d="M24.4192 35.6792C24.1292 35.6392 23.8792 35.4192 23.8392 35.1092C23.7792 34.7392 24.0292 34.3992 24.3992 34.3392L25.7292 34.1292C26.0992 34.0792 26.4392 34.3192 26.4992 34.6892C26.5592 35.0592 26.3092 35.3992 25.9392 35.4592L24.6092 35.6692C24.5392 35.6792 24.4792 35.6892 24.4192 35.6792Z" fill="#210049"/>
<path d="M30.7791 25.9592C30.4891 25.9192 30.2391 25.6992 30.1991 25.3892L29.9891 24.0592C29.9291 23.6892 30.1791 23.3492 30.5491 23.2892C30.9191 23.2292 31.2591 23.4792 31.3191 23.8492L31.5291 25.1792C31.5891 25.5492 31.3391 25.8892 30.9691 25.9492C30.8991 25.9692 30.8391 25.9692 30.7791 25.9592Z" fill="#210049"/>
<path d="M30.2591 22.6292C29.9691 22.5892 29.7191 22.3692 29.6791 22.0592L29.4691 20.7292C29.4091 20.3592 29.6591 20.0192 30.0291 19.9592C30.3991 19.9092 30.7391 20.1492 30.7991 20.5192L31.0091 21.8492C31.0691 22.2192 30.8191 22.5592 30.4491 22.6192C30.3791 22.6292 30.3191 22.6292 30.2591 22.6292Z" fill="#210049"/>
<path d="M31.8591 66.6493V30.5593" stroke="#210049" stroke-width="2" stroke-miterlimit="10" stroke-linecap="round" stroke-linejoin="round"/>
</svg>
