<svg width="48" height="48" viewBox="0 0 48 48" fill="none" xmlns="http://www.w3.org/2000/svg">
<path fill-rule="evenodd" clip-rule="evenodd" d="M21.6218 45.0152L2.98481 26.3782C1.67173 25.0651 1.67173 22.9357 2.98481 21.6227L21.6218 2.98481C22.9349 1.67173 25.0643 1.67173 26.3773 2.98481L45.0152 21.6227C46.3283 22.9357 46.3283 25.0651 45.0152 26.3782L26.3773 45.0152C25.0643 46.3283 22.9349 46.3283 21.6218 45.0152Z" fill="#E4D2FF"/>
<path d="M25.3335 29.0465C25.6415 28.9105 25.9449 28.7144 26.2225 28.4367L29.6668 24.9924" stroke="#210049" stroke-linecap="round" stroke-linejoin="round"/>
<path d="M25.8572 17.6392L24.3604 19.1361L22.5764 19.194C22.0085 19.2124 21.5331 18.767 21.5147 18.1991C21.5023 17.8185 21.6983 17.4794 21.9998 17.2916" stroke="#210049"/>
<path d="M18.7593 19.7514L20.9979 21.8491C21.4125 22.2377 21.4337 22.8888 21.0451 23.3035C20.7243 23.6458 20.2761 23.8216 19.8962 23.6539" stroke="#210049"/>
<path d="M20.2577 18.3169L22.6667 20.5C23.0813 20.8886 22.9918 21.5104 22.6033 21.925C22.2147 22.3396 21.5636 22.3608 21.149 21.9723L18.8506 19.8185" stroke="#210049"/>
<path fill-rule="evenodd" clip-rule="evenodd" d="M25.3608 29.0118L27.6316 31.2826L25.3608 29.0118Z" fill="white"/>
<path d="M26.1984 19.3027C26.0031 19.498 26.0031 19.8146 26.1984 20.0099C26.3936 20.2051 26.7102 20.2051 26.9055 20.0099L26.1984 19.3027ZM27.5589 18.6493L27.9124 19.0029V19.0029L27.5589 18.6493ZM29.0811 18.6493L28.7275 19.0029V19.0029L29.0811 18.6493ZM29.0855 20.1671L28.7299 19.8156L28.7299 19.8156L29.0855 20.1671ZM28.0503 21.2146L27.6947 20.8631C27.501 21.0591 27.5024 21.3749 27.6978 21.5692C27.8932 21.7635 28.209 21.763 28.4038 21.5681L28.0503 21.2146ZM29.249 20.0159L29.6025 20.3695V20.3695L29.249 20.0159ZM30.5675 21.3345L30.214 20.9809L30.5675 21.3345ZM29.1951 21.9998C28.9998 22.195 28.9998 22.5116 29.1951 22.7069C29.3904 22.9021 29.7069 22.9021 29.9022 22.7069L29.1951 21.9998ZM31.3467 21.9338L31.7002 21.5802V21.5802L31.3467 21.9338ZM31.3467 23.3123L31.7002 23.6658L31.3467 23.3123ZM22.7461 29.1558L22.893 28.6779C22.7161 28.6235 22.5235 28.6714 22.3926 28.8023L22.7461 29.1558ZM20.2949 30.9C20.0996 31.0953 20.0996 31.4118 20.2949 31.6071C20.4901 31.8024 20.8067 31.8024 21.002 31.6071L20.2949 30.9ZM25.3333 29.0119L25.6847 28.6562C25.5386 28.5119 25.3192 28.4715 25.1314 28.5544L25.3333 29.0119ZM29.313 24.6388C29.1178 24.8341 29.1178 25.1506 29.313 25.3459C29.5083 25.5412 29.8249 25.5412 30.0202 25.3459L29.313 24.6388ZM27.2803 31.6383C27.4767 31.8324 27.7933 31.8305 27.9874 31.634C28.1815 31.4376 28.1795 31.121 27.9831 30.9269L27.2803 31.6383ZM26.9055 20.0099L27.9124 19.0029L27.2053 18.2958L26.1984 19.3027L26.9055 20.0099ZM27.9124 19.0029C28.1375 18.7778 28.5025 18.7778 28.7275 19.0029L29.4347 18.2958C28.8191 17.6802 27.8209 17.6802 27.2053 18.2958L27.9124 19.0029ZM28.7275 19.0029C28.9517 19.2271 28.9528 19.5901 28.7299 19.8156L29.4411 20.5186C30.0507 19.9019 30.0477 18.9089 29.4347 18.2958L28.7275 19.0029ZM28.7299 19.8156L27.6947 20.8631L28.4059 21.566L29.4412 20.5185L28.7299 19.8156ZM28.4038 21.5681L29.6025 20.3695L28.8954 19.6623L27.6967 20.861L28.4038 21.5681ZM29.6025 20.3695C29.7714 20.2006 30.0451 20.2006 30.214 20.3695L30.9211 19.6623C30.3617 19.103 29.4548 19.103 28.8954 19.6623L29.6025 20.3695ZM30.214 20.3695C30.3828 20.5383 30.3828 20.8121 30.214 20.9809L30.9211 21.688C31.4804 21.1286 31.4804 20.2217 30.9211 19.6623L30.214 20.3695ZM30.214 20.9809L29.6154 21.5794L30.3226 22.2865L30.9211 21.688L30.214 20.9809ZM30.3221 22.2869C30.5075 22.102 30.8079 22.1021 30.9931 22.2873L31.7002 21.5802C31.1247 21.0047 30.1919 21.0043 29.6159 21.579L30.3221 22.2869ZM30.9931 22.2873C31.1785 22.4727 31.1785 22.7733 30.9931 22.9587L31.7002 23.6658C32.2761 23.0899 32.2761 22.1561 31.7002 21.5802L30.9931 22.2873ZM22.3926 28.8023L20.2949 30.9L21.002 31.6071L23.0997 29.5094L22.3926 28.8023ZM25.1314 28.5544C24.6033 28.7875 24.045 28.8226 23.6031 28.7926C23.3846 28.7778 23.2015 28.7476 23.0748 28.7215C23.0116 28.7085 22.9631 28.6966 22.9318 28.6885C22.9161 28.6844 22.9048 28.6813 22.8983 28.6794C22.895 28.6785 22.8929 28.6779 22.892 28.6776C22.8915 28.6775 22.8914 28.6774 22.8916 28.6775C22.8917 28.6775 22.8918 28.6775 22.8921 28.6776C22.8922 28.6777 22.8923 28.6777 22.8925 28.6778C22.8926 28.6778 22.8927 28.6778 22.8928 28.6778C22.8929 28.6779 22.893 28.6779 22.7461 29.1558C22.5992 29.6338 22.5994 29.6338 22.5995 29.6339C22.5996 29.6339 22.5998 29.6339 22.5999 29.634C22.6001 29.6341 22.6004 29.6341 22.6007 29.6342C22.6012 29.6344 22.6019 29.6346 22.6026 29.6348C22.6041 29.6353 22.6059 29.6358 22.608 29.6364C22.6122 29.6377 22.6178 29.6393 22.6245 29.6412C22.6381 29.6451 22.6567 29.6502 22.6799 29.6563C22.7264 29.6684 22.7918 29.6842 22.8732 29.7009C23.0356 29.7344 23.264 29.7719 23.5355 29.7903C24.0736 29.8268 24.8089 29.7899 25.5352 29.4693L25.1314 28.5544ZM30.9931 22.9587L29.313 24.6388L30.0202 25.3459L31.7002 23.6658L30.9931 22.9587ZM24.9819 29.3675L27.2803 31.6383L27.9831 30.9269L25.6847 28.6562L24.9819 29.3675ZM29.6154 21.5794L29.1951 21.9998L29.9022 22.7069L30.3226 22.2865L29.6154 21.5794Z" fill="#210049"/>
<path fill-rule="evenodd" clip-rule="evenodd" d="M29.7007 24.9422L31.8063 27.0479L29.7007 24.9422Z" fill="white"/>
<path d="M29.7007 24.9422L31.8063 27.0479" stroke="#210049" stroke-linecap="round"/>
<path d="M25.8335 17.6667L25.3838 17.8852C25.4544 18.0307 25.5911 18.133 25.7506 18.1598C25.9101 18.1866 26.0727 18.1346 26.187 18.0202L25.8335 17.6667ZM27.1666 19.0421L26.813 18.6885L26.813 18.6885L27.1666 19.0421ZM15.9652 26.8401C15.7784 27.0435 15.7919 27.3598 15.9953 27.5465C16.1987 27.7333 16.515 27.7198 16.7018 27.5164L15.9652 26.8401ZM18.3335 25L18.7018 25.3382C18.8857 25.1379 18.8758 24.8273 18.6795 24.6391L18.3335 25ZM18.0002 21.8334L17.73 22.2541C17.9494 22.3949 18.2401 22.3436 18.398 22.1362C18.5559 21.9288 18.528 21.6349 18.3338 21.461L18.0002 21.8334ZM16.7278 22.0516L17.0927 22.3935L17.0927 22.3935L16.7278 22.0516ZM16.7751 23.5059L17.1211 23.1449L17.1169 23.141L16.7751 23.5059ZM18.325 20.0316C18.5265 20.2204 18.8429 20.2101 19.0317 20.0086C19.2205 19.8071 19.2102 19.4906 19.0087 19.3018L18.325 20.0316ZM17.3051 19.7987L16.9403 19.4568L16.9403 19.4568L17.3051 19.7987ZM17.3524 21.253L17.0105 21.618L17.0188 21.6254L17.3524 21.253ZM20.3335 18.3334L19.9916 18.6982C20.1459 18.8428 20.3745 18.8747 20.5625 18.7778C20.7505 18.681 20.8572 18.4763 20.829 18.2667L20.3335 18.3334ZM18.6668 18.3334L19.0317 18.6752V18.6752L18.6668 18.3334ZM20.6764 17.3254L20.3116 16.9834L20.3116 16.9835L20.6764 17.3254ZM22.0002 17.1667L21.7213 17.5817C21.809 17.6406 21.9131 17.6702 22.0186 17.6663L22.0002 17.1667ZM24.8989 17.0597L24.8826 16.5599L24.8804 16.56L24.8989 17.0597ZM26.187 18.0202C26.3458 17.8615 26.617 17.8511 26.813 18.0471L27.5201 17.34C26.9714 16.7913 26.066 16.7271 25.4799 17.3131L26.187 18.0202ZM26.813 18.0471C26.9901 18.2242 26.9901 18.5114 26.813 18.6885L27.5201 19.3957C28.0878 18.828 28.0878 17.9077 27.5201 17.34L26.813 18.0471ZM26.813 18.6885L26.2586 19.2429L26.9657 19.95L27.5201 19.3957L26.813 18.6885ZM16.7018 27.5164L18.7018 25.3382L17.9652 24.6619L15.9652 26.8401L16.7018 27.5164ZM18.0002 21.8334C18.2703 21.4126 18.2701 21.4125 18.2699 21.4123C18.2698 21.4123 18.2695 21.4121 18.2694 21.412C18.2691 21.4118 18.2687 21.4116 18.2684 21.4114C18.2677 21.4109 18.2669 21.4105 18.2662 21.41C18.2646 21.409 18.2628 21.4079 18.2609 21.4067C18.257 21.4043 18.2525 21.4015 18.2472 21.3984C18.2367 21.3922 18.2233 21.3845 18.2072 21.3759C18.1752 21.3587 18.132 21.3372 18.0791 21.3151C17.9745 21.2715 17.825 21.2225 17.6449 21.203C17.2645 21.1619 16.7852 21.2592 16.363 21.7097L17.0927 22.3935C17.2762 22.1977 17.4329 22.1859 17.5373 22.1972C17.5996 22.204 17.6546 22.2216 17.694 22.238C17.713 22.246 17.7266 22.2529 17.7335 22.2566C17.7368 22.2584 17.7383 22.2593 17.7379 22.259C17.7376 22.2588 17.7369 22.2584 17.7356 22.2576C17.7349 22.2572 17.7341 22.2567 17.7332 22.2561C17.7327 22.2558 17.7322 22.2555 17.7317 22.2552C17.7314 22.255 17.7312 22.2548 17.7309 22.2547C17.7307 22.2546 17.7305 22.2544 17.7305 22.2544C17.7302 22.2542 17.73 22.2541 18.0002 21.8334ZM16.363 21.7097C15.7856 22.3258 15.817 23.2934 16.4332 23.8708L17.1169 23.141C16.9038 22.9414 16.8929 22.6066 17.0927 22.3935L16.363 21.7097ZM16.429 23.8668L17.9875 25.3609L18.6795 24.6391L17.1211 23.145L16.429 23.8668ZM19.0087 19.3018C18.694 19.0069 18.3033 18.8871 17.9147 18.9353C17.538 18.982 17.1991 19.1807 16.9403 19.4568L17.67 20.1406C17.7998 20.0021 17.9344 19.9405 18.0377 19.9277C18.1292 19.9164 18.225 19.9379 18.325 20.0316L19.0087 19.3018ZM16.9403 19.4568C16.3629 20.073 16.3944 21.0405 17.0106 21.6179L17.6943 20.8882C17.4811 20.6885 17.4702 20.3537 17.67 20.1405L16.9403 19.4568ZM17.0188 21.6254L17.6665 22.2058L18.3338 21.461L17.6861 20.8806L17.0188 21.6254ZM20.6754 17.9685C20.3539 17.6672 19.9017 17.5364 19.4955 17.5322C19.0914 17.528 18.6227 17.6492 18.302 17.9915L19.0317 18.6752C19.0995 18.6028 19.2568 18.5298 19.4852 18.5321C19.7116 18.5345 19.8985 18.6109 19.9916 18.6982L20.6754 17.9685ZM18.302 17.9915C17.8579 18.4654 17.6528 19.4017 18.325 20.0316L19.0087 19.3018C18.9218 19.2204 18.8875 19.12 18.8935 19.0056C18.9001 18.8806 18.9559 18.7561 19.0317 18.6752L18.302 17.9915ZM20.3116 16.9835C20.1379 17.1689 20.0119 17.417 19.9342 17.6453C19.8576 17.8705 19.8039 18.1466 19.838 18.4L20.829 18.2667C20.8233 18.2242 20.8311 18.1138 20.8809 17.9676C20.9296 17.8246 20.995 17.7167 21.0413 17.6672L20.3116 16.9835ZM22.279 16.7517C21.6619 16.337 20.8271 16.4334 20.3116 16.9834L21.0413 17.6673C21.2254 17.4708 21.5158 17.4436 21.7213 17.5817L22.279 16.7517ZM24.8804 16.56L21.9817 16.667L22.0186 17.6663L24.9173 17.5593L24.8804 16.56ZM26.2832 17.4482C26.0454 16.9588 25.5415 16.5385 24.8826 16.5599L24.9151 17.5594C25.0939 17.5536 25.2775 17.6665 25.3838 17.8852L26.2832 17.4482Z" fill="#210049"/>
<path d="M18 21.8333L19.6794 23.4074C20.094 23.796 20.1152 24.4471 19.7266 24.8617C19.338 25.2764 18.6869 25.2975 18.2723 24.909" stroke="#210049"/>
<path d="M22.6665 20.5C23.0812 20.8885 23.5332 20.7813 23.9217 20.3667C24.2439 20.0229 24.2844 19.5166 24.0526 19.1321" stroke="#210049"/>
</svg>
