<svg width="48" height="48" viewBox="0 0 48 48" fill="none" xmlns="http://www.w3.org/2000/svg">
  <path fill-rule="evenodd" clip-rule="evenodd" d="M21.6218 45.0152L2.98481 26.3782C1.67173 25.0651 1.67173 22.9357 2.98481 21.6227L21.6218 2.98481C22.9349 1.67173 25.0643 1.67173 26.3773 2.98481L45.0152 21.6227C46.3283 22.9357 46.3283 25.0651 45.0152 26.3782L26.3773 45.0152C25.0643 46.3283 22.9349 46.3283 21.6218 45.0152Z" fill="#E9E6ED"/>
  <path d="M33.6473 14.5229C33.6394 14.4844 33.6206 14.449 33.5932 14.4209C33.5658 14.3927 33.5309 14.373 33.4927 14.364C30.9436 13.7406 25.0552 15.962 21.8616 19.1532C21.2924 19.7177 20.7734 20.3306 20.3105 20.9851C19.3261 20.896 18.3417 20.971 17.5036 21.3366C15.1369 22.3773 14.4483 25.0951 14.2561 26.2618C14.2457 26.3257 14.2501 26.3912 14.2691 26.4531C14.2881 26.5151 14.321 26.5718 14.3654 26.6189C14.4099 26.6661 14.4645 26.7024 14.5252 26.725C14.5859 26.7476 14.651 26.7559 14.7155 26.7493L18.5156 26.3321C18.5183 26.6187 18.5355 26.905 18.5672 27.1899C18.587 27.3868 18.6749 27.5707 18.8156 27.7098L20.287 29.1812C20.4263 29.322 20.6103 29.4099 20.8073 29.4296C21.0905 29.4612 21.3751 29.4784 21.66 29.4812L21.2433 33.2781C21.2368 33.3424 21.2452 33.4074 21.2678 33.468C21.2904 33.5286 21.3266 33.5832 21.3737 33.6275C21.4208 33.6719 21.4774 33.7048 21.5393 33.7238C21.6011 33.7428 21.6665 33.7473 21.7303 33.737C22.8975 33.5495 25.6209 32.8609 26.6555 30.4946C27.0211 29.6556 27.0961 28.6763 27.0117 27.6966C27.6681 27.2341 28.2828 26.7151 28.8488 26.1456C32.0541 22.9581 34.2614 17.199 33.6473 14.5229ZM25.9997 22.0163C25.7197 21.7364 25.529 21.3798 25.4518 20.9915C25.3745 20.6032 25.4141 20.2008 25.5656 19.835C25.7171 19.4692 25.9736 19.1566 26.3028 18.9366C26.632 18.7167 27.019 18.5993 27.4148 18.5993C27.8107 18.5993 28.1977 18.7167 28.5269 18.9366C28.8561 19.1566 29.1126 19.4692 29.2641 19.835C29.4156 20.2008 29.4552 20.6032 29.3779 20.9915C29.3006 21.3798 29.11 21.7364 28.83 22.0163C28.6443 22.2024 28.4237 22.3501 28.1809 22.4508C27.9381 22.5515 27.6777 22.6034 27.4148 22.6034C27.152 22.6034 26.8916 22.5515 26.6488 22.4508C26.406 22.3501 26.1854 22.2024 25.9997 22.0163V22.0163Z" stroke="#210049" stroke-width="1.5" stroke-linecap="round" stroke-linejoin="round"/>
  <path d="M17.1394 28.5C16.6721 28.5574 16.2374 28.7692 15.9042 29.1019C15.0783 29.9306 15 33 15 33C15 33 18.0712 32.9217 18.8977 32.0948C19.2317 31.7622 19.4439 31.3268 19.5 30.8588" stroke="#210049" stroke-width="1.5" stroke-linecap="round" stroke-linejoin="round"/>
</svg>
