<svg width="32" height="32" viewBox="0 0 32 32" fill="none" xmlns="http://www.w3.org/2000/svg">
<path d="M12.5 14.5C12.5 15.0523 12.0523 15.5 11.5 15.5C10.9477 15.5 10.5 15.0523 10.5 14.5C10.5 13.9477 10.9477 13.5 11.5 13.5C12.0523 13.5 12.5 13.9477 12.5 14.5Z" fill="#4376FF" stroke="#4376FF"/>
<path d="M10.5025 19.5001H10.51H21.4906V19.5001L21.498 19.5C20.81 21.8015 18.6198 23.5001 16.0031 23.5001C13.3871 23.5001 11.1971 21.8022 10.5025 19.5001ZM10.4988 19.4924V19.4924Z" fill="#4376FF" stroke="#4376FF"/>
<path d="M21.5 14.5C21.5 15.0523 21.0523 15.5 20.5 15.5C19.9477 15.5 19.5 15.0523 19.5 14.5C19.5 13.9477 19.9477 13.5 20.5 13.5C21.0523 13.5 21.5 13.9477 21.5 14.5Z" fill="#4376FF" stroke="#4376FF"/>
<path d="M16 29C23.1797 29 29 23.1797 29 16C29 8.8203 23.1797 3 16 3C8.8203 3 3 8.8203 3 16C3 23.1797 8.8203 29 16 29Z" stroke="#4376FF" stroke-width="1.5" stroke-miterlimit="10"/>
</svg>
