<svg width="88" height="88" viewBox="0 0 88 88" fill="none" xmlns="http://www.w3.org/2000/svg">
<path d="M22.0073 81.0919L2.52126 31.8315C1.00778 27.9549 2.89963 23.5111 6.77791 21.9983L56.1551 2.52102C60.0334 1.00823 64.4792 2.89922 65.9927 6.77576L85.4787 56.2253C86.9922 60.1019 85.1004 64.5457 81.2221 66.0585L31.8449 85.4412C27.872 87.0485 23.5208 85.063 22.0073 81.0919Z" fill="#D5F4F7"/>
<path d="M81.5057 46.0139C73.8438 47.6213 65.3304 45.3521 57.8577 48.2831C53.601 49.985 50.1957 53.2943 46.6012 56.0362C42.1553 59.3454 37.2365 60.6691 31.7502 60.8582C25.8854 61.0473 19.8315 60.5746 14.0614 61.0473L15.8587 65.6803C22.9531 65.2075 30.1421 66.3421 37.1419 65.3966C41.1148 64.8293 44.8039 63.4111 48.0201 61.0473C52.1821 58.1163 55.7766 54.3343 60.5062 52.6324C67.7899 50.1741 75.9248 52.3488 83.3976 50.7414L81.5057 46.0139Z" fill="#ACEAEF"/>
<path d="M36.1015 53.6725C44.331 51.4978 49.3444 43.272 57.0064 40.2464C63.6279 37.599 71.2898 39.3009 77.7221 36.4644L76.0194 31.926C69.0196 35.2353 60.0333 32.8715 53.0335 36.6535C48.966 38.8282 45.6553 42.232 42.0608 45.0684C37.7096 48.3777 32.9799 49.7014 27.5882 49.6068C21.4397 49.5123 15.0074 47.9049 8.85889 47.3376L10.7507 52.2542C19.1695 53.1997 27.8719 55.8471 36.1015 53.6725Z" fill="#ACEAEF"/>
<path d="M6.77833 42.2318C12.8322 42.2318 19.0753 42.8937 24.9401 42.0427C28.9129 41.4754 32.602 40.0572 35.8182 37.6934C39.9802 34.7624 43.5748 30.9804 48.3044 29.2785C56.5339 26.5366 65.8985 29.6567 73.9389 26.442L72.1416 21.8091C63.7229 24.9292 53.9799 21.5254 45.6558 24.9292C41.3991 26.6311 37.9938 29.9404 34.3993 32.6823C29.9535 35.9916 25.0347 37.3152 19.5483 37.5043C14.6295 37.6934 9.80529 37.3152 4.98108 37.5043L6.77833 42.2318Z" fill="#ACEAEF"/>
<path d="M57.6287 22C48.4998 22 44 31.0909 44 31.0909C44 31.0909 39.5002 22 30.3714 22C22.9524 22 17.0774 28.2699 17.0014 35.7514C16.8468 51.2811 29.1972 62.3251 42.7345 71.6064C43.1077 71.8628 43.5486 72 44 72C44.4514 72 44.8924 71.8628 45.2656 71.6064C58.8014 62.3251 71.1519 51.2811 70.9986 35.7514C70.9227 28.2699 65.0477 22 57.6287 22Z" stroke="#210049" stroke-width="2" stroke-linecap="round" stroke-linejoin="round"/>
<path d="M31.8857 25C25.291 25 20.0688 30.5175 20.0013 37.1012" stroke="#210049" stroke-linecap="round" stroke-linejoin="round"/>
<path d="M43.9743 30.3419C43.887 30.0799 43.6039 29.9383 43.3419 30.0257C43.0799 30.113 42.9383 30.3961 43.0257 30.6581L43.9743 30.3419ZM48.7331 56.1187L49.0186 55.7082L48.7331 56.1187ZM49.4687 58.449L48.9993 58.2769L49.4687 58.449ZM39.9127 47.3224L40.2952 47.6445L39.9127 47.3224ZM45.778 40.3574L45.3955 40.0353L45.778 40.3574ZM43.0257 30.6581L45.6712 38.5948L46.6199 38.2785L43.9743 30.3419L43.0257 30.6581ZM45.3955 40.0353L39.5303 47.0003L40.2952 47.6445L46.1605 40.6794L45.3955 40.0353ZM40.0149 50.6629L48.4475 56.5291L49.0186 55.7082L40.586 49.842L40.0149 50.6629ZM48.9993 58.2769L44.0306 71.8279L44.9694 72.1721L49.9381 58.6211L48.9993 58.2769ZM48.4475 56.5291C49.0074 56.9186 49.234 57.6366 48.9993 58.2769L49.9381 58.6211C50.3294 57.554 49.9516 56.3573 49.0186 55.7082L48.4475 56.5291ZM39.5303 47.0003C38.5824 48.1259 38.8069 49.8226 40.0149 50.6629L40.586 49.842C39.8612 49.3378 39.7265 48.3198 40.2952 47.6445L39.5303 47.0003ZM45.6712 38.5948C45.8363 39.0902 45.7319 39.6358 45.3955 40.0353L46.1605 40.6794C46.7211 40.0137 46.8951 39.1042 46.6199 38.2785L45.6712 38.5948Z" fill="#210049"/>
</svg>
