<svg width="174" height="181" viewBox="0 0 174 181" fill="none" xmlns="http://www.w3.org/2000/svg">
<path d="M66.4285 145.16L65.6729 151.263C64.8073 158.3 64.7845 165.415 65.6051 172.458L66.4285 179.452" stroke="#210049" stroke-width="2.67227" stroke-linecap="round" stroke-linejoin="round"/>
<path d="M99.7323 145.16L99.926 146.991C101.021 157.172 101.021 167.44 99.926 177.621L99.7323 179.452" stroke="#210049" stroke-width="2.67227" stroke-linecap="round" stroke-linejoin="round"/>
<path d="M112.732 64.6421V143.048C112.732 144.118 111.865 144.986 110.795 144.986H53.6804C52.6104 144.986 51.743 144.118 51.743 143.048V64.6421" stroke="#210049" stroke-width="2.67227" stroke-miterlimit="10"/>
<g opacity="0.25">
<path opacity="0.25" d="M104.866 67.7226C103.782 68.02 102.634 67.9965 101.563 67.6548C100.625 67.3608 99.7726 66.8442 99.0776 66.1493C98.3827 65.4543 97.8661 64.6016 97.5721 63.6638C97.2304 62.5924 97.2069 61.445 97.5043 60.3605C97.55 60.1818 97.5544 59.9949 97.5169 59.8143C97.4794 59.6336 97.4011 59.4639 97.288 59.3181C97.175 59.1723 97.03 59.0543 96.8644 58.973C96.6987 58.8918 96.5167 58.8495 96.3322 58.8494H67.9881C67.8002 58.8441 67.6138 58.8829 67.4437 58.9628C67.2736 59.0427 67.1246 59.1614 67.0088 59.3093C66.8929 59.4572 66.8133 59.6302 66.7765 59.8145C66.7396 59.9988 66.7465 60.1891 66.7966 60.3702C67.0993 61.4748 67.069 62.6442 66.7094 63.7316C66.4215 64.6648 65.9128 65.5148 65.2265 66.2096C64.5402 66.9043 63.6964 67.4234 62.7668 67.7226C61.6919 68.0629 60.5418 68.0864 59.4538 67.7904C59.275 67.7426 59.0875 67.7368 58.906 67.7735C58.7245 67.8102 58.5539 67.8883 58.4076 68.0018C58.2613 68.1153 58.1432 68.261 58.0626 68.4277C57.9819 68.5944 57.9409 68.7774 57.9427 68.9626V129.719C57.9428 129.903 57.9848 130.083 58.0655 130.248C58.1463 130.412 58.2636 130.556 58.4085 130.668C58.5535 130.781 58.7221 130.858 58.9016 130.895C59.0811 130.932 59.2667 130.928 59.4442 130.882C60.5482 130.579 61.7166 130.606 62.8055 130.959C63.7322 131.258 64.5738 131.775 65.2598 132.466C65.9457 133.157 66.4561 134.002 66.7481 134.931C67.0884 136.006 67.112 137.156 66.816 138.244C66.7702 138.423 66.7659 138.609 66.8034 138.79C66.8408 138.971 66.9191 139.14 67.0322 139.286C67.1453 139.432 67.2902 139.55 67.4559 139.631C67.6215 139.713 67.8036 139.755 67.9881 139.755H96.3322C96.5163 139.756 96.6982 139.715 96.864 139.635C97.0297 139.555 97.1748 139.438 97.2881 139.293C97.4014 139.148 97.4798 138.979 97.5173 138.798C97.5548 138.618 97.5503 138.432 97.5043 138.253C97.2015 137.149 97.2318 135.979 97.5915 134.892C97.8879 133.966 98.4025 133.124 99.092 132.438C99.7815 131.752 100.626 131.241 101.553 130.95C102.627 130.606 103.778 130.579 104.866 130.872C105.045 130.922 105.232 130.929 105.414 130.894C105.595 130.859 105.766 130.781 105.913 130.669C106.059 130.556 106.178 130.41 106.258 130.244C106.339 130.078 106.38 129.895 106.378 129.71V68.9141C106.382 68.7274 106.344 68.542 106.264 68.3729C106.185 68.2037 106.067 68.0554 105.92 67.9398C105.774 67.8241 105.602 67.7442 105.419 67.7065C105.236 67.6688 105.047 67.6743 104.866 67.7226V67.7226Z" fill="#7A6692"/>
<path opacity="0.25" d="M60.9263 64.8268C62.5741 64.8268 63.9099 63.491 63.9099 61.8432C63.9099 60.1954 62.5741 58.8596 60.9263 58.8596C59.2785 58.8596 57.9427 60.1954 57.9427 61.8432C57.9427 63.491 59.2785 64.8268 60.9263 64.8268Z" fill="#7A6692"/>
<path opacity="0.25" d="M103.404 64.8261C105.051 64.8261 106.387 63.4903 106.387 61.8425C106.387 60.1947 105.051 58.8589 103.404 58.8589C101.756 58.8589 100.42 60.1947 100.42 61.8425C100.42 63.4903 101.756 64.8261 103.404 64.8261Z" fill="#7A6692"/>
<path opacity="0.25" d="M60.9263 139.755C62.5741 139.755 63.9099 138.419 63.9099 136.771C63.9099 135.123 62.5741 133.788 60.9263 133.788C59.2785 133.788 57.9427 135.123 57.9427 136.771C57.9427 138.419 59.2785 139.755 60.9263 139.755Z" fill="#7A6692"/>
<path opacity="0.25" d="M103.665 139.755C105.313 139.755 106.649 138.419 106.649 136.771C106.649 135.123 105.313 133.788 103.665 133.788C102.017 133.788 100.682 135.123 100.682 136.771C100.682 138.419 102.017 139.755 103.665 139.755Z" fill="#7A6692"/>
</g>
<path d="M88.1079 104.281H76.1929C75.9733 104.28 75.7599 104.354 75.5877 104.49C75.4155 104.627 75.2947 104.817 75.2452 105.031C75.1956 105.245 75.2203 105.47 75.315 105.668C75.4098 105.866 75.569 106.026 75.7667 106.122C77.7543 107.094 79.9378 107.599 82.1504 107.599C84.363 107.599 86.5465 107.094 88.5341 106.122C88.7318 106.026 88.891 105.866 88.9858 105.668C89.0805 105.47 89.1052 105.245 89.0556 105.031C89.0061 104.817 88.8853 104.627 88.7131 104.49C88.5409 104.354 88.3275 104.28 88.1079 104.281Z" fill="#A699B6"/>
<path d="M71.2623 83.5123C71.2065 83.3977 71.1286 83.2952 71.0331 83.2107C70.9376 83.1262 70.8264 83.0614 70.7058 83.02C70.5852 82.9786 70.4576 82.9614 70.3303 82.9694C70.2031 82.9775 70.0787 83.0105 69.9642 83.0667L65.9441 85.0041C65.7472 85.0995 65.5884 85.2587 65.4935 85.4558C65.3986 85.653 65.3732 85.8764 65.4215 86.0898C65.4698 86.3032 65.5889 86.4939 65.7595 86.631C65.93 86.7681 66.1419 86.8434 66.3607 86.8447C66.5083 86.8453 66.6541 86.8121 66.7869 86.7478L70.807 84.8104C70.9225 84.7555 71.0259 84.6782 71.1114 84.5831C71.1969 84.488 71.2627 84.3769 71.305 84.2562C71.3474 84.1355 71.3654 84.0077 71.358 83.88C71.3507 83.7523 71.3182 83.6274 71.2623 83.5123V83.5123Z" fill="#210049"/>
<path d="M98.3761 85.004L94.356 83.0666C94.241 83.007 94.1153 82.9711 93.9862 82.961C93.8571 82.9508 93.7273 82.9667 93.6044 83.0076C93.4816 83.0485 93.3681 83.1135 93.2709 83.199C93.1736 83.2845 93.0945 83.3886 93.0381 83.5052C92.9818 83.6217 92.9494 83.7484 92.9428 83.8777C92.9363 84.0071 92.9557 84.1364 93 84.258C93.0443 84.3797 93.1125 84.4913 93.2007 84.5861C93.2888 84.681 93.3951 84.7572 93.5132 84.8103L97.5333 86.7477C97.6661 86.812 97.8119 86.8451 97.9595 86.8445C98.1783 86.8433 98.3902 86.768 98.5607 86.6309C98.7312 86.4938 98.8503 86.3031 98.8986 86.0897C98.9469 85.8763 98.9216 85.6528 98.8267 85.4557C98.7318 85.2586 98.573 85.0994 98.3761 85.004V85.004Z" fill="#210049"/>
<path d="M73.1222 98.1395C73.9247 98.1395 74.5752 97.4889 74.5752 96.6864C74.5752 95.8839 73.9247 95.2334 73.1222 95.2334C72.3197 95.2334 71.6691 95.8839 71.6691 96.6864C71.6691 97.4889 72.3197 98.1395 73.1222 98.1395Z" fill="white"/>
<path d="M73.1222 100.087C72.4516 100.087 71.7961 99.8877 71.2386 99.5152C70.681 99.1426 70.2465 98.6131 69.9898 97.9936C69.7332 97.374 69.6661 96.6923 69.7969 96.0347C69.9277 95.377 70.2506 94.7729 70.7248 94.2987C71.199 93.8245 71.8031 93.5016 72.4608 93.3708C73.1184 93.24 73.8001 93.3071 74.4197 93.5637C75.0392 93.8204 75.5687 94.2549 75.9412 94.8125C76.3138 95.37 76.5126 96.0255 76.5126 96.6961C76.5126 97.5953 76.1554 98.4577 75.5196 99.0935C74.8838 99.7293 74.0214 100.087 73.1222 100.087V100.087ZM73.1222 95.2431C72.8348 95.2431 72.5539 95.3283 72.3149 95.4879C72.076 95.6476 71.8897 95.8745 71.7798 96.1401C71.6698 96.4056 71.641 96.6977 71.6971 96.9796C71.7531 97.2614 71.8915 97.5204 72.0947 97.7236C72.298 97.9268 72.5569 98.0652 72.8387 98.1212C73.1206 98.1773 73.4127 98.1485 73.6783 98.0386C73.9438 97.9286 74.1707 97.7423 74.3304 97.5034C74.49 97.2644 74.5752 96.9835 74.5752 96.6961C74.5752 96.3107 74.4222 95.9412 74.1497 95.6687C73.8772 95.3962 73.5076 95.2431 73.1222 95.2431V95.2431Z" fill="#210049"/>
<path d="M91.0043 98.1395C91.8068 98.1395 92.4574 97.4889 92.4574 96.6864C92.4574 95.8839 91.8068 95.2334 91.0043 95.2334C90.2018 95.2334 89.5513 95.8839 89.5513 96.6864C89.5513 97.4889 90.2018 98.1395 91.0043 98.1395Z" fill="white"/>
<path d="M91.014 100.087C90.3434 100.087 89.6879 99.8877 89.1304 99.5152C88.5728 99.1426 88.1382 98.6131 87.8816 97.9936C87.625 97.374 87.5579 96.6923 87.6887 96.0347C87.8195 95.377 88.1424 94.7729 88.6166 94.2987C89.0907 93.8245 89.6949 93.5016 90.3525 93.3708C91.0102 93.24 91.6919 93.3071 92.3114 93.5637C92.931 93.8204 93.4605 94.2549 93.833 94.8125C94.2056 95.37 94.4044 96.0255 94.4044 96.6961C94.4044 97.5953 94.0472 98.4577 93.4114 99.0935C92.7756 99.7293 91.9132 100.087 91.014 100.087ZM91.014 95.2431C90.7266 95.2431 90.4457 95.3283 90.2067 95.4879C89.9678 95.6476 89.7815 95.8745 89.6715 96.1401C89.5616 96.4056 89.5328 96.6977 89.5889 96.9796C89.6449 97.2614 89.7833 97.5204 89.9865 97.7236C90.1897 97.9268 90.4486 98.0652 90.7305 98.1212C91.0124 98.1773 91.3045 98.1485 91.57 98.0386C91.8355 97.9286 92.0625 97.7423 92.2221 97.5034C92.3818 97.2644 92.467 96.9835 92.467 96.6961C92.467 96.3107 92.3139 95.9412 92.0414 95.6687C91.7689 95.3962 91.3994 95.2431 91.014 95.2431Z" fill="#210049"/>
<path d="M51.7818 101.879C51.7818 101.879 31 107.5 33.5 132.5" stroke="#210049" stroke-width="2.67227" stroke-linecap="round" stroke-linejoin="round"/>
<path d="M133.985 88.6658C133.985 88.6658 147.247 104.165 112.771 103.39" stroke="#210049" stroke-width="2.67227" stroke-linecap="round" stroke-linejoin="round"/>
<path d="M71.6788 102.421C74.8888 102.421 77.491 99.819 77.491 96.6091C77.491 93.3991 74.8888 90.7969 71.6788 90.7969C68.4688 90.7969 65.8666 93.3991 65.8666 96.6091C65.8666 99.819 68.4688 102.421 71.6788 102.421Z" fill="#D3CCDB" stroke="#210049" stroke-width="2.67227" stroke-miterlimit="10"/>
<path d="M92.4283 102.421C95.6383 102.421 98.2405 99.819 98.2405 96.6091C98.2405 93.3991 95.6383 90.7969 92.4283 90.7969C89.2184 90.7969 86.6161 93.3991 86.6161 96.6091C86.6161 99.819 89.2184 102.421 92.4283 102.421Z" fill="#D3CCDB" stroke="#210049" stroke-width="2.67227" stroke-miterlimit="10"/>
<path d="M77.4522 96.609C77.4522 96.609 82.4313 93.2864 86.5773 96.609Z" fill="#D3CCDB"/>
<path d="M77.4522 96.609C77.4522 96.609 82.4313 93.2864 86.5773 96.609" stroke="#210049" stroke-width="2.67227" stroke-miterlimit="10"/>
<path d="M145.707 94.1872L125.364 84.9846" stroke="#4D336D" stroke-width="2.67227"/>
<path d="M42 137V135.672C42 134.196 40.8036 133 39.3277 133H28.6723C27.1964 133 26 134.196 26 135.672V137" stroke="#4D336D" stroke-width="2.67227"/>
<path d="M122.05 77.4752C121.38 77.1658 120.586 77.4581 120.276 78.128C119.967 78.7979 120.259 79.5918 120.929 79.9012L122.05 77.4752ZM118.416 83.9159C117.826 83.4731 116.988 83.5927 116.546 84.1831C116.103 84.7734 116.222 85.6109 116.813 86.0537L118.416 83.9159ZM123.017 87.0087L122.349 85.8515L123.017 87.0087ZM120.929 79.9012L123.572 81.1219L124.692 78.6959L122.05 77.4752L120.929 79.9012ZM124.348 82.3349V83.9263H127.02V82.3349H124.348ZM123.68 85.0834L122.349 85.8515L123.685 88.1658L125.016 87.3977L123.68 85.0834ZM120.879 85.7633L118.416 83.9159L116.813 86.0537L119.276 87.9011L120.879 85.7633ZM122.349 85.8515C121.886 86.1191 121.308 86.0844 120.879 85.7633L119.276 87.9011C120.56 88.8643 122.295 88.9684 123.685 88.1658L122.349 85.8515ZM124.348 83.9263C124.348 84.4036 124.093 84.8447 123.68 85.0834L125.016 87.3977C126.256 86.6816 127.02 85.3583 127.02 83.9263H124.348ZM123.572 81.1219C124.045 81.3404 124.348 81.8139 124.348 82.3349H127.02C127.02 80.7718 126.111 79.3513 124.692 78.6959L123.572 81.1219Z" fill="#4D336D"/>
<rect x="39.15" y="56.8926" width="85.2454" height="7.74958" rx="2.67227" stroke="#4D336D" stroke-width="2.67227"/>
<path d="M148.245 92.537C149.072 92.0597 150.091 92.0597 150.918 92.537L152.44 93.416C153.267 93.8933 153.776 94.7755 153.776 95.7302V97.488C153.776 98.4427 153.267 99.3249 152.44 99.8023L150.918 100.681C150.091 101.159 149.072 101.159 148.245 100.681L146.723 99.8023C145.896 99.3249 145.387 98.4427 145.387 97.488V95.7302C145.387 94.7755 145.896 93.8933 146.723 93.416L148.245 92.537Z" stroke="#4D336D" stroke-width="2.67227"/>
<path d="M47.8682 56.8924C47.8682 56.8924 47.8682 28.8002 75.9605 26.3784" stroke="#4D336D" stroke-width="2.67227"/>
<path d="M116.646 56.8924C116.646 56.8924 116.646 28.8002 88.5535 26.3784" stroke="#4D336D" stroke-width="2.67227"/>
<path d="M88.5535 43.3306V24.6916C88.5535 23.2157 87.3571 22.0193 85.8812 22.0193H78.6327C77.1569 22.0193 75.9604 23.2157 75.9604 24.6916V43.3306" stroke="#4D336D" stroke-width="2.67227"/>
<path d="M67.2422 28.8003V37.5186" stroke="#4D336D" stroke-width="2.67227"/>
<path d="M96.3031 28.8003V37.5186" stroke="#4D336D" stroke-width="2.67227"/>
<path d="M18 143.5V152.328C18 153.804 19.1964 155 20.6723 155H47.3277C48.8036 155 50 153.804 50 152.328V143.5M18 143.5V139.672C18 138.196 19.1964 137 20.6723 137H47.3277C48.8036 137 50 138.196 50 139.672V143.5M18 143.5H50" stroke="#4D336D" stroke-width="2.67227"/>
</svg>
