<svg width="48" height="48" viewBox="0 0 48 48" fill="none" xmlns="http://www.w3.org/2000/svg">
  <path fill-rule="evenodd" clip-rule="evenodd" d="M21.6218 45.0152L2.98481 26.3782C1.67173 25.0651 1.67173 22.9357 2.98481 21.6227L21.6218 2.98481C22.9349 1.67173 25.0643 1.67173 26.3773 2.98481L45.0152 21.6227C46.3283 22.9357 46.3283 25.0651 45.0152 26.3782L26.3773 45.0152C25.0643 46.3283 22.9349 46.3283 21.6218 45.0152Z" fill="#FFD5E3"/>
  <path d="M31.5 22.3711V31.5C31.5 32.0967 31.2629 32.669 30.841 33.091C30.419 33.5129 29.8467 33.75 29.25 33.75H18.75C18.1533 33.75 17.581 33.5129 17.159 33.091C16.7371 32.669 16.5 32.0967 16.5 31.5V16.5C16.5 15.9033 16.7371 15.331 17.159 14.909C17.581 14.4871 18.1533 14.25 18.75 14.25H23.3789C23.7766 14.2501 24.158 14.408 24.4392 14.6892L31.0608 21.3108C31.342 21.592 31.4999 21.9734 31.5 22.3711Z" stroke="#210049" stroke-width="1.5" stroke-linejoin="round"/>
  <path d="M24 14.625V20.25C24 20.6478 24.158 21.0294 24.4393 21.3107C24.7206 21.592 25.1022 21.75 25.5 21.75H31.125" stroke="#210049" stroke-width="1.5" stroke-linecap="round" stroke-linejoin="round"/>
  <path d="M20.25 25.5H27.75" stroke="#210049" stroke-width="1.5" stroke-linecap="round" stroke-linejoin="round"/>
  <path d="M20.25 29.25H27.75" stroke="#210049" stroke-width="1.5" stroke-linecap="round" stroke-linejoin="round"/>
</svg>
