<svg width="48" height="48" viewBox="0 0 48 48" fill="none" xmlns="http://www.w3.org/2000/svg">
<path fill-rule="evenodd" clip-rule="evenodd" d="M21.6218 45.0152L2.98481 26.3782C1.67173 25.0651 1.67173 22.9357 2.98481 21.6227L21.6218 2.98481C22.9349 1.67173 25.0643 1.67173 26.3773 2.98481L45.0152 21.6227C46.3283 22.9357 46.3283 25.0651 45.0152 26.3782L26.3773 45.0152C25.0643 46.3283 22.9349 46.3283 21.6218 45.0152Z" fill="#EAEAEA"/>
<path d="M21.75 28.5H18.75C17.5565 28.5 16.4119 28.0259 15.568 27.182C14.7241 26.3381 14.25 25.1935 14.25 24C14.25 22.8065 14.7241 21.6619 15.568 20.818C16.4119 19.9741 17.5565 19.5 18.75 19.5H21.75" stroke="#6E6E6E" stroke-width="1.5" stroke-linecap="round" stroke-linejoin="round"/>
<path d="M26.25 19.5H29.25C30.4435 19.5 31.5881 19.9741 32.432 20.818C33.2759 21.6619 33.75 22.8065 33.75 24C33.75 25.1935 33.2759 26.3381 32.432 27.182C31.5881 28.0259 30.4435 28.5 29.25 28.5H26.25" stroke="#6E6E6E" stroke-width="1.5" stroke-linecap="round" stroke-linejoin="round"/>
<path d="M19.6543 24H28.4396" stroke="#6E6E6E" stroke-width="1.5" stroke-linecap="round" stroke-linejoin="round"/>
</svg>
