<svg width="32" height="32" viewBox="0 0 32 32" fill="none" xmlns="http://www.w3.org/2000/svg">
<path d="M21 13V7.0625C21 5.73642 20.4732 4.46465 19.5355 3.52697C18.5979 2.58928 17.3261 2.0625 16 2.0625C14.6739 2.0625 13.4021 2.58928 12.4645 3.52697C11.5268 4.46465 11 5.73642 11 7.0625V13" stroke="#4376FF" stroke-width="1.5" stroke-linecap="round" stroke-linejoin="round"/>
<path d="M23 13H9C7.34315 13 6 14.3431 6 16V27C6 28.6569 7.34315 30 9 30H23C24.6569 30 26 28.6569 26 27V16C26 14.3431 24.6569 13 23 13Z" stroke="#4376FF" stroke-width="1.5" stroke-linecap="round" stroke-linejoin="round"/>
</svg>
