<svg width="56" height="56" viewBox="0 0 56 56" fill="none" xmlns="http://www.w3.org/2000/svg">
  <path d="M11.6667 15C11.6667 10.5817 15.2484 7 19.6667 7H36.3333C40.7516 7 44.3333 10.5817 44.3333 15V49H19.6667C15.2484 49 11.6667 45.4183 11.6667 41V15Z" stroke="#210049" stroke-width="2" stroke-linejoin="round"/>
  <path d="M44.3333 28C43.5644 28.769 41.5283 29.0311 39.1438 29.0369C33.6545 29.0504 28.9034 33.657 29.0226 39.145C29.0993 42.6727 28.8862 46.3413 28 49" stroke="#210049" stroke-width="2" stroke-linejoin="round"/>
  <path d="M44.3333 30.3333C43.4681 31.2306 40.7315 31.3515 37.9045 31.1999C34.1736 30.9998 30.9077 34.1824 31.1183 37.9127C31.3309 41.6776 31.2841 46.0419 30.3333 49" stroke="#210049" stroke-linejoin="round"/>
  <path d="M17.8889 12.4444L20.2222 14.7778M21.7778 16.3333L24.1111 18.6667M20.2222 16.3333L17.8889 18.6667M24.1111 12.4444L21.7778 14.7778" stroke="#210049" stroke-linecap="round"/>
  <path d="M17.8889 24.8889L20.2222 27.2222M21.7778 28.7778L24.1111 31.1111M20.2222 28.7778L17.8889 31.1111M24.1111 24.8889L21.7778 27.2222" stroke="#210049" stroke-linecap="round"/>
  <path d="M17.8889 37.3333L20.2222 39.6667M21.7778 41.2222L24.1111 43.5556M20.2222 41.2222L17.8889 43.5556M24.1111 37.3333L21.7778 39.6667" stroke="#210049" stroke-linecap="round"/>
  <path d="M31.8889 12.4444L34.2222 14.7778M35.7778 16.3333L38.1111 18.6667M34.2222 16.3333L31.8889 18.6667M38.1111 12.4444L35.7778 14.7778" stroke="#210049" stroke-linecap="round"/>
  <path d="M31.8889 24.8889L34.2222 27.2222M38.1111 24.8889L35.7778 27.2222" stroke="#210049" stroke-linecap="round"/>
  <path d="M42 34.6111V44.5989C40.9457 44.9715 40.0653 45.7123 39.5132 46.6667H33.0555" stroke="#210049" stroke-linecap="round"/>
  <path fill-rule="evenodd" clip-rule="evenodd" d="M37.3658 42.1026C37.6193 42.2637 37.9148 42.3739 38.1967 42.4606V44.6928C37.87 44.6851 37.2789 44.4751 36.9989 44.0084L36.5555 44.3195C36.9289 44.794 37.4967 45.1284 38.1967 45.144V45.704H38.57V45.144C39.4644 45.1284 40.1489 44.5373 40.1489 43.674C40.1489 42.6628 39.3555 42.2973 38.57 42.0251V40.4621C38.4741 40.5973 38.3777 40.7321 38.2808 40.8665C38.2528 40.9053 38.2247 40.9441 38.1967 40.9829V41.8928C38.0013 41.8401 37.8275 41.7711 37.6831 41.6812C37.5778 41.8223 37.472 41.9628 37.3658 42.1026ZM38.9329 39.9451C39.1833 40.0223 39.4178 40.1756 39.5811 40.4073L40.0089 40.0806C39.8002 39.8349 39.5059 39.6637 39.1967 39.5623C39.1093 39.6901 39.0214 39.8177 38.9329 39.9451ZM39.5889 43.6351C39.5889 43.1062 39.1611 42.7406 38.57 42.554V44.6928C39.0289 44.6773 39.5889 44.4051 39.5889 43.6351Z" fill="#210049"/>
  <path d="M28 49C32.6667 50.5556 45.5 31.1111 44.3333 28" stroke="#210049" stroke-linecap="round"/>
</svg>