<svg width="88" height="91" viewBox="0 0 88 91" fill="none" xmlns="http://www.w3.org/2000/svg">
<mask id="mask0" mask-type="alpha" maskUnits="userSpaceOnUse" x="0" y="0" width="88" height="88">
<path fill-rule="evenodd" clip-rule="evenodd" d="M0 0H87.0366V87.037H0V0Z" fill="white"/>
</mask>
<g mask="url(#mask0)">
<path fill-rule="evenodd" clip-rule="evenodd" d="M20.6949 82.0527L0.548935 30.8917C-1.04206 26.8517 0.942935 22.2857 4.98394 20.6957L56.1449 0.548687C60.1859 -1.04231 64.7509 0.943687 66.3419 4.98369L86.4879 56.1457C88.0789 60.1857 86.0929 64.7507 82.0529 66.3417L30.8919 86.4887C26.8509 88.0787 22.2859 86.0937 20.6949 82.0527Z" fill="#FF585F"/>
</g>
<path fill-rule="evenodd" clip-rule="evenodd" d="M82.962 47.1311C75.0895 48.9522 66.4828 46.2352 58.9002 49.5964C54.5929 51.5057 51.1197 55.1801 47.3427 58.2314C42.7703 61.9241 37.7469 63.4233 32.1081 63.6225C26.0291 63.8377 19.9274 63.2436 13.9998 63.7527L15.8655 68.9091C23.0554 68.4205 30.5233 69.683 37.6381 68.5464C41.7098 67.8964 45.4176 66.3045 48.8355 63.7226C53.0586 60.5314 56.7377 56.1488 61.5969 54.3805C69.0391 51.6736 77.3649 54.1204 84.9486 52.238L82.962 47.1311Z" fill="#F2515D"/>
<path fill-rule="evenodd" clip-rule="evenodd" d="M57.678 41.1896C64.5153 38.3106 72.3092 40.0843 78.9708 37.062L77.0652 32.2811C69.7863 35.8748 60.7176 33.0683 53.5042 37.3017C49.368 39.7303 45.9633 43.5508 42.1675 46.648C37.7178 50.2791 32.8394 51.8154 27.2604 51.7009C20.8845 51.5715 14.3915 49.7655 7.99976 49.1386L9.99538 54.6013C18.7747 55.6519 27.7228 58.5148 36.1132 56.0841C44.5045 53.6534 49.7203 44.5414 57.678 41.1896Z" fill="#F2515D"/>
<path fill-rule="evenodd" clip-rule="evenodd" d="M5.89387 43.7908C12.1116 43.7368 18.4653 44.5192 24.5599 43.5444C28.6491 42.8928 32.3717 41.2945 35.8034 38.7008C40.0436 35.4966 43.7374 31.096 48.6162 29.3204C57.0469 26.2535 66.4389 29.9279 74.7672 26.366L72.7369 21.3231C64.1394 24.8181 54.4704 20.7214 45.9087 24.5179C41.5841 26.435 38.0958 30.1245 34.3046 33.1871C29.7128 36.8961 24.6701 38.4004 19.0087 38.6003C13.9848 38.7786 8.94511 38.4101 3.99976 38.5571L5.89387 43.7908Z" fill="#F2515D"/>
<path fill-rule="evenodd" clip-rule="evenodd" d="M40.9998 25.566C34.6872 25.566 29.5517 33.1789 29.5517 42.5376C29.5517 51.8951 34.6872 59.5091 40.9998 59.5091C47.3123 59.5091 52.4478 51.8951 52.4478 42.5376C52.4478 33.1789 47.3123 25.566 40.9998 25.566ZM40.9998 61.037C33.8315 61.037 27.9998 52.737 27.9998 42.5376C27.9998 32.3358 33.8315 24.037 40.9998 24.037C48.168 24.037 53.9998 32.3358 53.9998 42.5376C53.9998 52.737 48.168 61.037 40.9998 61.037Z" fill="#210049"/>
<path fill-rule="evenodd" clip-rule="evenodd" d="M41.4998 20.5675C33.2435 20.5675 26.5263 30.6472 26.5263 43.0376C26.5263 55.4268 33.2435 65.5064 41.4998 65.5064C49.7561 65.5064 56.4732 55.4268 56.4732 43.0376C56.4732 30.6472 49.7561 20.5675 41.4998 20.5675ZM41.4998 67.037C32.4022 67.037 24.9998 56.2714 24.9998 43.0376C24.9998 29.8038 32.4022 19.037 41.4998 19.037C50.5984 19.037 57.9998 29.8038 57.9998 43.0376C57.9998 56.2714 50.5984 67.037 41.4998 67.037Z" fill="#210049"/>
<path fill-rule="evenodd" clip-rule="evenodd" d="M41.4729 90.037C41.4513 90.037 41.4308 90.0358 41.4092 90.0358C39.2694 90.0106 36.835 88.6386 36.2188 85.6356C35.291 81.1036 37.5946 75.4632 37.8572 74.8409C39.955 67.4227 37.067 66.0324 37.0374 66.0198C36.6486 65.8628 36.4587 65.4192 36.6145 65.0284C36.768 64.6364 37.2091 64.4461 37.598 64.602C37.7719 64.6707 41.831 66.4152 39.3001 75.3085L39.2671 75.4025C39.2421 75.4598 36.8373 81.1036 37.7026 85.3273C38.179 87.6483 40.0061 88.4919 41.4274 88.5091C41.4433 88.5091 41.4581 88.5103 41.474 88.5103C42.8862 88.5103 44.6963 87.7056 45.2227 85.4259C46.2312 81.0463 44.0027 74.9165 43.9811 74.8546C41.4319 65.9052 45.491 64.1618 45.665 64.0908C46.0539 63.936 46.495 64.1263 46.6485 64.5183C46.802 64.9057 46.619 65.3436 46.2392 65.5052C46.1607 65.543 43.3262 66.9987 45.4103 74.3514C45.6059 74.8878 47.7844 81.0543 46.6974 85.7709C46.0175 88.7246 43.5945 90.0358 41.4729 90.037L46.2392 72.1351Z" fill="#210049"/>
<path fill-rule="evenodd" clip-rule="evenodd" d="M25.25 45.037C23.4577 45.037 21.9998 43.4667 21.9998 41.5364C21.9998 39.606 23.4577 38.037 25.25 38.037C25.6643 38.037 25.9998 38.3971 25.9998 38.8445C25.9998 39.2895 25.6643 39.6521 25.25 39.6521C24.2851 39.6521 23.4993 40.4972 23.4993 41.5364C23.4993 42.5767 24.2851 43.4219 25.25 43.4219C25.6643 43.4219 25.9998 43.7844 25.9998 44.2294C25.9998 44.6757 25.6643 45.037 25.25 45.037Z" fill="#210049"/>
<path fill-rule="evenodd" clip-rule="evenodd" d="M57.7505 45.037C57.3363 45.037 56.9998 44.6757 56.9998 44.2294C56.9998 43.7844 57.3363 43.4219 57.7505 43.4219C58.715 43.4219 59.5006 42.5767 59.5006 41.5364C59.5006 40.4972 58.715 39.6521 57.7505 39.6521C57.3363 39.6521 56.9998 39.2895 56.9998 38.8445C56.9998 38.3971 57.3363 38.037 57.7505 38.037C59.5422 38.037 60.9998 39.606 60.9998 41.5364C60.9998 43.4667 59.5422 45.037 57.7505 45.037Z" fill="#210049"/>
<path fill-rule="evenodd" clip-rule="evenodd" d="M34.5892 21.037C34.3629 21.037 34.1377 20.9538 33.9753 20.7906C32.5543 19.364 32.7032 17.1732 34.3075 15.9075C35.0838 15.2944 36.0816 14.9868 37.1187 15.0437C38.1547 15.0995 39.1045 15.5112 39.7934 16.2021C40.0936 16.5031 40.0629 16.9652 39.7233 17.2323C39.385 17.5006 38.867 17.471 38.5668 17.1699C38.1694 16.7703 37.6195 16.5327 37.0203 16.4988C36.4175 16.467 35.8429 16.6444 35.3939 16.9991C34.4662 17.7305 34.3801 18.9983 35.2032 19.8239C35.5021 20.125 35.4714 20.587 35.1318 20.8541C34.9768 20.9768 34.7824 21.037 34.5892 21.037Z" fill="#210049"/>
<path fill-rule="evenodd" clip-rule="evenodd" d="M48.4851 21.037C48.3001 21.037 48.1161 20.9673 47.9752 20.8248C47.6977 20.5452 47.7009 20.0931 47.9817 19.8156C48.3549 19.4491 48.5625 18.9584 48.5668 18.4345C48.5701 17.9127 48.3689 17.4198 47.9989 17.047C47.631 16.6752 47.1383 16.4684 46.6134 16.4652H46.6004C46.0798 16.4652 45.5903 16.6656 45.2192 17.0298C44.9385 17.3063 44.4845 17.3052 44.2059 17.0234C43.9284 16.7427 43.9316 16.2906 44.2124 16.0141C44.8535 15.3841 45.7011 15.037 46.6004 15.037H46.623C47.5299 15.0434 48.3818 15.4013 49.0197 16.0452C49.6565 16.687 50.0051 17.5398 49.9997 18.4441C49.9932 19.3484 49.635 20.197 48.9885 20.8323C48.8487 20.9695 48.6669 21.037 48.4851 21.037Z" fill="#210049"/>
<path fill-rule="evenodd" clip-rule="evenodd" d="M44.262 17.037C43.8543 17.037 43.5231 16.7243 43.5231 16.3405C43.5231 15.2864 42.6158 14.4299 41.4992 14.4299C40.3837 14.4299 39.4753 15.2864 39.4753 16.3405C39.4753 16.7243 39.1452 17.037 38.7375 17.037C38.3299 17.037 37.9998 16.7243 37.9998 16.3405C37.9998 14.5188 39.5695 13.037 41.4992 13.037C43.43 13.037 44.9998 14.5188 44.9998 16.3405C44.9998 16.7243 44.6696 17.037 44.262 17.037Z" fill="#210049"/>
<path fill-rule="evenodd" clip-rule="evenodd" d="M35.7416 43.037C35.5522 43.037 35.3618 42.9646 35.217 42.8198C34.9274 42.5302 34.9274 42.0603 35.217 41.7707L42.7333 34.2542C43.0229 33.9646 43.4918 33.9646 43.7826 34.2542C44.0722 34.5448 44.0722 35.0137 43.7826 35.3044L36.2662 42.8198C36.1214 42.9646 35.9321 43.037 35.7416 43.037Z" fill="#210049"/>
<path fill-rule="evenodd" clip-rule="evenodd" d="M38.7416 48.037C38.5522 48.037 38.3618 47.9646 38.217 47.8198C37.9274 47.5302 37.9274 47.0603 38.217 46.7696L45.7333 39.2542C46.0229 38.9646 46.4918 38.9646 46.7826 39.2542C47.0722 39.5437 47.0722 40.0137 46.7826 40.3033L39.2662 47.8198C39.1214 47.9646 38.9309 48.037 38.7416 48.037Z" fill="#210049"/>
<path fill-rule="evenodd" clip-rule="evenodd" d="M34.7429 48.037C34.5532 48.037 34.3624 47.9645 34.2174 47.8194C33.9272 47.5293 33.9272 47.0585 34.2174 46.7684L45.731 35.2554C46.02 34.9642 46.4909 34.9642 46.7822 35.2554C47.0723 35.5455 47.0723 36.0163 46.7822 36.3053L35.2685 47.8194C35.1234 47.9645 34.9326 48.037 34.7429 48.037Z" fill="#210049"/>
<path fill-rule="evenodd" clip-rule="evenodd" d="M41.0003 82.4864C40.6966 82.4864 40.4506 82.7334 40.4506 83.037C40.4506 83.3395 40.6966 83.5865 41.0003 83.5865C41.3029 83.5865 41.55 83.3395 41.55 83.037C41.55 82.7334 41.3029 82.4864 41.0003 82.4864ZM41.0003 85.037C39.8977 85.037 38.9998 84.1393 38.9998 83.037C38.9998 81.9336 39.8977 81.037 41.0003 81.037C42.1029 81.037 42.9998 81.9336 42.9998 83.037C42.9998 84.1393 42.1029 85.037 41.0003 85.037Z" fill="#210049"/>
<path fill-rule="evenodd" clip-rule="evenodd" d="M17.9948 55.4443L18.9998 65.8674L17.1726 66.037L16.7001 55.5633L17.9948 55.4443ZM18.2512 52.2869C18.3072 53.0707 17.8701 53.6815 17.2227 53.741C16.5381 53.805 16.0597 53.2773 16.0047 52.4947C15.9506 51.7334 16.3465 51.1057 17.0322 51.0417C17.6992 50.98 18.1982 51.5268 18.2512 52.2869Z" fill="#210049"/>
<path fill-rule="evenodd" clip-rule="evenodd" d="M63.6873 62.3408L66.9749 52.037L68.9998 52.7598L65.1216 62.8509L63.6873 62.3408ZM62.0918 65.192C62.3609 64.4269 63.0832 64.062 63.7997 64.3182C64.5595 64.5882 64.8502 65.3144 64.581 66.0796C64.321 66.8207 63.6339 67.2233 62.8742 66.9522C62.136 66.6892 61.8306 65.9343 62.0918 65.192Z" fill="#210049"/>
</svg>
