<svg width="88" height="88" viewBox="0 0 88 88" fill="none" xmlns="http://www.w3.org/2000/svg">
<mask id="mask0" mask-type="alpha" maskUnits="userSpaceOnUse" x="0" y="0" width="88" height="88">
<path fill-rule="evenodd" clip-rule="evenodd" d="M0 0H87.0366V87.037H0V0Z" fill="white"/>
</mask>
<g mask="url(#mask0)">
<path fill-rule="evenodd" clip-rule="evenodd" d="M20.6949 82.0528L0.548935 30.8918C-1.04206 26.8518 0.942935 22.2858 4.98394 20.6958L56.1449 0.548809C60.1859 -1.04219 64.7509 0.94381 66.3419 4.98381L86.4879 56.1458C88.0789 60.1858 86.0929 64.7508 82.0529 66.3418L30.8919 86.4888C26.8509 88.0788 22.2859 86.0938 20.6949 82.0528Z" fill="#FF598F"/>
</g>
<path fill-rule="evenodd" clip-rule="evenodd" d="M82.9619 47.1311C75.0894 48.9522 66.4827 46.2352 58.9001 49.5964C54.5928 51.5057 51.1195 55.1801 47.3426 58.2314C42.7702 61.9241 37.7468 63.4233 32.108 63.6225C26.029 63.8377 19.9273 63.2436 13.9996 63.7527L15.8654 68.9091C23.0553 68.4205 30.5232 69.683 37.6379 68.5464C41.7097 67.8964 45.4175 66.3045 48.8353 63.7226C53.0585 60.5314 56.7375 56.1488 61.5968 54.3805C69.039 51.6736 77.3648 54.1204 84.9484 52.238L82.9619 47.1311Z" fill="#F84A83"/>
<path fill-rule="evenodd" clip-rule="evenodd" d="M57.6779 41.1897C64.5152 38.3107 72.309 40.0845 78.9707 37.0621L77.0651 32.2812C69.7862 35.8749 60.7175 33.0684 53.5041 37.3018C49.3679 39.7304 45.9632 43.5509 42.1674 46.6481C37.7177 50.2792 32.8393 51.8155 27.2602 51.701C20.8844 51.5716 14.3914 49.7657 7.99963 49.1387L9.99526 54.6014C18.7746 55.652 27.7227 58.5149 36.113 56.0842C44.5044 53.6535 49.7202 44.5416 57.6779 41.1897Z" fill="#F84A83"/>
<path fill-rule="evenodd" clip-rule="evenodd" d="M5.89375 43.791C12.1115 43.7369 18.4652 44.5193 24.5598 43.5446C28.6489 42.8929 32.3716 41.2946 35.8033 38.7009C40.0434 35.4967 43.7373 31.0961 48.6161 29.3206C57.0468 26.2536 66.4388 29.928 74.7671 26.3661L72.7367 21.3232C64.1392 24.8182 54.4703 20.7215 45.9085 24.518C41.584 26.4351 38.0957 30.1246 34.3045 33.1873C29.7127 36.8962 24.67 38.4005 19.0085 38.6004C13.9847 38.7787 8.94499 38.4102 3.99963 38.5572L5.89375 43.791Z" fill="#F84A83"/>
<g clip-path="url(#clip0)">
<path d="M43.7 11.8999V24.4999" stroke="#210049" stroke-width="1.35" stroke-miterlimit="10" stroke-linecap="round"/>
<path d="M54.5 17.2999H43.7V11.8999H54.5L50.9 14.5999L54.5 17.2999Z" stroke="#210049" stroke-width="1.35" stroke-miterlimit="10"/>
<path d="M62.6 64.1L43.7 24.5L24.8 64.1H62.6Z" stroke="#210049" stroke-width="1.53" stroke-miterlimit="10" stroke-linecap="round" stroke-linejoin="round"/>
<path d="M37.49 64.1001L43.79 42.5901H43.88L50.18 64.1001H37.49Z" stroke="#210049" stroke-width="1.35" stroke-miterlimit="10"/>
<path d="M43.7 25.3999L48.2 20.8999" stroke="#210049" stroke-width="1.35" stroke-miterlimit="10" stroke-linecap="round"/>
<path d="M39.2 20.8999L43.7 25.3999" stroke="#210049" stroke-width="1.35" stroke-miterlimit="10" stroke-linecap="round"/>
<path d="M66.2 64.1C66.2 64.1 55.49 29.9 43.7 24.5C43.7 24.5 25.7 63.2 14.9 49.7" stroke="#210049" stroke-width="1.35" stroke-miterlimit="10" stroke-linecap="round"/>
<path d="M66.2 64.1001L69.8 59.6001" stroke="#210049" stroke-width="1.35" stroke-miterlimit="10" stroke-linecap="round"/>
<path d="M37.49 64.1L34.88 54.38C34.25 52.13 35.06 49.7 36.86 48.17L43.79 42.5" stroke="#210049" stroke-width="1.35" stroke-miterlimit="10"/>
<path d="M50.09 64.1L52.7 54.38C53.33 52.13 52.52 49.7 50.72 48.17L43.79 42.5" stroke="#210049" stroke-width="1.35" stroke-miterlimit="10"/>
<path d="M29.3 64.1C29.7971 64.1 30.2 63.6971 30.2 63.2C30.2 62.703 29.7971 62.3 29.3 62.3C28.803 62.3 28.4 62.703 28.4 63.2C28.4 63.6971 28.803 64.1 29.3 64.1Z" fill="#210049"/>
<path d="M32.9 64.1C33.3971 64.1 33.8 63.6971 33.8 63.2C33.8 62.703 33.3971 62.3 32.9 62.3C32.4029 62.3 32 62.703 32 63.2C32 63.6971 32.4029 64.1 32.9 64.1Z" fill="#210049"/>
<path d="M31.1 62.3C31.597 62.3 32 61.8971 32 61.4C32 60.9029 31.597 60.5 31.1 60.5C30.6029 60.5 30.2 60.9029 30.2 61.4C30.2 61.8971 30.6029 62.3 31.1 62.3Z" fill="#210049"/>
<path d="M31.1 58.6999C31.597 58.6999 32 58.297 32 57.7999C32 57.3028 31.597 56.8999 31.1 56.8999C30.6029 56.8999 30.2 57.3028 30.2 57.7999C30.2 58.297 30.6029 58.6999 31.1 58.6999Z" fill="#210049"/>
<path d="M34.7 58.6999C35.1971 58.6999 35.6 58.297 35.6 57.7999C35.6 57.3028 35.1971 56.8999 34.7 56.8999C34.203 56.8999 33.8 57.3028 33.8 57.7999C33.8 58.297 34.203 58.6999 34.7 58.6999Z" fill="#210049"/>
<path d="M32.9 56.9001C33.3971 56.9001 33.8 56.4972 33.8 56.0001C33.8 55.503 33.3971 55.1001 32.9 55.1001C32.4029 55.1001 32 55.503 32 56.0001C32 56.4972 32.4029 56.9001 32.9 56.9001Z" fill="#210049"/>
<path d="M31.1 55.1C31.597 55.1 32 54.6971 32 54.2C32 53.703 31.597 53.3 31.1 53.3C30.6029 53.3 30.2 53.703 30.2 54.2C30.2 54.6971 30.6029 55.1 31.1 55.1Z" fill="#210049"/>
<path d="M29.3 56.9001C29.7971 56.9001 30.2 56.4972 30.2 56.0001C30.2 55.503 29.7971 55.1001 29.3 55.1001C28.803 55.1001 28.4 55.503 28.4 56.0001C28.4 56.4972 28.803 56.9001 29.3 56.9001Z" fill="#210049"/>
<path d="M27.5 62.3C27.997 62.3 28.4 61.8971 28.4 61.4C28.4 60.9029 27.997 60.5 27.5 60.5C27.0029 60.5 26.6 60.9029 26.6 61.4C26.6 61.8971 27.0029 62.3 27.5 62.3Z" fill="#210049"/>
<path d="M34.7 62.3C35.1971 62.3 35.6 61.8971 35.6 61.4C35.6 60.9029 35.1971 60.5 34.7 60.5C34.203 60.5 33.8 60.9029 33.8 61.4C33.8 61.8971 34.203 62.3 34.7 62.3Z" fill="#210049"/>
<path d="M32.9 60.5C33.3971 60.5 33.8 60.097 33.8 59.6C33.8 59.1029 33.3971 58.7 32.9 58.7C32.4029 58.7 32 59.1029 32 59.6C32 60.097 32.4029 60.5 32.9 60.5Z" fill="#210049"/>
<path d="M29.3 60.5C29.7971 60.5 30.2 60.097 30.2 59.6C30.2 59.1029 29.7971 58.7 29.3 58.7C28.803 58.7 28.4 59.1029 28.4 59.6C28.4 60.097 28.803 60.5 29.3 60.5Z" fill="#210049"/>
<path d="M58.1 64.1C58.597 64.1 59 63.6971 59 63.2C59 62.703 58.597 62.3 58.1 62.3C57.6029 62.3 57.2 62.703 57.2 63.2C57.2 63.6971 57.6029 64.1 58.1 64.1Z" fill="#210049"/>
<path d="M54.5 64.1C54.997 64.1 55.4 63.6971 55.4 63.2C55.4 62.703 54.997 62.3 54.5 62.3C54.0029 62.3 53.6 62.703 53.6 63.2C53.6 63.6971 54.0029 64.1 54.5 64.1Z" fill="#210049"/>
<path d="M56.3 62.3C56.7971 62.3 57.2 61.8971 57.2 61.4C57.2 60.9029 56.7971 60.5 56.3 60.5C55.803 60.5 55.4 60.9029 55.4 61.4C55.4 61.8971 55.803 62.3 56.3 62.3Z" fill="#210049"/>
<path d="M56.3 58.6999C56.7971 58.6999 57.2 58.297 57.2 57.7999C57.2 57.3028 56.7971 56.8999 56.3 56.8999C55.803 56.8999 55.4 57.3028 55.4 57.7999C55.4 58.297 55.803 58.6999 56.3 58.6999Z" fill="#210049"/>
<path d="M52.7 58.6999C53.1971 58.6999 53.6 58.297 53.6 57.7999C53.6 57.3028 53.1971 56.8999 52.7 56.8999C52.203 56.8999 51.8 57.3028 51.8 57.7999C51.8 58.297 52.203 58.6999 52.7 58.6999Z" fill="#210049"/>
<path d="M54.5 56.9001C54.997 56.9001 55.4 56.4972 55.4 56.0001C55.4 55.503 54.997 55.1001 54.5 55.1001C54.0029 55.1001 53.6 55.503 53.6 56.0001C53.6 56.4972 54.0029 56.9001 54.5 56.9001Z" fill="#210049"/>
<path d="M56.3 55.1C56.7971 55.1 57.2 54.6971 57.2 54.2C57.2 53.703 56.7971 53.3 56.3 53.3C55.803 53.3 55.4 53.703 55.4 54.2C55.4 54.6971 55.803 55.1 56.3 55.1Z" fill="#210049"/>
<path d="M58.1 56.9001C58.597 56.9001 59 56.4972 59 56.0001C59 55.503 58.597 55.1001 58.1 55.1001C57.6029 55.1001 57.2 55.503 57.2 56.0001C57.2 56.4972 57.6029 56.9001 58.1 56.9001Z" fill="#210049"/>
<path d="M59.9 62.3C60.3971 62.3 60.8 61.8971 60.8 61.4C60.8 60.9029 60.3971 60.5 59.9 60.5C59.4029 60.5 59 60.9029 59 61.4C59 61.8971 59.4029 62.3 59.9 62.3Z" fill="#210049"/>
<path d="M52.7 62.3C53.1971 62.3 53.6 61.8971 53.6 61.4C53.6 60.9029 53.1971 60.5 52.7 60.5C52.203 60.5 51.8 60.9029 51.8 61.4C51.8 61.8971 52.203 62.3 52.7 62.3Z" fill="#210049"/>
<path d="M54.5 60.5C54.997 60.5 55.4 60.097 55.4 59.6C55.4 59.1029 54.997 58.7 54.5 58.7C54.0029 58.7 53.6 59.1029 53.6 59.6C53.6 60.097 54.0029 60.5 54.5 60.5Z" fill="#210049"/>
<path d="M58.1 60.5C58.597 60.5 59 60.097 59 59.6C59 59.1029 58.597 58.7 58.1 58.7C57.6029 58.7 57.2 59.1029 57.2 59.6C57.2 60.097 57.6029 60.5 58.1 60.5Z" fill="#210049"/>
</g>
<defs>
<clipPath id="clip0">
<rect width="56.7" height="54" fill="white" transform="translate(14 11)"/>
</clipPath>
</defs>
</svg>
