<svg width="88" height="88" viewBox="0 0 88 88" fill="none" xmlns="http://www.w3.org/2000/svg">
<path d="M22.0073 81.0919L2.52126 31.8315C1.00778 27.9549 2.89963 23.5111 6.77791 21.9983L56.1551 2.52102C60.0334 1.00823 64.4792 2.89922 65.9927 6.77576L85.4787 56.2253C86.9922 60.1019 85.1004 64.5457 81.2221 66.0585L31.8449 85.4412C27.872 87.0485 23.5208 85.063 22.0073 81.0919Z" fill="#FFDADB"/>
<path d="M81.5057 46.0139C73.8438 47.6213 65.3304 45.3521 57.8577 48.2831C53.601 49.985 50.1957 53.2943 46.6012 56.0362C42.1553 59.3454 37.2365 60.6691 31.7502 60.8582C25.8854 61.0473 19.8315 60.5746 14.0614 61.0473L15.8587 65.6803C22.9531 65.2075 30.1421 66.3421 37.1419 65.3966C41.1148 64.8293 44.8039 63.4111 48.0201 61.0473C52.1821 58.1163 55.7766 54.3343 60.5062 52.6324C67.7899 50.1741 75.9248 52.3488 83.3976 50.7414L81.5057 46.0139Z" fill="#FFB3B6"/>
<path d="M36.1015 53.6725C44.331 51.4978 49.3444 43.272 57.0064 40.2464C63.6279 37.599 71.2898 39.3009 77.7221 36.4644L76.0194 31.926C69.0196 35.2353 60.0333 32.8715 53.0335 36.6535C48.966 38.8282 45.6553 42.232 42.0608 45.0684C37.7096 48.3777 32.9799 49.7014 27.5882 49.6068C21.4397 49.5123 15.0074 47.9049 8.85889 47.3376L10.7507 52.2542C19.1695 53.1997 27.8719 55.8471 36.1015 53.6725Z" fill="#FFB3B6"/>
<path d="M6.77833 42.2318C12.8322 42.2318 19.0753 42.8937 24.9401 42.0427C28.9129 41.4754 32.602 40.0572 35.8182 37.6934C39.9802 34.7624 43.5748 30.9804 48.3044 29.2785C56.5339 26.5366 65.8985 29.6567 73.9389 26.442L72.1416 21.8091C63.7229 24.9292 53.9799 21.5254 45.6558 24.9292C41.3991 26.6311 37.9938 29.9404 34.3993 32.6823C29.9535 35.9916 25.0347 37.3152 19.5483 37.5043C14.6295 37.6934 9.80529 37.3152 4.98108 37.5043L6.77833 42.2318Z" fill="#FFB3B6"/>
<path d="M45 45.5L45 25C45 22.7909 46.7909 21 49 21H67C69.2091 21 71 22.7909 71 25V65C71 67.2091 69.2091 69 67 69H49C46.7909 69 45 67.2091 45 65L45 53.5" stroke="#210049" stroke-width="2"/>
<rect x="57.674" y="25.5" width="4.0669" height="6" rx="1.5" stroke="#210049"/>
<path d="M64.2676 29.2802C64.4841 29.0398 64.6038 28.7293 64.6038 28.4076C64.6038 28.086 64.4841 27.7755 64.2676 27.535" stroke="#210049" stroke-linecap="round" stroke-linejoin="round"/>
<path d="M65.3816 29.9075C65.7851 29.4817 66.0095 28.9205 66.0095 28.3375C66.0095 27.7545 65.7851 27.1933 65.3816 26.7675" stroke="#210049" stroke-linecap="round" stroke-linejoin="round"/>
<path d="M66.7873 30.3794C67.3321 29.7767 67.6332 28.9973 67.6332 28.1897C67.6332 27.3821 67.3321 26.6027 66.7873 26" stroke="#210049" stroke-linecap="round" stroke-linejoin="round"/>
<circle cx="20" cy="55" r="2.5" stroke="#210049"/>
<circle r="2.5" transform="matrix(1 0 0 -1 20 33)" stroke="#210049"/>
<circle cx="35" cy="44" r="1.5" stroke="#210049"/>
<path d="M45 42.3566L25.811 53.5001C25.9344 53.9795 26 54.4821 26 55.0001C26 58.3138 23.3137 61 20 61C16.6863 61 14 58.3138 14 55.0001C14 51.6863 16.6863 49.0001 20 49.0001C20.8922 49.0001 21.7389 49.1948 22.5 49.5441C27.9447 44.4097 35.7687 38.4698 45 34.3018" stroke="#210049" stroke-width="2" stroke-linejoin="round"/>
<path d="M28.8564 43.8834C26.487 42.0487 24.3554 40.2056 22.5 38.4559C21.7389 38.8052 20.8922 39 20 39C16.6863 39 14 36.3137 14 33C14 29.6863 16.6863 27 20 27C23.3137 27 26 29.6863 26 33C26 33.5179 25.9344 34.0206 25.811 34.5L34.7139 39.6701M34.6431 48C43.8532 53.9963 55.4763 59 68 59L42.2307 44.0353" stroke="#210049" stroke-width="2" stroke-linejoin="round"/>
</svg>
