<svg width="32" height="32" viewBox="0 0 32 32" fill="none" xmlns="http://www.w3.org/2000/svg">
  <path d="M25.2974 7.6925C22.398 6.51125 19.3555 6 15.9999 6C12.6442 6 9.36862 6.5625 6.69362 7.6675C6.18862 7.87375 5.73987 8.23 6.06425 8.88625C6.32737 9.41937 12.6874 23.4375 15.1036 28.4375C15.185 28.6064 15.3124 28.7489 15.4712 28.8487C15.6299 28.9484 15.8136 29.0013 16.0011 29.0013C16.1886 29.0013 16.3723 28.9484 16.5311 28.8487C16.6898 28.7489 16.8172 28.6064 16.8986 28.4375L25.9017 8.92375C26.1011 8.4925 25.958 7.96125 25.2974 7.6925Z" stroke="#4376FF" stroke-width="1.5" stroke-miterlimit="10"/>
  <path d="M27.2738 5.1675C24.0194 3.88 20.0107 3 16 3C11.9894 3 8.04065 3.79875 4.71753 5.13C4.4244 5.25 3.87503 5.52688 4.02565 5.99251L4.63065 7.50001C4.88065 8.01251 5.17253 8.01251 5.5719 8.01251C5.68378 8.01251 5.84003 7.95001 6.0269 7.87626C9.20708 6.641 12.5884 6.00487 16 6.00001C19.5475 6.00001 23.1819 6.75001 25.975 7.87501C26.1994 7.96251 26.3244 8.01126 26.43 8.01126C26.8413 8.01126 27.0788 8.14813 27.3675 7.50501L27.9782 6.00001C28.1038 5.625 27.6663 5.32375 27.2738 5.1675Z" stroke="#4376FF" stroke-width="1.5" stroke-miterlimit="10"/>
  <path d="M12 14C13.1046 14 14 13.1046 14 12C14 10.8954 13.1046 10 12 10C10.8954 10 10 10.8954 10 12C10 13.1046 10.8954 14 12 14Z" fill="#4376FF"/>
  <path d="M20 15C21.1046 15 22 14.1046 22 13C22 11.8954 21.1046 11 20 11C18.8954 11 18 11.8954 18 13C18 14.1046 18.8954 15 20 15Z" fill="#4376FF"/>
  <path d="M16 22C17.1046 22 18 21.1046 18 20C18 18.8954 17.1046 18 16 18C14.8954 18 14 18.8954 14 20C14 21.1046 14.8954 22 16 22Z" fill="#4376FF"/>
</svg>
