<svg width="56" height="56" viewBox="0 0 56 56" fill="none" xmlns="http://www.w3.org/2000/svg">
  <path d="M41.2222 18.6667V10.2222C41.2222 8.01308 39.4314 6.22222 37.2222 6.22222H18.7778C16.5686 6.22222 14.7778 8.01308 14.7778 10.2222V18.6667" stroke="#210049" stroke-width="2" stroke-linejoin="round"/>
  <path d="M10.8889 22.6667C10.8889 20.4575 12.6797 18.6667 14.8889 18.6667H41.1111C43.3202 18.6667 45.1111 20.4575 45.1111 22.6667V33.7778C45.1111 42.6143 37.9477 49.7778 29.1111 49.7778H26.8889C18.0523 49.7778 10.8889 42.6143 10.8889 33.7778V22.6667Z" stroke="#210049" stroke-width="2"/>
  <path d="M20.2222 10.1111C20.2222 10.9708 19.5257 11.6667 18.6671 11.6667C17.8077 11.6667 17.1111 10.9708 17.1111 10.1111C17.1111 9.25141 17.8077 8.55556 18.6671 8.55556C19.5257 8.55556 20.2222 9.25141 20.2222 10.1111" stroke="#210049"/>
  <path d="M18.6678 18.6667V14C20.8141 14 22.5556 12.2604 22.5556 10.1111H33.4445C33.4445 12.2604 35.1859 14 37.3345 14V18.6667" stroke="#210049" stroke-linejoin="round"/>
  <path d="M38.8889 10.1111C38.8889 10.9708 38.1923 11.6667 37.3338 11.6667C36.4743 11.6667 35.7778 10.9708 35.7778 10.1111C35.7778 9.25141 36.4743 8.55556 37.3338 8.55556C38.1923 8.55556 38.8889 9.25141 38.8889 10.1111" stroke="#210049"/>
  <path d="M10.8889 23.3333H45.1111" stroke="#210049" stroke-linecap="round" stroke-dasharray="3.11 3.11"/>
  </svg>
