<svg width="88" height="88" viewBox="0 0 88 88" fill="none" xmlns="http://www.w3.org/2000/svg">
<path d="M22.0073 81.0919L2.52126 31.8315C1.00778 27.9549 2.89963 23.5111 6.77791 21.9983L56.1551 2.52102C60.0334 1.00823 64.4792 2.89922 65.9927 6.77576L85.4787 56.2253C86.9922 60.1019 85.1004 64.5457 81.2221 66.0585L31.8449 85.4412C27.872 87.0485 23.5208 85.063 22.0073 81.0919Z" fill="#FFF69F"/>
<path d="M81.5057 46.0139C73.8438 47.6213 65.3304 45.3521 57.8577 48.2831C53.601 49.985 50.1957 53.2943 46.6012 56.0362C42.1553 59.3454 37.2365 60.6691 31.7502 60.8582C25.8854 61.0473 19.8315 60.5746 14.0614 61.0473L15.8587 65.6803C22.9531 65.2075 30.1421 66.3421 37.1419 65.3966C41.1148 64.8293 44.8039 63.4111 48.0201 61.0473C52.1821 58.1163 55.7766 54.3343 60.5062 52.6324C67.7899 50.1741 75.9248 52.3488 83.3976 50.7414L81.5057 46.0139Z" fill="#FFEF57"/>
<path d="M36.1015 53.6725C44.331 51.4978 49.3444 43.272 57.0064 40.2464C63.6279 37.599 71.2898 39.3009 77.7221 36.4644L76.0194 31.926C69.0196 35.2353 60.0333 32.8715 53.0335 36.6535C48.966 38.8282 45.6553 42.232 42.0608 45.0684C37.7096 48.3777 32.9799 49.7014 27.5882 49.6068C21.4397 49.5123 15.0074 47.9049 8.85889 47.3376L10.7507 52.2542C19.1695 53.1997 27.8719 55.8471 36.1015 53.6725Z" fill="#FFEF57"/>
<path d="M6.77833 42.2318C12.8322 42.2318 19.0753 42.8937 24.9401 42.0427C28.9129 41.4754 32.602 40.0572 35.8182 37.6934C39.9802 34.7624 43.5748 30.9804 48.3044 29.2785C56.5339 26.5366 65.8985 29.6567 73.9389 26.442L72.1416 21.8091C63.7229 24.9292 53.9799 21.5254 45.6558 24.9292C41.3991 26.6311 37.9938 29.9404 34.3993 32.6823C29.9535 35.9916 25.0347 37.3152 19.5483 37.5043C14.6295 37.6934 9.80529 37.3152 4.98108 37.5043L6.77833 42.2318Z" fill="#FFEF57"/>
<path d="M40.527 17.0777C42.0626 14.3904 45.9374 14.3904 47.473 17.0777L53.8919 28.3108C55.2734 30.7284 56 33.4646 56 36.249V64C56 66.2091 54.2091 68 52 68H36C33.7909 68 32 66.2091 32 64V36.249C32 33.4646 32.7266 30.7284 34.1081 28.3108L40.527 17.0777Z" stroke="#210049" stroke-width="2"/>
<path d="M22 66H32V50L20.8906 57.4063C20.3342 57.7772 20 58.4017 20 59.0704V64C20 65.1046 20.8954 66 22 66Z" stroke="#210049" stroke-width="2"/>
<path d="M66 66H56V50L67.1094 57.4063C67.6658 57.7772 68 58.4017 68 59.0704V64C68 65.1046 67.1046 66 66 66Z" stroke="#210049" stroke-width="2"/>
<path d="M36 68H52V70C52 71.1046 51.1046 72 50 72H38C36.8954 72 36 71.1046 36 70V68Z" stroke="#210049" stroke-width="2"/>
<path d="M44 74V77" stroke="#210049" stroke-linecap="round"/>
<path d="M40 74V76" stroke="#210049" stroke-linecap="round"/>
<path d="M48 74V76" stroke="#210049" stroke-linecap="round"/>
<circle cx="44" cy="36" r="6" stroke="#210049" stroke-linecap="round"/>
<path d="M38 22H50" stroke="#210049" stroke-linecap="round"/>
<path d="M46 68V53C46 51.8954 45.1046 51 44 51V51C42.8954 51 42 51.8954 42 53V68" stroke="#210049" stroke-linecap="round"/>
</svg>
