<svg width="56" height="56" viewBox="0 0 56 56" fill="none" xmlns="http://www.w3.org/2000/svg">
<rect x="15.5557" y="24.1111" width="12.4444" height="6.22222" stroke="#210049"/>
<rect x="28" y="24.1111" width="12.4444" height="6.22222" stroke="#210049"/>
<path d="M5.11108 33.4445H15.5555V21L4.21666 26.6694C3.53909 27.0082 3.11108 27.7008 3.11108 28.4583V31.4445C3.11108 32.549 4.00651 33.4445 5.11108 33.4445Z" stroke="#210049" stroke-width="2"/>
<path d="M50.8889 33.4445H40.4445V21L51.7833 26.6694C52.4609 27.0082 52.8889 27.7008 52.8889 28.4583V31.4445C52.8889 32.549 51.9935 33.4445 50.8889 33.4445Z" stroke="#210049" stroke-width="2"/>
<path d="M15.5557 13.2222C15.5557 9.78578 18.3414 7 21.7779 7V7C25.2143 7 28.0001 9.78579 28.0001 13.2222V38.1111H17.5557C16.4511 38.1111 15.5557 37.2157 15.5557 36.1111V13.2222Z" stroke="#210049" stroke-width="2"/>
<path d="M28 13.2222C28 9.78578 30.7858 7 34.2222 7V7C37.6587 7 40.4444 9.78579 40.4444 13.2222V36.1111C40.4444 37.2157 39.549 38.1111 38.4444 38.1111H28V13.2222Z" stroke="#210049" stroke-width="2"/>
<path d="M18.6667 38.1111H24.889V39.2223C24.889 40.3268 23.9935 41.2223 22.889 41.2223H20.6667C19.5622 41.2223 18.6667 40.3268 18.6667 39.2223V38.1111Z" stroke="#210049" stroke-width="2"/>
<path d="M21.7776 42.7778V47.4444" stroke="#210049" stroke-linecap="round"/>
<path d="M19.4443 42.7778V45.8889" stroke="#210049" stroke-linecap="round"/>
<path d="M24.1111 42.7778V45.8889" stroke="#210049" stroke-linecap="round"/>
<path d="M34.2222 42.7778V47.4444" stroke="#210049" stroke-linecap="round"/>
<path d="M31.8889 42.7778V45.8889" stroke="#210049" stroke-linecap="round"/>
<path d="M36.5557 42.7778V45.8889" stroke="#210049" stroke-linecap="round"/>
<path d="M31.1111 38.1111H37.3333V39.2223C37.3333 40.3268 36.4379 41.2223 35.3333 41.2223H33.1111C32.0065 41.2223 31.1111 40.3268 31.1111 39.2223V38.1111Z" stroke="#210049" stroke-width="2"/>
</svg>
