<svg width="53" height="53" viewBox="0 0 53 53" fill="none" xmlns="http://www.w3.org/2000/svg">
<circle cx="26.5" cy="26.5" r="26.5" fill="white" fill-opacity="0.6"/>
<circle cx="27" cy="26" r="21" fill="#240550"/>
<path d="M27 5C15.4021 5 6 14.4021 6 26C6 37.5979 15.4021 47 27 47C38.5979 47 48 37.5979 48 26C47.987 14.4076 38.5924 5.01299 27 5ZM27 45.6C16.1753 45.6 7.4 36.8247 7.4 26C7.4 15.1753 16.1753 6.4 27 6.4C37.8247 6.4 46.6 15.1753 46.6 26C46.5877 36.8196 37.8196 45.5877 27 45.6Z" fill="#80EBE3"/>
<path d="M25.8513 15.7236H17.4258C17.038 15.7236 16.7236 16.038 16.7236 16.4258V24.8513C16.7236 25.239 17.038 25.5534 17.4258 25.5534H25.8513C26.239 25.5534 26.5534 25.239 26.5534 24.8513V16.4258C26.5534 16.038 26.239 15.7236 25.8513 15.7236ZM25.1492 24.1492H18.1279V17.1279H25.1492V24.1492Z" fill="#80EBE3"/>
<path d="M20.149 22.8724H23.1277C23.5389 22.8724 23.8724 22.5389 23.8724 22.1277V19.149C23.8724 18.7377 23.5389 18.4043 23.1277 18.4043H20.149C19.7377 18.4043 19.4043 18.7377 19.4043 19.149V22.1277C19.4043 22.5389 19.7377 22.8724 20.149 22.8724ZM20.8937 19.8937H22.383V21.383H20.8937V19.8937Z" fill="#80EBE3"/>
<path d="M25.8513 26.4473H17.4258C17.038 26.4473 16.7236 26.7616 16.7236 27.1494V35.5749C16.7236 35.9627 17.038 36.2771 17.4258 36.2771H25.8513C26.239 36.2771 26.5534 35.9627 26.5534 35.5749V27.1494C26.5534 26.7616 26.239 26.4473 25.8513 26.4473ZM25.1492 34.8728H18.1279V27.8515H25.1492V34.8728Z" fill="#80EBE3"/>
<path d="M20.149 33.596H23.1277C23.5389 33.596 23.8724 33.2626 23.8724 32.8513V29.8726C23.8724 29.4614 23.5389 29.1279 23.1277 29.1279H20.149C19.7377 29.1279 19.4043 29.4614 19.4043 29.8726V32.8513C19.4043 33.2626 19.7377 33.596 20.149 33.596ZM20.8937 30.6173H22.383V32.1067H20.8937V30.6173Z" fill="#80EBE3"/>
<path d="M36.5744 15.7236H28.1489C27.7612 15.7236 27.4468 16.038 27.4468 16.4258V22.0428H28.851V17.1279H35.8723V24.1492H28.851V23.447H27.4468V24.8513C27.4468 25.239 27.7612 25.5534 28.1489 25.5534H36.5744C36.9622 25.5534 37.2766 25.239 37.2766 24.8513V16.4258C37.2766 16.038 36.9622 15.7236 36.5744 15.7236Z" fill="#80EBE3"/>
<path d="M33.8508 22.8724C34.2621 22.8724 34.5955 22.5389 34.5955 22.1277V19.149C34.5955 18.7377 34.2621 18.4043 33.8508 18.4043H30.8721C30.4609 18.4043 30.1274 18.7377 30.1274 19.149V22.1277C30.1274 22.5389 30.4609 22.8724 30.8721 22.8724H33.8508ZM31.6168 19.8937H33.1062V21.383H31.6168V19.8937Z" fill="#80EBE3"/>
<path d="M28.8766 27.8771H31.0212V26.4473H28.1617C27.7669 26.4473 27.4468 26.7674 27.4468 27.1622V30.0217H28.8766V27.8771Z" fill="#80EBE3"/>
<path d="M32.9202 30.915H28.2287C27.7969 30.915 27.4468 31.2151 27.4468 31.5853V35.6065C27.4468 35.9767 27.7969 36.2767 28.2287 36.2767H32.9202C33.352 36.2767 33.7021 35.9767 33.7021 35.6065V31.5853C33.7021 31.2151 33.352 30.915 32.9202 30.915ZM32.1383 34.9363H29.0106V32.2555H32.1383V34.9363Z" fill="#80EBE3"/>
<path d="M36.6384 26.4473H32.8086V27.7877H36.0001V29.1281H37.2767V27.1175C37.2767 26.7474 36.9909 26.4473 36.6384 26.4473Z" fill="#80EBE3"/>
<path d="M36.5617 30.0215H34.417V31.4116H35.8468V34.8867H33.7021V36.2768H36.5617C36.9565 36.2768 37.2766 35.9656 37.2766 35.5818V30.7165C37.2766 30.3327 36.9565 30.0215 36.5617 30.0215Z" fill="#80EBE3"/>
<path d="M30.1274 29.1279H33.7019V30.0215H30.1274V29.1279Z" fill="#80EBE3"/>
</svg>
