<svg width="48" height="48" viewBox="0 0 48 48" fill="none" xmlns="http://www.w3.org/2000/svg">
  <path fill-rule="evenodd" clip-rule="evenodd" d="M21.6218 45.0152L2.98481 26.3782C1.67173 25.0651 1.67173 22.9357 2.98481 21.6227L21.6218 2.98481C22.9349 1.67173 25.0643 1.67173 26.3773 2.98481L45.0152 21.6227C46.3283 22.9357 46.3283 25.0651 45.0152 26.3782L26.3773 45.0152C25.0643 46.3283 22.9349 46.3283 21.6218 45.0152Z" fill="#D9F5EC"/>
  <path d="M19.5 27.75V14.25L21 15L22.5 14.25L23.9972 15L25.5145 14.25L27 15L28.4902 14.25L29.9869 15L31.5 14.25L33.0005 15L34.5 14.25V24.75" stroke="#210049" stroke-width="1.5" stroke-linejoin="round"/>
  <path d="M34.5002 24.75V30C34.5002 30.9946 34.1051 31.9484 33.4018 32.6517C32.6985 33.3549 31.7447 33.75 30.7502 33.75V33.75C29.7556 33.75 28.8018 33.3549 28.0985 32.6517C27.3952 31.9484 27.0002 30.9946 27.0002 30V27.75H14.2502C14.1514 27.7491 14.0535 27.7679 13.9621 27.8053C13.8707 27.8427 13.7877 27.8979 13.7179 27.9677C13.6481 28.0375 13.5928 28.1206 13.5555 28.212C13.5181 28.3033 13.4993 28.4013 13.5002 28.5C13.5002 31.5 13.8161 33.75 17.2502 33.75H30.7502" stroke="#210049" stroke-width="1.5" stroke-linejoin="round"/>
  <path d="M22.5 18.75H31.5" stroke="#210049" stroke-width="1.5" stroke-linecap="round" stroke-linejoin="round"/>
  <path d="M25.5 22.5H31.5" stroke="#210049" stroke-width="1.5" stroke-linecap="round" stroke-linejoin="round"/>
</svg>
