<svg width="88" height="88" viewBox="0 0 88 88" fill="none" xmlns="http://www.w3.org/2000/svg">
<path d="M22.0073 81.0919L2.52126 31.8315C1.00778 27.9549 2.89963 23.5111 6.77791 21.9983L56.1551 2.52102C60.0334 1.00823 64.4792 2.89922 65.9927 6.77576L85.4787 56.2253C86.9922 60.1019 85.1004 64.5457 81.2221 66.0585L31.8449 85.4412C27.872 87.0485 23.5208 85.063 22.0073 81.0919Z" fill="#FFD5E3"/>
<path d="M81.5059 46.0137C73.8439 47.621 65.3306 45.3518 57.8578 48.2829C53.6011 49.9848 50.1958 53.294 46.6013 56.036C42.1554 59.3452 37.2366 60.6689 31.7503 60.858C25.8856 61.0471 19.8317 60.5743 14.0615 61.0471L15.8588 65.68C22.9532 65.2073 30.1422 66.3419 37.1421 65.3964C41.1149 64.8291 44.804 63.4108 48.0202 61.0471C52.1822 58.116 55.7767 54.3341 60.5064 52.6322C67.79 50.1739 75.9249 52.3485 83.3977 50.7412L81.5059 46.0137Z" fill="#FFACC7"/>
<path d="M36.102 53.6722C44.3315 51.4976 49.3449 43.2718 57.0069 40.2462C63.6283 37.5988 71.2903 39.3007 77.7226 36.4642L76.0199 31.9258C69.0201 35.235 60.0338 32.8713 53.034 36.6533C48.9665 38.8279 45.6558 42.2317 42.0613 45.0682C37.71 48.3774 32.9804 49.7011 27.5887 49.6066C21.4402 49.512 15.0079 47.9047 8.85938 47.3374L10.7512 52.254C19.1699 53.1995 27.8724 55.8469 36.102 53.6722Z" fill="#FFACC7"/>
<path d="M6.7787 42.2318C12.8326 42.2318 19.0757 42.8937 24.9404 42.0427C28.9133 41.4754 32.6024 40.0572 35.8185 37.6934C39.9806 34.7624 43.5751 30.9804 48.3047 29.2785C56.5343 26.5366 65.8989 29.6567 73.9393 26.442L72.142 21.8091C63.7233 24.9292 53.9803 21.5254 45.6562 24.9292C41.3995 26.6311 37.9942 29.9404 34.3997 32.6823C29.9538 35.9916 25.035 37.3152 19.5487 37.5043C14.6299 37.6934 9.80565 37.3152 4.98145 37.5043L6.7787 42.2318Z" fill="#FFACC7"/>
<rect x="28" y="11" width="32" height="60" rx="16" stroke="#210049" stroke-width="2"/>
<rect x="32.5" y="15.5" width="23" height="51" rx="11.5" stroke="#210049"/>
<path d="M44 33C47.3137 33 50 30.3137 50 27C50 23.6863 47.3137 21 44 21C40.6863 21 38 23.6863 38 27C38 30.3137 40.6863 33 44 33Z" stroke="#210049" stroke-width="2" stroke-miterlimit="10"/>
<path d="M44 46.5C47.0376 46.5 49.5 44.0376 49.5 41C49.5 37.9624 47.0376 35.5 44 35.5C40.9624 35.5 38.5 37.9624 38.5 41C38.5 44.0376 40.9624 46.5 44 46.5Z" stroke="#210049" stroke-miterlimit="10"/>
<path d="M44 60.5C47.0376 60.5 49.5 58.0376 49.5 55C49.5 51.9624 47.0376 49.5 44 49.5C40.9624 49.5 38.5 51.9624 38.5 55C38.5 58.0376 40.9624 60.5 44 60.5Z" stroke="#210049" stroke-miterlimit="10"/>
<path d="M38 70V75C38 76.1046 38.8954 77 40 77H48C49.1046 77 50 76.1046 50 75V70" stroke="#210049" stroke-width="2"/>
</svg>
