<svg width="48" height="48" viewBox="0 0 48 48" fill="none" xmlns="http://www.w3.org/2000/svg">
<path fill-rule="evenodd" clip-rule="evenodd" d="M21.6218 45.0152L2.98481 26.3782C1.67173 25.0651 1.67173 22.9357 2.98481 21.6227L21.6218 2.98481C22.9349 1.67173 25.0643 1.67173 26.3773 2.98481L45.0152 21.6227C46.3283 22.9357 46.3283 25.0651 45.0152 26.3782L26.3773 45.0152C25.0643 46.3283 22.9349 46.3283 21.6218 45.0152Z" fill="#FFD2EA"/>
<path d="M20.625 24C21.2463 24 21.75 23.4963 21.75 22.875C21.75 22.2537 21.2463 21.75 20.625 21.75C20.0037 21.75 19.5 22.2537 19.5 22.875C19.5 23.4963 20.0037 24 20.625 24Z" fill="#210049"/>
<path d="M24.0001 25.5C26.1291 25.5 27.9198 26.8842 28.4865 28.7733C28.5024 28.8297 28.5049 28.889 28.4937 28.9466C28.4825 29.0041 28.458 29.0582 28.4221 29.1046C28.3863 29.1509 28.34 29.1882 28.2871 29.2135C28.2342 29.2387 28.1762 29.2512 28.1176 29.25H19.8821C19.8237 29.2509 19.7659 29.2381 19.7133 29.2127C19.6607 29.1873 19.6148 29.1499 19.5792 29.1036C19.5436 29.0573 19.5193 29.0033 19.5082 28.946C19.4972 28.8886 19.4997 28.8295 19.5155 28.7733C20.0776 26.8842 21.8687 25.5 24.0001 25.5Z" fill="#210049"/>
<path d="M27.375 24C27.9963 24 28.5 23.4963 28.5 22.875C28.5 22.2537 27.9963 21.75 27.375 21.75C26.7537 21.75 26.25 22.2537 26.25 22.875C26.25 23.4963 26.7537 24 27.375 24Z" fill="#210049"/>
<path d="M24 33.75C29.3848 33.75 33.75 29.3848 33.75 24C33.75 18.6152 29.3848 14.25 24 14.25C18.6152 14.25 14.25 18.6152 14.25 24C14.25 29.3848 18.6152 33.75 24 33.75Z" stroke="#210049" stroke-width="1.5" stroke-miterlimit="10"/>
</svg>
