<svg width="88" height="89" viewBox="0 0 88 89" fill="none" xmlns="http://www.w3.org/2000/svg">
<path d="M22.0073 81.5919L2.52126 32.3315C1.00778 28.4549 2.89963 24.0111 6.77791 22.4983L56.1551 3.02102C60.0334 1.50823 64.4792 3.39922 65.9927 7.27576L85.4787 56.7253C86.9922 60.6019 85.1004 65.0457 81.2221 66.5585L31.8449 85.9412C27.872 87.5485 23.5208 85.563 22.0073 81.5919Z" fill="#FFDADB"/>
<path d="M81.5057 46.5139C73.8438 48.1213 65.3304 45.8521 57.8577 48.7831C53.601 50.485 50.1957 53.7943 46.6012 56.5362C42.1553 59.8454 37.2365 61.1691 31.7502 61.3582C25.8854 61.5473 19.8315 61.0746 14.0614 61.5473L15.8587 66.1803C22.9531 65.7075 30.1421 66.8421 37.1419 65.8966C41.1148 65.3293 44.8039 63.9111 48.0201 61.5473C52.1821 58.6163 55.7766 54.8343 60.5062 53.1324C67.7899 50.6741 75.9248 52.8488 83.3976 51.2414L81.5057 46.5139Z" fill="#FFB3B6"/>
<path d="M36.1015 54.1725C44.331 51.9978 49.3444 43.772 57.0064 40.7464C63.6279 38.099 71.2898 39.8009 77.7221 36.9644L76.0194 32.426C69.0196 35.7353 60.0333 33.3715 53.0335 37.1535C48.966 39.3282 45.6553 42.732 42.0608 45.5684C37.7096 48.8777 32.9799 50.2014 27.5882 50.1068C21.4397 50.0123 15.0074 48.4049 8.85889 47.8376L10.7507 52.7542C19.1695 53.6997 27.8719 56.3471 36.1015 54.1725Z" fill="#FFB3B6"/>
<path d="M6.77833 42.7318C12.8322 42.7318 19.0753 43.3937 24.9401 42.5427C28.9129 41.9754 32.602 40.5572 35.8182 38.1934C39.9802 35.2624 43.5748 31.4804 48.3044 29.7785C56.5339 27.0366 65.8985 30.1567 73.9389 26.942L72.1416 22.3091C63.7229 25.4292 53.9799 22.0254 45.6558 25.4292C41.3991 27.1311 37.9938 30.4404 34.3993 33.1823C29.9535 36.4916 25.0347 37.8152 19.5483 38.0043C14.6295 38.1934 9.80529 37.8152 4.98108 38.0043L6.77833 42.7318Z" fill="#FFB3B6"/>
<g clip-path="url(#clip0)">
<g opacity="0.01">
<g opacity="0.2">
<rect x="8" y="8.5" width="3" height="72.0002" stroke="#210049" stroke-width="0.09375"/>
<rect x="11" y="8.5" width="3" height="72.0003" stroke="#210049" stroke-width="0.09375"/>
<rect x="14" y="8.5" width="3" height="72.0003" stroke="#210049" stroke-width="0.09375"/>
<rect x="17" y="8.5" width="3" height="72.0003" stroke="#210049" stroke-width="0.09375"/>
<rect x="20" y="8.5" width="3" height="72.0003" stroke="#210049" stroke-width="0.09375"/>
<rect x="23" y="8.5" width="3" height="72.0003" stroke="#210049" stroke-width="0.09375"/>
<rect x="26" y="8.5" width="3" height="72.0003" stroke="#210049" stroke-width="0.09375"/>
<rect x="29" y="8.5" width="3" height="72.0003" stroke="#210049" stroke-width="0.09375"/>
<rect x="32" y="8.5" width="3" height="72.0003" stroke="#210049" stroke-width="0.09375"/>
<rect x="35" y="8.5" width="3" height="72.0003" stroke="#210049" stroke-width="0.09375"/>
<rect x="38" y="8.5" width="3" height="72.0003" stroke="#210049" stroke-width="0.09375"/>
<rect x="41" y="8.5" width="3" height="72.0003" stroke="#210049" stroke-width="0.09375"/>
<rect x="44" y="8.5" width="2.99999" height="72.0003" stroke="#210049" stroke-width="0.09375"/>
<rect x="47" y="8.5" width="3" height="72.0003" stroke="#210049" stroke-width="0.09375"/>
<rect x="50" y="8.5" width="2.99999" height="72.0003" stroke="#210049" stroke-width="0.09375"/>
<rect x="53" y="8.5" width="3" height="72.0003" stroke="#210049" stroke-width="0.09375"/>
<rect x="55.9999" y="8.5" width="3" height="72.0003" stroke="#210049" stroke-width="0.09375"/>
<rect x="59" y="8.5" width="2.99999" height="72.0003" stroke="#210049" stroke-width="0.09375"/>
<rect x="62" y="8.5" width="3" height="72.0003" stroke="#210049" stroke-width="0.09375"/>
<rect x="64.9999" y="8.5" width="2.99999" height="72.0003" stroke="#210049" stroke-width="0.09375"/>
<rect x="68" y="8.5" width="2.99999" height="72.0003" stroke="#210049" stroke-width="0.09375"/>
<rect x="71" y="8.5" width="3" height="72.0003" stroke="#210049" stroke-width="0.09375"/>
<rect x="73.9999" y="8.5" width="3" height="72.0003" stroke="#210049" stroke-width="0.09375"/>
<rect x="77" y="8.5" width="3.00001" height="72.0003" stroke="#210049" stroke-width="0.09375"/>
<rect x="8" y="80.501" width="3.00074" height="72" transform="rotate(-90 8 80.501)" stroke="#210049" stroke-width="0.09375"/>
<rect x="8" y="77.5004" width="3" height="72" transform="rotate(-90 8 77.5004)" stroke="#210049" stroke-width="0.09375"/>
<rect x="8" y="74.5002" width="2.99999" height="72" transform="rotate(-90 8 74.5002)" stroke="#210049" stroke-width="0.09375"/>
<rect x="8" y="71.5002" width="2.99999" height="72" transform="rotate(-90 8 71.5002)" stroke="#210049" stroke-width="0.09375"/>
<rect x="8" y="68.4999" width="2.99999" height="72" transform="rotate(-90 8 68.4999)" stroke="#210049" stroke-width="0.09375"/>
<rect x="8" y="65.4999" width="2.99999" height="72" transform="rotate(-90 8 65.4999)" stroke="#210049" stroke-width="0.09375"/>
<rect x="8" y="62.4999" width="3" height="72" transform="rotate(-90 8 62.4999)" stroke="#210049" stroke-width="0.09375"/>
<rect x="8" y="59.4999" width="2.99999" height="72" transform="rotate(-90 8 59.4999)" stroke="#210049" stroke-width="0.09375"/>
<rect x="8" y="56.4999" width="3" height="72" transform="rotate(-90 8 56.4999)" stroke="#210049" stroke-width="0.09375"/>
<rect x="8" y="53.4999" width="2.99999" height="72" transform="rotate(-90 8 53.4999)" stroke="#210049" stroke-width="0.09375"/>
<rect x="8" y="50.4999" width="2.99999" height="72" transform="rotate(-90 8 50.4999)" stroke="#210049" stroke-width="0.09375"/>
<rect x="8" y="47.4999" width="3" height="72" transform="rotate(-90 8 47.4999)" stroke="#210049" stroke-width="0.09375"/>
<rect x="8" y="44.4999" width="2.99999" height="72" transform="rotate(-90 8 44.4999)" stroke="#210049" stroke-width="0.09375"/>
<rect x="8" y="41.5" width="3" height="72" transform="rotate(-90 8 41.5)" stroke="#210049" stroke-width="0.09375"/>
<rect x="8" y="38.5001" width="2.99999" height="72" transform="rotate(-90 8 38.5001)" stroke="#210049" stroke-width="0.09375"/>
<rect x="8" y="35.5001" width="3" height="72" transform="rotate(-90 8 35.5001)" stroke="#210049" stroke-width="0.09375"/>
<rect x="8" y="32.5001" width="3" height="72" transform="rotate(-90 8 32.5001)" stroke="#210049" stroke-width="0.09375"/>
<rect x="8" y="29.5001" width="3" height="72" transform="rotate(-90 8 29.5001)" stroke="#210049" stroke-width="0.09375"/>
<rect x="8" y="26.5001" width="3" height="72" transform="rotate(-90 8 26.5001)" stroke="#210049" stroke-width="0.09375"/>
<rect x="8" y="23.5" width="3" height="72" transform="rotate(-90 8 23.5)" stroke="#210049" stroke-width="0.09375"/>
<rect x="8" y="20.5" width="3" height="72" transform="rotate(-90 8 20.5)" stroke="#210049" stroke-width="0.09375"/>
<rect x="8" y="17.5" width="3" height="72" transform="rotate(-90 8 17.5)" stroke="#210049" stroke-width="0.09375"/>
<rect x="8" y="14.5" width="3" height="72" transform="rotate(-90 8 14.5)" stroke="#210049" stroke-width="0.09375"/>
<rect x="8" y="11.5" width="3" height="72" transform="rotate(-90 8 11.5)" stroke="#210049" stroke-width="0.09375"/>
</g>
<ellipse cx="44" cy="44.5" rx="12" ry="12" stroke="#210049" stroke-width="0.09375"/>
<path d="M8 8.5H80M8 8.5V80.5M8 8.5L80 80.5M80 8.5V80.5M80 8.5L8 80.5M80 80.5H8" stroke="#210049" stroke-width="0.09375"/>
<g style="mix-blend-mode:multiply">
<ellipse cx="43.9999" cy="44.5" rx="29.9999" ry="29.9999" stroke="#F04925" stroke-width="0.09375"/>
</g>
<g style="mix-blend-mode:multiply">
<rect x="14" y="20.5" width="59.9999" height="48" rx="1.3125" stroke="#F04925" stroke-width="0.09375"/>
</g>
<g style="mix-blend-mode:multiply">
<rect x="68" y="14.5001" width="59.9998" height="48" rx="1.3125" transform="rotate(90 68 14.5001)" stroke="#F04925" stroke-width="0.09375"/>
</g>
<g style="mix-blend-mode:multiply">
<rect x="71" y="17.5001" width="53.9998" height="53.9999" rx="1.3125" transform="rotate(90 71 17.5001)" stroke="#F04925" stroke-width="0.09375"/>
</g>
</g>
<path d="M29.5172 35.8103C22.2759 38.7069 17.4483 45.3819 17.4483 52.2241C17.4483 55.6011 18.4681 58.7398 20.2165 61.3492C20.6282 61.9637 20.2109 62.8448 19.4713 62.8448H17.931C16.8646 62.8448 16 63.7094 16 64.7758V64.7758C16 65.8423 16.8645 66.7069 17.931 66.7069H38.4641C41.3666 66.7069 44.126 65.4457 46.0254 63.2511L46.377 62.8448C47.4742 61.5532 49.1348 57.6757 49.7931 56.0862" stroke="#210049" stroke-width="2" stroke-linecap="round"/>
<path d="M66.9433 19.0744L50.3828 54.7645C50.0173 55.5522 49.1833 56.0212 48.3278 55.8723C35.0362 53.5591 30.4586 43.0487 29.64 36.8853C29.5349 36.0936 29.981 35.3486 30.697 34.9949L65.5933 17.7569C66.4396 17.3389 67.3406 18.2182 66.9433 19.0744Z" stroke="#210049" stroke-width="2"/>
<path d="M33.3793 50.2931C32.9655 51.2586 32.0825 52.2241 30.4827 52.2241C28.883 52.2241 28 51.2586 27.5862 50.2931" stroke="#210049" stroke-linecap="round" stroke-linejoin="round"/>
<path d="M23.2271 55.854L26.1179 58.7449" stroke="#210049" stroke-linecap="round"/>
<path d="M26.1179 55.854L23.2271 58.7449" stroke="#210049" stroke-linecap="round"/>
<path d="M33.827 55.854L36.7179 58.7449" stroke="#210049" stroke-linecap="round"/>
<path d="M36.7178 55.854L33.8269 58.7449" stroke="#210049" stroke-linecap="round"/>
<line x1="22.7931" y1="70.5344" x2="66.1724" y2="70.5344" stroke="#210049" stroke-width="2" stroke-linecap="round"/>
<line x1="49.8276" y1="65.7069" x2="71" y2="65.7069" stroke="#210049" stroke-width="2" stroke-linecap="round"/>
<line x1="35.5" y1="34" x2="35.5" y2="48" stroke="#210049" stroke-linecap="round" stroke-dasharray="2 4"/>
<line x1="43.5" y1="29" x2="43.5" y2="54" stroke="#210049" stroke-linecap="round" stroke-dasharray="2 4"/>
<line x1="51.5" y1="26" x2="51.5" y2="52" stroke="#210049" stroke-linecap="round" stroke-dasharray="2 4"/>
<line x1="39.5" y1="32" x2="39.5" y2="52" stroke="#210049" stroke-linecap="round" stroke-dasharray="2 4"/>
<line x1="47.5" y1="27" x2="47.5" y2="55" stroke="#210049" stroke-linecap="round" stroke-dasharray="2 4"/>
<line x1="55.5" y1="24" x2="55.5" y2="43" stroke="#210049" stroke-linecap="round" stroke-dasharray="2 4"/>
<line x1="58.5" y1="22" x2="58.5" y2="38" stroke="#210049" stroke-linecap="round" stroke-dasharray="2 4"/>
<line x1="61.5" y1="21" x2="61.5" y2="30" stroke="#210049" stroke-linecap="round" stroke-dasharray="2 4"/>
</g>
<defs>
<clipPath id="clip0">
<rect width="72" height="72" fill="white" transform="translate(8 8.5)"/>
</clipPath>
</defs>
</svg>
