<svg width="88" height="88" viewBox="0 0 88 88" fill="none" xmlns="http://www.w3.org/2000/svg">
<path d="M22.0073 81.0919L2.52126 31.8315C1.00778 27.9549 2.89963 23.5111 6.77791 21.9983L56.1551 2.52102C60.0334 1.00823 64.4792 2.89922 65.9927 6.77576L85.4787 56.2253C86.9922 60.1019 85.1004 64.5457 81.2221 66.0585L31.8449 85.4412C27.872 87.0485 23.5208 85.063 22.0073 81.0919Z" fill="#D5F4F7"/>
<path d="M81.5057 46.0139C73.8438 47.6213 65.3304 45.3521 57.8577 48.2831C53.601 49.985 50.1957 53.2943 46.6012 56.0362C42.1553 59.3454 37.2365 60.6691 31.7502 60.8582C25.8854 61.0473 19.8315 60.5746 14.0614 61.0473L15.8587 65.6803C22.9531 65.2075 30.1421 66.3421 37.1419 65.3966C41.1148 64.8293 44.8039 63.4111 48.0201 61.0473C52.1821 58.1163 55.7766 54.3343 60.5062 52.6324C67.7899 50.1741 75.9248 52.3488 83.3976 50.7414L81.5057 46.0139Z" fill="#ACEAEF"/>
<path d="M36.1015 53.6725C44.331 51.4978 49.3444 43.272 57.0064 40.2464C63.6279 37.599 71.2898 39.3009 77.7221 36.4644L76.0194 31.926C69.0196 35.2353 60.0333 32.8715 53.0335 36.6535C48.966 38.8282 45.6553 42.232 42.0608 45.0684C37.7096 48.3777 32.9799 49.7014 27.5882 49.6068C21.4397 49.5123 15.0074 47.9049 8.85889 47.3376L10.7507 52.2542C19.1695 53.1997 27.8719 55.8471 36.1015 53.6725Z" fill="#ACEAEF"/>
<path d="M6.77833 42.2318C12.8322 42.2318 19.0753 42.8937 24.9401 42.0427C28.9129 41.4754 32.602 40.0572 35.8182 37.6934C39.9802 34.7624 43.5748 30.9804 48.3044 29.2785C56.5339 26.5366 65.8985 29.6567 73.9389 26.442L72.1416 21.8091C63.7229 24.9292 53.9799 21.5254 45.6558 24.9292C41.3991 26.6311 37.9938 29.9404 34.3993 32.6823C29.9535 35.9916 25.0347 37.3152 19.5483 37.5043C14.6295 37.6934 9.80529 37.3152 4.98108 37.5043L6.77833 42.2318Z" fill="#ACEAEF"/>
<path fill-rule="evenodd" clip-rule="evenodd" d="M43.2606 55.1574V21.5197C43.2606 20.9655 42.5075 20.7974 42.2724 21.2991L23.0508 62.2595C22.8525 62.6819 23.269 63.1305 23.7048 62.9649L42.9264 55.6422C43.1276 55.5657 43.2606 55.3726 43.2606 55.1574V55.1574Z" stroke="#210049" stroke-width="1.16678" stroke-linecap="round" stroke-linejoin="round"/>
<path fill-rule="evenodd" clip-rule="evenodd" d="M45.136 55.1571V21.5194C45.136 20.9652 45.8891 20.7972 46.1242 21.2989L65.3458 62.2593C65.5441 62.6817 65.1276 63.1303 64.6918 62.9646L45.4703 55.6419C45.269 55.5655 45.136 55.3724 45.136 55.1571V55.1571Z" stroke="#210049" stroke-width="1.16678" stroke-linecap="round" stroke-linejoin="round"/>
<path fill-rule="evenodd" clip-rule="evenodd" d="M41.8961 58.0591L43.9596 56.6129C43.9975 56.5861 44.0476 56.5878 44.0832 56.6158L45.9174 58.0609C45.9547 58.0906 45.967 58.1414 45.9477 58.1845L44.316 61.8529C44.2104 62.0886 43.8808 62.1003 43.7583 61.8733L41.8634 58.1915C41.8395 58.1455 41.8535 58.0889 41.8961 58.0591V58.0591Z" stroke="#210049" stroke-width="1.16678" stroke-linecap="round" stroke-linejoin="round"/>
</svg>
