<svg width="26" height="25" viewBox="0 0 26 25" fill="none" xmlns="http://www.w3.org/2000/svg">
<g clip-path="url(#clip0)">
<path d="M13.1878 24.467C17.5696 24.467 21.1218 20.9349 21.1218 16.5778C21.1218 12.2208 17.5696 8.68872 13.1878 8.68872C8.80597 8.68872 5.25378 12.2208 5.25378 16.5778C5.25378 20.9349 8.80597 24.467 13.1878 24.467Z" stroke="#210049" stroke-width="1.9033" stroke-miterlimit="10"/>
<path d="M13.1877 16.8442L18.9238 11.1406" stroke="#210049" stroke-width="1.9033" stroke-miterlimit="10" stroke-linecap="round"/>
<path d="M23.2125 7.78251L25.8393 5.22388" stroke="#210049" stroke-width="0.75" stroke-miterlimit="10" stroke-linecap="round"/>
<path d="M19.996 5.75697L22.2475 2.50537" stroke="#210049" stroke-width="0.75" stroke-miterlimit="10" stroke-linecap="round"/>
<path d="M16.5648 4.37107L17.9586 0.746338" stroke="#210049" stroke-width="0.75" stroke-miterlimit="10" stroke-linecap="round"/>
<path d="M12.9197 4.10448V0" stroke="#210049" stroke-width="0.75" stroke-miterlimit="10" stroke-linecap="round"/>
<path d="M9.81025 4.37107L8.25562 0.746338" stroke="#210049" stroke-width="0.75" stroke-miterlimit="10" stroke-linecap="round"/>
<path d="M6.00407 5.75697L3.85974 2.50537" stroke="#210049" stroke-width="0.75" stroke-miterlimit="10" stroke-linecap="round"/>
<path d="M3.21656 8.15565L0.160889 5.22388" stroke="#210049" stroke-width="0.75" stroke-miterlimit="10" stroke-linecap="round"/>
</g>
<defs>
<clipPath id="clip0">
<rect width="26" height="25" fill="white"/>
</clipPath>
</defs>
</svg>
