<svg width="88" height="88" viewBox="0 0 88 88" fill="none" xmlns="http://www.w3.org/2000/svg">
<path d="M22.0073 81.0919L2.52126 31.8315C1.00778 27.9549 2.89963 23.5111 6.77791 21.9983L56.1551 2.52102C60.0334 1.00823 64.4792 2.89922 65.9927 6.77576L85.4787 56.2253C86.9922 60.1019 85.1004 64.5457 81.2221 66.0585L31.8449 85.4412C27.872 87.0485 23.5208 85.063 22.0073 81.0919Z" fill="#D9F5EC"/>
<path d="M81.5057 46.0139C73.8438 47.6213 65.3304 45.3521 57.8577 48.2831C53.601 49.985 50.1957 53.2943 46.6012 56.0362C42.1553 59.3454 37.2365 60.6691 31.7502 60.8582C25.8854 61.0473 19.8315 60.5746 14.0614 61.0473L15.8587 65.6803C22.9531 65.2075 30.1421 66.3421 37.1419 65.3966C41.1148 64.8293 44.8039 63.4111 48.0201 61.0473C52.1821 58.1163 55.7766 54.3343 60.5062 52.6324C67.7899 50.1741 75.9248 52.3488 83.3976 50.7414L81.5057 46.0139Z" fill="#B4EBDA"/>
<path d="M36.1015 53.6725C44.331 51.4978 49.3444 43.272 57.0064 40.2464C63.6279 37.599 71.2898 39.3009 77.7221 36.4644L76.0194 31.926C69.0196 35.2353 60.0333 32.8715 53.0335 36.6535C48.966 38.8282 45.6553 42.232 42.0608 45.0684C37.7096 48.3777 32.9799 49.7014 27.5882 49.6068C21.4397 49.5123 15.0074 47.9049 8.85889 47.3376L10.7507 52.2542C19.1695 53.1997 27.8719 55.8471 36.1015 53.6725Z" fill="#B4EBDA"/>
<path d="M6.77833 42.2318C12.8322 42.2318 19.0753 42.8937 24.9401 42.0427C28.9129 41.4754 32.602 40.0572 35.8182 37.6934C39.9802 34.7624 43.5748 30.9804 48.3044 29.2785C56.5339 26.5366 65.8985 29.6567 73.9389 26.442L72.1416 21.8091C63.7229 24.9292 53.9799 21.5254 45.6558 24.9292C41.3991 26.6311 37.9938 29.9404 34.3993 32.6823C29.9535 35.9916 25.0347 37.3152 19.5483 37.5043C14.6295 37.6934 9.80529 37.3152 4.98108 37.5043L6.77833 42.2318Z" fill="#B4EBDA"/>
<path d="M65.2306 64.6538H22.7691C20.705 64.6538 19.0383 63.0066 19.0383 60.9666V23.7136C19.0383 21.6736 20.705 20.0264 22.7691 20.0264H65.2306C67.2947 20.0264 68.9614 21.6863 68.9614 23.7136V60.9666C68.9742 63.0066 67.2947 64.6538 65.2306 64.6538Z" stroke="#210049" stroke-width="2"/>
<path d="M32.0383 67.9737H22.8588C22.1665 67.9737 21.6152 67.4162 21.6152 66.7446V65.997C21.6152 65.3128 22.1665 64.7679 22.8588 64.7679H32.0383C32.7306 64.7679 33.2819 65.3128 33.2819 65.997V66.7446C33.2819 67.4288 32.7178 67.9737 32.0383 67.9737Z" stroke="#210049" stroke-width="1.5"/>
<path d="M64.6537 67.9737H55.4742C54.7819 67.9737 54.2306 67.4162 54.2306 66.7446V65.997C54.2306 65.3128 54.7819 64.7679 55.4742 64.7679H64.6537C65.346 64.7679 65.8973 65.3128 65.8973 65.997V66.7446C65.8973 67.4288 65.346 67.9737 64.6537 67.9737Z" stroke="#210049" stroke-width="1.5"/>
<path d="M62.9871 60.6372H31.5896H25.0127C23.8845 60.6372 22.9742 59.5728 22.9742 58.255V48.9925V26.7674C22.9742 25.4497 23.8845 24.3853 25.0127 24.3853H57.3588H62.9999C64.1281 24.3853 65.0383 25.4497 65.0383 26.7674V32.6088V58.2424C65.0383 59.5728 64.1153 60.6372 62.9871 60.6372Z" stroke="#210049"/>
<path d="M52 42C52 46.4197 48.4197 50 44 50C39.5803 50 36 46.4197 36 42C36 37.5803 39.5803 34 44 34C48.4197 34 52 37.5803 52 42Z" stroke="#210049" stroke-width="0.682604"/>
<path d="M48 42C48 44.2125 46.2125 46 44 46C41.7875 46 40 44.2125 40 42C40 39.7875 41.7875 38 44 38C46.2125 38 48 39.7984 48 42Z" stroke="#21004A" stroke-width="0.682604"/>
<path fill-rule="evenodd" clip-rule="evenodd" d="M23.846 55.6701H22.2178C21.8845 55.6701 21.6152 55.404 21.6152 55.0745C21.6152 54.7451 21.8845 54.479 22.2178 54.479H23.8332C24.1665 54.479 24.4357 54.7451 24.4357 55.0745C24.4486 55.404 24.1793 55.6701 23.846 55.6701Z" fill="#210049"/>
<path fill-rule="evenodd" clip-rule="evenodd" d="M23.705 30.3406H22.0768C21.7435 30.3406 21.4742 30.0746 21.4742 29.7451C21.4742 29.4157 21.7435 29.1496 22.0768 29.1496H23.6922C24.0255 29.1496 24.2948 29.4157 24.2948 29.7451C24.2948 30.0746 24.0383 30.3406 23.705 30.3406Z" fill="#210049"/>
</svg>
