<svg width="89" height="88" viewBox="0 0 89 88" fill="none" xmlns="http://www.w3.org/2000/svg">
<path d="M22.5073 81.0919L3.02126 31.8315C1.50778 27.9549 3.39963 23.5111 7.27791 21.9983L56.6551 2.52102C60.5334 1.00823 64.9792 2.89922 66.4927 6.77576L85.9787 56.2253C87.4922 60.1019 85.6004 64.5457 81.7221 66.0585L32.3449 85.4412C28.372 87.0485 24.0208 85.063 22.5073 81.0919Z" fill="#FFDADB"/>
<path d="M82.0059 46.0139C74.3439 47.6213 65.8306 45.3521 58.3578 48.2831C54.1011 49.985 50.6958 53.2943 47.1013 56.0362C42.6554 59.3454 37.7366 60.6691 32.2503 60.8582C26.3856 61.0473 20.3317 60.5746 14.5615 61.0473L16.3588 65.6803C23.4532 65.2075 30.6422 66.3421 37.6421 65.3966C41.6149 64.8293 45.304 63.4111 48.5202 61.0473C52.6822 58.1163 56.2767 54.3343 61.0064 52.6324C68.29 50.1741 76.4249 52.3488 83.8977 50.7414L82.0059 46.0139Z" fill="#FFB3B6"/>
<path d="M36.6015 53.6725C44.831 51.4978 49.8444 43.272 57.5064 40.2464C64.1279 37.599 71.7898 39.3009 78.2221 36.4644L76.5194 31.926C69.5196 35.2353 60.5333 32.8715 53.5335 36.6535C49.466 38.8282 46.1553 42.232 42.5608 45.0684C38.2096 48.3777 33.4799 49.7014 28.0882 49.6068C21.9397 49.5123 15.5074 47.9049 9.35889 47.3376L11.2507 52.2542C19.6695 53.1997 28.3719 55.8471 36.6015 53.6725Z" fill="#FFB3B6"/>
<path d="M7.27821 42.2318C13.3321 42.2318 19.5752 42.8937 25.4399 42.0427C29.4128 41.4754 33.1019 40.0572 36.3181 37.6934C40.4801 34.7624 44.0746 30.9804 48.8042 29.2785C57.0338 26.5366 66.3984 29.6567 74.4388 26.442L72.6415 21.8091C64.2228 24.9292 54.4798 21.5254 46.1557 24.9292C41.899 26.6311 38.4937 29.9404 34.8992 32.6823C30.4533 35.9916 25.5345 37.3152 20.0482 37.5043C15.1294 37.6934 10.3052 37.3152 5.48096 37.5043L7.27821 42.2318Z" fill="#FFB3B6"/>
<g clip-path="url(#clip0)">
<path d="M52.0145 29.4023L50.7742 31.6585" stroke="#210049" stroke-linecap="round" stroke-linejoin="round"/>
<path d="M52.0146 29.4023L54.2824 30.6363" stroke="#210049" stroke-linecap="round" stroke-linejoin="round"/>
<path d="M43.0205 40.34C44.2027 40.6166 45.4309 40.6173 46.6134 40.3421C47.796 40.0669 48.9025 39.5229 49.8505 38.7506C50.7985 37.9783 51.5635 36.9976 52.0887 35.8816C52.6138 34.7656 52.8855 33.543 52.8835 32.3049C52.8564 31.4187 52.7051 30.541 52.4341 29.6986" stroke="#210049" stroke-linecap="round" stroke-linejoin="round"/>
<path d="M44.7563 24.4044C43.5781 24.1357 42.3541 24.135 41.1755 24.4022C39.9969 24.6695 38.8942 25.1979 37.9493 25.948C37.0045 26.6981 36.242 27.6506 35.7185 28.7346C35.195 29.8186 34.9242 31.0062 34.926 32.2088C34.9445 33.0568 35.0867 33.8976 35.3483 34.7048" stroke="#210049" stroke-linecap="round" stroke-linejoin="round"/>
<path d="M35.5253 35.0756L33.125 34.1206" stroke="#210049" stroke-linecap="round" stroke-linejoin="round"/>
<path d="M35.5254 35.0756L36.4853 32.6876" stroke="#210049" stroke-linecap="round" stroke-linejoin="round"/>
<path d="M59.4066 28.5539L47.4242 16.6328C45.3695 14.5886 42.0382 14.5886 39.9835 16.6328L28.0011 28.5539C25.9465 30.598 25.9465 33.9123 28.0011 35.9565L39.9835 47.8775C42.0382 49.9217 45.3695 49.9217 47.4242 47.8775L59.4066 35.9565C61.4613 33.9123 61.4613 30.598 59.4066 28.5539Z" stroke="#210049" stroke-width="2" stroke-miterlimit="10" stroke-linecap="round"/>
<path d="M45.9792 49.4247V74.0822H64.719" stroke="#210049" stroke-width="2" stroke-linecap="round" stroke-linejoin="round"/>
<path d="M51.8971 74.0822L48.9382 68.1644" stroke="#210049" stroke-width="1.6" stroke-miterlimit="10" stroke-linecap="round"/>
<path d="M51.8972 74.0822V67.1781" stroke="#210049" stroke-width="1.6" stroke-miterlimit="10" stroke-linecap="round"/>
<path d="M51.8972 74.0822L54.8561 68.1644" stroke="#210049" stroke-width="1.6" stroke-miterlimit="10" stroke-linecap="round"/>
<path d="M33.1575 74.0822H42.0342V49.4247" stroke="#210049" stroke-width="2" stroke-linecap="round" stroke-linejoin="round"/>
<rect x="8.5" y="8" width="72" height="72" fill="white" fill-opacity="0.01"/>
</g>
<defs>
<clipPath id="clip0">
<rect width="72" height="72" fill="white" transform="translate(8.5 8)"/>
</clipPath>
</defs>
</svg>
