<svg width="88" height="88" viewBox="0 0 88 88" fill="none" xmlns="http://www.w3.org/2000/svg">
<path d="M22.0073 81.0919L2.52126 31.8315C1.00778 27.9549 2.89963 23.5111 6.77791 21.9983L56.1551 2.52102C60.0334 1.00823 64.4792 2.89922 65.9927 6.77576L85.4787 56.2253C86.9922 60.1019 85.1004 64.5457 81.2221 66.0585L31.8449 85.4412C27.872 87.0485 23.5208 85.063 22.0073 81.0919Z" fill="#FFF69F"/>
<path d="M81.5059 46.0137C73.8439 47.621 65.3306 45.3518 57.8578 48.2829C53.6011 49.9848 50.1958 53.294 46.6013 56.036C42.1554 59.3452 37.2366 60.6689 31.7503 60.858C25.8856 61.0471 19.8317 60.5743 14.0615 61.0471L15.8588 65.68C22.9532 65.2073 30.1422 66.3419 37.1421 65.3964C41.1149 64.8291 44.804 63.4108 48.0202 61.0471C52.1822 58.116 55.7767 54.3341 60.5064 52.6322C67.79 50.1739 75.9249 52.3485 83.3977 50.7412L81.5059 46.0137Z" fill="#FFEF57"/>
<path d="M36.1015 53.6722C44.331 51.4976 49.3444 43.2718 57.0064 40.2462C63.6279 37.5988 71.2898 39.3007 77.7221 36.4642L76.0194 31.9258C69.0196 35.235 60.0333 32.8713 53.0335 36.6533C48.966 38.8279 45.6553 42.2317 42.0608 45.0682C37.7096 48.3774 32.9799 49.7011 27.5882 49.6066C21.4397 49.512 15.0074 47.9047 8.85889 47.3374L10.7507 52.254C19.1695 53.1995 27.8719 55.8469 36.1015 53.6722Z" fill="#FFEF57"/>
<path d="M6.77821 42.2313C12.8321 42.2313 19.0752 42.8932 24.9399 42.0423C28.9128 41.475 32.6019 40.0567 35.8181 37.693C39.9801 34.7619 43.5746 30.9799 48.3042 29.278C56.5338 26.5361 65.8984 29.6562 73.9388 26.4415L72.1415 21.8086C63.7228 24.9287 53.9798 21.5249 45.6557 24.9287C41.399 26.6306 37.9937 29.9399 34.3992 32.6818C29.9533 35.9911 25.0345 37.3148 19.5482 37.5039C14.6294 37.693 9.80517 37.3148 4.98096 37.5039L6.77821 42.2313Z" fill="#FFEF57"/>
<path d="M36.8329 45.6748L29.0811 43.5977C27.0664 43.0578 24.9955 44.2534 24.4557 46.2681C23.9159 48.2828 25.1115 50.3537 27.1262 50.8935L38.3544 53.9021C41.7179 54.8034 39.3334 57.5855 37.3785 64.8814C35.4236 72.1772 37.309 76.5923 40.0792 77.3346C42.8494 78.0768 44.1264 74.9979 44.9817 71.806C45.837 68.614 46.9366 64.5101 48.4595 62.4745V62.4745C50.6535 59.542 54.6529 58.7794 57.7477 56.821C60.934 54.8048 64.609 51.126 65.4463 44.678C66.618 35.6554 62.9648 29.2178 55.341 27.175L37.6818 22.4432C35.6671 21.9034 33.5962 23.099 33.0564 25.1137C32.5166 27.1284 33.7122 29.1992 35.7269 29.7391L41.1988 31.2052L32.9909 29.006C30.9762 28.4661 28.9054 29.6617 28.3656 31.6764C27.8257 33.6911 29.0213 35.762 31.036 36.3018L39.2438 38.5011L28.3001 35.5687C26.2854 35.0289 24.2145 36.2245 23.6747 38.2392C23.1349 40.2539 24.3305 42.3247 26.3452 42.8646L36.3769 45.5526" stroke="#210049" stroke-width="2" stroke-linecap="round" stroke-linejoin="round"/>
<path d="M22.4004 25.6724V20" stroke="#210049" stroke-linecap="round" stroke-linejoin="round"/>
<path fill-rule="evenodd" clip-rule="evenodd" d="M22.4003 29.1081C22.8464 29.1081 23.2087 28.7467 23.2087 28.2997C23.2087 27.8536 22.8464 27.4912 22.4003 27.4912C21.9541 27.4912 21.5918 27.8536 21.5918 28.2997C21.5918 28.7467 21.9541 29.1081 22.4003 29.1081Z" fill="#210049"/>
<path d="M16.5674 25.6875L18.2055 31.1166" stroke="#210049" stroke-linecap="round" stroke-linejoin="round"/>
<path fill-rule="evenodd" clip-rule="evenodd" d="M15.575 22.3989C15.1483 22.5276 14.9058 22.9781 15.0345 23.4066C15.1641 23.8333 15.6146 24.0748 16.0422 23.9461C16.4689 23.8165 16.7114 23.3669 16.5827 22.9384C16.454 22.5117 16.0026 22.2701 15.575 22.3989Z" fill="#210049"/>
</svg>
