<svg width="32" height="32" viewBox="0 0 32 32" fill="none" xmlns="http://www.w3.org/2000/svg">
<path d="M20 28.635C20 28.635 19 29 16 29C13 29 11.375 28 10 27H6C4.93913 27 3.92172 26.5786 3.17157 25.8284C2.42143 25.0783 2 24.0609 2 23V20C2 18.9391 2.42143 17.9217 3.17157 17.1716C3.92172 16.4214 4.93913 16 6 16H7.875C8.21842 15.9981 8.55569 15.9087 8.85499 15.7403C9.15429 15.5719 9.40574 15.33 9.58562 15.0375C9.58562 15.0375 10.125 13.8631 11.75 11.0487C13.375 8.23438 16.5 4 17 3C18.8125 3 19.6875 4.375 19.125 5.98187C18.4825 7.81875 17.6431 9.38063 17.4088 11.425C17.375 11.7238 17.605 12.175 17.9056 12.175L26 12.8125" stroke="#4376FF" stroke-width="1.5" stroke-linecap="round" stroke-linejoin="round"/>
<path d="M26 16.9375L21 16.8125C19.75 16.6975 19 16.0375 19 14.9375C19 13.8375 19.875 13.135 21 13.0625L26 12.8125C27.1 12.8125 28 13.8375 28 14.9375V14.9481C27.9972 15.4767 27.7852 15.9827 27.4105 16.3555C27.0357 16.7283 26.5286 16.9375 26 16.9375Z" stroke="#4376FF" stroke-width="1.5" stroke-miterlimit="10"/>
<path d="M28 21L21 20.875C19.875 20.8225 19 20.0994 19 19C19 17.8994 19.875 17.1962 21 17.125L28 17C28.5299 17.0016 29.0377 17.2129 29.4124 17.5876C29.7871 17.9623 29.9984 18.4701 30 19V19C29.9984 19.5299 29.7871 20.0377 29.4124 20.4124C29.0377 20.7871 28.5299 20.9984 28 21V21Z" stroke="#4376FF" stroke-width="1.5" stroke-miterlimit="10"/>
<path d="M25 29L21 28.8125C19.6875 28.6975 19 28.1 19 27C19 25.9 19.9 25.125 21 25.125L25 25C25.53 25.0015 26.0378 25.2127 26.4126 25.5874C26.7873 25.9622 26.9985 26.47 27 27V27C26.9985 27.53 26.7873 28.0378 26.4126 28.4126C26.0378 28.7873 25.53 28.9985 25 29V29Z" stroke="#4376FF" stroke-width="1.5" stroke-miterlimit="10"/>
<path d="M27 25L21 24.875C19.8125 24.8225 19 24.1 19 23C19 21.9 19.8125 21.1975 21 21.125L27 21C27.53 21.0015 28.0378 21.2127 28.4126 21.5874C28.7873 21.9622 28.9985 22.47 29 23V23C28.9985 23.53 28.7873 24.0378 28.4126 24.4126C28.0378 24.7873 27.53 24.9985 27 25Z" stroke="#4376FF" stroke-width="1.5" stroke-miterlimit="10"/>
</svg>
