<svg width="48" height="48" viewBox="0 0 48 48" fill="none" xmlns="http://www.w3.org/2000/svg">
<path fill-rule="evenodd" clip-rule="evenodd" d="M21.6218 45.0152L2.98481 26.3782C1.67173 25.0651 1.67173 22.9357 2.98481 21.6227L21.6218 2.98481C22.9349 1.67173 25.0643 1.67173 26.3773 2.98481L45.0152 21.6227C46.3283 22.9357 46.3283 25.0651 45.0152 26.3782L26.3773 45.0152C25.0643 46.3283 22.9349 46.3283 21.6218 45.0152Z" fill="#D9F5EC"/>
<path d="M17.8335 30L20.3335 26.3333" stroke="#210049"/>
<path d="M26.3335 15L23.3335 20" stroke="#210049"/>
<path d="M30.5 17.3333L28 22" stroke="#210049"/>
<path d="M21.8335 32.6666L24.5002 28.3333" stroke="#210049"/>
<path d="M30.4998 17.6667L31.1516 18.0911C32.0386 18.6688 32.3219 19.8377 31.7977 20.7574L25.2721 32.2069C24.737 33.1459 23.5527 33.4899 22.5979 32.9837L21.9998 32.6667" stroke="#210049" stroke-miterlimit="10" stroke-linecap="round" stroke-linejoin="round"/>
<path d="M17.6665 30L17.2042 29.7576C16.2016 29.2319 15.8348 27.9796 16.3953 26.996L22.7818 15.7905C23.3353 14.8194 24.5773 14.4904 25.539 15.0603L25.9998 15.3334" stroke="#210049" stroke-miterlimit="10" stroke-linecap="round" stroke-linejoin="round"/>
<path d="M21.9998 32.6667L21.7878 32.9913C21.595 33.2865 21.2058 33.3805 20.8995 33.206L17.6487 31.3532C17.3234 31.1678 17.2145 30.7509 17.4076 30.4302L17.6665 30" stroke="#210049" stroke-miterlimit="10" stroke-linecap="round" stroke-linejoin="round"/>
<path d="M25.9998 15.3334L26.0351 15.2743C26.2211 14.9626 26.6223 14.8571 26.9376 15.0368L30.2886 16.9467C30.5414 17.0907 30.6347 17.409 30.4998 17.6667" stroke="#210049" stroke-miterlimit="10" stroke-linecap="round" stroke-linejoin="round"/>
<path d="M22.2576 19.8619L20.7149 18.9826L21.2749 18L23.4695 19.2508" stroke="#210049" stroke-width="0.5" stroke-miterlimit="10" stroke-linecap="round" stroke-linejoin="round"/>
<path d="M27.8525 21.7485L30.1847 23.0777L29.6246 24.0604L28.1081 23.196" stroke="#210049" stroke-width="0.5" stroke-miterlimit="10" stroke-linecap="round" stroke-linejoin="round"/>
<path d="M25.0238 28.4845C24.9038 28.4161 24.7511 28.4579 24.6828 28.5779C24.6144 28.6978 24.6562 28.8505 24.7762 28.9189L25.0238 28.4845ZM26.4689 29.5959L26.6861 29.7197C26.7545 29.5997 26.7127 29.447 26.5927 29.3787L26.4689 29.5959ZM25.9089 30.5785L25.7862 30.7963C25.906 30.8639 26.0579 30.8218 26.1261 30.7023L25.9089 30.5785ZM24.7762 28.9189L26.3451 29.8131L26.5927 29.3787L25.0238 28.4845L24.7762 28.9189ZM26.2517 29.4721L25.6917 30.4547L26.1261 30.7023L26.6861 29.7197L26.2517 29.4721ZM26.0316 30.3607L23.6848 29.0388L23.4394 29.4744L25.7862 30.7963L26.0316 30.3607Z" fill="#210049"/>
<path d="M19.5626 26.9232L17 25.5007L17.5601 24.5181L20 26" stroke="#210049" stroke-width="0.5" stroke-miterlimit="10" stroke-linecap="round" stroke-linejoin="round"/>
<path d="M27.6171 26.0556C26.4908 28.0317 23.9759 28.7207 21.9998 27.5944C20.0237 26.4681 19.3347 23.9532 20.461 21.9771C21.5873 20.001 24.1022 19.312 26.0783 20.4383C28.0544 21.5646 28.7434 24.0795 27.6171 26.0556Z" stroke="#210049" stroke-miterlimit="10" stroke-linecap="round" stroke-linejoin="round"/>
<path d="M25.2148 21.8919L23.9753 24.0668L25.3117 24.8285" stroke="#210049" stroke-width="0.5" stroke-miterlimit="10" stroke-linecap="round" stroke-linejoin="round"/>
</svg>
