<svg width="48" height="48" viewBox="0 0 48 48" fill="none" xmlns="http://www.w3.org/2000/svg">
<path fill-rule="evenodd" clip-rule="evenodd" d="M21.6218 45.0152L2.98481 26.3782C1.67173 25.0651 1.67173 22.9357 2.98481 21.6227L21.6218 2.98481C22.9349 1.67173 25.0643 1.67173 26.3773 2.98481L45.0152 21.6227C46.3283 22.9357 46.3283 25.0651 45.0152 26.3782L26.3773 45.0152C25.0643 46.3283 22.9349 46.3283 21.6218 45.0152Z" fill="#FFDADB"/>
<path d="M24 31.3624V16.6029C24 16.6029 26.2315 13.7463 28.0911 16.6029C28.0911 16.6029 30.0126 17.1386 29.7647 19.043C29.7647 19.043 31.9962 19.7572 31.0044 22.2568C31.0044 22.2568 32.864 23.209 31.5003 25.5896C31.5003 25.5896 32.74 26.8989 31.2523 28.4463C31.2523 28.4463 31.6242 31.0649 28.8969 31.1839C28.8969 31.1839 27.0373 34.3977 24 31.3624Z" stroke="#210049" stroke-miterlimit="10" stroke-linecap="round" stroke-linejoin="round"/>
<path d="M29.7889 18.9815C29.7889 18.9815 27.228 18.7376 27.228 21.5423" stroke="#210049" stroke-miterlimit="10" stroke-linecap="round" stroke-linejoin="round"/>
<path d="M31.5083 25.7006C31.5083 25.7006 30.7522 26.4445 29.5815 26.3469" stroke="#210049" stroke-miterlimit="10" stroke-linecap="round" stroke-linejoin="round"/>
<path d="M24.1187 29.5175C24.1187 29.5175 25.0332 27.3225 26.8502 27.7493" stroke="#210049" stroke-miterlimit="10" stroke-linecap="round" stroke-linejoin="round"/>
<path d="M26.9844 31.7491C26.9844 31.7491 26.7649 29.0541 29.4354 29.1517" stroke="#210049" stroke-miterlimit="10" stroke-linecap="round" stroke-linejoin="round"/>
<path d="M25.9966 26.2859C25.9966 26.2859 27.777 25.9445 28.9598 27.981" stroke="#210049" stroke-miterlimit="10" stroke-linecap="round" stroke-linejoin="round"/>
<path d="M25.3501 22.6032C25.3501 22.6032 27.9597 24.7129 29.1426 20.8838" stroke="#210049" stroke-miterlimit="10" stroke-linecap="round" stroke-linejoin="round"/>
<path d="M28.7037 24.8714C28.7037 24.8714 27.033 25.0177 26.8745 23.2252" stroke="#210049" stroke-miterlimit="10" stroke-linecap="round" stroke-linejoin="round"/>
<path d="M25.9998 18.3334C26.1839 18.3334 26.3332 18.1841 26.3332 18C26.3332 17.8159 26.1839 17.6667 25.9998 17.6667C25.8157 17.6667 25.6665 17.8159 25.6665 18C25.6665 18.1841 25.8157 18.3334 25.9998 18.3334Z" fill="#210049"/>
<path d="M21.9998 18.3334C22.1839 18.3334 22.3332 18.1841 22.3332 18C22.3332 17.8159 22.1839 17.6667 21.9998 17.6667C21.8157 17.6667 21.6665 17.8159 21.6665 18C21.6665 18.1841 21.8157 18.3334 21.9998 18.3334Z" fill="#210049"/>
<path d="M24 31.3624V16.6029C24 16.6029 21.7685 13.7463 19.9089 16.6029C19.9089 16.6029 17.9874 17.1386 18.2353 19.043C18.2353 19.043 16.0038 19.7572 16.9956 22.2568C16.9956 22.2568 15.136 23.209 16.4997 25.5896C16.4997 25.5896 15.26 26.8989 16.7477 28.4463C16.7477 28.4463 16.3757 31.0649 19.1031 31.1839C19.1031 31.1839 20.9627 34.3977 24 31.3624Z" stroke="#210049" stroke-miterlimit="10" stroke-linecap="round" stroke-linejoin="round"/>
<path d="M18.5088 18.9815C18.5088 18.9815 21.0696 18.7376 21.0696 21.5423" stroke="#210049" stroke-miterlimit="10" stroke-linecap="round" stroke-linejoin="round"/>
<path d="M16.7773 25.7006C16.7773 25.7006 17.5334 26.4445 18.7041 26.3469" stroke="#210049" stroke-miterlimit="10" stroke-linecap="round" stroke-linejoin="round"/>
<path d="M24.1793 29.5175C24.1793 29.5175 23.2647 27.3225 21.4478 27.7493" stroke="#210049" stroke-miterlimit="10" stroke-linecap="round" stroke-linejoin="round"/>
<path d="M21.3134 31.7491C21.3134 31.7491 21.5329 29.0541 18.8623 29.1517" stroke="#210049" stroke-miterlimit="10" stroke-linecap="round" stroke-linejoin="round"/>
<path d="M22.2894 26.2859C22.2894 26.2859 20.509 25.9445 19.3262 27.981" stroke="#210049" stroke-miterlimit="10" stroke-linecap="round" stroke-linejoin="round"/>
<path d="M22.9478 22.6032C22.9478 22.6032 20.3381 24.7129 19.1553 20.8838" stroke="#210049" stroke-miterlimit="10" stroke-linecap="round" stroke-linejoin="round"/>
<path d="M19.5942 24.8714C19.5942 24.8714 21.2649 25.0177 21.4234 23.2252" stroke="#210049" stroke-miterlimit="10" stroke-linecap="round" stroke-linejoin="round"/>
<path d="M22 19.6667C22 19.6667 24.1511 21.1667 26 19.6667" stroke="#210049" stroke-miterlimit="10" stroke-linecap="round" stroke-linejoin="round"/>
</svg>
