<svg width="88" height="88" viewBox="0 0 88 88" fill="none" xmlns="http://www.w3.org/2000/svg">
<path d="M22.0073 81.0919L2.52126 31.8315C1.00778 27.9549 2.89963 23.5111 6.77791 21.9983L56.1551 2.52102C60.0334 1.00823 64.4792 2.89922 65.9927 6.77576L85.4787 56.2253C86.9922 60.1019 85.1004 64.5457 81.2221 66.0585L31.8449 85.4412C27.872 87.0485 23.5208 85.063 22.0073 81.0919Z" fill="#E4D2FF"/>
<path d="M81.5057 46.0139C73.8438 47.6213 65.3304 45.3521 57.8577 48.2831C53.601 49.985 50.1957 53.2943 46.6012 56.0362C42.1553 59.3454 37.2365 60.6691 31.7502 60.8582C25.8854 61.0473 19.8315 60.5746 14.0614 61.0473L15.8587 65.6803C22.9531 65.2075 30.1421 66.3421 37.1419 65.3966C41.1148 64.8293 44.8039 63.4111 48.0201 61.0473C52.1821 58.1163 55.7766 54.3343 60.5062 52.6324C67.7899 50.1741 75.9248 52.3488 83.3976 50.7414L81.5057 46.0139Z" fill="#C7B1EB"/>
<path d="M36.1015 53.6725C44.331 51.4978 49.3444 43.272 57.0064 40.2464C63.6279 37.599 71.2898 39.3009 77.7221 36.4644L76.0194 31.926C69.0196 35.2353 60.0333 32.8715 53.0335 36.6535C48.966 38.8282 45.6553 42.232 42.0608 45.0684C37.7096 48.3777 32.9799 49.7014 27.5882 49.6068C21.4397 49.5123 15.0074 47.9049 8.85889 47.3376L10.7507 52.2542C19.1695 53.1997 27.8719 55.8471 36.1015 53.6725Z" fill="#C7B1EB"/>
<path d="M6.77833 42.2318C12.8322 42.2318 19.0753 42.8937 24.9401 42.0427C28.9129 41.4754 32.602 40.0572 35.8182 37.6934C39.9802 34.7624 43.5748 30.9804 48.3044 29.2785C56.5339 26.5366 65.8985 29.6567 73.9389 26.442L72.1416 21.8091C63.7229 24.9292 53.9799 21.5254 45.6558 24.9292C41.3991 26.6311 37.9938 29.9404 34.3993 32.6823C29.9535 35.9916 25.0347 37.3152 19.5483 37.5043C14.6295 37.6934 9.80529 37.3152 4.98108 37.5043L6.77833 42.2318Z" fill="#C7B1EB"/>
<path d="M53 21.5H20.375C18.8832 21.5 17.4524 22.0926 16.3975 23.1475C15.3426 24.2024 14.75 25.6332 14.75 27.125V60.875C14.75 62.3668 15.3426 63.7976 16.3975 64.8525C17.4524 65.9074 18.8832 66.5 20.375 66.5H67.4464C68.9383 66.5 70.369 65.9074 71.4239 64.8525C72.4788 63.7976 73.0714 62.3668 73.0714 60.875V41.6094" stroke="#210049" stroke-width="1.5" stroke-linecap="round" stroke-linejoin="round"/>
<path d="M23.75 30.5L44 46.25L56.2344 37.0152" stroke="#210049" stroke-width="1.5" stroke-linecap="round" stroke-linejoin="round"/>
<path d="M68.743 32.7511C72.467 32.7511 75.4859 29.7322 75.4859 26.0081C75.4859 22.2841 72.467 19.2651 68.743 19.2651C65.0189 19.2651 62 22.2841 62 26.0081C62 29.7322 65.0189 32.7511 68.743 32.7511Z" fill="#210049"/>
<path d="M68.7497 35.0011C66.9711 35.0011 65.2324 34.4737 63.7535 33.4855C62.2746 32.4973 61.1219 31.0928 60.4413 29.4496C59.7606 27.8063 59.5825 25.9981 59.9295 24.2537C60.2765 22.5092 61.133 20.9068 62.3907 19.6491C63.6484 18.3914 65.2508 17.5349 66.9953 17.1879C68.7397 16.8409 70.5479 17.019 72.1912 17.6997C73.8344 18.3803 75.2389 19.533 76.2271 21.0119C77.2153 22.4908 77.7427 24.2295 77.7427 26.0081C77.7408 28.3926 76.7928 30.6789 75.1067 32.3651C73.4206 34.0512 71.1342 34.9992 68.7497 35.0011ZM68.7497 21.5151C67.8594 21.5138 66.9887 21.7765 66.2477 22.2701C65.5068 22.7637 64.9289 23.466 64.5872 24.2882C64.2456 25.1103 64.1554 26.0154 64.3283 26.8887C64.5011 27.7621 64.9291 28.5646 65.5582 29.1946C66.1873 29.8247 66.9891 30.254 67.8622 30.4282C68.7353 30.6024 69.6405 30.5137 70.4631 30.1733C71.2858 29.8329 71.989 29.2561 72.4838 28.5159C72.9786 27.7758 73.2427 26.9055 73.2427 26.0151C73.2427 24.8229 72.7695 23.6794 71.9272 22.8356C71.0848 21.9919 69.942 21.517 68.7497 21.5151Z" fill="#210049"/>
</svg>
