<svg width="239" height="205" viewBox="0 0 239 205" fill="none" xmlns="http://www.w3.org/2000/svg">
<path d="M135.083 12.9249C113.283 9.72487 98.8826 27.9249 83.1826 43.3249C65.5826 60.5249 48.8826 64.8249 29.1826 77.7249C9.48257 90.6249 -2.31743 107.625 0.382572 131.425C2.88257 154.325 19.3826 173.225 40.3826 176.125C59.3826 178.725 79.8826 169.325 98.5826 172.725C126.583 177.825 145.283 210.425 174.383 207.425C192.883 205.525 208.983 189.425 220.483 172.325C228.683 160.025 235.583 146.325 237.483 131.925C239.383 117.525 235.583 102.325 225.383 94.5249C211.183 83.6249 187.583 88.1249 177.383 72.6249C172.683 65.4249 172.283 55.6249 169.983 46.8249C165.483 29.2249 151.983 15.4249 135.083 12.9249Z" fill="#D5F4F7"/>
<path d="M40.4 207.625L69.2 127.425L33.5 114.825L-2 207.625" fill="#B4C8FF"/>
<path d="M206.9 106.925C208.5 105.325 208.5 102.325 210.5 101.225C211.8 100.525 213.4 100.925 214.7 101.425C217.2 102.325 219.7 103.325 222 104.525C225.2 106.125 228.4 108.225 230 111.425C231.8 114.725 232.4 116.625 229.3 118.825C226.3 121.025 221.7 123.325 218.3 122.125C214.7 120.825 211.7 118.425 209 115.625C207.4 113.925 205.9 112.125 205.5 109.825C205.2 107.625 205.3 108.625 206.9 106.925Z" fill="#4376FF"/>
<path d="M228.7 35.8248C230.3 36.1248 231.4 37.6248 231.1 39.1248L224.9 86.2248C224.8 87.8248 223.4 89.0248 221.7 88.9248L199.7 86.0248C198.1 85.7248 197 84.2248 197.3 82.7248L203.5 35.6248C203.6 34.0248 205 32.8248 206.7 32.9248L228.7 35.8248Z" fill="#742FE1"/>
<path d="M231.6 36.2249C233.2 36.5249 234.3 38.0249 234 39.5249L227.8 86.6249C227.7 88.2249 226.3 89.4249 224.6 89.3249L202.6 86.4249C201 86.1249 199.9 84.6249 200.2 83.1249L206.4 36.0249C206.5 34.4249 207.9 33.2249 209.6 33.3249L231.6 36.2249Z" fill="#A699B6"/>
<path d="M213.4 37.8251C213.6 39.1251 212.7 40.4251 211.4 40.6251C210.1 40.8251 208.8 39.9251 208.6 38.6251C208.4 37.3251 209.3 36.0251 210.6 35.8251C211.9 35.5251 213.2 36.5251 213.4 37.8251Z" fill="#742FE1"/>
<path d="M212.5 37.925C212.6 38.825 212 39.625 211.2 39.725C210.3 39.825 209.5 39.225 209.4 38.425C209.3 37.525 209.9 36.725 210.7 36.625C211.6 36.425 212.4 37.025 212.5 37.925Z" fill="white"/>
<path d="M217.4 38.925C217.5 39.725 217 40.525 216.1 40.625C215.3 40.725 214.5 40.225 214.4 39.325C214.3 38.525 214.8 37.725 215.7 37.625C216.5 37.625 217.2 38.125 217.4 38.925Z" fill="#742FE1"/>
<path d="M217.6 43.6249C214.5 42.0249 210.8 45.3249 215.1 48.2249C219.3 51.0249 224.5 57.8249 224.5 57.8249C224.5 57.8249 215.9 52.7249 209.9 52.6249C205.7 52.6249 205.3 56.7249 210 58.0249C222.8 61.7249 227 66.7249 225.5 66.3249C223.3 65.7249 217.9 62.0249 210.3 61.5249C206.3 61.2249 206 65.9249 210.7 67.0249C217.6 68.6249 224.9 73.8249 224.2 75.4249C223.7 76.5249 219.9 71.7249 213.9 70.9249C211.5 70.6249 210.9 73.2249 213.5 74.4249C216.2 75.6249 219.5 79.3249 220.5 81.7249C221.4 84.0249 221.7 89.4249 222.5 91.2249C219.5 101.025 191.4 118.625 183.4 126.925C175.4 135.225 169.2 157.025 181.7 159.625C213.3 166.325 237.5 92.4249 237.8 91.9249C238.9 90.0249 236.7 66.4249 235.7 63.7249C234.9 61.4249 226.3 48.0249 217.6 43.6249Z" fill="white" stroke="#210049" stroke-width="1.8" stroke-miterlimit="10" stroke-linecap="round" stroke-linejoin="round"/>
<path d="M90.3 151.625C90.3 151.625 142.7 165.325 174.5 166.625L186.2 130.825L92.8 101.025L90.3 151.625Z" fill="#B4C8FF"/>
<path d="M87.4 98.6248C87.4 98.6248 122.3 105.725 130.8 135.025C133.4 143.925 135.1 207.725 135.1 207.725H33.5C33.5 207.725 55.6 187.225 44.8 167.325C33.9 147.425 33.5 117.325 60 107.425L87.4 98.6248Z" fill="#B4C8FF"/>
<path d="M65.9 109.125C65.8 109.025 65.7 108.925 65.6 108.825C63.8 107.025 63 104.625 62.9 102.125C62.8 100.425 64 98.4248 62.5 97.0248C60.6 95.3248 55.9 96.1248 53.5 95.3248C50.7 94.4248 48 93.1248 45 93.1248C38.9 93.0248 32.4 98.9248 28.5 103.025C25.8 105.925 23.3 109.025 21.3 112.425C20.4 113.825 19.6 115.325 19.1 116.925C16.9 123.825 20.8 131.125 28.4 131.125C38.1 131.125 45 123.925 54.7999 124.325C62 124.625 72.6 131.025 71.6 118.625C71.4 116.625 71.2 114.625 70.1 112.925C69 111.425 67.3 110.425 65.9 109.125Z" fill="#4376FF"/>
<path d="M80.6001 151.825C82.257 151.825 83.6001 150.482 83.6001 148.825C83.6001 147.168 82.257 145.825 80.6001 145.825C78.9432 145.825 77.6001 147.168 77.6001 148.825C77.6001 150.482 78.9432 151.825 80.6001 151.825Z" fill="#4376FF"/>
<path d="M98.7 137.925C97.7 135.925 97.8 133.025 98.3 130.825C98.8 128.625 99.5 126.525 99.5 124.325C99.5 121.025 97.8 117.925 96.6 114.825C96.2 113.925 96.1 112.625 96.9 112.225" stroke="#4376FF" stroke-width="1.8" stroke-miterlimit="10" stroke-linecap="round" stroke-linejoin="round"/>
<path d="M98.7 141.725C100.357 141.725 101.7 140.382 101.7 138.725C101.7 137.068 100.357 135.725 98.7 135.725C97.0431 135.725 95.7 137.068 95.7 138.725C95.7 140.382 97.0431 141.725 98.7 141.725Z" fill="#4376FF"/>
<path d="M179.3 127.325C177 129.825 174.7 132.425 172.4 135.025C168 140.025 163.4 145.225 161.6 151.625C160.6 155.025 162.7 159.925 165 162.625C173.5 172.425 193.6 161.725 201.2 155.825C207.9 150.625 213.4 144.025 218.6 137.425C220.9 134.425 222.5 131.225 224.7 128.225C225.5 127.125 230.4 117.625 231 117.525C220.6 118.325 210.5 102.425 210.1 101.625C209.5 100.125 191.6 114.525 190.2 115.925C186.4 119.625 182.8 123.425 179.3 127.325Z" fill="#B4C8FF"/>
<path d="M20.4002 33.3247C29.1002 36.4247 38.8002 31.8247 41.9002 22.9247C45.1002 14.1247 40.6002 4.42469 31.9002 1.32469C23.1002 -1.77531 13.5002 2.82469 10.3002 11.7247C7.20017 20.5247 11.7002 30.2247 20.4002 33.3247Z" fill="#210049"/>
<path d="M31.1002 31.3248C34.5002 38.4248 42.9002 41.4248 50.0002 38.1248C57.1002 34.7248 60.1002 26.3248 56.8002 19.2248C53.5002 12.1248 45.0002 9.02481 37.9002 12.4248C30.8002 15.8248 27.8002 24.2248 31.1002 31.3248Z" fill="white"/>
<path d="M123.2 70.8249C116.7 58.1249 109.3 40.5249 107.7 32.6249C107.3 30.6249 107.7 32.6249 107.7 32.6249L80.9999 25.0249C80.9999 25.0249 78.6999 58.0249 82.3999 78.7249L66.8999 80.3249L59.6999 36.2249L57.2999 3.22485C19.9999 15.9249 21.3999 62.4249 21.3999 62.4249C23.4999 92.8249 26.4999 105.625 45.1999 106.025C45.1999 106.025 45.4999 106.025 45.8999 106.025C46.6999 106.025 47.4999 106.025 48.3999 106.025C49.7999 105.925 51.0999 105.825 52.2999 105.725C62.9999 105.025 84.4999 102.725 106.6 96.0249C106.9 95.9249 107.3 95.8249 107.6 95.7249C107.7 95.7249 107.9 95.6249 108 95.6249C119.2 91.8249 129 81.9249 123.2 70.8249Z" fill="#210049"/>
<path d="M107.7 32.6248C112 54.1248 97.3 70.2248 75.3 74.6248C53.3 79.0248 35.4 69.9248 31.2 48.4248C26.9 26.8248 41.4 6.12483 63.3 1.42483C93.5 -4.97517 103.4 11.0248 107.7 32.6248Z" fill="#210049"/>
<path d="M89 68.1248C90.7 75.8248 92.5 83.5248 94.2 91.2248C94.9 94.3248 96 97.6248 96.4 100.825C97.1 107.425 91.5 113.325 84.9 114.825C78.5 116.325 68.7 113.025 65.9 106.725C63.6 101.525 63.6 94.1248 62.6 88.5248C60.9 78.6248 59.2 68.8248 57.5 58.9248L89 68.1248Z" fill="white"/>
<path d="M85.8 87.2247C100 84.1247 109.1 69.9247 106.8 57.9247L101.3 29.5247C98.5 14.4247 84.6 4.22467 69.9 6.42467C54.8 8.72467 42 23.5247 44.4 39.0247L49.1 61.8247C52.6 79.4247 68.6 89.8247 85.8 87.2247Z" fill="white"/>
<path d="M90.1002 53.5249L92.7002 60.5249L89.2002 61.4249" stroke="#210049" stroke-width="1.8" stroke-miterlimit="10" stroke-linecap="round" stroke-linejoin="round"/>
<path d="M56.9 34.125C57 35.225 61.5 53.225 52.6 61.625C47.4 66.525 35 44.525 35 44.525L56.9 34.125Z" fill="#210049"/>
<path d="M39 65.3248C39.8 70.2248 44.2 73.6248 49 72.9248C53.8 72.2248 57 67.6248 56.3 62.7248C55.5 57.8248 51.1 54.4248 46.3 55.1248C41.5 55.8248 38.3 60.4248 39 65.3248Z" fill="white"/>
<path d="M95.6999 8.92485C95.6999 8.92485 90.8999 41.5249 46.9999 44.2249C46.9999 44.2249 36.0999 51.4249 35.9999 39.5249C35.8999 27.6249 53.3999 6.52485 53.3999 6.52485L73.5999 3.72485L95.6999 8.92485Z" fill="#210049"/>
<path d="M74.3999 9.7249C74.3999 9.7249 97.6999 11.0249 101.3 29.5249L101.2 17.5249L91.1999 6.6249L86.9999 4.0249L78.1999 3.0249L74.3999 9.7249Z" fill="#210049"/>
<path d="M74.9749 53.8141C76.417 53.4348 77.2332 51.7852 76.7978 50.1294C76.3624 48.4737 74.8404 47.4388 73.3983 47.818C71.9562 48.1972 71.1401 49.8469 71.5754 51.5026C72.0108 53.1584 73.5328 54.1933 74.9749 53.8141Z" fill="#210049"/>
<path d="M100.298 49.5306C101.74 49.1514 102.556 47.5017 102.121 45.846C101.685 44.1902 100.163 43.1554 98.721 43.5346C97.2789 43.9138 96.4628 45.5634 96.8982 47.2192C97.3336 48.875 98.8556 49.9098 100.298 49.5306Z" fill="#210049"/>
<path d="M94.4002 71.2248C90.1002 72.7248 85.1002 72.3248 81.2002 70.0248" stroke="#210049" stroke-width="1.8" stroke-miterlimit="10" stroke-linecap="round" stroke-linejoin="round"/>
<path d="M59.0001 79.9248C61.0001 88.9248 68.8001 96.3248 77.8001 97.8248C73.8001 99.6248 69.2001 100.125 64.9001 99.0248C68.0001 102.625 72.8001 104.125 77.3001 105.425C68.2001 110.225 57.2001 108.725 47.0001 107.225C44.7001 106.925 42.4001 106.525 40.3001 105.625C34.2001 102.925 31.0001 95.2248 33.3001 89.0248" fill="#210049"/>
<path d="M93.7 85.0248C93 85.3248 92.2 85.7248 91.5 86.0248C88.6 87.1248 85.6 87.7248 82.5 87.7248" stroke="#210049" stroke-width="1.8" stroke-miterlimit="10" stroke-linecap="round" stroke-linejoin="round"/>
<path d="M98.9999 103.325C98.9999 106.725 98.4999 110.325 96.3999 113.025C94.5999 115.325 91.8999 116.625 89.0999 117.525C80.4999 120.225 70.7999 117.225 62.8999 113.025" stroke="#4376FF" stroke-width="1.8" stroke-miterlimit="10" stroke-linecap="round" stroke-linejoin="round"/>
<path d="M80.1 118.625C80.9 123.925 78.3 129.625 80.7 134.425C81 135.025 81.5 135.625 82.1 135.625C83 135.525 83.3 134.325 83.1 133.425C82.4 133.225 81.6 133.725 81.2 134.425C79 137.925 80.1 145.425 80.6 149.325" stroke="#4376FF" stroke-width="1.8" stroke-miterlimit="10" stroke-linecap="round" stroke-linejoin="round"/>
<path d="M70.8599 68.0369C73.6373 67.3066 75.5472 65.4156 75.1259 63.8132C74.7046 62.2109 72.1115 61.504 69.3341 62.2343C66.5567 62.9646 64.6467 64.8556 65.0681 66.4579C65.4894 68.0603 68.0825 68.7672 70.8599 68.0369Z" fill="#FFD5E3"/>
<path d="M107.1 60.3248C104.3 61.0248 101.8 60.3248 101.3 58.7248C100.8 57.1248 102.8 55.2248 105.5 54.5248C105.7 54.5248 105.9 54.4248 106 54.4248" fill="#FFD5E3"/>
<path d="M83.627 157.807C84.7978 155.87 84.0802 152.957 85.759 151.411C86.8538 150.42 88.503 150.426 89.8849 150.6C92.5276 150.876 95.1942 151.249 97.7145 151.864C101.204 152.652 104.814 153.926 107.133 156.65C109.67 159.424 110.707 161.125 108.223 164.003C105.837 166.856 101.92 170.19 98.3321 169.838C94.5257 169.437 91.0387 167.824 87.7472 165.752C85.787 164.484 83.9 163.095 82.9614 160.957C82.1438 158.893 82.4802 159.84 83.627 157.807Z" fill="#4376FF"/>
<path d="M104.732 118.553C105.721 119.685 106.771 120.896 107.761 122.028C109.077 119.137 110.253 116.227 111.569 113.336C112.393 111.449 113.895 109.297 115.899 109.78C119.547 110.77 116.984 117.631 116.804 120.033C116.105 127.359 112.655 133.388 111.054 140.521C109.627 146.893 106.855 152.657 105.549 159.188C103.915 167.102 103.342 175.087 101.628 183.061" fill="white"/>
<path d="M104.732 118.553C105.721 119.685 106.771 120.896 107.761 122.028C109.077 119.137 110.253 116.227 111.569 113.336C112.393 111.449 113.895 109.297 115.899 109.78C119.547 110.77 116.984 117.631 116.804 120.033C116.105 127.359 112.655 133.388 111.054 140.521C109.627 146.893 106.855 152.657 105.549 159.188C103.915 167.102 103.342 175.087 101.628 183.061" stroke="#210049" stroke-width="1.8" stroke-miterlimit="10" stroke-linecap="round" stroke-linejoin="round"/>
<path d="M135 107.7L106.507 114.196C105.515 114.43 104.504 113.788 104.29 112.796L100.497 96.1474C100.264 95.1555 100.906 94.1442 101.898 93.9302L130.39 87.4342C131.382 87.2008 132.394 87.8427 132.608 88.8346L136.4 105.483C136.634 106.455 136.011 107.467 135 107.7Z" fill="white" stroke="#210049" stroke-width="0.350083" stroke-miterlimit="10" stroke-linecap="round" stroke-linejoin="round"/>
<path d="M106.876 110.695L120.744 107.525" stroke="#FF2F73" stroke-width="0.151275" stroke-miterlimit="10" stroke-linecap="round" stroke-linejoin="round"/>
<path d="M116.893 93.6579L104.309 96.5169C104.115 96.5558 103.92 96.4391 103.862 96.2446C103.823 96.0501 103.94 95.8556 104.134 95.7973L116.718 92.9188C116.912 92.8799 117.107 92.9966 117.165 93.1911C117.223 93.4051 117.107 93.5995 116.893 93.6579Z" fill="#FF2F73"/>
<path d="M115.22 95.2138L106.507 97.2171C106.39 97.2365 106.254 97.1587 106.235 97.042L106.196 96.9059C106.176 96.7892 106.254 96.6531 106.371 96.6336L115.084 94.6304C115.201 94.6109 115.337 94.6887 115.356 94.8054L115.395 94.9415C115.415 95.0777 115.337 95.1944 115.22 95.2138Z" fill="#FF2F73"/>
<path d="M111.766 106.802C111.727 106.472 111.299 106.297 110.988 106.433C110.676 106.569 110.521 106.919 110.462 107.25C110.404 107.736 110.54 108.241 110.851 108.63C111.046 108.864 111.357 109.039 111.61 108.903C111.707 108.844 111.785 108.747 111.843 108.63C111.979 108.397 112.116 106.997 111.746 107.444C111.61 107.6 111.785 108.164 111.902 108.319C111.979 108.455 112.154 108.572 112.271 108.475C112.31 108.436 112.33 108.378 112.349 108.319C112.407 108.008 112.407 107.697 112.33 107.386C112.388 107.561 112.485 108.028 112.641 108.144C113.283 108.669 113.185 107.444 113.088 107.172C113.205 107.483 113.205 108.125 113.672 108.105C114.197 108.086 113.924 107.269 113.808 106.958C113.885 107.25 114.255 108.028 114.644 107.716C114.916 107.502 114.838 107.016 114.8 106.705C114.838 107.094 115.13 107.639 115.597 107.502C115.83 107.425 115.986 107.172 115.947 106.919" stroke="#FF2F73" stroke-width="0.151275" stroke-miterlimit="10" stroke-linecap="round" stroke-linejoin="round"/>
<path d="M107.752 99.4343L104.29 100.232C104.192 100.251 104.095 100.193 104.076 100.096C104.056 99.9983 104.115 99.9011 104.212 99.8816L107.674 99.1036C107.771 99.0842 107.868 99.1425 107.888 99.2398C107.907 99.3176 107.849 99.4148 107.752 99.4343Z" fill="#FF2F73"/>
<path d="M108.393 101.963L104.932 102.76C104.834 102.78 104.737 102.721 104.718 102.624C104.698 102.527 104.756 102.429 104.854 102.41L108.316 101.613C108.413 101.593 108.51 101.652 108.53 101.749C108.53 101.846 108.471 101.924 108.393 101.963Z" fill="#FF2F73"/>
<path d="M116.796 98.8898L106.157 101.301C105.962 101.34 105.787 101.224 105.748 101.049C105.71 100.854 105.826 100.679 106.001 100.64L116.64 98.209C116.834 98.1701 117.009 98.2868 117.048 98.4619C117.107 98.6564 116.99 98.8314 116.796 98.8898Z" fill="#FF2F73"/>
<path d="M117.243 101.438L106.604 103.869C106.41 103.908 106.235 103.791 106.196 103.616C106.157 103.421 106.274 103.246 106.449 103.207L117.087 100.776C117.282 100.737 117.457 100.854 117.496 101.029C117.554 101.204 117.437 101.399 117.243 101.438Z" fill="#FF2F73"/>
<path d="M108.841 104.51L105.379 105.308C105.282 105.327 105.185 105.269 105.165 105.172C105.146 105.075 105.204 104.977 105.301 104.958L108.763 104.16C108.86 104.141 108.958 104.199 108.977 104.297C108.977 104.394 108.919 104.491 108.841 104.51Z" fill="#FF2F73"/>
<path d="M114.617 109.937L112.925 110.326C112.828 110.345 112.731 110.287 112.711 110.19C112.692 110.092 112.75 109.995 112.847 109.976L114.539 109.587C114.637 109.567 114.734 109.626 114.753 109.723C114.773 109.82 114.715 109.917 114.617 109.937Z" fill="#FF2F73"/>
<path d="M117.69 104.005L107.052 106.436C106.857 106.475 106.682 106.358 106.643 106.183C106.604 105.989 106.721 105.814 106.896 105.775L117.535 103.324C117.729 103.285 117.904 103.402 117.943 103.577C118.002 103.771 117.885 103.966 117.69 104.005Z" fill="#FF2F73"/>
<path d="M130.488 92.4132L121.036 94.572C120.705 94.6498 120.491 94.9804 120.569 95.3305L123.058 106.241C123.136 106.572 123.467 106.786 123.817 106.708L133.269 104.549C133.6 104.472 133.814 104.141 133.736 103.791L131.246 92.8799C131.168 92.5493 130.838 92.3354 130.488 92.4132Z" fill="#FFEAF1"/>
<path d="M133.775 104.316C133.502 104.744 132.199 104.802 131.713 104.919C130.955 105.094 130.177 105.269 129.418 105.444C127.92 105.775 126.442 106.125 124.945 106.455C124.536 106.553 123.953 106.805 123.525 106.786C122.322 106.729 124.449 103.386 127.449 102.886C130.449 102.386 133.449 102.886 133.775 104.316Z" fill="#FFACC7"/>
<path d="M131.049 99.3317C130.658 98.5001 130.603 98.6677 129.495 97.0731C128.837 96.1182 128.402 95.7668 128.158 95.6393C128.158 95.6393 127.217 94.9417 125.811 95.2041C124.473 95.4537 123.848 96.4042 123.848 96.4042C123.669 96.5793 123.362 97.0455 123.066 98.2808C122.615 100.166 122.502 100.022 122.437 100.939C122.372 101.856 122.963 103.421 124.83 103.395C124.83 103.395 124.56 103.209 124.405 102.845C124.405 102.845 125.349 103.731 126.372 103.477L128.318 103.114C129.355 102.983 129.924 101.815 129.924 101.815C129.911 102.211 129.726 102.481 129.726 102.481C131.446 101.838 131.441 100.163 131.049 99.3317Z" fill="#210049"/>
<path d="M126.162 103.309C126.279 103.854 126.862 104.092 127.449 104.163C128.035 104.227 128.605 103.923 128.635 103.327C128.667 102.574 128.328 101.261 128.328 101.261L125.844 101.819L126.162 103.309Z" fill="white"/>
<path d="M129.245 97.584C129.541 99.1727 128.543 100.696 127.015 100.981C125.489 101.274 124.009 100.213 123.711 98.6167C123.414 97.028 124.45 95.7098 125.978 95.4246C127.506 95.1395 128.948 95.9953 129.245 97.584Z" fill="#210049"/>
<path d="M128.794 97.8253C128.98 98.8211 129.002 99.698 128.979 100.332C128.952 100.95 128.65 101.439 128.181 101.873L128.093 101.952C127.59 102.416 126.861 102.56 126.22 102.325C125.571 102.092 125.083 101.712 124.834 101.097C124.389 99.9766 124.127 98.6962 124.127 98.6962C124.127 98.6962 123.438 96.2289 125.972 95.8111C128.496 95.3872 128.794 97.8253 128.794 97.8253Z" fill="white"/>
<path d="M124.84 101.002C124.47 101.464 123.252 100.118 123.602 99.6361C123.959 99.1447 124.386 99.7493 124.386 99.7493L124.559 100.213L124.809 100.835L124.866 100.973L124.84 101.002Z" fill="white"/>
<path d="M128.962 100.241C129.48 100.529 130.107 98.8312 129.591 98.5106C129.082 98.1886 128.91 98.9128 128.91 98.9128L128.924 99.4059L128.923 100.075L128.919 100.225L128.962 100.241Z" fill="white"/>
<path d="M124.303 99.4736C124.303 99.4736 124.885 97.9569 124.392 96.6174C124.392 96.6174 123.883 97.0977 123.875 98.1061C123.859 99.116 124.303 99.4736 124.303 99.4736Z" fill="#210049"/>
<path d="M128.99 98.6226C128.99 98.6226 127.672 97.3347 127.651 95.9148C127.651 95.9148 128.377 96.267 128.755 97.1955C129.133 98.124 128.99 98.6226 128.99 98.6226Z" fill="#210049"/>
<path d="M128.035 95.7803C128.035 95.7803 126.386 98.7074 123.875 98.1062C123.875 98.1062 122.981 96.1807 125.744 95.4762L128.035 95.7803Z" fill="#210049"/>
<path d="M126.428 95.6867C126.884 95.7275 127.354 97.9054 129.245 97.584L128.15 95.6407L126.428 95.6867Z" fill="#210049"/>
<path d="M128.429 100.379C128.626 100.342 128.769 100.221 128.748 100.107C128.727 99.9939 128.55 99.9319 128.352 99.9687C128.155 100.006 128.012 100.127 128.033 100.241C128.055 100.354 128.232 100.416 128.429 100.379Z" fill="#FFD5E3"/>
<path d="M125.401 101.015C125.598 100.978 125.741 100.856 125.72 100.743C125.699 100.63 125.522 100.568 125.324 100.605C125.127 100.641 124.984 100.763 125.005 100.876C125.026 100.99 125.204 101.052 125.401 101.015Z" fill="#FFD5E3"/>
<path d="M126.225 100.877C126.225 100.877 126.428 101.461 127.006 101.353C127.531 101.255 127.56 100.612 127.56 100.612L126.225 100.877Z" stroke="#210049" stroke-width="0.125152" stroke-miterlimit="10" stroke-linecap="round" stroke-linejoin="round"/>
<path d="M126.603 99.784L126.682 100.21L126.933 100.163" stroke="#210049" stroke-width="0.125152" stroke-miterlimit="10" stroke-linecap="round" stroke-linejoin="round"/>
<path d="M125.5 99.9032C125.618 99.8813 125.693 99.7546 125.668 99.6202C125.643 99.4859 125.527 99.3948 125.41 99.4167C125.292 99.4386 125.217 99.5653 125.242 99.6997C125.267 99.834 125.383 99.9251 125.5 99.9032Z" fill="#210049"/>
<path d="M127.895 99.4564C128.012 99.4344 128.087 99.3077 128.062 99.1734C128.037 99.0391 127.922 98.9479 127.804 98.9699C127.687 98.9918 127.612 99.1185 127.637 99.2528C127.662 99.3872 127.777 99.4783 127.895 99.4564Z" fill="#210049"/>
<path d="M115.749 106.121C116.646 105.814 117.74 105.104 118.335 104.399C118.929 103.694 119.14 102.653 118.814 101.895C118.772 101.676 118.651 101.517 118.45 101.418C118.048 101.222 117.529 101.366 117.151 101.529C113.803 103.077 110.577 104.784 107.412 106.57" fill="white"/>
<path d="M104.02 165.261C104.152 164.279 104.344 163.378 104.537 162.476C105.763 156.006 108.372 149.864 110.08 143.529C111.866 137.134 112.85 130.346 110.917 124.022C110.507 122.825 110.098 121.629 110.047 120.409C110.068 118.129 112.527 113.108 114.033 111.455C114.866 110.568 121.531 108.753 119.491 106.41C118.927 105.835 118.067 105.862 117.347 105.908C110.272 106.527 102.898 107.248 97.132 111.396C95.4019 112.59 93.9751 114.182 93.2909 116.088C91.7112 120.941 93.1292 127.91 93.451 132.947C93.6391 136.326 94.5322 140.299 93.1178 143.39C92.4107 144.936 91.4232 146.445 90.5758 147.972C88.0338 152.553 86.2345 157.448 84.2949 162.324" fill="white"/>
<path d="M106.272 111.34C110.393 111.466 114.09 111.035 117.638 109.585C118.993 109.054 120.481 107.542 119.491 106.41C118.926 105.835 118.067 105.862 117.347 105.908C110.272 106.527 102.898 107.248 97.1319 111.396C95.4018 112.59 93.975 114.182 93.2908 116.088C91.7111 120.941 93.1291 127.91 93.451 132.947C93.6391 136.326 94.5321 140.299 93.1178 143.39C92.4106 144.936 91.4231 146.445 90.5758 147.972C88.0338 152.553 86.2344 157.448 84.2949 162.324" stroke="#210049" stroke-width="1.8384" stroke-miterlimit="10" stroke-linecap="round" stroke-linejoin="round"/>
<path d="M116.006 105.799C116.904 105.491 117.74 105.104 118.335 104.399C118.929 103.694 119.14 102.653 118.814 101.895C118.772 101.676 118.651 101.517 118.45 101.418C118.048 101.222 117.529 101.366 117.151 101.529C113.803 103.077 108.647 105.88 105.481 107.666" stroke="#210049" stroke-width="1.8" stroke-miterlimit="10" stroke-linecap="round" stroke-linejoin="round"/>
<path d="M107.009 130.275C106.344 127.26 104.566 125.095 102.667 122.77C102.424 122.452 100.259 119.45 99.9599 119.553C102.493 118.752 105.027 117.951 107.499 117.07C108.397 116.762 109.294 116.455 110.177 116.788C110.859 117.022 111.504 117.537 112.008 118.033C112.974 118.805 113.959 119.436 115.043 119.867C115.786 120.181 116.468 120.416 117.206 120.229C117.945 120.043 118.558 119.198 118.231 118.441C118.129 118.142 117.867 117.964 117.606 117.786C115.43 115.924 113.255 114.062 111.079 112.2C110.052 111.349 108.87 111.118 107.51 111.15C106.15 111.181 104.874 111.652 103.538 112.043C101.682 112.578 99.8075 113.254 97.9519 113.789" fill="white"/>
<path d="M107.009 130.275C106.344 127.26 104.566 125.095 102.667 122.77C102.424 122.452 100.259 119.45 99.9599 119.553C102.493 118.752 105.027 117.951 107.499 117.07C108.397 116.762 109.294 116.455 110.177 116.788C110.859 117.022 111.504 117.537 112.008 118.033C112.974 118.805 113.959 119.436 115.043 119.867C115.786 120.181 116.468 120.416 117.206 120.229C117.945 120.043 118.558 119.198 118.231 118.441C118.129 118.142 117.867 117.964 117.606 117.786C115.43 115.924 113.255 114.062 111.079 112.2C110.052 111.349 108.87 111.118 107.51 111.15C106.15 111.181 104.874 111.652 103.538 112.043C101.682 112.578 99.8075 113.254 97.9519 113.789" stroke="#210049" stroke-width="1.8" stroke-miterlimit="10" stroke-linecap="round" stroke-linejoin="round"/>
<path d="M61.7083 184.452C60.0732 187.43 58.4619 190.505 56.8507 193.579C54.8431 197.435 52.7732 201.393 51.5172 205.525L89.7902 206.886C95.0518 200.234 98.8132 192.51 102.283 184.858C103.799 181.395 104.587 177.905 106.005 174.466C106.519 173.206 109.004 162.81 109.563 162.569C99.6563 165.834 86.046 152.812 85.4662 152.131C84.5248 150.818 70.5892 169.082 69.5648 170.776C66.7602 175.277 64.1738 179.828 61.7083 184.452Z" fill="#B4C8FF"/>
<path d="M43.1001 201.525C49.1001 182.025 71.1001 159.525 86.1001 152.025" stroke="#4376FF" stroke-width="1.8" stroke-miterlimit="10" stroke-linecap="round" stroke-linejoin="round"/>
<path d="M79.5999 206.525C89.5999 199.525 107.142 178.914 109.076 162.255" stroke="#4376FF" stroke-width="1.8" stroke-miterlimit="10" stroke-linecap="round" stroke-linejoin="round"/>
</svg>
