<svg width="88" height="88" viewBox="0 0 88 88" fill="none" xmlns="http://www.w3.org/2000/svg">
<path d="M22.0073 81.0919L2.52126 31.8315C1.00778 27.9549 2.89963 23.5111 6.77791 21.9983L56.1551 2.52102C60.0334 1.00823 64.4792 2.89922 65.9927 6.77576L85.4787 56.2253C86.9922 60.1019 85.1004 64.5457 81.2221 66.0585L31.8449 85.4412C27.872 87.0485 23.5208 85.063 22.0073 81.0919Z" fill="#FFF69F"/>
<path d="M81.5059 46.0139C73.8439 47.6213 65.3306 45.3521 57.8578 48.2831C53.6011 49.985 50.1958 53.2943 46.6013 56.0362C42.1554 59.3454 37.2366 60.6691 31.7503 60.8582C25.8856 61.0473 19.8317 60.5746 14.0615 61.0473L15.8588 65.6803C22.9532 65.2075 30.1422 66.3421 37.1421 65.3966C41.1149 64.8293 44.804 63.4111 48.0202 61.0473C52.1822 58.1163 55.7767 54.3343 60.5064 52.6324C67.79 50.1741 75.9249 52.3488 83.3977 50.7414L81.5059 46.0139Z" fill="#FFEF57"/>
<path d="M36.102 53.6725C44.3315 51.4978 49.3449 43.272 57.0069 40.2464C63.6283 37.599 71.2903 39.3009 77.7226 36.4644L76.0199 31.926C69.0201 35.2353 60.0338 32.8715 53.034 36.6535C48.9665 38.8282 45.6558 42.232 42.0613 45.0684C37.71 48.3777 32.9804 49.7014 27.5887 49.6068C21.4402 49.5123 15.0079 47.9049 8.85938 47.3376L10.7512 52.2542C19.1699 53.1997 27.8724 55.8471 36.102 53.6725Z" fill="#FFEF57"/>
<path d="M6.7787 42.2318C12.8326 42.2318 19.0757 42.8937 24.9404 42.0427C28.9133 41.4754 32.6024 40.0572 35.8185 37.6934C39.9806 34.7624 43.5751 30.9804 48.3047 29.2785C56.5343 26.5366 65.8989 29.6567 73.9393 26.442L72.142 21.8091C63.7233 24.9292 53.9803 21.5254 45.6562 24.9292C41.3995 26.6311 37.9942 29.9404 34.3997 32.6823C29.9538 35.9916 25.035 37.3152 19.5487 37.5043C14.6299 37.6934 9.80565 37.3152 4.98145 37.5043L6.7787 42.2318Z" fill="#FFEF57"/>
<g opacity="0.01">
<g opacity="0.2">
<rect x="8" y="8" width="3" height="72.0002" stroke="#210049" stroke-width="0.09375"/>
<rect x="11" y="8" width="3" height="72.0003" stroke="#210049" stroke-width="0.09375"/>
<rect x="14" y="8" width="3" height="72.0003" stroke="#210049" stroke-width="0.09375"/>
<rect x="17" y="8" width="3" height="72.0003" stroke="#210049" stroke-width="0.09375"/>
<rect x="20" y="8" width="3" height="72.0003" stroke="#210049" stroke-width="0.09375"/>
<rect x="23" y="8" width="3" height="72.0003" stroke="#210049" stroke-width="0.09375"/>
<rect x="26" y="8" width="3" height="72.0003" stroke="#210049" stroke-width="0.09375"/>
<rect x="29" y="8" width="3" height="72.0003" stroke="#210049" stroke-width="0.09375"/>
<rect x="32" y="8" width="3" height="72.0003" stroke="#210049" stroke-width="0.09375"/>
<rect x="35" y="8" width="3" height="72.0003" stroke="#210049" stroke-width="0.09375"/>
<rect x="38" y="8" width="3" height="72.0003" stroke="#210049" stroke-width="0.09375"/>
<rect x="41" y="8" width="3" height="72.0003" stroke="#210049" stroke-width="0.09375"/>
<rect x="44" y="8" width="2.99999" height="72.0003" stroke="#210049" stroke-width="0.09375"/>
<rect x="47" y="8" width="3" height="72.0003" stroke="#210049" stroke-width="0.09375"/>
<rect x="50" y="8" width="2.99999" height="72.0003" stroke="#210049" stroke-width="0.09375"/>
<rect x="53" y="8" width="3" height="72.0003" stroke="#210049" stroke-width="0.09375"/>
<rect x="56" y="8" width="3" height="72.0003" stroke="#210049" stroke-width="0.09375"/>
<rect x="59" y="8" width="2.99999" height="72.0003" stroke="#210049" stroke-width="0.09375"/>
<rect x="62" y="8" width="3" height="72.0003" stroke="#210049" stroke-width="0.09375"/>
<rect x="65" y="8" width="2.99999" height="72.0003" stroke="#210049" stroke-width="0.09375"/>
<rect x="68" y="8" width="2.99999" height="72.0003" stroke="#210049" stroke-width="0.09375"/>
<rect x="71" y="8" width="3" height="72.0003" stroke="#210049" stroke-width="0.09375"/>
<rect x="74" y="8" width="3" height="72.0003" stroke="#210049" stroke-width="0.09375"/>
<rect x="77" y="8" width="3.00001" height="72.0003" stroke="#210049" stroke-width="0.09375"/>
<rect x="8" y="80.001" width="3.00074" height="72" transform="rotate(-90 8 80.001)" stroke="#210049" stroke-width="0.09375"/>
<rect x="8" y="77.0002" width="3" height="72" transform="rotate(-90 8 77.0002)" stroke="#210049" stroke-width="0.09375"/>
<rect x="8" y="74.0002" width="2.99999" height="72" transform="rotate(-90 8 74.0002)" stroke="#210049" stroke-width="0.09375"/>
<rect x="8" y="71.0002" width="2.99999" height="72" transform="rotate(-90 8 71.0002)" stroke="#210049" stroke-width="0.09375"/>
<rect x="8" y="68" width="2.99999" height="72" transform="rotate(-90 8 68)" stroke="#210049" stroke-width="0.09375"/>
<rect x="8" y="65" width="2.99999" height="72" transform="rotate(-90 8 65)" stroke="#210049" stroke-width="0.09375"/>
<rect x="8" y="62" width="3" height="72" transform="rotate(-90 8 62)" stroke="#210049" stroke-width="0.09375"/>
<rect x="8" y="59" width="2.99999" height="72" transform="rotate(-90 8 59)" stroke="#210049" stroke-width="0.09375"/>
<rect x="8" y="56" width="3" height="72" transform="rotate(-90 8 56)" stroke="#210049" stroke-width="0.09375"/>
<rect x="8" y="53" width="2.99999" height="72" transform="rotate(-90 8 53)" stroke="#210049" stroke-width="0.09375"/>
<rect x="8" y="50" width="2.99999" height="72" transform="rotate(-90 8 50)" stroke="#210049" stroke-width="0.09375"/>
<rect x="8" y="47" width="3" height="72" transform="rotate(-90 8 47)" stroke="#210049" stroke-width="0.09375"/>
<rect x="8" y="44" width="2.99999" height="72" transform="rotate(-90 8 44)" stroke="#210049" stroke-width="0.09375"/>
<rect x="8" y="41" width="3" height="72" transform="rotate(-90 8 41)" stroke="#210049" stroke-width="0.09375"/>
<rect x="8" y="38.0002" width="2.99999" height="72" transform="rotate(-90 8 38.0002)" stroke="#210049" stroke-width="0.09375"/>
<rect x="8" y="35.0002" width="3" height="72" transform="rotate(-90 8 35.0002)" stroke="#210049" stroke-width="0.09375"/>
<rect x="8" y="32.0002" width="3" height="72" transform="rotate(-90 8 32.0002)" stroke="#210049" stroke-width="0.09375"/>
<rect x="8" y="29.0002" width="3" height="72" transform="rotate(-90 8 29.0002)" stroke="#210049" stroke-width="0.09375"/>
<rect x="8" y="26.0002" width="3" height="72" transform="rotate(-90 8 26.0002)" stroke="#210049" stroke-width="0.09375"/>
<rect x="8" y="23" width="3" height="72" transform="rotate(-90 8 23)" stroke="#210049" stroke-width="0.09375"/>
<rect x="8" y="20" width="3" height="72" transform="rotate(-90 8 20)" stroke="#210049" stroke-width="0.09375"/>
<rect x="8" y="17" width="3" height="72" transform="rotate(-90 8 17)" stroke="#210049" stroke-width="0.09375"/>
<rect x="8" y="14" width="3" height="72" transform="rotate(-90 8 14)" stroke="#210049" stroke-width="0.09375"/>
<rect x="8" y="11" width="3" height="72" transform="rotate(-90 8 11)" stroke="#210049" stroke-width="0.09375"/>
</g>
<ellipse cx="44" cy="44" rx="12" ry="12" stroke="#210049" stroke-width="0.09375"/>
<path d="M8 8H80M8 8V80M8 8L80 80M80 8V80M80 8L8 80M80 80H8" stroke="#210049" stroke-width="0.09375"/>
<g style="mix-blend-mode:multiply">
<ellipse cx="43.9999" cy="43.9999" rx="29.9999" ry="29.9999" stroke="#F04925" stroke-width="0.09375"/>
</g>
<g style="mix-blend-mode:multiply">
<rect x="14" y="20" width="59.9999" height="48" rx="1.3125" stroke="#F04925" stroke-width="0.09375"/>
</g>
<g style="mix-blend-mode:multiply">
<rect x="68" y="14" width="59.9998" height="48" rx="1.3125" transform="rotate(90 68 14)" stroke="#F04925" stroke-width="0.09375"/>
</g>
<g style="mix-blend-mode:multiply">
<rect x="71" y="17" width="53.9998" height="53.9999" rx="1.3125" transform="rotate(90 71 17)" stroke="#F04925" stroke-width="0.09375"/>
</g>
</g>
<path fill-rule="evenodd" clip-rule="evenodd" d="M64.4138 62.7795C64.4138 62.7795 57.5897 61.195 54.676 60.1453C48.4175 57.8895 35.7686 52.0997 30.8149 52.9838C30.8149 52.9838 28.9509 53.5517 30.1832 50.6335C30.1832 50.6335 32.7029 43.5379 38.0693 42.3982C40.84 41.8141 42.69 43.3779 50.3599 47.5423C53.2937 49.3126 56.1255 51.2466 58.8419 53.3351C58.8419 53.3351 64.0872 56.6633 66.2634 57.7039C66.9741 58.078 67.489 58.7402 67.6763 59.5209C67.8636 60.3017 67.7051 61.1253 67.2414 61.7807C66.5372 62.5832 65.4661 62.9616 64.4138 62.7795V62.7795Z" stroke="#210049" stroke-width="2" stroke-linecap="round" stroke-linejoin="round"/>
<path d="M65.1153 62.7984C65.1153 62.7984 69.353 64.1342 68.9735 58.3963C68.9735 58.3963 69.9619 51.8505 66.687 48.8383C65.2 47.4752 63.1493 46.2345 58.614 45.5371L48.4275 35.8751L46.0608 33.8886L46.3925 35.7842L55.4359 45.4982C52.8384 45.1459 50.353 44.2147 48.1636 42.7733C48.1636 42.7733 40.9461 38.8801 39.2321 37.2693C36.058 34.297 30.9142 32.6246 26.309 35.0008C22.9897 36.7141 19.5212 39.3996 17.162 46.8159C16.6668 48.3759 15.2365 53.8016 20.752 52.8928C22.8181 52.5527 27.7153 51.9367 28.9108 53.0163C29.2668 53.2254 29.7178 53.176 30.0201 52.8949" stroke="#210049" stroke-width="2" stroke-linecap="round" stroke-linejoin="round"/>
<path d="M45.659 33.6756L44.5531 34.5783L51.6512 44.794" stroke="#210049" stroke-linecap="round" stroke-linejoin="round"/>
<path d="M31.0648 48.696C36.0884 48.3795 41.0961 49.528 45.4798 52.0019C49.7717 54.5778 56.3653 56.5353 59.6527 54.0584" stroke="#210049" stroke-linecap="round" stroke-linejoin="round"/>
</svg>
