<svg width="48" height="48" viewBox="0 0 48 48" fill="none" xmlns="http://www.w3.org/2000/svg">
<path fill-rule="evenodd" clip-rule="evenodd" d="M21.6218 45.0152L2.98481 26.3782C1.67173 25.0651 1.67173 22.9357 2.98481 21.6227L21.6218 2.98481C22.9349 1.67173 25.0643 1.67173 26.3773 2.98481L45.0152 21.6227C46.3283 22.9357 46.3283 25.0651 45.0152 26.3782L26.3773 45.0152C25.0643 46.3283 22.9349 46.3283 21.6218 45.0152Z" fill="#E4D2FF"/>
<path d="M21 33H27" stroke="#210049" stroke-linecap="round" stroke-linejoin="round"/>
<path d="M30 21.75V23.25C30 26.55 27.3 29.25 24 29.25C20.7 29.25 18 26.55 18 23.25V21.75" stroke="#210049" stroke-linecap="round" stroke-linejoin="round"/>
<path d="M24 29.25V33" stroke="#210049" stroke-linecap="round" stroke-linejoin="round"/>
<path d="M24.0002 15.0002C23.6056 14.9982 23.2146 15.0744 22.8498 15.2245C22.4849 15.3745 22.1534 15.5954 21.8744 15.8744C21.5954 16.1534 21.3745 16.4849 21.2245 16.8498C21.0744 17.2146 20.9982 17.6056 21.0002 18.0002V23.2033C21.0002 24.8533 22.3595 26.2502 24.0002 26.2502C25.6408 26.2502 27.0002 24.8908 27.0002 23.2033V18.0002C27.0002 16.3127 25.6877 15.0002 24.0002 15.0002Z" stroke="#210049" stroke-linecap="round" stroke-linejoin="round"/>
</svg>
