<?xml version="1.0" encoding="UTF-8" standalone="no"?>
<svg width="88px" height="88px" viewBox="0 0 88 88" version="1.1" xmlns="http://www.w3.org/2000/svg" xmlns:xlink="http://www.w3.org/1999/xlink">
    <!-- Generator: Sketch 44.1 (41455) - http://www.bohemiancoding.com/sketch -->
    <title>Group 12</title>
    <desc>Created with Sketch.</desc>
    <defs></defs>
    <g id="Metas" stroke="none" stroke-width="1" fill="none" fill-rule="evenodd">
        <g id="Group-12" transform="translate(-6.000000, -6.000000)">
            <polygon id="Fill-33-Copy" points="0 100 100 100 100 0 0 0"></polygon>
            <g id="Group-10" transform="translate(6.000000, 6.000000)">
                <path d="M21.1351,82.0593 L0.9891,30.8973 C-0.6019,26.8573 1.3841,22.2923 5.4241,20.7013 L56.5851,0.5553 C60.6261,-1.0367 65.1911,0.9493 66.7821,4.9903 L86.9281,56.1513 C88.5191,60.1913 86.5341,64.7573 82.4931,66.3483 L31.3321,86.4943 C27.2911,88.0853 22.7261,86.1003 21.1351,82.0593" id="Fill-6" fill="#FFE812"></path>
                <g id="Group-14" transform="translate(3.000000, 20.156000)" fill="#EFD40F">
                    <path d="M79.7322,25.3921 C71.7742,27.0841 62.9062,24.6471 55.2412,27.7711 C50.8862,29.5451 47.3762,32.9591 43.5572,35.7941 C38.9352,39.2251 33.8582,40.6171 28.1582,40.8031 C22.0132,41.0021 15.8452,40.4501 9.8532,40.9231 L11.7392,45.7141 C19.0072,45.2611 26.5552,46.4341 33.7482,45.3781 C37.8642,44.7731 41.6112,43.2951 45.0672,40.8951 C49.3362,37.9301 53.0552,33.8581 57.9672,32.2161 C65.4902,29.7011 73.9572,31.9441 81.6232,30.1951 L79.7322,25.3921 Z" id="Fill-8"></path>
                    <path d="M32.6297,33.3145 C41.0857,31.0425 46.3417,22.5245 54.3597,19.3925 C61.2507,16.7015 69.1337,18.3505 75.8467,15.5245 L74.0007,10.8385 C66.6657,14.1965 57.4227,11.8015 50.1547,15.7595 C45.9867,18.0285 42.5547,21.5995 38.7297,24.4945 C34.2457,27.8885 29.3307,29.3245 23.7087,29.2185 C17.2837,29.0965 10.7407,27.4085 4.2997,26.8225 L6.3107,31.9285 C15.1567,32.9105 24.1737,35.5865 32.6297,33.3145" id="Fill-10"></path>
                    <path d="M2.2054,21.5029 C8.4654,21.4529 14.8624,22.1759 20.9984,21.2749 C25.1154,20.6709 28.8624,19.1929 32.3184,16.7929 C36.5864,13.8279 40.3064,9.7559 45.2184,8.1139 C53.7064,5.2759 63.3964,8.4959 71.7804,5.1999 L69.9094,0.4479 C61.2544,3.6819 51.1114,0.1569 42.4924,3.6689 C38.1374,5.4429 34.6264,8.8569 30.8084,11.6919 C26.1864,15.1229 21.1094,16.5149 15.4094,16.7009 C10.3504,16.8649 5.2774,16.5239 0.2984,16.6599 L2.2054,21.5029 Z" id="Fill-12"></path>
                </g>
                <g id="Group-9" transform="translate(3.000000, 4.000000)">
                    <path d="M4.28823529,70.4855422 L67.7117647,70.4855422 L67.7117647,53.0755663 C67.7117647,50.7095784 65.7937526,48.7915663 63.4277647,48.7915663 L8.57223529,48.7915663 C6.20624743,48.7915663 4.28823529,50.7095784 4.28823529,53.0755663 L4.28823529,70.4855422 Z" id="Rectangle" stroke="#210049" stroke-width="1.8"></path>
                    <path d="M11.9117647,48.7987952 L59.2411765,48.7987952 L59.2411765,31.3888193 C59.2411765,29.0228314 57.3231643,27.1048193 54.9571765,27.1048193 L16.1957647,27.1048193 C13.8297768,27.1048193 11.9117647,29.0228314 11.9117647,31.3888193 L11.9117647,48.7987952 Z" id="Rectangle-Copy" stroke="#210049" stroke-width="1.8"></path>
                    <path d="M38.3223435,30.8489232 C37.373882,30.8323904 36.7226056,31.5190427 36.1987276,32.0719369 C35.7243804,32.572408 35.410038,32.8745682 35.0710079,32.8647648 C34.7524733,32.8547953 34.5091665,32.5595306 34.1386944,32.0787494 C33.7044843,31.515221 33.1639148,30.8139467 32.2368028,30.7848689 C31.3212584,30.755708 30.7180378,31.396085 30.1860858,31.9605273 C29.6939602,32.4827652 29.3657213,32.7997966 28.9580622,32.8002951 C28.9578293,32.8002951 28.9575964,32.8002951 28.9573635,32.8002951 C28.5552164,32.8002951 28.2372253,32.482599 27.7617135,31.9594472 C27.2605048,31.4081315 26.6374874,30.7228916 25.691122,30.7228916 C25.6852218,30.7228916 25.6790887,30.7228916 25.6731885,30.7229746 C24.6852886,30.7320303 24.0493839,31.4770875 23.5383932,32.0758416 C23.0805821,32.6123692 22.7768757,32.9383733 22.4242595,32.9383733 C22.4236384,32.9383733 22.423095,32.9383733 22.4225516,32.9383733 C22.0693919,32.9373763 21.7728279,32.6107907 21.3262739,32.0732662 C20.8402815,31.4881371 20.2360517,30.7604435 19.2960523,30.7604435 C19.2924812,30.7604435 19.2888323,30.7604435 19.2851835,30.7604435 C18.9242604,30.7626036 18.6332861,31.077475 18.6353046,31.4637948 C18.6373231,31.8487853 18.9294619,32.1592535 19.2887547,32.1592535 C19.2910061,32.1593366 19.2932575,32.1593366 19.2955865,32.1593366 C19.6251453,32.1593366 19.9138682,32.4782789 20.3493981,33.0025937 C20.8422224,33.5959477 21.4553801,34.3343585 22.419058,34.3373494 C22.4209212,34.3373494 22.4227068,34.3373494 22.4246477,34.3373494 C23.3789318,34.3373494 24.0025702,33.6067481 24.503779,33.0193758 C24.9782815,32.4634076 25.2945647,32.1255232 25.6845231,32.1218677 C26.0636903,32.1202892 26.3646019,32.4286804 26.8249749,32.9350501 C27.3371301,33.4983293 27.974277,34.1991881 28.9574411,34.1991881 C28.9580622,34.1991881 28.9588385,34.1991881 28.9594596,34.1991881 C29.9341616,34.1982743 30.5843511,33.5082988 31.1067541,32.9539091 C31.5573451,32.4757865 31.8570145,32.1830142 32.1819152,32.1830142 C32.1875825,32.1830142 32.1932498,32.1830973 32.1988395,32.1831804 C32.5169859,32.1931499 32.7601374,32.4882484 33.1304543,32.9688635 C33.5648973,33.532475 34.1053892,34.2339154 35.0328893,34.2630763 C35.9586815,34.2944804 36.6000207,33.6133944 37.116834,33.0680604 C37.6050001,32.5528843 37.927727,32.2385113 38.2995966,32.2477332 C38.6637027,32.2530503 38.9583258,31.9469853 38.9646142,31.5607486 C38.9705921,31.1742626 38.6833442,30.8557357 38.3223435,30.8489232 Z" id="Shape" fill="#000000" fill-rule="nonzero"></path>
                    <path d="M51.0282258,30.8489232 C50.0797644,30.8323904 49.428488,31.5190427 48.9046099,32.0719369 C48.4302627,32.572408 48.1159204,32.8745682 47.7768902,32.8647648 C47.4583556,32.8547953 47.2150489,32.5595306 46.8445767,32.0787494 C46.4103666,31.515221 45.8697971,30.8139467 44.9426852,30.7848689 C44.0271407,30.755708 43.4239201,31.396085 42.8919681,31.9605273 C42.3998426,32.4827652 42.0716037,32.7997966 41.6639445,32.8002951 C41.6637116,32.8002951 41.6634787,32.8002951 41.6632458,32.8002951 C41.2610988,32.8002951 40.9431076,32.482599 40.4675959,31.9594472 C39.9663871,31.4081315 39.3433697,30.7228916 38.3970044,30.7228916 C38.3911042,30.7228916 38.384971,30.7228916 38.3790708,30.7229746 C37.391171,30.7320303 36.7552662,31.4770875 36.2442755,32.0758416 C35.7864645,32.6123692 35.4827581,32.9383733 35.1301419,32.9383733 C35.1295208,32.9383733 35.1289774,32.9383733 35.1284339,32.9383733 C34.7752743,32.9373763 34.4787102,32.6107907 34.0321562,32.0732662 C33.5461638,31.4881371 32.941934,30.7604435 32.0019347,30.7604435 C31.9983635,30.7604435 31.9947147,30.7604435 31.9910659,30.7604435 C31.6301428,30.7626036 31.3391684,31.077475 31.3411869,31.4637948 C31.3432054,31.8487853 31.6353443,32.1592535 31.994637,32.1592535 C31.9968884,32.1593366 31.9991399,32.1593366 32.0014689,32.1593366 C32.3310276,32.1593366 32.6197506,32.4782789 33.0552805,33.0025937 C33.5481047,33.5959477 34.1612625,34.3343585 35.1249404,34.3373494 C35.1268036,34.3373494 35.1285892,34.3373494 35.1305301,34.3373494 C36.0848141,34.3373494 36.7084526,33.6067481 37.2096614,33.0193758 C37.6841638,32.4634076 38.000447,32.1255232 38.3904055,32.1218677 C38.7695727,32.1202892 39.0704843,32.4286804 39.5308572,32.9350501 C40.0430125,33.4983293 40.6801593,34.1991881 41.6633235,34.1991881 C41.6639445,34.1991881 41.6647209,34.1991881 41.665342,34.1991881 C42.6400439,34.1982743 43.2902334,33.5082988 43.8126364,32.9539091 C44.2632274,32.4757865 44.5628969,32.1830142 44.8877975,32.1830142 C44.8934648,32.1830142 44.8991322,32.1830973 44.9047219,32.1831804 C45.2228683,32.1931499 45.4660198,32.4882484 45.8363366,32.9688635 C46.2707797,33.532475 46.8112715,34.2339154 47.7387717,34.2630763 C48.6645639,34.2944804 49.305903,33.6133944 49.8227163,33.0680604 C50.3108825,32.5528843 50.6336093,32.2385113 51.0054789,32.2477332 C51.369585,32.2530503 51.6642082,31.9469853 51.6704966,31.5607486 C51.6764745,31.1742626 51.3892266,30.8557357 51.0282258,30.8489232 Z" id="Shape-Copy-2" fill="#000000" fill-rule="nonzero"></path>
                    <path d="M44.112454,53.39347 C42.9096847,53.3550797 42.1098154,54.1720756 41.4034969,54.8910829 C40.8214346,55.4834319 40.3186706,55.9954657 39.7009289,55.9995895 C39.2215047,55.9888873 38.8778153,55.6223634 38.3584072,55.0262834 C37.7650576,54.3457645 37.0266946,53.4987241 35.781837,53.4762398 C35.7660539,53.4760434 35.750462,53.4757489 35.7347746,53.4757489 C34.5140221,53.4757489 33.6606815,54.3394807 32.9733027,55.0352182 C32.4095106,55.6058684 31.9231992,56.0969888 31.3974779,56.0828502 C30.9353673,56.0690061 30.5974172,55.6767578 30.0843224,55.0381638 C29.5085734,54.321611 28.7921154,53.4297984 27.576624,53.3932736 C26.3749069,53.3548834 25.5738897,54.1718792 24.8676668,54.8908866 C24.2836914,55.4853956 23.7793012,55.9987058 23.1586899,55.9993931 C23.1584029,55.9993931 23.1579246,55.9993931 23.1576377,55.9993931 C22.5857148,55.9993931 22.1464658,55.5795548 21.4913229,54.8886283 C20.8255623,54.1862142 19.9980486,53.313253 18.7540519,53.313253 C18.7463038,53.313253 18.7383644,53.313253 18.730712,53.3133512 C17.4320004,53.3247406 16.5870775,54.2743841 15.9080207,55.0374765 C15.2767916,55.7469599 14.8565781,56.1779913 14.3499878,56.1779913 C14.3491269,56.1779913 14.348266,56.1779913 14.3474051,56.1779913 C13.8396669,56.1765185 13.4291145,55.7444071 12.8130946,55.0331564 C12.1655085,54.2852826 11.3621956,53.3583198 10.1183901,53.3616581 C9.67368882,53.3642109 9.31517288,53.7363314 9.31765992,54.1928907 C9.32014696,54.647781 9.68009772,55.0147958 10.1227903,55.0147958 C10.1246077,55.0149922 10.1261382,55.0149922 10.1276687,55.0149922 C10.6080495,55.0079229 11.006358,55.4350268 11.6094644,56.1315498 C12.2637464,56.8871802 13.0780597,57.8276925 14.3430049,57.8313253 C14.3455876,57.8313253 14.347979,57.8313253 14.3506574,57.8313253 C15.6033587,57.8312271 16.3971061,56.9394145 17.0973983,56.152365 C17.7509151,55.4178444 18.187964,54.9714963 18.744582,54.9664889 C18.7475473,54.9664889 18.7506083,54.9664889 18.7534779,54.9664889 C19.2796775,54.9664889 19.7037173,55.3733667 20.3370508,56.0416126 C21.0174467,56.7595399 21.8641872,57.6527271 23.157542,57.6527271 C23.1584029,57.6527271 23.1592638,57.6527271 23.1601247,57.6527271 C24.4429575,57.6515489 25.3072028,56.771813 26.00166,56.0649805 C26.6339413,55.4213791 27.0494678,55.0327636 27.5295616,55.0458222 C27.9911939,55.0596663 28.3289526,55.4517182 28.8418562,56.0900177 C29.4177009,56.8066686 30.1343501,57.6987758 31.3502242,57.7353006 C32.5646634,57.7739854 33.381942,56.9433419 34.1041393,56.2123559 C34.6838102,55.6256035 35.182748,55.1154352 35.7533317,55.1290829 C36.2690092,55.1383123 36.623125,55.5149492 37.1580293,56.1286043 C37.7425786,56.7992066 38.4701326,57.6337775 39.6829457,57.6524326 C39.6872502,57.6524326 39.6915546,57.6525308 39.6958591,57.6525308 C40.9786919,57.6513525 41.8429372,56.7716166 42.5373944,56.0647842 C43.1697714,55.4211827 43.5867327,55.0341382 44.065296,55.0456258 C44.5104756,55.0596663 44.8807571,54.6999171 44.8937663,54.2436523 C44.9067754,53.7874857 44.5569641,53.4068231 44.112454,53.39347 Z" id="Shape" fill="#000000" fill-rule="nonzero"></path>
                    <path d="M61.0536305,53.39347 C59.8508612,53.3550797 59.0509919,54.1720756 58.3446734,54.8910829 C57.7626111,55.4834319 57.259847,55.9954657 56.6421053,55.9995895 C56.1626811,55.9888873 55.8189918,55.6223634 55.2995837,55.0262834 C54.7062341,54.3457645 53.9678711,53.4987241 52.7230134,53.4762398 C52.7072303,53.4760434 52.6916385,53.4757489 52.6759511,53.4757489 C51.4551986,53.4757489 50.6018579,54.3394807 49.9144792,55.0352182 C49.3506871,55.6058684 48.8643757,56.0969888 48.3386544,56.0828502 C47.8765438,56.0690061 47.5385937,55.6767578 47.0254989,55.0381638 C46.4497498,54.321611 45.7332919,53.4297984 44.5178004,53.3932736 C43.3160833,53.3548834 42.5150661,54.1718792 41.8088433,54.8908866 C41.2248679,55.4853956 40.7204777,55.9987058 40.0998663,55.9993931 C40.0995794,55.9993931 40.0991011,55.9993931 40.0988141,55.9993931 C39.5268913,55.9993931 39.0876423,55.5795548 38.4324994,54.8886283 C37.7667388,54.1862142 36.9392251,53.313253 35.6952283,53.313253 C35.6874803,53.313253 35.6795409,53.313253 35.6718884,53.3133512 C34.3731769,53.3247406 33.5282539,54.2743841 32.8491972,55.0374765 C32.2179681,55.7469599 31.7977545,56.1779913 31.2911643,56.1779913 C31.2903034,56.1779913 31.2894425,56.1779913 31.2885816,56.1779913 C30.7808434,56.1765185 30.370291,55.7444071 29.7542711,55.0331564 C29.106685,54.2852826 28.303372,53.3583198 27.0595666,53.3616581 C26.6148653,53.3642109 26.2563494,53.7363314 26.2588364,54.1928907 C26.2613234,54.647781 26.6212742,55.0147958 27.0639668,55.0147958 C27.0657842,55.0149922 27.0673147,55.0149922 27.0688452,55.0149922 C27.5492259,55.0079229 27.9475344,55.4350268 28.5506409,56.1315498 C29.2049229,56.8871802 30.0192362,57.8276925 31.2841814,57.8313253 C31.2867641,57.8313253 31.2891555,57.8313253 31.2918338,57.8313253 C32.5445352,57.8312271 33.3382826,56.9394145 34.0385748,56.152365 C34.6920916,55.4178444 35.1291405,54.9714963 35.6857585,54.9664889 C35.6887238,54.9664889 35.6917847,54.9664889 35.6946544,54.9664889 C36.220854,54.9664889 36.6448938,55.3733667 37.2782273,56.0416126 C37.9586232,56.7595399 38.8053636,57.6527271 40.0987185,57.6527271 C40.0995794,57.6527271 40.1004403,57.6527271 40.1013012,57.6527271 C41.3841339,57.6515489 42.2483793,56.771813 42.9428365,56.0649805 C43.5751178,55.4213791 43.9906443,55.0327636 44.470738,55.0458222 C44.9323703,55.0596663 45.2701291,55.4517182 45.7830326,56.0900177 C46.3588773,56.8066686 47.0755266,57.6987758 48.2914007,57.7353006 C49.5058399,57.7739854 50.3231185,56.9433419 51.0453157,56.2123559 C51.6249867,55.6256035 52.1239245,55.1154352 52.6945082,55.1290829 C53.2101857,55.1383123 53.5643015,55.5149492 54.0992057,56.1286043 C54.6837551,56.7992066 55.411309,57.6337775 56.6241221,57.6524326 C56.6284266,57.6524326 56.6327311,57.6525308 56.6370356,57.6525308 C57.9198684,57.6513525 58.7841137,56.7716166 59.4785709,56.0647842 C60.1109479,55.4211827 60.5279092,55.0341382 61.0064725,55.0456258 C61.4516521,55.0596663 61.8219336,54.6999171 61.8349427,54.2436523 C61.8479518,53.7874857 61.4981405,53.4068231 61.0536305,53.39347 Z" id="Shape-Copy" fill="#000000" fill-rule="nonzero"></path>
                    <rect id="Rectangle-2" stroke="#210049" stroke-width="1.8" x="32.2411765" y="14.4542169" width="6.67058824" height="12.6578313" rx="0.9"></rect>
                    <path d="M34.5664999,1.04272355 C32.901194,3.35122403 32.1104471,5.25990479 32.1942593,6.76876584 C32.2903775,8.4991715 33.2672755,9.55616923 35.1249532,9.93975904 C37.2877208,9.46307243 38.2782426,8.29342565 38.0965186,6.43081871 C37.9428341,4.85560569 37.2659136,3.07941798 36.0657572,1.10225557 L36.0657572,1.10225557 C35.8078373,0.677352942 35.2543002,0.541986722 34.8293976,0.799906656 C34.7263941,0.86243077 34.6369944,0.945001891 34.5664999,1.04272355 Z" id="Path-2" stroke="#210049" stroke-width="1.8"></path>
                    <rect id="Rectangle-4" stroke="#210049" stroke-width="1.8" x="0.9" y="70.4783133" width="70.2" height="3.62168675" rx="0.9"></rect>
                </g>
            </g>
        </g>
    </g>
</svg>