<svg width="88" height="88" viewBox="0 0 88 88" fill="none" xmlns="http://www.w3.org/2000/svg">
<path d="M22.0073 81.0919L2.52126 31.8315C1.00778 27.9549 2.89963 23.5111 6.77791 21.9983L56.1551 2.52102C60.0334 1.00823 64.4792 2.89922 65.9927 6.77576L85.4787 56.2253C86.9922 60.1019 85.1004 64.5457 81.2221 66.0585L31.8449 85.4412C27.872 87.0485 23.5208 85.063 22.0073 81.0919Z" fill="#FFF69F"/>
<path d="M81.5059 46.0139C73.8439 47.6213 65.3306 45.3521 57.8578 48.2831C53.6011 49.985 50.1958 53.2943 46.6013 56.0362C42.1554 59.3454 37.2366 60.6691 31.7503 60.8582C25.8856 61.0473 19.8317 60.5746 14.0615 61.0473L15.8588 65.6803C22.9532 65.2075 30.1422 66.3421 37.1421 65.3966C41.1149 64.8293 44.804 63.4111 48.0202 61.0473C52.1822 58.1163 55.7767 54.3343 60.5064 52.6324C67.79 50.1741 75.9249 52.3488 83.3977 50.7414L81.5059 46.0139Z" fill="#FFEF57"/>
<path d="M36.1015 53.6725C44.331 51.4978 49.3444 43.272 57.0064 40.2464C63.6279 37.599 71.2898 39.3009 77.7221 36.4644L76.0194 31.926C69.0196 35.2353 60.0333 32.8715 53.0335 36.6535C48.966 38.8282 45.6553 42.232 42.0608 45.0684C37.7096 48.3777 32.9799 49.7014 27.5882 49.6068C21.4397 49.5123 15.0074 47.9049 8.85889 47.3376L10.7507 52.2542C19.1695 53.1997 27.8719 55.8471 36.1015 53.6725Z" fill="#FFEF57"/>
<path d="M6.77821 42.2318C12.8321 42.2318 19.0752 42.8937 24.9399 42.0427C28.9128 41.4754 32.6019 40.0572 35.8181 37.6934C39.9801 34.7624 43.5746 30.9804 48.3042 29.2785C56.5338 26.5366 65.8984 29.6567 73.9388 26.442L72.1415 21.8091C63.7228 24.9292 53.9798 21.5254 45.6557 24.9292C41.399 26.6311 37.9937 29.9404 34.3992 32.6823C29.9533 35.9916 25.0345 37.3152 19.5482 37.5043C14.6294 37.6934 9.80517 37.3152 4.98096 37.5043L6.77821 42.2318Z" fill="#FFEF57"/>
<path d="M39.1025 65.4522C40.6703 65.8073 42.2848 66 43.9571 66C56.0131 66 65.8186 56.1849 65.8186 44.1289C65.8186 41.8702 65.4731 39.6873 64.8276 37.6392" stroke="#230049" stroke-width="2.23729" stroke-linecap="round" stroke-linejoin="round"/>
<path d="M64.317 36.2029L60.9448 42.3678" stroke="#230049" stroke-width="2.23729" stroke-linecap="round" stroke-linejoin="round"/>
<path d="M64.3169 36.2029L70.4818 39.5751" stroke="#230049" stroke-width="2.23729" stroke-linecap="round" stroke-linejoin="round"/>
<path d="M48.6155 22.5478C47.0491 22.1913 45.4332 22 43.7609 22C31.7049 22 21.8994 31.8152 21.8994 43.8711C21.8994 46.1298 22.2449 48.3114 22.8904 50.3595" stroke="#230049" stroke-width="2.23729" stroke-linecap="round" stroke-linejoin="round"/>
<path d="M23.5242 51.7046L17 49.095" stroke="#230049" stroke-width="2.23729" stroke-linecap="round" stroke-linejoin="round"/>
<path d="M23.5239 51.7046L26.1322 45.1804" stroke="#230049" stroke-width="2.23729" stroke-linecap="round" stroke-linejoin="round"/>
<path fill-rule="evenodd" clip-rule="evenodd" d="M42.977 41.2571C40.7557 40.6196 39.2548 39.4083 39.2548 37.1132C39.2548 34.7225 40.9058 33.0969 42.977 33.0331V41.2571ZM44.4179 43.9665C46.6993 44.7315 48.3503 46.2297 48.3503 48.3973C48.3503 51.553 46.189 52.6686 44.4179 52.7324V43.9665ZM42.9768 52.7323C41.7161 52.7005 39.4347 51.8398 38.3541 49.9273L36.6431 51.2023C38.0839 53.1467 40.2752 54.5174 42.9768 54.5811V58.3292H44.4177V54.5811C47.8697 54.5174 50.5113 52.0948 50.5113 48.5566C50.5113 44.4128 47.4495 42.9146 44.4177 41.799V33.0331C45.8586 33.065 47.3895 33.7663 48.32 35.1688L49.971 33.83C48.6202 32.1406 46.3388 31.3118 44.4177 31.2481V27.5H42.9768V31.2481C39.855 31.4075 37.1834 33.6069 37.1834 37.3045C37.1834 41.1933 40.2452 42.6915 42.9768 43.584V52.7323Z" fill="#230049"/>
</svg>
