<svg width="208" height="210" viewBox="0 0 208 210" fill="none" xmlns="http://www.w3.org/2000/svg">
<g opacity="0.95">
<path fill-rule="evenodd" clip-rule="evenodd" d="M1.53747 101.256L100.291 1.55225C102.34 -0.515695 105.657 -0.519138 107.709 1.55225L206.463 101.256C208.511 103.324 208.514 106.673 206.463 108.744L107.709 208.448C105.66 210.516 102.343 210.519 100.291 208.448L1.53747 108.744C-0.510784 106.676 -0.514194 103.327 1.53747 101.256Z" fill="#FF585F"/>
</g>
<path d="M61.6826 157.536V149.52H60.0986V157.536H61.6826ZM61.9706 147.168C61.9706 146.608 61.5066 146.112 60.8986 146.112C60.3066 146.112 59.8266 146.592 59.8266 147.152C59.8266 147.728 60.2906 148.208 60.8986 148.208C61.5066 148.208 61.9706 147.744 61.9706 147.168ZM73.3943 151.376C72.7223 152.352 71.6183 152.88 70.3543 152.88C67.7463 152.88 66.0983 150.864 66.0983 148.32C66.0983 145.84 67.7783 143.776 70.4023 143.776C71.5703 143.776 72.6743 144.336 73.2183 145.104L74.4663 144.144C73.6343 142.992 71.9543 142.384 70.4023 142.384C66.9623 142.384 64.3703 144.784 64.3703 148.32C64.3703 151.808 66.8663 154.288 70.3383 154.288C72.3223 154.288 73.7783 153.44 74.6583 152.24L73.3943 151.376ZM80.6332 149.296C78.0732 149.296 75.3532 149.568 75.3532 151.856C75.3532 153.6 76.9052 154.192 78.1052 154.192C79.2412 154.192 80.1052 153.728 80.6492 152.912H80.6972C80.6972 153.264 80.7452 153.664 80.8252 154H82.1852C82.1052 153.632 82.0732 153.008 82.0732 152.496V149.184C82.0732 147.504 81.0812 146.208 78.9052 146.208C77.6732 146.208 76.5372 146.64 75.8012 147.344L76.6012 148.304C77.1132 147.792 77.9132 147.424 78.7612 147.424C79.8812 147.424 80.6332 147.968 80.6332 149.088V149.296ZM80.6332 150.384V150.784C80.6332 152.064 79.8492 153.008 78.4412 153.008C77.6892 153.008 76.8892 152.72 76.8892 151.824C76.8892 150.544 78.7772 150.384 80.2652 150.384H80.6332ZM84.5211 146.416C84.5691 146.912 84.5851 147.648 84.5851 148.048V154H86.0891V149.968C86.0891 148.464 86.9371 147.472 88.1211 147.472C89.5131 147.472 89.8491 148.56 89.8491 149.792V154H91.3531V149.296C91.3531 147.6 90.4731 146.208 88.5211 146.208C87.4331 146.208 86.4251 146.848 86.0571 147.664H86.0091C86.0091 147.344 85.9771 146.8 85.9451 146.416H84.5211ZM100.298 147.456C99.6736 146.64 98.5216 146.208 97.4496 146.208C95.1296 146.208 93.4016 147.824 93.4016 150.208C93.4016 152.624 95.1456 154.208 97.4816 154.208C98.6976 154.208 99.6736 153.76 100.314 153.024L99.3056 152.112C98.9056 152.624 98.2496 152.944 97.4816 152.944C95.8976 152.944 94.9856 151.648 94.9856 150.208C94.9856 148.752 95.8976 147.472 97.4656 147.472C98.1856 147.472 98.8896 147.84 99.2096 148.336L100.298 147.456ZM102.844 149.536C102.94 148.352 103.932 147.392 105.228 147.392C106.62 147.392 107.324 148.336 107.356 149.536H102.844ZM108.876 150.144C108.876 147.728 107.468 146.208 105.228 146.208C103.004 146.208 101.308 147.856 101.308 150.224C101.308 152.608 103.004 154.208 105.308 154.208C106.652 154.208 107.756 153.712 108.572 152.656L107.516 151.808C107.084 152.448 106.332 152.96 105.308 152.96C103.98 152.96 102.892 151.952 102.844 150.656H108.86C108.876 150.48 108.876 150.304 108.876 150.144ZM112.512 141.904H111.008V154H112.512V141.904ZM119.852 149.296C117.292 149.296 114.572 149.568 114.572 151.856C114.572 153.6 116.124 154.192 117.324 154.192C118.46 154.192 119.324 153.728 119.868 152.912H119.916C119.916 153.264 119.964 153.664 120.044 154H121.404C121.324 153.632 121.292 153.008 121.292 152.496V149.184C121.292 147.504 120.3 146.208 118.124 146.208C116.892 146.208 115.756 146.64 115.02 147.344L115.82 148.304C116.332 147.792 117.132 147.424 117.98 147.424C119.1 147.424 119.852 147.968 119.852 149.088V149.296ZM119.852 150.384V150.784C119.852 152.064 119.068 153.008 117.66 153.008C116.908 153.008 116.108 152.72 116.108 151.824C116.108 150.544 117.996 150.384 119.484 150.384H119.852ZM129.852 152.8H129.884V154H131.34V141.904H129.836V147.552H129.804C129.276 146.816 128.332 146.208 127.1 146.208C124.828 146.208 123.292 147.952 123.292 150.192C123.292 152.416 124.78 154.208 127.116 154.208C128.188 154.208 129.276 153.712 129.852 152.8ZM124.86 150.192C124.86 148.768 125.724 147.456 127.372 147.456C128.908 147.456 129.932 148.752 129.932 150.208C129.932 151.664 128.908 152.944 127.372 152.944C125.724 152.944 124.86 151.616 124.86 150.192ZM141.64 150.192C141.64 147.856 139.864 146.208 137.544 146.208C135.224 146.208 133.464 147.856 133.464 150.192C133.464 152.528 135.224 154.208 137.544 154.208C139.864 154.208 141.64 152.528 141.64 150.192ZM140.072 150.192C140.072 151.632 139.176 152.944 137.544 152.944C135.928 152.944 135.016 151.632 135.016 150.192C135.016 148.752 135.928 147.456 137.544 147.456C139.176 147.456 140.072 148.752 140.072 150.192ZM145.886 142.672H144.302V150.688H145.886V142.672ZM146.174 153.04C146.174 152.464 145.71 152 145.102 152C144.494 152 144.03 152.48 144.03 153.056C144.03 153.616 144.51 154.096 145.102 154.096C145.71 154.096 146.174 153.6 146.174 153.04Z" fill="white"/>
<path d="M78.2162 61.7162L129.073 112.573" stroke="white" stroke-width="6" stroke-linecap="round" stroke-linejoin="round"/>
<path d="M78.2162 113.284L129.073 62.4274" stroke="white" stroke-width="6" stroke-linecap="round" stroke-linejoin="round"/>
</svg>
