<svg width="56" height="56" viewBox="0 0 56 56" fill="none" xmlns="http://www.w3.org/2000/svg">
<path d="M24.5 22.25C24.2239 22.25 24 22.4739 24 22.75C24 23.0261 24.2239 23.25 24.5 23.25V22.25ZM31.5 23.25C31.7761 23.25 32 23.0261 32 22.75C32 22.4739 31.7761 22.25 31.5 22.25V23.25ZM24.5 23.25H31.5V22.25H24.5V23.25Z" fill="#742FE1"/>
<path d="M24.5 43C24.5 42.4477 24.9477 42 25.5 42H30.5C31.0523 42 31.5 42.4477 31.5 43V50.75H24.5V43Z" stroke="#742FE1"/>
<path d="M17.5 33.25H14" stroke="#742FE1" stroke-linecap="round"/>
<path d="M42 33.25H38.5" stroke="#742FE1" stroke-linecap="round"/>
<path d="M17.5 5.5C17.5 4.39543 18.3954 3.5 19.5 3.5H36.5C37.6046 3.5 38.5 4.39543 38.5 5.5V50.75H17.5L17.5 5.5Z" stroke="#210049" stroke-width="2"/>
<path d="M24.5 11.75C24.2239 11.75 24 11.9739 24 12.25C24 12.5261 24.2239 12.75 24.5 12.75V11.75ZM31.5 12.75C31.7761 12.75 32 12.5261 32 12.25C32 11.9739 31.7761 11.75 31.5 11.75V12.75ZM24.5 12.75H31.5V11.75H24.5V12.75Z" fill="#210049"/>
<path d="M24.5 32.75C24.2239 32.75 24 32.9739 24 33.25C24 33.5261 24.2239 33.75 24.5 33.75V32.75ZM31.5 33.75C31.7761 33.75 32 33.5261 32 33.25C32 32.9739 31.7761 32.75 31.5 32.75V33.75ZM24.5 33.75H31.5V32.75H24.5V33.75Z" fill="#210049"/>
<path d="M38.5 15.75H48C48.5523 15.75 49 16.1977 49 16.75L49 50.75H38.5" stroke="#210049" stroke-width="2" stroke-linejoin="round"/>
<path d="M17.5 15.75H8C7.44771 15.75 7 16.1977 7 16.75V50.75H17.5" stroke="#210049" stroke-width="2" stroke-linejoin="round"/>
<path d="M17.5 40.25H14" stroke="#210049" stroke-linecap="round"/>
<path d="M42 40.25H38.5" stroke="#210049" stroke-linecap="round"/>
</svg>
