<svg width="56" height="56" viewBox="0 0 56 56" fill="none" xmlns="http://www.w3.org/2000/svg">
<path d="M21 47.25L35 47.25" stroke="#742FE1" stroke-linecap="round"/>
<path d="M10.5 29.75H45.5" stroke="#742FE1"/>
<path d="M11.75 6.25H44.25C45.3546 6.25 46.25 7.14543 46.25 8.25V38.75C46.25 40.9591 44.4591 42.75 42.25 42.75H13.75C11.5409 42.75 9.75 40.9591 9.75 38.75V8.25C9.75 7.14543 10.6454 6.25 11.75 6.25Z" stroke="#210049" stroke-width="2"/>
<circle cx="17.5" cy="35" r="1.25" fill="#210049" stroke="#210049"/>
<circle cx="38.5" cy="35" r="1.25" fill="#210049" stroke="#210049"/>
<path d="M44.5937 50.2131C44.8902 50.6791 44.7528 51.2972 44.2869 51.5937C43.8209 51.8902 43.2028 51.7528 42.9063 51.2869L44.5937 50.2131ZM39.3437 41.9631L44.5937 50.2131L42.9063 51.2869L37.6563 43.0369L39.3437 41.9631Z" fill="#210049"/>
<path d="M11.4063 50.2131C11.1098 50.6791 11.2472 51.2972 11.7131 51.5937C12.1791 51.8902 12.7972 51.7528 13.0937 51.2869L11.4063 50.2131ZM16.6563 41.9631L11.4063 50.2131L13.0937 51.2869L18.3437 43.0369L16.6563 41.9631Z" fill="#210049"/>
</svg>
