<svg width="56" height="56" viewBox="0 0 56 56" fill="none" xmlns="http://www.w3.org/2000/svg">
<path d="M25 42C25 45.866 21.866 49 18 49C14.134 49 11 45.866 11 42" stroke="#210049" stroke-width="2"/>
<path d="M44.25 35C48.116 35 51.25 38.134 51.25 42C51.25 45.866 48.116 49 44.25 49C40.8164 49 37.9603 46.9294 37.3643 42.7883L37.25 42" stroke="#210049" stroke-width="2"/>
<path d="M44.0074 19.1652C40.555 19.7923 40.0696 22.0111 40.0082 22.4311C40.0014 22.4782 39.9999 22.5213 40.0024 22.5688C40.0281 23.0579 40.3358 26.0138 44.0128 26.8052C45.0927 27.0376 46 26.1046 46 25V21C46 19.8954 45.0942 18.9678 44.0074 19.1652Z" stroke="#742FE1" stroke-linecap="round"/>
<path d="M31.9429 42V31.59C31.9429 29.1455 30.7551 26.9858 28.3368 26.6282V26.6282C27.8061 26.5497 27.0868 25.9294 27.3373 25.455L29.5018 21.3538C29.7532 20.8775 30.3366 20.6858 30.8215 20.9203L37.1905 24L39 23L31.1467 15.75C28.864 15.75 27.0108 14.5833 26.3695 14L21 25V32" stroke="#210049" stroke-width="2" stroke-linejoin="round"/>
<path d="M23.75 32H13.75C11.5409 32 9.75 33.7909 9.75 36V42H25.75V34C25.75 32.8954 24.8546 32 23.75 32Z" stroke="#210049" stroke-width="2"/>
<path d="M38.75 23L36.75 24V42H43.8611V41.4967L44.6714 35.073C44.7226 34.6676 44.6483 34.2563 44.4587 33.8944L38.75 23Z" stroke="#210049" stroke-width="2" stroke-linecap="round"/>
<path d="M23.75 42H45.1139" stroke="#210049" stroke-width="2" stroke-linecap="round"/>
<circle cx="31" cy="9" r="4" stroke="#210049" stroke-width="2"/>
<rect x="8.5" y="18.5" width="12" height="13" rx="1.5" stroke="#742FE1"/>
<path d="M8 21H5" stroke="#742FE1" stroke-linecap="round"/>
<path d="M8 25H2" stroke="#742FE1" stroke-linecap="round"/>
<path d="M8 29H5" stroke="#742FE1" stroke-linecap="round"/>
</svg>
