<svg width="56" height="56" viewBox="0 0 56 56" fill="none" xmlns="http://www.w3.org/2000/svg">
<path d="M27.9938 37.5322L25.5878 43.9482" stroke="#742FE1"/>
<path d="M36.0138 19.8881L40.8258 15.076" stroke="#210049" stroke-linecap="round" stroke-linejoin="round"/>
<path d="M48.3182 35.7073L47.8084 34.847L48.3182 35.7073ZM22.3317 31.8302C15.4997 24.9982 14.4989 14.4797 19.3148 6.35347L17.5943 5.3338C12.3372 14.2045 13.4059 25.7328 20.9175 33.2444L22.3317 31.8302ZM47.8084 34.847C39.6822 39.6629 29.1636 38.6621 22.3317 31.8302L20.9175 33.2444C28.4291 40.756 39.9574 41.8247 48.8281 36.5676L47.8084 34.847ZM49.1952 33.489L20.6728 4.96669L19.2586 6.3809L47.781 34.9032L49.1952 33.489ZM48.8281 36.5676C49.9652 35.8936 50.0751 34.369 49.1952 33.489L47.781 34.9032C47.7833 34.9056 47.7817 34.9046 47.7805 34.9009C47.7796 34.8984 47.7791 34.8953 47.7795 34.8912C47.78 34.8869 47.7819 34.8786 47.7883 34.8683C47.7957 34.8565 47.8047 34.8492 47.8084 34.847L48.8281 36.5676ZM19.3148 6.35347C19.3126 6.35721 19.3054 6.36617 19.2936 6.37355C19.2833 6.37999 19.275 6.38185 19.2707 6.38231C19.2665 6.38276 19.2635 6.38226 19.2609 6.38139C19.2572 6.38011 19.2563 6.37859 19.2586 6.3809L20.6728 4.96669C19.7929 4.08676 18.2682 4.19664 17.5943 5.3338L19.3148 6.35347Z" fill="#210049"/>
<ellipse cx="43.2319" cy="12.67" rx="2.40601" ry="2.40601" stroke="#742FE1" stroke-width="2"/>
<path d="M34.4098 44.5522H18.3698C16.9316 44.5522 15.7658 45.7181 15.7658 47.1563C15.7658 48.5944 16.9316 49.7603 18.3698 49.7603H34.4098C35.848 49.7603 37.0139 48.5944 37.0139 47.1563C37.0139 45.7181 35.848 44.5522 34.4098 44.5522Z" stroke="#210049" stroke-width="2" stroke-linecap="round"/>
</svg>
