<svg width="56" height="56" viewBox="0 0 56 56" fill="none" xmlns="http://www.w3.org/2000/svg">
<path d="M38.6006 8.75C31.5 8.75 28 15.75 28 15.75C28 15.75 24.5 8.75 17.3994 8.75C11.6288 8.75 7.05908 13.5778 7.00002 19.3386C6.87971 31.2966 16.4861 39.8005 27.0156 46.947C27.3059 47.1445 27.6489 47.2501 28 47.2501C28.3511 47.2501 28.6941 47.1445 28.9844 46.947C39.5128 39.8005 49.1192 31.2966 49 19.3386C48.941 13.5778 44.3713 8.75 38.6006 8.75Z" stroke="#210049" stroke-width="2" stroke-linecap="round" stroke-linejoin="round"/>
<path d="M19 12.2429C16.3333 11.5042 10.8 12.0213 10 20" stroke="#742FE1" stroke-linecap="round"/>
</svg>
