<svg width="56" height="56" viewBox="0 0 56 56" fill="none" xmlns="http://www.w3.org/2000/svg">
<path d="M20.2526 12.8393C11.8177 15.0582 7 21.631 7 29.3655C7 35.9185 10.3233 40.4258 15.1477 43.1213V47.6875C15.1477 48.4124 15.7721 49 16.5413 49H21.9299C22.7 49 23.3235 48.4124 23.3235 47.6875V45.8415C26.7872 46.3925 30.4546 46.3541 33.952 45.7743V47.6875C33.952 48.4124 34.5755 49 35.3455 49H40.7341C41.5033 49 42.1277 48.4124 42.1277 47.6875V43.2231C47.4903 40.5922 51.5054 35.3343 52.3398 30.0754C52.5128 28.9845 51.6046 28.0842 50.5 28.0842H47.5543C47.5543 22.677 45.8665 19.4315 41.7509 16.5486C41.7509 16.5486 43.5978 13.9027 41.7509 12.5911C39.9039 11.2794 37.6166 14.174 37.6166 14.174C37.6166 14.174 35.3455 12.8393 33.4823 12.8393" stroke="#210049" stroke-width="2" stroke-linejoin="round"/>
<path d="M36.75 26.25C36.75 24.3171 37.9247 22.75 39.3744 22.75C40.824 22.75 42 24.3171 42 26.25" stroke="#210049" stroke-linecap="round"/>
<path d="M8.13888 20.8496C8.13888 20.8496 6.23295 19.8978 6.04354 17.5001" stroke="#210049" stroke-linecap="round"/>
<circle cx="26.25" cy="12.25" r="7" stroke="#FF2F73" stroke-width="2"/>
<path d="M29.75 12.25C29.75 10.317 28.183 8.75 26.25 8.75C24.317 8.75 22.75 10.317 22.75 12.25" stroke="#210049" stroke-linecap="round" stroke-linejoin="round"/>
</svg>
