<svg width="32" height="32" viewBox="0 0 32 32" fill="none" xmlns="http://www.w3.org/2000/svg">
<path d="M19.5 26V26.25C19.5 27.2165 18.7165 28 17.75 28V28C16.7835 28 16 27.2165 16 26.25V13.5M16 1.5L16 3" stroke="#210049" stroke-width="1.5" stroke-linecap="round" stroke-linejoin="round"/>
<path d="M11.0001 15C11.0001 15 10.5001 3 16.0001 3C21.5001 3 21.0001 15 21.0001 15" stroke="#742FE1" stroke-width="1.5" stroke-linejoin="round"/>
<path d="M16 3C4 3 4 15 4 15C6 13 9 13 11 15C15 12 17 12 21 15C23 13 26 13 28 15C28 15 28 3 16 3Z" stroke="#210049" stroke-width="1.5" stroke-linejoin="round"/>
</svg>
