<svg width="56" height="56" viewBox="0 0 56 56" fill="none" xmlns="http://www.w3.org/2000/svg">
<path d="M19.8934 19.5L45.8934 15" stroke="#742FE1" stroke-miterlimit="10"/>
<path d="M19.5315 40.4479C19.5315 43 18.7173 46.0651 15.6035 47.1985C12.4896 48.3318 9.19966 47.147 8.2552 44.5521C7.31073 41.9572 9.06938 38.9349 12.1833 37.8015C15.2971 36.6682 18.587 37.853 19.5315 40.4479ZM19.5315 40.4479L19.8503 15.8229C19.8753 13.8966 21.2697 12.2618 23.1678 11.9333L41.1481 8.8213C43.6147 8.39439 45.8629 10.3124 45.8299 12.8154L45.5315 35.4479M45.5315 35.4479C45.5 38 44.7173 41.0651 41.6035 42.1985C38.4896 43.3318 35.1997 42.147 34.2552 39.5521C33.3108 36.9572 35.0694 33.9349 38.1833 32.8015C41.2971 31.6682 44.5871 32.853 45.5315 35.4479Z" stroke="#210049" stroke-width="2" stroke-miterlimit="10"/>
</svg>
