<svg width="56" height="56" viewBox="0 0 56 56" fill="none" xmlns="http://www.w3.org/2000/svg">
<rect x="13" y="5" width="29.5" height="47" rx="3" stroke="#210049" stroke-width="2"/>
<path d="M17 46.875L17 27.625" stroke="#FF2F73" stroke-linecap="round" stroke-linejoin="round"/>
<path d="M31.75 12.25L31.75 15.25C31.75 16.0784 31.0784 16.75 30.25 16.75L29 16.75C28.1716 16.75 27.5 16.0784 27.5 15.25L27.5 12.25C27.5 11.4216 28.1716 10.75 29 10.75L30.25 10.75C31.0784 10.75 31.75 11.4216 31.75 12.25Z" stroke="#210049" stroke-linecap="round" stroke-linejoin="round"/>
<path d="M34.25 15C34.25 15 34.75 14.5 34.75 13.5C34.75 12.5 34.25 12 34.25 12" stroke="#FF2F73" stroke-linecap="round" stroke-linejoin="round"/>
<path d="M35.75 16C36.3925 15.3219 36.75 14.4283 36.75 13.5C36.75 12.5717 36.3925 11.6781 35.75 11" stroke="#FF2F73" stroke-linecap="round" stroke-linejoin="round"/>
<path d="M37.4013 17.0755C38.27 16.1018 38.75 14.8426 38.75 13.5378C38.75 12.2329 38.27 10.9737 37.4013 10" stroke="#FF2F73" stroke-linecap="round" stroke-linejoin="round"/>
</svg>
