<svg width="56" height="56" viewBox="0 0 56 56" fill="none" xmlns="http://www.w3.org/2000/svg">
<path d="M7.47974 23.7499H49.75V45.0001C49.75 46.6569 48.4069 48.0001 46.75 48.0001H10.4797C8.82288 48.0001 7.47974 46.6569 7.47974 45.0001V23.7499Z" stroke="#210049" stroke-width="2"/>
<path d="M18.777 20.1249L22.4662 12.2498" stroke="#742FE1"/>
<path d="M32.3041 18.8124L37.223 9.62482" stroke="#742FE1"/>
<mask id="path-4-inside-1_2411_294" fill="white">
<path d="M5.71383 16.8154C5.45766 14.6212 7.02523 12.6063 9.21509 12.3151L45.2155 7.52731C47.4053 7.23608 49.3882 8.77877 49.6444 10.973L50.31 16.6745C50.358 17.086 50.0641 17.4637 49.6535 17.5183L6.46643 23.2619L5.71383 16.8154Z"/>
</mask>
<path d="M6.46643 23.2619L4.48388 23.5255L4.7158 25.512L6.69834 25.2484L6.46643 23.2619ZM9.447 14.3016L45.4474 9.51382L44.9835 5.5408L8.98317 10.3285L9.447 14.3016ZM47.6618 11.2367L48.3275 16.9382L52.2925 16.4109L51.6269 10.7093L47.6618 11.2367ZM49.4216 15.5318L6.23451 21.2754L6.69834 25.2484L49.8854 19.5049L49.4216 15.5318ZM8.44897 22.9982L7.69638 16.5517L3.73129 17.0791L4.48388 23.5255L8.44897 22.9982ZM48.3275 16.9382C48.2474 16.2525 48.7373 15.6228 49.4216 15.5318L49.8854 19.5049C51.391 19.3046 52.4687 17.9194 52.2925 16.4109L48.3275 16.9382ZM45.4474 9.51382C46.5423 9.3682 47.5338 10.1395 47.6618 11.2367L51.6269 10.7093C51.2427 7.41799 48.2683 5.10396 44.9835 5.5408L45.4474 9.51382ZM8.98317 10.3285C5.69838 10.7654 3.34704 13.7877 3.73129 17.0791L7.69638 16.5517C7.56829 15.4546 8.35208 14.4472 9.447 14.3016L8.98317 10.3285Z" fill="#210049" mask="url(#path-4-inside-1_2411_294)"/>
</svg>
