<svg width="56" height="56" viewBox="0 0 56 56" fill="none" xmlns="http://www.w3.org/2000/svg">
<path d="M28 28V42" stroke="#742FE1" stroke-linecap="round" stroke-linejoin="round"/>
<path d="M35 35H21" stroke="#742FE1" stroke-linecap="round" stroke-linejoin="round"/>
<path fill-rule="evenodd" clip-rule="evenodd" d="M8.75 19.25C8.28587 19.25 7.84075 19.4344 7.51256 19.7626C7.18437 20.0908 7 20.5359 7 21V44.625C7 47.9325 9.8175 50.75 13.125 50.75H42.875C46.1825 50.75 49 48.0692 49 44.7617V21C49 20.5359 48.8156 20.0908 48.4874 19.7626C48.1592 19.4344 47.7141 19.25 47.25 19.25H8.75Z" stroke="#210049" stroke-width="2" stroke-linecap="round" stroke-linejoin="round"/>
<path d="M17.5 19.25V15.75C17.5 12.9652 18.6062 10.2945 20.5754 8.32538C22.5445 6.35625 25.2152 5.25 28 5.25V5.25C30.7848 5.25 33.4555 6.35625 35.4246 8.32538C37.3938 10.2945 38.5 12.9652 38.5 15.75V19.25" stroke="#210049" stroke-width="2" stroke-linecap="round" stroke-linejoin="round"/>
</svg>
