<svg width="56" height="56" viewBox="0 0 56 56" fill="none" xmlns="http://www.w3.org/2000/svg">
<path d="M28 17.5V49" stroke="#742FE1" stroke-width="1.5" stroke-linecap="round" stroke-linejoin="round"/>
<path d="M28 17.4998C29.75 10.5917 36.3595 7.06433 50.75 6.9998C50.9801 6.99893 51.208 7.0436 51.4207 7.13124C51.6334 7.21888 51.8267 7.34775 51.9894 7.51043C52.1521 7.6731 52.2809 7.86637 52.3686 8.07908C52.4562 8.29179 52.5009 8.51974 52.5 8.7498V40.2498C52.5 40.7139 52.3156 41.1591 51.9875 41.4872C51.6593 41.8154 51.2141 41.9998 50.75 41.9998C36.75 41.9998 31.3414 44.8228 28 48.9998C24.6783 44.8436 19.25 41.9998 5.25001 41.9998C4.16939 41.9998 3.50001 41.1193 3.50001 40.0387V8.7498C3.49914 8.51974 3.54382 8.29179 3.63146 8.07908C3.71909 7.86637 3.84797 7.6731 4.01064 7.51043C4.17332 7.34775 4.36658 7.21888 4.57929 7.13124C4.792 7.0436 5.01996 6.99893 5.25001 6.9998C19.6405 7.06433 26.25 10.5917 28 17.4998Z" stroke="#210049" stroke-width="2" stroke-linecap="round" stroke-linejoin="round"/>
</svg>
