<svg width="56" height="56" viewBox="0 0 56 56" fill="none" xmlns="http://www.w3.org/2000/svg">
<path d="M37.912 28C37.912 28 39.5403 3 28.7857 3C18.0311 3 18 28 18 28" stroke="#FF2F73"/>
<path d="M7 27L21 47" stroke="#210049" stroke-width="2" stroke-linecap="round"/>
<path d="M49 27L35 47" stroke="#210049" stroke-width="2" stroke-linecap="round"/>
<path d="M24.5 42L18 28M31.5 42L38 28" stroke="#210049" stroke-width="2"/>
<path d="M24.5 42C24.5 40.067 26.067 38.5 28 38.5V38.5C29.933 38.5 31.5 40.067 31.5 42V42C31.5 43.933 29.933 45.5 28 45.5V45.5C26.067 45.5 24.5 43.933 24.5 42V42Z" stroke="#210049" stroke-width="2"/>
<path d="M21 48C21 46.8954 21.8954 46 23 46H33C34.1046 46 35 46.8954 35 48V48C35 50.2091 33.2091 52 31 52H25C22.7909 52 21 50.2091 21 48V48Z" stroke="#210049" stroke-width="2"/>
<path d="M28 3.5C16.188 3.5 6.47848 13.1946 5.35791 25.5984C5.27788 26.4843 6.37069 26.9741 7.12584 26.5041C10.3666 24.4871 14.1813 24.7625 17.2653 27.3306C17.688 27.6825 18.3137 27.6833 18.7276 27.3212C24.1555 22.5724 31.8445 22.5724 37.2724 27.3212C37.6863 27.6833 38.312 27.6825 38.7347 27.3306C41.8187 24.7625 45.6334 24.4871 48.8742 26.5041C49.6293 26.9741 50.7221 26.4843 50.6421 25.5984C49.5215 13.1946 39.812 3.5 28 3.5Z" stroke="#210049" stroke-width="2" stroke-linejoin="round"/>
</svg>
