<svg width="56" height="56" viewBox="0 0 56 56" fill="none" xmlns="http://www.w3.org/2000/svg">
<path d="M11.5 24.75C11.5 24.1977 11.9477 23.75 12.5 23.75H43.5C44.0523 23.75 44.5 24.1977 44.5 24.75V42.25C44.5 48.3251 39.5751 53.25 33.5 53.25H22.5C16.4249 53.25 11.5 48.3251 11.5 42.25V24.75Z" stroke="#210049" stroke-width="2"/>
<path d="M12.25 30.625H43.75" stroke="#210049" stroke-linecap="round" stroke-dasharray="2 4"/>
<path d="M38.5 24.5L38.5 4.5C38.5 3.94772 38.0523 3.5 37.5 3.5L18.5 3.5C17.9477 3.5 17.5 3.94772 17.5 4.5L17.5 24.5" stroke="#210049" stroke-width="2"/>
<path d="M28.5299 7H27.7769V7.95857C26.2849 8.05725 24.8625 9.07221 24.8625 10.7497C24.8625 12.5541 26.1454 13.2025 27.7769 13.6536V16.7831C27.0657 16.769 26.2291 16.332 25.7271 15.7399L24.5 16.9241C25.3785 17.7839 26.5498 18.1928 27.7769 18.235V19.25H28.5299V18.235C30.0777 18.1928 31.5 17.1919 31.5 15.2325C31.5 13.3294 29.9522 12.6669 28.5299 12.2158V9.36824C29.1713 9.36824 29.8685 9.63608 30.3008 10.1154L31.4303 8.93124C30.6773 8.2687 29.5478 7.94448 28.5299 7.93038V7ZM27.7769 12.0184C27.0657 11.807 26.5359 11.4404 26.5359 10.6651C26.5359 9.84753 27.1215 9.43872 27.7769 9.36824V12.0184ZM28.5299 13.8792C29.2689 14.1329 29.8267 14.4994 29.8267 15.3311C29.8267 16.1628 29.3108 16.7408 28.5299 16.7831V13.8792Z" fill="#FF2F73"/>
</svg>
