<svg width="56" height="56" viewBox="0 0 56 56" fill="none" xmlns="http://www.w3.org/2000/svg">
<path d="M22.75 42V47.75C22.75 49.4069 24.0931 50.75 25.75 50.75H30.25C31.9069 50.75 33.25 49.4069 33.25 47.75V42" stroke="#210049" stroke-width="2"/>
<path d="M35.1199 37.3308L34.7271 36.4112C34.4829 36.5154 34.2903 36.7125 34.1916 36.959L35.1199 37.3308ZM20.8801 37.3308L21.8085 36.959C21.7098 36.7126 21.5171 36.5155 21.273 36.4112L20.8801 37.3308ZM22.75 42L21.8217 42.3718C21.9736 42.7512 22.3413 43 22.75 43V42ZM33.25 42V43C33.6588 43 34.0264 42.7512 34.1783 42.3718L33.25 42ZM44.5 22.0132C44.5 28.409 40.5068 33.9424 34.7271 36.4112L35.5127 38.2504C41.9661 35.4939 46.5 29.2762 46.5 22.0132H44.5ZM28 6.25C37.1537 6.25 44.5 13.3475 44.5 22.0132H46.5C46.5 12.1627 38.1763 4.25 28 4.25V6.25ZM11.5 22.0132C11.5 13.3475 18.8463 6.25 28 6.25V4.25C17.8237 4.25 9.5 12.1627 9.5 22.0132H11.5ZM21.273 36.4112C15.4932 33.9424 11.5 28.409 11.5 22.0132H9.5C9.5 29.2762 14.0339 35.4939 20.4873 38.2504L21.273 36.4112ZM19.9518 37.7026L21.8217 42.3718L23.6783 41.6282L21.8085 36.959L19.9518 37.7026ZM22.75 43H33.25V41H22.75V43ZM34.1783 42.3718L36.0482 37.7025L34.1916 36.959L32.3217 41.6282L34.1783 42.3718Z" fill="#210049"/>
<path d="M26.5 31.5L33.25 21.8751H22.75L29.5 12.25" stroke="#742FE1" stroke-linecap="round" stroke-linejoin="round"/>
</svg>
