<svg width="56" height="56" viewBox="0 0 56 56" fill="none" xmlns="http://www.w3.org/2000/svg">
<path d="M5.5 36.75H14V24.5L4.49226 30.0462C3.87782 30.4046 3.5 31.0624 3.5 31.7737V34.75C3.5 35.8546 4.39543 36.75 5.5 36.75Z" stroke="#FF2F73" stroke-width="2"/>
<path d="M50.5 36.75H42V24.5L51.5077 30.0462C52.1222 30.4046 52.5 31.0624 52.5 31.7737V34.75C52.5 35.8546 51.6046 36.75 50.5 36.75Z" stroke="#FF2F73" stroke-width="2"/>
<path d="M28 41.8409V12.5682C28 8.52646 24.866 5.25 21 5.25C17.134 5.25 14 8.52646 14 12.5682V39.7827C14 40.9194 14.8814 41.8409 15.9688 41.8409H17.5V43.4418C17.5 44.5785 18.3814 45.5 19.4687 45.5H22.5312C23.6186 45.5 24.5 44.5785 24.5 43.4418V41.8409H28Z" stroke="#FF2F73" stroke-width="2"/>
<path d="M28 41.8409V12.5682C28 8.52646 31.134 5.25 35 5.25C38.866 5.25 42 8.52646 42 12.5682V39.7827C42 40.9194 41.1186 41.8409 40.0312 41.8409H38.5V43.4418C38.5 44.5785 37.6186 45.5 36.5313 45.5H33.4688C32.3814 45.5 31.5 44.5785 31.5 43.4418V41.8409H28Z" stroke="#FF2F73" stroke-width="2"/>
<path d="M21 49V52.5" stroke="#FF2F73" stroke-linecap="round"/>
<path d="M35 49V52.5" stroke="#FF2F73" stroke-linecap="round"/>
</svg>
