<svg width="56" height="56" viewBox="0 0 56 56" fill="none" xmlns="http://www.w3.org/2000/svg">
<path d="M19.25 1.75H21.875C22.1071 1.75 22.3296 1.84219 22.4937 2.00628C22.6578 2.17038 22.75 2.39294 22.75 2.625C22.75 3.08913 22.9344 3.53425 23.2626 3.86244C23.5908 4.19063 24.0359 4.375 24.5 4.375H31.5C31.9641 4.375 32.4092 4.19063 32.7374 3.86244C33.0656 3.53425 33.25 3.08913 33.25 2.625C33.25 2.39294 33.3422 2.17038 33.5063 2.00628C33.6704 1.84219 33.8929 1.75 34.125 1.75H36.75" stroke="#742FE1" stroke-linecap="round" stroke-linejoin="round"/>
<path d="M36.75 1.75H19.25C16.3505 1.75 14 4.10051 14 7V49C14 51.8995 16.3505 54.25 19.25 54.25H36.75C39.6495 54.25 42 51.8995 42 49V7C42 4.10051 39.6495 1.75 36.75 1.75Z" stroke="#210049" stroke-width="2" stroke-linecap="round" stroke-linejoin="round"/>
<circle cx="28" cy="47.25" r="1.75" fill="#742FE1"/>
</svg>
