<svg width="56" height="56" viewBox="0 0 56 56" fill="none" xmlns="http://www.w3.org/2000/svg">
<path d="M28 6C15.8497 6 6 15.8497 6 28C6 40.1503 15.8497 50 28 50C40.1503 50 50 40.1503 50 28C50 25.6382 49.6278 23.3633 48.9389 21.2308" stroke="#210049" stroke-width="2" stroke-linecap="round" stroke-linejoin="round"/>
<path d="M28 14C24.1854 14 20.7271 15.5256 18.202 18C16.584 19.5855 15.3492 21.5606 14.6493 23.7735C14.2275 25.1071 14 26.527 14 28C14 31.9174 15.6089 35.459 18.202 38C18.7005 38.4884 19.2352 38.9399 19.8019 39.3499C22.1062 41.0172 24.9384 42 28 42C31.0616 42 33.8938 41.0172 36.1981 39.3499C36.7648 38.9399 37.2995 38.4884 37.798 38C40.3911 35.459 42 31.9174 42 28C42 26.527 41.7725 25.1071 41.3507 23.7735" stroke="#210049" stroke-width="2" stroke-linecap="round" stroke-linejoin="round"/>
<path d="M28 13.5V24.5M14.6493 23.7735L24.2592 26.8157M19.802 39.3499L25.6667 31.2304M36.1981 39.3499L30.2472 31.1111M41.5 23.5L31.6252 26.8524" stroke="#210049" stroke-linecap="round" stroke-linejoin="round"/>
<circle cx="28" cy="28" r="3.5" stroke="#210049"/>
<path d="M39.4828 3.72267C39.8167 3.60001 40.1833 3.60001 40.5172 3.72267L45.5172 5.55941C46.1076 5.77628 46.5 6.33845 46.5 6.96741V14.8448C46.5 15.3221 46.2728 15.771 45.8881 16.0536L40.8881 19.7271C40.3597 20.1153 39.6403 20.1153 39.1119 19.7271L34.1119 16.0536C33.7272 15.771 33.5 15.3221 33.5 14.8448V6.96741C33.5 6.33845 33.8924 5.77628 34.4828 5.5594L39.4828 3.72267Z" stroke="#742FE1" stroke-linecap="round" stroke-linejoin="round"/>
</svg>
