<svg width="58" height="58" viewBox="0 0 58 58" fill="none" xmlns="http://www.w3.org/2000/svg">
<g opacity="0.01">
<g opacity="0.2">
<rect x="1" y="1" width="2.33334" height="56.0002" stroke="#210049" stroke-width="0.09375"/>
<rect x="3.33337" y="1.00009" width="2.33333" height="56.0003" stroke="#210049" stroke-width="0.09375"/>
<rect x="5.66669" y="1.00009" width="2.33333" height="56.0003" stroke="#210049" stroke-width="0.09375"/>
<rect x="8" y="1.00009" width="2.33333" height="56.0003" stroke="#210049" stroke-width="0.09375"/>
<rect x="10.3333" y="1.00009" width="2.33333" height="56.0003" stroke="#210049" stroke-width="0.09375"/>
<rect x="12.6667" y="1.00009" width="2.33334" height="56.0003" stroke="#210049" stroke-width="0.09375"/>
<rect x="15" y="1.00009" width="2.33333" height="56.0003" stroke="#210049" stroke-width="0.09375"/>
<rect x="17.3333" y="1.00009" width="2.33334" height="56.0003" stroke="#210049" stroke-width="0.09375"/>
<rect x="19.6666" y="1.00009" width="2.33333" height="56.0003" stroke="#210049" stroke-width="0.09375"/>
<rect x="22" y="1.00009" width="2.33334" height="56.0003" stroke="#210049" stroke-width="0.09375"/>
<rect x="24.3333" y="1.00009" width="2.33334" height="56.0003" stroke="#210049" stroke-width="0.09375"/>
<rect x="26.6667" y="1.00009" width="2.33334" height="56.0003" stroke="#210049" stroke-width="0.09375"/>
<rect x="29" y="1.00009" width="2.33333" height="56.0003" stroke="#210049" stroke-width="0.09375"/>
<rect x="31.3333" y="1.00009" width="2.33334" height="56.0003" stroke="#210049" stroke-width="0.09375"/>
<rect x="33.6666" y="1.00009" width="2.33333" height="56.0003" stroke="#210049" stroke-width="0.09375"/>
<rect x="36" y="1.00009" width="2.33333" height="56.0003" stroke="#210049" stroke-width="0.09375"/>
<rect x="38.3333" y="1.00009" width="2.33334" height="56.0003" stroke="#210049" stroke-width="0.09375"/>
<rect x="40.6667" y="1.00009" width="2.33333" height="56.0003" stroke="#210049" stroke-width="0.09375"/>
<rect x="43" y="1.00009" width="2.33333" height="56.0003" stroke="#210049" stroke-width="0.09375"/>
<rect x="45.3333" y="1.00009" width="2.33333" height="56.0003" stroke="#210049" stroke-width="0.09375"/>
<rect x="47.6667" y="1.00009" width="2.33333" height="56.0003" stroke="#210049" stroke-width="0.09375"/>
<rect x="50" y="1.00009" width="2.33332" height="56.0003" stroke="#210049" stroke-width="0.09375"/>
<rect x="52.3333" y="1.00009" width="2.33334" height="56.0003" stroke="#210049" stroke-width="0.09375"/>
<rect x="54.6666" y="1.00009" width="2.33334" height="56.0003" stroke="#210049" stroke-width="0.09375"/>
<rect x="1" y="57.0009" width="2.33391" height="56" transform="rotate(-90 1 57.0009)" stroke="#210049" stroke-width="0.09375"/>
<rect x="1" y="54.6669" width="2.33333" height="56" transform="rotate(-90 1 54.6669)" stroke="#210049" stroke-width="0.09375"/>
<rect x="1" y="52.3336" width="2.33332" height="56" transform="rotate(-90 1 52.3336)" stroke="#210049" stroke-width="0.09375"/>
<rect x="1" y="50.0003" width="2.33333" height="56" transform="rotate(-90 1 50.0003)" stroke="#210049" stroke-width="0.09375"/>
<rect x="1" y="47.6667" width="2.33332" height="56" transform="rotate(-90 1 47.6667)" stroke="#210049" stroke-width="0.09375"/>
<rect x="1" y="45.3333" width="2.33333" height="56" transform="rotate(-90 1 45.3333)" stroke="#210049" stroke-width="0.09375"/>
<rect x="1" y="43" width="2.33333" height="56" transform="rotate(-90 1 43)" stroke="#210049" stroke-width="0.09375"/>
<rect x="1" y="40.6667" width="2.33333" height="56" transform="rotate(-90 1 40.6667)" stroke="#210049" stroke-width="0.09375"/>
<rect x="1" y="38.3333" width="2.33333" height="56" transform="rotate(-90 1 38.3333)" stroke="#210049" stroke-width="0.09375"/>
<rect x="1" y="36" width="2.33333" height="56" transform="rotate(-90 1 36)" stroke="#210049" stroke-width="0.09375"/>
<rect x="1" y="33.6667" width="2.33333" height="56" transform="rotate(-90 1 33.6667)" stroke="#210049" stroke-width="0.09375"/>
<rect x="1" y="31.3333" width="2.33333" height="56" transform="rotate(-90 1 31.3333)" stroke="#210049" stroke-width="0.09375"/>
<rect x="1" y="29" width="2.33333" height="56" transform="rotate(-90 1 29)" stroke="#210049" stroke-width="0.09375"/>
<rect x="1" y="26.6666" width="2.33333" height="56" transform="rotate(-90 1 26.6666)" stroke="#210049" stroke-width="0.09375"/>
<rect x="1" y="24.3335" width="2.33333" height="56" transform="rotate(-90 1 24.3335)" stroke="#210049" stroke-width="0.09375"/>
<rect x="1" y="22.0001" width="2.33333" height="56" transform="rotate(-90 1 22.0001)" stroke="#210049" stroke-width="0.09375"/>
<rect x="1" y="19.6668" width="2.33333" height="56" transform="rotate(-90 1 19.6668)" stroke="#210049" stroke-width="0.09375"/>
<rect x="1" y="17.3335" width="2.33333" height="56" transform="rotate(-90 1 17.3335)" stroke="#210049" stroke-width="0.09375"/>
<rect x="1" y="15.0001" width="2.33334" height="56" transform="rotate(-90 1 15.0001)" stroke="#210049" stroke-width="0.09375"/>
<rect x="1" y="12.6667" width="2.33333" height="56" transform="rotate(-90 1 12.6667)" stroke="#210049" stroke-width="0.09375"/>
<rect x="1" y="10.3334" width="2.33333" height="56" transform="rotate(-90 1 10.3334)" stroke="#210049" stroke-width="0.09375"/>
<rect x="1" y="8.00006" width="2.33333" height="56" transform="rotate(-90 1 8.00006)" stroke="#210049" stroke-width="0.09375"/>
<rect x="1" y="5.66675" width="2.33333" height="56" transform="rotate(-90 1 5.66675)" stroke="#210049" stroke-width="0.09375"/>
<rect x="1" y="3.3334" width="2.33333" height="56" transform="rotate(-90 1 3.3334)" stroke="#210049" stroke-width="0.09375"/>
</g>
<ellipse cx="29" cy="29.0001" rx="9.33333" ry="9.33333" stroke="#210049" stroke-width="0.09375"/>
<path d="M1 1H57M1 1V57M1 1L57 57M57 1V57M57 1L1 57M57 57H1" stroke="#210049" stroke-width="0.09375"/>
<g style="mix-blend-mode:multiply">
<ellipse cx="29" cy="28.9999" rx="23.3333" ry="23.3333" stroke="#F04925" stroke-width="0.09375"/>
</g>
<g style="mix-blend-mode:multiply">
<rect x="5.66669" y="10.3334" width="46.6666" height="37.3333" rx="1.3125" stroke="#F04925" stroke-width="0.09375"/>
</g>
<g style="mix-blend-mode:multiply">
<rect x="47.6666" y="5.66669" width="46.6665" height="37.3333" rx="1.3125" transform="rotate(90 47.6666 5.66669)" stroke="#F04925" stroke-width="0.09375"/>
</g>
<g style="mix-blend-mode:multiply">
<rect x="50" y="8.00006" width="41.9999" height="42" rx="1.3125" transform="rotate(90 50 8.00006)" stroke="#F04925" stroke-width="0.09375"/>
</g>
</g>
<path d="M50.4814 28.2711C48.6127 19.8231 45.841 14.4342 41.3987 13.121C40.5383 12.87 39.6462 12.7448 38.7499 12.7493C36.0189 12.7493 33.8638 14.3743 28.9999 14.3743C24.1361 14.3743 21.9769 12.7493 19.2499 12.7493C18.3163 12.7444 17.3866 12.8696 16.4874 13.121C12.039 14.4342 9.29072 19.8282 7.40064 28.2711C5.47096 36.8947 5.82033 43.7086 9.59236 45.0167C12.233 45.9308 14.5943 44.0407 16.8307 41.2589C19.3698 38.0901 22.4969 37.1151 28.9999 37.1151C35.503 37.1151 38.5082 38.0901 41.0513 41.2589C43.2857 44.0427 45.7344 45.9094 48.3049 45.033C52.471 43.6101 52.4121 36.9963 50.4814 28.2711Z" stroke="#210049" stroke-width="2" stroke-miterlimit="10"/>
<path d="M32.6562 27.7812C33.7781 27.7812 34.6875 26.8718 34.6875 25.75C34.6875 24.6282 33.7781 23.7188 32.6562 23.7188C31.5344 23.7188 30.625 24.6282 30.625 25.75C30.625 26.8718 31.5344 27.7812 32.6562 27.7812Z" fill="#210049"/>
<path d="M37.125 32.25C36.723 32.25 36.3301 32.1308 35.996 31.9073C35.6618 31.6839 35.4015 31.3664 35.2479 30.9949C35.0943 30.6235 35.0544 30.2148 35.1332 29.8206C35.2119 29.4264 35.4059 29.0645 35.6905 28.7806C35.9751 28.4968 36.3375 28.3037 36.7318 28.2259C37.1262 28.1481 37.5348 28.1891 37.9059 28.3436C38.2769 28.4981 38.5938 28.7592 38.8164 29.094C39.039 29.4287 39.1573 29.8219 39.1563 30.2238C39.1549 30.7617 38.9403 31.277 38.5595 31.6569C38.1787 32.0367 37.6629 32.25 37.125 32.25Z" fill="#210049"/>
<path d="M37.125 23.3125C38.2468 23.3125 39.1562 22.4031 39.1562 21.2812C39.1562 20.1594 38.2468 19.25 37.125 19.25C36.0032 19.25 35.0938 20.1594 35.0938 21.2812C35.0938 22.4031 36.0032 23.3125 37.125 23.3125Z" fill="#210049"/>
<path d="M41.5938 27.7812C42.7156 27.7812 43.625 26.8718 43.625 25.75C43.625 24.6282 42.7156 23.7188 41.5938 23.7188C40.4719 23.7188 39.5625 24.6282 39.5625 25.75C39.5625 26.8718 40.4719 27.7812 41.5938 27.7812Z" fill="#210049"/>
<path d="M19.25 20.875V30.625" stroke="#742FE1" stroke-linecap="round" stroke-linejoin="round"/>
<path d="M24.125 25.75H14.375" stroke="#742FE1" stroke-linecap="round" stroke-linejoin="round"/>
</svg>
