<svg width="56" height="56" viewBox="0 0 56 56" fill="none" xmlns="http://www.w3.org/2000/svg">
<path d="M48.9847 10.5H7.01531C5.07386 10.5 3.5 12.0739 3.5 14.0153V36.7347C3.5 38.6761 5.07386 40.25 7.01531 40.25H48.9847C50.9261 40.25 52.5 38.6761 52.5 36.7347V14.0153C52.5 12.0739 50.9261 10.5 48.9847 10.5Z" stroke="#210049" stroke-width="2" stroke-linejoin="round"/>
<path d="M14 45.5H42" stroke="#210049" stroke-width="2" stroke-miterlimit="10" stroke-linecap="round"/>
<path d="M32.1788 29.2361C31.0276 28.2128 29.5409 27.6476 28.0006 27.6476C26.4604 27.6476 24.9737 28.2128 23.8225 29.2361" stroke="#742FE1" stroke-linecap="round" stroke-linejoin="round"/>
<path d="M35.5174 25.8962C33.4785 23.9897 30.7914 22.9291 28 22.9291C25.2086 22.9291 22.5215 23.9897 20.4827 25.8962" stroke="#742FE1" stroke-linecap="round" stroke-linejoin="round"/>
<path d="M38.4848 22.2082C35.5991 19.6339 31.8671 18.2112 28.0001 18.2112C24.133 18.2112 20.4011 19.6339 17.5154 22.2082" stroke="#742FE1" stroke-linecap="round" stroke-linejoin="round"/>
<path d="M28 35C27.6539 35 27.3155 34.8974 27.0278 34.7051C26.74 34.5128 26.5157 34.2395 26.3832 33.9197C26.2508 33.5999 26.2161 33.248 26.2836 32.9086C26.3512 32.5691 26.5178 32.2573 26.7626 32.0125C27.0073 31.7678 27.3191 31.6011 27.6586 31.5336C27.9981 31.4661 28.3499 31.5007 28.6697 31.6332C28.9895 31.7656 29.2628 31.9899 29.4551 32.2777C29.6474 32.5655 29.75 32.9039 29.75 33.25C29.75 33.7141 29.5656 34.1592 29.2375 34.4874C28.9093 34.8156 28.4641 35 28 35Z" fill="#742FE1"/>
</svg>
