<svg width="28" height="28" viewBox="0 0 28 28" fill="none" xmlns="http://www.w3.org/2000/svg">
<circle cx="14" cy="14" r="13.5" stroke="#2FCAD7"/>
<path d="M13.2341 7.14891H7.61704C7.35854 7.14891 7.14896 7.3585 7.14896 7.617V13.234C7.14896 13.4925 7.35854 13.7021 7.61704 13.7021H13.2341C13.4926 13.7021 13.7021 13.4925 13.7021 13.234V7.617C13.7021 7.3585 13.4926 7.14891 13.2341 7.14891ZM12.766 12.7659H8.08513V8.08508H12.766V12.7659Z" fill="#80EBE3"/>
<path d="M9.43264 11.9149H11.4185C11.6926 11.9149 11.9149 11.6926 11.9149 11.4184V9.43261C11.9149 9.15845 11.6926 8.93616 11.4185 8.93616H9.43264C9.15848 8.93616 8.93619 9.15845 8.93619 9.43261V11.4184C8.93619 11.6926 9.15848 11.9149 9.43264 11.9149ZM9.9291 9.92907H10.922V10.922H9.9291V9.92907Z" fill="#80EBE3"/>
<path d="M13.2341 14.2979H7.61704C7.35854 14.2979 7.14896 14.5075 7.14896 14.766V20.383C7.14896 20.6415 7.35854 20.8511 7.61704 20.8511H13.2341C13.4926 20.8511 13.7021 20.6415 13.7021 20.383V14.766C13.7021 14.5075 13.4926 14.2979 13.2341 14.2979ZM12.766 19.9149H8.08513V15.234H12.766V19.9149Z" fill="#80EBE3"/>
<path d="M9.43264 19.0638H11.4185C11.6926 19.0638 11.9149 18.8415 11.9149 18.5674V16.5815C11.9149 16.3074 11.6926 16.0851 11.4185 16.0851H9.43264C9.15848 16.0851 8.93619 16.3074 8.93619 16.5815V18.5674C8.93619 18.8415 9.15848 19.0638 9.43264 19.0638ZM9.9291 17.078H10.922V18.0709H9.9291V17.078Z" fill="#80EBE3"/>
<path d="M20.383 7.1489H14.766C14.5075 7.1489 14.2979 7.35848 14.2979 7.61698V11.3617H15.2341V8.08507H19.9149V12.7659H15.2341V12.2978H14.2979V13.234C14.2979 13.4925 14.5075 13.7021 14.766 13.7021H20.383C20.6415 13.7021 20.8511 13.4925 20.8511 13.234V7.61698C20.8511 7.35848 20.6415 7.1489 20.383 7.1489Z" fill="#80EBE3"/>
<path d="M18.5673 11.9149C18.8415 11.9149 19.0638 11.6926 19.0638 11.4184V9.43261C19.0638 9.15845 18.8415 8.93616 18.5673 8.93616H16.5815C16.3073 8.93616 16.0851 9.15845 16.0851 9.43261V11.4184C16.0851 11.6926 16.3073 11.9149 16.5815 11.9149H18.5673ZM17.078 9.92907H18.0709V10.922H17.078V9.92907Z" fill="#80EBE3"/>
<path d="M15.2511 15.2511H16.6809V14.2979H14.7745C14.5113 14.2979 14.2979 14.5113 14.2979 14.7745V16.6808H15.2511V15.2511Z" fill="#80EBE3"/>
<path d="M17.9468 17.2766H14.8192C14.5313 17.2766 14.2979 17.4767 14.2979 17.7234V20.4043C14.2979 20.651 14.5313 20.8511 14.8192 20.8511H17.9468C18.2347 20.8511 18.4681 20.651 18.4681 20.4043V17.7234C18.4681 17.4767 18.2347 17.2766 17.9468 17.2766ZM17.4255 19.9574H15.3404V18.1702H17.4255V19.9574Z" fill="#80EBE3"/>
<path d="M20.4255 14.2979H17.8723V15.1915H20V16.0851H20.851V14.7447C20.851 14.4979 20.6605 14.2979 20.4255 14.2979Z" fill="#80EBE3"/>
<path d="M20.3745 16.6809H18.9447V17.6076H19.8979V19.9244H18.4681V20.8511H20.3745C20.6377 20.8511 20.8511 20.6436 20.8511 20.3877V17.1442C20.8511 16.8884 20.6377 16.6809 20.3745 16.6809Z" fill="#80EBE3"/>
<path d="M16.0851 16.0851H18.468V16.6808H16.0851V16.0851Z" fill="#80EBE3"/>
</svg>
