<svg width="32" height="32" viewBox="0 0 32 32" fill="none" xmlns="http://www.w3.org/2000/svg">
<path d="M28.8707 16.3156C28.7457 16.0181 28.4513 15.8262 28.1413 15.7225L16.4426 11.0675C16.1542 10.9775 15.8453 10.9775 15.557 11.0675L3.86947 15.725C3.55697 15.8225 3.25509 16.0231 3.13134 16.3206C3.00759 16.6181 2.94759 16.9062 3.06884 17.2631L5.97697 24.71C6.01403 24.8015 6.07922 24.879 6.16313 24.9311C6.24704 24.9832 6.34534 25.0073 6.44384 25C8.11197 24.895 9.58822 24.0481 10.7176 22.9687C10.8064 22.8853 10.9236 22.8389 11.0454 22.8389C11.1672 22.8389 11.2844 22.8853 11.3732 22.9687C12.5807 24.125 14.1876 25 16.0001 25C17.8126 25 19.4101 24.125 20.6176 22.9662C20.7065 22.8828 20.8238 22.8363 20.9457 22.8363C21.0676 22.8363 21.185 22.8828 21.2738 22.9662C22.4032 24.0462 23.8795 24.895 25.5476 25C25.6458 25.0074 25.7438 24.9836 25.8276 24.9318C25.9114 24.88 25.9766 24.803 26.0138 24.7119L28.9326 17.2644C29.0563 16.9656 28.9945 16.6137 28.8707 16.3156Z" stroke="#4376FF" stroke-width="1.5" stroke-miterlimit="10"/>
<path d="M26.0001 29.5711C26.0001 29.4944 25.9794 29.4191 25.9402 29.3531C25.9011 29.2871 25.8449 29.2329 25.7776 29.1961C24.0851 28.2867 22.542 26.8948 21.8632 26.1961C21.7624 26.0904 21.6278 26.0231 21.4827 26.0058C21.3376 25.9886 21.191 26.0225 21.0682 26.1017C17.9226 28.128 14.0926 28.1292 10.9463 26.1048C10.8225 26.0249 10.6745 25.9908 10.5281 26.0086C10.3817 26.0264 10.2462 26.095 10.1451 26.2023C9.47196 26.9073 7.94571 28.2836 6.24321 29.1867C6.17567 29.2209 6.11792 29.2717 6.07539 29.3344C6.03287 29.397 6.00695 29.4694 6.00008 29.5448C5.99501 29.6091 6.00477 29.6736 6.0286 29.7335C6.05243 29.7934 6.08971 29.847 6.13754 29.8902C6.18538 29.9334 6.2425 29.965 6.30449 29.9826C6.36648 30.0002 6.43169 30.0033 6.49508 29.9917C7.79821 29.7305 9.05759 29.1367 10.2576 28.5023C10.3346 28.4618 10.4201 28.4403 10.5071 28.4397C10.5941 28.439 10.68 28.4592 10.7576 28.4986C12.3827 29.3255 14.1803 29.7566 16.0037 29.7568C17.8271 29.7571 19.6248 29.3264 21.2501 28.4998C21.3286 28.4601 21.4154 28.4397 21.5034 28.4403C21.5913 28.441 21.6778 28.4627 21.7557 28.5036C22.9495 29.1286 24.207 29.728 25.5057 29.9911C25.5669 30.0025 25.6298 30.0001 25.69 29.9842C25.7501 29.9683 25.806 29.9393 25.8535 29.8991C25.9011 29.859 25.9391 29.8088 25.9649 29.7522C25.9907 29.6956 26.0035 29.6339 26.0026 29.5717L26.0001 29.5711Z" fill="#4376FF"/>
<path d="M20 6V4.5C19.9988 4.10253 19.8404 3.72167 19.5594 3.44061C19.2783 3.15956 18.8975 3.00115 18.5 3H13.5C13.1025 3.00115 12.7217 3.15956 12.4406 3.44061C12.1596 3.72167 12.0012 4.10253 12 4.5V6" stroke="#4376FF" stroke-width="1.5" stroke-linecap="round" stroke-linejoin="round"/>
<path d="M26 14.5625V9C25.9977 8.20506 25.6809 7.44334 25.1188 6.88123C24.5567 6.31912 23.7949 6.00231 23 6H9C8.20506 6.00231 7.44334 6.31912 6.88123 6.88123C6.31912 7.44334 6.00231 8.20506 6 9V14.75" stroke="#4376FF" stroke-width="1.5" stroke-linecap="round" stroke-linejoin="round"/>
<path d="M16 11.4749V24.778" stroke="#4376FF" stroke-width="1.5" stroke-linecap="round" stroke-linejoin="round"/>
</svg>
