<svg width="88" height="88" viewBox="0 0 88 88" fill="none" xmlns="http://www.w3.org/2000/svg">
<path d="M22.0073 81.0919L2.52126 31.8315C1.00778 27.9549 2.89963 23.5111 6.77791 21.9983L56.1551 2.52102C60.0334 1.00823 64.4792 2.89922 65.9927 6.77576L85.4787 56.2253C86.9922 60.1019 85.1004 64.5457 81.2221 66.0585L31.8449 85.4412C27.872 87.0485 23.5208 85.063 22.0073 81.0919Z" fill="#FFDADB"/>
<path d="M81.5049 46.0137C73.8429 47.621 65.3296 45.3518 57.8568 48.2829C53.6001 49.9848 50.1948 53.294 46.6003 56.036C42.1545 59.3452 37.2357 60.6689 31.7493 60.858C25.8846 61.0471 19.8307 60.5743 14.0605 61.0471L15.8578 65.68C22.9522 65.2073 30.1412 66.3419 37.1411 65.3964C41.114 64.8291 44.8031 63.4108 48.0192 61.0471C52.1813 58.116 55.7758 54.3341 60.5054 52.6322C67.789 50.1739 75.9239 52.3485 83.3967 50.7412L81.5049 46.0137Z" fill="#FFB3B6"/>
<path d="M36.102 53.6722C44.3315 51.4976 49.3449 43.2718 57.0069 40.2462C63.6283 37.5988 71.2903 39.3007 77.7226 36.4642L76.0199 31.9258C69.0201 35.235 60.0338 32.8713 53.034 36.6533C48.9665 38.8279 45.6558 42.2317 42.0613 45.0682C37.71 48.3774 32.9804 49.7011 27.5887 49.6066C21.4402 49.512 15.0079 47.9047 8.85938 47.3374L10.7512 52.254C19.1699 53.1995 27.8724 55.8469 36.102 53.6722Z" fill="#FFB3B6"/>
<path d="M6.77772 42.2318C12.8316 42.2318 19.0747 42.8937 24.9395 42.0427C28.9123 41.4754 32.6014 40.0572 35.8176 37.6934C39.9796 34.7624 43.5741 30.9804 48.3038 29.2785C56.5333 26.5366 65.8979 29.6567 73.9383 26.442L72.141 21.8091C63.7223 24.9292 53.9793 21.5254 45.6552 24.9292C41.3985 26.6311 37.9932 29.9404 34.3987 32.6823C29.9528 35.9916 25.034 37.3152 19.5477 37.5043C14.6289 37.6934 9.80468 37.3152 4.98047 37.5043L6.77772 42.2318Z" fill="#FFB3B6"/>
<circle cx="44" cy="44" r="29" stroke="#210049" stroke-width="2"/>
<circle cx="44" cy="44" r="23.5" stroke="#210049" stroke-linecap="round" stroke-linejoin="bevel" stroke-dasharray="8 4"/>
<path d="M54 55C54 55 51.5 50 44 50C36.5 50 34 55 34 55" stroke="#210049" stroke-width="2" stroke-linecap="round"/>
<circle cx="38" cy="42" r="2" fill="#210049"/>
<circle cx="50" cy="42" r="2" fill="#210049"/>
</svg>
