<svg width="89" height="89" viewBox="0 0 89 89" fill="none" xmlns="http://www.w3.org/2000/svg">
<path d="M20.96 83.8582L0.546079 32.252C-1.03947 28.1909 0.942465 23.5354 5.00543 21.9506L56.7339 1.54583C60.7969 -0.0390017 65.4544 1.94204 67.04 6.00318L87.4539 57.8075C89.0395 61.8686 87.0575 66.5241 82.9946 68.1089L31.2661 88.4146C27.104 90.0985 22.5456 88.0184 20.96 83.8582Z" fill="#C8F7F3"/>
<path d="M83.2927 47.1094C75.2659 48.7933 66.3471 46.416 58.5185 49.4866C54.0592 51.2696 50.4917 54.7364 46.726 57.6089C42.0685 61.0757 36.9154 62.4625 31.1678 62.6606C25.0238 62.8587 18.6816 62.3634 12.6367 62.8587L14.5196 67.7122C21.9518 67.217 29.4832 68.4056 36.8163 67.4151C40.9784 66.8208 44.8432 65.335 48.2124 62.8587C52.5727 59.7881 56.3384 55.826 61.2932 54.043C68.9237 51.4677 77.446 53.7459 85.2746 52.062L83.2927 47.1094Z" fill="#ACEAEF"/>
<path d="M35.7254 55.1326C44.3468 52.8544 49.5989 44.2368 57.6258 41.0672C64.5626 38.2937 72.5894 40.0767 79.328 37.1051L77.5442 32.3506C70.2111 35.8174 60.7969 33.3411 53.4637 37.3032C49.2026 39.5814 45.7342 43.1473 41.9685 46.1188C37.4101 49.5857 32.4552 50.9724 26.8067 50.8733C20.3654 50.7743 13.6268 49.0904 7.18555 48.4961L9.16748 53.6468C17.9871 54.6373 27.104 57.4108 35.7254 55.1326Z" fill="#ACEAEF"/>
<path d="M5.00393 43.1482C11.3461 43.1482 17.8865 43.8416 24.0305 42.9501C28.1926 42.3558 32.0573 40.87 35.4266 38.3937C39.7869 35.3231 43.5526 31.361 48.5074 29.5781C57.1288 26.7055 66.9394 29.9743 75.3626 26.6065L73.4798 21.7529C64.6602 25.0217 54.4532 21.4558 45.7327 25.0217C41.2733 26.8046 37.7059 30.2714 33.9402 33.1439C29.2826 36.6108 24.1296 37.9975 18.382 38.1956C13.229 38.3937 8.17503 37.9975 3.12109 38.1956L5.00393 43.1482Z" fill="#ACEAEF"/>
<path fill-rule="evenodd" clip-rule="evenodd" d="M52.1336 45.198C52.1429 49.7359 48.4735 53.4239 43.9356 53.4285C39.4023 53.4378 35.7144 49.7685 35.7051 45.2352C35.6958 40.6972 39.3652 37.0093 43.9031 37C48.4364 36.9907 52.1243 40.6601 52.1336 45.198Z" stroke="#210049" stroke-width="2" stroke-linecap="round" stroke-linejoin="round"/>
<path fill-rule="evenodd" clip-rule="evenodd" d="M26.9454 83C26.9231 69.1186 34.5061 57.8425 43.8837 57.8096C53.2614 57.7833 60.8754 69.0134 60.8976 82.8947" stroke="#210049" stroke-width="2" stroke-linecap="round" stroke-linejoin="round"/>
<path d="M31.9762 64.5583C25.7035 64.5583 18.8792 62.1906 10.5156 53.4287" stroke="#210049" stroke-width="2" stroke-linecap="round" stroke-linejoin="round"/>
<path d="M56.5157 64.3811C62.7884 64.3811 71.152 62.1906 79.5156 53.4287" stroke="#210049" stroke-width="2" stroke-linecap="round" stroke-linejoin="round"/>
<path d="M19.0098 50.1422C19.0879 50.689 19.5944 51.0689 20.1412 50.9908C20.6879 50.9127 21.0678 50.4061 20.9897 49.8594L19.0098 50.1422ZM20.9897 49.8594C20.7599 48.2511 20.0151 45.8202 18.5114 43.6382C16.9968 41.4403 14.6713 39.4431 11.2972 38.8808L10.9684 40.8536C13.6745 41.3046 15.5714 42.8964 16.8646 44.7731C18.1688 46.6657 18.8173 48.7949 19.0098 50.1422L20.9897 49.8594Z" fill="#210049"/>
<circle cx="9.94249" cy="39.8673" r="1.2667" stroke="#210049" stroke-width="2" stroke-linecap="round" stroke-linejoin="round"/>
<path d="M6.14453 44.0293L3.53386 46.406" stroke="#210049" stroke-width="2" stroke-linecap="round" stroke-linejoin="round"/>
<path d="M4.5 40.3271L0.999998 40.79" stroke="#210049" stroke-width="2" stroke-linecap="round" stroke-linejoin="round"/>
<path d="M16.7617 33.5537L14.1511 35.9304" stroke="#210049" stroke-width="2" stroke-linecap="round" stroke-linejoin="round"/>
<path d="M10.3496 31L10.11 34.5223" stroke="#210049" stroke-width="2" stroke-linecap="round" stroke-linejoin="round"/>
<path d="M3.84375 32.7148L5.98286 35.5235" stroke="#210049" stroke-width="2" stroke-linecap="round" stroke-linejoin="round"/>
<path d="M65.3281 49.0906C64.8178 49.302 64.5755 49.8869 64.7868 50.3972C64.9981 50.9074 65.5831 51.1498 66.0933 50.9385L65.3281 49.0906ZM66.0933 50.9385C67.8863 50.1959 70.4872 48.6087 72.5718 46.2159C74.6692 43.8084 76.284 40.5331 75.9358 36.4751L73.9431 36.646C74.2334 40.0293 72.9049 42.7889 71.0638 44.9021C69.2101 47.0299 66.8774 48.449 65.3281 49.0906L66.0933 50.9385Z" fill="#210049"/>
<circle cx="74.5815" cy="35.1625" r="1.53479" transform="rotate(75.634 74.5815 35.1625)" stroke="#210049" stroke-width="2" stroke-linecap="round" stroke-linejoin="round"/>
<path d="M68.5547 31.9541L64.9802 29.6043" stroke="#210049" stroke-width="2" stroke-linecap="round" stroke-linejoin="round"/>
<path d="M72.4043 28.9121L70.8089 24.9431" stroke="#210049" stroke-width="2" stroke-linecap="round" stroke-linejoin="round"/>
<path d="M84.041 41.2666L80.4665 38.9168" stroke="#210049" stroke-width="2" stroke-linecap="round" stroke-linejoin="round"/>
<path d="M85.1113 32.9746L80.905 33.7523" stroke="#210049" stroke-width="2" stroke-linecap="round" stroke-linejoin="round"/>
<path d="M81.1426 25.8545L78.489 29.2096" stroke="#210049" stroke-width="2" stroke-linecap="round" stroke-linejoin="round"/>
<path d="M32.1522 32.3936C32.1147 32.9446 32.531 33.4217 33.082 33.4592C33.633 33.4967 34.1101 33.0804 34.1476 32.5294L32.1522 32.3936ZM34.1476 32.5294C34.2794 30.5923 34.0134 27.5553 32.7958 24.6229C31.5708 21.6727 29.3534 18.769 25.5616 17.2765L24.8291 19.1375C27.9906 20.382 29.8733 22.8 30.9487 25.3899C32.0315 27.9977 32.2661 30.7196 32.1522 32.3936L34.1476 32.5294Z" fill="#210049"/>
<circle cx="23.7836" cy="17.9067" r="1.53561" transform="rotate(12.0225 23.7836 17.9067)" stroke="#210049" stroke-width="2" stroke-linecap="round" stroke-linejoin="round"/>
<path d="M18.2246 21.877L14.527 24.0323" stroke="#210049" stroke-width="2" stroke-linecap="round" stroke-linejoin="round"/>
<path d="M17.2148 17.0713L12.9483 16.7323" stroke="#210049" stroke-width="2" stroke-linecap="round" stroke-linejoin="round"/>
<path d="M33.4668 12.1504L29.7692 14.3058" stroke="#210049" stroke-width="2" stroke-linecap="round" stroke-linejoin="round"/>
<path d="M26.5156 7.49805L25.3384 11.6129" stroke="#210049" stroke-width="2" stroke-linecap="round" stroke-linejoin="round"/>
<path d="M18.3691 7.88184L20.1927 11.7539" stroke="#210049" stroke-width="2" stroke-linecap="round" stroke-linejoin="round"/>
<path d="M52.1859 28.1612C52.412 28.6651 52.1868 29.2569 51.6829 29.483C51.1791 29.7091 50.5873 29.484 50.3612 28.9801L52.1859 28.1612ZM50.3612 28.9801C49.6048 27.2947 48.8416 24.4988 48.9613 21.4821C49.0818 18.4461 50.1035 15.1208 52.998 12.5363L54.3301 14.0282C51.9407 16.1616 51.0647 18.9153 50.9597 21.5615C50.854 24.227 51.5374 26.7163 52.1859 28.1612L50.3612 28.9801Z" fill="#210049"/>
<circle r="1.45569" transform="matrix(-0.845272 0.534337 0.534337 0.845272 54.8189 12.5513)" stroke="#210049" stroke-width="2" stroke-linecap="round" stroke-linejoin="round"/>
<path d="M61.0664 14.2549L65.0624 14.9568" stroke="#210049" stroke-width="2" stroke-linecap="round" stroke-linejoin="round"/>
<path d="M60.3848 9.64941L64.0672 7.94639" stroke="#210049" stroke-width="2" stroke-linecap="round" stroke-linejoin="round"/>
<path d="M44.3164 10.6143L48.3124 11.3161" stroke="#210049" stroke-width="2" stroke-linecap="round" stroke-linejoin="round"/>
<path d="M48.9707 4.19336L51.3693 7.46558" stroke="#210049" stroke-width="2" stroke-linecap="round" stroke-linejoin="round"/>
<path d="M56.3398 1.85742L55.9903 5.89954" stroke="#210049" stroke-width="2" stroke-linecap="round" stroke-linejoin="round"/>
</svg>
