<svg width="32" height="32" viewBox="0 0 32 32" fill="none" xmlns="http://www.w3.org/2000/svg">
<path d="M5.3473 27.8906H26.651C26.9971 27.8906 27.3371 27.8007 27.638 27.6299C27.9389 27.4591 28.1904 27.2131 28.3678 26.9161C28.5452 26.619 28.6425 26.281 28.6502 25.9351C28.6579 25.5892 28.5757 25.2472 28.4117 24.9425L17.7604 5.16125C17.0048 3.75875 14.9935 3.75875 14.2379 5.16125L3.58667 24.9425C3.42264 25.2472 3.34046 25.5892 3.34815 25.9351C3.35584 26.281 3.45315 26.619 3.63055 26.9161C3.80796 27.2131 4.05941 27.4591 4.36031 27.6299C4.66122 27.8007 5.00129 27.8906 5.3473 27.8906V27.8906Z" stroke="#4376FF" stroke-width="1.5" stroke-linecap="round" stroke-linejoin="round"/>
<path d="M15.6409 12.2117L15.9996 19.8367L16.3578 12.2149C16.36 12.1661 16.3522 12.1175 16.335 12.0718C16.3177 12.0262 16.2914 11.9846 16.2575 11.9495C16.2236 11.9144 16.183 11.8866 16.138 11.8677C16.093 11.8489 16.0446 11.8394 15.9959 11.8399V11.8399C15.9479 11.8403 15.9006 11.8504 15.8566 11.8695C15.8127 11.8885 15.773 11.9162 15.7399 11.9509C15.7068 11.9855 15.681 12.0265 15.664 12.0713C15.647 12.1161 15.6391 12.1638 15.6409 12.2117V12.2117Z" stroke="#4376FF" stroke-width="1.5" stroke-linecap="round" stroke-linejoin="round"/>
<path d="M16 24.8281C15.7528 24.8281 15.5111 24.7548 15.3055 24.6175C15.1 24.4801 14.9398 24.2849 14.8452 24.0565C14.7505 23.8281 14.7258 23.5767 14.774 23.3343C14.8223 23.0918 14.9413 22.8691 15.1161 22.6942C15.2909 22.5194 15.5137 22.4004 15.7561 22.3521C15.9986 22.3039 16.25 22.3287 16.4784 22.4233C16.7068 22.5179 16.902 22.6781 17.0393 22.8837C17.1767 23.0892 17.25 23.3309 17.25 23.5781C17.25 23.9096 17.1183 24.2276 16.8839 24.462C16.6495 24.6964 16.3315 24.8281 16 24.8281Z" fill="#4376FF"/>
</svg>
