<svg width="48" height="48" viewBox="0 0 48 48" fill="none" xmlns="http://www.w3.org/2000/svg">
<path fill-rule="evenodd" clip-rule="evenodd" d="M21.6218 45.0152L2.98481 26.3782C1.67173 25.0651 1.67173 22.9357 2.98481 21.6227L21.6218 2.98481C22.9349 1.67173 25.0643 1.67173 26.3773 2.98481L45.0152 21.6227C46.3283 22.9357 46.3283 25.0651 45.0152 26.3782L26.3773 45.0152C25.0643 46.3283 22.9349 46.3283 21.6218 45.0152Z" fill="#E9E6ED"/>
<path d="M31 31.3077L31 16.6923C31 15.2054 29.9031 14 28.55 14L19.45 14C18.0969 14 17 15.2054 17 16.6923L17 31.3077C17 32.7946 18.0969 34 19.45 34L28.55 34C29.9031 34 31 32.7946 31 31.3077Z" stroke="#210049" stroke-width="1.5" stroke-linecap="round" stroke-linejoin="round"/>
<path d="M22.9375 20.25L22.9375 18L22 18L22 20.25L22.9375 20.25Z" stroke="#210049" stroke-width="1.5" stroke-linejoin="round"/>
</svg>
