<svg width="312" height="191" viewBox="0 0 312 191" fill="none"
  xmlns="http://www.w3.org/2000/svg">
  <rect width="312" height="191" rx="8" fill="#E7E9EA"/>
  <path d="M279.826 41.731L125.652 41.731C123.696 41.731 121.935 39.9382 121.935 37.9462V37.1494C121.935 35.1573 123.696 33.3645 125.652 33.3645L279.63 33.3645C281.587 33.3645 283.348 35.1573 283.348 37.1494V37.9462C283.543 40.1374 281.783 41.731 279.826 41.731Z" fill="#CED4D8"/>
  <path d="M279.826 59.062L125.652 59.062C123.696 59.062 121.935 57.2691 121.935 55.2771V54.4803C121.935 52.4883 123.696 50.6954 125.652 50.6954L279.63 50.6954C281.587 50.6954 283.348 52.4883 283.348 54.4803V55.2771C283.543 57.4683 281.783 59.062 279.826 59.062Z" fill="#CED4D8"/>
  <path d="M279.826 76.3928L125.652 76.3928C123.696 76.3928 121.935 74.5999 121.935 72.6079V71.8111C121.935 69.8191 123.696 68.0262 125.652 68.0262L279.63 68.0262C281.587 68.0262 283.348 69.8191 283.348 71.8111V72.6079C283.543 74.5999 281.783 76.3928 279.826 76.3928Z" fill="#CED4D8"/>
  <path d="M279.826 93.7227L125.652 93.7227C123.696 93.7227 121.935 91.9299 121.935 89.9379V89.1411C121.935 87.149 123.696 85.3562 125.652 85.3562L279.63 85.3562C281.587 85.3562 283.348 87.149 283.348 89.1411V89.9379C283.544 92.1291 281.783 93.7227 279.826 93.7227Z" fill="#CED4D8"/>
  <path d="M272.978 162.847L39.5652 162.847C33.8913 162.847 29 158.066 29 152.09L29 130.775C29 124.998 33.6957 120.018 39.5652 120.018L273.174 120.018C278.848 120.018 283.739 124.799 283.739 130.775V152.09C283.544 158.066 278.848 162.847 272.978 162.847Z" fill="#CED4D8"/>
  <path d="M37.6089 80.1773C37.0219 80.1773 36.4349 79.7789 36.2393 79.1813C34.6741 75.1972 33.6958 71.0139 33.6958 66.8307C33.6958 66.0339 34.2828 65.2371 35.261 65.2371C36.0436 65.2371 36.8262 65.8347 36.8262 66.8307C36.8262 70.8147 37.6089 74.5996 38.9784 77.9861C39.3697 78.7829 38.9784 79.5797 38.1958 79.9781C38.0002 80.1773 37.8045 80.1773 37.6089 80.1773Z" fill="#CED4D8"/>
  <path d="M91.6088 83.7631C91.4132 83.7631 91.2175 83.7631 91.0219 83.5639C90.2393 83.1655 90.0436 82.3687 90.2393 81.5719C91.4132 78.783 92.3914 75.9942 92.7827 73.0061C92.9784 72.2093 93.5654 71.6117 94.348 71.6117C95.1306 71.8109 95.7175 72.4085 95.7175 73.2053C95.3262 76.5918 94.348 79.779 92.9784 82.7671C92.5871 83.3647 92.0001 83.7631 91.6088 83.7631Z" fill="#CED4D8"/>
  <path d="M94.7392 68.4242C93.9566 68.4242 93.174 67.8266 93.174 66.8306C93.174 55.2768 86.3262 44.7191 75.9566 40.3366C75.174 39.9382 74.7827 39.1414 75.174 38.3446C75.5653 37.5478 76.3479 37.1494 77.1305 37.5478C88.674 42.5279 96.3045 54.0816 96.3045 66.8306C96.3045 67.6274 95.5218 68.4242 94.7392 68.4242Z" fill="#CED4D8"/>
  <path d="M36.8262 58.4645C36.6305 58.4645 36.4349 58.4645 36.4349 58.4645C35.6522 58.2653 35.2609 57.2693 35.4566 56.4725C39.7609 43.7235 51.6957 35.1577 65.0001 35.1577C65.7827 35.1577 66.5653 35.7553 66.5653 36.7513C66.5653 37.5482 65.9783 38.345 65.0001 38.345C52.8696 38.345 42.1088 46.1139 38.1957 57.6677C38.0001 58.0661 37.4131 58.4645 36.8262 58.4645Z" fill="#CED4D8"/>
  <path d="M41.3262 71.4123C40.5436 71.4123 39.9566 70.8147 39.9566 70.0179C39.761 69.0219 39.761 68.0259 39.761 66.8306C39.761 57.6673 44.6523 49.1016 52.2827 44.5199C53.0653 44.1215 53.8479 44.3207 54.2392 45.1175C54.6305 45.9143 54.4349 46.7111 53.6523 47.1095C46.8045 51.0936 42.5001 58.6633 42.5001 66.8306C42.5001 67.8267 42.5001 68.6235 42.6958 69.6195C42.8914 70.4163 42.3045 71.2131 41.3262 71.4123C41.5219 71.2131 41.3262 71.4123 41.3262 71.4123Z" fill="#CED4D8"/>
  <path d="M79.674 49.3011C79.2827 49.3011 79.0871 49.1019 78.6958 48.9027C74.7827 45.7155 69.8914 44.1218 65.0001 44.1218C63.8262 44.1218 62.8479 44.1218 61.674 44.321C60.8914 44.5202 60.1088 43.9226 59.9132 43.1258C59.7175 42.329 60.3045 41.5322 61.0871 41.333C62.261 41.1338 63.4349 41.1338 64.8045 41.1338C70.4784 41.1338 75.9566 42.9266 80.4566 46.5123C81.0436 47.1099 81.2392 47.9067 80.6523 48.7035C80.4566 49.1019 80.0653 49.3011 79.674 49.3011Z" fill="#CED4D8"/>
  <path d="M80.6523 94.122C80.261 94.122 80.0654 93.9228 79.6741 93.7236C79.0871 93.1259 78.8915 92.3291 79.4784 91.5323C87.1089 81.9706 90.8262 65.4367 83.7828 54.2813C83.3915 53.6837 83.5871 52.6877 84.1741 52.2893C84.761 51.8909 85.7393 52.0901 86.1306 52.6877C89.848 58.4646 91.2176 65.8351 90.0436 73.8032C89.0654 80.9746 85.9349 88.1459 81.6306 93.5244C81.4349 93.9228 81.0436 94.122 80.6523 94.122Z" fill="#CED4D8"/>
  <path d="M66.5654 77.5881C65.7828 77.5881 65.1958 76.9905 65.0001 76.1936C64.8045 73.2056 64.4132 70.4167 63.8262 67.8271C63.6306 67.0303 64.0219 66.2335 64.8045 66.0343C65.5871 65.8351 66.3697 66.2335 66.5654 67.0303C67.348 69.8191 67.7393 73.0064 67.9349 75.9944C67.9349 76.7913 67.348 77.3889 66.5654 77.5881Z" fill="#CED4D8"/>
  <path d="M63.0436 98.7033C62.8479 98.7033 62.6523 98.7033 62.4566 98.5041C61.674 98.1057 61.2827 97.3089 61.674 96.5121C63.6305 91.532 64.8045 86.1535 65.1958 80.9743C65.1958 80.1774 65.9784 79.5798 66.761 79.5798C67.5436 79.5798 68.1306 80.3766 68.1306 81.1735C67.7392 86.5519 66.3697 92.3288 64.4132 97.5081C64.2175 98.3049 63.6305 98.7033 63.0436 98.7033Z" fill="#CED4D8"/>
  <path d="M41.7175 87.349C41.5219 87.349 41.5219 87.349 41.3262 87.349C40.5436 87.1497 40.1523 86.3529 40.348 85.5561C41.1306 82.7673 41.3262 79.58 40.9349 76.3928C40.7393 75.596 41.3262 74.7992 42.3045 74.7992C43.0871 74.6 43.8697 75.1976 43.8697 76.1936C44.261 79.7792 44.0653 83.3649 43.0871 86.5521C42.8914 86.7513 42.3045 87.349 41.7175 87.349Z" fill="#CED4D8"/>
  <path d="M83.0001 68.4244C82.2175 68.4244 81.4349 67.8268 81.4349 66.8307C81.4349 61.2531 78.6957 56.0738 74.1957 52.8865C73.6088 52.4881 73.4131 51.4921 73.8044 50.8945C74.1957 50.2969 75.174 50.0977 75.7609 50.4961C81.0436 54.281 84.174 60.257 84.174 66.8307C84.5653 67.6276 83.7827 68.4244 83.0001 68.4244Z" fill="#CED4D8"/>
  <path d="M47 68.425C46.2174 68.425 45.4348 67.8274 45.4348 66.8313C45.4348 55.8752 54.2392 46.911 65 46.911C65.587 46.911 66.3696 46.911 66.9566 47.1102C67.7392 47.1102 68.3261 47.907 68.3261 48.7038C68.3261 49.5007 67.5435 50.0983 66.7609 50.0983C66.1739 50.0983 65.587 50.0983 65 50.0983C55.8044 50.0983 48.3696 57.668 48.3696 67.0305C48.3696 67.6282 47.7826 68.425 47 68.425Z" fill="#CED4D8"/>
  <path d="M46.4132 92.1299C46.2176 92.1299 46.0219 92.1299 45.8263 92.1299C45.0436 91.9307 44.6523 90.9347 45.0436 90.1379C46.2176 86.9506 46.8045 83.365 46.8045 79.9785C46.8045 77.5881 46.6089 75.3968 46.0219 73.2056C45.8263 72.4088 46.4132 71.612 47.1958 71.4128C47.9784 71.2136 48.761 71.8112 48.9567 72.608C49.5436 74.9984 49.7393 77.5881 49.7393 80.1777C49.7393 83.9626 49.1523 87.7474 47.7828 91.3331C47.5871 91.7315 47.0002 92.1299 46.4132 92.1299Z" fill="#CED4D8"/>
  <path d="M68.9131 98.7036C68.5218 98.7036 67.9349 98.5044 67.7392 98.106C67.3479 97.5083 67.5436 96.5123 68.1305 96.1139C75.5653 90.9346 80.261 82.9665 81.6305 73.604C81.8262 72.8071 82.4131 72.2095 83.1958 72.4087C83.9784 72.6079 84.5653 73.2055 84.3697 74.0024C83.0001 84.1617 77.7175 92.9267 69.6957 98.5044C69.5001 98.7036 69.1088 98.7036 68.9131 98.7036Z" fill="#CED4D8"/>
  <path d="M54.435 62.6478C54.2393 62.6478 54.0437 62.6478 53.848 62.4486C53.0654 62.0502 52.8698 61.2534 53.2611 60.4566C55.6089 55.8749 60.1089 53.0861 65.1959 53.0861C68.522 53.0861 71.848 54.2813 74.1959 56.6717C74.7828 57.2693 74.7828 58.2653 74.1959 58.8629C73.6089 59.4606 72.6307 59.4606 72.0437 58.8629C70.0872 57.0701 67.5437 56.0741 65.0002 56.0741C61.0872 56.0741 57.5654 58.2653 55.6089 61.851C55.4133 62.4486 54.8263 62.6478 54.435 62.6478Z" fill="#CED4D8"/>
  <path d="M54.8261 82.967C54.0435 82.967 53.2609 82.3694 53.2609 81.3734C53.2609 76.9909 52.674 72.8076 51.5001 68.6244C51.3044 67.8275 51.6957 67.0307 52.4783 66.8315C53.2609 66.6323 54.0435 67.0307 54.2392 67.8275C55.4131 72.21 56.0001 76.7917 56.0001 81.3734C56.3914 82.1702 55.8044 82.967 54.8261 82.967Z" fill="#CED4D8"/>
  <path d="M52.0871 95.7152C51.8915 95.7152 51.6958 95.7152 51.5001 95.516C50.7175 95.1176 50.5219 94.3208 50.7175 93.5239C51.6958 91.3327 52.2828 89.1415 52.6741 86.751C52.8697 85.9542 53.6523 85.3566 54.4349 85.5558C55.2175 85.755 55.8045 86.5518 55.6089 87.3486C55.2175 89.9383 54.4349 92.5279 53.261 94.9184C53.261 95.3168 52.6741 95.7152 52.0871 95.7152Z" fill="#CED4D8"/>
  <path d="M78.3045 76.1932C78.1088 76.1932 78.1088 76.1932 78.3045 76.1932C77.3262 76.1932 76.7393 75.3964 76.7393 74.5996C76.9349 71.0139 76.5436 67.6275 75.3697 64.241C75.174 63.4442 75.5653 62.6474 76.3479 62.249C77.1306 62.0498 77.9132 62.4482 78.3045 63.245C79.674 67.0299 80.0653 70.8147 79.8697 74.7988C79.674 75.5956 78.8914 76.1932 78.3045 76.1932Z" fill="#CED4D8"/>
  <path d="M57.3698 97.7073C57.1741 97.7073 56.9785 97.7073 56.7828 97.5081C56.0002 97.1097 55.6089 96.3129 56.0002 95.5161C56.7828 93.9225 57.3698 92.3289 57.7611 90.536C57.9567 89.7392 58.7393 89.3408 59.5219 89.54C60.3045 89.7392 60.6958 90.536 60.5002 91.3328C59.9132 93.1257 59.3263 94.9185 58.5437 96.7113C58.348 97.3089 57.7611 97.7073 57.3698 97.7073Z" fill="#CED4D8"/>
  <path d="M60.1089 87.9468H59.9132C59.1306 87.7476 58.5437 87.15 58.7393 86.154C59.1306 83.7635 59.1306 81.3731 59.1306 78.9827C59.1306 77.7874 58.935 76.7914 58.7393 75.5962C58.5437 74.7994 59.1306 74.0026 59.9132 73.8034C60.6959 73.6042 61.4785 74.2018 61.6741 74.9986C61.8698 76.1938 62.0654 77.389 62.0654 78.7835C62.2611 81.3731 62.0654 83.9627 61.6741 86.5524C61.4785 87.3492 60.8915 87.9468 60.1089 87.9468Z" fill="#CED4D8"/>
  <path d="M73.0219 77.9862C72.2393 77.9862 71.4567 77.3886 71.4567 76.3925C71.4567 71.4125 70.0871 61.8507 64.8045 61.8507C62.261 61.8507 60.1089 64.0419 60.1089 66.6316V66.8308C60.1089 67.6276 59.5219 68.4244 58.7393 68.4244C57.9567 68.4244 57.1741 67.8268 57.1741 67.03C57.1741 66.8308 57.1741 66.8308 57.1741 66.6316C57.1741 62.2491 60.6958 58.6635 65.0002 58.6635C72.0436 58.6635 74.5871 68.2252 74.5871 76.1933C74.5871 77.3886 73.8045 77.9862 73.0219 77.9862Z" fill="#CED4D8"/>
  <path d="M70.2828 91.5326C70.0872 91.5326 69.8915 91.5326 69.6959 91.3334C68.9133 90.935 68.522 90.1382 68.9133 89.3414C70.0872 86.7517 70.8698 84.1621 71.2611 81.3732C71.4567 80.5764 72.0437 79.9788 73.022 80.178C73.8046 80.3772 74.3915 80.9748 74.1959 81.9708C73.8046 84.9589 72.8263 87.9469 71.6524 90.7358C71.2611 91.3334 70.8698 91.5326 70.2828 91.5326Z" fill="#CED4D8"/>
</svg>
