<svg width="52" height="52" viewBox="0 0 52 52" fill="none"
  xmlns="http://www.w3.org/2000/svg">
  <circle cx="26" cy="26" r="26" fill="white"/>
  <path d="M33.3859 17.6156L31.3063 14.3297C30.868 13.8188 30.2672 13.5 29.5938 13.5H22.4062C21.7328 13.5 21.132 13.8188 20.6938 14.3297L18.6141 17.6156C18.1758 18.1273 17.6109 18.5 16.9375 18.5H12.25C11.587 18.5 10.9511 18.7634 10.4822 19.2322C10.0134 19.7011 9.75 20.337 9.75 21V36C9.75 36.663 10.0134 37.2989 10.4822 37.7678C10.9511 38.2366 11.587 38.5 12.25 38.5H39.75C40.413 38.5 41.0489 38.2366 41.5178 37.7678C41.9866 37.2989 42.25 36.663 42.25 36V21C42.25 20.337 41.9866 19.7011 41.5178 19.2322C41.0489 18.7634 40.413 18.5 39.75 18.5H35.1406C34.4648 18.5 33.8242 18.1273 33.3859 17.6156Z" stroke="#A2B0B7" stroke-width="1.5" stroke-linecap="round" stroke-linejoin="round"/>
  <path d="M26 33.5C29.4518 33.5 32.25 30.7018 32.25 27.25C32.25 23.7982 29.4518 21 26 21C22.5482 21 19.75 23.7982 19.75 27.25C19.75 30.7018 22.5482 33.5 26 33.5Z" stroke="#A2B0B7" stroke-width="1.5" stroke-miterlimit="10"/>
  <path d="M15.6875 18.3438V16.625H13.8125V18.3438" stroke="#A2B0B7" stroke-width="1.5" stroke-linecap="round" stroke-linejoin="round"/>
</svg>
