<svg width="312" height="191" viewBox="0 0 312 191" fill="none"
  xmlns="http://www.w3.org/2000/svg">
  <rect width="312" height="191" rx="8" fill="#E7E9EA"/>
  <path d="M163.46 48L34.8578 48C33.2701 48 32 46.6667 32 45C32 43.3333 33.2701 42 34.8578 42L163.142 42C164.73 42 166 43.3333 166 45C166 46.6667 164.73 48 163.46 48Z" fill="#CED5D8"/>
  <path d="M163.46 63L34.8578 63C33.2701 63 32 61.6667 32 60C32 58.3333 33.2701 57 34.8578 57L163.142 57C164.73 57 166 58.3333 166 60C166 62 164.73 63 163.46 63Z" fill="#CED5D8"/>
  <path d="M163.46 150L34.8578 150C33.2701 150 32 148.667 32 147C32 145.333 33.2701 144 34.8578 144L163.142 144C164.73 144 166 145.333 166 147C166 148.667 164.73 150 163.46 150Z" fill="#CED5D8"/>
  <path d="M111.87 87L36.1298 87C34.2519 87 33 85.5 33 84V78C33 76.2 34.5649 75 36.1298 75L111.87 75C113.748 75 115 76.5 115 78V84C115 85.8 113.748 87 111.87 87Z" fill="#CED5D8"/>
  <path d="M111.87 107L36.1298 107C34.2519 107 33 105.375 33 103.75V97.25C33 95.3 34.5649 94 36.1298 94L111.87 94C113.748 94 115 95.625 115 97.25V103.75C115 105.375 113.748 107 111.87 107Z" fill="#CED5D8"/>
  <path d="M234.5 99C250.792 99 264 85.3447 264 68.5C264 51.6553 250.792 38 234.5 38C218.208 38 205 51.6553 205 68.5C205 85.3447 218.208 99 234.5 99Z" fill="#CED5D8"/>
  <path d="M236.475 112C284 112 284 163 284 163H188C188 162.677 188 112 236.475 112Z" fill="#CED5D8"/>
</svg>
