<svg width="240" height="248" viewBox="0 0 240 248" fill="none" xmlns="http://www.w3.org/2000/svg">
<g clip-path="url(#clip0)">
<path opacity="0.25" d="M164.162 178.783C164.162 166.683 164.162 97.1103 164.162 80.9182C164.162 79.4947 162.733 78.4271 161.304 78.7829C159.517 79.3167 157.731 79.3167 155.765 78.7829C152.013 77.8933 149.155 74.8684 147.904 71.3096C147.19 69.1744 147.19 67.0392 147.726 65.2598C148.083 63.8363 147.011 62.4128 145.582 62.4128C135.219 62.4128 103.596 62.4128 93.234 62.4128C91.8048 62.4128 90.7328 63.8363 91.0901 65.2598C91.6261 67.2171 91.6261 69.3523 90.7328 71.6655C89.6608 74.6904 87.1596 77.1815 83.9437 78.4271C81.6211 79.3168 79.4772 79.3167 77.5119 78.7829C76.0826 78.4271 74.6533 79.4947 74.6533 80.9182C74.6533 97.1103 74.6533 166.861 74.6533 178.783C74.6533 179.851 75.368 180.562 76.4399 180.562H162.197C163.448 180.562 164.162 179.673 164.162 178.783Z" fill="#2FCAD7"/>
<path opacity="0.25" d="M162.376 203.694H76.6186C75.5467 203.694 74.832 202.982 74.832 201.914V185.9C74.832 184.833 75.5467 184.121 76.6186 184.121H162.376C163.448 184.121 164.162 184.833 164.162 185.9V201.914C164.162 202.804 163.448 203.694 162.376 203.694Z" fill="#2FCAD7"/>
<path opacity="0.25" d="M162.376 223.267H76.6186C75.5467 223.267 74.832 222.555 74.832 221.487V209.032C74.832 207.964 75.5467 207.252 76.6186 207.252H162.376C163.448 207.252 164.162 207.964 164.162 209.032V221.487C164.162 222.377 163.448 223.267 162.376 223.267Z" fill="#2FCAD7"/>
<path opacity="0.2" d="M162.376 235.544H76.6186C75.5467 235.544 74.832 234.833 74.832 233.765V228.427C74.832 227.359 75.5467 226.647 76.6186 226.647H162.376C163.448 226.647 164.162 227.359 164.162 228.427V233.765C164.162 234.833 163.448 235.544 162.376 235.544Z" fill="#2FCAD7"/>
<path opacity="0.15" d="M162.376 242.662H76.6186C75.5467 242.662 74.832 241.95 74.832 240.883C74.832 239.815 75.5467 239.103 76.6186 239.103H162.376C163.448 239.103 164.162 239.815 164.162 240.883C164.162 241.95 163.448 242.662 162.376 242.662Z" fill="#2FCAD7"/>
<path opacity="0.25" d="M80.3715 73.4449C83.4303 73.4449 85.91 70.9753 85.91 67.9289C85.91 64.8824 83.4303 62.4128 80.3715 62.4128C77.3127 62.4128 74.833 64.8824 74.833 67.9289C74.833 70.9753 77.3127 73.4449 80.3715 73.4449Z" fill="#2FCAD7"/>
<path opacity="0.25" d="M158.802 73.4449C161.861 73.4449 164.341 70.9753 164.341 67.9289C164.341 64.8824 161.861 62.4128 158.802 62.4128C155.743 62.4128 153.264 64.8824 153.264 67.9289C153.264 70.9753 155.743 73.4449 158.802 73.4449Z" fill="#2FCAD7"/>
<path opacity="0.1" d="M75.7253 246.221H163.269C163.805 246.221 164.162 246.577 164.162 247.111C164.162 247.644 163.805 248 163.269 248H75.7253C75.1894 248 74.832 247.644 74.832 247.111C74.832 246.577 75.368 246.221 75.7253 246.221Z" fill="#2FCAD7"/>
<path d="M63.7534 220.42C62.6814 220.42 61.9668 221.132 61.9668 222.2V227.538C61.9668 228.605 62.6814 229.317 63.7534 229.317C64.8254 229.317 65.54 228.605 65.54 227.538V222.2C65.54 221.31 64.6467 220.42 63.7534 220.42Z" fill="#26A1AB"/>
<path d="M175.416 218.64C174.345 218.64 173.63 219.352 173.63 220.42V231.096C173.63 232.164 174.345 232.875 175.416 232.875C176.488 232.875 177.203 232.164 177.203 231.096V220.42C177.203 219.53 176.31 218.64 175.416 218.64Z" fill="#26A1AB"/>
<path d="M63.7534 232.876C62.6814 232.876 61.9668 233.587 61.9668 234.655V238.392C61.9668 239.459 62.6814 240.171 63.7534 240.171C64.8254 240.171 65.54 239.459 65.54 238.392V234.655C65.54 233.765 64.6467 232.876 63.7534 232.876Z" fill="#26A1AB"/>
<path d="M63.7534 243.73C62.6814 243.73 61.9668 244.619 61.9668 245.509C61.9668 246.399 62.6814 247.288 63.7534 247.288C64.8254 247.288 65.54 246.577 65.54 245.509V245.331C65.54 244.441 64.6467 243.73 63.7534 243.73Z" fill="#26A1AB"/>
<path d="M175.416 236.435C174.345 236.435 173.63 237.146 173.63 238.214V238.392C173.63 239.46 174.345 240.171 175.416 240.171C176.488 240.171 177.203 239.282 177.203 238.392C177.203 237.502 176.31 236.435 175.416 236.435Z" fill="#26A1AB"/>
<path d="M63.7534 197.288C62.6814 197.288 61.9668 198 61.9668 199.067V215.082C61.9668 216.149 62.6814 216.861 63.7534 216.861C64.8254 216.861 65.54 216.149 65.54 215.082V199.067C65.54 198.178 64.6467 197.288 63.7534 197.288Z" fill="#26A1AB"/>
<path d="M175.416 206.185C174.345 206.185 173.63 206.897 173.63 207.965V213.303C173.63 214.37 174.345 215.082 175.416 215.082C176.488 215.082 177.203 214.37 177.203 213.303V207.965C177.203 207.075 176.31 206.185 175.416 206.185Z" fill="#26A1AB"/>
<path d="M175.416 188.392C174.345 188.392 173.63 189.104 173.63 190.171V200.847C173.63 201.915 174.345 202.627 175.416 202.627C176.488 202.627 177.203 201.915 177.203 200.847V190.171C177.203 189.282 176.31 188.392 175.416 188.392Z" fill="#26A1AB"/>
<path d="M63.7534 184.833C62.6814 184.833 61.9668 185.545 61.9668 186.612V191.95C61.9668 193.018 62.6814 193.73 63.7534 193.73C64.8254 193.73 65.54 193.018 65.54 191.95V186.612C65.54 185.723 64.6467 184.833 63.7534 184.833Z" fill="#26A1AB"/>
<path d="M188.638 110.456L177.204 104.05V53.3381C177.204 50.3132 174.881 48 171.844 48H67.3273C64.2901 48 61.9675 50.3132 61.9675 53.3381V104.05L50.5332 110.456C40.8855 115.794 35.347 125.936 36.0617 136.968C36.7763 148 43.5654 157.431 53.7491 161.523L62.1461 164.904V179.495C62.1461 180.562 62.8608 181.274 63.9327 181.274C65.0047 181.274 65.7194 180.562 65.7194 179.495V163.658V106.007L68.2206 104.584C73.5804 101.559 76.975 95.8648 76.975 89.8149C76.975 88.7473 76.2603 88.0356 75.1884 88.0356C74.1164 88.0356 73.4018 88.7473 73.4018 89.8149C73.4018 94.6192 70.7219 99.0676 66.434 101.559L65.5407 101.915V53.3381C65.5407 52.2705 66.2553 51.5587 67.3273 51.5587H171.844C172.916 51.5587 173.63 52.2705 173.63 53.3381V101.915L172.916 101.559C168.628 99.2455 165.948 94.6192 165.948 89.8149C165.948 88.7473 165.233 88.0356 164.161 88.0356C163.089 88.0356 162.375 88.7473 162.375 89.8149C162.375 95.8648 165.769 101.559 171.129 104.584L173.63 106.007V163.658V183.053C173.63 184.121 174.345 184.833 175.417 184.833C176.489 184.833 177.204 184.121 177.204 183.053V164.904L185.601 161.523C195.784 157.431 202.574 148 203.288 136.968C203.824 125.936 198.286 115.794 188.638 110.456ZM61.9675 161.167L54.9997 158.32C46.0667 154.584 40.1709 146.399 39.4562 136.79C38.9202 127.181 43.7441 118.285 52.1411 113.48L61.7888 107.964V161.167H61.9675ZM199.536 136.79C199 146.399 193.105 154.584 183.993 158.32L177.025 161.167V108.142L186.673 113.658C195.248 118.285 200.251 127.181 199.536 136.79Z" fill="#26A1AB"/>
<path d="M90.3748 104.939C89.6601 104.939 89.1241 104.584 88.7668 103.872C88.4095 102.982 88.7668 101.914 89.6601 101.559L97.1638 97.9999C98.0572 97.644 99.1291 97.9999 99.4864 98.8896C99.8438 99.7793 99.4864 100.847 98.5931 101.203L91.0894 104.761C90.9107 104.939 90.7321 104.939 90.3748 104.939Z" fill="#26A1AB"/>
<path d="M148.619 96.0429C148.44 96.0429 148.083 96.0429 147.904 95.865L140.4 92.3063C139.507 91.9504 139.15 90.8828 139.507 89.9931C139.864 89.1034 140.936 88.7475 141.83 89.1034L149.333 92.6621C150.227 93.018 150.584 94.0856 150.227 94.9753C150.048 95.687 149.333 96.0429 148.619 96.0429Z" fill="#26A1AB"/>
<path d="M103.06 119.174C104.54 119.174 105.74 117.979 105.74 116.505C105.74 115.031 104.54 113.836 103.06 113.836C101.58 113.836 100.38 115.031 100.38 116.505C100.38 117.979 101.58 119.174 103.06 119.174Z" fill="white"/>
<path d="M103.061 122.733C99.6662 122.733 96.8076 119.886 96.8076 116.505C96.8076 113.124 99.6662 110.277 103.061 110.277C106.455 110.277 109.314 113.124 109.314 116.505C109.314 119.886 106.455 122.733 103.061 122.733ZM103.061 113.836C101.631 113.836 100.381 115.082 100.381 116.505C100.381 117.929 101.631 119.174 103.061 119.174C104.49 119.174 105.741 117.929 105.741 116.505C105.741 115.082 104.49 113.836 103.061 113.836Z" fill="#26A1AB"/>
<path d="M136.113 119.174C137.593 119.174 138.792 117.979 138.792 116.505C138.792 115.031 137.593 113.836 136.113 113.836C134.632 113.836 133.433 115.031 133.433 116.505C133.433 117.979 134.632 119.174 136.113 119.174Z" fill="white"/>
<path d="M136.113 122.733C132.718 122.733 129.859 119.886 129.859 116.505C129.859 113.124 132.718 110.277 136.113 110.277C139.507 110.277 142.366 113.124 142.366 116.505C142.366 119.886 139.507 122.733 136.113 122.733ZM136.113 113.836C134.683 113.836 133.433 115.082 133.433 116.505C133.433 117.929 134.683 119.174 136.113 119.174C137.542 119.174 138.792 117.929 138.792 116.505C138.792 115.082 137.542 113.836 136.113 113.836Z" fill="#26A1AB"/>
<path d="M134.504 130.918C134.147 129.317 133.075 127.893 131.645 127.004C124.142 122.555 114.851 122.555 107.348 127.004C105.918 127.893 104.846 129.139 104.489 130.918C104.132 132.52 104.31 134.121 105.204 135.544C106.097 136.968 107.348 138.036 109.134 138.391C109.67 138.569 110.206 138.569 110.742 138.569C111.814 138.569 112.886 138.213 113.958 137.68C117.531 135.544 121.819 135.544 125.392 137.68C126.286 138.213 127.536 138.569 128.608 138.569C130.752 138.569 132.896 137.324 133.968 135.544C134.683 134.121 135.04 132.52 134.504 130.918Z" fill="#26A1AB"/>
<path d="M124.321 135.188C125.035 135.544 125.75 134.833 125.393 134.121C124.499 131.808 122.177 130.028 119.497 130.028C116.817 130.028 114.494 131.808 113.601 134.121C113.422 134.833 113.958 135.544 114.673 135.188C117.889 134.121 121.283 134.121 124.321 135.188Z" fill="#2FCAD7"/>
<path opacity="0.25" d="M206.081 120.296H187.311C186.438 120.296 185.856 119.713 185.856 118.839C185.856 117.965 186.438 117.382 187.311 117.382H206.081C206.954 117.382 207.536 117.965 207.536 118.839C207.536 119.713 206.954 120.296 206.081 120.296Z" fill="#2FCAD7"/>
<path opacity="0.25" d="M34.9186 120.296H53.6885C54.5615 120.296 55.1436 119.713 55.1436 118.839C55.1436 117.965 54.5615 117.382 53.6885 117.382H34.9186C34.0456 117.382 33.4636 117.965 33.4636 118.839C33.4636 119.713 34.0456 120.296 34.9186 120.296Z" fill="#2FCAD7"/>
<path opacity="0.25" d="M231.545 127.434H194.587C193.714 127.434 193.132 126.851 193.132 125.977C193.132 125.103 193.714 124.52 194.587 124.52H231.545C232.418 124.52 233 125.103 233 125.977C233 126.851 232.272 127.434 231.545 127.434Z" fill="#2FCAD7"/>
<path opacity="0.25" d="M9.45548 127.434H46.4131C47.2862 127.434 47.8682 126.851 47.8682 125.977C47.8682 125.103 47.2862 124.52 46.4131 124.52H9.45548C8.58246 124.52 8.00045 125.103 8.00045 125.977C8.00045 126.851 8.72797 127.434 9.45548 127.434Z" fill="#2FCAD7"/>
<path opacity="0.25" d="M213.066 107.913H204.045C203.172 107.913 202.59 107.331 202.59 106.457C202.59 105.583 203.172 105 204.045 105H213.066C213.939 105 214.521 105.583 214.521 106.457C214.521 107.331 213.794 107.913 213.066 107.913Z" fill="#2FCAD7"/>
<path opacity="0.25" d="M27.9339 107.913H36.9551C37.8281 107.913 38.4102 107.331 38.4102 106.457C38.4102 105.583 37.8281 105 36.9551 105H27.9339C27.0609 105 26.4789 105.583 26.4789 106.457C26.4789 107.331 27.2064 107.913 27.9339 107.913Z" fill="#2FCAD7"/>
<path opacity="0.25" d="M194.587 147.828H190.513C189.64 147.828 189.058 147.246 189.058 146.372C189.058 145.497 189.64 144.915 190.513 144.915H194.587C195.46 144.915 196.042 145.497 196.042 146.372C196.042 147.246 195.314 147.828 194.587 147.828Z" fill="#2FCAD7"/>
<path opacity="0.25" d="M46.4133 147.828H50.4874C51.3604 147.828 51.9424 147.246 51.9424 146.372C51.9424 145.497 51.3604 144.915 50.4874 144.915H46.4133C45.5403 144.915 44.9583 145.497 44.9583 146.372C44.9583 147.246 45.6858 147.828 46.4133 147.828Z" fill="#2FCAD7"/>
<path opacity="0.25" d="M213.066 150.013H204.045C203.172 150.013 202.59 149.43 202.59 148.556C202.59 147.682 203.172 147.1 204.045 147.1H213.066C213.939 147.1 214.521 147.682 214.521 148.556C214.521 149.43 213.794 150.013 213.066 150.013Z" fill="#2FCAD7"/>
<path opacity="0.25" d="M27.9339 150.013H36.9551C37.8281 150.013 38.4102 149.43 38.4102 148.556C38.4102 147.682 37.8281 147.1 36.9551 147.1H27.9339C27.0609 147.1 26.4789 147.682 26.4789 148.556C26.4789 149.43 27.2064 150.013 27.9339 150.013Z" fill="#2FCAD7"/>
<path opacity="0.25" d="M211.32 194.153H194.587C193.714 194.153 193.132 193.57 193.132 192.696C193.132 191.822 193.714 191.239 194.587 191.239H211.32C212.193 191.239 212.775 191.822 212.775 192.696C212.775 193.57 212.047 194.153 211.32 194.153Z" fill="#2FCAD7"/>
<path opacity="0.25" d="M29.6804 194.153H46.4131C47.2862 194.153 47.8682 193.57 47.8682 192.696C47.8682 191.822 47.2862 191.239 46.4131 191.239H29.6804C28.8074 191.239 28.2254 191.822 28.2254 192.696C28.2254 193.57 28.9529 194.153 29.6804 194.153Z" fill="#2FCAD7"/>
<path opacity="0.25" d="M221.65 176.089H203.607C202.734 176.089 202.152 175.507 202.152 174.633C202.152 173.758 202.734 173.176 203.607 173.176H221.65C222.523 173.176 223.105 173.758 223.105 174.633C223.105 175.507 222.377 176.089 221.65 176.089Z" fill="#2FCAD7"/>
<path opacity="0.25" d="M19.3503 176.089H37.3926C38.2656 176.089 38.8477 175.507 38.8477 174.633C38.8477 173.758 38.2656 173.176 37.3926 173.176H19.3503C18.4773 173.176 17.8953 173.758 17.8953 174.633C17.8953 175.507 18.6228 176.089 19.3503 176.089Z" fill="#2FCAD7"/>
<path opacity="0.25" d="M190.513 204.059H185.421C184.548 204.059 183.966 203.476 183.966 202.602C183.966 201.728 184.548 201.146 185.421 201.146H190.513C191.386 201.146 191.968 201.728 191.968 202.602C191.968 203.476 191.241 204.059 190.513 204.059Z" fill="#2FCAD7"/>
<path opacity="0.25" d="M50.4866 204.059H55.5792C56.4522 204.059 57.0342 203.476 57.0342 202.602C57.0342 201.728 56.4522 201.146 55.5792 201.146H50.4866C49.6135 201.146 49.0315 201.728 49.0315 202.602C49.0315 203.476 49.759 204.059 50.4866 204.059Z" fill="#2FCAD7"/>
<path opacity="0.25" d="M214.229 207.992H206.081C205.208 207.992 204.626 207.409 204.626 206.535C204.626 205.661 205.208 205.079 206.081 205.079H214.229C215.102 205.079 215.684 205.661 215.684 206.535C215.684 207.409 215.102 207.992 214.229 207.992Z" fill="#2FCAD7"/>
<path opacity="0.25" d="M26.7708 207.992H34.919C35.792 207.992 36.374 207.409 36.374 206.535C36.374 205.661 35.792 205.079 34.919 205.079H26.7708C25.8978 205.079 25.3158 205.661 25.3158 206.535C25.3158 207.409 25.8978 207.992 26.7708 207.992Z" fill="#2FCAD7"/>
<path opacity="0.25" d="M218.303 163.707H205.79C204.917 163.707 204.335 163.124 204.335 162.25C204.335 161.376 204.917 160.793 205.79 160.793H218.303C219.176 160.793 219.758 161.376 219.758 162.25C219.758 163.124 219.176 163.707 218.303 163.707Z" fill="#2FCAD7"/>
<path opacity="0.25" d="M22.6968 163.707H35.21C36.083 163.707 36.665 163.124 36.665 162.25C36.665 161.376 36.083 160.793 35.21 160.793H22.6968C21.8238 160.793 21.2418 161.376 21.2418 162.25C21.2418 163.124 21.8238 163.707 22.6968 163.707Z" fill="#2FCAD7"/>
<path opacity="0.25" d="M190.513 234.796H179.455C178.582 234.796 178 234.214 178 233.34C178 232.466 178.582 231.883 179.455 231.883H190.368C191.241 231.883 191.823 232.466 191.823 233.34C191.823 234.214 191.241 234.796 190.513 234.796Z" fill="#2FCAD7"/>
<path opacity="0.25" d="M50.4867 234.796H61.545C62.418 234.796 63 234.214 63 233.34C63 232.466 62.418 231.883 61.545 231.883H50.6323C49.7592 231.883 49.1772 232.466 49.1772 233.34C49.1772 234.214 49.7592 234.796 50.4867 234.796Z" fill="#2FCAD7"/>
<path opacity="0.25" d="M206.081 225.619H184.983C184.11 225.619 183.528 225.036 183.528 224.162C183.528 223.288 184.11 222.705 184.983 222.705H206.081C206.954 222.705 207.536 223.288 207.536 224.162C207.536 225.036 206.954 225.619 206.081 225.619Z" fill="#2FCAD7"/>
<path opacity="0.25" d="M34.9188 225.619H56.0167C56.8897 225.619 57.4717 225.036 57.4717 224.162C57.4717 223.288 56.8897 222.705 56.0167 222.705H34.9188C34.0457 222.705 33.4637 223.288 33.4637 224.162C33.4637 225.036 34.0457 225.619 34.9188 225.619Z" fill="#2FCAD7"/>
</g>
<defs>
<clipPath id="clip0">
<rect width="240" height="248" fill="white"/>
</clipPath>
</defs>
</svg>
