<svg width="48" height="48" viewBox="0 0 48 48" fill="none" xmlns="http://www.w3.org/2000/svg">
<path fill-rule="evenodd" clip-rule="evenodd" d="M21.6218 45.0152L2.98481 26.3782C1.67173 25.0651 1.67173 22.9357 2.98481 21.6227L21.6218 2.98481C22.9349 1.67173 25.0643 1.67173 26.3773 2.98481L45.0152 21.6227C46.3283 22.9357 46.3283 25.0651 45.0152 26.3782L26.3773 45.0152C25.0643 46.3283 22.9349 46.3283 21.6218 45.0152Z" fill="#D9E4FF"/>
<path d="M30.1875 25.5C29.4829 25.5 28.7941 25.7089 28.2083 26.1004C27.6224 26.4918 27.1658 27.0482 26.8962 27.6992C26.6265 28.3502 26.556 29.0665 26.6935 29.7575C26.8309 30.4486 27.1702 31.0833 27.6684 31.5816C28.1667 32.0798 28.8014 32.4191 29.4925 32.5565C30.1835 32.694 30.8999 32.6235 31.5508 32.3538C32.2018 32.0842 32.7582 31.6276 33.1496 31.0417C33.5411 30.4559 33.75 29.7671 33.75 29.0625C33.747 28.1186 33.3707 27.2142 32.7033 26.5467C32.0358 25.8793 31.1314 25.503 30.1875 25.5V25.5Z" stroke="#210049" stroke-width="1.5" stroke-miterlimit="10"/>
<path d="M17.8125 25.5C17.1079 25.5 16.4191 25.7089 15.8333 26.1004C15.2474 26.4918 14.7908 27.0482 14.5212 27.6992C14.2515 28.3502 14.181 29.0665 14.3185 29.7575C14.4559 30.4486 14.7952 31.0833 15.2934 31.5816C15.7917 32.0798 16.4264 32.4191 17.1175 32.5565C17.8085 32.694 18.5248 32.6235 19.1758 32.3538C19.8268 32.0842 20.3832 31.6276 20.7746 31.0417C21.1661 30.4559 21.375 29.7671 21.375 29.0625C21.372 28.1186 20.9957 27.2142 20.3283 26.5467C19.6608 25.8793 18.7564 25.503 17.8125 25.5Z" stroke="#210049" stroke-width="1.5" stroke-miterlimit="10"/>
<path d="M24 28.875V24.8438L21 22.875L24.75 18.75L26.625 22.125H29.25" stroke="#210049" stroke-width="1.5" stroke-linecap="round" stroke-linejoin="round"/>
<path d="M27.0002 18.375C27.1978 18.3757 27.3935 18.3372 27.5761 18.2618C27.7587 18.1863 27.9246 18.0754 28.0641 17.9355C28.2035 17.7956 28.3139 17.6294 28.3888 17.4466C28.4636 17.2637 28.5015 17.0679 28.5002 16.8703C28.5024 16.6737 28.4654 16.4787 28.3913 16.2966C28.3172 16.1145 28.2076 15.949 28.0688 15.8097C27.93 15.6705 27.7648 15.5604 27.583 15.4857C27.4011 15.4111 27.2062 15.3734 27.0096 15.375C26.8126 15.3744 26.6174 15.4126 26.4352 15.4874C26.253 15.5622 26.0873 15.6722 25.9475 15.811C25.6654 16.0914 25.5061 16.4725 25.5049 16.8703C25.5036 17.2681 25.6605 17.6502 25.9409 17.9323C26.2213 18.2145 26.6024 18.3738 27.0002 18.375Z" fill="#210049"/>
</svg>
