<svg width="88" height="88" viewBox="0 0 88 88" fill="none" xmlns="http://www.w3.org/2000/svg">
<path d="M22.0073 81.0919L2.52126 31.8315C1.00778 27.9549 2.89963 23.5111 6.77791 21.9983L56.1551 2.52102C60.0334 1.00823 64.4792 2.89922 65.9927 6.77576L85.4787 56.2253C86.9922 60.1019 85.1004 64.5457 81.2221 66.0585L31.8449 85.4412C27.872 87.0485 23.5208 85.063 22.0073 81.0919Z" fill="#D5F4F7"/>
<path d="M81.5059 46.0139C73.8439 47.6213 65.3306 45.3521 57.8578 48.2831C53.6011 49.985 50.1958 53.2943 46.6013 56.0362C42.1554 59.3454 37.2366 60.6691 31.7503 60.8582C25.8856 61.0473 19.8317 60.5746 14.0615 61.0473L15.8588 65.6803C22.9532 65.2075 30.1422 66.3421 37.1421 65.3966C41.1149 64.8293 44.804 63.4111 48.0202 61.0473C52.1822 58.1163 55.7767 54.3343 60.5064 52.6324C67.79 50.1741 75.9249 52.3488 83.3977 50.7414L81.5059 46.0139Z" fill="#ACEAEF"/>
<path d="M36.1015 53.6725C44.331 51.4978 49.3444 43.272 57.0064 40.2464C63.6279 37.599 71.2898 39.3009 77.7221 36.4644L76.0194 31.926C69.0196 35.2353 60.0333 32.8715 53.0335 36.6535C48.966 38.8282 45.6553 42.232 42.0608 45.0684C37.7096 48.3777 32.9799 49.7014 27.5882 49.6068C21.4397 49.5123 15.0074 47.9049 8.85889 47.3376L10.7507 52.2542C19.1695 53.1997 27.8719 55.8471 36.1015 53.6725Z" fill="#ACEAEF"/>
<path d="M6.77821 42.2318C12.8321 42.2318 19.0752 42.8937 24.9399 42.0427C28.9128 41.4754 32.6019 40.0572 35.8181 37.6934C39.9801 34.7624 43.5746 30.9804 48.3042 29.2785C56.5338 26.5366 65.8984 29.6567 73.9388 26.442L72.1415 21.8091C63.7228 24.9292 53.9798 21.5254 45.6557 24.9292C41.399 26.6311 37.9937 29.9404 34.3992 32.6823C29.9533 35.9916 25.0345 37.3152 19.5482 37.5043C14.6294 37.6934 9.80517 37.3152 4.98096 37.5043L6.77821 42.2318Z" fill="#ACEAEF"/>
<rect x="14" y="27" width="60" height="34" rx="3" stroke="#210049" stroke-width="2"/>
<path d="M25 57H63" stroke="#210049" stroke-linecap="round"/>
<path d="M22.026 38.796H20.349V48H21.636V40.486H21.662L26.524 48H28.149V38.796H26.862V46.154H26.836L22.026 38.796ZM31.1779 43.788H35.5199V42.683H31.1779V39.927H35.7929V38.796H29.8909V48H35.9879V46.856H31.1779V43.788ZM46.9226 46.921H44.3876V46.895C45.5186 46.193 46.2856 44.919 46.2856 43.281C46.2856 40.512 44.2576 38.562 41.5276 38.562C38.7716 38.562 36.7306 40.512 36.7306 43.281C36.7306 46.141 38.7066 48 41.5146 48H46.9226V46.921ZM38.1216 43.281C38.1216 41.318 39.4606 39.693 41.5276 39.693C43.6076 39.693 44.9076 41.318 44.9076 43.281C44.9076 45.296 43.5426 46.869 41.5146 46.869C39.4476 46.869 38.1216 45.296 38.1216 43.281ZM51.5017 38.796H50.3707L47.7577 40.915L48.4987 41.786L50.2407 40.33V48H51.5017V38.796ZM60.5922 46.869H56.0812L59.0712 43.957C59.8772 43.164 60.5532 42.358 60.5532 41.175C60.5532 39.459 59.1752 38.562 57.6412 38.562C56.0682 38.562 54.8852 39.602 54.6642 41.006L55.8992 41.214C56.0552 40.291 56.6922 39.615 57.6282 39.615C58.5382 39.615 59.2662 40.239 59.2662 41.201C59.2662 41.981 58.8112 42.579 58.2522 43.151L54.5862 46.791V48H60.5922V46.869ZM63.8066 43.71H64.1966C65.2886 43.71 66.5106 44.126 66.5106 45.413C66.5106 46.583 65.5876 47.168 64.6646 47.168C63.7026 47.168 63.0006 46.609 62.7276 45.816L61.5576 46.206C62.0646 47.584 63.2346 48.234 64.6906 48.234C66.2636 48.234 67.7716 47.259 67.7716 45.426C67.7716 44.243 66.9786 43.398 65.8996 43.177V43.151C66.8486 42.904 67.5246 42.085 67.5246 41.058C67.5246 39.433 66.2246 38.562 64.6906 38.562C63.3906 38.562 62.3376 39.238 61.8826 40.343L63.0266 40.746C63.2996 40.044 63.8716 39.615 64.6386 39.615C65.5096 39.615 66.2636 40.213 66.2636 41.136C66.2636 42.319 65.2626 42.67 64.2096 42.67H63.8066V43.71Z" fill="#210049"/>
<circle cx="19" cy="32" r="1" fill="#210049"/>
<circle cx="70" cy="32" r="1" fill="#210049"/>
<circle cx="19" cy="57" r="1" fill="#210049"/>
<circle cx="70" cy="57" r="1" fill="#210049"/>
</svg>
