<svg width="48" height="49" viewBox="0 0 48 49" fill="none" xmlns="http://www.w3.org/2000/svg">
<path fill-rule="evenodd" clip-rule="evenodd" d="M21.6218 45.5152L2.98481 26.8782C1.67173 25.5651 1.67173 23.4357 2.98481 22.1227L21.6218 3.48481C22.9349 2.17173 25.0643 2.17173 26.3773 3.48481L45.0152 22.1227C46.3283 23.4357 46.3283 25.5651 45.0152 26.8782L26.3773 45.5152C25.0643 46.8283 22.9349 46.8283 21.6218 45.5152Z" fill="#D9F5EC"/>
<path d="M24 34.25C29.3848 34.25 33.75 29.8848 33.75 24.5C33.75 19.1152 29.3848 14.75 24 14.75C18.6152 14.75 14.25 19.1152 14.25 24.5C14.25 29.8848 18.6152 34.25 24 34.25Z" stroke="#210049" stroke-width="1.5" stroke-miterlimit="10"/>
<path d="M24 20.75V28.25C23.0054 28.25 22.0516 27.8549 21.3483 27.1517C20.6451 26.4484 20.25 25.4946 20.25 24.5C20.25 23.5054 20.6451 22.5516 21.3483 21.8483C22.0516 21.1451 23.0054 20.75 24 20.75Z" fill="#210049"/>
<path d="M24 14.75V20.75C24.9946 20.75 25.9484 21.1451 26.6517 21.8483C27.3549 22.5516 27.75 23.5054 27.75 24.5C27.75 25.4946 27.3549 26.4484 26.6517 27.1517C25.9484 27.8549 24.9946 28.25 24 28.25V34.25C29.385 34.25 33.75 29.885 33.75 24.5C33.75 19.115 29.385 14.75 24 14.75Z" fill="#210049"/>
</svg>
