<svg width="88" height="89" viewBox="0 0 88 89" fill="none" xmlns="http://www.w3.org/2000/svg">
<path d="M22.0073 81.5919L2.52126 32.3315C1.00778 28.4549 2.89963 24.0111 6.77791 22.4983L56.1551 3.02102C60.0334 1.50823 64.4792 3.39922 65.9927 7.27576L85.4787 56.7253C86.9922 60.6019 85.1004 65.0457 81.2221 66.5585L31.8449 85.9412C27.872 87.5485 23.5208 85.563 22.0073 81.5919Z" fill="#FFDADB"/>
<path d="M81.5059 46.5137C73.8439 48.121 65.3306 45.8518 57.8578 48.7829C53.6011 50.4848 50.1958 53.794 46.6013 56.536C42.1554 59.8452 37.2366 61.1689 31.7503 61.358C25.8856 61.5471 19.8317 61.0743 14.0615 61.5471L15.8588 66.18C22.9532 65.7073 30.1422 66.8419 37.1421 65.8964C41.1149 65.3291 44.804 63.9108 48.0202 61.5471C52.1822 58.616 55.7767 54.8341 60.5064 53.1322C67.79 50.6739 75.9249 52.8485 83.3977 51.2412L81.5059 46.5137Z" fill="#FFB3B6"/>
<path d="M36.1015 54.1722C44.331 51.9976 49.3444 43.7718 57.0064 40.7462C63.6279 38.0988 71.2898 39.8007 77.7221 36.9642L76.0194 32.4258C69.0196 35.735 60.0333 33.3713 53.0335 37.1533C48.966 39.3279 45.6553 42.7317 42.0608 45.5682C37.7096 48.8774 32.9799 50.2011 27.5882 50.1066C21.4397 50.012 15.0074 48.4047 8.85889 47.8374L10.7507 52.754C19.1695 53.6995 27.8719 56.3469 36.1015 54.1722Z" fill="#FFB3B6"/>
<path d="M6.77821 42.7318C12.8321 42.7318 19.0752 43.3937 24.9399 42.5427C28.9128 41.9754 32.6019 40.5572 35.8181 38.1934C39.9801 35.2624 43.5746 31.4804 48.3042 29.7785C56.5338 27.0366 65.8984 30.1567 73.9388 26.942L72.1415 22.3091C63.7228 25.4292 53.9798 22.0254 45.6557 25.4292C41.399 27.1311 37.9937 30.4404 34.3992 33.1823C29.9533 36.4916 25.0345 37.8152 19.5482 38.0043C14.6294 38.1934 9.80517 37.8152 4.98096 38.0043L6.77821 42.7318Z" fill="#FFB3B6"/>
<path d="M45 46L45 25.5C45 23.2909 46.7909 21.5 49 21.5H67C69.2091 21.5 71 23.2909 71 25.5V65.5C71 67.7091 69.2091 69.5 67 69.5H49C46.7909 69.5 45 67.7091 45 65.5L45 54" stroke="#210049" stroke-width="2"/>
<rect x="57.6741" y="26" width="4.0669" height="6" rx="1.5" stroke="#210049"/>
<path d="M64.2676 29.7803C64.4841 29.5399 64.6038 29.2294 64.6038 28.9078C64.6038 28.5861 64.4841 28.2756 64.2676 28.0352" stroke="#210049" stroke-linecap="round" stroke-linejoin="round"/>
<path d="M65.3816 30.4075C65.7851 29.9817 66.0095 29.4205 66.0095 28.8376C66.0095 28.2546 65.7851 27.6934 65.3816 27.2676" stroke="#210049" stroke-linecap="round" stroke-linejoin="round"/>
<path d="M66.7874 30.8794C67.3322 30.2767 67.6333 29.4973 67.6333 28.6897C67.6333 27.8821 67.3322 27.1027 66.7874 26.5" stroke="#210049" stroke-linecap="round" stroke-linejoin="round"/>
<circle cx="20" cy="55.5" r="2.5" stroke="#210049"/>
<circle r="2.5" transform="matrix(1 0 0 -1 20 33.5)" stroke="#210049"/>
<circle cx="35" cy="44.5" r="1.5" stroke="#210049"/>
<path d="M45 42.8566L25.811 54.0001C25.9344 54.4795 26 54.9821 26 55.5001C26 58.8138 23.3137 61.5 20 61.5C16.6863 61.5 14 58.8138 14 55.5001C14 52.1863 16.6863 49.5001 20 49.5001C20.8922 49.5001 21.7389 49.6948 22.5 50.0441C27.9447 44.9097 35.7687 38.9698 45 34.8018" stroke="#210049" stroke-width="2" stroke-linejoin="round"/>
<path d="M28.8564 44.3834C26.487 42.5487 24.3554 40.7056 22.5 38.9559C21.7389 39.3052 20.8922 39.5 20 39.5C16.6863 39.5 14 36.8137 14 33.5C14 30.1863 16.6863 27.5 20 27.5C23.3137 27.5 26 30.1863 26 33.5C26 34.0179 25.9344 34.5206 25.811 35L34.7139 40.1701M34.6431 48.5C43.8532 54.4963 55.4763 59.5 68 59.5L42.2307 44.5353" stroke="#210049" stroke-width="2" stroke-linejoin="round"/>
</svg>
