<svg width="88" height="88" viewBox="0 0 88 88" fill="none" xmlns="http://www.w3.org/2000/svg">
<path d="M22.0073 81.0919L2.52126 31.8315C1.00778 27.9549 2.89963 23.5111 6.77791 21.9983L56.1551 2.52102C60.0334 1.00823 64.4792 2.89922 65.9927 6.77576L85.4787 56.2253C86.9922 60.1019 85.1004 64.5457 81.2221 66.0585L31.8449 85.4412C27.872 87.0485 23.5208 85.063 22.0073 81.0919Z" fill="#D9F5EC"/>
<path d="M81.5059 46.0139C73.8439 47.6213 65.3306 45.3521 57.8578 48.2831C53.6011 49.985 50.1958 53.2943 46.6013 56.0362C42.1554 59.3454 37.2366 60.6691 31.7503 60.8582C25.8856 61.0473 19.8317 60.5746 14.0615 61.0473L15.8588 65.6803C22.9532 65.2075 30.1422 66.3421 37.1421 65.3966C41.1149 64.8293 44.804 63.4111 48.0202 61.0473C52.1822 58.1163 55.7767 54.3343 60.5064 52.6324C67.79 50.1741 75.9249 52.3488 83.3977 50.7414L81.5059 46.0139Z" fill="#B4EBDA"/>
<path d="M36.102 53.6725C44.3315 51.4978 49.3449 43.272 57.0069 40.2464C63.6283 37.599 71.2903 39.3009 77.7226 36.4644L76.0199 31.926C69.0201 35.2353 60.0338 32.8715 53.034 36.6535C48.9665 38.8282 45.6558 42.232 42.0613 45.0684C37.71 48.3777 32.9804 49.7014 27.5887 49.6068C21.4402 49.5123 15.0079 47.9049 8.85938 47.3376L10.7512 52.2542C19.1699 53.1997 27.8724 55.8471 36.102 53.6725Z" fill="#B4EBDA"/>
<path d="M6.7787 42.2318C12.8326 42.2318 19.0757 42.8937 24.9404 42.0427C28.9133 41.4754 32.6024 40.0572 35.8185 37.6934C39.9806 34.7624 43.5751 30.9804 48.3047 29.2785C56.5343 26.5366 65.8989 29.6567 73.9393 26.442L72.142 21.8091C63.7233 24.9292 53.9803 21.5254 45.6562 24.9292C41.3995 26.6311 37.9942 29.9404 34.3997 32.6823C29.9538 35.9916 25.035 37.3152 19.5487 37.5043C14.6299 37.6934 9.80565 37.3152 4.98145 37.5043L6.7787 42.2318Z" fill="#B4EBDA"/>
<path d="M42.9961 63.2915V67.1619C42.9961 68.7651 44.2957 70.0648 45.8989 70.0648V70.0648C47.5021 70.0648 48.8018 68.7651 48.8018 67.1619V62.3239" stroke="#210049" stroke-width="2"/>
<path d="M48.8018 63.0496V65.2267C48.8018 66.8299 50.1014 68.1295 51.7046 68.1295V68.1295C53.3078 68.1295 54.6075 66.8299 54.6075 65.2267V64.2591" stroke="#210049" stroke-width="2"/>
<rect x="59.1992" y="23.2436" width="3.79388" height="5.39184" rx="1.43523" transform="rotate(20 59.1992 23.2436)" stroke="#210049"/>
<path d="M63.2354 28.75C63.4973 28.6086 63.6982 28.376 63.8 28.0963C63.9018 27.8166 63.8974 27.5092 63.7877 27.2325" stroke="#210049" stroke-linecap="round" stroke-linejoin="round"/>
<path d="M63.9928 29.6434C64.4738 29.3992 64.844 28.9813 65.0285 28.4744C65.213 27.9675 65.198 27.4094 64.9866 26.9131" stroke="#210049" stroke-linecap="round" stroke-linejoin="round"/>
<path d="M65.0502 30.4928C65.7085 30.1389 66.2135 29.5553 66.4691 28.853C66.7247 28.1507 66.713 27.379 66.4363 26.6848" stroke="#210049" stroke-linecap="round" stroke-linejoin="round"/>
<path d="M13 53.6153L32.2518 39.614C33.5748 38.6517 35.1688 38.1334 36.8048 38.1334H40.0932" stroke="#210049" stroke-width="2" stroke-linecap="round"/>
<path d="M45.8989 61.3562L53.6771 64.3078C55.6949 65.0735 57.9491 64.0409 58.6873 62.0129L71.3245 27.2923C72.0556 25.2836 71.0199 23.0626 69.0112 22.3315L52.2599 16.2345C50.2512 15.5034 48.0302 16.5391 47.2991 18.5477L34.3292 54.1823C34.094 54.8283 34.143 55.4993 34.4038 56.0694C35.0425 57.4653 36.9329 56.9975 38.1978 56.1279L49.2371 48.5384C50.6671 47.5553 52.5949 47.7323 53.8219 48.9593C55.2943 50.4318 55.2141 52.8426 53.6469 54.2138L36.7914 68.9624C34.5534 70.9207 31.6808 72 28.7071 72H20" stroke="#210049" stroke-width="2" stroke-linecap="round"/>
</svg>
