<svg width="88" height="88" viewBox="0 0 88 88" fill="none" xmlns="http://www.w3.org/2000/svg">
<path d="M22.0073 81.0919L2.52126 31.8315C1.00778 27.9549 2.89963 23.5111 6.77791 21.9983L56.1551 2.52102C60.0334 1.00823 64.4792 2.89922 65.9927 6.77576L85.4787 56.2253C86.9922 60.1019 85.1004 64.5457 81.2221 66.0585L31.8449 85.4412C27.872 87.0485 23.5208 85.063 22.0073 81.0919Z" fill="#FFDADB"/>
<path d="M81.5059 46.0137C73.8439 47.621 65.3306 45.3518 57.8578 48.2829C53.6011 49.9848 50.1958 53.294 46.6013 56.036C42.1554 59.3452 37.2366 60.6689 31.7503 60.858C25.8856 61.0471 19.8317 60.5743 14.0615 61.0471L15.8588 65.68C22.9532 65.2073 30.1422 66.3419 37.1421 65.3964C41.1149 64.8291 44.804 63.4108 48.0202 61.0471C52.1822 58.116 55.7767 54.3341 60.5064 52.6322C67.79 50.1739 75.9249 52.3485 83.3977 50.7412L81.5059 46.0137Z" fill="#FFB3B6"/>
<path d="M36.1015 53.6722C44.331 51.4976 49.3444 43.2718 57.0064 40.2462C63.6279 37.5988 71.2898 39.3007 77.7221 36.4642L76.0194 31.9258C69.0196 35.235 60.0333 32.8713 53.0335 36.6533C48.966 38.8279 45.6553 42.2317 42.0608 45.0682C37.7096 48.3774 32.9799 49.7011 27.5882 49.6066C21.4397 49.512 15.0074 47.9047 8.85889 47.3374L10.7507 52.254C19.1695 53.1995 27.8719 55.8469 36.1015 53.6722Z" fill="#FFB3B6"/>
<path d="M6.77821 42.2318C12.8321 42.2318 19.0752 42.8937 24.9399 42.0427C28.9128 41.4754 32.6019 40.0572 35.8181 37.6934C39.9801 34.7624 43.5746 30.9804 48.3042 29.2785C56.5338 26.5366 65.8984 29.6567 73.9388 26.442L72.1415 21.8091C63.7228 24.9292 53.9798 21.5254 45.6557 24.9292C41.399 26.6311 37.9937 29.9404 34.3992 32.6823C29.9533 35.9916 25.0345 37.3152 19.5482 37.5043C14.6294 37.6934 9.80517 37.3152 4.98096 37.5043L6.77821 42.2318Z" fill="#FFB3B6"/>
<path d="M28 46.5V20C28 17.7909 29.7909 16 32 16H56C58.2091 16 60 17.7909 60 20V45.5" stroke="#210049" stroke-width="2"/>
<rect x="43.8809" y="21.147" width="5" height="7" rx="1.5" stroke="#210049"/>
<path d="M51.1111 26.0212C51.3586 25.7427 51.4954 25.3831 51.4954 25.0106C51.4954 24.638 51.3586 24.2785 51.1111 24" stroke="#210049" stroke-linecap="round" stroke-linejoin="round"/>
<path d="M52.3841 26.7479C52.8453 26.2547 53.1018 25.6048 53.1018 24.9296C53.1018 24.2544 52.8453 23.6045 52.3841 23.1113" stroke="#210049" stroke-linecap="round" stroke-linejoin="round"/>
<path d="M53.9907 27.2942C54.6134 26.5962 54.9575 25.6935 54.9575 24.7582C54.9575 23.8228 54.6134 22.9202 53.9907 22.2222" stroke="#210049" stroke-linecap="round" stroke-linejoin="round"/>
<path d="M48 42.647C48 42.647 47 40.647 44 40.647C41 40.647 40 42.647 40 42.647" stroke="#210049" stroke-linecap="round"/>
<path d="M37 36.647C37.5523 36.647 38 36.1993 38 35.647C38 35.0947 37.5523 34.647 37 34.647C36.4477 34.647 36 35.0947 36 35.647C36 36.1993 36.4477 36.647 37 36.647Z" fill="#210049"/>
<path d="M51 36.647C51.5523 36.647 52 36.1993 52 35.647C52 35.0947 51.5523 34.647 51 34.647C50.4477 34.647 50 35.0947 50 35.647C50 36.1993 50.4477 36.647 51 36.647Z" fill="#210049"/>
<path d="M60 33L66.3031 36.9938C67.1091 37.4217 67.7888 38.0861 68.2654 38.9119C68.7419 39.7376 68.9964 40.6918 69 41.6666V65.7761C69 68.661 66.8199 71 64.1303 71H23.8697C21.1801 71 19 68.661 19 65.7761V41.6666C19.0031 40.6924 19.2569 39.7386 19.7326 38.9129C20.2083 38.0872 20.887 37.4224 21.692 36.9938L28 33" stroke="#210049" stroke-width="2" stroke-linecap="round" stroke-linejoin="round"/>
<path d="M62 62L45.3937 49.6224C44.8524 49.219 44.1863 49 43.5006 49C42.815 49 42.1488 49.219 41.6076 49.6224L25 62" stroke="#210049" stroke-width="2" stroke-linecap="round" stroke-linejoin="round"/>
<path d="M50 53L68 40" stroke="#210049" stroke-width="2" stroke-linecap="round" stroke-linejoin="round"/>
<path d="M19.5 40.5L37 53" stroke="#210049" stroke-width="2" stroke-linecap="round" stroke-linejoin="round"/>
</svg>
