<svg width="88" height="89" viewBox="0 0 88 89" fill="none" xmlns="http://www.w3.org/2000/svg">
<path d="M22.0073 81.5919L2.52126 32.3315C1.00778 28.4549 2.89963 24.0111 6.77791 22.4983L56.1551 3.02102C60.0334 1.50823 64.4792 3.39922 65.9927 7.27576L85.4787 56.7253C86.9922 60.6019 85.1004 65.0457 81.2221 66.5585L31.8449 85.9412C27.872 87.5485 23.5208 85.563 22.0073 81.5919Z" fill="#FFDADB"/>
<path d="M81.5059 46.5137C73.8439 48.121 65.3306 45.8518 57.8578 48.7829C53.6011 50.4848 50.1958 53.794 46.6013 56.536C42.1554 59.8452 37.2366 61.1689 31.7503 61.358C25.8856 61.5471 19.8317 61.0743 14.0615 61.5471L15.8588 66.18C22.9532 65.7073 30.1422 66.8419 37.1421 65.8964C41.1149 65.3291 44.804 63.9108 48.0202 61.5471C52.1822 58.616 55.7767 54.8341 60.5064 53.1322C67.79 50.6739 75.9249 52.8485 83.3977 51.2412L81.5059 46.5137Z" fill="#FFB3B6"/>
<path d="M36.102 54.1722C44.3315 51.9976 49.3449 43.7718 57.0069 40.7462C63.6283 38.0988 71.2903 39.8007 77.7226 36.9642L76.0199 32.4258C69.0201 35.735 60.0338 33.3713 53.034 37.1533C48.9665 39.3279 45.6558 42.7317 42.0613 45.5682C37.71 48.8774 32.9804 50.2011 27.5887 50.1066C21.4402 50.012 15.0079 48.4047 8.85938 47.8374L10.7512 52.754C19.1699 53.6995 27.8724 56.3469 36.102 54.1722Z" fill="#FFB3B6"/>
<path d="M6.7787 42.7318C12.8326 42.7318 19.0757 43.3937 24.9404 42.5427C28.9133 41.9754 32.6024 40.5572 35.8185 38.1934C39.9806 35.2624 43.5751 31.4804 48.3047 29.7785C56.5343 27.0366 65.8989 30.1567 73.9393 26.942L72.142 22.3091C63.7233 25.4292 53.9803 22.0254 45.6562 25.4292C41.3995 27.1311 37.9942 30.4404 34.3997 33.1823C29.9538 36.4916 25.035 37.8152 19.5487 38.0043C14.6299 38.1934 9.80565 37.8152 4.98145 38.0043L6.7787 42.7318Z" fill="#FFB3B6"/>
<rect x="29" y="20.5" width="30" height="54" rx="3" stroke="#210049" stroke-width="2"/>
<path d="M34 19.5V74.5" stroke="#210049"/>
<path d="M38 19.5V74.5" stroke="#210049"/>
<path d="M41.133 24.5L40.365 23.378L41.037 22.376H40.44L40.05 23.036L39.654 22.376H39.036L39.72 23.378L38.976 24.5H39.588L40.035 23.75L40.5 24.5H41.133ZM43.8424 24.5L43.0744 23.378L43.7464 22.376H43.1494L42.7594 23.036L42.3634 22.376H41.7454L42.4294 23.378L41.6854 24.5H42.2974L42.7444 23.75L43.2094 24.5H43.8424ZM46.5517 24.5L45.7837 23.378L46.4557 22.376H45.8587L45.4687 23.036L45.0727 22.376H44.4547L45.1387 23.378L44.3947 24.5H45.0067L45.4537 23.75L45.9187 24.5H46.5517ZM49.2611 24.5L48.4931 23.378L49.1651 22.376H48.5681L48.1781 23.036L47.7821 22.376H47.1641L47.8481 23.378L47.1041 24.5H47.7161L48.1631 23.75L48.6281 24.5H49.2611ZM51.9705 24.5L51.2025 23.378L51.8745 22.376H51.2775L50.8875 23.036L50.4915 22.376H49.8735L50.5575 23.378L49.8135 24.5H50.4255L50.8725 23.75L51.3375 24.5H51.9705ZM54.6799 24.5L53.9119 23.378L54.5839 22.376H53.9869L53.5969 23.036L53.2009 22.376H52.5829L53.2669 23.378L52.5229 24.5H53.1349L53.5819 23.75L54.0469 24.5H54.6799Z" fill="#210049"/>
<path d="M23.2572 14.5627C23.0158 14.6968 22.9288 15.0012 23.0629 15.2426C23.197 15.484 23.5014 15.571 23.7428 15.4369L23.2572 14.5627ZM42.9178 18.993C43.1902 19.0384 43.4478 18.8544 43.4932 18.582L44.233 14.1432C44.2784 13.8708 44.0944 13.6132 43.822 13.5678C43.5496 13.5224 43.292 13.7064 43.2466 13.9788L42.589 17.9244L38.6434 17.2668C38.371 17.2214 38.1134 17.4054 38.068 17.6778C38.0226 17.9502 38.2066 18.2078 38.479 18.2532L42.9178 18.993ZM23.7428 15.4369C26.0183 14.1727 28.9103 12.4942 32.1435 12.3744C35.3143 12.257 38.9176 13.6447 42.5931 18.7904L43.4069 18.2092C39.5824 12.8549 35.6857 11.2426 32.1065 11.3751C28.5897 11.5054 25.4817 13.3268 23.2572 14.5627L23.7428 15.4369Z" fill="#210049"/>
</svg>
