<svg width="88" height="89" viewBox="0 0 88 89" fill="none" xmlns="http://www.w3.org/2000/svg">
<path d="M22.0073 81.5919L2.52126 32.3315C1.00778 28.4549 2.89963 24.0111 6.77791 22.4983L56.1551 3.02102C60.0334 1.50823 64.4792 3.39922 65.9927 7.27576L85.4787 56.7253C86.9922 60.6019 85.1004 65.0457 81.2221 66.5585L31.8449 85.9412C27.872 87.5485 23.5208 85.563 22.0073 81.5919Z" fill="#D5F4F7"/>
<path d="M81.5057 46.5139C73.8438 48.1213 65.3304 45.8521 57.8577 48.7831C53.601 50.485 50.1957 53.7943 46.6012 56.5362C42.1553 59.8454 37.2365 61.1691 31.7502 61.3582C25.8854 61.5473 19.8315 61.0746 14.0614 61.5473L15.8587 66.1803C22.9531 65.7075 30.1421 66.8421 37.1419 65.8966C41.1148 65.3293 44.8039 63.9111 48.0201 61.5473C52.1821 58.6163 55.7766 54.8343 60.5062 53.1324C67.7899 50.6741 75.9248 52.8488 83.3976 51.2414L81.5057 46.5139Z" fill="#ACEAEF"/>
<path d="M36.1015 54.1725C44.331 51.9978 49.3444 43.772 57.0064 40.7464C63.6279 38.099 71.2898 39.8009 77.7221 36.9644L76.0194 32.426C69.0196 35.7353 60.0333 33.3715 53.0335 37.1535C48.966 39.3282 45.6553 42.732 42.0608 45.5684C37.7096 48.8777 32.9799 50.2014 27.5882 50.1068C21.4397 50.0123 15.0074 48.4049 8.85889 47.8376L10.7507 52.7542C19.1695 53.6997 27.8719 56.3471 36.1015 54.1725Z" fill="#ACEAEF"/>
<path d="M6.77833 42.7318C12.8322 42.7318 19.0753 43.3937 24.9401 42.5427C28.9129 41.9754 32.602 40.5572 35.8182 38.1934C39.9802 35.2624 43.5748 31.4804 48.3044 29.7785C56.5339 27.0366 65.8985 30.1567 73.9389 26.942L72.1416 22.3091C63.7229 25.4292 53.9799 22.0254 45.6558 25.4292C41.3991 27.1311 37.9938 30.4404 34.3993 33.1823C29.9535 36.4916 25.0347 37.8152 19.5483 38.0043C14.6295 38.1934 9.80529 37.8152 4.98108 38.0043L6.77833 42.7318Z" fill="#ACEAEF"/>
<path d="M42.9961 63.7915V67.6619C42.9961 69.2651 44.2957 70.5648 45.8989 70.5648V70.5648C47.5021 70.5648 48.8018 69.2651 48.8018 67.6619V62.8239" stroke="#210049" stroke-width="2"/>
<path d="M48.8018 63.5496V65.7267C48.8018 67.3299 50.1014 68.6295 51.7046 68.6295V68.6295C53.3078 68.6295 54.6075 67.3299 54.6075 65.7267V64.7591" stroke="#210049" stroke-width="2"/>
<rect x="59.1997" y="23.7436" width="3.79388" height="5.39184" rx="1.43523" transform="rotate(20 59.1997 23.7436)" stroke="#210049"/>
<path d="M63.2361 29.25C63.498 29.1086 63.6989 28.876 63.8007 28.5963C63.9025 28.3166 63.8982 28.0092 63.7884 27.7325" stroke="#210049" stroke-linecap="round" stroke-linejoin="round"/>
<path d="M63.9934 30.1434C64.4744 29.8992 64.8446 29.4813 65.0291 28.9744C65.2136 28.4675 65.1986 27.9094 64.9871 27.4131" stroke="#210049" stroke-linecap="round" stroke-linejoin="round"/>
<path d="M65.0502 30.9928C65.7085 30.6389 66.2135 30.0553 66.4691 29.353C66.7247 28.6507 66.713 27.879 66.4363 27.1848" stroke="#210049" stroke-linecap="round" stroke-linejoin="round"/>
<path d="M13 54.1153L32.2518 40.114C33.5748 39.1517 35.1688 38.6334 36.8048 38.6334H40.0932" stroke="#210049" stroke-width="2" stroke-linecap="round"/>
<path d="M45.8989 61.8562L53.6771 64.8078C55.6949 65.5735 57.9491 64.5409 58.6873 62.5129L71.3245 27.7923C72.0556 25.7836 71.0199 23.5626 69.0112 22.8315L52.2599 16.7345C50.2512 16.0034 48.0302 17.0391 47.2991 19.0477L34.3292 54.6823C34.094 55.3283 34.143 55.9993 34.4038 56.5694C35.0425 57.9653 36.9329 57.4975 38.1978 56.6279L49.2371 49.0384C50.6671 48.0553 52.5949 48.2323 53.8219 49.4593C55.2943 50.9318 55.2141 53.3426 53.6469 54.7138L36.7914 69.4624C34.5534 71.4207 31.6808 72.5 28.7071 72.5H20" stroke="#210049" stroke-width="2" stroke-linecap="round"/>
</svg>
