<svg width="40" height="40" viewBox="0 0 40 40" fill="none" xmlns="http://www.w3.org/2000/svg">
<path opacity="0.5" fill-rule="evenodd" clip-rule="evenodd" d="M20 40C31.0457 40 40 31.0457 40 20C40 8.9543 31.0457 0 20 0C8.9543 0 0 8.9543 0 20C0 31.0457 8.9543 40 20 40ZM13.2478 9.50001L13.25 9.5L23.375 9.5H23.3771C24.2709 9.50255 25.1273 9.85872 25.7593 10.4907C26.3913 11.1227 26.7475 11.9791 26.75 12.8729L26.7498 12.8906L26.7424 13.25H27.0781C28.968 13.25 30.5 14.782 30.5 16.6719V27.0781C30.5 28.968 28.968 30.5 27.0781 30.5H16.6719C14.782 30.5 13.25 28.968 13.25 27.0781V26.75H12.875L12.8729 26.75C11.9791 26.7475 11.1227 26.3913 10.4907 25.7593C9.85872 25.1273 9.50255 24.2709 9.5 23.3771L9.5 23.375V13.25V13.2478C9.50294 12.2547 9.89874 11.3032 10.6009 10.6009C11.3032 9.89874 12.2547 9.50294 13.2478 9.50001ZM25.9746 14.75H25.9791H27.0781C28.1395 14.75 29 15.6105 29 16.6719V27.0781C29 28.1395 28.1395 29 27.0781 29H16.6719C15.6105 29 14.75 28.1395 14.75 27.0781V26V16.6719C14.75 15.6105 15.6105 14.75 16.6719 14.75H25.9746ZM13.25 16.6719V25.25H12.8762C12.3791 25.2483 11.9029 25.0501 11.5514 24.6986C11.1999 24.3471 11.0017 23.8709 11 23.3738V13.2512C11.002 12.6548 11.2399 12.0834 11.6616 11.6616C12.0834 11.2399 12.6548 11.002 13.2512 11H23.3738C23.8709 11.0017 24.3471 11.1999 24.6986 11.5514C25.0485 11.9012 25.2464 12.3745 25.25 12.869L25.242 13.25H16.6719C14.782 13.25 13.25 14.782 13.25 16.6719Z" fill="white"/>
</svg>
