<svg width="88" height="88" viewBox="0 0 88 88" fill="none" xmlns="http://www.w3.org/2000/svg">
<path d="M22.0073 81.0919L2.52126 31.8315C1.00778 27.9549 2.89963 23.5111 6.77791 21.9983L56.1551 2.52102C60.0334 1.00823 64.4792 2.89922 65.9927 6.77576L85.4787 56.2253C86.9922 60.1019 85.1004 64.5457 81.2221 66.0585L31.8449 85.4412C27.872 87.0485 23.5208 85.063 22.0073 81.0919Z" fill="#D9E4FF"/>
<path d="M81.5059 46.0139C73.8439 47.6213 65.3306 45.3521 57.8578 48.2831C53.6011 49.985 50.1958 53.2943 46.6013 56.0362C42.1554 59.3454 37.2366 60.6691 31.7503 60.8582C25.8856 61.0473 19.8317 60.5746 14.0615 61.0473L15.8588 65.6803C22.9532 65.2075 30.1422 66.3421 37.1421 65.3966C41.1149 64.8293 44.804 63.4111 48.0202 61.0473C52.1822 58.1163 55.7767 54.3343 60.5064 52.6324C67.79 50.1741 75.9249 52.3488 83.3977 50.7414L81.5059 46.0139Z" fill="#B4C8FF"/>
<path d="M36.1015 53.6725C44.331 51.4978 49.3444 43.272 57.0064 40.2464C63.6279 37.599 71.2898 39.3009 77.7221 36.4644L76.0194 31.926C69.0196 35.2353 60.0333 32.8715 53.0335 36.6535C48.966 38.8282 45.6553 42.232 42.0608 45.0684C37.7096 48.3777 32.9799 49.7014 27.5882 49.6068C21.4397 49.5123 15.0074 47.9049 8.85889 47.3376L10.7507 52.2542C19.1695 53.1997 27.8719 55.8471 36.1015 53.6725Z" fill="#B4C8FF"/>
<path d="M6.77821 42.2318C12.8321 42.2318 19.0752 42.8937 24.9399 42.0427C28.9128 41.4754 32.6019 40.0572 35.8181 37.6934C39.9801 34.7624 43.5746 30.9804 48.3042 29.2785C56.5338 26.5366 65.8984 29.6567 73.9388 26.442L72.1415 21.8091C63.7228 24.9292 53.9798 21.5254 45.6557 24.9292C41.399 26.6311 37.9937 29.9404 34.3992 32.6823C29.9533 35.9916 25.0345 37.3152 19.5482 37.5043C14.6294 37.6934 9.80517 37.3152 4.98096 37.5043L6.77821 42.2318Z" fill="#B4C8FF"/>
<path d="M18 42.5L18 30.3044M18 55.5V61C18 63.2091 19.7909 65 22 65H66C68.2091 65 70 63.2091 70 61V26.5M18 30.3044H38M18 30.3044L18 26.5" stroke="#210049" stroke-width="2" stroke-linecap="round"/>
<rect x="15" y="43" width="16" height="12" rx="3" stroke="#210049" stroke-width="2"/>
<rect x="22.5" y="46.5" width="5" height="5" rx="1.5" stroke="#210049"/>
<path d="M41 41C41.5523 41 42 40.5523 42 40C42 39.4477 41.5523 39 41 39C40.4477 39 40 39.4477 40 40C40 40.5523 40.4477 41 41 41Z" fill="#210049"/>
<path d="M55 41C55.5523 41 56 40.5523 56 40C56 39.4477 55.5523 39 55 39C54.4477 39 54 39.4477 54 40C54 40.5523 54.4477 41 55 41Z" fill="#210049"/>
<path d="M48 51V48M48 51H52.5M48 51H43.5M48 48H52.5M48 48H43.5M52.5 48H55.5C56.3284 48 57 48.6716 57 49.5V49.5C57 50.3284 56.3284 51 55.5 51H52.5M52.5 48V51M43.5 48H40.5C39.6716 48 39 48.6716 39 49.5V49.5C39 50.3284 39.6716 51 40.5 51H43.5M43.5 48V51" stroke="#210049" stroke-linecap="round"/>
<path d="M28.6239 39.6844C28.3477 39.6844 28.0715 39.6154 27.7953 39.4773C27.1048 39.132 26.7596 38.5106 26.7596 37.6819C26.7596 36.9914 26.7596 36.3009 26.7596 35.6104V34.2294C26.7596 33.8841 26.7596 33.5389 26.7596 33.1936C26.7596 32.5031 26.5524 31.2602 26.3453 30.984C26.1381 30.984 26 30.7768 26 30.6387C26 30.4316 26.1381 30.2244 26.3453 30.2244C26.4834 30.2244 26.6215 30.2244 26.8286 30.3625C27.4501 30.9149 27.5882 33.1246 27.5882 33.1246C27.5882 33.4698 27.5882 33.8151 27.5882 34.1603V35.5414C27.5882 36.2319 27.5882 36.9224 27.5882 37.6129C27.5882 38.0962 27.7953 38.4415 28.1406 38.6487C28.4168 38.7868 28.762 38.7868 29.0383 38.6487C29.3145 38.5106 29.5216 38.2344 29.5907 37.9581C29.5907 37.82 29.6597 37.6819 29.6597 37.5438C29.6597 36.6462 29.6597 35.6795 29.6597 34.7818V33.2627C29.6597 32.296 30.2121 31.7435 31.2479 31.6745C31.6622 31.6745 32.1456 31.7435 32.4908 32.0888C32.767 32.365 32.9051 32.7103 32.9051 33.0555V33.746C32.9051 34.3675 32.9051 34.9889 32.9051 35.6795C32.9051 36.3009 33.1813 36.6462 33.6647 36.7843C33.9409 36.8533 34.2861 36.7843 34.5623 36.6462C34.8385 36.439 34.9767 36.1628 34.9767 35.8866C34.9767 35.058 34.9767 34.2294 34.9767 33.3317C34.9767 32.8484 34.9076 31.2602 35.7362 30.4316C36.1505 30.0863 36.6339 29.9482 37.2553 30.0173C37.4625 30.0173 37.6006 30.2244 37.6006 30.5006C37.6006 30.7078 37.3934 30.8459 37.1172 30.8459C36.7029 30.7768 36.4267 30.8459 36.2196 31.053C35.8743 31.5364 35.7362 32.296 35.7362 33.4698C35.7362 34.3675 35.7362 35.2652 35.7362 36.0247C35.7362 36.5771 35.46 37.1295 34.9767 37.4748C34.4933 37.82 33.9409 37.8891 33.3885 37.751C32.5599 37.4748 32.0765 36.7843 32.0765 35.8176C32.0765 35.1961 32.0765 34.5746 32.0765 33.8841V33.1936C32.0765 33.0555 32.0075 32.9174 31.8693 32.7793C31.7312 32.6412 31.5931 32.5722 31.1788 32.5722C30.6264 32.5722 30.4193 32.7793 30.4193 33.3317V34.8508C30.4193 35.7485 30.4193 36.7152 30.4193 37.6129C30.4193 37.82 30.4193 38.0272 30.3502 38.2343C30.2121 38.7868 29.8669 39.2701 29.3145 39.5463C29.1073 39.6154 28.9001 39.6844 28.6239 39.6844Z" fill="#210049"/>
<path d="M18.8513 25.8824C17.2913 25.8824 16.0823 24.607 15.4614 23.7783C15.1329 23.3398 15 22.7967 15 22.2488C15 20.4546 16.4546 19 18.2488 19H67.7717C70.1069 19 72 20.8931 72 23.2283C72 23.9279 71.8546 24.6418 71.391 25.1658C69.6123 27.1763 65.8659 28 59.8875 28C53.1091 28 47.3514 23.084 47.3514 23.084H35.7973C35.7973 23.084 33.6213 25.8824 30.0973 25.8824C26.5733 25.8824 24.6091 23.7647 24.6091 23.7647C24.6091 23.7647 21.1622 25.8824 18.8513 25.8824Z" stroke="#210049" stroke-width="2" stroke-linecap="round" stroke-linejoin="round"/>
</svg>
