<svg width="88" height="88" viewBox="0 0 88 88" fill="none" xmlns="http://www.w3.org/2000/svg">
<path d="M22.0073 81.0919L2.52126 31.8315C1.00778 27.9549 2.89963 23.5111 6.77791 21.9983L56.1551 2.52102C60.0334 1.00823 64.4792 2.89922 65.9927 6.77576L85.4787 56.2253C86.9922 60.1019 85.1004 64.5457 81.2221 66.0585L31.8449 85.4412C27.872 87.0485 23.5208 85.063 22.0073 81.0919Z" fill="#D9E4FF"/>
<path d="M81.5059 46.0139C73.8439 47.6213 65.3306 45.3521 57.8578 48.2831C53.6011 49.985 50.1958 53.2943 46.6013 56.0362C42.1554 59.3454 37.2366 60.6691 31.7503 60.8582C25.8856 61.0473 19.8317 60.5746 14.0615 61.0473L15.8588 65.6803C22.9532 65.2075 30.1422 66.3421 37.1421 65.3966C41.1149 64.8293 44.804 63.4111 48.0202 61.0473C52.1822 58.1163 55.7767 54.3343 60.5064 52.6324C67.79 50.1741 75.9249 52.3488 83.3977 50.7414L81.5059 46.0139Z" fill="#B4C8FF"/>
<path d="M36.1015 53.6725C44.331 51.4978 49.3444 43.272 57.0064 40.2464C63.6279 37.599 71.2898 39.3009 77.7221 36.4644L76.0194 31.926C69.0196 35.2353 60.0333 32.8715 53.0335 36.6535C48.966 38.8282 45.6553 42.232 42.0608 45.0684C37.7096 48.3777 32.9799 49.7014 27.5882 49.6068C21.4397 49.5123 15.0074 47.9049 8.85889 47.3376L10.7507 52.2542C19.1695 53.1997 27.8719 55.8471 36.1015 53.6725Z" fill="#B4C8FF"/>
<path d="M6.77821 42.2318C12.8321 42.2318 19.0752 42.8937 24.9399 42.0427C28.9128 41.4754 32.6019 40.0572 35.8181 37.6934C39.9801 34.7624 43.5746 30.9804 48.3042 29.2785C56.5338 26.5366 65.8984 29.6567 73.9388 26.442L72.1415 21.8091C63.7228 24.9292 53.9798 21.5254 45.6557 24.9292C41.399 26.6311 37.9937 29.9404 34.3992 32.6823C29.9533 35.9916 25.0345 37.3152 19.5482 37.5043C14.6294 37.6934 9.80517 37.3152 4.98096 37.5043L6.77821 42.2318Z" fill="#B4C8FF"/>
<path d="M28 22V68C28 70.2091 29.7909 72 32 72H56C58.2091 72 60 70.2091 60 68V21" stroke="#210049" stroke-width="2"/>
<path d="M59.5 20.8824C60.5711 20.8824 61.3873 19.4555 61.7664 18.6395C61.9347 18.2775 62 17.88 62 17.4808C62 15.5584 60.4416 14 58.5192 14H29.5261C27.0264 14 25 16.0264 25 18.5261C25 19.0345 25.0682 19.5484 25.3038 19.9989C26.4185 22.1309 28.8761 23 32.8625 23C37.2625 23 41 18.084 41 18.084H48.5C48.5 18.084 49.9125 20.8824 52.2 20.8824C54.4875 20.8824 55.7625 18.7647 55.7625 18.7647C55.7625 18.7647 58 20.8824 59.5 20.8824Z" stroke="#210049" stroke-width="2" stroke-linecap="round" stroke-linejoin="round"/>
<rect x="43.8809" y="21.147" width="5" height="7" rx="1.5" stroke="#210049"/>
<path d="M51.1111 26.0212C51.3586 25.7427 51.4954 25.3831 51.4954 25.0106C51.4954 24.638 51.3586 24.2785 51.1111 24" stroke="#210049" stroke-linecap="round" stroke-linejoin="round"/>
<path d="M52.3841 26.7476C52.8453 26.2545 53.1018 25.6045 53.1018 24.9294C53.1018 24.2542 52.8453 23.6042 52.3841 23.1111" stroke="#210049" stroke-linecap="round" stroke-linejoin="round"/>
<path d="M53.9907 27.2942C54.6134 26.5962 54.9575 25.6935 54.9575 24.7582C54.9575 23.8228 54.6134 22.9202 53.9907 22.2222" stroke="#210049" stroke-linecap="round" stroke-linejoin="round"/>
<path d="M37 36.647C37.5523 36.647 38 36.1993 38 35.647C38 35.0947 37.5523 34.647 37 34.647C36.4477 34.647 36 35.0947 36 35.647C36 36.1993 36.4477 36.647 37 36.647Z" fill="#210049"/>
<path d="M51 36.647C51.5523 36.647 52 36.1993 52 35.647C52 35.0947 51.5523 34.647 51 34.647C50.4477 34.647 50 35.0947 50 35.647C50 36.1993 50.4477 36.647 51 36.647Z" fill="#210049"/>
<path d="M44 43V40M44 43H47M44 43H41M44 40H47M44 40H41M47 40H48.5C49.3284 40 50 40.6716 50 41.5V41.5C50 42.3284 49.3284 43 48.5 43H47M47 40V43M41 40H39.5C38.6716 40 38 40.6716 38 41.5V41.5C38 42.3284 38.6716 43 39.5 43H41M41 40V43" stroke="#210049" stroke-linecap="round"/>
<path d="M19.9592 38V49" stroke="#210049" stroke-width="2" stroke-linecap="round"/>
<path d="M24.9592 40.415L14.9999 46.165" stroke="#210049" stroke-width="2" stroke-linecap="round"/>
<path d="M24.9592 46.165L14.9999 40.415" stroke="#210049" stroke-width="2" stroke-linecap="round"/>
<path d="M69.9592 23V34" stroke="#210049" stroke-width="2" stroke-linecap="round"/>
<path d="M74.9592 25.415L64.9999 31.165" stroke="#210049" stroke-width="2" stroke-linecap="round"/>
<path d="M74.9592 31.165L64.9999 25.415" stroke="#210049" stroke-width="2" stroke-linecap="round"/>
<path d="M68.9592 55V66" stroke="#210049" stroke-width="2" stroke-linecap="round"/>
<path d="M73.9592 57.415L63.9999 63.165" stroke="#210049" stroke-width="2" stroke-linecap="round"/>
<path d="M73.9592 63.165L63.9999 57.415" stroke="#210049" stroke-width="2" stroke-linecap="round"/>
</svg>
