<svg width="80" height="24" viewBox="0 0 80 24" fill="none" xmlns="http://www.w3.org/2000/svg">
<g clip-path="url(#clip0)">
<path fill-rule="evenodd" clip-rule="evenodd" d="M31.2083 0.430556L21.4861 23.6111H15.1389L10.3472 5.11111C10.3071 4.68117 10.1586 4.26842 9.91573 3.9114C9.67286 3.55437 9.34347 3.2647 8.95833 3.06944C7.06208 2.16653 5.06048 1.50399 3 1.09722L3.13889 0.430556H13.3611C14.031 0.422982 14.6811 0.65777 15.1915 1.09166C15.702 1.52555 16.0384 2.1293 16.1389 2.79167L18.6667 16.2222L24.9028 0.430556H31.2083ZM56.0833 16.0556C56.0833 9.93056 47.6111 9.59722 47.6667 6.86111C47.6667 6.02778 48.4722 5.13889 50.2083 4.91667C52.2372 4.71892 54.2817 5.07407 56.125 5.94444L57.1667 1.02778C55.3901 0.359491 53.5092 0.0115117 51.6111 0C45.6806 0 41.5 3.15278 41.4583 7.66667C41.4583 11.0139 44.4444 12.875 46.7222 13.9861C49 15.0972 49.8472 15.8611 49.8333 16.875C49.8333 18.4306 47.9722 19.1111 46.25 19.1389C44.109 19.2163 41.9844 18.7378 40.0833 17.75L38.9861 22.8333C41.1165 23.658 43.3822 24.0772 45.6667 24.0694C51.9722 24.0694 56.0972 20.9444 56.125 16.125L56.0833 16.0556ZM71.75 23.6111H77.3055L72.4444 0.430556H67.3333C66.7881 0.431 66.255 0.591906 65.8006 0.893217C65.3461 1.19453 64.9904 1.62292 64.7778 2.125L55.7778 23.6111H62.0833L63.3333 20.1389H71.0555L71.75 23.6111ZM65.0417 15.4167L68.2778 6.69444L70.0972 15.4167H65.0417ZM39.7917 0.430556L34.8194 23.6111H28.8194L33.7917 0.430556H39.7917Z" fill="#EAEAEA"/>
</g>
<defs>
<clipPath id="clip0">
<rect width="74.3055" height="24" fill="white" transform="translate(3)"/>
</clipPath>
</defs>
</svg>
