<svg width="88" height="89" viewBox="0 0 88 89" fill="none" xmlns="http://www.w3.org/2000/svg">
<path d="M22.0073 81.5919L2.52126 32.3315C1.00778 28.4549 2.89963 24.0111 6.77791 22.4983L56.1551 3.02102C60.0334 1.50823 64.4792 3.39922 65.9927 7.27576L85.4787 56.7253C86.9922 60.6019 85.1004 65.0457 81.2221 66.5585L31.8449 85.9412C27.872 87.5485 23.5208 85.563 22.0073 81.5919Z" fill="#D5F4F7"/>
<path d="M81.5059 46.5137C73.8439 48.121 65.3306 45.8518 57.8578 48.7829C53.6011 50.4848 50.1958 53.794 46.6013 56.536C42.1554 59.8452 37.2366 61.1689 31.7503 61.358C25.8856 61.5471 19.8317 61.0743 14.0615 61.5471L15.8588 66.18C22.9532 65.7073 30.1422 66.8419 37.1421 65.8964C41.1149 65.3291 44.804 63.9108 48.0202 61.5471C52.1822 58.616 55.7767 54.8341 60.5064 53.1322C67.79 50.6739 75.9249 52.8485 83.3977 51.2412L81.5059 46.5137Z" fill="#ACEAEF"/>
<path d="M36.1015 54.1722C44.331 51.9976 49.3444 43.7718 57.0064 40.7462C63.6279 38.0988 71.2898 39.8007 77.7221 36.9642L76.0194 32.4258C69.0196 35.735 60.0333 33.3713 53.0335 37.1533C48.966 39.3279 45.6553 42.7317 42.0608 45.5682C37.7096 48.8774 32.9799 50.2011 27.5882 50.1066C21.4397 50.012 15.0074 48.4047 8.85889 47.8374L10.7507 52.754C19.1695 53.6995 27.8719 56.3469 36.1015 54.1722Z" fill="#ACEAEF"/>
<path d="M6.77821 42.7313C12.8321 42.7313 19.0752 43.3932 24.9399 42.5423C28.9128 41.975 32.6019 40.5567 35.8181 38.193C39.9801 35.2619 43.5746 31.4799 48.3042 29.778C56.5338 27.0361 65.8984 30.1562 73.9388 26.9415L72.1415 22.3086C63.7228 25.4287 53.9798 22.0249 45.6557 25.4287C41.399 27.1306 37.9937 30.4399 34.3992 33.1818C29.9533 36.4911 25.0345 37.8148 19.5482 38.0039C14.6294 38.193 9.80517 37.8148 4.98096 38.0039L6.77821 42.7313Z" fill="#ACEAEF"/>
<rect x="28" y="39.5" width="16" height="8" stroke="#210049"/>
<rect x="44" y="39.5" width="16" height="8" stroke="#210049"/>
<path d="M14 51.5H28V35.5L13.1056 42.9472C12.428 43.286 12 43.9785 12 44.7361V49.5C12 50.6046 12.8954 51.5 14 51.5Z" stroke="#210049" stroke-width="2"/>
<path d="M74 51.5H60V35.5L74.8944 42.9472C75.572 43.286 76 43.9785 76 44.7361V49.5C76 50.6046 75.1046 51.5 74 51.5Z" stroke="#210049" stroke-width="2"/>
<path d="M28 25.5C28 21.0817 31.5817 17.5 36 17.5V17.5C40.4183 17.5 44 21.0817 44 25.5V57.5H30C28.8954 57.5 28 56.6046 28 55.5V25.5Z" stroke="#210049" stroke-width="2"/>
<path d="M44 25.5C44 21.0817 47.5817 17.5 52 17.5V17.5C56.4183 17.5 60 21.0817 60 25.5V55.5C60 56.6046 59.1046 57.5 58 57.5H44V25.5Z" stroke="#210049" stroke-width="2"/>
<path d="M32 57.5H40V59.5C40 60.6046 39.1046 61.5 38 61.5H34C32.8954 61.5 32 60.6046 32 59.5V57.5Z" stroke="#210049" stroke-width="2"/>
<path d="M36 63.5V69.5" stroke="#210049" stroke-linecap="round"/>
<path d="M33 63.5V67.5" stroke="#210049" stroke-linecap="round"/>
<path d="M39 63.5V67.5" stroke="#210049" stroke-linecap="round"/>
<path d="M52 63.5V69.5" stroke="#210049" stroke-linecap="round"/>
<path d="M49 63.5V67.5" stroke="#210049" stroke-linecap="round"/>
<path d="M55 63.5V67.5" stroke="#210049" stroke-linecap="round"/>
<path d="M48 57.5H56V59.5C56 60.6046 55.1046 61.5 54 61.5H50C48.8954 61.5 48 60.6046 48 59.5V57.5Z" stroke="#210049" stroke-width="2"/>
</svg>
