<svg width="88" height="88" viewBox="0 0 88 88" fill="none" xmlns="http://www.w3.org/2000/svg">
<path d="M22.0073 81.0919L2.52126 31.8315C1.00778 27.9549 2.89963 23.5111 6.77791 21.9983L56.1551 2.52102C60.0334 1.00823 64.4792 2.89922 65.9927 6.77576L85.4787 56.2253C86.9922 60.1019 85.1004 64.5457 81.2221 66.0585L31.8449 85.4412C27.872 87.0485 23.5208 85.063 22.0073 81.0919Z" fill="#FFF69F"/>
<path d="M81.5059 46.0137C73.8439 47.621 65.3306 45.3518 57.8578 48.2829C53.6011 49.9848 50.1958 53.294 46.6013 56.036C42.1554 59.3452 37.2366 60.6689 31.7503 60.858C25.8856 61.0471 19.8317 60.5743 14.0615 61.0471L15.8588 65.68C22.9532 65.2073 30.1422 66.3419 37.1421 65.3964C41.1149 64.8291 44.804 63.4108 48.0202 61.0471C52.1822 58.116 55.7767 54.3341 60.5064 52.6322C67.79 50.1739 75.9249 52.3485 83.3977 50.7412L81.5059 46.0137Z" fill="#FFEF57"/>
<path d="M36.1015 53.6722C44.331 51.4976 49.3444 43.2718 57.0064 40.2462C63.6279 37.5988 71.2898 39.3007 77.7221 36.4642L76.0194 31.9258C69.0196 35.235 60.0333 32.8713 53.0335 36.6533C48.966 38.8279 45.6553 42.2317 42.0608 45.0682C37.7096 48.3774 32.9799 49.7011 27.5882 49.6066C21.4397 49.512 15.0074 47.9047 8.85889 47.3374L10.7507 52.254C19.1695 53.1995 27.8719 55.8469 36.1015 53.6722Z" fill="#FFEF57"/>
<path d="M6.77821 42.2313C12.8321 42.2313 19.0752 42.8932 24.9399 42.0423C28.9128 41.475 32.6019 40.0567 35.8181 37.693C39.9801 34.7619 43.5746 30.9799 48.3042 29.278C56.5338 26.5361 65.8984 29.6562 73.9388 26.4415L72.1415 21.8086C63.7228 24.9287 53.9798 21.5249 45.6557 24.9287C41.399 26.6306 37.9937 29.9399 34.3992 32.6818C29.9533 35.9911 25.0345 37.3148 19.5482 37.5039C14.6294 37.693 9.80517 37.3148 4.98096 37.5039L6.77821 42.2313Z" fill="#FFEF57"/>
<path d="M35 69C34.4477 69 34 69.4477 34 70C34 70.5523 34.4477 71 35 71V69ZM60.4507 70V71H60.4722L60.4937 70.9991L60.4507 70ZM61.6417 50L61.6915 49.0012L61.6666 49H61.6417V50ZM35 71H60.4507V69H35V71ZM61.6417 49H49V51H61.6417V49ZM71.9518 58.0271C71.2803 53.7404 68.6811 51.4564 66.2879 50.2773C65.1027 49.6933 63.9657 49.3766 63.1275 49.205C62.7068 49.1189 62.3572 49.0685 62.1086 49.0394C61.9843 49.0248 61.8849 49.0155 61.8142 49.0097C61.7788 49.0069 61.7506 49.0049 61.73 49.0035C61.7197 49.0028 61.7113 49.0023 61.7049 49.002C61.7017 49.0018 61.6989 49.0016 61.6967 49.0015C61.6956 49.0015 61.6946 49.0014 61.6937 49.0014C61.6933 49.0013 61.6927 49.0013 61.6925 49.0013C61.692 49.0013 61.6915 49.0012 61.6417 50C61.5919 50.9988 61.5914 50.9987 61.591 50.9987C61.5909 50.9987 61.5906 50.9987 61.5904 50.9987C61.59 50.9987 61.5898 50.9987 61.5896 50.9986C61.5893 50.9986 61.5896 50.9986 61.5902 50.9987C61.5916 50.9988 61.5948 50.9989 61.5999 50.9993C61.6101 50.9999 61.6275 51.0012 61.6518 51.0031C61.7004 51.0071 61.7763 51.0141 61.8759 51.0258C62.0753 51.0491 62.3683 51.0911 62.7264 51.1644C63.4457 51.3116 64.4108 51.582 65.4039 52.0713C67.3672 53.0386 69.429 54.8456 69.9759 58.3366L71.9518 58.0271ZM60.4507 70C60.4937 70.9991 60.4941 70.9991 60.4946 70.999C60.4948 70.999 60.4953 70.999 60.4957 70.999C60.4965 70.9989 60.4975 70.9989 60.4986 70.9989C60.5008 70.9988 60.5036 70.9986 60.507 70.9985C60.5137 70.9981 60.5227 70.9977 60.5338 70.997C60.5562 70.9958 60.5873 70.9939 60.6266 70.9911C60.7053 70.9856 60.817 70.9766 60.9573 70.9624C61.2378 70.9339 61.6341 70.8846 62.1111 70.8C63.0615 70.6314 64.3506 70.3197 65.6873 69.7442C68.364 68.5918 71.3419 66.3199 71.9891 61.9652L70.0109 61.6712C69.5022 65.0941 67.2055 66.9131 64.8964 67.9072C63.7403 68.405 62.6088 68.6804 61.7618 68.8307C61.3401 68.9055 60.9935 68.9485 60.7558 68.9725C60.6371 68.9846 60.5458 68.9918 60.4863 68.996C60.4565 68.9981 60.4348 68.9994 60.4215 69.0002C60.4148 69.0006 60.4103 69.0008 60.408 69.0009C60.4068 69.001 60.4062 69.001 60.4062 69.001C60.4062 69.001 60.4063 69.001 60.4065 69.001C60.4066 69.001 60.4069 69.001 60.407 69.001C60.4073 69.0009 60.4077 69.0009 60.4507 70Z" fill="#210049"/>
<path d="M28.4206 50V49H28.4035L28.3864 49.0006L28.4206 50ZM27.2465 29V28H27.22L27.1936 28.0014L27.2465 29ZM37.9999 30C38.5522 30 38.9999 29.5523 38.9999 29C38.9999 28.4477 38.5522 28 37.9999 28V30ZM38.9999 49H28.4206V51H38.9999V49ZM27.2465 30H37.9999V28H27.2465V30ZM19.0225 37.8819C19.5259 34.0991 21.5875 32.1638 23.5223 31.1385C24.5051 30.6177 25.4626 30.3304 26.1763 30.174C26.5317 30.0962 26.8225 30.0517 27.0201 30.027C27.1188 30.0146 27.1938 30.0073 27.2417 30.0031C27.2656 30.001 27.2827 29.9998 27.2925 29.9991C27.2974 29.9987 27.3004 29.9986 27.3016 29.9985C27.3022 29.9984 27.3023 29.9984 27.302 29.9985C27.3018 29.9985 27.3015 29.9985 27.3011 29.9985C27.3009 29.9985 27.3005 29.9985 27.3004 29.9985C27.2999 29.9986 27.2994 29.9986 27.2465 29C27.1936 28.0014 27.193 28.0014 27.1925 28.0015C27.1923 28.0015 27.1917 28.0015 27.1912 28.0015C27.1903 28.0016 27.1893 28.0016 27.1881 28.0017C27.1858 28.0018 27.183 28.002 27.1797 28.0022C27.173 28.0026 27.1645 28.0032 27.154 28.0039C27.133 28.0053 27.1044 28.0075 27.0687 28.0106C26.9972 28.0168 26.897 28.0268 26.7718 28.0425C26.5217 28.0737 26.1704 28.1279 25.7483 28.2203C24.9072 28.4046 23.7684 28.7447 22.5858 29.3713C20.1897 30.6411 17.6437 33.0807 17.04 37.6181L19.0225 37.8819ZM28.4206 50C28.3864 49.0006 28.3868 49.0006 28.3871 49.0006C28.3872 49.0006 28.3876 49.0005 28.3877 49.0005C28.388 49.0005 28.3882 49.0005 28.3882 49.0005C28.3882 49.0005 28.3877 49.0005 28.3867 49.0006C28.3846 49.0006 28.3803 49.0007 28.3739 49.0009C28.3611 49.0011 28.3399 49.0014 28.3108 49.0016C28.2526 49.0018 28.1629 49.0013 28.046 48.9979C27.8119 48.9911 27.4703 48.9728 27.0549 48.9262C26.2199 48.8327 25.1088 48.6278 23.9788 48.1881C21.748 47.3202 19.4857 45.5712 19.0235 41.8759L17.039 42.1241C17.6174 46.749 20.5498 49 23.2536 50.052C24.5908 50.5723 25.8819 50.8074 26.8323 50.9138C27.3096 50.9673 27.7066 50.9889 27.9878 50.9971C28.1285 51.0012 28.2407 51.0019 28.3199 51.0016C28.3595 51.0014 28.391 51.0009 28.4136 51.0005C28.4249 51.0002 28.4341 51 28.441 50.9998C28.4444 50.9997 28.4473 50.9997 28.4496 50.9996C28.4508 50.9995 28.4518 50.9995 28.4527 50.9995C28.4531 50.9995 28.4536 50.9995 28.4539 50.9994C28.4544 50.9994 28.4548 50.9994 28.4206 50Z" fill="#210049"/>
<circle cx="31" cy="70" r="3" stroke="#210049" stroke-width="2" stroke-miterlimit="10" stroke-linecap="round"/>
<circle cx="71" cy="60" r="2" stroke="#210049" stroke-miterlimit="10" stroke-linecap="round"/>
<circle cx="18" cy="40" r="2" stroke="#210049" stroke-miterlimit="10" stroke-linecap="round"/>
<circle cx="42" cy="29" r="3" stroke="#210049" stroke-width="2" stroke-miterlimit="10" stroke-linecap="round"/>
<circle cx="44" cy="50" r="6" stroke="#210049" stroke-width="2" stroke-miterlimit="10" stroke-linecap="round"/>
<path d="M42 26L42 14" stroke="#210049" stroke-linecap="round" stroke-linejoin="round"/>
<path d="M42 15.176C45.4286 15.764 46 14 50 14V18.704C46 18.704 45.4286 20.468 42 19.88" stroke="#210049" stroke-linecap="round" stroke-linejoin="round"/>
<path d="M47 48L42.8333 52L41 50.5" stroke="#210049" stroke-linecap="round" stroke-linejoin="round"/>
</svg>

