<svg width="88" height="88" viewBox="0 0 88 88" fill="none" xmlns="http://www.w3.org/2000/svg">
<path d="M22.0073 81.0919L2.52126 31.8315C1.00778 27.9549 2.89963 23.5111 6.77791 21.9983L56.1551 2.52102C60.0334 1.00823 64.4792 2.89922 65.9927 6.77576L85.4787 56.2253C86.9922 60.1019 85.1004 64.5457 81.2221 66.0585L31.8449 85.4412C27.872 87.0485 23.5208 85.063 22.0073 81.0919Z" fill="#D5F4F7"/>
<path d="M81.5059 46.0137C73.8439 47.621 65.3306 45.3518 57.8578 48.2829C53.6011 49.9848 50.1958 53.294 46.6013 56.036C42.1554 59.3452 37.2366 60.6689 31.7503 60.858C25.8856 61.0471 19.8317 60.5743 14.0615 61.0471L15.8588 65.68C22.9532 65.2073 30.1422 66.3419 37.1421 65.3964C41.1149 64.8291 44.804 63.4108 48.0202 61.0471C52.1822 58.116 55.7767 54.3341 60.5064 52.6322C67.79 50.1739 75.9249 52.3485 83.3977 50.7412L81.5059 46.0137Z" fill="#ACEAEF"/>
<path d="M36.1015 53.6722C44.331 51.4976 49.3444 43.2718 57.0064 40.2462C63.6279 37.5988 71.2898 39.3007 77.7221 36.4642L76.0194 31.9258C69.0196 35.235 60.0333 32.8713 53.0335 36.6533C48.966 38.8279 45.6553 42.2317 42.0608 45.0682C37.7096 48.3774 32.9799 49.7011 27.5882 49.6066C21.4397 49.512 15.0074 47.9047 8.85889 47.3374L10.7507 52.254C19.1695 53.1995 27.8719 55.8469 36.1015 53.6722Z" fill="#ACEAEF"/>
<path d="M6.77821 42.2318C12.8321 42.2318 19.0752 42.8937 24.9399 42.0427C28.9128 41.4754 32.6019 40.0572 35.8181 37.6934C39.9801 34.7624 43.5746 30.9804 48.3042 29.2785C56.5338 26.5366 65.8984 29.6567 73.9388 26.442L72.1415 21.8091C63.7228 24.9292 53.9798 21.5254 45.6557 24.9292C41.399 26.6311 37.9937 29.9404 34.3992 32.6823C29.9533 35.9916 25.0345 37.3152 19.5482 37.5043C14.6294 37.6934 9.80517 37.3152 4.98096 37.5043L6.77821 42.2318Z" fill="#ACEAEF"/>
<rect x="20" y="27" width="26" height="46.353" rx="3" stroke="#210049" stroke-width="2"/>
<rect x="32.6738" y="30.5" width="4.0669" height="6" rx="1.5" stroke="#210049"/>
<path d="M39.2678 34.2803C39.4844 34.0399 39.604 33.7294 39.604 33.4078C39.604 33.0861 39.4844 32.7756 39.2678 32.5352" stroke="#210049" stroke-linecap="round" stroke-linejoin="round"/>
<path d="M40.3818 34.9075C40.7853 34.4817 41.0098 33.9205 41.0098 33.3376C41.0098 32.7546 40.7853 32.1934 40.3818 31.7676" stroke="#210049" stroke-linecap="round" stroke-linejoin="round"/>
<path d="M41.7874 35.3794C42.3322 34.7767 42.6333 33.9973 42.6333 33.1897C42.6333 32.3821 42.3322 31.6027 41.7874 31" stroke="#210049" stroke-linecap="round" stroke-linejoin="round"/>
<path d="M37 43C37 43 37.5 44 39 44C40.5 44 41 43 41 43" stroke="#210049" stroke-linecap="round"/>
<path d="M31 50C31 50 31.5 51 33 51C34.5 51 35 50 35 50" stroke="#210049" stroke-linecap="round"/>
<path d="M25 43C25 43 25.5 44 27 44C28.5 44 29 43 29 43" stroke="#210049" stroke-linecap="round"/>
<path d="M62.844 26.8976C63.4529 29.0205 62.2254 31.2351 60.1024 31.844C57.9795 32.4529 55.7649 31.2254 55.156 29.1024C54.5471 26.9795 55.7746 24.7649 57.8976 24.156C60.0205 23.5471 62.2351 24.7746 62.844 26.8976Z" stroke="#210049" stroke-width="2" stroke-miterlimit="10" stroke-linecap="round" stroke-linejoin="round"/>
<path d="M59 21L59 19L59 17" stroke="#210049" stroke-linecap="round" stroke-linejoin="round"/>
<path d="M59 39L59 37L59 35" stroke="#210049" stroke-linecap="round" stroke-linejoin="round"/>
<path d="M66 28L68 28L70 28" stroke="#210049" stroke-linecap="round" stroke-linejoin="round"/>
<path d="M48 28L50 28L52 28" stroke="#210049" stroke-linecap="round" stroke-linejoin="round"/>
<path d="M63.9497 23.0503L65.3639 21.6361L66.7781 20.2219" stroke="#210049" stroke-linecap="round" stroke-linejoin="round"/>
<path d="M51.2217 35.7783L52.6359 34.3641L54.0501 32.9499" stroke="#210049" stroke-linecap="round" stroke-linejoin="round"/>
<path d="M63.9497 32.9497L65.3639 34.3639L66.7781 35.7781" stroke="#210049" stroke-linecap="round" stroke-linejoin="round"/>
<path d="M51.2217 20.2217L52.6359 21.6359L54.0501 23.0501" stroke="#210049" stroke-linecap="round" stroke-linejoin="round"/>
</svg>
