<svg width="88" height="88" viewBox="0 0 88 88" fill="none" xmlns="http://www.w3.org/2000/svg">
<path d="M22.0073 81.0919L2.52126 31.8315C1.00778 27.9549 2.89963 23.5111 6.77791 21.9983L56.1551 2.52102C60.0334 1.00823 64.4792 2.89922 65.9927 6.77576L85.4787 56.2253C86.9922 60.1019 85.1004 64.5457 81.2221 66.0585L31.8449 85.4412C27.872 87.0485 23.5208 85.063 22.0073 81.0919Z" fill="#FFF69F"/>
<path d="M81.5059 46.0137C73.8439 47.621 65.3306 45.3518 57.8578 48.2829C53.6011 49.9848 50.1958 53.294 46.6013 56.036C42.1554 59.3452 37.2366 60.6689 31.7503 60.858C25.8856 61.0471 19.8317 60.5743 14.0615 61.0471L15.8588 65.68C22.9532 65.2073 30.1422 66.3419 37.1421 65.3964C41.1149 64.8291 44.804 63.4108 48.0202 61.0471C52.1822 58.116 55.7767 54.3341 60.5064 52.6322C67.79 50.1739 75.9249 52.3485 83.3977 50.7412L81.5059 46.0137Z" fill="#FFEF57"/>
<path d="M36.1015 53.6722C44.331 51.4976 49.3444 43.2718 57.0064 40.2462C63.6279 37.5988 71.2898 39.3007 77.7221 36.4642L76.0194 31.9258C69.0196 35.235 60.0333 32.8713 53.0335 36.6533C48.966 38.8279 45.6553 42.2317 42.0608 45.0682C37.7096 48.3774 32.9799 49.7011 27.5882 49.6066C21.4397 49.512 15.0074 47.9047 8.85889 47.3374L10.7507 52.254C19.1695 53.1995 27.8719 55.8469 36.1015 53.6722Z" fill="#FFEF57"/>
<path d="M6.77821 42.2313C12.8321 42.2313 19.0752 42.8932 24.9399 42.0423C28.9128 41.475 32.6019 40.0567 35.8181 37.693C39.9801 34.7619 43.5746 30.9799 48.3042 29.278C56.5338 26.5361 65.8984 29.6562 73.9388 26.4415L72.1415 21.8086C63.7228 24.9287 53.9798 21.5249 45.6557 24.9287C41.399 26.6306 37.9937 29.9399 34.3992 32.6818C29.9533 35.9911 25.0345 37.3148 19.5482 37.5039C14.6294 37.693 9.80517 37.3148 4.98096 37.5039L6.77821 42.2313Z" fill="#FFEF57"/>
<path d="M67.8397 31.3242C70.8578 37.0005 71.7515 43.5674 70.3601 49.8438C68.9687 56.1202 65.3834 61.6941 60.2491 65.5631C55.1149 69.432 48.7686 71.342 42.3519 70.9496C35.9351 70.5571 29.8689 67.888 25.2444 63.4222M25.2444 63.4222L26.0001 69M25.2444 63.4222L31.0001 63" stroke="#210049" stroke-width="2" stroke-linecap="round" stroke-linejoin="round"/>
<path d="M63.0919 24.9082C58.5461 20.3623 52.5274 17.5877 46.1184 17.0833C39.7095 16.5789 33.3308 18.3778 28.1298 22.1566C22.9288 25.9353 19.2468 31.4459 17.746 37.697C16.2453 43.9482 17.0243 50.5297 19.9429 56.2578M63.0919 24.9082L62.5001 18M63.0919 24.9082L57.0001 26" stroke="#210049" stroke-width="2" stroke-linecap="round" stroke-linejoin="round"/>
<circle cx="43.9264" cy="44.0001" r="3.52941" stroke="#210049"/>
<path d="M43.9265 40.4706L49.9265 38L47.4559 44" stroke="#210049" stroke-linejoin="round"/>
<path d="M43.9265 47.5294L37.5736 50L40.3971 44" stroke="#210049" stroke-linejoin="round"/>
<path d="M28.0413 39.7235L25.6475 39.082" stroke="#210049" stroke-linecap="round"/>
<path d="M29.6919 35.7391L27.5457 34.5" stroke="#210049" stroke-linecap="round"/>
<path d="M62.3526 48.9178L59.9587 48.2764" stroke="#210049" stroke-linecap="round"/>
<path d="M60.4546 53.4999L58.3083 52.2607" stroke="#210049" stroke-linecap="round"/>
<path d="M32.3173 32.3168L30.5649 30.5645" stroke="#210049" stroke-linecap="round"/>
<path d="M35.7391 29.6921L34.5 27.5459" stroke="#210049" stroke-linecap="round"/>
<path d="M57.435 57.435L55.6826 55.6826" stroke="#210049" stroke-linecap="round"/>
<path d="M53.5001 60.4548L52.261 58.3086" stroke="#210049" stroke-linecap="round"/>
<path d="M32.3173 32.3168L30.5649 30.5645" stroke="#210049" stroke-linecap="round"/>
<path d="M35.7391 29.6921L34.5 27.5459" stroke="#210049" stroke-linecap="round"/>
<path d="M57.435 57.435L55.6826 55.6826" stroke="#210049" stroke-linecap="round"/>
<path d="M53.5001 60.1902L52.261 58.0439" stroke="#210049" stroke-linecap="round"/>
<path d="M39.7239 28.0413L39.0825 25.6475" stroke="#210049" stroke-linecap="round"/>
<path d="M48.9178 62.3528L48.2764 59.959" stroke="#210049" stroke-linecap="round"/>
<path d="M48.2763 28.0413L48.9177 25.6475" stroke="#210049" stroke-linecap="round"/>
<path d="M52.2609 29.6921L53.5 27.5459" stroke="#210049" stroke-linecap="round"/>
<path d="M39.0825 62.3528L39.7239 59.959" stroke="#210049" stroke-linecap="round"/>
<path d="M34.5001 60.4548L35.7393 58.3086" stroke="#210049" stroke-linecap="round"/>
<path d="M55.6829 32.3178L57.4353 30.5654" stroke="#210049" stroke-linecap="round"/>
<path d="M58.3084 35.7391L60.4546 34.5" stroke="#210049" stroke-linecap="round"/>
<path d="M30.565 57.435L32.3174 55.6826" stroke="#210049" stroke-linecap="round"/>
<path d="M27.5457 53.4999L29.6919 52.2607" stroke="#210049" stroke-linecap="round"/>
<path d="M55.6829 32.3178L57.4353 30.5654" stroke="#210049" stroke-linecap="round"/>
<path d="M58.3084 35.7391L60.4546 34.5" stroke="#210049" stroke-linecap="round"/>
<path d="M30.565 57.435L32.3174 55.6826" stroke="#210049" stroke-linecap="round"/>
<path d="M27.8103 53.4999L29.9565 52.2607" stroke="#210049" stroke-linecap="round"/>
<path d="M59.959 39.7235L62.3528 39.082" stroke="#210049" stroke-linecap="round"/>
<path d="M25.6474 48.9178L28.0413 48.2764" stroke="#210049" stroke-linecap="round"/>
<path d="M44 29.9565L44 25" stroke="#210049" stroke-linecap="round"/>
<path d="M44 63.0005L44 58.0439" stroke="#210049" stroke-linecap="round"/>
<path d="M29.9565 44H25" stroke="#210049" stroke-linecap="round"/>
<path d="M63 44H58.0435" stroke="#210049" stroke-linecap="round"/>
</svg>
