<svg width="88" height="88" viewBox="0 0 88 88" fill="none" xmlns="http://www.w3.org/2000/svg">
<path d="M22.0073 81.0919L2.52126 31.8315C1.00778 27.9549 2.89963 23.5111 6.77791 21.9983L56.1551 2.52102C60.0334 1.00823 64.4792 2.89922 65.9927 6.77576L85.4787 56.2253C86.9922 60.1019 85.1004 64.5457 81.2221 66.0585L31.8449 85.4412C27.872 87.0485 23.5208 85.063 22.0073 81.0919Z" fill="#FFF69F"/>
<path d="M81.5057 46.0139C73.8438 47.6213 65.3304 45.3521 57.8577 48.2831C53.601 49.985 50.1957 53.2943 46.6012 56.0362C42.1553 59.3454 37.2365 60.6691 31.7502 60.8582C25.8854 61.0473 19.8315 60.5746 14.0614 61.0473L15.8587 65.6803C22.9531 65.2075 30.1421 66.3421 37.1419 65.3966C41.1148 64.8293 44.8039 63.4111 48.0201 61.0473C52.1821 58.1163 55.7766 54.3343 60.5062 52.6324C67.7899 50.1741 75.9248 52.3488 83.3976 50.7414L81.5057 46.0139Z" fill="#FFEF57"/>
<path d="M36.1015 53.6725C44.331 51.4978 49.3444 43.272 57.0064 40.2464C63.6279 37.599 71.2898 39.3009 77.7221 36.4644L76.0194 31.926C69.0196 35.2353 60.0333 32.8715 53.0335 36.6535C48.966 38.8282 45.6553 42.232 42.0608 45.0684C37.7096 48.3777 32.9799 49.7014 27.5882 49.6068C21.4397 49.5123 15.0074 47.9049 8.85889 47.3376L10.7507 52.2542C19.1695 53.1997 27.8719 55.8471 36.1015 53.6725Z" fill="#FFEF57"/>
<path d="M6.77833 42.2318C12.8322 42.2318 19.0753 42.8937 24.9401 42.0427C28.9129 41.4754 32.602 40.0572 35.8182 37.6934C39.9802 34.7624 43.5748 30.9804 48.3044 29.2785C56.5339 26.5366 65.8985 29.6567 73.9389 26.442L72.1416 21.8091C63.7229 24.9292 53.9799 21.5254 45.6558 24.9292C41.3991 26.6311 37.9938 29.9404 34.3993 32.6823C29.9535 35.9916 25.0347 37.3152 19.5483 37.5043C14.6295 37.6934 9.80529 37.3152 4.98108 37.5043L6.77833 42.2318Z" fill="#FFEF57"/>
<rect x="31" y="30" width="26" height="46" rx="3" stroke="#210049" stroke-width="2"/>
<path d="M40 50C40 50 41 52 44 52C47 52 48 50 48 50" stroke="#210049" stroke-linecap="round"/>
<path d="M37 46C37.5523 46 38 45.5523 38 45C38 44.4477 37.5523 44 37 44C36.4477 44 36 44.4477 36 45C36 45.5523 36.4477 46 37 46Z" fill="#210049"/>
<path d="M51 46C51.5523 46 52 45.5523 52 45C52 44.4477 51.5523 44 51 44C50.4477 44 50 44.4477 50 45C50 45.5523 50.4477 46 51 46Z" fill="#210049"/>
<rect x="43.674" y="33.5" width="4.0669" height="6" rx="1.5" stroke="#210049"/>
<path d="M50.2676 37.2802C50.4842 37.0398 50.6038 36.7293 50.6038 36.4076C50.6038 36.086 50.4842 35.7755 50.2676 35.535" stroke="#210049" stroke-linecap="round" stroke-linejoin="round"/>
<path d="M51.3816 37.9075C51.7851 37.4817 52.0095 36.9205 52.0095 36.3376C52.0095 35.7546 51.7851 35.1934 51.3816 34.7676" stroke="#210049" stroke-linecap="round" stroke-linejoin="round"/>
<path d="M52.7873 38.3794C53.3321 37.7767 53.6332 36.9973 53.6332 36.1897C53.6332 35.3821 53.3321 34.6027 52.7873 34" stroke="#210049" stroke-linecap="round" stroke-linejoin="round"/>
<path d="M31 53L23 50" stroke="#210049" stroke-width="2" stroke-linecap="round"/>
<path d="M57 53L65 50" stroke="#210049" stroke-width="2" stroke-linecap="round"/>
<path d="M23.3057 36.3133C26.7301 34.8814 30 31.3144 30 27C30 21.5911 26.078 17 21 17C15.922 17 12 21.5911 12 27C12 31.3144 15.2699 34.8814 18.6943 36.3133L18.5682 36.637C18.4483 36.9447 18.4881 37.2918 18.6745 37.5644C18.8608 37.837 19.1698 38 19.5 38H22.5C22.8302 38 23.1392 37.837 23.3255 37.5644C23.5119 37.2918 23.5517 36.9447 23.4318 36.637L23.3057 36.3133Z" stroke="#210049" stroke-width="2" stroke-linejoin="round"/>
<path d="M15 26C15 25 15.6 22.6 18 21" stroke="#210049" stroke-linecap="round"/>
<path d="M21 38L21.3875 41.0997C21.4615 41.6924 21.402 42.2941 21.2131 42.8607L21.0055 43.4836C20.681 44.4571 20.743 45.5181 21.1788 46.4472L22.5564 49.384C22.718 49.7284 22.8296 50.0941 22.8879 50.47L23.4 53.7742L24 57" stroke="#210049" stroke-linecap="round" stroke-linejoin="round"/>
</svg>
