<svg width="48" height="48" viewBox="0 0 48 48" fill="none" xmlns="http://www.w3.org/2000/svg">
<path fill-rule="evenodd" clip-rule="evenodd" d="M21.6218 45.0152L2.98481 26.3782C1.67173 25.0651 1.67173 22.9357 2.98481 21.6227L21.6218 2.98481C22.9349 1.67173 25.0643 1.67173 26.3773 2.98481L45.0152 21.6227C46.3283 22.9357 46.3283 25.0651 45.0152 26.3782L26.3773 45.0152C25.0643 46.3283 22.9349 46.3283 21.6218 45.0152Z" fill="#FDE7D3"/>
<path d="M30.9042 13.4999H25.1419C24.9627 13.4998 24.7909 13.5706 24.6638 13.6968L13.1438 25.214C12.8916 25.4674 12.75 25.8104 12.75 26.1679C12.75 26.5254 12.8916 26.8684 13.1438 27.1218L18.6281 32.6062C18.8816 32.8584 19.2247 33 19.5823 33C19.9399 33 20.2829 32.8584 20.5364 32.6062L32.0531 21.0937C32.1794 20.9666 32.2501 20.7947 32.25 20.6156V14.8499C32.2509 14.6728 32.2167 14.4972 32.1494 14.3333C32.0821 14.1694 31.9831 14.0204 31.858 13.8949C31.7329 13.7694 31.5843 13.6699 31.4206 13.6022C31.2569 13.5344 31.0814 13.4996 30.9042 13.4999Z" stroke="#210049" stroke-width="1.5" stroke-linecap="round" stroke-linejoin="round"/>
<path d="M28.5 18.75C28.2033 18.75 27.9133 18.662 27.6666 18.4972C27.42 18.3324 27.2277 18.0981 27.1142 17.824C27.0006 17.5499 26.9709 17.2483 27.0288 16.9574C27.0867 16.6664 27.2296 16.3991 27.4393 16.1893C27.6491 15.9796 27.9164 15.8367 28.2074 15.7788C28.4983 15.7209 28.7999 15.7506 29.074 15.8642C29.3481 15.9777 29.5824 16.17 29.7472 16.4166C29.912 16.6633 30 16.9533 30 17.25C30 17.6478 29.842 18.0294 29.5607 18.3107C29.2794 18.592 28.8978 18.75 28.5 18.75Z" fill="#210049"/>
<path d="M22.7812 34.5L35.0625 22.2188C35.1236 22.1572 35.1716 22.0839 35.2038 22.0034C35.236 21.9229 35.2517 21.8367 35.25 21.75V15.75" stroke="#210049" stroke-width="1.5" stroke-linecap="round" stroke-linejoin="round"/>
</svg>
