<svg width="240" height="248" viewBox="0 0 240 248" fill="none" xmlns="http://www.w3.org/2000/svg">
<path opacity="0.1" fill-rule="evenodd" clip-rule="evenodd" d="M7.36925 111.348L77.8025 15.3738C82.0742 9.60538 90.0216 7.41737 96.7768 10.2021L229.299 63.7088C237.345 66.9908 241.617 75.345 239.431 83.3014L200.589 222.837C196.417 235.467 181.317 241.634 168.8 235.766L19.6876 160.279C1.01139 150.831 -4.75043 127.857 7.36925 111.348Z" fill="#4376FF"/>
<circle r="14.3664" transform="matrix(-0.91977 -0.392457 -0.392457 0.91977 203.684 86.1076)" fill="#ACEAEF" stroke="#2FCAD7" stroke-width="1.11741"/>
<circle r="11.6607" transform="matrix(-0.91977 -0.392457 -0.392457 0.91977 203.684 86.1081)" fill="#D5F4F7" stroke="#2FCAD7" stroke-width="0.558703" stroke-linecap="round" stroke-linejoin="bevel" stroke-dasharray="3.98 1.99"/>
<path d="M205.588 91.7873C205.588 91.7873 203.892 93.2271 201.146 92.0556C198.401 90.8842 198.266 88.6633 198.266 88.6633" stroke="#2FCAD7" stroke-width="0.995006" stroke-linecap="round"/>
<path d="M201.201 85.5887C201.201 85.5887 201.592 84.6736 200.677 84.2831C199.761 83.8926 199.371 84.8078 199.371 84.8078" stroke="#2FCAD7" stroke-width="0.995006" stroke-linecap="round"/>
<path d="M201.201 85.5887C201.201 85.5887 201.592 84.6736 200.677 84.2831C199.761 83.8926 199.371 84.8078 199.371 84.8078" stroke="#2FCAD7" stroke-width="0.995006" stroke-linecap="round"/>
<path d="M208.066 88.5173C208.066 88.5173 208.456 87.6022 207.541 87.2117C206.626 86.8212 206.235 87.7363 206.235 87.7363" stroke="#2FCAD7" stroke-width="0.995006" stroke-linecap="round"/>
<circle r="13.2494" transform="matrix(-0.799763 0.600316 0.600316 0.799763 160.358 75.7989)" fill="#ACEAEF" stroke="#2FCAD7" stroke-width="1.11741"/>
<circle r="10.7671" transform="matrix(-0.799763 0.600316 0.600316 0.799763 160.359 75.7995)" fill="#D5F4F7" stroke="#2FCAD7" stroke-width="0.558703" stroke-linecap="round" stroke-linejoin="bevel" stroke-dasharray="3.68 1.84"/>
<path d="M165.79 76.9017C165.79 76.9017 166.159 78.9267 163.95 80.5845C161.742 82.2424 159.9 81.3226 159.9 81.3226" stroke="#2FCAD7" stroke-width="0.920539" stroke-linecap="round"/>
<path d="M158.795 77.5492C158.795 77.5492 158.242 76.813 157.506 77.3656C156.77 77.9183 157.322 78.6545 157.322 78.6545" stroke="#2FCAD7" stroke-width="0.920539" stroke-linecap="round"/>
<path d="M158.795 77.5492C158.795 77.5492 158.242 76.813 157.506 77.3656C156.77 77.9183 157.322 78.6545 157.322 78.6545" stroke="#2FCAD7" stroke-width="0.920539" stroke-linecap="round"/>
<path d="M164.315 73.4035C164.315 73.4035 163.763 72.6673 163.026 73.2199C162.29 73.7725 162.843 74.5088 162.843 74.5088" stroke="#2FCAD7" stroke-width="0.920539" stroke-linecap="round"/>
<circle r="11.6532" transform="matrix(-0.984363 -0.176154 -0.176154 0.984363 191.219 51.6417)" fill="#ACEAEF" stroke="#2FCAD7" stroke-width="1.11741"/>
<circle r="9.49017" transform="matrix(-0.984363 -0.176154 -0.176154 0.984363 191.219 51.6431)" fill="#D5F4F7" stroke="#2FCAD7" stroke-width="0.558703" stroke-linecap="round" stroke-linejoin="bevel" stroke-dasharray="3.26 1.63"/>
<path d="M193.78 55.8221C193.78 55.8221 192.692 57.2815 190.288 56.8513C187.884 56.421 187.369 54.6748 187.369 54.6748" stroke="#2FCAD7" stroke-width="0.814127" stroke-linecap="round"/>
<path d="M189.145 51.6851C189.145 51.6851 189.288 50.8837 188.487 50.7403C187.685 50.5969 187.542 51.3983 187.542 51.3983" stroke="#2FCAD7" stroke-width="0.814127" stroke-linecap="round"/>
<path d="M189.145 51.6851C189.145 51.6851 189.288 50.8837 188.487 50.7403C187.685 50.5969 187.542 51.3983 187.542 51.3983" stroke="#2FCAD7" stroke-width="0.814127" stroke-linecap="round"/>
<path d="M195.154 52.7594C195.154 52.7594 195.298 51.958 194.496 51.8146C193.695 51.6712 193.552 52.4726 193.552 52.4726" stroke="#2FCAD7" stroke-width="0.814127" stroke-linecap="round"/>
<path d="M225.505 59.7296L224.581 59.0524" stroke="#4376FF" stroke-width="1.03663" stroke-miterlimit="10" stroke-linecap="round" stroke-linejoin="round"/>
<path d="M222.734 57.574L221.749 56.8968" stroke="#4376FF" stroke-width="1.03663" stroke-miterlimit="10" stroke-linecap="round" stroke-linejoin="round"/>
<path d="M222.18 60.1613L222.919 59.2379" stroke="#4376FF" stroke-width="1.03663" stroke-miterlimit="10" stroke-linecap="round" stroke-linejoin="round"/>
<path d="M224.334 57.3903L225.073 56.4668" stroke="#4376FF" stroke-width="1.03663" stroke-miterlimit="10" stroke-linecap="round" stroke-linejoin="round"/>
<path d="M164.374 52.4605C163.32 52.4605 162.465 51.606 162.465 50.552C162.465 49.4979 163.32 48.6434 164.374 48.6434C165.428 48.6434 166.282 49.4979 166.282 50.552C166.282 51.606 165.428 52.4605 164.374 52.4605Z" fill="#4376FF"/>
<path d="M138.366 93.3034C137.142 93.3034 136.149 92.3111 136.149 91.0871C136.149 89.863 137.142 88.8707 138.366 88.8707C139.59 88.8707 140.582 89.863 140.582 91.0871C140.582 92.3111 139.59 93.3034 138.366 93.3034Z" stroke="#4376FF" stroke-width="1.10817" stroke-miterlimit="10" stroke-linecap="round" stroke-linejoin="round"/>
<path d="M180.809 92.1338L179.885 91.4565" stroke="#4376FF" stroke-width="1.03663" stroke-miterlimit="10" stroke-linecap="round" stroke-linejoin="round"/>
<path d="M178.038 89.9782L177.053 89.301" stroke="#4376FF" stroke-width="1.03663" stroke-miterlimit="10" stroke-linecap="round" stroke-linejoin="round"/>
<path d="M177.485 92.5635L178.224 91.64" stroke="#4376FF" stroke-width="1.03663" stroke-miterlimit="10" stroke-linecap="round" stroke-linejoin="round"/>
<path d="M179.639 89.7925L180.378 88.869" stroke="#4376FF" stroke-width="1.03663" stroke-miterlimit="10" stroke-linecap="round" stroke-linejoin="round"/>
<path d="M141.699 48.555L140.776 47.8778" stroke="#4376FF" stroke-width="1.03663" stroke-miterlimit="10" stroke-linecap="round" stroke-linejoin="round"/>
<path d="M138.929 46.3994L137.944 45.7222" stroke="#4376FF" stroke-width="1.03663" stroke-miterlimit="10" stroke-linecap="round" stroke-linejoin="round"/>
<path d="M138.375 48.9867L139.113 48.0633" stroke="#4376FF" stroke-width="1.03663" stroke-miterlimit="10" stroke-linecap="round" stroke-linejoin="round"/>
<path d="M140.529 46.2157L141.268 45.2922" stroke="#4376FF" stroke-width="1.03663" stroke-miterlimit="10" stroke-linecap="round" stroke-linejoin="round"/>
<path d="M210.997 37.4327C209.773 37.4327 208.78 36.4404 208.78 35.2163C208.78 33.9923 209.773 33 210.997 33C212.221 33 213.213 33.9923 213.213 35.2163C213.213 36.4404 212.221 37.4327 210.997 37.4327Z" stroke="#4376FF" stroke-width="1.10817" stroke-miterlimit="10" stroke-linecap="round" stroke-linejoin="round"/>
<path d="M182.08 114.641L186.635 98.1665L166.076 94.3835L162.194 109.773L175.187 126.072L182.08 114.641Z" fill="#210049"/>
<path d="M159.131 124.4L156.716 135.58L164.79 138.438L168.425 128.142L159.131 124.4Z" fill="#210049"/>
<path d="M108.616 114.92C108.616 114.92 138.427 118.647 145.107 157.158L138.534 163.243L136.391 200.86C136.391 200.86 112.447 209.762 75.9737 206.204L108.616 114.92Z" fill="#ACEAEF"/>
<path d="M107.551 112.986C107.551 112.986 97.3463 126.462 80.5842 110.681C80.5842 110.681 78.9227 109.241 77.9546 111.283C76.9864 113.326 73.9306 113.974 73.9306 113.974C73.9306 113.974 37.4297 133.477 47.7172 179.577C58.0046 225.677 103.442 198.005 103.442 198.005C103.442 198.005 120.984 186.659 129.153 150.988L117.026 143.334L107.551 112.986Z" fill="#ACEAEF"/>
<path d="M103.442 198.005C103.442 198.005 120.984 186.659 129.152 150.988" stroke="#2FCAD7" stroke-miterlimit="10"/>
<path d="M77.2519 181.717C77.2519 181.717 82.4416 172.761 92.4186 167.283C102.3 161.923 117.003 143.121 117.003 143.121" stroke="#2FCAD7" stroke-miterlimit="10"/>
<path d="M73.4902 146.345C73.4902 146.345 71.7749 163.659 82.8227 174.337" stroke="#2FCAD7" stroke-miterlimit="10"/>
<path d="M118.264 143.849C118.264 143.849 123.509 128.314 125.212 126.086C126.819 123.976 130.401 122.194 130.401 122.194L144.544 116.381C145.469 115.959 146.485 116.39 146.906 117.315C147.21 118.145 146.992 119.138 146.174 119.548L134.936 126.345C134.936 126.345 137.575 128.866 136.657 130.365C136.657 130.365 139.103 131.074 138.858 132.824C138.858 132.824 141.356 135.037 140.14 136.782C140.14 136.782 142.285 138.709 140.244 139.788C138.002 140.996 128.839 147.034 128.068 149.918L118.264 143.849Z" fill="white"/>
<path d="M136.392 200.86C136.392 200.86 165.796 195.687 178.308 140.052L184.603 120.204C184.603 120.204 188.298 114.424 184.03 108.736L182.744 112.859L171.441 98.7606C170.453 97.5726 168.714 97.4342 167.549 98.6355C166.669 99.4833 166.592 100.784 167.238 101.793L176.084 115.076C174.883 113.91 166.188 106.107 162.4 108.988C158.326 112.222 156.439 120.827 161.466 128.59C166.493 136.352 157.983 144.476 157.983 144.476L145.108 157.158L138.536 163.244L136.392 200.86Z" fill="white"/>
<path d="M178.671 139.778L170.752 134.144L162.834 128.511" stroke="#2FCAD7"/>
<path d="M178.308 140.052C165.796 195.687 136.392 200.86 136.392 200.86L138.536 163.243L145.108 157.157L157.983 144.475C157.983 144.475 166.493 136.352 161.466 128.589L178.308 140.052Z" fill="#ACEAEF"/>
<path d="M80.5718 110.574C80.5718 110.574 84.9432 102.028 85.5582 94.636C85.5582 94.636 89.0482 79.8268 90.7236 78.3557C92.399 76.8847 97.8085 68.9828 110.381 67.6465C110.381 67.6465 117.689 73.5502 116.679 79.2603C115.788 85.0657 116.967 86.0179 116.751 89.0578C116.535 92.0977 112.361 106.549 105.517 105.013C105.517 105.013 102.93 109.06 106.457 113.857C106.552 113.739 96.425 125.913 80.5718 110.574Z" stroke="#2FCAD7" stroke-miterlimit="10"/>
<path d="M63.1154 58.8526C68.7029 62.5426 76.3288 60.9852 80.0535 55.2568C83.8312 49.6162 82.3442 42.0077 76.7567 38.3176C71.0988 34.6103 63.5433 36.185 59.7482 41.896C56.0408 47.554 57.5278 55.1625 63.1154 58.8526Z" fill="#210049"/>
<path d="M70.9952 59.2991C72.1584 64.8867 77.552 68.4543 83.1223 67.3615C88.7098 66.1984 92.2775 60.8047 91.1847 55.2345C90.0919 49.6642 84.6452 46.0089 79.0576 47.1721C73.47 48.3353 69.9024 53.7289 70.9952 59.2991Z" fill="white"/>
<path d="M128.988 103.067C126.613 93.0001 124.453 79.3275 124.696 73.4886C124.761 72.0113 124.696 73.4886 124.696 73.4886L107.216 63.5113C107.216 63.5113 99.8784 86.3446 98.896 101.558L87.7068 99.9988L90.2803 67.7049L94.3094 44.0572C65.8496 46.5341 58.7771 79.5124 58.7771 79.5124C54.9873 101.278 54.8811 110.809 67.9765 114.331C67.9765 114.331 68.1877 114.383 68.4693 114.452C69.0325 114.591 69.5957 114.729 70.2293 114.885C71.2322 115.058 72.1647 115.213 73.0268 115.35C80.6809 116.712 96.2153 118.818 112.935 117.931C113.163 117.913 113.462 117.912 113.691 117.893C113.761 117.911 113.919 117.875 113.99 117.892C122.533 117.158 131.148 111.887 128.988 103.067Z" fill="#210049"/>
<path d="M124.696 73.4884C123.997 89.3695 110.858 98.1563 94.608 97.4414C78.3576 96.7266 67.3331 87.2183 68.1022 71.3546C68.8181 55.4031 82.6132 43.3432 98.8452 43.8296C121.215 44.5575 125.412 57.537 124.696 73.4884Z" fill="#210049"/>
<path d="M105.379 95.2395C105.242 100.955 105.175 106.688 105.037 112.403C104.993 114.707 105.195 117.22 104.922 119.542C104.271 124.31 99.3065 127.493 94.4002 127.406C89.6347 127.352 83.3074 123.331 82.428 118.411C81.7099 114.351 82.9923 109.142 83.2587 105.026C83.7775 97.7619 84.279 90.5682 84.7979 83.304L105.379 95.2395Z" fill="white"/>
<path d="M99.8158 108.131C110.35 108.41 119.217 99.9899 119.677 91.1434L120.727 70.1968C121.372 59.0813 113.354 49.4918 102.624 48.4932C91.5956 47.4956 80.0197 55.6966 79.0233 67.0244L78.3809 83.8899C77.795 96.8867 87.2566 106.981 99.8158 108.131Z" fill="white"/>
<path d="M108.683 85.152L109.301 90.5305L106.681 90.5576" stroke="#210049" stroke-width="0.992989" stroke-miterlimit="10" stroke-linecap="round" stroke-linejoin="round"/>
<path d="M88.6733 65.7413C88.5531 66.533 88.6018 79.9847 80.8806 84.3559C76.3707 86.9044 71.4536 69.2677 71.4536 69.2677L88.6733 65.7413Z" fill="#210049"/>
<path d="M70.664 84.6036C70.3781 88.1918 72.8864 91.3479 76.3869 91.6869C79.8874 92.0259 82.9373 89.3421 83.2937 85.7712C83.5796 82.183 81.0712 79.0269 77.5708 78.6879C74.0703 78.3489 71.0204 81.0327 70.664 84.6036Z" fill="white"/>
<path d="M120.355 54.7244C120.355 54.7244 111.327 76.8427 79.9534 71.1359C79.9534 71.1359 71.0321 74.3158 73.0239 65.9209C75.0157 57.5261 90.9921 45.7045 90.9921 45.7045L105.698 47.2338L120.355 54.7244Z" fill="#210049"/>
<path d="M105.221 51.5961C105.221 51.5961 121.399 56.5491 120.727 70.1968L122.736 61.7315L117.585 52.3251L115.079 49.7669L109.057 47.5379L105.221 51.5961Z" fill="#210049"/>
<path d="M100.399 80.5601C100.407 79.3189 99.4207 78.3061 98.196 78.2979C96.9713 78.2897 95.9718 79.2893 95.9635 80.5305" stroke="#210049" stroke-linecap="round"/>
<path d="M118.476 81.8293C118.457 80.5882 117.39 79.5987 116.093 79.6192C114.797 79.6396 113.762 80.6623 113.782 81.9034" stroke="#210049" stroke-linecap="round"/>
<path d="M82.2143 98.3481C82.0626 105.031 86.2714 111.592 92.3474 114.207C89.2195 114.781 85.8945 114.336 83.0579 112.817C84.6165 115.888 87.7357 117.776 90.6784 119.471C83.4402 121.273 75.9562 118.311 69.0354 115.488C67.4683 114.878 65.9184 114.198 64.596 113.2C60.7695 110.242 59.8511 104.267 62.5447 100.301" fill="#210049"/>
<path d="M105.759 107.952C105.214 108.042 104.581 108.185 104.037 108.274C101.804 108.546 99.5885 108.449 97.4061 107.912" stroke="#210049" stroke-width="0.992989" stroke-miterlimit="10" stroke-linecap="round" stroke-linejoin="round"/>
<path d="M92.6242 92.0343C94.706 92.0015 96.3783 91.0012 96.3594 89.8002C96.3405 88.5991 94.6374 87.6521 92.5556 87.6849C90.4738 87.7178 88.8015 88.718 88.8204 89.9191C88.8394 91.1201 90.5424 92.0672 92.6242 92.0343Z" fill="#FFD5E3"/>
<path d="M119.473 92.8853C117.381 92.8929 115.742 91.9669 115.667 90.7538C115.593 89.5408 117.33 88.5498 119.352 88.5249C119.493 88.5596 119.651 88.5238 119.721 88.5412" fill="#FFD5E3"/>
<path d="M81.3138 126.804C81.2234 126.731 81.133 126.657 81.0426 126.584C79.4156 125.263 78.553 123.364 78.2533 121.321C78.0234 119.935 78.829 118.19 77.4819 117.172C75.782 115.942 72.0134 117.006 69.9837 116.558C67.6185 116.063 65.3001 115.231 62.8501 115.491C57.8597 115.938 53.0659 121.343 50.2385 125.046C48.2864 127.659 46.515 130.42 45.1782 133.383C44.5653 134.61 44.0428 135.91 43.774 137.266C42.579 143.118 46.4006 148.769 52.6073 148.109C60.529 147.267 65.5361 140.761 73.5743 140.238C79.4805 139.86 88.6953 144.19 86.7972 134.104C86.4595 132.48 86.1217 130.856 85.0752 129.557C84.046 128.422 82.5705 127.749 81.3138 126.804Z" fill="#2FCAD7"/>
<path d="M110.564 147.403C109.574 145.857 109.404 143.481 109.621 141.642C109.838 139.803 110.228 138.028 110.037 136.232C109.75 133.538 108.094 131.155 106.845 128.729C106.441 128.029 106.246 126.976 106.864 126.58" stroke="#2FCAD7" stroke-width="1.8" stroke-miterlimit="10" stroke-linecap="round" stroke-linejoin="round"/>
<path d="M110.893 150.505C112.246 150.361 113.226 149.148 113.082 147.796C112.938 146.443 111.725 145.463 110.373 145.607C109.02 145.751 108.04 146.964 108.184 148.316C108.328 149.669 109.541 150.649 110.893 150.505Z" fill="#2FCAD7"/>
<path d="M107.726 118.603C108.043 121.586 107.978 124.787 106.545 127.335C105.316 129.506 103.272 130.877 101.11 131.906C94.4653 135.008 86.4063 133.202 79.679 130.191" stroke="#2FCAD7" stroke-width="1.8" stroke-miterlimit="10" stroke-linecap="round" stroke-linejoin="round"/>
<path d="M93.8391 133.592C94.7972 137.767 93.628 142.491 95.5606 146.159C95.8022 146.617 96.1709 147.062 96.5523 147.022C97.1158 146.881 97.2047 145.904 97.0013 145.199C96.5394 145.087 96.0733 145.54 95.8784 146.125C94.7769 149.067 96.1122 154.977 96.7608 158.055" stroke="#2FCAD7" stroke-width="1.8" stroke-miterlimit="10" stroke-linecap="round" stroke-linejoin="round"/>
<path d="M107.966 94.3663C104.811 94.7016 100.693 94.8015 98.0869 91.475C97.8063 94.1324 98.5932 99.4164 103.985 99.2937" stroke="#210049" stroke-linecap="round" stroke-linejoin="round"/>
<path d="M103.986 99.2937C103.31 98.2394 102.517 96.0716 98.5598 95.9291" stroke="#210049"/>
</svg>
