<svg width="88" height="88" viewBox="0 0 88 88" fill="none" xmlns="http://www.w3.org/2000/svg">
<path d="M22.0073 81.0919L2.52126 31.8315C1.00778 27.9549 2.89963 23.5111 6.77791 21.9983L56.1551 2.52102C60.0334 1.00823 64.4792 2.89922 65.9927 6.77576L85.4787 56.2253C86.9922 60.1019 85.1004 64.5457 81.2221 66.0585L31.8449 85.4412C27.872 87.0485 23.5208 85.063 22.0073 81.0919Z" fill="#FFDADB"/>
<path d="M81.5059 46.0137C73.8439 47.621 65.3306 45.3518 57.8578 48.2829C53.6011 49.9848 50.1958 53.294 46.6013 56.036C42.1554 59.3452 37.2366 60.6689 31.7503 60.858C25.8856 61.0471 19.8317 60.5743 14.0615 61.0471L15.8588 65.68C22.9532 65.2073 30.1422 66.3419 37.1421 65.3964C41.1149 64.8291 44.804 63.4108 48.0202 61.0471C52.1822 58.116 55.7767 54.3341 60.5064 52.6322C67.79 50.1739 75.9249 52.3485 83.3977 50.7412L81.5059 46.0137Z" fill="#FFB3B6"/>
<path d="M36.1015 53.6722C44.331 51.4976 49.3444 43.2718 57.0064 40.2462C63.6279 37.5988 71.2898 39.3007 77.7221 36.4642L76.0194 31.9258C69.0196 35.235 60.0333 32.8713 53.0335 36.6533C48.966 38.8279 45.6553 42.2317 42.0608 45.0682C37.7096 48.3774 32.9799 49.7011 27.5882 49.6066C21.4397 49.512 15.0074 47.9047 8.85889 47.3374L10.7507 52.254C19.1695 53.1995 27.8719 55.8469 36.1015 53.6722Z" fill="#FFB3B6"/>
<path d="M6.77821 42.2318C12.8321 42.2318 19.0752 42.8937 24.9399 42.0427C28.9128 41.4754 32.6019 40.0572 35.8181 37.6934C39.9801 34.7624 43.5746 30.9804 48.3042 29.2785C56.5338 26.5366 65.8984 29.6567 73.9388 26.442L72.1415 21.8091C63.7228 24.9292 53.9798 21.5254 45.6557 24.9292C41.399 26.6311 37.9937 29.9404 34.3992 32.6823C29.9533 35.9916 25.0345 37.3152 19.5482 37.5043C14.6294 37.6934 9.80517 37.3152 4.98096 37.5043L6.77821 42.2318Z" fill="#FFB3B6"/>
<path d="M42.9961 63.2913V67.1618C42.9961 68.765 44.2957 70.0647 45.8989 70.0647V70.0647C47.5021 70.0647 48.8018 68.765 48.8018 67.1618V62.3237" stroke="#210049" stroke-width="2"/>
<path d="M48.8018 63.0498V65.2269C48.8018 66.8301 50.1014 68.1298 51.7046 68.1298V68.1298C53.3078 68.1298 54.6075 66.8301 54.6075 65.2269V64.2593" stroke="#210049" stroke-width="2"/>
<rect x="59.1997" y="23.2434" width="3.79388" height="5.39184" rx="1.43523" transform="rotate(20 59.1997 23.2434)" stroke="#210049"/>
<path d="M63.2361 28.7499C63.498 28.6085 63.6989 28.3759 63.8007 28.0962C63.9025 27.8164 63.8982 27.5091 63.7884 27.2324" stroke="#210049" stroke-linecap="round" stroke-linejoin="round"/>
<path d="M63.9933 29.6431C64.4743 29.3988 64.8445 28.9809 65.029 28.474C65.2135 27.9671 65.1985 27.409 64.9871 26.9128" stroke="#210049" stroke-linecap="round" stroke-linejoin="round"/>
<path d="M65.0502 30.4926C65.7085 30.1387 66.2135 29.555 66.4691 28.8527C66.7247 28.1505 66.713 27.3787 66.4363 26.6845" stroke="#210049" stroke-linecap="round" stroke-linejoin="round"/>
<path d="M13 53.6151L32.2518 39.6139C33.5748 38.6516 35.1688 38.1333 36.8048 38.1333H40.0932" stroke="#210049" stroke-width="2" stroke-linecap="round"/>
<path d="M45.8989 61.3562L53.6771 64.3078C55.6949 65.0735 57.9491 64.0409 58.6873 62.0129L71.3245 27.2923C72.0556 25.2836 71.0199 23.0626 69.0112 22.3315L52.2599 16.2345C50.2512 15.5034 48.0302 16.5391 47.2991 18.5477L34.3292 54.1823C34.094 54.8283 34.143 55.4993 34.4038 56.0694C35.0425 57.4653 36.9329 56.9975 38.1978 56.1279L49.2371 48.5384C50.6671 47.5553 52.5949 47.7323 53.8219 48.9593C55.2943 50.4318 55.2141 52.8426 53.6469 54.2138L36.7914 68.9624C34.5534 70.9207 31.6808 72 28.7071 72H20" stroke="#210049" stroke-width="2" stroke-linecap="round"/>
</svg>
