<!-- Generated by IcoMoon.io -->
<svg version="1.1" xmlns="http://www.w3.org/2000/svg" width="17" height="32" viewBox="0 0 17 32">
<title>pesos-sign</title>
<path d="M10.157 13.913v-7.096c1.113 0.139 2.087 0.835 2.783 1.67 0.139 0.139 0.278 0.278 0.417 0.278s0.417 0 0.557-0.139l1.67-1.252c0.139-0.139 0.278-0.278 0.278-0.417s0-0.417-0.139-0.557c-1.53-1.948-4.035-2.504-5.565-2.643v-2.922c0-0.417-0.278-0.696-0.696-0.696h-1.53c-0.417 0-0.696 0.278-0.696 0.696v2.922c-3.478 0.417-5.843 3.061-5.843 6.539 0 4.035 3.061 5.565 5.843 6.539v7.374c-1.113-0.278-2.504-0.974-3.339-2.226-0.139-0.139-0.278-0.278-0.417-0.278s-0.417 0-0.557 0.139l-1.809 1.252c-0.139 0.139-0.278 0.278-0.278 0.417s0 0.417 0.139 0.557c1.67 2.087 3.896 3.2 6.261 3.478v2.922c0 0.417 0.278 0.696 0.696 0.696h1.53c0.417 0 0.696-0.278 0.696-0.696v-2.922c3.617-0.278 6.261-2.922 6.261-6.4 0-4.452-3.2-5.983-6.261-7.235zM7.374 12.939c-1.53-0.557-2.365-1.67-2.365-3.061 0-1.53 0.974-2.783 2.365-3.061v6.122zM10.157 23.93v-6.539c1.67 0.696 2.643 1.948 2.643 3.2 0 2.365-1.391 3.061-2.643 3.339z"></path>
</svg>
