<svg width="88" height="88" viewBox="0 0 88 88" fill="none"
  xmlns="http://www.w3.org/2000/svg">
  <path d="M22.0073 81.0919L2.52126 31.8315C1.00778 27.9549 2.89963 23.5111 6.77791 21.9983L56.1551 2.52102C60.0334 1.00823 64.4792 2.89922 65.9927 6.77576L85.4787 56.2253C86.9922 60.1019 85.1004 64.5457 81.2221 66.0585L31.8449 85.4412C27.872 87.0485 23.5208 85.063 22.0073 81.0919Z" fill="#D5F4F7"/>
  <path d="M81.5057 46.0139C73.8438 47.6213 65.3304 45.3521 57.8577 48.2831C53.601 49.985 50.1957 53.2943 46.6012 56.0362C42.1553 59.3454 37.2365 60.6691 31.7502 60.8582C25.8854 61.0473 19.8315 60.5746 14.0614 61.0473L15.8587 65.6803C22.9531 65.2075 30.1421 66.3421 37.1419 65.3966C41.1148 64.8293 44.8039 63.4111 48.0201 61.0473C52.1821 58.1163 55.7766 54.3343 60.5062 52.6324C67.7899 50.1741 75.9248 52.3488 83.3976 50.7414L81.5057 46.0139Z" fill="#ACEAEF"/>
  <path d="M36.1015 53.6725C44.331 51.4978 49.3444 43.272 57.0064 40.2464C63.6279 37.599 71.2898 39.3009 77.7221 36.4644L76.0194 31.926C69.0196 35.2353 60.0333 32.8715 53.0335 36.6535C48.966 38.8282 45.6553 42.232 42.0608 45.0684C37.7096 48.3777 32.9799 49.7014 27.5882 49.6068C21.4397 49.5123 15.0074 47.9049 8.85889 47.3376L10.7507 52.2542C19.1695 53.1997 27.8719 55.8471 36.1015 53.6725Z" fill="#ACEAEF"/>
  <path d="M6.77833 42.2318C12.8322 42.2318 19.0753 42.8937 24.9401 42.0427C28.9129 41.4754 32.602 40.0572 35.8182 37.6934C39.9802 34.7624 43.5748 30.9804 48.3044 29.2785C56.5339 26.5366 65.8985 29.6567 73.9389 26.442L72.1416 21.8091C63.7229 24.9292 53.9799 21.5254 45.6558 24.9292C41.3991 26.6311 37.9938 29.9404 34.3993 32.6823C29.9535 35.9916 25.0347 37.3152 19.5483 37.5043C14.6295 37.6934 9.80529 37.3152 4.98108 37.5043L6.77833 42.2318Z" fill="#ACEAEF"/>
  <path d="M48 59.1393C48.9241 58.7314 49.8341 58.143 50.6671 57.3099L61 46.9771" stroke="#210049" stroke-linecap="round" stroke-linejoin="round"/>
  <path d="M49.5723 24.9177L45.0817 29.4082L39.7299 29.5821C38.0261 29.6373 36.5999 28.301 36.5447 26.5972C36.5075 25.4554 37.0954 24.4383 38 23.8749" stroke="#210049"/>
  <path d="M28.278 31.2543L34.9938 37.5473C36.2377 38.7132 36.3011 40.6666 35.1355 41.9104C34.173 42.9375 32.8285 43.465 31.6889 42.9616" stroke="#210049"/>
  <path d="M32.7729 26.9507L40 33.4999C41.2439 34.6658 40.9755 36.5311 39.8099 37.775C38.6442 39.0188 36.6908 39.0823 35.447 37.9168L28.5517 31.4554" stroke="#210049"/>
  <path fill-rule="evenodd" clip-rule="evenodd" d="M48.0829 59.0355L54.8953 65.8479L48.0829 59.0355Z" fill="white"/>
  <path d="M50.9489 30.2618C50.5584 30.6523 50.5584 31.2855 50.9489 31.676C51.3395 32.0665 51.9726 32.0665 52.3631 31.676L50.9489 30.2618ZM54.6769 27.948L55.384 28.6551V28.6551L54.6769 27.948ZM59.2435 27.948L58.5364 28.6551V28.6551L59.2435 27.948ZM59.2568 32.5012L58.5456 31.7982L58.5455 31.7982L59.2568 32.5012ZM56.1511 35.6437L55.4398 34.9408C55.0524 35.3328 55.0552 35.9644 55.4461 36.3529C55.8369 36.7415 56.4685 36.7406 56.8582 36.3509L56.1511 35.6437ZM59.7471 32.0477L60.4542 32.7548H60.4542L59.7471 32.0477ZM63.7028 36.0033L62.9957 35.2962L63.7028 36.0033ZM59.939 38.3529C59.5485 38.7434 59.5485 39.3766 59.939 39.7671C60.3296 40.1576 60.9627 40.1576 61.3533 39.7671L59.939 38.3529ZM66.0402 37.8014L66.7473 37.0943L66.0402 37.8014ZM66.0402 41.9368L66.7473 42.6439L66.0402 41.9368ZM40.2386 59.4675L40.5324 58.5117C40.1785 58.4029 39.7933 58.4986 39.5315 58.7604L40.2386 59.4675ZM33.2384 65.0535C32.8479 65.444 32.8479 66.0772 33.2384 66.4677C33.6289 66.8582 34.2621 66.8582 34.6526 66.4677L33.2384 65.0535ZM48 59.0355L48.7028 58.3242C48.4107 58.0356 47.9719 57.9549 47.5962 58.1207L48 59.0355ZM60.2929 46.2699C59.9024 46.6604 59.9024 47.2936 60.2929 47.6841C60.6834 48.0747 61.3166 48.0747 61.7071 47.6841L60.2929 46.2699ZM54.1925 66.5593C54.5854 66.9474 55.2185 66.9436 55.6067 66.5507C55.9948 66.1578 55.991 65.5247 55.5981 65.1365L54.1925 66.5593ZM52.3631 31.676L55.384 28.6551L53.9698 27.2409L50.9489 30.2618L52.3631 31.676ZM55.384 28.6551C56.2544 27.7847 57.666 27.7847 58.5364 28.6551L59.9506 27.2409C58.2991 25.5895 55.6213 25.5895 53.9698 27.2409L55.384 28.6551ZM58.5364 28.6551C59.4034 29.5222 59.4075 30.9263 58.5456 31.7982L59.968 33.2042C61.6032 31.5498 61.5954 28.8857 59.9506 27.2409L58.5364 28.6551ZM58.5455 31.7982L55.4398 34.9408L56.8624 36.3467L59.9681 33.2041L58.5455 31.7982ZM56.8582 36.3509L60.4542 32.7548L59.04 31.3406L55.444 34.9366L56.8582 36.3509ZM60.4542 32.7548C61.156 32.053 62.2939 32.053 62.9957 32.7548L64.4099 31.3406C62.9271 29.8578 60.5229 29.8578 59.04 31.3406L60.4542 32.7548ZM62.9957 32.7548C63.6974 33.4566 63.6974 34.5945 62.9957 35.2962L64.4099 36.7105C65.8927 35.2276 65.8927 32.8234 64.4099 31.3406L62.9957 32.7548ZM62.9957 35.2962L61.2001 37.0918L62.6143 38.506L64.4099 36.7105L62.9957 35.2962ZM62.6135 38.5068C63.365 37.7571 64.5822 37.7576 65.3331 38.5085L66.7473 37.0943C65.216 35.5629 62.7337 35.5618 61.2009 37.091L62.6135 38.5068ZM65.3331 38.5085C66.0845 39.2599 66.0845 40.4783 65.3331 41.2297L66.7473 42.6439C68.2798 41.1115 68.2798 38.6267 66.7473 37.0943L65.3331 38.5085ZM39.5315 58.7604L33.2384 65.0535L34.6526 66.4677L40.9457 60.1746L39.5315 58.7604ZM47.5962 58.1207C45.9129 58.8637 44.1495 58.9698 42.7758 58.8767C42.0937 58.8305 41.5217 58.7361 41.1238 58.6541C40.9252 58.6133 40.7711 58.5757 40.6696 58.5493C40.6189 58.5361 40.5814 58.5257 40.5582 58.5191C40.5465 58.5158 40.5385 58.5135 40.5342 58.5122C40.532 58.5115 40.5308 58.5112 40.5305 58.5111C40.5303 58.511 40.5304 58.511 40.5307 58.5111C40.5309 58.5112 40.5311 58.5113 40.5314 58.5113C40.5315 58.5114 40.5318 58.5115 40.5319 58.5115C40.5321 58.5116 40.5324 58.5117 40.2386 59.4675C39.9448 60.4234 39.9451 60.4235 39.9454 60.4236C39.9456 60.4236 39.9459 60.4237 39.9462 60.4238C39.9467 60.424 39.9473 60.4242 39.9479 60.4244C39.9492 60.4247 39.9508 60.4252 39.9526 60.4258C39.9561 60.4268 39.9607 60.4282 39.9662 60.4298C39.9772 60.4331 39.9921 60.4374 40.0107 60.4427C40.0479 60.4533 40.1 60.4677 40.1659 60.4849C40.2978 60.5192 40.4854 60.5647 40.7205 60.6131C41.1898 60.7097 41.8526 60.8187 42.6405 60.8721C44.2067 60.9783 46.324 60.8684 48.4038 59.9504L47.5962 58.1207ZM65.3331 41.2297L60.2929 46.2699L61.7071 47.6841L66.7473 42.6439L65.3331 41.2297ZM47.2972 59.7469L54.1925 66.5593L55.5981 65.1365L48.7028 58.3242L47.2972 59.7469ZM61.2001 37.0918L59.939 38.3529L61.3533 39.7671L62.6143 38.506L61.2001 37.0918Z" fill="#210049"/>
  <path fill-rule="evenodd" clip-rule="evenodd" d="M61.1026 46.8265L67.4196 53.1435L61.1026 46.8265Z" fill="white"/>
  <path d="M61.1026 46.8265L67.4196 53.1435" stroke="#210049" stroke-width="2" stroke-linecap="round"/>
  <path d="M49.5 25L48.6005 25.437C48.7419 25.7279 49.0152 25.9325 49.3342 25.9862C49.6532 26.0398 49.9784 25.9358 50.2071 25.7071L49.5 25ZM53.4993 29.1262L52.7921 28.4191V28.4191L53.4993 29.1262ZM20.2634 52.8583C19.8899 53.2651 19.9169 53.8977 20.3237 54.2712C20.7305 54.6447 21.3631 54.6177 21.7366 54.2109L20.2634 52.8583ZM27 47L27.7366 47.6763C28.1044 47.2757 28.0847 46.6546 27.6921 46.2782L27 47ZM26 37.5L25.4597 38.3415C25.8984 38.6232 26.4799 38.5205 26.7957 38.1057C27.1115 37.6909 27.0556 37.1031 26.6673 36.7552L26 37.5ZM22.183 38.1547L22.9127 38.8385L22.9127 38.8385L22.183 38.1547ZM22.3247 42.5176L23.0168 41.7957L23.0085 41.7879L22.3247 42.5176ZM27.3163 31.7297C27.7193 32.1073 28.3521 32.0868 28.7297 31.6837C29.1073 31.2807 29.0868 30.6479 28.6837 30.2703L27.3163 31.7297ZM23.9149 31.396L23.1853 30.7121L23.1852 30.7122L23.9149 31.396ZM24.0568 35.7591L23.3731 36.4888C23.3785 36.4939 23.384 36.4989 23.3895 36.5039L24.0568 35.7591ZM33 27L32.3162 27.7297C32.6248 28.0189 33.082 28.0827 33.458 27.8889C33.834 27.6952 34.0475 27.2859 33.9911 26.8667L33 27ZM28 27L28.7297 27.6838V27.6838L28 27ZM34.0289 23.976L33.2992 23.2922L33.2991 23.2923L34.0289 23.976ZM38 23.5L37.4423 24.33C37.6176 24.4479 37.8258 24.5071 38.0369 24.4993L38 23.5ZM46.6961 23.1789L46.6637 22.1794L46.6593 22.1796L46.6961 23.1789ZM50.2071 25.7071C50.8969 25.0173 52.0277 25.0234 52.7921 25.7878L54.2064 24.3736C52.7366 22.9038 50.3373 22.7485 48.7929 24.2929L50.2071 25.7071ZM52.7921 25.7878C53.5187 26.5144 53.5187 27.6925 52.7921 28.4191L54.2064 29.8333C55.714 28.3257 55.714 25.8812 54.2064 24.3736L52.7921 25.7878ZM52.7921 28.4191L51.129 30.0823L52.5432 31.4965L54.2064 29.8333L52.7921 28.4191ZM21.7366 54.2109L27.7366 47.6763L26.2634 46.3237L20.2634 52.8583L21.7366 54.2109ZM26 37.5C26.5403 36.6585 26.5398 36.6582 26.5394 36.6579C26.5392 36.6578 26.5387 36.6575 26.5384 36.6573C26.5377 36.6569 26.537 36.6564 26.5363 36.656C26.5348 36.655 26.5332 36.654 26.5315 36.6529C26.528 36.6508 26.5241 36.6483 26.5196 36.6455C26.5106 36.6399 26.4995 36.6332 26.4864 36.6255C26.4603 36.61 26.4261 36.5904 26.3843 36.5679C26.3008 36.5231 26.186 36.4659 26.0442 36.4068C25.7632 36.2895 25.3618 36.1582 24.8805 36.1061C23.8774 35.9975 22.6005 36.2468 21.4534 37.4709L22.9127 38.8385C23.5825 38.1237 24.2142 38.0456 24.6653 38.0945C24.9111 38.1211 25.1233 38.1896 25.274 38.2525C25.3481 38.2834 25.4037 38.3115 25.4368 38.3293C25.4532 38.3381 25.4637 38.3442 25.4678 38.3466C25.4698 38.3478 25.4702 38.3481 25.4689 38.3473C25.4682 38.3469 25.4671 38.3462 25.4656 38.3452C25.4648 38.3447 25.464 38.3442 25.463 38.3436C25.4625 38.3433 25.462 38.3429 25.4614 38.3426C25.4611 38.3424 25.4607 38.3421 25.4606 38.342C25.4601 38.3418 25.4597 38.3415 26 37.5ZM21.4534 37.4709C19.9101 39.1178 19.994 41.7042 21.641 43.2473L23.0085 41.7879C22.1676 41.0001 22.1247 39.6794 22.9127 38.8385L21.4534 37.4709ZM21.6327 43.2394L26.3079 47.7218L27.6921 46.2782L23.0168 41.7958L21.6327 43.2394ZM28.6837 30.2703C27.847 29.4862 26.8222 29.176 25.8052 29.302C24.8118 29.4251 23.8972 29.9526 23.1853 30.7121L24.6446 32.0798C25.0985 31.5955 25.6045 31.3422 26.0511 31.2868C26.4741 31.2344 26.909 31.3481 27.3163 31.7297L28.6837 30.2703ZM23.1852 30.7122C21.642 32.3593 21.726 34.9455 23.3731 36.4888L24.7406 35.0293C23.8995 34.2413 23.8566 32.9208 24.6447 32.0797L23.1852 30.7122ZM23.3895 36.5039L25.3327 38.2448L26.6673 36.7552L24.7241 35.0143L23.3895 36.5039ZM33.6838 26.2703C32.8335 25.4734 31.6097 25.1081 30.481 25.0965C29.3565 25.0849 28.106 25.4245 27.2703 26.3162L28.7297 27.6838C29.0597 27.3316 29.6872 27.0884 30.4604 27.0964C31.2293 27.1043 31.9227 27.3609 32.3162 27.7297L33.6838 26.2703ZM27.2703 26.3162C26.0697 27.5974 25.5573 30.0816 27.3163 31.7297L28.6837 30.2703C27.9546 29.5871 28.056 28.4026 28.7297 27.6838L27.2703 26.3162ZM33.2991 23.2923C32.8417 23.7804 32.4941 24.4548 32.2755 25.0971C32.059 25.733 31.9209 26.4786 32.0089 27.1333L33.9911 26.8667C33.9598 26.6338 34.006 26.2196 34.1688 25.7416C34.3294 25.2699 34.5559 24.8761 34.7586 24.6597L33.2991 23.2923ZM38.5577 22.67C36.9122 21.5643 34.68 21.8189 33.2992 23.2922L34.7585 24.6598C35.4766 23.8936 36.6201 23.7776 37.4423 24.33L38.5577 22.67ZM46.6593 22.1796L37.9631 22.5007L38.0369 24.4993L46.733 24.1783L46.6593 22.1796ZM50.3995 24.563C49.7519 23.2301 48.4003 22.123 46.6637 22.1795L46.7286 24.1784C47.5049 24.1532 48.2161 24.6457 48.6005 25.437L50.3995 24.563Z" fill="#210049"/>
  <path d="M26 37.5L31.0381 42.2222C32.282 43.388 32.3455 45.3414 31.1798 46.5853C30.0141 47.8291 28.0608 47.8926 26.8169 46.7271" stroke="#210049"/>
  <path d="M40 33.5C41.2441 34.6655 42.6002 34.3441 43.7657 33.1002C44.7321 32.0689 44.8538 30.5499 44.1582 29.3965" stroke="#210049"/>
</svg>
