<svg width="88" height="88" viewBox="0 0 88 88" fill="none"
  xmlns="http://www.w3.org/2000/svg">
  <path d="M22.0073 81.0919L2.52126 31.8315C1.00778 27.9549 2.89963 23.5111 6.77791 21.9983L56.1551 2.52102C60.0334 1.00823 64.4792 2.89922 65.9927 6.77576L85.4787 56.2253C86.9922 60.1019 85.1004 64.5457 81.2221 66.0585L31.8449 85.4412C27.872 87.0485 23.5208 85.063 22.0073 81.0919Z" fill="#D5F4F7"/>
  <path d="M81.5057 46.0139C73.8438 47.6213 65.3304 45.3521 57.8577 48.2831C53.601 49.985 50.1957 53.2943 46.6012 56.0362C42.1553 59.3454 37.2365 60.6691 31.7502 60.8582C25.8854 61.0473 19.8315 60.5746 14.0614 61.0473L15.8587 65.6803C22.9531 65.2075 30.1421 66.3421 37.1419 65.3966C41.1148 64.8293 44.8039 63.4111 48.0201 61.0473C52.1821 58.1163 55.7766 54.3343 60.5062 52.6324C67.7899 50.1741 75.9248 52.3488 83.3976 50.7414L81.5057 46.0139Z" fill="#ACEAEF"/>
  <path d="M36.1015 53.6725C44.331 51.4978 49.3444 43.272 57.0064 40.2464C63.6279 37.599 71.2898 39.3009 77.7221 36.4644L76.0194 31.926C69.0196 35.2353 60.0333 32.8715 53.0335 36.6535C48.966 38.8282 45.6553 42.232 42.0608 45.0684C37.7096 48.3777 32.9799 49.7014 27.5882 49.6068C21.4397 49.5123 15.0074 47.9049 8.85889 47.3376L10.7507 52.2542C19.1695 53.1997 27.8719 55.8471 36.1015 53.6725Z" fill="#ACEAEF"/>
  <path d="M6.77833 42.2318C12.8322 42.2318 19.0753 42.8937 24.9401 42.0427C28.9129 41.4754 32.602 40.0572 35.8182 37.6934C39.9802 34.7624 43.5748 30.9804 48.3044 29.2785C56.5339 26.5366 65.8985 29.6567 73.9389 26.442L72.1416 21.8091C63.7229 24.9292 53.9799 21.5254 45.6558 24.9292C41.3991 26.6311 37.9938 29.9404 34.3993 32.6823C29.9535 35.9916 25.0347 37.3152 19.5483 37.5043C14.6295 37.6934 9.80529 37.3152 4.98108 37.5043L6.77833 42.2318Z" fill="#ACEAEF"/>
  <path d="M53.8125 14H33.1875C29.7702 14 27 16.6863 27 20V68C27 71.3137 29.7702 74 33.1875 74H53.8125C57.2298 74 60 71.3137 60 68V20C60 16.6863 57.2298 14 53.8125 14Z" stroke="#210049" stroke-width="2" stroke-linecap="round" stroke-linejoin="round"/>
  <path d="M33 14H36.15C36.4285 14 36.6955 14.1054 36.8925 14.2929C37.0894 14.4804 37.2 14.7348 37.2 15C37.2 15.5304 37.4212 16.0391 37.8151 16.4142C38.2089 16.7893 38.743 17 39.3 17H47.7C48.257 17 48.7911 16.7893 49.1849 16.4142C49.5788 16.0391 49.8 15.5304 49.8 15C49.8 14.7348 49.9106 14.4804 50.1075 14.2929C50.3044 14.1054 50.5715 14 50.85 14H54" stroke="#210049" stroke-linecap="round" stroke-linejoin="round"/>
  <path d="M50.8437 39.875C50.7064 41.7814 49.2922 43.25 47.75 43.25C46.2078 43.25 44.7912 41.7819 44.6562 39.875C44.5156 37.8917 45.8923 36.5 47.75 36.5C49.6076 36.5 50.9844 37.9278 50.8437 39.875Z" stroke="#210049" stroke-width="1.5" stroke-linecap="round" stroke-linejoin="round"/>
  <path d="M47.7501 46.25C44.6952 46.25 41.7576 47.7673 41.0216 50.7223C40.9241 51.1133 41.1693 51.5 41.571 51.5H53.9296C54.3313 51.5 54.5751 51.1133 54.479 50.7223C53.743 47.72 50.8054 46.25 47.7501 46.25Z" stroke="#210049" stroke-width="1.5" stroke-miterlimit="10"/>
  <path d="M41.375 40.7159C41.2653 42.2384 40.1225 43.4375 38.8906 43.4375C37.6587 43.4375 36.514 42.2389 36.4062 40.7159C36.2942 39.132 37.4065 38 38.8906 38C40.3746 38 41.487 39.1611 41.375 40.7159Z" stroke="#210049" stroke-width="1.5" stroke-linecap="round" stroke-linejoin="round"/>
  <path d="M41.6562 46.3439C40.8101 45.9563 39.8783 45.8072 38.8906 45.8072C36.4531 45.8072 34.1047 47.0189 33.5164 49.3791C33.439 49.6913 33.635 50.0002 33.9556 50.0002H39.2187" stroke="#210049" stroke-width="1.5" stroke-miterlimit="10" stroke-linecap="round"/>
</svg>
