<svg  viewBox="30 55 296 245" fill="none" xmlns="http://www.w3.org/2000/svg">
<path d="M194.965 56.9919C168.396 53.8587 151.545 76.4444 133.02 95.6764C112.251 117.159 92.13 122.953 68.6639 139.288C45.1979 155.624 31.4614 176.663 35.5581 205.457C39.3811 233.165 60.0584 255.536 85.6465 258.333C108.797 260.834 133.354 248.719 156.168 252.202C190.328 257.427 214.147 296.351 249.363 291.707C271.752 288.764 290.738 268.669 304.107 247.518C313.636 232.307 321.539 215.441 323.349 197.898C325.159 180.355 320.023 162.037 307.375 152.922C289.765 140.181 261.276 146.456 248.362 127.994C242.409 119.417 241.587 107.537 238.492 96.9351C232.424 75.7286 215.563 59.4441 194.965 56.9919Z" fill="#D9F5EC"/>
<g style="mix-blend-mode:multiply">
<path d="M136.712 63.5259C111.846 73.3958 107.753 101.276 100.593 127.001C92.5286 155.773 77.5784 170.433 64.6948 195.958C51.8112 221.483 49.7238 246.523 67.0121 269.91C83.5436 292.473 112.368 302.329 136.211 292.63C157.769 283.829 173.619 261.499 195.347 253.721C227.886 242.085 267.341 265.012 296.12 244.191C314.42 230.961 321.575 204.257 323.286 179.294C324.441 161.382 323.38 142.787 316.635 126.491C309.891 110.196 296.667 96.5192 281.206 94.5097C259.657 91.6688 237.572 110.728 217.436 100.622C208.123 95.9044 201.753 85.8422 193.992 77.985C178.575 62.2099 156.001 55.8946 136.712 63.5259Z" fill="#ECFAF6"/>
</g>
<path d="M116.6 192.5L111 178.3L128.9 173L133.8 186.3L123.8 202L116.6 192.5Z" fill="#C4C4C4"/>
<path d="M137.9 199L141.1 208.7L134.2 212L130 203.2L137.9 199Z" fill="#C4C4C4"/>
<path d="M181.863 185.813C181.863 185.813 155.742 191.937 153.445 226.766L159.856 231.55L165.31 264.752C165.31 264.752 187.413 270.397 219.467 263.795L181.863 185.813Z" fill="#B4C8FF"/>
<path d="M182.628 183.996C182.628 183.996 192.961 194.999 206.357 179.403C206.357 179.403 207.697 177.968 208.749 179.69C209.802 181.412 212.576 181.699 212.576 181.699C212.576 181.699 246.831 195.573 242.047 237.483C237.263 279.392 194.301 259.107 194.301 259.107C194.301 259.107 177.652 250.687 167.031 219.781L177.078 211.84L182.628 183.996Z" fill="#B4C8FF"/>
<path d="M194.301 259.107C194.301 259.107 177.652 250.687 167.031 219.781" stroke="#6838ED" stroke-miterlimit="10"/>
<path d="M216.021 242.171C216.021 242.171 210.567 234.708 201.19 230.785C191.909 226.957 177.078 211.648 177.078 211.648" stroke="#6838ED" stroke-miterlimit="10"/>
<path d="M216.022 210.404C216.022 210.404 219.18 225.618 210.377 236.143" stroke="#6838ED" stroke-miterlimit="10"/>
<path d="M176.026 212.413C176.026 212.413 169.902 199.113 168.18 197.295C166.554 195.573 163.205 194.329 163.205 194.329L150.096 190.502C149.235 190.215 148.374 190.693 148.087 191.554C147.895 192.32 148.182 193.181 148.948 193.468L159.569 198.444C159.569 198.444 157.464 200.931 158.42 202.175C158.42 202.175 156.315 203.036 156.698 204.567C156.698 204.567 154.689 206.768 155.933 208.203C155.933 208.203 154.21 210.117 156.124 210.882C158.229 211.744 166.936 216.241 167.893 218.728L176.026 212.413Z" fill="white"/>
<path d="M165.31 264.752C165.31 264.752 138.71 262.934 122.348 214.71L114.885 197.678C114.885 197.678 111.057 192.894 114.311 187.44L115.842 190.98L124.549 177.393C125.314 176.245 126.845 175.958 127.993 176.915C128.855 177.585 129.046 178.733 128.567 179.69L121.965 192.32C122.922 191.172 129.907 183.421 133.543 185.622C137.466 188.11 139.954 195.573 136.222 202.941C132.491 210.308 140.815 216.719 140.815 216.719L153.445 226.766L159.856 231.55L165.31 264.752Z" fill="white"/>
<path d="M122 214.5L128.5 208.75L135 203" stroke="#6838ED"/>
<path d="M122.348 214.71C138.709 262.934 165.309 264.752 165.309 264.752L159.855 231.55L153.445 226.766L140.815 216.719C140.815 216.719 132.49 210.309 136.222 202.941L122.348 214.71Z" fill="#B4C8FF"/>
<path d="M206.357 179.307C206.357 179.307 201.669 172.131 200.425 165.624C200.425 165.624 195.928 152.803 194.301 151.655C192.675 150.506 187.125 144 175.834 144C175.834 144 169.902 149.932 171.337 154.908C172.677 159.979 171.72 160.936 172.198 163.615C172.677 166.294 177.748 178.733 183.68 176.724C183.68 176.724 186.36 180.073 183.68 184.665C183.585 184.57 193.727 194.425 206.357 179.307Z" stroke="#6838ED" stroke-miterlimit="10"/>
<path d="M216.975 131.729C212.362 135.534 205.443 134.87 201.595 130.135C197.707 125.483 198.31 118.586 202.923 114.781C207.598 110.955 214.456 111.64 218.365 116.354C222.191 121.028 221.589 127.925 216.975 131.729Z" fill="#210049"/>
<path d="M210.021 132.87C209.515 137.941 205.062 141.619 200.013 141.174C194.941 140.668 191.264 136.215 191.709 131.166C192.153 126.116 196.645 122.356 201.717 122.861C206.788 123.367 210.466 127.82 210.021 132.87Z" fill="white"/>
<path d="M162.654 177.211C163.813 168.047 164.44 155.701 163.674 150.539C163.477 149.233 163.674 150.539 163.674 150.539L178.255 140.029C178.255 140.029 186.926 159.613 189.234 173.031L199.023 170.59L193.69 142.155L187.88 121.535C213.387 121.048 222.78 149.666 222.78 149.666C228.2 168.637 229.194 177.091 217.897 181.455C217.897 181.455 217.715 181.521 217.471 181.609C216.984 181.785 216.497 181.961 215.949 182.16C215.075 182.407 214.261 182.633 213.509 182.836C206.84 184.768 193.244 188.105 178.313 188.895C178.108 188.9 177.843 188.928 177.638 188.933C177.577 188.955 177.433 188.938 177.373 188.96C169.717 189.114 161.569 185.247 162.654 177.211Z" fill="#210049"/>
<path d="M163.674 150.539C165.794 164.576 178.291 171.139 192.654 168.97C207.017 166.801 215.91 157.317 213.729 143.302C211.588 129.205 198.199 119.797 183.831 121.761C164.035 124.519 161.533 136.441 163.674 150.539Z" fill="#210049"/>
<path d="M182.881 168.031C183.543 173.094 184.143 178.178 184.805 183.241C185.062 185.282 185.119 187.534 185.581 189.57C186.609 193.742 191.318 196.1 195.667 195.559C199.894 195.062 205.133 190.894 205.449 186.442C205.704 182.769 204.073 178.264 203.448 174.634C202.302 168.232 201.178 161.892 200.031 155.49L182.881 168.031Z" fill="white"/>
<path d="M189.036 178.954C179.708 180.196 171.039 173.556 169.795 165.743L166.886 147.241C165.264 137.431 171.479 128.159 180.913 126.259C190.613 124.332 201.666 130.522 203.62 140.488L205.783 155.404C207.53 166.89 200.08 176.747 189.036 178.954Z" fill="white"/>
<path d="M178.993 159.385L178.953 164.22L181.282 163.997" stroke="#210049" stroke-width="0.992989" stroke-miterlimit="10" stroke-linecap="round" stroke-linejoin="round"/>
<path d="M194.931 140.259C195.112 140.951 196.339 152.901 203.608 156.054C207.853 157.892 210.555 141.766 210.555 141.766L194.931 140.259Z" fill="#210049"/>
<path d="M212.703 155.31C213.296 158.469 211.366 161.508 208.29 162.14C205.213 162.771 202.252 160.676 201.598 157.538C201.005 154.379 202.935 151.34 206.012 150.708C209.088 150.077 212.05 152.172 212.703 155.31Z" fill="white"/>
<path d="M165.757 133.467C165.757 133.467 175.862 152.256 203.184 144.227C203.184 144.227 211.406 146.209 208.845 138.942C206.284 131.675 190.98 122.685 190.98 122.685L178.066 125.431L165.757 133.467Z" fill="#210049"/>
<path d="M178.9 129.26C178.9 129.26 165.001 135.185 166.886 147.242L164.303 139.914L167.989 131.075L169.973 128.566L175.11 126.018L178.9 129.26Z" fill="#210049"/>
<path d="M185.919 154.525C185.794 153.424 186.574 152.431 187.661 152.308C188.748 152.186 189.73 152.979 189.854 154.08" stroke="#210049" stroke-linecap="round"/>
<path d="M169.983 157.359C169.883 156.255 170.737 155.276 171.891 155.172C173.044 155.067 174.059 155.878 174.159 156.982" stroke="#210049" stroke-linecap="round"/>
<path d="M203.745 168.605C204.51 174.525 201.392 180.749 196.243 183.645C199.075 183.86 201.985 183.151 204.361 181.533C203.267 184.408 200.675 186.379 198.222 188.162C204.82 189.079 211.186 185.742 217.065 182.582C218.4 181.892 219.712 181.142 220.792 180.131C223.911 177.143 224.162 171.75 221.396 168.483" fill="#210049"/>
<path d="M183.742 179.356C184.234 179.384 184.809 179.452 185.302 179.48C187.31 179.511 189.268 179.215 191.155 178.532" stroke="#210049" stroke-width="0.992989" stroke-miterlimit="10" stroke-linecap="round" stroke-linejoin="round"/>
<path d="M193.905 163.981C192.053 164.148 190.474 163.418 190.377 162.35C190.28 161.281 191.703 160.279 193.555 160.112C195.407 159.945 196.986 160.675 197.083 161.744C197.18 162.812 195.757 163.814 193.905 163.981Z" fill="#FFD5E3"/>
<path d="M170.142 167.271C172.001 167.08 173.369 166.103 173.321 165.019C173.272 163.935 171.636 163.219 169.838 163.388C169.716 163.432 169.573 163.415 169.512 163.437" fill="#FFD5E3"/>
<path d="M207.229 193.79C207.302 193.716 207.375 193.643 207.449 193.569C208.769 192.243 209.356 190.474 209.429 188.632C209.502 187.38 208.622 185.906 209.722 184.875C211.116 183.622 214.563 184.211 216.323 183.622C218.377 182.959 220.357 182.001 222.557 182.001C227.031 181.927 231.798 186.274 234.659 189.295C236.639 191.432 238.472 193.716 239.939 196.222C240.599 197.253 241.186 198.358 241.553 199.537C243.166 204.621 240.306 210 234.732 210C227.618 210 222.557 204.695 215.37 204.99C210.089 205.211 202.315 209.926 203.048 200.79C203.195 199.316 203.342 197.843 204.148 196.59C204.955 195.485 206.202 194.748 207.229 193.79Z" fill="#4376FF"/>
<path d="M183.199 214.843C183.932 213.377 183.859 211.251 183.492 209.638C183.126 208.026 182.613 206.486 182.613 204.873C182.613 202.454 183.859 200.182 184.739 197.909C185.032 197.249 185.105 196.296 184.519 196.003" stroke="#4376FF" stroke-width="1.8" stroke-miterlimit="10" stroke-linecap="round" stroke-linejoin="round"/>
<path d="M183.199 217.629C181.985 217.629 181 216.644 181 215.43C181 214.215 181.985 213.23 183.199 213.23C184.414 213.23 185.398 214.215 185.398 215.43C185.398 216.644 184.414 217.629 183.199 217.629Z" fill="#4376FF"/>
<path d="M183 189C183 191.679 183.36 194.516 184.873 196.643C186.169 198.455 188.114 199.48 190.13 200.189C196.324 202.316 203.31 199.952 209 196.643" stroke="#4376FF" stroke-width="1.8" stroke-miterlimit="10" stroke-linecap="round" stroke-linejoin="round"/>
<path d="M196.746 201C196.29 204.798 197.774 208.883 196.404 212.322C196.233 212.752 195.947 213.182 195.605 213.182C195.091 213.111 194.92 212.251 195.034 211.606C195.433 211.463 195.89 211.821 196.118 212.322C197.374 214.831 196.746 220.205 196.461 223" stroke="#4376FF" stroke-width="1.8" stroke-miterlimit="10" stroke-linecap="round" stroke-linejoin="round"/>
<path d="M120.5 103C120.5 102.724 120.276 102.5 120 102.5C119.724 102.5 119.5 102.724 119.5 103H120.5ZM119.5 103V106.122H120.5V103H119.5ZM119.5 112.367V115.49H120.5V112.367H119.5Z" fill="#2FCAD7"/>
<path d="M120.5 162.51C120.5 162.234 120.276 162.01 120 162.01C119.724 162.01 119.5 162.234 119.5 162.51H120.5ZM119.5 162.51V165.633H120.5V162.51H119.5ZM119.5 171.878V175H120.5V171.878H119.5Z" fill="#2FCAD7"/>
<path d="M84 138.5C83.7239 138.5 83.5 138.724 83.5 139C83.5 139.276 83.7239 139.5 84 139.5L84 138.5ZM84 139.5L87.1224 139.5L87.1224 138.5L84 138.5L84 139.5ZM93.3673 139.5L96.4898 139.5L96.4898 138.5L93.3673 138.5L93.3673 139.5Z" fill="#2FCAD7"/>
<path d="M143.51 138.5C143.234 138.5 143.01 138.724 143.01 139C143.01 139.276 143.234 139.5 143.51 139.5L143.51 138.5ZM143.51 139.5L146.632 139.5L146.632 138.5L143.51 138.5L143.51 139.5ZM152.877 139.5L156 139.5L156 138.5L152.877 138.5L152.877 139.5Z" fill="#2FCAD7"/>
<path d="M94.8985 113.19C94.7032 112.995 94.3866 112.995 94.1914 113.19C93.9961 113.386 93.9961 113.702 94.1914 113.897L94.8985 113.19ZM94.1914 113.897L96.3993 116.105L97.1064 115.398L94.8985 113.19L94.1914 113.897ZM100.815 120.521L103.023 122.729L103.73 122.022L101.522 119.814L100.815 120.521Z" fill="#2FCAD7"/>
<path d="M136.977 155.27C136.781 155.075 136.465 155.075 136.269 155.27C136.074 155.466 136.074 155.782 136.269 155.978L136.977 155.27ZM136.269 155.978L138.477 158.185L139.185 157.478L136.977 155.27L136.269 155.978ZM142.893 162.601L145.101 164.809L145.808 164.102L143.6 161.894L142.893 162.601Z" fill="#2FCAD7"/>
<path d="M145.809 113.897C146.004 113.702 146.004 113.386 145.809 113.19C145.613 112.995 145.297 112.995 145.102 113.19L145.809 113.897ZM145.102 113.19L142.894 115.398L143.601 116.105L145.809 113.897L145.102 113.19ZM138.478 119.814L136.27 122.022L136.977 122.729L139.185 120.521L138.478 119.814Z" fill="#2FCAD7"/>
<path d="M103.731 155.978C103.926 155.782 103.926 155.466 103.731 155.27C103.535 155.075 103.219 155.075 103.023 155.27L103.731 155.978ZM103.023 155.27L100.815 157.478L101.523 158.185L103.731 155.978L103.023 155.27ZM96.3997 161.894L94.1918 164.102L94.8989 164.809L97.1068 162.601L96.3997 161.894Z" fill="#2FCAD7"/>
<path d="M180.5 167.5C183.333 167.5 187 167.2 189 164C189.5 166.333 189.3 171.1 184.5 171.5" stroke="#210049" stroke-linecap="round" stroke-linejoin="round"/>
<path d="M184.5 171.5C185 170.5 185.5 168.5 189.001 168" stroke="#210049"/>
<path d="M115.5 152.5H124.5" stroke="#210049" stroke-width="1.5" stroke-linecap="round" stroke-linejoin="round"/>
<path d="M129 135.625V137.875C129 142.825 124.95 146.875 120 146.875C115.05 146.875 111 142.825 111 137.875V135.625" stroke="#210049" stroke-width="1.5" stroke-linecap="round" stroke-linejoin="round"/>
<path d="M120 146.875V152.5" stroke="#210049" stroke-width="1.5" stroke-linecap="round" stroke-linejoin="round"/>
<path d="M120 125.5C119.408 125.497 118.822 125.611 118.274 125.837C117.727 126.062 117.23 126.393 116.811 126.811C116.393 127.23 116.062 127.727 115.837 128.274C115.611 128.822 115.497 129.408 115.5 130V137.805C115.5 140.28 117.539 142.375 120 142.375C122.461 142.375 124.5 140.336 124.5 137.805V130C124.5 127.469 122.531 125.5 120 125.5Z" stroke="#210049" stroke-width="1.5" stroke-linecap="round" stroke-linejoin="round"/>
</svg>
