<svg width="149" height="64" viewBox="0 0 149 64" fill="none" xmlns="http://www.w3.org/2000/svg">
<path d="M148.4 0H0.400024V64H148.4V0Z" fill="#F9D641"/>
<mask id="mask0" mask-type="alpha" maskUnits="userSpaceOnUse" x="0" y="0" width="149" height="64">
<path d="M148.4 0H0.400024V64H148.4V0Z" fill="#F7D556"/>
</mask>
<g mask="url(#mask0)">
<path d="M4.10002 24.3C7.20002 22 11 20.7 14.9 20.7C18 20.6 18.1 15.8 15 15.9C9.80002 16 5.00002 17.7 0.800016 20.8C-1.69998 22.6 1.60002 26.1 4.10002 24.3Z" fill="#EDC70A"/>
<path d="M7.10002 37.6C15.2 35 21.8 30.3 27.1 23.7C29 21.3 24.9 18.7 23 21.1C18.6 26.6 12.8 30.7 6.00002 32.9C3.10002 33.8 4.20002 38.5 7.10002 37.6Z" fill="#EDC70A"/>
<path d="M45.9 19.1C51.9 18.3 57.7 19.6 62.9 22.7C65.6 24.3 68.1 20.2 65.4 18.6C59 14.8 52 13.5 44.7 14.4C41.6 14.8 42.8 19.5 45.9 19.1Z" fill="#EDC70A"/>
<path d="M66.5 35C74.2 32.6 81.7 28.4 82.5 19.6C82.8 16.5 77.9 16.4 77.7 19.4C77.1 25.8 70.8 28.6 65.4 30.3C62.4 31.2 63.5 35.9 66.5 35Z" fill="#EDC70A"/>
<path d="M76.7 47.7C80.9 49 84.3 51.4 87 54.9C88.9 57.4 92.5 54.1 90.5 51.6C87.3 47.5 83 44.6 78 43C75 42.2 73.7 46.8 76.7 47.7Z" fill="#EDC70A"/>
<path d="M3.70002 63.1C9.90002 64.6 16.2 63.2 21.2 59.3C23.6 57.4 20.3 53.8 17.9 55.7C14.3 58.5 9.60002 59.5 5.10002 58.4C2.00002 57.7 0.60002 62.3 3.70002 63.1Z" fill="#EDC70A"/>
<path d="M50.5 67.2C58.5 68.3 68.6 67.8 71.5 58.7C72.4 55.7 67.8 54.3 66.8 57.3C64.7 64 56.1 63.1 50.6 62.4C47.5 62 47.4 66.8 50.5 67.2Z" fill="#EDC70A"/>
<path d="M31.3 48.2C37.3 48.8 43 50.5 48.3 53.4C51 54.9 53.6 50.8 50.8 49.3C44.7 46 38.3 44 31.4 43.3C28.3 43 28.2 47.9 31.3 48.2Z" fill="#EDC70A"/>
<path d="M42.2 34.8C43.8 32.2 39.7 29.6 38.1 32.2C36.4 34.8 40.6 37.4 42.2 34.8Z" fill="#EDC70A"/>
<path d="M33.5 69C35.1 66.4 31 63.8 29.4 66.4C27.7 69.1 31.8 71.7 33.5 69Z" fill="#EDC70A"/>
<path d="M17.7 48.4C19.3 45.8 15.2 43.2 13.6 45.8C11.9 48.5 16 51.1 17.7 48.4Z" fill="#EDC70A"/>
<path d="M64.9 46.1C64.8 46 64.6 45.9 64.5 45.8C63.4 45.1 61.8 45.4 61.2 46.6C60.6 47.7 60.8 49.2 62 49.9C62.1 50 62.3 50.1 62.4 50.2C63.5 50.9 65.1 50.6 65.7 49.4C66.4 48.3 66.1 46.8 64.9 46.1Z" fill="#EDC70A"/>
</g>
</svg>
