<svg width="149" height="64" viewBox="0 0 149 64" fill="none" xmlns="http://www.w3.org/2000/svg">
<path d="M148.4 0H0.400024V64H148.4V0Z" fill="#4F3386"/>
<mask id="mask0" mask-type="alpha" maskUnits="userSpaceOnUse" x="0" y="0" width="149" height="64">
<path d="M148.4 0H0.400024V64H148.4V0Z" fill="#4F3386"/>
</mask>
<g mask="url(#mask0)">
<g opacity="0.7">
<g opacity="0.7">
<path opacity="0.7" d="M-1.9 4.80001C-0.299999 6.60001 2.5 4.10001 0.900004 2.30001C-0.599996 0.40001 -3.5 3.00001 -1.9 4.80001Z" fill="#7551CC"/>
</g>
<path opacity="0.7" d="M68.9 8.89995C68.1 13.5 65.9 17.6 62.5 20.8C60.7 22.5 63.2 25.3 65 23.6C69.2 19.7 71.8 14.7 72.7 9.09997C73.1 6.69997 69.3 6.49995 68.9 8.89995Z" fill="#7551CC"/>
<path opacity="0.7" d="M52.5 20.8C52.5 27.1 54 33.6 60.5 36.2C62.7 37.1 63.9 33.5 61.7 32.6C57 30.8 56.3 25.4 56.3 21C56.2 18.6 52.5 18.4 52.5 20.8Z" fill="#7551CC"/>
<path opacity="0.7" d="M40.7 25.5C38.8 28.3 36.2 30.3 33.1 31.6C30.8 32.5 32.5 35.9 34.7 35C38.5 33.5 41.6 30.9 43.9 27.6C45.3 25.6 42.1 23.5 40.7 25.5Z" fill="#7551CC"/>
<path opacity="0.7" d="M32 1.70004C29.4 7.50004 27.5 15.1 33.7 19.3C35.7 20.6 37.8 17.5 35.8 16.1C31.2 13 33.8 6.79999 35.6 2.89999C36.6 0.599993 33 -0.499959 32 1.70004Z" fill="#7551CC"/>
<path opacity="0.7" d="M50.5 -8.40001C48.7 -4.00001 46.2 -0.200015 42.8 3.09999C41.1 4.79998 43.5 7.59997 45.3 5.89997C49.1 2.09997 52 -2.3 54.1 -7.2C55 -9.5 51.4 -10.6 50.5 -8.40001Z" fill="#7551CC"/>
<g opacity="0.7">
<path opacity="0.7" d="M58.1 2.70004C59.7 4.50004 62.5 2.00004 60.9 0.200039C59.3 -1.59996 56.4 0.900039 58.1 2.70004Z" fill="#7551CC"/>
</g>
<path opacity="0.7" d="M15.9 26.5C16 26.4 16.1 26.3 16.2 26.2C16.9 25.5 17.1 24.3 16.4 23.5C15.7 22.8 14.5 22.5999 13.7 23.3999C13.6 23.4999 13.5 23.6 13.4 23.7C12.7 24.4 12.5 25.5999 13.2 26.3999C14 27.0999 15.2 27.2 15.9 26.5Z" fill="#7551CC"/>
<path opacity="0.7" d="M15.7 9.20004C19 7.00004 22.2 4.80001 25.5 2.60001C27.5 1.20001 25 -1.59998 23 -0.199982C19.7 2.00002 16.5 4.19999 13.2 6.39999C11.2 7.79999 13.7 10.6 15.7 9.20004Z" fill="#7551CC"/>
<path opacity="0.7" d="M44.6 17.2C44.7 17.1 44.8 16.9999 44.9 16.8999C45.6 16.1999 45.8 15 45.1 14.2C44.4 13.5 43.2 13.3 42.4 14.1C42.3 14.2 42.2 14.2999 42.1 14.3999C41.4 15.0999 41.2 16.3 41.9 17.1C42.6 17.8 43.8 17.9 44.6 17.2Z" fill="#7551CC"/>
</g>
<g opacity="0.7">
<g opacity="0.7">
<path opacity="0.7" d="M76.3 2.30001C77.9 4.10001 80.7 1.60001 79.1 -0.199985C77.5 -1.99998 74.6 0.500015 76.3 2.30001Z" fill="#7551CC"/>
</g>
<path opacity="0.7" d="M147 6.49999C146.2 11.1 144 15.2 140.6 18.4C138.8 20.1 141.3 22.9 143.1 21.2C147.3 17.3 149.9 12.3 150.8 6.7C151.2 4.3 147.4 4.09999 147 6.49999Z" fill="#7551CC"/>
<path opacity="0.7" d="M130.6 18.4C130.6 24.7 132.1 31.2 138.6 33.8C140.8 34.7 142 31.1 139.8 30.2C135.1 28.4 134.4 23 134.4 18.6C134.4 16.2 130.6 16 130.6 18.4Z" fill="#7551CC"/>
<path opacity="0.7" d="M118.9 23.1C117 25.9 114.4 27.9 111.3 29.2C109 30.1 110.7 33.5 112.9 32.6C116.7 31.1 119.8 28.5 122.1 25.2C123.4 23.1 120.2 21.1 118.9 23.1Z" fill="#7551CC"/>
<path opacity="0.7" d="M110.1 -0.700003C107.5 5.1 105.6 12.7 111.8 16.9C113.8 18.2 115.9 15.1 113.9 13.7C109.3 10.6 111.9 4.40001 113.7 0.50001C114.7 -1.79999 111.1 -2.9 110.1 -0.700003Z" fill="#7551CC"/>
<path opacity="0.7" d="M128.6 -10.8C126.8 -6.39998 124.3 -2.59998 120.9 0.700024C119.2 2.40002 121.6 5.20001 123.4 3.50001C127.2 -0.299989 130.1 -4.70002 132.2 -9.60002C133.1 -11.9 129.5 -13.1 128.6 -10.8Z" fill="#7551CC"/>
<g opacity="0.7">
<path opacity="0.7" d="M136.2 0.300015C137.8 2.10001 140.6 -0.399985 139 -2.19998C137.4 -3.99998 134.6 -1.49998 136.2 0.300015Z" fill="#7551CC"/>
</g>
<path opacity="0.7" d="M94.1 24.1C94.2 24 94.3 23.9 94.4 23.8C95.1 23.1 95.3 21.9 94.6 21.1C93.9 20.4 92.7 20.2 91.9 21C91.8 21.1 91.7 21.2 91.6 21.3C90.9 22 90.7 23.2 91.4 24C92.1 24.7 93.3 24.8 94.1 24.1Z" fill="#7551CC"/>
<path opacity="0.7" d="M93.8 6.80001C97.1 4.60001 100.3 2.40004 103.6 0.200036C105.6 -1.19996 103.1 -4.00001 101.1 -2.60001C97.8 -0.400012 94.6 1.80002 91.3 4.00002C89.3 5.30002 91.8 8.10001 93.8 6.80001Z" fill="#7551CC"/>
<path opacity="0.7" d="M122.7 14.8C122.8 14.7 122.9 14.6 123 14.5C123.7 13.8 123.9 12.6 123.2 11.8C122.5 11.1 121.3 10.9 120.5 11.7C120.4 11.8 120.3 11.9 120.2 12C119.5 12.7 119.3 13.9 120 14.7C120.7 15.3 121.9 15.5 122.7 14.8Z" fill="#7551CC"/>
</g>
</g>
</svg>
