<svg width="149" height="64" viewBox="0 0 149 64" fill="none" xmlns="http://www.w3.org/2000/svg">
<path d="M148.4 0H0.400024V64H148.4V0Z" fill="#F98484"/>
<mask id="mask0" mask-type="alpha" maskUnits="userSpaceOnUse" x="0" y="0" width="149" height="64">
<path d="M148.4 0H0.400024V64H148.4V0Z" fill="#F98484"/>
</mask>
<g mask="url(#mask0)">
<g opacity="0.7">
<g opacity="0.45">
<path opacity="0.45" d="M54.3 7.59999C57.5 5.49999 61.3 4.49996 65.2 4.69996C68.3 4.79996 68.7 0.0999754 65.6 -0.100025C60.4 -0.300025 55.6 0.999975 51.3 3.89998C48.7 5.59998 51.7 9.29999 54.3 7.59999Z" fill="#E00E95"/>
<path opacity="0.45" d="M56.5 20.9C64.6 18.8 71.5 14.6 77.1 8.39999C79.2 6.09999 75.2 3.4 73.2 5.6C68.5 10.8 62.5 14.4 55.7 16.2C52.7 17 53.5 21.7 56.5 20.9Z" fill="#E00E95"/>
<path opacity="0.45" d="M95.9 5.09995C101.8 4.69995 107.5 6.29993 112.5 9.69993C115.1 11.3999 117.8 7.59997 115.3 5.79997C109.3 1.69997 102.4 -0.100059 95.1 0.399941C92 0.499941 92.8 5.29995 95.9 5.09995Z" fill="#E00E95"/>
<path opacity="0.45" d="M115.3 22C123.1 20.2 130.7 16.4 132.1 7.79998C132.6 4.79998 127.8 4.29998 127.3 7.29998C126.4 13.6 119.9 16 114.5 17.3C111.5 18 112.3 22.7 115.3 22Z" fill="#E00E95"/>
<path opacity="0.45" d="M124.5 35.1999C128.6 36.7999 131.8 39.2999 134.2 42.8999C135.9 45.4999 139.6 42.3999 137.9 39.8999C135 35.5999 130.9 32.4999 126.1 30.6999C123.2 29.5999 121.6 34.0999 124.5 35.1999Z" fill="#E00E95"/>
<path opacity="0.45" d="M51.5 45.9C57.6 47.7 63.8 46.8 69 43.2C71.5 41.5 68.5 37.8 66 39.5C62.3 42.1 57.5 42.7 53.2 41.4C50.2 40.5 48.5 44.9 51.5 45.9Z" fill="#E00E95"/>
<path opacity="0.45" d="M66.1 62.8C72.1 62.8 77.7 64.1 83.1 66.9C85.8 68.3 87.4 63.8 84.7 62.4C79 59.5 72.9 58 66.5 58C63.4 58 63 62.8 66.1 62.8Z" fill="#E00E95"/>
<path opacity="0.45" d="M97.4 52.8C105.3 54.3 115.3 54.4999 118.7 45.6999C119.8 42.7999 115.3 41.2 114.2 44C111.7 50.5 103.3 49.1 97.9 48C94.8 47.5 94.4 52.2 97.4 52.8Z" fill="#E00E95"/>
<path opacity="0.45" d="M79.7 32.8C85.6 33.7 91.1 35.8 96.1 39C98.7 40.7 101.5 36.8 98.9 35.1C93.1 31.4 86.9 29.1 80.1 28C77.1 27.6 76.7 32.3 79.7 32.8Z" fill="#E00E95"/>
<g opacity="0.45">
<path opacity="0.45" d="M91.3 20.3C93.1 17.8 89.2 15 87.4 17.5C85.6 20 89.5 22.8 91.3 20.3Z" fill="#E00E95"/>
</g>
<path opacity="0.45" d="M111.4 70.9C107.7 67.5 104.1 64.1 100.4 60.7C98.1 58.6 95.4 62.5 97.6 64.6C101.3 68 104.9 71.4 108.6 74.8C110.9 76.8 113.6 72.9 111.4 70.9Z" fill="#E00E95"/>
<g opacity="0.45">
<path opacity="0.45" d="M80.6 53.6C82.4 51.1 78.5 48.3 76.7 50.8C74.9 53.3 78.8 56.1 80.6 53.6Z" fill="#E00E95"/>
</g>
<g opacity="0.45">
<path opacity="0.45" d="M66.2 32.1999C68 29.6999 64.1 26.8999 62.3 29.3999C60.5 31.9999 64.4 34.6999 66.2 32.1999Z" fill="#E00E95"/>
</g>
<path opacity="0.45" d="M82.2 -4.70003C80.5 -8.10003 79.9 -12.0001 80.6 -15.8001C81.1 -18.8001 76.4 -19.8001 75.9 -16.8001C75.1 -11.7001 75.9 -6.70005 78.1 -2.10005C79.5 0.699949 83.6 -2.00002 82.2 -4.70003Z" fill="#E00E95"/>
<path opacity="0.45" d="M113 32.8C112.9 32.7 112.7 32.6 112.6 32.5C111.6 31.8 110 32 109.3 33C108.6 34.1 108.8 35.6 109.9 36.3C110 36.4 110.2 36.5 110.3 36.6C111.3 37.3 112.9 37.1 113.6 36.1C114.3 35.1 114.1 33.6 113 32.8Z" fill="#E00E95"/>
</g>
</g>
</g>
</svg>
