<svg width="149" height="64" viewBox="0 0 149 64" fill="none" xmlns="http://www.w3.org/2000/svg">
<path d="M148.4 0H0.400024V63.9999H148.4V0Z" fill="#DB4CB0"/>
<mask id="mask0" mask-type="alpha" maskUnits="userSpaceOnUse" x="0" y="0" width="149" height="64">
<path d="M148.4 0H0.400024V63.9999H148.4V0Z" fill="#DB4CB0"/>
</mask>
<g mask="url(#mask0)">
<g opacity="0.45">
<g opacity="0.83">
<g opacity="0.83">
<path opacity="0.83" d="M-3.89998 34.1001C-1.99998 36.2001 1.30002 33.3 -0.599981 31.2C-2.39998 29.1 -5.69998 32.0001 -3.89998 34.1001Z" fill="#E00E95"/>
</g>
<path opacity="0.83" d="M85.2 1.1C86.4 4.4 86.5 7.99996 85.6 11.5C84.8 14.2 89 15.6 89.8 12.8C91.1 8.20001 90.8 3.6 89.2 -0.900001C88.2 -3.5 84.3 -1.5 85.2 1.1Z" fill="#E00E95"/>
<path opacity="0.83" d="M72.9 0.399936C73.1 8.09994 75.4 15.0999 79.9 21.3999C81.5 23.6999 84.8 20.7999 83.2 18.4999C79.5 13.1999 77.5 7.09995 77.3 0.599948C77.2 -2.20005 72.8 -2.50006 72.9 0.399936Z" fill="#E00E95"/>
<path opacity="0.83" d="M78.9 38.9999C78 44.3999 75.4 49.1999 71.4 52.8999C69.3 54.7999 72.2 58.1 74.3 56.2C79.2 51.6 82.3 45.8 83.3 39.2C83.8 36.4 79.4 36.1999 78.9 38.9999Z" fill="#E00E95"/>
<path opacity="0.83" d="M59.7 52.9C59.8 60.3 61.5 67.9 69 70.9C71.6 71.9 73 67.7 70.4 66.7C65 64.6 64.1 58.3 64.1 53.2C64.1 50.3 59.7 50 59.7 52.9Z" fill="#E00E95"/>
<path opacity="0.83" d="M46 58.4C43.8 61.7 40.8 64.1 37.1 65.5C34.4 66.5 36.4 70.5 39 69.4C43.4 67.7 47.1 64.7001 49.7 60.7001C51.3 58.5001 47.6 56.1 46 58.4Z" fill="#E00E95"/>
<path opacity="0.83" d="M51.5 -9.29999C48.6 -4.29999 48.2 1.59997 50.3 6.89997C51.3 9.49997 55.3 7.59996 54.3 4.89996C52.8 0.999964 53.1 -3.4 55.2 -7C56.6 -9.3 52.9 -11.7 51.5 -9.29999Z" fill="#E00E95"/>
<path opacity="0.83" d="M33.3 0.299985C32.1 5.69999 29.7 10.5 26.1 14.7C24.3 16.9 28 19.2 29.8 17.1C33.6 12.6 36.2 7.40001 37.5 1.70001C38.1 -1.09999 33.9 -2.40001 33.3 0.299985Z" fill="#E00E95"/>
<path opacity="0.83" d="M35.7 30.5C32.7 37.2 30.5 46.2 37.7 51C40 52.6 42.5 48.9 40.1 47.3C34.8 43.7 37.8 36.5 39.8 31.8C41.1 29.3 36.9 27.9 35.7 30.5Z" fill="#E00E95"/>
<path opacity="0.83" d="M57.4 18.7C55.3 23.8 52.3 28.3 48.4 32.1C46.4 34.1 49.3 37.3999 51.3 35.3999C55.8 30.9999 59.2 25.7999 61.5 19.9999C62.6 17.4999 58.4 16.1 57.4 18.7Z" fill="#E00E95"/>
<g opacity="0.83">
<path opacity="0.83" d="M66.2 31.7C68.1 33.8 71.4 30.9 69.5 28.8C67.7 26.7 64.3 29.6 66.2 31.7Z" fill="#E00E95"/>
</g>
<path opacity="0.83" d="M17 59.6C17.1 59.5 17.2 59.3999 17.3 59.2999C18.2 58.4999 18.3 57 17.5 56.2C16.7 55.3 15.3 55.1999 14.4 55.9999C14.3 56.0999 14.2 56.1999 14.1 56.2999C13.2 57.0999 13.1 58.5999 13.9 59.3999C14.7 60.2999 16 60.4 17 59.6Z" fill="#E00E95"/>
<path opacity="0.83" d="M16.7 39.3C20.5 36.7 24.3 34.0999 28.1 31.4999C30.4 29.8999 27.5 26.6 25.2 28.2C21.4 30.8 17.6 33.3999 13.8 35.9999C11.4 37.5999 14.4 40.9 16.7 39.3Z" fill="#E00E95"/>
<g opacity="0.83">
<path opacity="0.83" d="M38.6 15.2C40.5 17.3 43.8 14.4 41.9 12.3C40 10.2 36.7 13.1 38.6 15.2Z" fill="#E00E95"/>
</g>
<g opacity="0.83">
<path opacity="0.83" d="M60.7 6.79998C62.6 8.89998 65.9 5.99996 64 3.89996C62.1 1.69996 58.8 4.69998 60.7 6.79998Z" fill="#E00E95"/>
</g>
<path opacity="0.83" d="M90.5 28.7C93.9 27.9 97.5 28.1999 100.8 29.4999C103.4 30.5999 105.3 26.5999 102.6 25.4999C98.2 23.6999 93.6 23.3999 89 24.4999C86.3 25.1999 87.8 29.4 90.5 28.7Z" fill="#E00E95"/>
<path opacity="0.83" d="M88.3 40.8999C96 41.5999 103.2 40.0999 110 36.4999C112.5 35.1999 109.9 31.4999 107.5 32.8999C101.8 35.8999 95.5 37.2 89.1 36.6C86.2 36.4 85.4 40.6999 88.3 40.8999Z" fill="#E00E95"/>
<g opacity="0.83">
<path opacity="0.83" d="M93.2 53.7999C95.5 52.1999 93 48.6 90.7 50.2C88.3 51.8 90.8 55.3999 93.2 53.7999Z" fill="#E00E95"/>
</g>
<path opacity="0.83" d="M50.5 48.6C50.6 48.5 50.7 48.3999 50.8 48.2999C51.7 47.4999 51.8 46 51 45.2C50.2 44.3 48.8 44.1999 47.9 44.9999C47.8 45.0999 47.7 45.1999 47.6 45.2999C46.7 46.0999 46.6 47.5999 47.4 48.3999C48.2 49.2999 49.5 49.5 50.5 48.6Z" fill="#E00E95"/>
</g>
</g>
</g>
</svg>
