<svg width="149" height="64" viewBox="0 0 149 64" fill="none" xmlns="http://www.w3.org/2000/svg">
<path d="M148.4 0H0.400024V64H148.4V0Z" fill="#F7BE69"/>
<mask id="mask0" mask-type="alpha" maskUnits="userSpaceOnUse" x="0" y="0" width="149" height="64">
<path d="M148.4 0H0.400024V64H148.4V0Z" fill="#F7BE69"/>
</mask>
<g mask="url(#mask0)">
<path opacity="0.45" d="M99.1 -0.700035C106.2 4.89997 114.2 8.09996 123.1 8.89996C126.4 9.19996 126.2 3.99997 123 3.69997C115.5 2.99997 108.5 0.199962 102.6 -4.50004C100.1 -6.50004 96.5 -2.80003 99.1 -0.700035Z" fill="#F79661"/>
<path opacity="0.45" d="M138.2 22.9C142.4 27.8 144.7 33.7 145 40.1C145.2 43.4 150.3 43.3 150.1 40C149.7 32.1 146.8 25.1 141.7 19.2C139.6 16.6 136.1 20.4 138.2 22.9Z" fill="#F79661"/>
<path opacity="0.45" d="M136.2 50.5C142.8 56 151 60.2 159.3 55.7C162.2 54.1 159.5 49.7 156.6 51.3C150.6 54.6 144.4 50.6 139.8 46.8C137.2 44.7 133.7 48.4 136.2 50.5Z" fill="#F79661"/>
<path opacity="0.45" d="M130.8 67C132.1 71.5 131.9 75.9 130.4 80.4C129.3 83.6 134.3 84.8 135.4 81.6C137.2 76.3 137.2 70.8 135.7 65.5C134.8 62.3 129.9 63.8 130.8 67Z" fill="#F79661"/>
<path opacity="0.45" d="M74.5 11.2C76.8 17.6 81.7 22.3 88.1 24.5C91.2 25.6 92.4 20.5 89.3 19.5C84.7 18 81 14.3 79.4 9.69997C78.2 6.49997 73.3 7.99997 74.5 11.2Z" fill="#F79661"/>
<path opacity="0.45" d="M69.4 34.6C73.3 39.8 75.8 45.5 76.9 51.9C77.5 55.2 82.4 53.6 81.8 50.4C80.6 43.6 77.9 37.4 73.8 31.9C71.7 29.3 67.4 32 69.4 34.6Z" fill="#F79661"/>
<path opacity="0.45" d="M98.2 55.2C102 63 108.3 71.7 118.1 68.8C121.3 67.9 119.8 62.9 116.6 63.8C109.4 65.9 105.2 57.7 102.6 52.4C101.1 49.5 96.7 52.2 98.2 55.2Z" fill="#F79661"/>
<path opacity="0.45" d="M103.9 27C106.9 32.7 108.7 38.7 109.2 45.1C109.5 48.4 114.6 48.3 114.3 45C113.7 37.7 111.7 30.8 108.3 24.3C106.7 21.3 102.4 24 103.9 27Z" fill="#F79661"/>
<g opacity="0.45">
<path opacity="0.45" d="M122.2 28.8C125.5 28.7 125.4 23.5 122.1 23.6C118.7 23.7 118.9 28.9 122.2 28.8Z" fill="#F79661"/>
</g>
<path opacity="0.45" d="M91.7 78.8C92.3 73.4 92.8 68.1 93.4 62.7C93.7 59.4 88.6 59.6 88.3 62.8C87.7 68.2 87.2 73.5 86.6 78.9C86.3 82.3 91.4 82.1 91.7 78.8Z" fill="#F79661"/>
<g opacity="0.45">
<path opacity="0.45" d="M86.6 41.1C89.9 41 89.8 35.8 86.5 35.9C83.2 36.1 83.3 41.2 86.6 41.1Z" fill="#F79661"/>
</g>
<g opacity="0.45">
<path opacity="0.45" d="M95.7 15C99 14.9 98.9 9.69998 95.6 9.79998C92.2 9.89998 92.4 15.1 95.7 15Z" fill="#F79661"/>
</g>
<path opacity="0.45" d="M125.5 55.6C125.5 55.4 125.5 55.3 125.5 55.1C125.5 53.7 124.3 52.5 122.9 52.6C121.5 52.7 120.4 53.8 120.4 55.3C120.4 55.5 120.4 55.6 120.4 55.8C120.4 57.2 121.6 58.4 123 58.3C124.4 58.2 125.5 57.1 125.5 55.6Z" fill="#F79661"/>
</g>
</svg>
