<svg width="149" height="64" viewBox="0 0 149 64" fill="none" xmlns="http://www.w3.org/2000/svg">
<path d="M148.4 0H0.400024V64H148.4V0Z" fill="#55D355"/>
<mask id="mask0" mask-type="alpha" maskUnits="userSpaceOnUse" x="0" y="0" width="149" height="64">
<path d="M148.4 0H0.400024V64H148.4V0Z" fill="#55D355"/>
</mask>
<g mask="url(#mask0)">
<g opacity="0.45">
<g opacity="0.83">
<path opacity="0.83" d="M70.7 8.80002C72.2 13 72.4 17.5 71.2 21.8C70.3 25.2 75.5 26.9 76.4 23.5C78 17.7 77.7 12 75.6 6.40001C74.4 3.00001 69.5 5.50002 70.7 8.80002Z" fill="#21B1A0"/>
<path opacity="0.83" d="M55.2 7.80001C55.5 17.5 58.4 26.2 63.9 34.1C65.9 37 70.1 33.3 68 30.4C63.4 23.8 60.9 16.1 60.7 8C60.6 4.6 55.1 4.30001 55.2 7.80001Z" fill="#21B1A0"/>
<path opacity="0.83" d="M28.4 -4.2C24.8 2.1 24.2 9.4 26.9 16.1C28.2 19.4 33.2 16.9 31.9 13.6C30 8.8 30.4 3.2 33.1 -1.3C34.8 -4.3 30.2 -7.3 28.4 -4.2Z" fill="#21B1A0"/>
<path opacity="0.83" d="M5.70003 7.80001C4.20003 14.6 1.20003 20.5 -3.29997 25.8C-5.59997 28.5 -0.999973 31.5 1.30003 28.8C6.10003 23.2 9.30003 16.6 10.9 9.50001C11.7 6.00001 6.50003 4.30001 5.70003 7.80001Z" fill="#21B1A0"/>
<path opacity="0.83" d="M8.70003 45.6C4.90003 54 2.20003 65.2 11.2 71.3C14.1 73.3 17.2 68.6 14.2 66.7C7.50002 62.2 11.3 53.1 13.9 47.3C15.4 44 10.1 42.4 8.70003 45.6Z" fill="#21B1A0"/>
<path opacity="0.83" d="M35.8 30.8C33.2 37.2 29.5 42.8 24.6 47.6C22.1 50.1 25.7 54.2 28.2 51.7C33.8 46.2 38.1 39.7 41 32.4C42.3 29.2 37.1 27.5 35.8 30.8Z" fill="#21B1A0"/>
<path opacity="0.83" d="M-15.2 56.6C-10.4 53.4 -5.59998 50.1 -0.899979 46.9C2.00002 44.9 -1.59998 40.8 -4.49998 42.8C-9.29998 46 -14.1 49.3 -18.8 52.5C-21.7 54.5 -18.1 58.6 -15.2 56.6Z" fill="#21B1A0"/>
<g opacity="0.83">
<path opacity="0.83" d="M12.3 26.4C14.6 29 18.8 25.4 16.4 22.7C14.1 20.1 9.90003 23.8 12.3 26.4Z" fill="#21B1A0"/>
</g>
<g opacity="0.83">
<path opacity="0.83" d="M39.9 15.8C42.2 18.4 46.4 14.8 44 12.1C41.7 9.50001 37.6 13.2 39.9 15.8Z" fill="#21B1A0"/>
</g>
<path opacity="0.83" d="M77.3 43.4C81.6 42.4 86.1 42.8 90.2 44.5C93.5 45.8 95.8 40.9 92.5 39.5C87 37.2 81.2 36.8 75.4 38.2C72 39 73.8 44.2 77.3 43.4Z" fill="#21B1A0"/>
<path opacity="0.83" d="M27.1 68.3C27.2 68.2 27.4 68.1 27.5 67.9C28.6 66.9 28.8 65.1 27.8 64C26.8 62.9 25.1 62.8 23.9 63.8C23.8 63.9 23.6 64 23.5 64.2C22.4 65.2 22.2 67 23.2 68.1C24.3 69.1 26 69.3 27.1 68.3Z" fill="#21B1A0"/>
</g>
</g>
</g>
</svg>
