<svg width="149" height="64" viewBox="0 0 149 64" fill="none" xmlns="http://www.w3.org/2000/svg">
<path d="M148.4 0H0.400024V64H148.4V0Z" fill="#32BF90"/>
<mask id="mask0" mask-type="alpha" maskUnits="userSpaceOnUse" x="0" y="0" width="149" height="64">
<path d="M148.4 0H0.400024V64H148.4V0Z" fill="#32BF90"/>
</mask>
<g mask="url(#mask0)">
<g opacity="0.45">
<path opacity="0.45" d="M140.2 30.9C139.3 27.4 133.9 28.8 134.8 32.3C135.7 35.7 141.1 34.3 140.2 30.9Z" fill="#2FA37C"/>
</g>
<path opacity="0.45" d="M21.3 15.8C21.9 11.4 23.9 7.30001 26.9 4.00001C29.3 1.40001 25.5 -2.59999 23 8.64267e-06C18.9 4.40001 16.5 9.69999 15.7 15.7C15.2 19.2 20.8 19.3 21.3 15.8Z" fill="#2FA37C"/>
<path opacity="0.45" d="M34.7 23.9C39 15.1 40.4 5.9 39.2 -3.7C38.7 -7.2 33.3 -5.8 33.8 -2.3C34.8 5.8 33.5 13.8 29.9 21.1C28.3 24.2 33.1 27.1 34.7 23.9Z" fill="#2FA37C"/>
<path opacity="0.45" d="M53 47.1C59.2 43.1 63.1 36.9 63.8 29.6C64.2 26 58.6 26 58.2 29.5C57.6 34.7 54.7 39.4 50.2 42.3C47.2 44.2 49.9 49.1 53 47.1Z" fill="#2FA37C"/>
<path opacity="0.45" d="M78.9 47C83.4 41.7 88.9 37.7 95.4 35.1C98.7 33.7 96 28.9 92.7 30.3C85.8 33.1 79.9 37.4 75.1 43.1C72.7 45.7 76.6 49.7 78.9 47Z" fill="#2FA37C"/>
<path opacity="0.45" d="M93.8 11.8C101.1 5.99998 108.8 -2.70003 103.5 -12.4C101.8 -15.5 96.9 -12.8 98.6 -9.70001C102.5 -2.60001 94.9 3.79999 89.8 7.79999C87.1 10.1 91 14 93.8 11.8Z" fill="#2FA37C"/>
<path opacity="0.45" d="M62.7 12.3C68 7.79998 74 4.49999 80.6 2.49999C84 1.39999 82.7 -3.90003 79.3 -2.90003C71.7 -0.600034 64.9 3.19998 58.9 8.29998C56.1 10.7 60 14.7 62.7 12.3Z" fill="#2FA37C"/>
<path opacity="0.45" d="M120.3 13.1C114.5 13.8 108.7 14.4 102.9 15.1C99.3 15.5 100.7 20.9 104.2 20.5C110 19.8 115.8 19.2 121.6 18.5C125.2 18 123.8 12.6 120.3 13.1Z" fill="#2FA37C"/>
<g opacity="0.45">
<path opacity="0.45" d="M81.7 27.2C80.8 23.7 75.4 25.1 76.3 28.6C77.2 32.1 82.6 30.7 81.7 27.2Z" fill="#2FA37C"/>
</g>
<g opacity="0.45">
<path opacity="0.45" d="M52.1 23.8C51.2 20.3 45.8 21.7 46.7 25.2C47.5 28.6 52.9 27.3 52.1 23.8Z" fill="#2FA37C"/>
</g>
</g>
</svg>
