<svg width="148" height="64" viewBox="0 0 148 64" fill="none" xmlns="http://www.w3.org/2000/svg">
<path d="M148 0H0V64H148V0Z" fill="#34B1E8"/>
<path d="M148 0H0V64H148V0Z" fill="#A5DCE0"/>
<mask id="mask0" mask-type="alpha" maskUnits="userSpaceOnUse" x="0" y="0" width="148" height="64">
<path d="M148 0H0V64H148V0Z" fill="#34B1E8"/>
<path d="M148 0H0V64H148V0Z" fill="#A5DCE0"/>
</mask>
<g mask="url(#mask0)">
<path opacity="0.45" d="M48.2998 30.2002C48.8998 25.6002 50.8998 21.4002 54.0998 18.0002C56.5998 15.3002 52.5998 11.2002 50.0998 13.9002C45.7998 18.5002 43.2998 23.9002 42.4998 30.1002C41.9998 33.7002 47.7998 33.8002 48.2998 30.2002Z" fill="#81CFD5"/>
<path opacity="0.45" d="M62.1998 38.5002C66.5998 29.4002 68.0998 19.9002 66.7998 9.90022C66.2998 6.30022 60.6998 7.70021 61.1998 11.3002C62.2998 19.6002 60.8998 27.9002 57.1998 35.5002C55.5998 38.9002 60.4998 41.9002 62.1998 38.5002Z" fill="#81CFD5"/>
<path opacity="0.45" d="M81.0998 62.6002C87.4998 58.5002 91.4998 52.0002 92.2998 44.5002C92.6998 40.8002 86.8998 40.7002 86.4998 44.4002C85.8998 49.8002 82.7998 54.7002 78.1998 57.6002C75.0998 59.6002 77.8998 64.6002 81.0998 62.6002Z" fill="#81CFD5"/>
<path opacity="0.45" d="M107.9 62.5002C112.6 57.0002 118.2 52.9002 124.9 50.2002C128.3 48.8002 125.5 43.8002 122.1 45.2002C115 48.1002 108.8 52.6002 103.9 58.4002C101.5 61.2002 105.5 65.3002 107.9 62.5002Z" fill="#81CFD5"/>
<path opacity="0.45" d="M123.3 26.0002C130.9 20.0002 138.8 11.0002 133.4 1.00022C131.6 -2.19978 126.6 0.600206 128.4 3.80021C132.4 11.2002 124.5 17.8002 119.3 21.9002C116.4 24.3002 120.4 28.3002 123.3 26.0002Z" fill="#81CFD5"/>
<path opacity="0.45" d="M91.1998 26.6002C96.6998 21.9002 102.8 18.6002 109.7 16.4002C113.2 15.3002 111.9 9.70019 108.3 10.8002C100.4 13.2002 93.3998 17.1002 87.0998 22.4002C84.2998 25.0002 88.3998 29.0002 91.1998 26.6002Z" fill="#81CFD5"/>
<g opacity="0.45">
<path opacity="0.45" d="M88.7998 6.3002C87.8998 2.7002 82.2998 4.10022 83.1998 7.70022C83.9998 11.2002 89.6998 9.8002 88.7998 6.3002Z" fill="#81CFD5"/>
</g>
<path opacity="0.45" d="M150.7 27.4002C144.7 28.1002 138.7 28.8002 132.8 29.5002C129.1 29.9002 130.5 35.5002 134.2 35.1002C140.2 34.4002 146.2 33.7002 152.1 33.0002C155.8 32.5002 154.4 26.9002 150.7 27.4002Z" fill="#81CFD5"/>
<g opacity="0.45">
<path opacity="0.45" d="M110.8 42.0002C109.9 38.4002 104.3 39.8002 105.2 43.4002C106.1 47.0002 111.7 45.6002 110.8 42.0002Z" fill="#81CFD5"/>
</g>
<g opacity="0.45">
<path opacity="0.45" d="M80.0998 38.5002C79.1998 34.9002 73.5998 36.3002 74.4998 39.9002C75.3998 43.5002 80.9998 42.1002 80.0998 38.5002Z" fill="#81CFD5"/>
</g>
<path opacity="0.45" d="M117.2 -3.79977C117 -3.79977 116.8 -3.69979 116.6 -3.69979C115.1 -3.29979 114 -1.69979 114.5 -0.199791C114.9 1.30021 116.4 2.30022 118 1.90022C118.2 1.90022 118.4 1.80021 118.6 1.80021C120.1 1.40021 121.2 -0.199791 120.7 -1.69979C120.3 -3.19979 118.8 -4.19977 117.2 -3.79977Z" fill="#81CFD5"/>
</g>
</svg>
