<svg width="149" height="64" viewBox="0 0 149 64" fill="none" xmlns="http://www.w3.org/2000/svg">
<path d="M148.4 0H0.400024V64H148.4V0Z" fill="#34B1E8"/>
<path d="M148.4 0H0.400024V64H148.4V0Z" fill="#34B1E8"/>
<mask id="mask0" mask-type="alpha" maskUnits="userSpaceOnUse" x="0" y="0" width="149" height="64">
<path d="M148.4 0H0.400024V64H148.4V0Z" fill="#34B1E8"/>
<path d="M148.4 0H0.400024V64H148.4V0Z" fill="#34B1E8"/>
</mask>
<g mask="url(#mask0)">
<path opacity="0.45" d="M48.7 30.2C49.3 25.6 51.3 21.4 54.5 18C57 15.3 53 11.2 50.5 13.9C46.2 18.5 43.7 23.9 42.9 30.1C42.4 33.7 48.2 33.8 48.7 30.2Z" fill="#2E9AC9"/>
<path opacity="0.45" d="M62.6 38.5C67 29.4 68.5 19.9 67.2 9.9C66.7 6.3 61.1 7.7 61.6 11.3C62.7 19.6 61.3 27.9 57.6 35.5C56 38.9 60.9 41.9 62.6 38.5Z" fill="#2E9AC9"/>
<path opacity="0.45" d="M81.5 62.6C87.9 58.5 91.9 52 92.7 44.5C93.1 40.8 87.3 40.7 86.9 44.4C86.3 49.8 83.2 54.7 78.6 57.6C75.5 59.6 78.3 64.6 81.5 62.6Z" fill="#2E9AC9"/>
<path opacity="0.45" d="M108.3 62.5C113 57 118.6 52.9 125.3 50.2C128.7 48.8 125.9 43.8 122.5 45.2C115.4 48.1 109.2 52.6 104.3 58.4C101.9 61.2 105.9 65.3 108.3 62.5Z" fill="#2E9AC9"/>
<path opacity="0.45" d="M123.7 26C131.3 20 139.2 11 133.8 1C132 -2.2 127 0.599993 128.8 3.79999C132.8 11.2 124.9 17.8 119.7 21.9C116.8 24.3 120.8 28.3 123.7 26Z" fill="#2E9AC9"/>
<path opacity="0.45" d="M91.6 26.6C97.1 21.9 103.2 18.6 110.1 16.4C113.6 15.3 112.3 9.69998 108.7 10.8C100.8 13.2 93.8 17.1 87.5 22.4C84.7 25 88.8 29 91.6 26.6Z" fill="#2E9AC9"/>
<g opacity="0.45">
<path opacity="0.45" d="M89.2 6.29998C88.3 2.69999 82.7 4.10001 83.6 7.70001C84.4 11.2 90.1 9.79998 89.2 6.29998Z" fill="#2E9AC9"/>
</g>
<path opacity="0.45" d="M151.1 27.4C145.1 28.1 139.1 28.8 133.2 29.5C129.5 29.9 130.9 35.5 134.6 35.1C140.6 34.4 146.6 33.7 152.5 33C156.2 32.5 154.8 26.9 151.1 27.4Z" fill="#2E9AC9"/>
<g opacity="0.45">
<path opacity="0.45" d="M111.2 42C110.3 38.4 104.7 39.8 105.6 43.4C106.5 47 112.1 45.6 111.2 42Z" fill="#2E9AC9"/>
</g>
<g opacity="0.45">
<path opacity="0.45" d="M80.5 38.5C79.6 34.9 74 36.3 74.9 39.9C75.8 43.5 81.4 42.1 80.5 38.5Z" fill="#2E9AC9"/>
</g>
<path opacity="0.45" d="M117.6 -3.79998C117.4 -3.79998 117.2 -3.7 117 -3.7C115.5 -3.3 114.4 -1.7 114.9 -0.200005C115.3 1.3 116.8 2.3 118.4 1.9C118.6 1.9 118.8 1.8 119 1.8C120.5 1.4 121.6 -0.200005 121.1 -1.7C120.7 -3.2 119.2 -4.19998 117.6 -3.79998Z" fill="#2E9AC9"/>
</g>
</svg>
