<svg width="149" height="64" viewBox="0 0 149 64" fill="none" xmlns="http://www.w3.org/2000/svg">
<path d="M148.4 0H0.400024V64H148.4V0Z" fill="#1D6DCD"/>
<mask id="mask0" mask-type="alpha" maskUnits="userSpaceOnUse" x="0" y="0" width="149" height="64">
<path d="M148.4 0H0.400024V64H148.4V0Z" fill="#0654B2"/>
</mask>
<g mask="url(#mask0)">
<g opacity="0.45">
<g opacity="0.45">
<path opacity="0.45" d="M26.1 31.3999C29 32.1999 30.3 27.7 27.4 26.8C24.5 26.1 23.2 30.5999 26.1 31.3999Z" fill="#10B4C1"/>
</g>
<path opacity="0.45" d="M103.7 -11.7C106 -6.29999 106.4 -0.499969 104.9 5.20003C104.1 8.10003 108.6 9.40002 109.4 6.50002C111.2 -0.499981 110.6 -7.39998 107.8 -14C106.6 -16.9 102.5 -14.5 103.7 -11.7Z" fill="#10B4C1"/>
<path opacity="0.45" d="M94.4 11.8C98.7 18.4 104.7 24.3 113.1 22.7C116.1 22.1 114.9 17.5 111.9 18.1C105.8 19.3 101.4 14.1 98.4 9.50003C96.8 7.00003 92.7 9.30001 94.4 11.8Z" fill="#10B4C1"/>
<path opacity="0.45" d="M85.1 24.8C85 29.1 83.6 32.8999 81.1 36.3999C79.3 38.8999 83.3 41.2999 85.1 38.8999C88.1 34.7999 89.7 29.9999 89.8 24.8999C89.9 21.6999 85.2 21.7 85.1 24.8Z" fill="#10B4C1"/>
<path opacity="0.45" d="M59.8 5.39996C61 13.2 64.1 22.6 73.4 22.8C76.4 22.9 76.5 18.1 73.5 18.1C66.6 17.9 65.2 9.59998 64.4 4.29998C63.9 1.19998 59.4 2.39996 59.8 5.39996Z" fill="#10B4C1"/>
<path opacity="0.45" d="M72.6 -17.6C73.7 -11.8 73.5 -5.99997 72.2 -0.299969C71.5 2.70003 76 4.00002 76.7 1.00002C78.2 -5.59998 78.3 -12.2 77.1 -18.8C76.6 -21.8 72 -20.6 72.6 -17.6Z" fill="#10B4C1"/>
<path opacity="0.45" d="M59.6 42.5C59.6 42.3 59.7 42.2 59.7 42C60 40.8 59.3 39.4 58.1 39.1C56.9 38.8 55.6 39.5 55.2 40.7C55.2 40.9 55.1 41 55.1 41.2C54.8 42.4 55.5 43.8 56.7 44.1C57.9 44.4 59.2 43.8 59.6 42.5Z" fill="#10B4C1"/>
<path opacity="0.45" d="M47.7 24.3C49.7 19.8 51.6 15.2 53.6 10.7C54.8 7.90001 50.3 6.59996 49.1 9.39996C47.1 13.9 45.2 18.5 43.2 23C42 25.8 46.5 27.1 47.7 24.3Z" fill="#10B4C1"/>
<path opacity="0.45" d="M83.5 13.3C83.5 13.1 83.6 13 83.6 12.8C83.9 11.6 83.2 10.2 82 9.89998C80.8 9.59998 79.5 10.3 79.1 11.5C79.1 11.7 79 11.8 79 12C78.7 13.2 79.4 14.6 80.6 14.9C81.9 15.3 83.2 14.6 83.5 13.3Z" fill="#10B4C1"/>
</g>
<g opacity="0.45">
<path opacity="0.45" d="M27.2 -16.2C29.5 -10.8 29.9 -4.99997 28.4 0.700031C27.6 3.60003 32.1 4.90002 32.9 2.00002C34.7 -4.99998 34.1 -11.9 31.3 -18.5C30.1 -21.4 26 -19 27.2 -16.2Z" fill="#10B4C1"/>
<path opacity="0.45" d="M17.9 7.30001C22.2 13.9 28.2 19.8 36.6 18.2C39.6 17.6 38.4 13 35.4 13.6C29.3 14.8 24.9 9.60003 21.9 5.00003C20.3 2.50003 16.2 4.80001 17.9 7.30001Z" fill="#10B4C1"/>
<path opacity="0.45" d="M8.59997 20.3C8.49997 24.6 7.09997 28.3999 4.59997 31.8999C2.79997 34.3999 6.79997 36.7999 8.59997 34.3999C11.6 30.2999 13.2 25.4999 13.3 20.3999C13.4 17.1999 8.69997 17.2 8.59997 20.3Z" fill="#10B4C1"/>
<path opacity="0.45" d="M6.99997 8.8C6.99997 8.6 7.09997 8.5 7.09997 8.3C7.39997 7.1 6.69997 5.69998 5.49997 5.39998C4.29997 5.09998 2.99997 5.80001 2.59997 7.00001C2.59997 7.20001 2.49997 7.30001 2.49997 7.50001C2.19997 8.70001 2.89997 10.1 4.09997 10.4C5.39997 10.8 6.69997 10.1 6.99997 8.8Z" fill="#10B4C1"/>
</g>
</g>
</svg>
