<svg width="148" height="64" viewBox="0 0 148 64" fill="none" xmlns="http://www.w3.org/2000/svg">
<path d="M148 0H0V64H148V0Z" fill="#34B1E8"/>
<path d="M148 0H0V64H148V0Z" fill="#C395EE"/>
<mask id="mask0" mask-type="alpha" maskUnits="userSpaceOnUse" x="0" y="0" width="148" height="64">
<path d="M148 0H0V64H148V0Z" fill="#34B1E8"/>
<path d="M148 0H0V64H148V0Z" fill="#C395EE"/>
</mask>
<g mask="url(#mask0)">
<path opacity="0.45" d="M32.4306 16.2002C33.0306 11.6002 35.0306 7.40022 38.2306 4.00022C40.7306 1.30022 36.7306 -2.79978 34.2306 -0.0997847C29.9306 4.50022 27.4306 9.90023 26.6306 16.1002C26.1306 19.7002 31.9306 19.8002 32.4306 16.2002Z" fill="#9C5ED7"/>
<path opacity="0.45" d="M46.3306 24.5002C50.7306 15.4002 52.2306 5.90022 50.9306 -4.09978C50.4306 -7.69978 44.8306 -6.29979 45.3306 -2.69979C46.4306 5.60021 45.0306 13.9002 41.3306 21.5002C39.7306 24.9002 44.6306 27.9002 46.3306 24.5002Z" fill="#9C5ED7"/>
<path opacity="0.45" d="M65.2306 48.6002C71.6306 44.5002 75.6306 38.0002 76.4306 30.5002C76.8306 26.8002 71.0306 26.7002 70.6306 30.4002C70.0306 35.8002 66.9306 40.7002 62.3306 43.6002C59.2306 45.6002 62.0306 50.6002 65.2306 48.6002Z" fill="#9C5ED7"/>
<path opacity="0.45" d="M92.0306 48.5002C96.7306 43.0002 102.331 38.9002 109.031 36.2002C112.431 34.8002 109.631 29.8002 106.231 31.2002C99.1306 34.1002 92.9306 38.6002 88.0306 44.4002C85.6306 47.2002 89.6306 51.3002 92.0306 48.5002Z" fill="#9C5ED7"/>
<path opacity="0.45" d="M107.431 12.0002C115.031 6.00022 122.931 -2.99978 117.531 -12.9998C115.731 -16.1998 110.731 -13.3998 112.531 -10.1998C116.531 -2.79979 108.631 3.80021 103.431 7.90021C100.531 10.3002 104.531 14.3002 107.431 12.0002Z" fill="#9C5ED7"/>
<path opacity="0.45" d="M75.3306 12.6002C80.8306 7.90021 86.9306 4.6002 93.8306 2.4002C97.3306 1.3002 96.0306 -4.29981 92.4306 -3.19981C84.5306 -0.799808 77.5306 3.1002 71.2306 8.4002C68.4306 11.0002 72.5306 15.0002 75.3306 12.6002Z" fill="#9C5ED7"/>
<path opacity="0.45" d="M134.831 13.4002C128.831 14.1002 122.831 14.8002 116.931 15.5002C113.231 15.9002 114.631 21.5002 118.331 21.1002C124.331 20.4002 130.331 19.7002 136.231 19.0002C139.931 18.5002 138.531 12.9002 134.831 13.4002Z" fill="#9C5ED7"/>
<g opacity="0.45">
<path opacity="0.45" d="M94.9306 28.0002C94.0306 24.4002 88.4306 25.8002 89.3306 29.4002C90.2306 33.0002 95.8306 31.6002 94.9306 28.0002Z" fill="#9C5ED7"/>
</g>
<g opacity="0.45">
<path opacity="0.45" d="M64.2306 24.5002C63.3306 20.9002 57.7306 22.3002 58.6306 25.9002C59.5306 29.5002 65.1306 28.1002 64.2306 24.5002Z" fill="#9C5ED7"/>
</g>
</g>
</svg>
