<svg width="149" height="64" viewBox="0 0 149 64" fill="none" xmlns="http://www.w3.org/2000/svg">
<path d="M148.4 0H0.400024V64H148.4V0Z" fill="#8D3CBC"/>
<mask id="mask0" mask-type="alpha" maskUnits="userSpaceOnUse" x="0" y="0" width="149" height="64">
<path d="M148.4 0H0.400024V64H148.4V0Z" fill="#8D3CBC"/>
</mask>
<g mask="url(#mask0)">
<g opacity="0.45">
<path opacity="0.45" d="M113.3 39.9C114.5 43.2 114.6 46.8 113.7 50.2C113 52.9 117.1 54.3 117.8 51.5C119.1 46.9 118.8 42.4 117.2 37.9C116.3 35.3 112.3 37.3 113.3 39.9Z" fill="#3E1357"/>
<path opacity="0.45" d="M101 39.2C101.2 46.9 103.5 53.8 107.9 60.1C109.5 62.4 112.8 59.5 111.2 57.2C107.5 52 105.6 45.9 105.4 39.5C105.3 36.6 100.9 36.4 101 39.2Z" fill="#3E1357"/>
<path opacity="0.45" d="M79.8 29.6C76.9 34.6 76.5 40.4 78.6 45.7C79.6 48.3 83.6 46.3 82.5 43.8C81 40 81.3 35.6 83.4 32C84.9 29.5 81.3 27.1 79.8 29.6Z" fill="#3E1357"/>
<path opacity="0.45" d="M61.8 39.1C60.6 44.5 58.2 49.2 54.7 53.4C52.9 55.5 56.5 57.9 58.4 55.8C62.2 51.4 64.8 46.2 66 40.5C66.6 37.7 62.4 36.4 61.8 39.1Z" fill="#3E1357"/>
<path opacity="0.45" d="M85.7 57.4C83.7 62.5 80.7 66.8999 76.8 70.6999C74.8 72.6999 77.7 75.9 79.7 74C84.1 69.6 87.5 64.4999 89.9 58.6999C90.9 56.0999 86.7 54.8 85.7 57.4Z" fill="#3E1357"/>
<g opacity="0.45">
<path opacity="0.45" d="M67 53.8999C68.9 55.9999 72.1 53.1 70.3 51C68.5 48.9 65.2 51.7999 67 53.8999Z" fill="#3E1357"/>
</g>
<g opacity="0.45">
<path opacity="0.45" d="M88.9 45.5C90.8 47.6 94 44.7 92.2 42.6C90.4 40.5 87.1 43.4 88.9 45.5Z" fill="#3E1357"/>
</g>
</g>
<g opacity="0.45">
<g opacity="0.45">
<path opacity="0.45" d="M82.3 5.1C84.2 7.2 87.4 4.29997 85.6 2.19998C83.7 0.0999752 80.4 3 82.3 5.1Z" fill="#3E1357"/>
</g>
<path opacity="0.45" d="M145.4 23.7C145.5 31 147.2 38.6 154.6 41.5C157.2 42.5 158.6 38.4 156 37.3C150.6 35.2 149.8 29 149.8 23.9C149.7 21.2 145.3 20.9 145.4 23.7Z" fill="#3E1357"/>
<path opacity="0.45" d="M131.7 29.3C129.5 32.6 126.5 34.8999 122.8 36.3999C120.2 37.3999 122.1 41.3 124.7 40.3C129.1 38.6 132.7 35.5999 135.3 31.6999C136.9 29.2999 133.3 26.9 131.7 29.3Z" fill="#3E1357"/>
<path opacity="0.45" d="M121.6 1.59996C118.6 8.29996 116.4 17.2 123.6 22C125.9 23.6 128.3 19.9 126 18.3C120.7 14.7 123.7 7.49995 125.8 2.89995C126.9 0.299952 122.7 -1.00004 121.6 1.59996Z" fill="#3E1357"/>
<path opacity="0.45" d="M143 -10.1C141 -5.00005 138 -0.60006 134.1 3.19994C132.1 5.19994 135 8.39999 137 6.49999C141.4 2.09999 144.8 -3.00006 147.2 -8.80006C148.2 -11.4001 144.1 -12.7 143 -10.1Z" fill="#3E1357"/>
<path opacity="0.45" d="M102.9 30.4C103 30.3 103.1 30.2 103.2 30.1C104.1 29.3 104.2 27.9 103.4 27C102.6 26.2 101.2 26 100.3 26.8C100.2 26.9 100.1 27 100 27.1C99.1 27.9 99 29.2999 99.8 30.1999C100.7 31.0999 102 31.2 102.9 30.4Z" fill="#3E1357"/>
<path opacity="0.45" d="M102.7 10.3C106.5 7.69997 110.3 5.19996 114.1 2.59996C116.4 0.999956 113.5 -2.20003 111.2 -0.700032C107.4 1.89997 103.6 4.39998 99.8 6.99998C97.4 8.59998 100.4 11.9 102.7 10.3Z" fill="#3E1357"/>
<path opacity="0.45" d="M136.2 19.5C136.3 19.4 136.4 19.2999 136.5 19.1999C137.4 18.3999 137.5 17 136.7 16.1C135.9 15.3 134.5 15.1 133.6 15.9C133.5 16 133.4 16.0999 133.3 16.1999C132.4 16.9999 132.3 18.4 133.1 19.3C133.9 20.2 135.2 20.4 136.2 19.5Z" fill="#3E1357"/>
</g>
</g>
</svg>
