<svg width="238" height="226" viewBox="0 0 238 226" fill="none" xmlns="http://www.w3.org/2000/svg">
<path d="M238 226H0L63.8804 94H174.12L238 226Z" fill="#D9F5EC"/>
<path d="M58.3998 173.8C60.388 173.8 61.9998 172.188 61.9998 170.2C61.9998 168.212 60.388 166.6 58.3998 166.6C56.4116 166.6 54.7998 168.212 54.7998 170.2C54.7998 172.188 56.4116 173.8 58.3998 173.8Z" stroke="#210049" stroke-width="1.8" stroke-miterlimit="10" stroke-linecap="round" stroke-linejoin="round"/>
<path d="M107.2 138.9V140.8" stroke="#210049" stroke-width="1.6838" stroke-miterlimit="10" stroke-linecap="round" stroke-linejoin="round"/>
<path d="M107.2 144.6V146.5" stroke="#210049" stroke-width="1.6838" stroke-miterlimit="10" stroke-linecap="round" stroke-linejoin="round"/>
<path d="M103.3 142.7H105.2" stroke="#210049" stroke-width="1.6838" stroke-miterlimit="10" stroke-linecap="round" stroke-linejoin="round"/>
<path d="M109.1 142.7H111" stroke="#210049" stroke-width="1.6838" stroke-miterlimit="10" stroke-linecap="round" stroke-linejoin="round"/>
<path d="M74.4994 124.2C76.2115 124.2 77.5994 122.812 77.5994 121.1C77.5994 119.388 76.2115 118 74.4994 118C72.7873 118 71.3994 119.388 71.3994 121.1C71.3994 122.812 72.7873 124.2 74.4994 124.2Z" fill="#210049"/>
<path d="M165.499 146.3C167.488 146.3 169.099 144.688 169.099 142.7C169.099 140.712 167.488 139.1 165.499 139.1C163.511 139.1 161.899 140.712 161.899 142.7C161.899 144.688 163.511 146.3 165.499 146.3Z" stroke="#210049" stroke-width="1.8" stroke-miterlimit="10" stroke-linecap="round" stroke-linejoin="round"/>
<path d="M174.899 194.5L176.399 193.4" stroke="#210049" stroke-width="1.6838" stroke-miterlimit="10" stroke-linecap="round" stroke-linejoin="round"/>
<path d="M179.399 191L180.999 189.9" stroke="#210049" stroke-width="1.6838" stroke-miterlimit="10" stroke-linecap="round" stroke-linejoin="round"/>
<path d="M180.3 195.2L179.1 193.7" stroke="#210049" stroke-width="1.6838" stroke-miterlimit="10" stroke-linecap="round" stroke-linejoin="round"/>
<path d="M176.8 190.7L175.6 189.2" stroke="#210049" stroke-width="1.6838" stroke-miterlimit="10" stroke-linecap="round" stroke-linejoin="round"/>
<path d="M131.7 176.4C133.412 176.4 134.8 175.012 134.8 173.3C134.8 171.588 133.412 170.2 131.7 170.2C129.988 170.2 128.6 171.588 128.6 173.3C128.6 175.012 129.988 176.4 131.7 176.4Z" fill="#210049"/>
<path d="M119.399 0.899902V50.4999" stroke="#210049" stroke-width="1.8" stroke-miterlimit="10" stroke-linecap="round" stroke-linejoin="round"/>
<path d="M130.899 38.5999C129.699 35.0999 126.399 32.5999 119.399 32.5999C112.399 32.5999 109.199 35.0999 107.899 38.5999C106.699 42.0999 99.6992 68.4999 99.6992 68.4999H119.399H139.099C139.099 68.3999 132.099 42.0999 130.899 38.5999Z" fill="#B4C8FF"/>
<path d="M121.2 32.5999C128.7 37.6999 132.2 58.0999 117.6 58.2999C110.1 58.3999 105 59.5999 101.8 60.9999C100.6 65.2999 99.7998 68.4999 99.7998 68.4999H119.5H139.2C139.2 68.4999 132.2 42.0999 131 38.5999C129.8 35.3999 126.9 32.9999 121.2 32.5999Z" fill="#4376FF"/>
<path d="M179.8 93.5998C175.7 91.3998 153.3 89.9998 119.4 89.9998C85.4997 89.9998 63.0997 91.4998 58.9997 93.5998C54.8997 95.7998 69.9997 98.2998 119.4 98.2998C168.8 98.2998 183.9 95.7998 179.8 93.5998Z" fill="#6991FF"/>
<path d="M161.5 69.4999C158.3 68.7999 152.9 67.5999 145 66.2999C128 63.5999 110.8 63.5999 93.8 66.2999C85.9 67.5999 80.5 68.7999 77.3 69.4999C69 71.1999 59 93.5999 59 93.5999C59 93.5999 64.5 89.9999 119.4 89.9999C174.3 89.9999 179.8 93.5999 179.8 93.5999C179.8 93.5999 169.8 71.1999 161.5 69.4999Z" fill="#B4C8FF"/>
<path d="M161.5 69.5C159.5 69.1 156.7 68.5 153.1 67.7C165.1 76.6 168 86.7 119.4 86.7C80.2 86.7 64.8 90.6 59.5 92.5C59.2 93.2 59 93.6 59 93.6C59 93.6 64.5 90 119.4 90C174.3 90 179.8 93.6 179.8 93.6C179.8 93.6 169.8 71.2 161.5 69.5Z" fill="#4376FF"/>
<path d="M179.8 93.5998C175.7 91.3998 153.3 89.9998 119.4 89.9998C85.4997 89.9998 63.0997 91.4998 58.9997 93.5998C54.8997 95.7998 69.9997 98.2998 119.4 98.2998C168.8 98.2998 183.9 95.7998 179.8 93.5998Z" stroke="#210049" stroke-width="1.8" stroke-miterlimit="10"/>
<path d="M107.199 90.8998V90.9998C107.199 97.7998 112.699 103.3 119.499 103.3C126.299 103.3 131.799 97.7998 131.799 90.9998V90.8998C127.899 90.8998 123.799 90.7998 119.599 90.7998C115.199 90.7998 111.099 90.7998 107.199 90.8998Z" fill="white"/>
<path d="M119.399 90.7998C115.199 90.7998 111.099 90.7998 107.199 90.8998V90.9998C107.199 91.8998 107.299 92.7998 107.499 93.5998C115.199 92.6998 138.199 90.7998 123.599 102.5C128.299 100.8 131.699 96.2998 131.699 90.9998V90.8998C127.699 90.7998 123.699 90.7998 119.399 90.7998Z" fill="#E9E6ED"/>
<path d="M134.8 90.0998C130 89.9998 124.9 89.9998 119.4 89.9998C113.7 89.9998 108.3 89.9998 103.3 90.0998" stroke="#210049" stroke-width="1.8" stroke-miterlimit="10"/>
</svg>
