<svg width="276" height="208" viewBox="0 0 276 208" fill="none" xmlns="http://www.w3.org/2000/svg">
<path d="M135.1 12.9C113.3 9.69997 98.9001 27.9 83.2001 43.3C65.6002 60.5 48.9002 64.8 29.2002 77.7C9.50015 90.6 -2.29985 107.6 0.40015 131.4C2.90015 154.3 19.4002 173.2 40.4002 176.1C59.4002 178.7 79.9001 169.3 98.6002 172.7C126.6 177.8 145.3 210.4 174.4 207.4C192.9 205.5 209 189.4 220.5 172.3C228.7 160 235.6 146.3 237.5 131.9C239.4 117.5 235.6 102.3 225.4 94.5C211.2 83.6 187.6 88.1 177.4 72.6C172.7 65.4 172.3 55.6 170 46.8C165.5 29.2 152 15.4 135.1 12.9Z" fill="#D9F5EC"/>
<path d="M77.3004 207.6L106.1 127.4L70.4004 114.8L34.9004 207.6" fill="#B4C8FF"/>
<path d="M243.8 106.9C245.4 105.3 245.4 102.3 247.4 101.2C248.7 100.5 250.3 100.9 251.6 101.4C254.1 102.3 256.6 103.3 258.9 104.5C262.1 106.1 265.3 108.2 266.9 111.4C268.7 114.7 269.301 116.6 266.201 118.8C263.201 121 258.6 123.3 255.2 122.1C251.6 120.8 248.6 118.4 245.9 115.6C244.3 113.9 242.8 112.1 242.4 109.8C242.1 107.6 242.2 108.6 243.8 106.9Z" fill="#4376FF"/>
<path d="M265.601 35.7999C267.201 36.0999 268.301 37.5999 268.001 39.0999L261.801 86.1999C261.701 87.7999 260.301 88.9999 258.601 88.8999L236.601 85.9999C235.001 85.6999 233.901 84.1999 234.201 82.6999L240.401 35.5999C240.501 33.9999 241.901 32.7999 243.601 32.8999L265.601 35.7999Z" fill="#43CEA2"/>
<path d="M268.501 36.1998C270.101 36.4998 271.201 37.9998 270.901 39.4998L264.701 86.5998C264.601 88.1998 263.201 89.3998 261.501 89.2998L239.501 86.3998C237.901 86.0998 236.801 84.5998 237.101 83.0998L243.301 35.9998C243.401 34.3998 244.801 33.1998 246.501 33.2998L268.501 36.1998Z" fill="#D9F5EC"/>
<path d="M250.3 37.7999C250.5 39.0999 249.6 40.3999 248.3 40.5999C247 40.7999 245.7 39.8999 245.5 38.5999C245.3 37.2999 246.2 35.9999 247.5 35.7999C248.8 35.4999 250.1 36.4999 250.3 37.7999Z" fill="#43CEA2"/>
<path d="M249.401 37.8998C249.501 38.7998 248.901 39.5998 248.101 39.6998C247.201 39.7998 246.401 39.1998 246.301 38.3998C246.201 37.4998 246.801 36.6998 247.601 36.5998C248.501 36.3998 249.301 36.9998 249.401 37.8998Z" fill="white"/>
<path d="M254.301 38.8999C254.401 39.6999 253.901 40.4999 253.001 40.5999C252.201 40.6999 251.401 40.1999 251.301 39.2999C251.201 38.4999 251.701 37.6999 252.601 37.5999C253.401 37.5999 254.101 38.0999 254.301 38.8999Z" fill="#43CEA2"/>
<path d="M254.501 43.5998C251.401 41.9998 247.701 45.2998 252.001 48.1998C256.201 50.9998 261.401 57.7998 261.401 57.7998C261.401 57.7998 252.801 52.6998 246.801 52.5998C242.601 52.5998 242.201 56.6998 246.901 57.9998C259.701 61.6998 263.901 66.6998 262.401 66.2998C260.201 65.6998 254.801 61.9998 247.201 61.4998C243.201 61.1998 242.901 65.8998 247.601 66.9998C254.501 68.5998 261.801 73.7998 261.101 75.3998C260.601 76.4998 256.801 71.6998 250.801 70.8998C248.401 70.5998 247.801 73.1998 250.401 74.3998C253.101 75.5998 256.401 79.2998 257.401 81.6998C258.301 83.9998 258.601 89.3998 259.401 91.1998C256.401 101 228.301 118.6 220.301 126.9C212.301 135.2 206.101 157 218.601 159.6C250.201 166.3 274.401 92.3998 274.701 91.8998C275.801 89.9998 273.601 66.3998 272.601 63.6998C271.801 61.3998 263.201 47.9998 254.501 43.5998Z" fill="white" stroke="#210049" stroke-width="1.8" stroke-miterlimit="10" stroke-linecap="round" stroke-linejoin="round"/>
<path d="M127.2 151.6C127.2 151.6 179.6 165.3 211.4 166.6L223.1 130.8L129.7 101L127.2 151.6Z" fill="#B4C8FF"/>
<path d="M124.3 98.5999C124.3 98.5999 159.2 105.7 167.7 135C170.3 143.9 172 207.7 172 207.7H70.4004C70.4004 207.7 92.5004 187.2 81.7004 167.3C70.8004 147.4 70.4004 117.3 96.9004 107.4L124.3 98.5999Z" fill="#B4C8FF"/>
<path d="M102.801 109.1C102.701 109 102.601 108.9 102.501 108.8C100.701 107 99.9006 104.6 99.8006 102.1C99.7006 100.4 100.901 98.3999 99.4006 96.9999C97.5006 95.2999 92.8006 96.0999 90.4006 95.2999C87.6006 94.3999 84.9006 93.0999 81.9006 93.0999C75.8006 92.9999 69.3006 98.8999 65.4006 103C62.7006 105.9 60.2006 109 58.2006 112.4C57.3006 113.8 56.5006 115.3 56.0006 116.9C53.8006 123.8 57.7006 131.1 65.3006 131.1C75.0006 131.1 81.9006 123.9 91.7006 124.3C98.9006 124.6 109.501 131 108.501 118.6C108.301 116.6 108.101 114.6 107.001 112.9C105.901 111.4 104.201 110.4 102.801 109.1Z" fill="#4376FF"/>
<path d="M117.5 151.8C119.157 151.8 120.5 150.457 120.5 148.8C120.5 147.143 119.157 145.8 117.5 145.8C115.843 145.8 114.5 147.143 114.5 148.8C114.5 150.457 115.843 151.8 117.5 151.8Z" fill="#4376FF"/>
<path d="M135.6 137.9C134.6 135.9 134.7 133 135.2 130.8C135.7 128.6 136.4 126.5 136.4 124.3C136.4 121 134.7 117.9 133.5 114.8C133.1 113.9 133 112.6 133.8 112.2" stroke="#4376FF" stroke-width="1.8" stroke-miterlimit="10" stroke-linecap="round" stroke-linejoin="round"/>
<path d="M135.601 141.7C137.257 141.7 138.601 140.357 138.601 138.7C138.601 137.043 137.257 135.7 135.601 135.7C133.944 135.7 132.601 137.043 132.601 138.7C132.601 140.357 133.944 141.7 135.601 141.7Z" fill="#4376FF"/>
<path d="M216.201 127.3C213.901 129.8 211.601 132.4 209.301 135C204.901 140 200.301 145.2 198.501 151.6C197.501 155 199.601 159.9 201.901 162.6C210.401 172.4 230.501 161.7 238.101 155.8C244.801 150.6 250.301 144 255.501 137.4C257.801 134.4 259.401 131.2 261.601 128.2C262.401 127.1 267.301 117.6 267.901 117.5C257.501 118.3 247.401 102.4 247.001 101.6C246.401 100.1 228.501 114.5 227.101 115.9C223.301 119.6 219.701 123.4 216.201 127.3Z" fill="#B4C8FF"/>
<path d="M75.8008 207.1C83.4008 195.4 88.8008 181.4 91.7008 167.7" stroke="#4376FF" stroke-width="1.8" stroke-miterlimit="10" stroke-linecap="round" stroke-linejoin="round"/>
<path d="M57.3001 33.3C66.0001 36.4 75.7001 31.8 78.8001 22.9C82.0001 14.1 77.5001 4.40003 68.8001 1.30003C60.0001 -1.79997 50.4001 2.80003 47.2001 11.7C44.1001 20.5 48.6001 30.2 57.3001 33.3Z" fill="#210049"/>
<path d="M68.0001 31.3002C71.4001 38.4002 79.8001 41.4002 86.9001 38.1002C94.0001 34.7002 97.0001 26.3002 93.7001 19.2002C90.4001 12.1002 81.9001 9.00015 74.8001 12.4002C67.7001 15.8002 64.7001 24.2002 68.0001 31.3002Z" fill="white"/>
<path d="M160.1 70.8C153.6 58.1 146.2 40.5 144.6 32.5999C144.2 30.5999 144.6 32.5999 144.6 32.5999L117.9 25C117.9 25 115.6 58 119.3 78.7L103.8 80.3L96.5998 36.2L94.1998 3.19995C56.8998 15.9 58.2998 62.4 58.2998 62.4C60.3998 92.7999 63.3998 105.6 82.0998 106C82.0998 106 82.3998 106 82.7998 106C83.5998 106 84.3998 106 85.2998 106C86.6998 105.9 87.9998 105.8 89.1998 105.7C99.8998 105 121.4 102.7 143.5 96C143.8 95.9 144.2 95.7999 144.5 95.7C144.6 95.7 144.8 95.6 144.9 95.6C156.1 91.7999 165.9 81.9 160.1 70.8Z" fill="#210049"/>
<path d="M144.599 32.5999C148.899 54.0999 134.199 70.1999 112.199 74.5999C90.1994 78.9999 72.2994 69.8999 68.0994 48.3999C63.7994 26.7999 78.2994 6.09992 100.199 1.39992C130.399 -5.00008 140.299 10.9999 144.599 32.5999Z" fill="#210049"/>
<path d="M125.899 68.0999C127.599 75.7999 129.399 83.4999 131.099 91.1999C131.799 94.2999 132.899 97.5999 133.299 100.8C133.999 107.4 128.399 113.3 121.799 114.8C115.399 116.3 105.599 113 102.799 106.7C100.499 101.5 100.499 94.0999 99.4994 88.4999C97.7994 78.5999 96.0994 68.7999 94.3994 58.8999L125.899 68.0999Z" fill="white"/>
<path d="M122.7 87.2C136.9 84.1 146 69.9 143.7 57.9L138.2 29.5C135.4 14.4 121.5 4.20001 106.8 6.40001C91.6997 8.70001 78.8997 23.5 81.2997 39L85.9997 61.8C89.4997 79.4 105.5 89.8 122.7 87.2Z" fill="white"/>
<path d="M127 53.5L129.6 60.5L126.1 61.4" stroke="#210049" stroke-width="1.8" stroke-miterlimit="10" stroke-linecap="round" stroke-linejoin="round"/>
<path d="M93.7994 34.0999C93.8994 35.1999 98.3994 53.1999 89.4994 61.5999C84.2994 66.4999 71.8994 44.4999 71.8994 44.4999L93.7994 34.0999Z" fill="#210049"/>
<path d="M75.8997 65.2999C76.6997 70.1999 81.0997 73.5999 85.8997 72.8999C90.6997 72.1999 93.8997 67.5999 93.1997 62.6999C92.3997 57.7999 87.9997 54.3999 83.1997 55.0999C78.3997 55.7999 75.1997 60.3999 75.8997 65.2999Z" fill="white"/>
<path d="M132.6 8.89995C132.6 8.89995 127.8 41.5 83.8998 44.2C83.8998 44.2 72.9998 51.3999 72.8998 39.5C72.7998 27.6 90.2998 6.49995 90.2998 6.49995L110.5 3.69995L132.6 8.89995Z" fill="#210049"/>
<path d="M111.3 9.7C111.3 9.7 134.6 11 138.2 29.5L138.1 17.5L128.1 6.6L123.9 4L115.1 3L111.3 9.7Z" fill="#210049"/>
<path d="M111.874 53.7891C113.316 53.4099 114.133 51.7603 113.697 50.1045C113.262 48.4488 111.74 47.4139 110.298 47.7931C108.856 48.1723 108.039 49.822 108.475 51.4777C108.91 53.1335 110.432 54.1684 111.874 53.7891Z" fill="#210049"/>
<path d="M137.198 49.5057C138.64 49.1265 139.456 47.4768 139.02 45.8211C138.585 44.1653 137.063 43.1305 135.621 43.5097C134.179 43.8889 133.363 45.5385 133.798 47.1943C134.233 48.8501 135.755 49.8849 137.198 49.5057Z" fill="#210049"/>
<path d="M131.3 71.2C127 72.7 122 72.3 118.1 70" stroke="#210049" stroke-width="1.8" stroke-miterlimit="10" stroke-linecap="round" stroke-linejoin="round"/>
<path d="M95.9002 79.8999C97.9002 88.8999 105.7 96.2999 114.7 97.7999C110.7 99.5999 106.1 100.1 101.8 98.9999C104.9 102.6 109.7 104.1 114.2 105.4C105.1 110.2 94.1002 108.7 83.9002 107.2C81.6002 106.9 79.3002 106.5 77.2002 105.6C71.1002 102.9 67.9002 95.1999 70.2002 88.9999" fill="#210049"/>
<path d="M130.6 85C129.9 85.3 129.1 85.7 128.4 86C125.5 87.1 122.5 87.7 119.4 87.7" stroke="#210049" stroke-width="1.8" stroke-miterlimit="10" stroke-linecap="round" stroke-linejoin="round"/>
<path d="M135.901 103.3C135.901 106.7 135.401 110.3 133.301 113C131.501 115.3 128.801 116.6 126.001 117.5C117.401 120.2 107.701 117.2 99.8008 113" stroke="#4376FF" stroke-width="1.8" stroke-miterlimit="10" stroke-linecap="round" stroke-linejoin="round"/>
<path d="M117 118.6C117.8 123.9 115.2 129.6 117.6 134.4C117.9 135 118.4 135.6 119 135.6C119.9 135.5 120.2 134.3 120 133.4C119.3 133.2 118.5 133.7 118.1 134.4C115.9 137.9 117 145.4 117.5 149.3" stroke="#4376FF" stroke-width="1.8" stroke-miterlimit="10" stroke-linecap="round" stroke-linejoin="round"/>
<path d="M107.76 68.0122C110.537 67.2819 112.447 65.3909 112.026 63.7886C111.604 62.1862 109.011 61.4793 106.234 62.2096C103.457 62.9399 101.547 64.8309 101.968 66.4333C102.389 68.0356 104.982 68.7425 107.76 68.0122Z" fill="#FFD5E3"/>
<path d="M144 60.2999C141.2 60.9999 138.7 60.2999 138.2 58.6999C137.7 57.0999 139.7 55.1999 142.4 54.4999C142.6 54.4999 142.8 54.3999 142.9 54.3999" fill="#FFD5E3"/>
</svg>
