<svg width="251" height="231" viewBox="0 0 251 231" fill="none" xmlns="http://www.w3.org/2000/svg">
<path fill-rule="evenodd" clip-rule="evenodd" d="M6.39974 102.9L77.2997 6.39991C81.5997 0.599907 89.5997 -1.60009 96.3997 1.19991L229.8 54.9999C237.9 58.2999 242.2 66.6999 240 74.6999L200.9 215C196.7 227.7 181.5 233.9 168.9 228L18.7997 152.1C-0.000257492 142.6 -5.80026 119.5 6.39974 102.9Z" fill="#D9F5EC"/>
<path d="M101.401 172.8C127.413 172.8 148.501 157.936 148.501 139.6C148.501 121.264 127.413 106.4 101.401 106.4C75.3882 106.4 54.3008 121.264 54.3008 139.6C54.3008 157.936 75.3882 172.8 101.401 172.8Z" fill="#4376FF"/>
<path d="M163.001 127.5C163.101 127.5 163.101 127.4 163.001 127.4C162.901 127.4 162.901 127.5 163.001 127.5Z" fill="#210049"/>
<path d="M33.1004 150.6C34.7004 149.3 37.4004 149.5 38.6004 147.8C39.3004 146.7 39.1004 145.2 38.8004 143.9C38.2004 141.5 37.5004 139.2 36.6004 136.9C35.4004 133.9 33.7004 130.8 31.0004 129C28.1004 127.1 24.2004 127.2 21.9004 129.8C19.6004 132.4 19.4004 135.6 20.2004 138.8C21.1004 142.2 23.1004 145.2 25.4004 147.8C26.8004 149.4 28.4004 150.9 30.4004 151.5C32.3004 152.1 31.5004 151.9 33.1004 150.6Z" fill="#4376FF"/>
<path d="M154.5 141.7L120.7 135.2L86.0004 135.7L51.1004 141.5C50.1004 141.9 49.2004 142.3 48.4004 142.8C48.9004 142.7 49.4004 142.6 49.9004 142.5C50.4004 142.4 50.9004 142.3 51.3004 142.6C51.9004 142.9 52.0004 143.7 52.1004 144.3C52.7004 150.1 51.8004 155.9 50.8004 161.7C50.5004 163.7 50.1004 165.7 49.8004 167.7L163.4 225.2L161.8 153.6C162.9 148.9 159 143.5 154.5 141.7Z" fill="#B4C8FF"/>
<path d="M87.3008 150.2V177.3" stroke="#4376FF" stroke-width="1.8" stroke-miterlimit="10" stroke-linecap="round" stroke-linejoin="round"/>
<path d="M87.3006 182C89.344 182 91.0006 180.343 91.0006 178.3C91.0006 176.256 89.344 174.6 87.3006 174.6C85.2571 174.6 83.6006 176.256 83.6006 178.3C83.6006 180.343 85.2571 182 87.3006 182Z" fill="#4376FF"/>
<path d="M119 149.4V168.2" stroke="#4376FF" stroke-width="1.8" stroke-miterlimit="10" stroke-linecap="round" stroke-linejoin="round"/>
<path d="M119 172.8C121.043 172.8 122.7 171.143 122.7 169.1C122.7 167.056 121.043 165.4 119 165.4C116.956 165.4 115.3 167.056 115.3 169.1C115.3 171.143 116.956 172.8 119 172.8Z" fill="#4376FF"/>
<path d="M83.1997 136.7C82.7997 142 85.1997 147.2 88.6997 151.3C92.2997 155.5 96.1998 158.1 101.9 157.8C110.5 157.4 117.6 153.8 120.5 145.3" stroke="#4376FF" stroke-width="1.8" stroke-miterlimit="10" stroke-linecap="round" stroke-linejoin="round"/>
<path d="M68.9998 150.2C77.1184 150.2 83.6998 145.768 83.6998 140.3C83.6998 134.832 77.1184 130.4 68.9998 130.4C60.8812 130.4 54.2998 134.832 54.2998 140.3C54.2998 145.768 60.8812 150.2 68.9998 150.2Z" fill="#4376FF"/>
<path d="M158.7 93.4999C155.7 81.9999 154.6 83.9999 144.3 61.0999C138.2 47.3999 133.5 41.8999 130.7 39.6999C130.7 39.6999 120.4 28.5999 101.9 28.5999C84.2999 28.5999 74.0999 39.1999 74.0999 39.1999C71.3999 40.9999 66.3999 46.1999 59.6999 61.1999C49.4999 84.0999 48.3999 81.9999 45.3999 93.4999C42.3999 105 46.1999 126.3 69.9999 130.4C69.9999 130.4 66.9999 127.4 65.8999 122.4C65.8999 122.4 75.7999 135.9 89.3999 135.1H115C128.5 135.9 138.5 122.4 138.5 122.4C137.4 127.4 134.4 130.4 134.4 130.4C157.8 126.3 161.7 105 158.7 93.4999Z" fill="#210049"/>
<path d="M86.5996 135.3C86.7996 142.5 90.8996 150.6 98.1996 152.9C105.5 155.1 116.2 148.9 118 141.4C120.2 131.9 119 114.4 119 114.4L86.0996 115.6L86.5996 135.3Z" fill="white"/>
<path d="M139.9 66.9998C139.9 87.8998 123.6 104.9 103.5 104.9C83.3996 105 67.0996 87.9998 67.0996 66.9998C67.0996 46.0998 83.3996 31.7998 103.5 31.7998C123.6 31.7998 139.9 46.0998 139.9 66.9998Z" fill="#210049"/>
<path d="M133.6 68.9999C133.6 82.0999 131.8 93.2999 130 101.3C128.2 109.1 123.2 114.6 116.2 119L114.9 119.8C107.4 124.5 97.7999 124.6 90.1999 120.1C82.4999 115.6 77.1999 109.6 75.4999 101.2C72.4999 85.8999 72.1999 68.9999 72.1999 68.9999C72.1999 68.9999 69.2999 35.9999 102.5 36.6999C135.6 37.2999 133.6 68.9999 133.6 68.9999Z" fill="white"/>
<path d="M75.7996 99.9998C69.9996 105 57.6996 84.9998 63.2996 79.6998C68.9996 74.2998 72.9996 82.9998 72.9996 82.9998L74.0996 89.2998L75.7996 97.7998L76.1996 99.6998L75.7996 99.9998Z" fill="white"/>
<path d="M130 100.1C135.9 105 147.9 84.8999 142.1 79.5999C136.4 74.2999 132.5 83.0999 132.5 83.0999L131.5 89.3999L129.9 97.8999L129.5 99.7999L130 100.1Z" fill="white"/>
<path d="M72.6 79.3C72.6 79.3 83.6 61.4 80.5 43.2C80.5 43.2 72.9 48.1 70.4 60.9C67.8 73.7 72.6 79.3 72.6 79.3Z" fill="#210049"/>
<path d="M134.2 79.5998C134.2 79.5998 120.5 60.0998 123.6 41.9998C123.6 41.9998 132 48.1998 134.6 60.8998C137.2 73.5998 134.2 79.5998 134.2 79.5998Z" fill="#210049"/>
<path d="M128.799 41.1999C128.799 41.1999 100.899 74.4999 70.3994 60.8999C70.3994 60.8999 63.5994 34.2999 100.399 31.8999L128.799 41.1999Z" fill="#210049"/>
<path d="M108.6 36.2C114.3 37.8 115.1 66.6 139.9 67L130.6 39.7L108.6 36.2Z" fill="#210049"/>
<path d="M133.9 150.2C142.019 150.2 148.6 145.768 148.6 140.3C148.6 134.832 142.019 130.4 133.9 130.4C125.782 130.4 119.2 134.832 119.2 140.3C119.2 145.768 125.782 150.2 133.9 150.2Z" fill="#4376FF"/>
<path d="M130.9 52.2C139.737 52.2 146.9 45.0365 146.9 36.2C146.9 27.3634 139.737 20.2 130.9 20.2C122.064 20.2 114.9 27.3634 114.9 36.2C114.9 45.0365 122.064 52.2 130.9 52.2Z" fill="#210049"/>
<path d="M98.9004 123.7C107.1 125.5 116.7 121 122.8 115.9" stroke="#210049" stroke-width="1.8" stroke-miterlimit="10" stroke-linecap="round" stroke-linejoin="round"/>
<path d="M122.9 100.6C125.496 100.6 127.6 99.3911 127.6 97.9C127.6 96.4088 125.496 95.2 122.9 95.2C120.304 95.2 118.2 96.4088 118.2 97.9C118.2 99.3911 120.304 100.6 122.9 100.6Z" fill="#FFD5E3"/>
<path d="M82.9002 101.5C85.4959 101.5 87.6002 100.291 87.6002 98.7999C87.6002 97.3087 85.4959 96.0999 82.9002 96.0999C80.3045 96.0999 78.2002 97.3087 78.2002 98.7999C78.2002 100.291 80.3045 101.5 82.9002 101.5Z" fill="#FFD5E3"/>
<path d="M93.7002 101.7C93.7002 101.7 94.9002 109.6 102.5 109.6C109.4 109.6 111.3 101.5 111.3 101.5L93.7002 101.7Z" stroke="#210049" stroke-width="1.8" stroke-miterlimit="10" stroke-linecap="round" stroke-linejoin="round"/>
<path d="M101.101 88.7V94.3H104.401" stroke="#210049" stroke-width="1.8" stroke-miterlimit="10" stroke-linecap="round" stroke-linejoin="round"/>
<path d="M86.8 87.6C88.3464 87.6 89.6 86.1673 89.6 84.4C89.6 82.6326 88.3464 81.2 86.8 81.2C85.2536 81.2 84 82.6326 84 84.4C84 86.1673 85.2536 87.6 86.8 87.6Z" fill="#210049"/>
<path d="M118.3 87.6C119.846 87.6 121.1 86.1673 121.1 84.4C121.1 82.6326 119.846 81.2 118.3 81.2C116.754 81.2 115.5 82.6326 115.5 84.4C115.5 86.1673 116.754 87.6 118.3 87.6Z" fill="#210049"/>
<path d="M38 147.9C35.4 151.1 32.3 154.2 29 157.2L42.5 164L42.6 157.6C41.1 151.8 43.6 145.9 48.4 142.8C44.3 143.6 40.2 144.8 36.3 146.3C37.1 147.1 37.7 147.6 38 147.9Z" fill="#B4C8FF"/>
<path d="M42.6001 157.6L42.5001 164L49.9001 167.7C50.2001 165.7 50.6001 163.7 50.9001 161.7C51.9001 156 52.8001 150.1 52.2001 144.3C52.1001 143.6 52.0001 142.9 51.4001 142.6C51.0001 142.4 50.5001 142.4 50.0001 142.5C49.5001 142.6 49.0001 142.7 48.5001 142.8C43.6001 146 41.1001 151.9 42.6001 157.6Z" fill="#B4C8FF"/>
<path d="M21.7002 153.6L28.9002 157.2C32.2002 154.3 35.3002 151.1 37.9002 147.9C37.6002 147.6 37.0002 147 36.2002 146.3C32.7002 147.6 29.4002 149.1 26.1002 150.9C24.7002 151.8 23.2002 152.7 21.7002 153.6Z" fill="#B4C8FF"/>
<path d="M82.2998 115.1C83.1998 115.5 84.8998 116.1 85.6998 115.3C86.7998 114.2 83.8998 112.4 83.0998 111.9C81.7998 111.2 80.4998 110.4 79.1998 109.7C78.2998 109.2 77.2998 108.6 76.2998 108.7" fill="white"/>
<path d="M82.2998 115.1C83.1998 115.5 84.8998 116.1 85.6998 115.3C86.7998 114.2 83.8998 112.4 83.0998 111.9C81.7998 111.2 80.4998 110.4 79.1998 109.7C78.2998 109.2 77.2998 108.6 76.2998 108.7" stroke="#210049" stroke-width="1.8" stroke-miterlimit="10" stroke-linecap="round" stroke-linejoin="round"/>
<path d="M78.7 116.6C80.2 117.1 81.7 117.4 83.2 117.4C83.5 116.9 83.3 116.1 82.9 115.7C82.5 115.3 82 114.9 81.4 114.5C80 113.5 78.8 112.3 77.7 111C76.8 110 75.9 109 74.8 108.4C73.6 107.8 72.1 107.6 71 108.4" fill="white"/>
<path d="M25.7 154.4C33.5 148.3 41.3 142.2 49.1 136.2C49.9 135.6 50.7 135 51.6 134.6C52.9 134 54.4 134 55.9 133.8C61.3 133.1 66.3 130.3 69.7 126C70.2 125.4 70.6 124.8 71.3 124.4C72.5 123.7 74 123.9 75.4 123.7C76.8 123.5 78.7 122.5 78.3 121.2C78.8 121.5 79.7 121.3 80.1 120.9C81 119.9 79.9 118.4 79.2 117.6C74.9 112.3 69.6 106.5 62.8 106.8C57.5 107 54.8 111 51.1 114.9C48 118.1 45 121.5 41.3 124C38.9 125.6 36.3 126.8 33.7 128C24.7 132.1 15.8 136.3 7 140.7" fill="white"/>
<path d="M78.2002 121.2C78.7002 121.5 79.6002 121.3 80.0002 120.9C80.9002 119.9 79.8002 118.4 79.1002 117.6C74.8002 112.3 69.5002 106.5 62.7002 106.8C57.4002 107 54.7002 111 51.0002 114.9C47.9002 118.1 44.9002 121.5 41.2002 124C38.8002 125.6 36.2002 126.8 33.6002 128C26.4002 131.3 19.3002 134.6 12.2002 138.1" stroke="#210049" stroke-width="1.8" stroke-miterlimit="10" stroke-linecap="round" stroke-linejoin="round"/>
<path d="M29.2998 151.7C31.3998 150.2 33.5998 148.6 35.6998 147.1C40.9998 143.4 45.5998 139.2 50.4998 135C50.8998 134.7 51.1998 134.4 51.6998 134.3C52.1998 134.2 52.6998 134.3 53.1998 134.4C61.4998 135.6 69.1998 128.4 73.5998 122.3" stroke="#210049" stroke-width="1.8" stroke-miterlimit="10" stroke-linecap="round" stroke-linejoin="round"/>
<path d="M57.0996 125.8C58.0996 123.4 59.1996 121 60.3996 118.7C60.4996 118.4 60.6996 118.1 60.9996 118C61.3996 117.8 61.7996 118 62.1996 118.2C66.6996 120.7 71.2996 123.4 76.3996 123.6C76.7996 123.6 77.1996 123.6 77.4996 123.4C78.3996 122.9 78.2996 121.6 77.6996 120.8C77.0996 120 76.0996 119.7 75.1996 119.3C71.9996 117.8 69.4996 115.2 67.0996 112.6" fill="white"/>
<path d="M57.0996 125.8C58.0996 123.4 59.1996 121 60.3996 118.7C60.4996 118.4 60.6996 118.1 60.9996 118C61.3996 117.8 61.7996 118 62.1996 118.2C66.6996 120.7 71.2996 123.4 76.3996 123.6C76.7996 123.6 77.1996 123.6 77.4996 123.4C78.3996 122.9 78.2996 121.6 77.6996 120.8C77.0996 120 76.0996 119.7 75.1996 119.3C71.9996 117.8 69.4996 115.2 67.0996 112.6" stroke="#210049" stroke-width="1.8" stroke-miterlimit="10" stroke-linecap="round" stroke-linejoin="round"/>
<path d="M78.6998 116.6C79.6998 117 80.3998 117.5 81.5998 117.5C82.4998 117.5 83.6998 117.2 83.2998 116.1C83.0998 115.4 81.9998 114.8 81.4998 114.5C80.0998 113.5 78.8998 112.3 77.7998 111C76.8998 110 75.9998 109 74.8998 108.4C73.6998 107.8 71.3998 107.7 70.2998 108.5" stroke="#210049" stroke-width="1.8" stroke-miterlimit="10" stroke-linecap="round" stroke-linejoin="round"/>
<path d="M18.7998 152.1L21.6998 153.6C23.1998 152.7 29.1998 158.1 30.6998 157.2C33.8998 155.4 37.1998 150.2 36.1998 146.4C32.3998 143 24.0998 135.5 25.3998 127.7C17.3998 130.5 13.4998 134.5 6.1998 138.6C5.6998 138.8 5.2998 139.1 4.7998 139.3C8.0998 144.5 12.7998 149 18.7998 152.1Z" fill="#B4C8FF"/>
<path d="M32.7002 158.1C33.4002 157.6 33.4002 157.6 34.1002 157.1C36.8002 155.3 40.5002 152.7 38.6002 148.9C38.1002 147.9 37.3002 147 36.5002 146.2" stroke="#4376FF" stroke-width="1.8" stroke-miterlimit="10" stroke-linecap="round" stroke-linejoin="round"/>
<path d="M181.1 157.8C178.3 156.1 175.5 154.3 172.6 152.7C165.2 148.7 157.2 145.8 148.9 144.3C148.4 144.2 147.9 144.1 147.5 144.4C146.9 144.7 146.8 145.5 146.7 146.1C146.1 151.9 147 157.7 148 163.5C149.1 170 150.2 176.5 151.3 183C152 187.1 153.6 192.8 155.8 196.5C158.5 201.1 164.6 202.1 169.9 202.5C190.5 204.2 211.6 204.9 231.3 198.9C232.9 198.4 234.6 197.8 235.7 196.5C237.4 194.2 234.6 190.3 234 187.9C233.2 184.8 232.3 181.7 230.8 178.8C229.3 175.9 227.1 173.4 224.1 172.1C221.6 171 218.8 170.9 216.1 170.8C210.6 170.6 203.5 171.8 198.6 168.4C193 164.5 186.9 161.3 181.1 157.8Z" fill="#B4C8FF"/>
<path d="M162.201 201.2C161.501 197.1 160.801 193 160.101 188.8" stroke="#4376FF" stroke-width="1.8" stroke-miterlimit="10" stroke-linecap="round" stroke-linejoin="round"/>
<path d="M165.7 152.3C164.1 151 160.7 155.3 159.5 153.5C158.8 152.4 158.6 148.1 158.9 146.8C159.5 144.4 161.4 140.9 162.3 138.7C163.5 135.7 165.2 132.6 167.9 130.8C170.8 128.9 174.7 129 177 131.6C179.3 134.2 179.5 137.4 178.7 140.6C177.8 144 175.8 147 173.5 149.6C172.1 151.2 170.5 152.7 168.5 153.3C166.5 153.8 167.4 153.7 165.7 152.3Z" fill="#4376FF"/>
<path d="M123.5 112.5C122.6 112.8 121.3 112.9 120.4 112.7C119.5 112.5 118.7 111.8 118.5 111C118.4 110.8 118.4 110.6 118.5 110.4C118.7 110 119.2 109.8 119.6 109.7C123.2 108.9 126.8 108.3 130.4 107.8" fill="white"/>
<path d="M168.7 152.4C168 151.7 167.3 151.1 166.6 150.5C161.7 146.1 155.9 142.8 150.7 138.8C145.4 134.8 140.5 130 138.2 123.8C137.8 122.6 137.4 121.4 136.7 120.4C135.3 118.6 130.3 116.1 128.1 115.7C126.9 115.5 120.5 118.1 120.7 115C120.8 114.2 121.5 113.7 122.1 113.3C128.1 109.5 134.4 105.6 141.5 105.4C143.6 105.3 145.7 105.7 147.4 106.8C151.6 109.7 154.7 116.1 157.5 120.3C159.4 123.1 161.1 126.8 164.1 128.4C165.6 129.2 167.3 129.8 168.9 130.5C173.7 132.6 178.1 135.4 182.6 138.1" fill="white"/>
<path d="M134.2 110.9C131 113.5 127.8 115.4 124.1 116.4C122.7 116.8 120.6 116.5 120.7 115C120.8 114.2 121.5 113.7 122.1 113.3C128.1 109.5 134.4 105.6 141.5 105.4C143.6 105.3 145.7 105.7 147.4 106.8C151.6 109.7 154.7 116.1 157.5 120.3C159.4 123.1 161.1 126.8 164.1 128.4C165.6 129.2 167.3 129.8 168.9 130.5C173.7 132.6 178.1 135.4 182.6 138.1" stroke="#210049" stroke-width="1.8384" stroke-miterlimit="10" stroke-linecap="round" stroke-linejoin="round"/>
<path d="M139.799 115.7C139.699 117.2 139.599 118.8 139.499 120.3C136.699 118.8 133.999 117.2 131.199 115.7C129.399 114.7 126.899 113.9 125.599 115.5C123.299 118.5 129.499 122.4 131.099 124.2C136.099 129.6 142.499 132.3 148.099 137C153.099 141.2 158.799 144.1 163.799 148.5C169.899 153.8 175.199 159.8 181.399 165.1" fill="white"/>
<path d="M139.799 115.7C139.699 117.2 139.599 118.8 139.499 120.3C136.699 118.8 133.999 117.2 131.199 115.7C129.399 114.7 126.899 113.9 125.599 115.5C123.299 118.5 129.499 122.4 131.099 124.2C136.099 129.6 142.499 132.3 148.099 137C153.099 141.2 158.799 144.1 163.799 148.5C169.899 153.8 175.199 159.8 181.399 165.1" stroke="#210049" stroke-width="1.8" stroke-miterlimit="10" stroke-linecap="round" stroke-linejoin="round"/>
<path d="M123.1 112.4C122.2 112.7 121.3 112.9 120.4 112.7C119.5 112.5 118.7 111.8 118.5 111C118.4 110.8 118.4 110.6 118.5 110.4C118.7 110 119.2 109.8 119.6 109.7C123.2 108.9 129 108 132.6 107.5" stroke="#210049" stroke-width="1.8" stroke-miterlimit="10" stroke-linecap="round" stroke-linejoin="round"/>
<path d="M145.099 126.4C143.799 123.6 143.899 120.8 143.999 117.8C143.999 117.4 143.899 113.7 144.199 113.6C141.699 114.5 139.199 115.4 136.699 116.2C135.799 116.5 134.899 116.8 134.399 117.6C133.999 118.2 133.799 119 133.699 119.7C133.399 120.9 132.999 122 132.399 123C131.999 123.7 131.599 124.3 130.899 124.6C130.199 124.9 129.199 124.6 128.999 123.8C128.899 123.5 128.999 123.2 129.099 122.9C129.699 120.1 130.299 117.3 130.899 114.5C131.199 113.2 131.999 112.3 133.099 111.5C134.199 110.7 135.499 110.3 136.799 109.8C138.599 109.1 140.499 108.5 142.299 107.8" fill="white"/>
<path d="M145.099 126.4C143.799 123.6 143.899 120.8 143.999 117.8C143.999 117.4 143.899 113.7 144.199 113.6C141.699 114.5 139.199 115.4 136.699 116.2C135.799 116.5 134.899 116.8 134.399 117.6C133.999 118.2 133.799 119 133.699 119.7C133.399 120.9 132.999 122 132.399 123C131.999 123.7 131.599 124.3 130.899 124.6C130.199 124.9 129.199 124.6 128.999 123.8C128.899 123.5 128.999 123.2 129.099 122.9C129.699 120.1 130.299 117.3 130.899 114.5C131.199 113.2 131.999 112.3 133.099 111.5C134.199 110.7 135.499 110.3 136.799 109.8C138.599 109.1 140.499 108.5 142.299 107.8" stroke="#210049" stroke-width="1.8" stroke-miterlimit="10" stroke-linecap="round" stroke-linejoin="round"/>
<path d="M159.601 153.6C166.701 162.4 179.001 168.8 188.601 174.6C192.501 176.9 196.401 176.7 200.101 179.3C203.301 181.6 206.201 184.3 209.401 186.7C215.601 191.4 222.701 194.8 230.301 196.6C231.501 196.9 232.701 197.1 233.901 196.9C236.601 196.4 238.401 193.7 239.401 191.1C242.001 184.3 241.501 176.5 238.301 170.1C232.401 158.5 219.101 153.1 207.301 147.6C202.401 145.3 197.601 142.9 192.801 140.3C185.501 136.3 181.601 132.2 173.601 129.4C174.901 138.9 161.101 151.8 159.601 153.6Z" fill="#B4C8FF"/>
<path d="M198.9 181.2C190.8 176.7 182.6 172.2 175 166.8C171.5 164.3 168.3 161.3 164.8 158.9C162.1 157.1 158.4 154.5 160.3 150.7" stroke="#4376FF" stroke-width="1.8" stroke-miterlimit="10" stroke-linecap="round" stroke-linejoin="round"/>
<path opacity="0.4" d="M97.1266 121.316C98.71 114.653 94.5923 107.968 87.9296 106.385C81.2668 104.802 74.5821 108.919 72.9987 115.582C71.4154 122.245 75.5331 128.93 82.1958 130.513C88.8585 132.096 95.5433 127.979 97.1266 121.316Z" fill="white"/>
<path opacity="0.4" d="M131.8 121.496C133.384 114.833 129.266 108.149 122.603 106.565C115.941 104.982 109.256 109.1 107.673 115.762C106.089 122.425 110.207 129.11 116.87 130.693C123.532 132.277 130.217 128.159 131.8 121.496Z" fill="white"/>
<path d="M97.1266 121.316C98.71 114.653 94.5923 107.968 87.9296 106.385C81.2668 104.802 74.5821 108.919 72.9987 115.582C71.4154 122.245 75.5331 128.93 82.1958 130.513C88.8585 132.096 95.5433 127.979 97.1266 121.316Z" stroke="#FF2F73" stroke-width="2.2688" stroke-miterlimit="10"/>
<path d="M129.934 126.324C134.185 120.955 133.278 113.156 127.909 108.905C122.54 104.655 114.741 105.561 110.491 110.93C106.24 116.299 107.146 124.098 112.516 128.349C117.885 132.599 125.683 131.693 129.934 126.324Z" stroke="#FF2F73" stroke-width="2.2688" stroke-miterlimit="10"/>
<path d="M97.5 119.6C97.5 119.6 101.9 112.9 107.8 119.6" stroke="#FF2F73" stroke-width="2.2688" stroke-miterlimit="10"/>
</svg>
