<svg width="134" height="228" viewBox="0 0 134 228" fill="none" xmlns="http://www.w3.org/2000/svg">
<path d="M20.0004 125.2C20.6004 124.9 21.1004 124.6 21.8004 124.4L52.2004 119.3L82.5004 118.9L112 124.5C112.2 124.6 112.5 124.7 112.7 124.8C112.7 124.8 118.3 122.7 127.6 143.2V19.7999C127.6 12.0999 121.4 5.8999 113.7 5.8999H20.3004C12.6004 5.8999 6.40039 12.0999 6.40039 19.7999V144C14.7004 123.4 20.0004 125.2 20.0004 125.2Z" fill="#D9F5EC"/>
<path d="M65.6996 151.7C88.3985 151.7 106.8 138.716 106.8 122.7C106.8 106.684 88.3985 93.7002 65.6996 93.7002C43.0007 93.7002 24.5996 106.684 24.5996 122.7C24.5996 138.716 43.0007 151.7 65.6996 151.7Z" fill="#4376FF"/>
<path d="M112.799 124.9C116.199 126.7 118.099 130.5 117.299 134.4L109.399 221.2H113.799C121.499 221.2 127.699 215 127.699 207.3V143.4C118.399 122.8 112.799 124.9 112.799 124.9Z" fill="#B4C8FF"/>
<path d="M19.9998 125.2C19.9998 125.2 14.6998 123.4 6.2998 144V207.2C6.2998 214.9 12.4998 221.1 20.1998 221.1H23.7998L14.2998 138.4C12.9998 133.2 15.3998 127.8 19.9998 125.2Z" fill="#B4C8FF"/>
<path d="M112.8 124.9C112.6 124.8 112.3 124.7 112.1 124.6L82.5996 119L52.2996 119.4L21.8996 124.5C21.2996 124.7 20.6996 125 20.0996 125.3L33.7996 176.5L25.5996 221.3H107.3L99.0996 176.5L112.8 124.9Z" fill="#B4C8FF"/>
<path d="M112.8 124.9L99.0996 176.4L107.3 221.2H109.3L117.2 134.4C118.1 130.5 116.3 126.7 112.8 124.9Z" fill="#B4C8FF"/>
<path d="M19.9994 125.2C15.3994 127.8 12.9994 133.2 14.2994 138.4L23.7994 221.1H25.4994L33.6994 176.3L19.9994 125.2Z" fill="#B4C8FF"/>
<path d="M91.5 46.5C99.232 46.5 105.5 40.232 105.5 32.5C105.5 24.768 99.232 18.5 91.5 18.5C83.768 18.5 77.5 24.768 77.5 32.5C77.5 40.232 83.768 46.5 91.5 46.5Z" fill="#210049"/>
<path d="M115.7 82.4998C113 72.3998 112.1 74.1998 103.2 54.1998C97.8996 42.2998 93.7996 37.4998 91.2996 35.4998C91.2996 35.4998 82.2996 25.7998 66.1996 25.7998C50.7996 25.7998 41.8996 34.9998 41.8996 34.9998C39.5996 36.5998 35.1996 41.0998 29.2996 54.1998C20.3996 74.1998 19.3996 72.3998 16.7996 82.4998C14.0996 92.5998 17.4996 111.1 38.1996 114.7C38.1996 114.7 35.4996 112 34.5996 107.7C34.5996 107.7 43.2996 119.5 55.0996 118.8H77.3996C89.1996 119.5 97.8996 107.7 97.8996 107.7C96.8996 112 94.2996 114.7 94.2996 114.7C115 111.1 118.4 92.4998 115.7 82.4998Z" fill="#210049"/>
<path d="M78.5 28C82.5 29.1667 92.1 34.1 98.5 44.5C97 39.1667 90.9 28.4 78.5 28Z" fill="white"/>
<path d="M52.7998 119C52.7998 119 52.6998 127.4 58.1998 131.4C65.3998 136.7 77.7998 134.3 80.1998 124.3C82.1998 116 80.9998 100.7 80.9998 100.7L52.2998 101.8L52.7998 119Z" fill="white"/>
<path d="M99.3998 59.3998C99.3998 77.6998 85.1998 92.4998 67.5998 92.4998C49.9998 92.4998 35.7998 77.6998 35.7998 59.3998C35.7998 41.0998 49.9998 28.6998 67.5998 28.6998C85.0998 28.5998 99.3998 41.0998 99.3998 59.3998Z" fill="#210049"/>
<path d="M93.7993 61.0999C93.7993 72.4999 92.1993 82.2999 90.5993 89.2999C88.9993 96.0999 84.6993 100.9 78.4993 104.8L77.3993 105.5C70.8993 109.6 62.4993 109.7 55.7993 105.7C49.0993 101.7 44.3993 96.4999 42.9993 89.1999C40.3993 75.8999 40.0993 61.0999 40.0993 61.0999C40.0993 61.0999 37.5993 32.2999 66.4993 32.8999C95.5993 33.3999 93.7993 61.0999 93.7993 61.0999Z" fill="white"/>
<path d="M43.3995 88.0997C38.2995 92.4997 27.5995 75.0997 32.4995 70.3997C37.3995 65.6997 40.8995 73.2997 40.8995 73.2997L41.8995 78.7997L43.3995 86.1997L43.7995 87.8997L43.3995 88.0997Z" fill="white"/>
<path d="M90.6992 88.1998C95.8992 92.4998 106.299 74.8998 101.299 70.2998C96.2992 65.6998 92.8992 73.3998 92.8992 73.3998L91.9992 78.8998L90.5992 86.2998L90.1992 87.9998L90.6992 88.1998Z" fill="white"/>
<path d="M40.5992 70C40.5992 70 50.1992 54.4 47.4992 38.5C47.4992 38.5 40.8992 42.8 38.6992 54C36.3992 65.2 40.5992 70 40.5992 70Z" fill="#210049"/>
<path d="M94.2994 70.3C94.2994 70.3 82.3994 53.3 84.9994 37.5C84.9994 37.5 92.2994 42.9 94.5994 54C96.8994 65.1 94.2994 70.3 94.2994 70.3Z" fill="#210049"/>
<path d="M89.6001 36.7997C89.6001 36.7997 65.3001 65.8997 38.6001 53.9997C38.6001 53.9997 32.7001 30.7997 64.8001 28.6997L89.6001 36.7997Z" fill="#210049"/>
<path d="M72 32.5C77 33.9 77.7 59 99.3 59.4L91.2 35.6L72 32.5Z" fill="#210049"/>
<path d="M84.4994 88.6999C86.7638 88.6999 88.5994 87.6254 88.5994 86.2999C88.5994 84.9744 86.7638 83.8999 84.4994 83.8999C82.235 83.8999 80.3994 84.9744 80.3994 86.2999C80.3994 87.6254 82.235 88.6999 84.4994 88.6999Z" fill="#FFD5E3"/>
<path d="M49.6 89.5002C51.8644 89.5002 53.7 88.4257 53.7 87.1002C53.7 85.7747 51.8644 84.7002 49.6 84.7002C47.3356 84.7002 45.5 85.7747 45.5 87.1002C45.5 88.4257 47.3356 89.5002 49.6 89.5002Z" fill="#FFD5E3"/>
<path d="M58.7998 89.6004C58.7998 89.6004 59.7998 96.5004 66.4998 96.5004C72.5998 96.5004 74.1998 89.4004 74.1998 89.4004L58.7998 89.6004Z" stroke="#210049" stroke-width="1.8" stroke-miterlimit="10" stroke-linecap="round" stroke-linejoin="round"/>
<path d="M65.2998 78.3003V83.2003H68.1998" stroke="#210049" stroke-width="1.8" stroke-miterlimit="10" stroke-linecap="round" stroke-linejoin="round"/>
<path d="M52.7994 77.3002C54.1249 77.3002 55.1994 76.0466 55.1994 74.5002C55.1994 72.9538 54.1249 71.7002 52.7994 71.7002C51.4739 71.7002 50.3994 72.9538 50.3994 74.5002C50.3994 76.0466 51.4739 77.3002 52.7994 77.3002Z" fill="#210049"/>
<path d="M80.399 77.3002C81.7245 77.3002 82.799 76.0466 82.799 74.5002C82.799 72.9538 81.7245 71.7002 80.399 71.7002C79.0735 71.7002 77.999 72.9538 77.999 74.5002C77.999 76.0466 79.0735 77.3002 80.399 77.3002Z" fill="#210049"/>
<path d="M63.5 108.8C70.7 110.4 79 106.4 84.4 102" stroke="#210049" stroke-width="1.8" stroke-miterlimit="10" stroke-linecap="round" stroke-linejoin="round"/>
<path d="M54.7002 163.4C52.2002 162.6 50.7002 159.8 50.7002 157.1C50.7002 153.2 53.0002 150.3 54.4002 146.9C56.0002 143.1 54.9002 135.8 53.4002 131.9" stroke="#4376FF" stroke-width="1.8" stroke-miterlimit="10" stroke-linecap="round" stroke-linejoin="round"/>
<path d="M53.4002 168.4C55.1675 168.4 56.6002 166.967 56.6002 165.2C56.6002 163.433 55.1675 162 53.4002 162C51.6329 162 50.2002 163.433 50.2002 165.2C50.2002 166.967 51.6329 168.4 53.4002 168.4Z" fill="#4376FF"/>
<path d="M81.0996 131.3V147.6" stroke="#4376FF" stroke-width="1.8" stroke-miterlimit="10" stroke-linecap="round" stroke-linejoin="round"/>
<path d="M81.0994 151.7C82.8667 151.7 84.2994 150.267 84.2994 148.5C84.2994 146.732 82.8667 145.3 81.0994 145.3C79.3321 145.3 77.8994 146.732 77.8994 148.5C77.8994 150.267 79.3321 151.7 81.0994 151.7Z" fill="#4376FF"/>
<path d="M37.3996 131.9C44.4689 131.9 50.1996 128.05 50.1996 123.3C50.1996 118.551 44.4689 114.7 37.3996 114.7C30.3304 114.7 24.5996 118.551 24.5996 123.3C24.5996 128.05 30.3304 131.9 37.3996 131.9Z" fill="#4376FF"/>
<path d="M94.0998 131.9C101.169 131.9 106.9 128.05 106.9 123.3C106.9 118.551 101.169 114.7 94.0998 114.7C87.0306 114.7 81.2998 118.551 81.2998 123.3C81.2998 128.05 87.0306 131.9 94.0998 131.9Z" fill="#4376FF"/>
<path d="M29.9996 173.5C27.9996 189.3 25.6996 204.1 23.0996 219.8" stroke="#4376FF" stroke-width="1.8" stroke-miterlimit="10" stroke-linecap="round" stroke-linejoin="round"/>
<path d="M103 171.9C105.9 188.7 108.8 203.6 111.7 220.4" stroke="#4376FF" stroke-width="1.8" stroke-miterlimit="10" stroke-linecap="round" stroke-linejoin="round"/>
<path d="M113.8 226.7H20.2002C9.5002 226.7 0.700195 218 0.700195 207.2V20.1998C0.800195 9.49981 9.5002 0.799805 20.2002 0.799805H113.8C124.5 0.799805 133.3 9.4998 133.3 20.2998V207.3C133.3 218 124.5 226.7 113.8 226.7Z" stroke="#210049" stroke-width="1.5" stroke-miterlimit="10" stroke-linecap="round" stroke-linejoin="round"/>
<path d="M91.1006 14.9H42.9006C37.2006 14.9 32.6006 10.3 32.6006 4.6V2H101.401V4.6C101.401 10.3 96.8006 14.9 91.1006 14.9Z" fill="white"/>
<path opacity="0.4" d="M77.4006 197.6C77.4006 203.4 72.7006 208 67.0006 208C61.2006 208 56.6006 203.3 56.6006 197.6C56.6006 191.8 61.3006 187.2 67.0006 187.2C72.8006 187.2 77.4006 191.9 77.4006 197.6Z" fill="white"/>
<path d="M83.4006 197.7C83.4006 206.8 76.1006 214.1 67.0006 214.1C57.9006 214.1 50.6006 206.8 50.6006 197.7C50.6006 188.6 57.9006 181.3 67.0006 181.3C76.1006 181.3 83.4006 188.7 83.4006 197.7Z" stroke="white" stroke-width="2.1364" stroke-miterlimit="10"/>
<path d="M39 27H22.5V41.8" stroke="white" stroke-width="1.526" stroke-miterlimit="10" stroke-linecap="round" stroke-linejoin="round"/>
<path d="M111.5 41.8V27H95" stroke="white" stroke-width="1.526" stroke-miterlimit="10" stroke-linecap="round" stroke-linejoin="round"/>
<path d="M22.5 124.4V139.3H39" stroke="white" stroke-width="1.526" stroke-miterlimit="10" stroke-linecap="round" stroke-linejoin="round"/>
<path d="M95 139.3H111.5V124.4" stroke="white" stroke-width="1.526" stroke-miterlimit="10" stroke-linecap="round" stroke-linejoin="round"/>
<path d="M49.8 120.2C49.1 129.2 56.3 137.5 65 138.9C73.2 140.2 79.8 135.5 82.4 127.7" stroke="#4376FF" stroke-width="1.8" stroke-miterlimit="10" stroke-linecap="round" stroke-linejoin="round"/>
</svg>
