<svg width="304" height="304" viewBox="0 0 304 304" fill="none" xmlns="http://www.w3.org/2000/svg">
<g clip-path="url(#clip0_362_14693)">
<path d="M181.954 0H78.5454C69.0742 0 61.4111 7.7401 61.4111 17.1142V267.893C61.4111 277.268 69.1603 285.008 78.5454 285.008H181.954C191.339 285.008 199.088 277.268 199.088 267.893V17.1142C199.088 7.7401 191.339 0 181.954 0ZM192.544 251.467C192.544 260.153 185.484 267.205 176.788 267.205H82.2478C73.5515 267.205 66.4911 260.153 66.4911 251.467V20.2103C66.4911 11.5241 73.5515 4.47206 82.2478 4.47206H176.788C185.484 4.47206 192.544 11.5241 192.544 20.2103V251.467Z" fill="#210049" stroke="#210049" stroke-width="0.813478" stroke-miterlimit="10"/>
<path d="M178.165 4.47266H82.4201C73.6377 4.47266 66.4912 11.5247 66.4912 20.2109V251.554C66.4912 260.24 73.6377 267.292 82.4201 267.292H178.165C186.948 267.292 194.094 260.24 194.094 251.554V20.2109C194.094 11.5247 186.948 4.47266 178.165 4.47266Z" fill="white" stroke="#210049" stroke-width="0.813478" stroke-miterlimit="10"/>
<path d="M61.9275 49.9657H61.2386C60.0332 49.9657 59 48.9337 59 47.7297V40.4196C59 39.2156 60.0332 38.1836 61.2386 38.1836H61.9275C63.1329 38.1836 64.1661 39.2156 64.1661 40.4196V47.7297C64.2522 48.9337 63.219 49.9657 61.9275 49.9657Z" fill="#210049" stroke="#210049" stroke-width="0.813478" stroke-miterlimit="10"/>
<path d="M61.669 79.8083C60.2053 79.8083 59.0859 78.6043 59.0859 77.2283V61.6621C59.0859 60.2 60.2914 59.082 61.669 59.082C63.1327 59.082 64.252 60.286 64.252 61.6621V77.2283C64.252 78.6903 63.0466 79.8083 61.669 79.8083Z" fill="#210049" stroke="#210049" stroke-width="0.813478" stroke-miterlimit="10"/>
<path d="M200.379 79.8093C198.915 79.8093 197.796 78.6053 197.796 77.2292V47.1289C197.796 45.6668 199.001 44.5488 200.379 44.5488C201.843 44.5488 202.962 45.7528 202.962 47.1289V77.2292C202.962 78.6913 201.757 79.8093 200.379 79.8093Z" fill="#210049" stroke="#210049" stroke-width="0.813478" stroke-miterlimit="10"/>
<path d="M61.669 105.265C60.2053 105.265 59.0859 104.061 59.0859 102.685V87.1191C59.0859 85.6571 60.2914 84.5391 61.669 84.5391C63.1327 84.5391 64.252 85.7431 64.252 87.1191V102.685C64.252 104.061 63.0466 105.265 61.669 105.265Z" fill="#210049" stroke="#210049" stroke-width="0.813478" stroke-miterlimit="10"/>
<rect x="96.7129" y="273.053" width="70.6035" height="4.30005" rx="2.15003" fill="white"/>
<mask id="mask0_362_14693" style="mask-type:alpha" maskUnits="userSpaceOnUse" x="66" y="5" width="129" height="264">
<path d="M178.493 5.28711H82.3965C73.5819 5.28711 66.4092 12.3506 66.4092 21.0507V252.767C66.4092 261.467 73.5819 268.531 82.3965 268.531H178.493C187.308 268.531 194.481 261.467 194.481 252.767V21.0507C194.481 12.3506 187.308 5.28711 178.493 5.28711Z" fill="white"/>
</mask>
<g mask="url(#mask0_362_14693)">
<g clip-path="url(#clip1_362_14693)">
<rect width="176.244" height="312.956" transform="translate(64.292 -38.0586)" fill="white"/>
<path fill-rule="evenodd" clip-rule="evenodd" d="M240.531 274.896L219.385 231.424L166.075 246.36L240.531 274.896Z" fill="#F3FDFD"/>
<g style="mix-blend-mode:multiply">
<path fill-rule="evenodd" clip-rule="evenodd" d="M64.2969 252.779L116.625 227.382L64.2918 207.365L64.2969 252.779Z" fill="#F3FDFD"/>
</g>
<g style="mix-blend-mode:multiply">
<path fill-rule="evenodd" clip-rule="evenodd" d="M64.2966 274.897L166.076 246.346L116.611 227.381L64.2966 252.782V274.897Z" fill="#EDFCFC"/>
</g>
<g style="mix-blend-mode:multiply">
<path d="M140.189 181.514L64.7812 274.897H240.046L143.599 181.307C142.622 180.36 141.043 180.456 140.189 181.514Z" fill="#F9FEFE"/>
</g>
<g style="mix-blend-mode:multiply">
<path fill-rule="evenodd" clip-rule="evenodd" d="M64.2968 274.898H240.541L166.078 246.348L64.2968 274.898Z" fill="#E7FBFA"/>
</g>
</g>
<g filter="url(#filter0_d_362_14693)">
<rect x="75.9346" y="68.2461" width="19.5827" height="19.5598" rx="3.70029" fill="white"/>
</g>
<g clip-path="url(#clip2_362_14693)">
<path d="M83.2773 70.6914H84.0117C84.0766 70.6914 84.1389 70.7172 84.1848 70.763C84.2307 70.8089 84.2565 70.8711 84.2565 70.9359C84.2565 71.0656 84.3081 71.19 84.3999 71.2817C84.4917 71.3734 84.6162 71.4249 84.746 71.4249H86.7043C86.8342 71.4249 86.9587 71.3734 87.0505 71.2817C87.1423 71.19 87.1939 71.0656 87.1939 70.9359C87.1939 70.8711 87.2197 70.8089 87.2656 70.763C87.3115 70.7172 87.3737 70.6914 87.4387 70.6914H88.173" stroke="#742FE1" stroke-width="0.693804" stroke-linecap="round" stroke-linejoin="round"/>
<ellipse cx="85.7259" cy="83.405" rx="0.489567" ry="0.488994" fill="#742FE1"/>
<path d="M88.1739 70.6914H83.2783C82.4671 70.6914 81.8096 71.3482 81.8096 72.1584V83.8943C81.8096 84.7044 82.4671 85.3612 83.2783 85.3612H88.1739C88.9851 85.3612 89.6426 84.7044 89.6426 83.8943V72.1584C89.6426 71.3482 88.9851 70.6914 88.1739 70.6914Z" stroke="#210049" stroke-width="0.693804" stroke-linecap="round" stroke-linejoin="round"/>
</g>
<g filter="url(#filter1_d_362_14693)">
<rect x="162.099" y="68.2461" width="19.5827" height="19.5598" rx="3.70029" fill="white"/>
</g>
<path d="M169.932 83.4082L173.848 83.4082" stroke="#742FE1" stroke-width="0.693804" stroke-linecap="round"/>
<path d="M166.994 78.5176H176.785" stroke="#742FE1" stroke-width="0.693804"/>
<path d="M166.852 73.0595C166.852 72.4847 167.318 72.0188 167.892 72.0188H175.888C176.463 72.0188 176.928 72.4847 176.928 73.0595V80.1171C176.928 81.2027 176.048 82.0828 174.963 82.0828H168.818C167.732 82.0828 166.852 81.2027 166.852 80.1171V73.0595Z" stroke="#210049" stroke-width="0.693804"/>
<path d="M169.212 79.9851C169.212 80.1272 169.096 80.2428 168.953 80.2428C168.811 80.2428 168.695 80.1272 168.695 79.9851C168.695 79.843 168.811 79.7274 168.953 79.7274C169.096 79.7274 169.212 79.843 169.212 79.9851Z" fill="#210049" stroke="#210049" stroke-width="0.462536"/>
<path d="M175.086 79.9851C175.086 80.1272 174.97 80.2428 174.827 80.2428C174.685 80.2428 174.569 80.1272 174.569 79.9851C174.569 79.843 174.685 79.7274 174.827 79.7274C174.97 79.7274 175.086 79.843 175.086 79.9851Z" fill="#210049" stroke="#210049" stroke-width="0.462536"/>
<path d="M176.593 84.2077C176.692 84.372 176.639 84.5851 176.475 84.6838C176.31 84.7824 176.097 84.7292 175.999 84.565L176.593 84.2077ZM175.125 81.7628L176.593 84.2077L175.999 84.565L174.53 82.12L175.125 81.7628Z" fill="#210049"/>
<path d="M167.187 84.2077C167.088 84.372 167.142 84.5851 167.306 84.6838C167.47 84.7824 167.683 84.7292 167.782 84.565L167.187 84.2077ZM168.656 81.7628L167.187 84.2077L167.782 84.565L169.25 82.12L168.656 81.7628Z" fill="#210049"/>
<g filter="url(#filter2_d_362_14693)">
<rect x="119.017" y="68.2461" width="19.5827" height="19.5598" rx="3.70029" fill="white"/>
</g>
<path d="M128.803 72.4648L128.803 83.5163" stroke="#742FE1" stroke-width="0.693804"/>
<path d="M129.118 72.2051L134.307 83.4733C134.423 83.7246 134.212 84.0036 133.939 83.9612L128.963 83.1891C128.857 83.1727 128.749 83.1727 128.643 83.1891L123.667 83.9612C123.394 84.0036 123.183 83.7246 123.299 83.4733L128.488 72.2051C128.612 71.936 128.994 71.936 129.118 72.2051Z" stroke="#210049" stroke-width="0.693804" stroke-linecap="round" stroke-linejoin="round"/>
<g filter="url(#filter3_d_362_14693)">
<rect x="75.9346" y="113.234" width="19.5827" height="19.5598" rx="3.70029" fill="white"/>
</g>
<path d="M85.7256 120.082V128.884" stroke="#742FE1" stroke-width="0.693804" stroke-linecap="round" stroke-linejoin="round"/>
<path d="M85.726 120.08C86.2156 118.15 88.0646 117.165 92.0904 117.146C92.1547 117.146 92.2185 117.159 92.278 117.183C92.3375 117.208 92.3916 117.244 92.4371 117.289C92.4826 117.335 92.5187 117.389 92.5432 117.448C92.5677 117.508 92.5802 117.571 92.58 117.635V126.437C92.58 126.567 92.5284 126.691 92.4366 126.783C92.3448 126.875 92.2202 126.926 92.0904 126.926C88.1738 126.926 86.6608 127.715 85.726 128.882C84.7968 127.721 83.2782 126.926 79.3616 126.926C79.0593 126.926 78.8721 126.68 78.8721 126.378V117.635C78.8718 117.571 78.8843 117.508 78.9088 117.448C78.9334 117.389 78.9694 117.335 79.0149 117.289C79.0604 117.244 79.1145 117.208 79.174 117.183C79.2335 117.159 79.2973 117.146 79.3616 117.146C83.3874 117.165 85.2364 118.15 85.726 120.08Z" stroke="#210049" stroke-width="0.693804" stroke-linecap="round" stroke-linejoin="round"/>
<g filter="url(#filter4_d_362_14693)">
<rect x="162.099" y="113.234" width="19.5827" height="19.5598" rx="3.70029" fill="white"/>
</g>
<path d="M171.89 116.658C168.375 116.658 165.525 119.504 165.525 123.015C165.525 126.526 168.375 129.372 171.89 129.372C175.405 129.372 178.254 126.526 178.254 123.015C178.254 122.333 178.146 121.675 177.947 121.059" stroke="#210049" stroke-width="0.693804" stroke-linecap="round" stroke-linejoin="round"/>
<path d="M168.155 121.834C168.037 122.207 167.974 122.604 167.974 123.015C167.974 124.11 168.424 125.1 169.149 125.81C169.289 125.946 169.438 126.072 169.597 126.187M168.155 121.834C168.351 121.216 168.697 120.664 169.149 120.221C169.856 119.53 170.823 119.104 171.89 119.104V122.146M168.155 121.834L170.844 122.685M169.597 126.187C170.241 126.653 171.034 126.927 171.89 126.927C172.747 126.927 173.539 126.653 174.184 126.187M169.597 126.187L171.237 123.918M174.184 126.187C174.342 126.072 174.492 125.946 174.631 125.81C175.357 125.1 175.807 124.11 175.807 123.015C175.807 122.604 175.743 122.207 175.625 121.834L172.904 122.695M174.184 126.187L172.519 123.885" stroke="#210049" stroke-width="0.693804" stroke-linejoin="round"/>
<path d="M173.011 123.016C173.011 123.634 172.51 124.136 171.89 124.136C171.27 124.136 170.768 123.634 170.768 123.016C170.768 122.398 171.27 121.896 171.89 121.896C172.51 121.896 173.011 122.398 173.011 123.016Z" stroke="#210049" stroke-width="0.693804"/>
<path d="M175.278 116.552C175.303 116.543 175.33 116.543 175.356 116.552L176.851 117.086C176.897 117.102 176.928 117.146 176.928 117.195V119.425C176.928 119.462 176.91 119.497 176.88 119.519L175.384 120.586C175.344 120.614 175.29 120.614 175.25 120.586L173.754 119.519L173.557 119.794L173.754 119.519C173.723 119.497 173.705 119.462 173.705 119.425V117.195C173.705 117.146 173.736 117.102 173.782 117.086L175.278 116.552Z" stroke="#742FE1" stroke-width="0.693804" stroke-linecap="round" stroke-linejoin="round"/>
<g filter="url(#filter5_d_362_14693)">
<rect x="119.017" y="113.234" width="19.5827" height="19.5598" rx="3.70029" fill="white"/>
</g>
<path d="M131.773 117.637C129.787 117.637 128.808 119.593 128.808 119.593C128.808 119.593 127.829 117.637 125.842 117.637C124.228 117.637 122.949 118.986 122.933 120.595C122.899 123.937 125.587 126.313 128.532 128.31C128.614 128.365 128.71 128.395 128.808 128.395C128.906 128.395 129.002 128.365 129.083 128.31C132.028 126.313 134.716 123.937 134.683 120.595C134.666 118.986 133.388 117.637 131.773 117.637Z" stroke="#210049" stroke-width="0.693804" stroke-linecap="round" stroke-linejoin="round"/>
<path d="M126.604 119.157C125.952 118.994 124.597 119.108 124.401 120.869" stroke="#742FE1" stroke-width="0.693804" stroke-linecap="round"/>
<g filter="url(#filter6_d_362_14693)">
<rect x="75.9346" y="158.223" width="19.5827" height="19.5598" rx="3.70029" fill="white"/>
</g>
<path d="M84.2568 171.916V172.892C84.2568 173.703 84.9144 174.361 85.7255 174.361V174.361C86.5367 174.361 87.1942 173.703 87.1942 172.892V171.916" stroke="#210049" stroke-width="0.693804"/>
<path d="M87.7172 170.613L87.5811 170.294C87.4964 170.33 87.4295 170.398 87.3953 170.484L87.7172 170.613ZM83.7338 170.613L84.0558 170.483C84.0215 170.398 83.9547 170.33 83.87 170.294L83.7338 170.613ZM84.2569 171.917L83.9349 172.046C83.9876 172.178 84.1151 172.264 84.2569 172.264V171.917ZM87.1943 171.917V172.264C87.336 172.264 87.4635 172.178 87.5163 172.046L87.1943 171.917ZM90.2745 166.332C90.2745 168.09 89.1757 169.614 87.5811 170.294L87.8533 170.932C89.6814 170.152 90.9683 168.392 90.9683 166.332H90.2745ZM85.7257 161.995C88.2526 161.995 90.2745 163.951 90.2745 166.332H90.9683C90.9683 163.54 88.6065 161.302 85.7257 161.302V161.995ZM81.177 166.332C81.177 163.951 83.1989 161.995 85.7257 161.995V161.302C82.845 161.302 80.4832 163.54 80.4832 166.332H81.177ZM83.87 170.294C82.2756 169.613 81.177 168.09 81.177 166.332H80.4832C80.4832 168.391 81.7699 170.152 83.5977 170.932L83.87 170.294ZM83.4118 170.742L83.9349 172.046L84.5789 171.788L84.0558 170.483L83.4118 170.742ZM84.2569 172.264H87.1943V171.57H84.2569V172.264ZM87.5163 172.046L88.0392 170.742L87.3953 170.484L86.8723 171.788L87.5163 172.046Z" fill="#210049"/>
<path d="M85.3059 168.982L87.1942 166.293H84.2568L86.1452 163.604" stroke="#742FE1" stroke-width="0.693804" stroke-linecap="round" stroke-linejoin="round"/>
<g filter="url(#filter7_d_362_14693)">
<rect x="162.099" y="158.223" width="19.5827" height="19.5598" rx="3.70029" fill="white"/>
</g>
<ellipse cx="176.786" cy="170.449" rx="2.44784" ry="2.44497" stroke="#742FE1" stroke-width="0.693804"/>
<ellipse cx="166.994" cy="170.449" rx="2.44784" ry="2.44497" stroke="#742FE1" stroke-width="0.693804"/>
<path d="M172.254 169.959L170.644 166.574M172.254 169.959H167.483L170.644 166.574M172.254 169.959C173.016 168.246 173.638 166.48 174.4 164.768M174.4 164.768L176.785 169.959M174.4 164.768C174.321 164.467 173.923 162.737 172.492 163.188M170.107 165.445L170.644 166.574M170.107 165.445H171.3M170.107 165.445H168.914" stroke="#210049" stroke-width="0.693804" stroke-linecap="round" stroke-linejoin="round"/>
<g filter="url(#filter8_d_362_14693)">
<rect x="119.331" y="158.223" width="19.5827" height="19.5598" rx="3.70029" fill="white"/>
</g>
<path d="M129.12 170.668L128.447 172.461" stroke="#742FE1" stroke-width="0.693804"/>
<ellipse cx="133.383" cy="163.719" rx="0.673088" ry="0.6723" stroke="#742FE1" stroke-width="0.693804"/>
<path d="M131.364 165.737L132.71 164.393" stroke="#210049" stroke-width="0.693804" stroke-linecap="round" stroke-linejoin="round"/>
<path d="M127.338 169.271L127.583 169.025L127.338 169.271ZM134.611 170.267L134.445 169.962L134.611 170.267ZM134.695 169.576L134.94 169.331L134.695 169.576ZM127.031 161.922L127.276 161.676L127.031 161.922ZM127.583 169.025C125.745 167.19 125.433 164.39 126.645 162.171L126.036 161.839C124.684 164.313 125.025 167.452 127.092 169.516L127.583 169.025ZM134.445 169.962C132.223 171.173 129.42 170.861 127.583 169.025L127.092 169.516C129.159 171.581 132.3 171.921 134.777 170.572L134.445 169.962ZM134.94 169.331L127.276 161.676L126.786 162.167L134.449 169.822L134.94 169.331ZM134.777 170.572C135.257 170.31 135.294 169.684 134.94 169.331L134.449 169.822C134.476 169.849 134.485 169.881 134.482 169.908C134.479 169.932 134.467 169.95 134.445 169.962L134.777 170.572ZM126.645 162.171C126.657 162.149 126.675 162.138 126.7 162.135C126.727 162.132 126.759 162.14 126.786 162.167L127.276 161.676C126.923 161.323 126.298 161.36 126.036 161.839L126.645 162.171Z" fill="#210049"/>
<path d="M130.916 172.561H126.428C125.989 172.561 125.633 172.917 125.633 173.356C125.633 173.796 125.989 174.152 126.428 174.152H130.916C131.355 174.152 131.711 173.796 131.711 173.356C131.711 172.917 131.355 172.561 130.916 172.561Z" stroke="#210049" stroke-width="0.693804" stroke-linecap="round"/>
<g filter="url(#filter9_d_362_14693)">
<rect x="75.9346" y="23.2598" width="19.5827" height="19.5598" rx="3.70029" fill="white"/>
</g>
<rect x="81.6662" y="26.5403" width="8.1184" height="12.998" rx="0.57817" stroke="#210049" stroke-width="0.693804"/>
<path d="M83.2773 38.1739L83.2773 32.7949" stroke="#FF2F73" stroke-width="0.693804" stroke-linecap="round" stroke-linejoin="round"/>
<path d="M86.3582 28.611L86.3582 29.6419C86.3582 29.7057 86.3064 29.7575 86.2425 29.7575L86.1885 29.7575C86.1246 29.7575 86.0728 29.7057 86.0728 29.6419L86.0728 28.611C86.0728 28.5471 86.1246 28.4953 86.1885 28.4953L86.2425 28.4953C86.3064 28.4953 86.3582 28.5471 86.3582 28.611Z" stroke="#210049" stroke-width="0.693804" stroke-linecap="round" stroke-linejoin="round"/>
<path d="M88.5293 29.1284C88.5293 29.4144 88.4498 29.6925 88.3029 29.9297C88.2383 30.034 88.0978 30.0484 88 29.9742L87.1813 29.3538C87.063 29.2641 87.0586 29.0879 87.1722 28.9924L87.9982 28.2984C88.0956 28.2165 88.2426 28.228 88.3088 28.3367C88.452 28.5717 88.5293 28.8462 88.5293 29.1284Z" fill="#FF2F73"/>
<g filter="url(#filter10_d_362_14693)">
<rect x="162.727" y="23.2598" width="19.5827" height="19.5598" rx="3.70029" fill="white"/>
</g>
<path d="M175.429 33.0393C175.429 33.0393 175.907 26.1934 172.748 26.1934C169.589 26.1934 169.58 33.0393 169.58 33.0393" stroke="#FF2F73" stroke-width="0.693804"/>
<path d="M166.643 32.5488L170.559 37.9278" stroke="#210049" stroke-width="0.693804" stroke-linecap="round"/>
<path d="M178.393 32.5488L174.476 37.9278" stroke="#210049" stroke-width="0.693804" stroke-linecap="round"/>
<path d="M171.538 36.7065L169.58 33.0391M173.497 36.7065L175.455 33.0391" stroke="#210049" stroke-width="0.693804"/>
<path d="M171.539 36.6246C171.539 36.2646 171.831 35.9727 172.191 35.9727H172.845C173.205 35.9727 173.497 36.2646 173.497 36.6246V36.9495C173.497 37.4903 173.059 37.9286 172.518 37.9286V37.9286C171.977 37.9286 171.539 37.4903 171.539 36.9495V36.6246Z" stroke="#210049" stroke-width="0.693804"/>
<path d="M170.56 38.5797C170.56 38.2196 170.851 37.9277 171.212 37.9277H173.824C174.184 37.9277 174.476 38.2196 174.476 38.5797V38.5797C174.476 39.2999 173.892 39.8837 173.172 39.8837H171.864C171.143 39.8837 170.56 39.2999 170.56 38.5797V38.5797Z" stroke="#210049" stroke-width="0.693804"/>
<path d="M172.518 26.1934C169.003 26.1934 166.153 29.2584 166.153 33.0393C167.214 31.9861 168.52 31.9861 169.58 33.0393C171.171 31.4594 173.864 31.4594 175.455 33.0393C176.516 31.9861 177.821 31.9861 178.882 33.0393C178.882 29.2584 176.033 26.1934 172.518 26.1934Z" stroke="#210049" stroke-width="0.693804" stroke-linejoin="round"/>
<g filter="url(#filter11_d_362_14693)">
<rect x="119.331" y="23.2598" width="19.5827" height="19.5598" rx="3.70029" fill="white"/>
</g>
<path d="M131.407 35.3184L133.692 37.6003" stroke="#FF2F73" stroke-width="0.693804"/>
<path d="M126.837 35.3186L124.553 37.6006M131.515 30.646L133.691 28.4727" stroke="#FF2F73" stroke-width="0.693804"/>
<path d="M124.553 28.4727L126.837 30.7546" stroke="#FF2F73" stroke-width="0.693804"/>
<path d="M135.63 33.0393C135.63 36.6282 132.717 39.5383 129.122 39.5383C125.528 39.5383 122.615 36.6282 122.615 33.0393C122.615 29.4504 125.528 26.5403 129.122 26.5403C132.717 26.5403 135.63 29.4504 135.63 33.0393Z" stroke="#210049" stroke-width="0.693804"/>
<path d="M132.583 33.0396C132.583 34.9481 131.034 36.496 129.122 36.496C127.21 36.496 125.661 34.9481 125.661 33.0396C125.661 31.1311 127.21 29.5832 129.122 29.5832C131.034 29.5832 132.583 31.1311 132.583 33.0396Z" stroke="#210049" stroke-width="0.693804"/>
</g>
<g filter="url(#filter12_d_362_14693)">
<rect x="163.786" y="199.811" width="19.5827" height="19.5598" rx="3.70029" fill="white"/>
</g>
<path fill-rule="evenodd" clip-rule="evenodd" d="M168.192 207.145C168.062 207.145 167.937 207.196 167.846 207.288C167.754 207.379 167.702 207.504 167.702 207.634V214.235C167.702 215.159 168.49 215.946 169.416 215.946H177.738C178.664 215.946 179.452 215.197 179.452 214.273V207.634C179.452 207.504 179.4 207.379 179.308 207.288C179.217 207.196 179.092 207.145 178.962 207.145H168.192Z" stroke="#210049" stroke-width="0.693804" stroke-linecap="round" stroke-linejoin="round"/>
<path d="M173.577 209.59V213.502" stroke="#742FE1" stroke-width="0.693804" stroke-linecap="round" stroke-linejoin="round"/>
<path d="M175.536 211.545H171.619" stroke="#742FE1" stroke-width="0.693804" stroke-linecap="round" stroke-linejoin="round"/>
<path d="M170.64 207.144V206.166C170.64 205.388 170.949 204.642 171.5 204.092C172.051 203.542 172.798 203.232 173.577 203.232V203.232C174.356 203.232 175.103 203.542 175.654 204.092C176.205 204.642 176.514 205.388 176.514 206.166V207.144" stroke="#210049" stroke-width="0.693804" stroke-linecap="round" stroke-linejoin="round"/>
<g filter="url(#filter13_d_362_14693)">
<rect x="120.39" y="199.811" width="19.5827" height="19.5598" rx="3.70029" fill="white"/>
</g>
<path d="M124.414 212.034H126.265V208.611L123.867 210.008C123.533 210.203 123.327 210.561 123.327 210.947C123.327 211.548 123.814 212.034 124.414 212.034Z" stroke="#210049" stroke-width="0.693804"/>
<path d="M135.947 212.034H134.097V208.611L136.494 210.008C136.829 210.203 137.034 210.561 137.034 210.947C137.034 211.548 136.548 212.034 135.947 212.034Z" stroke="#210049" stroke-width="0.693804"/>
<path d="M130.181 213.457V205.277C130.181 204.148 129.304 203.232 128.223 203.232C127.141 203.232 126.265 204.148 126.265 205.277V212.882C126.265 213.199 126.511 213.457 126.815 213.457H127.244V213.904C127.244 214.222 127.49 214.479 127.795 214.479H128.651C128.955 214.479 129.202 214.222 129.202 213.904V213.457H130.181Z" stroke="#210049" stroke-width="0.693804"/>
<path d="M130.18 213.457V205.277C130.18 204.148 131.057 203.232 132.138 203.232C133.22 203.232 134.097 204.148 134.097 205.277V212.882C134.097 213.199 133.85 213.457 133.546 213.457H133.118V213.904C133.118 214.222 132.871 214.479 132.567 214.479H131.71C131.406 214.479 131.159 214.222 131.159 213.904V213.457H130.18Z" stroke="#210049" stroke-width="0.693804"/>
<path d="M128.222 215.457V216.435" stroke="#FF2F73" stroke-width="0.693804" stroke-linecap="round"/>
<path d="M132.139 215.457V216.435" stroke="#FF2F73" stroke-width="0.693804" stroke-linecap="round"/>
<g filter="url(#filter14_d_362_14693)">
<rect x="74.877" y="199.811" width="19.5827" height="19.5598" rx="3.70029" fill="white"/>
</g>
<path d="M90.6856 209.591C90.6856 212.91 87.9918 215.601 84.6681 215.601C81.3443 215.601 78.6506 212.91 78.6506 209.591C78.6506 206.272 81.3443 203.581 84.6681 203.581C87.9918 203.581 90.6856 206.272 90.6856 209.591Z" stroke="#210049" stroke-width="0.693804"/>
<path d="M84.1087 213.014L86.6265 209.591H82.71L85.2277 206.168" stroke="#742FE1" stroke-width="0.693804" stroke-linecap="round" stroke-linejoin="round"/>
<g filter="url(#filter15_d_362_14693)">
<rect x="73.8184" y="239.984" width="115.37" height="19.6743" rx="9.83714" fill="white"/>
</g>
<rect x="82.2598" y="244.199" width="42.2086" height="11.2424" rx="5.62122" fill="#FFEAF1"/>
<path d="M99.1675 251.605H99.666L99.9531 250.824H101.098L101.385 251.605H101.899L100.818 248.814H100.264L99.1675 251.605ZM100.093 250.449L100.527 249.269L100.966 250.449H100.093ZM102.203 251.605H102.654V250.289C102.754 250.082 102.933 249.959 103.152 249.959C103.236 249.959 103.328 249.978 103.4 250.006V249.612C103.332 249.584 103.28 249.576 103.204 249.572C102.957 249.572 102.766 249.735 102.654 250.038V249.608H102.203V251.605ZM103.769 251.605H104.219V250.17C104.319 250.014 104.451 249.939 104.614 249.939C104.861 249.939 105.017 250.118 105.017 250.397V251.605H105.472V250.297C105.472 250.258 105.468 250.218 105.464 250.178C105.563 250.014 105.699 249.939 105.862 249.939C106.11 249.939 106.265 250.118 106.265 250.397V251.605H106.716V250.297C106.716 249.875 106.449 249.576 106.062 249.576C105.779 249.576 105.555 249.707 105.4 249.959C105.296 249.723 105.085 249.576 104.81 249.576C104.566 249.576 104.367 249.695 104.219 249.923V249.608H103.769V251.605ZM107.868 251.641C108.099 251.641 108.291 251.566 108.462 251.398V251.605H108.909V250.301C108.909 249.839 108.614 249.576 108.091 249.576C107.824 249.576 107.561 249.643 107.262 249.779L107.422 250.106C107.653 249.998 107.836 249.951 108.004 249.951C108.311 249.951 108.462 250.086 108.462 250.349V250.573C108.287 250.485 108.111 250.445 107.924 250.445C107.453 250.445 107.158 250.672 107.158 251.031C107.158 251.39 107.449 251.641 107.868 251.641ZM107.581 251.023C107.581 250.844 107.745 250.736 108.004 250.736C108.175 250.736 108.319 250.764 108.462 250.832V251.155C108.327 251.27 108.171 251.322 107.992 251.322C107.741 251.322 107.581 251.207 107.581 251.023ZM109.455 251.605H109.905V250.289C110.005 250.082 110.184 249.959 110.404 249.959C110.487 249.959 110.579 249.978 110.651 250.006V249.612C110.583 249.584 110.531 249.576 110.455 249.572C110.208 249.572 110.017 249.735 109.905 250.038V249.608H109.455V251.605ZM111.243 249.201C111.395 249.201 111.523 249.077 111.523 248.926C111.523 248.774 111.395 248.647 111.243 248.647C111.088 248.647 110.964 248.774 110.964 248.926C110.964 249.077 111.088 249.201 111.243 249.201ZM111.016 251.605H111.467V249.608H111.016V251.605ZM112.938 251.641C113.508 251.641 113.939 251.199 113.939 250.609C113.939 250.018 113.508 249.576 112.938 249.576C112.364 249.576 111.933 250.018 111.933 250.609C111.933 251.199 112.364 251.641 112.938 251.641ZM112.938 251.259C112.611 251.259 112.376 250.983 112.376 250.609C112.376 250.238 112.611 249.959 112.938 249.959C113.261 249.959 113.496 250.238 113.496 250.609C113.496 250.983 113.261 251.259 112.938 251.259Z" fill="#FF2F73"/>
<path d="M163.277 247.232L163.34 247.079C163.269 247.05 163.202 246.983 163.18 246.91C163.086 246.59 162.823 246.309 162.473 246.309C162.122 246.309 161.859 246.59 161.766 246.91C161.744 246.984 161.677 247.05 161.606 247.079M163.277 247.232C163.166 247.187 163.059 247.085 163.021 246.957L163.021 246.956C162.94 246.681 162.724 246.475 162.473 246.475C162.221 246.475 162.005 246.681 161.925 246.956L161.925 246.957C161.887 247.087 161.779 247.187 161.669 247.232M163.277 247.232C163.53 247.337 163.797 247.491 164.002 247.759C164.206 248.025 164.361 248.419 164.361 249.026C164.361 249.731 164.434 250.167 164.57 250.497C164.689 250.785 164.854 250.983 165.026 251.191C165.051 251.221 165.077 251.252 165.102 251.283C165.175 251.371 165.126 251.534 164.954 251.534H159.992C159.818 251.534 159.771 251.371 159.843 251.283L159.843 251.283C159.869 251.252 159.894 251.221 159.919 251.191C160.092 250.983 160.256 250.785 160.375 250.498C160.511 250.167 160.585 249.731 160.585 249.026V249.026C160.585 248.418 160.74 248.024 160.943 247.758C161.148 247.49 161.416 247.337 161.669 247.232M163.277 247.232L160.419 249.026C160.419 247.751 161.069 247.299 161.606 247.079M161.669 247.232L161.606 247.079M161.669 247.232C161.669 247.232 161.669 247.233 161.669 247.233L161.606 247.079" stroke="#8E8E8E" stroke-width="0.332317" stroke-linecap="round" stroke-linejoin="round"/>
<mask id="path-92-inside-1_362_14693" fill="white">
<path d="M163.501 251.699V251.956C163.501 252.228 163.392 252.49 163.2 252.682C163.007 252.875 162.745 252.983 162.472 252.983C162.2 252.983 161.938 252.875 161.745 252.682C161.553 252.49 161.444 252.228 161.444 251.956V251.699"/>
</mask>
<path d="M163.833 251.699C163.833 251.516 163.684 251.367 163.501 251.367C163.317 251.367 163.168 251.516 163.168 251.699H163.833ZM161.444 251.956H161.112H161.444ZM161.777 251.699C161.777 251.516 161.628 251.367 161.444 251.367C161.261 251.367 161.112 251.516 161.112 251.699H161.777ZM163.168 251.699V251.956H163.833V251.699H163.168ZM163.168 251.956C163.168 252.14 163.095 252.317 162.965 252.447L163.434 252.917C163.69 252.662 163.833 252.317 163.833 251.956H163.168ZM162.965 252.447C162.834 252.577 162.657 252.651 162.472 252.651V253.315C162.833 253.315 163.179 253.172 163.434 252.917L162.965 252.447ZM162.472 252.651C162.288 252.651 162.111 252.577 161.98 252.447L161.511 252.917C161.766 253.172 162.112 253.315 162.472 253.315V252.651ZM161.98 252.447C161.85 252.317 161.777 252.14 161.777 251.956H161.112C161.112 252.317 161.255 252.662 161.511 252.917L161.98 252.447ZM161.777 251.956V251.699H161.112V251.956H161.777Z" fill="#8E8E8E" mask="url(#path-92-inside-1_362_14693)"/>
<path d="M151.37 252.818H145.405L145.771 249.017C145.775 248.976 145.793 248.939 145.823 248.911L148.274 246.64C148.338 246.581 148.437 246.581 148.5 246.64L150.952 248.911C150.981 248.939 151 248.976 151.004 249.017L151.37 252.818Z" stroke="#8E8E8E" stroke-width="0.332317" stroke-linecap="round" stroke-linejoin="round"/>
<mask id="path-95-inside-2_362_14693" fill="white">
<path d="M147.684 252.983V251.469C147.684 251.14 147.999 250.875 148.387 250.875C148.775 250.875 149.091 251.142 149.091 251.469V252.983"/>
</mask>
<path d="M147.351 252.983C147.351 253.166 147.5 253.315 147.684 253.315C147.867 253.315 148.016 253.166 148.016 252.983H147.351ZM148.758 252.983C148.758 253.166 148.907 253.315 149.091 253.315C149.274 253.315 149.423 253.166 149.423 252.983H148.758ZM148.016 252.983V251.469H147.351V252.983H148.016ZM148.016 251.469C148.016 251.374 148.127 251.207 148.387 251.207V250.543C147.871 250.543 147.351 250.905 147.351 251.469H148.016ZM148.387 251.207C148.646 251.207 148.758 251.376 148.758 251.469H149.423C149.423 250.908 148.904 250.543 148.387 250.543V251.207ZM148.758 251.469V252.983H149.423V251.469H148.758Z" fill="#8E8E8E" mask="url(#path-95-inside-2_362_14693)"/>
<path d="M136.364 252.341C136.339 252.326 136.31 252.318 136.281 252.318L132.75 252.307C132.156 252.305 131.669 251.812 131.669 251.196V246.641C131.669 246.549 131.743 246.475 131.835 246.475H135.916C136.492 246.475 136.965 246.952 136.965 247.549V252.469V252.694L136.364 252.341Z" stroke="#8E8E8E" stroke-width="0.332317" stroke-linecap="round" stroke-linejoin="round"/>
<path d="M132.91 247.81C132.818 247.81 132.744 247.885 132.744 247.977C132.744 248.068 132.818 248.143 132.91 248.143V247.81ZM135.724 248.143C135.816 248.143 135.89 248.068 135.89 247.977C135.89 247.885 135.816 247.81 135.724 247.81V248.143ZM132.91 248.143H135.724V247.81H132.91V248.143Z" fill="#8E8E8E"/>
<path d="M132.91 249.295C132.818 249.295 132.744 249.369 132.744 249.461C132.744 249.553 132.818 249.627 132.91 249.627V249.295ZM135.724 249.627C135.816 249.627 135.89 249.553 135.89 249.461C135.89 249.369 135.816 249.295 135.724 249.295V249.627ZM132.91 249.627H135.724V249.295H132.91V249.627Z" fill="#8E8E8E"/>
<path d="M132.91 250.779C132.818 250.779 132.744 250.854 132.744 250.945C132.744 251.037 132.818 251.111 132.91 251.111V250.779ZM135.724 251.111C135.816 251.111 135.89 251.037 135.89 250.945C135.89 250.854 135.816 250.779 135.724 250.779V251.111ZM132.91 251.111H135.724V250.779H132.91V251.111Z" fill="#8E8E8E"/>
<path d="M176.526 249.656C177.203 249.656 177.872 248.961 177.938 248.053C178.003 247.156 177.375 246.475 176.526 246.475C175.676 246.475 175.049 247.139 175.114 248.053L176.526 249.656ZM176.526 249.656C175.849 249.656 175.179 248.961 175.114 248.053L176.526 249.656Z" stroke="#8E8E8E" stroke-width="0.332317" stroke-linecap="round" stroke-linejoin="round"/>
<path d="M173.53 252.636L173.53 252.636C173.52 252.697 173.533 252.748 173.552 252.779C173.569 252.805 173.591 252.818 173.624 252.818H179.428C179.461 252.818 179.483 252.805 179.5 252.779L173.53 252.636ZM173.53 252.636C173.782 251.147 175.147 250.34 176.526 250.34M173.53 252.636L176.526 250.34M176.526 250.34C177.905 250.34 179.27 251.147 179.522 252.636L176.526 250.34Z" stroke="#8E8E8E" stroke-width="0.332317" stroke-miterlimit="10"/>
<path d="M93.8908 249.305H92.436C92.1522 249.305 91.923 249.075 91.923 248.792V247.339C91.923 247.056 92.152 246.826 92.436 246.826H93.8908C94.1744 246.826 94.4046 247.056 94.4046 247.339V248.792C94.4046 249.074 94.1742 249.305 93.8908 249.305Z" fill="#FF2F73" stroke="#FF2F73" stroke-width="0.332317"/>
<path d="M93.8908 252.818H92.436C92.1522 252.818 91.923 252.588 91.923 252.305V250.853C91.923 250.569 92.152 250.34 92.436 250.34H93.8908C94.1744 250.34 94.4046 250.57 94.4046 250.853V252.305C94.4046 252.588 94.1742 252.818 93.8908 252.818Z" fill="#FF2F73" stroke="#FF2F73" stroke-width="0.332317"/>
<path d="M97.4084 249.305H95.9536C95.6697 249.305 95.4406 249.075 95.4406 248.792V247.339C95.4406 247.056 95.6696 246.826 95.9536 246.826H97.4084C97.6919 246.826 97.9222 247.056 97.9222 247.339V248.792C97.9222 249.074 97.6918 249.305 97.4084 249.305Z" fill="#FF2F73" stroke="#FF2F73" stroke-width="0.332317"/>
<path d="M97.4084 252.818H95.9536C95.6697 252.818 95.4406 252.588 95.4406 252.305V250.853C95.4406 250.569 95.6696 250.34 95.9536 250.34H97.4084C97.6919 250.34 97.9222 250.57 97.9222 250.853V252.305C97.9222 252.588 97.6918 252.818 97.4084 252.818Z" fill="#FF2F73" stroke="#FF2F73" stroke-width="0.332317"/>
<path d="M174.647 247.466C174.647 247.466 161.147 241.645 155.32 249.895C149.492 258.145 156.074 272.383 170.329 278.958C184.584 285.532 195.317 289.259 202.989 289.846C210.703 290.39 229.109 285.155 229.109 285.155C229.109 285.155 260.092 276.529 259.337 258.899C258.583 241.269 246.382 242.567 231.163 250.272C215.944 257.977 174.647 247.466 174.647 247.466Z" fill="#A699B6"/>
<path d="M209.295 199.34C220.071 199.34 234.081 209.36 228.807 194.594C228.807 191.973 218.489 181.41 207.713 181.41C196.937 181.41 186.619 186.684 186.619 197.231C186.619 199.852 198.519 199.34 209.295 199.34Z" fill="#210049"/>
<path d="M185.338 260.909L172.509 244.619C172.509 244.619 170.664 243.111 171.251 236.202C171.796 229.25 176.701 202.449 184.751 199.057C191.459 196.251 205.882 190.221 221.31 194.995C227.138 196.796 231.96 200.942 234.559 206.427C238.248 214.133 243.321 226.57 242.231 235.113C240.554 248.22 230.953 246.545 230.953 246.545L231.121 255.004C231.121 255.004 223.784 258.564 217.998 258.02C217.998 258.02 208.607 260.825 199.97 259.318C199.97 259.318 196.952 255.758 194.729 255.381C194.729 255.339 185.883 254.711 185.338 260.909Z" fill="#ACEAEF"/>
<path d="M212.548 278.204C212.548 278.204 223.826 262.626 241.854 254.209" stroke="#210049" stroke-miterlimit="10" stroke-linecap="round" stroke-linejoin="round"/>
<path d="M236.781 253.287C236.781 253.287 233.763 256.679 233.218 259.108" stroke="#210049" stroke-miterlimit="10" stroke-linecap="round" stroke-linejoin="round"/>
<path d="M209.571 277.451C209.571 277.451 197.748 263.757 175.192 260.365" stroke="#210049" stroke-miterlimit="10" stroke-linecap="round" stroke-linejoin="round"/>
<path d="M177.624 255.508C177.624 255.508 181.397 257.937 180.81 261.706" stroke="#210049" stroke-miterlimit="10" stroke-linecap="round" stroke-linejoin="round"/>
<path d="M220.808 285.701C220.808 285.701 214.603 279.168 212.926 279.168C211.249 279.168 207.433 282.895 206.595 285.994C205.756 289.093 206.092 296.463 206.092 296.463C206.092 296.463 207.769 304.001 217.076 304.001C226.384 304.001 222.149 294.788 222.149 294.788C222.149 294.788 220.472 287.669 220.808 285.701Z" fill="#210049"/>
<path d="M208.858 279.083L201.815 286.328C201.815 286.328 199.341 291.939 198.796 294.494C198.251 297.048 198.167 301.026 206.888 298.723L210.535 280.297C210.535 280.339 210.2 278.874 208.858 279.083Z" fill="#210049"/>
<path d="M185.338 260.909C185.338 260.909 188.566 266.353 191.166 267.065C193.765 267.777 192.926 271.085 194.981 271.923C197.035 272.76 196.867 271.42 196.867 271.42C196.867 271.42 198.628 272.551 199.467 270.792C199.467 270.792 202.066 270.708 201.647 267.567C201.647 267.567 203.701 266.856 202.486 263.631C201.228 260.407 196.784 255.046 194.771 255.298C192.759 255.549 186.176 254.879 185.338 260.909Z" fill="white"/>
<path d="M185.338 260.909C185.338 260.909 188.566 266.353 191.166 267.065C193.765 267.777 192.926 271.085 194.981 271.923C197.035 272.76 196.867 271.42 196.867 271.42C196.867 271.42 198.628 272.551 199.467 270.792C199.467 270.792 202.066 270.708 201.647 267.567C201.647 267.567 203.701 266.856 202.486 263.631C201.228 260.407 196.784 255.046 194.771 255.298" stroke="#210049" stroke-miterlimit="10" stroke-linecap="round"/>
<path d="M189.489 222.383C189.489 222.383 186.763 233.187 187.35 238.966C187.35 238.966 194.017 249.351 194.687 255.34" stroke="#2FCAD7" stroke-miterlimit="10" stroke-linecap="round"/>
<path d="M179.385 236.956C179.385 236.956 185.757 236.495 186.428 238.505" stroke="#2FCAD7" stroke-miterlimit="10" stroke-linecap="round"/>
<path d="M207.224 233.312L202.57 233.396L201.145 214.384L214.351 213.672L214.98 232.684L207.224 233.312Z" fill="#210049" stroke="#210049" stroke-width="0.396108" stroke-miterlimit="10"/>
<path d="M224.707 216.98C224.707 216.98 226.845 226.863 228.355 229.92" stroke="#2FCAD7" stroke-miterlimit="10" stroke-linecap="round"/>
<path d="M230.405 246.292C230.405 246.292 217.45 242.021 216.15 237.456M222.397 228.872C222.397 228.872 227.68 228.746 233.214 232.18" stroke="#2FCAD7" stroke-miterlimit="10" stroke-linecap="round"/>
<path d="M216.699 237.667C216.699 237.667 205.463 233.773 203.744 230.465C203.744 230.465 202.947 228.873 203.911 229.041C203.911 229.041 202.486 227.868 203.199 226.444C203.199 226.444 202.654 224.183 204.079 223.932C204.079 223.932 203.744 221.67 205.714 222.047C207.685 222.424 214.602 227.408 216.028 226.779L214.77 224.016L214.686 221.335C214.686 221.335 217.747 220.791 222.946 229.083C222.946 229.083 224.588 233.089 222.568 236.83C220.369 238.89 216.699 237.667 216.699 237.667Z" fill="white"/>
<path d="M216.699 237.667C216.699 237.667 205.463 233.773 203.744 230.465C203.744 230.465 202.947 228.873 203.911 229.041C203.911 229.041 202.486 227.868 203.199 226.444C203.199 226.444 202.654 224.183 204.079 223.932C204.079 223.932 203.744 221.67 205.714 222.047C207.685 222.424 214.602 227.408 216.028 226.779L214.77 224.016L214.686 221.335C214.686 221.335 217.747 220.791 222.946 229.083" stroke="#210049" stroke-miterlimit="10"/>
<path d="M218.837 302.199C218.837 302.199 205.924 303.204 208.272 286.621" stroke="#7A6692" stroke-width="0.396108" stroke-miterlimit="10" stroke-linecap="round"/>
<path d="M201.103 297.007C201.103 297.007 205.044 297.929 206.092 296.463" stroke="#7A6692" stroke-width="0.396108" stroke-miterlimit="10" stroke-linecap="round"/>
<path d="M221.185 160.361C225.185 160.361 228.427 157.123 228.427 153.128C228.427 149.133 225.185 145.895 221.185 145.895C217.186 145.895 213.943 149.133 213.943 153.128C213.943 157.123 217.186 160.361 221.185 160.361Z" fill="#210049"/>
<path d="M233.703 178.961C232.307 173.743 231.841 174.673 227.237 164.339C224.496 158.191 222.375 155.711 221.082 154.678C221.082 154.678 216.426 149.666 208.098 149.666C200.132 149.666 195.528 154.419 195.528 154.419C194.338 155.246 192.062 157.571 189.01 164.339C184.407 174.673 183.889 173.743 182.545 178.961C181.148 184.18 182.907 193.738 193.614 195.598C193.614 195.598 192.218 194.203 191.752 191.981C191.752 191.981 196.252 198.078 202.356 197.716H213.891C219.995 198.078 224.496 191.981 224.496 191.981C223.978 194.203 222.633 195.598 222.633 195.598C233.341 193.738 235.1 184.128 233.703 178.961Z" fill="#210049"/>
<path d="M214.461 150.803C216.53 151.406 221.496 153.954 224.806 159.328C224.031 156.572 220.875 151.009 214.461 150.803Z" fill="white"/>
<path d="M201.167 197.82C201.167 197.82 201.115 202.16 203.96 204.227C207.685 206.965 214.099 205.725 215.34 200.559C216.375 196.27 215.754 188.365 215.754 188.365L200.908 188.934L201.167 197.82Z" fill="white"/>
<path d="M225.272 167.026C225.272 176.481 217.926 184.128 208.822 184.128C199.718 184.128 192.373 176.481 192.373 167.026C192.373 157.571 199.718 151.164 208.822 151.164C217.875 151.113 225.272 157.571 225.272 167.026Z" fill="#210049"/>
<path d="M222.374 167.905C222.374 173.795 221.547 178.858 220.719 182.475C219.891 185.988 217.667 188.468 214.46 190.484L213.891 190.845C210.529 192.964 206.183 193.015 202.718 190.949C199.252 188.882 196.821 186.195 196.097 182.423C194.752 175.552 194.596 167.905 194.596 167.905C194.596 167.905 193.303 153.025 208.253 153.335C223.305 153.593 222.374 167.905 222.374 167.905Z" fill="white"/>
<path d="M196.304 181.854C193.666 184.127 188.131 175.137 190.666 172.709C193.201 170.28 195.011 174.207 195.011 174.207L195.528 177.049L196.304 180.872L196.511 181.75L196.304 181.854Z" fill="white"/>
<path d="M220.771 181.906C223.461 184.128 228.841 175.034 226.254 172.657C223.668 170.281 221.909 174.259 221.909 174.259L221.444 177.101L220.72 180.924L220.513 181.803L220.771 181.906Z" fill="white"/>
<path d="M194.856 172.504C194.856 172.504 199.821 164.444 198.425 156.229C198.425 156.229 195.011 158.45 193.873 164.237C192.683 170.024 194.856 172.504 194.856 172.504Z" fill="#210049"/>
<path d="M222.634 172.658C222.634 172.658 216.478 163.874 217.823 155.711C217.823 155.711 221.599 158.501 222.789 164.236C223.979 169.971 222.634 172.658 222.634 172.658Z" fill="#210049"/>
<path d="M220.202 155.349C220.202 155.349 207.632 170.384 193.821 164.236C193.821 164.236 190.769 152.249 207.374 151.164L220.202 155.349Z" fill="#210049"/>
<path d="M211.099 153.127C213.685 153.85 214.047 166.819 225.22 167.025L221.03 154.729L211.099 153.127Z" fill="#210049"/>
<path d="M217.564 182.166C218.735 182.166 219.685 181.61 219.685 180.926C219.685 180.241 218.735 179.686 217.564 179.686C216.393 179.686 215.443 180.241 215.443 180.926C215.443 181.61 216.393 182.166 217.564 182.166Z" fill="#FFD5E3"/>
<path d="M199.511 182.578C200.683 182.578 201.632 182.023 201.632 181.338C201.632 180.653 200.683 180.098 199.511 180.098C198.34 180.098 197.391 180.653 197.391 181.338C197.391 182.023 198.34 182.578 199.511 182.578Z" fill="#FFD5E3"/>
<path d="M204.27 182.629C204.27 182.629 204.787 186.194 208.253 186.194C211.408 186.194 212.236 182.525 212.236 182.525L204.27 182.629Z" stroke="#210049" stroke-width="0.879687" stroke-miterlimit="10" stroke-linecap="round" stroke-linejoin="round"/>
<path d="M207.632 176.791V179.323H209.132" stroke="#210049" stroke-width="0.879687" stroke-miterlimit="10" stroke-linecap="round" stroke-linejoin="round"/>
<path d="M201.166 176.274C201.852 176.274 202.408 175.627 202.408 174.828C202.408 174.029 201.852 173.381 201.166 173.381C200.481 173.381 199.925 174.029 199.925 174.828C199.925 175.627 200.481 176.274 201.166 176.274Z" fill="#210049"/>
<path d="M215.443 176.274C216.128 176.274 216.684 175.627 216.684 174.828C216.684 174.029 216.128 173.381 215.443 173.381C214.757 173.381 214.201 174.029 214.201 174.828C214.201 175.627 214.757 176.274 215.443 176.274Z" fill="#210049"/>
<path d="M206.701 192.55C210.426 193.377 214.719 191.31 217.512 189.037" stroke="#210049" stroke-width="0.879687" stroke-miterlimit="10" stroke-linecap="round" stroke-linejoin="round"/>
<path d="M202.15 220.76C200.857 220.346 200.081 218.9 200.081 217.504C200.081 215.489 201.271 213.991 201.995 212.234C202.823 210.271 202.254 206.499 201.478 204.484" stroke="#2FCAD7" stroke-width="0.879687" stroke-miterlimit="10" stroke-linecap="round" stroke-linejoin="round"/>
<path d="M201.478 223.344C202.392 223.344 203.133 222.604 203.133 221.69C203.133 220.777 202.392 220.037 201.478 220.037C200.563 220.037 199.822 220.777 199.822 221.69C199.822 222.604 200.563 223.344 201.478 223.344Z" fill="#2FCAD7"/>
<path d="M215.806 204.176V212.598" stroke="#2FCAD7" stroke-width="0.879687" stroke-miterlimit="10" stroke-linecap="round" stroke-linejoin="round"/>
<path d="M215.806 214.715C216.72 214.715 217.461 213.975 217.461 213.062C217.461 212.148 216.72 211.408 215.806 211.408C214.891 211.408 214.15 212.148 214.15 213.062C214.15 213.975 214.891 214.715 215.806 214.715Z" fill="#2FCAD7"/>
<path d="M199.296 198.285C199.104 200.667 200.257 203.004 201.937 204.846C203.666 206.733 205.538 207.902 208.275 207.767C212.404 207.587 215.813 205.969 217.205 202.15" stroke="#2FCAD7" stroke-miterlimit="10" stroke-linecap="round" stroke-linejoin="round"/>
<path d="M193.475 202.504C197.261 202.504 200.33 200.379 200.33 197.758C200.33 195.137 197.261 193.012 193.475 193.012C189.688 193.012 186.619 195.137 186.619 197.758C186.619 200.379 189.688 202.504 193.475 202.504Z" fill="#2FCAD7"/>
<path d="M223.006 204.613C226.792 204.613 229.862 202.488 229.862 199.867C229.862 197.246 226.792 195.121 223.006 195.121C219.22 195.121 216.15 197.246 216.15 199.867C216.15 202.488 219.22 204.613 223.006 204.613Z" fill="#2FCAD7"/>
</g>
<defs>
<filter id="filter0_d_362_14693" x="74.0844" y="67.321" width="23.2833" height="23.2608" filterUnits="userSpaceOnUse" color-interpolation-filters="sRGB">
<feFlood flood-opacity="0" result="BackgroundImageFix"/>
<feColorMatrix in="SourceAlpha" type="matrix" values="0 0 0 0 0 0 0 0 0 0 0 0 0 0 0 0 0 0 127 0" result="hardAlpha"/>
<feOffset dy="0.925072"/>
<feGaussianBlur stdDeviation="0.925072"/>
<feColorMatrix type="matrix" values="0 0 0 0 0.129412 0 0 0 0 0 0 0 0 0 0.286275 0 0 0 0.16 0"/>
<feBlend mode="normal" in2="BackgroundImageFix" result="effect1_dropShadow_362_14693"/>
<feBlend mode="normal" in="SourceGraphic" in2="effect1_dropShadow_362_14693" result="shape"/>
</filter>
<filter id="filter1_d_362_14693" x="160.248" y="67.321" width="23.2833" height="23.2608" filterUnits="userSpaceOnUse" color-interpolation-filters="sRGB">
<feFlood flood-opacity="0" result="BackgroundImageFix"/>
<feColorMatrix in="SourceAlpha" type="matrix" values="0 0 0 0 0 0 0 0 0 0 0 0 0 0 0 0 0 0 127 0" result="hardAlpha"/>
<feOffset dy="0.925072"/>
<feGaussianBlur stdDeviation="0.925072"/>
<feColorMatrix type="matrix" values="0 0 0 0 0.129412 0 0 0 0 0 0 0 0 0 0.286275 0 0 0 0.16 0"/>
<feBlend mode="normal" in2="BackgroundImageFix" result="effect1_dropShadow_362_14693"/>
<feBlend mode="normal" in="SourceGraphic" in2="effect1_dropShadow_362_14693" result="shape"/>
</filter>
<filter id="filter2_d_362_14693" x="117.166" y="67.321" width="23.2833" height="23.2608" filterUnits="userSpaceOnUse" color-interpolation-filters="sRGB">
<feFlood flood-opacity="0" result="BackgroundImageFix"/>
<feColorMatrix in="SourceAlpha" type="matrix" values="0 0 0 0 0 0 0 0 0 0 0 0 0 0 0 0 0 0 127 0" result="hardAlpha"/>
<feOffset dy="0.925072"/>
<feGaussianBlur stdDeviation="0.925072"/>
<feColorMatrix type="matrix" values="0 0 0 0 0.129412 0 0 0 0 0 0 0 0 0 0.286275 0 0 0 0.16 0"/>
<feBlend mode="normal" in2="BackgroundImageFix" result="effect1_dropShadow_362_14693"/>
<feBlend mode="normal" in="SourceGraphic" in2="effect1_dropShadow_362_14693" result="shape"/>
</filter>
<filter id="filter3_d_362_14693" x="74.0844" y="112.309" width="23.2833" height="23.2608" filterUnits="userSpaceOnUse" color-interpolation-filters="sRGB">
<feFlood flood-opacity="0" result="BackgroundImageFix"/>
<feColorMatrix in="SourceAlpha" type="matrix" values="0 0 0 0 0 0 0 0 0 0 0 0 0 0 0 0 0 0 127 0" result="hardAlpha"/>
<feOffset dy="0.925072"/>
<feGaussianBlur stdDeviation="0.925072"/>
<feColorMatrix type="matrix" values="0 0 0 0 0.129412 0 0 0 0 0 0 0 0 0 0.286275 0 0 0 0.16 0"/>
<feBlend mode="normal" in2="BackgroundImageFix" result="effect1_dropShadow_362_14693"/>
<feBlend mode="normal" in="SourceGraphic" in2="effect1_dropShadow_362_14693" result="shape"/>
</filter>
<filter id="filter4_d_362_14693" x="160.248" y="112.309" width="23.2833" height="23.2608" filterUnits="userSpaceOnUse" color-interpolation-filters="sRGB">
<feFlood flood-opacity="0" result="BackgroundImageFix"/>
<feColorMatrix in="SourceAlpha" type="matrix" values="0 0 0 0 0 0 0 0 0 0 0 0 0 0 0 0 0 0 127 0" result="hardAlpha"/>
<feOffset dy="0.925072"/>
<feGaussianBlur stdDeviation="0.925072"/>
<feColorMatrix type="matrix" values="0 0 0 0 0.129412 0 0 0 0 0 0 0 0 0 0.286275 0 0 0 0.16 0"/>
<feBlend mode="normal" in2="BackgroundImageFix" result="effect1_dropShadow_362_14693"/>
<feBlend mode="normal" in="SourceGraphic" in2="effect1_dropShadow_362_14693" result="shape"/>
</filter>
<filter id="filter5_d_362_14693" x="117.166" y="112.309" width="23.2833" height="23.2608" filterUnits="userSpaceOnUse" color-interpolation-filters="sRGB">
<feFlood flood-opacity="0" result="BackgroundImageFix"/>
<feColorMatrix in="SourceAlpha" type="matrix" values="0 0 0 0 0 0 0 0 0 0 0 0 0 0 0 0 0 0 127 0" result="hardAlpha"/>
<feOffset dy="0.925072"/>
<feGaussianBlur stdDeviation="0.925072"/>
<feColorMatrix type="matrix" values="0 0 0 0 0.129412 0 0 0 0 0 0 0 0 0 0.286275 0 0 0 0.16 0"/>
<feBlend mode="normal" in2="BackgroundImageFix" result="effect1_dropShadow_362_14693"/>
<feBlend mode="normal" in="SourceGraphic" in2="effect1_dropShadow_362_14693" result="shape"/>
</filter>
<filter id="filter6_d_362_14693" x="74.0844" y="157.298" width="23.2833" height="23.2608" filterUnits="userSpaceOnUse" color-interpolation-filters="sRGB">
<feFlood flood-opacity="0" result="BackgroundImageFix"/>
<feColorMatrix in="SourceAlpha" type="matrix" values="0 0 0 0 0 0 0 0 0 0 0 0 0 0 0 0 0 0 127 0" result="hardAlpha"/>
<feOffset dy="0.925072"/>
<feGaussianBlur stdDeviation="0.925072"/>
<feColorMatrix type="matrix" values="0 0 0 0 0.129412 0 0 0 0 0 0 0 0 0 0.286275 0 0 0 0.16 0"/>
<feBlend mode="normal" in2="BackgroundImageFix" result="effect1_dropShadow_362_14693"/>
<feBlend mode="normal" in="SourceGraphic" in2="effect1_dropShadow_362_14693" result="shape"/>
</filter>
<filter id="filter7_d_362_14693" x="160.248" y="157.298" width="23.2833" height="23.2608" filterUnits="userSpaceOnUse" color-interpolation-filters="sRGB">
<feFlood flood-opacity="0" result="BackgroundImageFix"/>
<feColorMatrix in="SourceAlpha" type="matrix" values="0 0 0 0 0 0 0 0 0 0 0 0 0 0 0 0 0 0 127 0" result="hardAlpha"/>
<feOffset dy="0.925072"/>
<feGaussianBlur stdDeviation="0.925072"/>
<feColorMatrix type="matrix" values="0 0 0 0 0.129412 0 0 0 0 0 0 0 0 0 0.286275 0 0 0 0.16 0"/>
<feBlend mode="normal" in2="BackgroundImageFix" result="effect1_dropShadow_362_14693"/>
<feBlend mode="normal" in="SourceGraphic" in2="effect1_dropShadow_362_14693" result="shape"/>
</filter>
<filter id="filter8_d_362_14693" x="117.481" y="157.298" width="23.2833" height="23.2608" filterUnits="userSpaceOnUse" color-interpolation-filters="sRGB">
<feFlood flood-opacity="0" result="BackgroundImageFix"/>
<feColorMatrix in="SourceAlpha" type="matrix" values="0 0 0 0 0 0 0 0 0 0 0 0 0 0 0 0 0 0 127 0" result="hardAlpha"/>
<feOffset dy="0.925072"/>
<feGaussianBlur stdDeviation="0.925072"/>
<feColorMatrix type="matrix" values="0 0 0 0 0.129412 0 0 0 0 0 0 0 0 0 0.286275 0 0 0 0.16 0"/>
<feBlend mode="normal" in2="BackgroundImageFix" result="effect1_dropShadow_362_14693"/>
<feBlend mode="normal" in="SourceGraphic" in2="effect1_dropShadow_362_14693" result="shape"/>
</filter>
<filter id="filter9_d_362_14693" x="74.0844" y="22.3347" width="23.2833" height="23.2608" filterUnits="userSpaceOnUse" color-interpolation-filters="sRGB">
<feFlood flood-opacity="0" result="BackgroundImageFix"/>
<feColorMatrix in="SourceAlpha" type="matrix" values="0 0 0 0 0 0 0 0 0 0 0 0 0 0 0 0 0 0 127 0" result="hardAlpha"/>
<feOffset dy="0.925072"/>
<feGaussianBlur stdDeviation="0.925072"/>
<feColorMatrix type="matrix" values="0 0 0 0 0.129412 0 0 0 0 0 0 0 0 0 0.286275 0 0 0 0.16 0"/>
<feBlend mode="normal" in2="BackgroundImageFix" result="effect1_dropShadow_362_14693"/>
<feBlend mode="normal" in="SourceGraphic" in2="effect1_dropShadow_362_14693" result="shape"/>
</filter>
<filter id="filter10_d_362_14693" x="160.876" y="22.3347" width="23.2833" height="23.2608" filterUnits="userSpaceOnUse" color-interpolation-filters="sRGB">
<feFlood flood-opacity="0" result="BackgroundImageFix"/>
<feColorMatrix in="SourceAlpha" type="matrix" values="0 0 0 0 0 0 0 0 0 0 0 0 0 0 0 0 0 0 127 0" result="hardAlpha"/>
<feOffset dy="0.925072"/>
<feGaussianBlur stdDeviation="0.925072"/>
<feColorMatrix type="matrix" values="0 0 0 0 0.129412 0 0 0 0 0 0 0 0 0 0.286275 0 0 0 0.16 0"/>
<feBlend mode="normal" in2="BackgroundImageFix" result="effect1_dropShadow_362_14693"/>
<feBlend mode="normal" in="SourceGraphic" in2="effect1_dropShadow_362_14693" result="shape"/>
</filter>
<filter id="filter11_d_362_14693" x="117.481" y="22.3347" width="23.2833" height="23.2608" filterUnits="userSpaceOnUse" color-interpolation-filters="sRGB">
<feFlood flood-opacity="0" result="BackgroundImageFix"/>
<feColorMatrix in="SourceAlpha" type="matrix" values="0 0 0 0 0 0 0 0 0 0 0 0 0 0 0 0 0 0 127 0" result="hardAlpha"/>
<feOffset dy="0.925072"/>
<feGaussianBlur stdDeviation="0.925072"/>
<feColorMatrix type="matrix" values="0 0 0 0 0.129412 0 0 0 0 0 0 0 0 0 0.286275 0 0 0 0.16 0"/>
<feBlend mode="normal" in2="BackgroundImageFix" result="effect1_dropShadow_362_14693"/>
<feBlend mode="normal" in="SourceGraphic" in2="effect1_dropShadow_362_14693" result="shape"/>
</filter>
<filter id="filter12_d_362_14693" x="161.936" y="198.885" width="23.2833" height="23.2608" filterUnits="userSpaceOnUse" color-interpolation-filters="sRGB">
<feFlood flood-opacity="0" result="BackgroundImageFix"/>
<feColorMatrix in="SourceAlpha" type="matrix" values="0 0 0 0 0 0 0 0 0 0 0 0 0 0 0 0 0 0 127 0" result="hardAlpha"/>
<feOffset dy="0.925072"/>
<feGaussianBlur stdDeviation="0.925072"/>
<feColorMatrix type="matrix" values="0 0 0 0 0.129412 0 0 0 0 0 0 0 0 0 0.286275 0 0 0 0.16 0"/>
<feBlend mode="normal" in2="BackgroundImageFix" result="effect1_dropShadow_362_14693"/>
<feBlend mode="normal" in="SourceGraphic" in2="effect1_dropShadow_362_14693" result="shape"/>
</filter>
<filter id="filter13_d_362_14693" x="118.54" y="198.885" width="23.2833" height="23.2608" filterUnits="userSpaceOnUse" color-interpolation-filters="sRGB">
<feFlood flood-opacity="0" result="BackgroundImageFix"/>
<feColorMatrix in="SourceAlpha" type="matrix" values="0 0 0 0 0 0 0 0 0 0 0 0 0 0 0 0 0 0 127 0" result="hardAlpha"/>
<feOffset dy="0.925072"/>
<feGaussianBlur stdDeviation="0.925072"/>
<feColorMatrix type="matrix" values="0 0 0 0 0.129412 0 0 0 0 0 0 0 0 0 0.286275 0 0 0 0.16 0"/>
<feBlend mode="normal" in2="BackgroundImageFix" result="effect1_dropShadow_362_14693"/>
<feBlend mode="normal" in="SourceGraphic" in2="effect1_dropShadow_362_14693" result="shape"/>
</filter>
<filter id="filter14_d_362_14693" x="73.0268" y="198.885" width="23.2833" height="23.2608" filterUnits="userSpaceOnUse" color-interpolation-filters="sRGB">
<feFlood flood-opacity="0" result="BackgroundImageFix"/>
<feColorMatrix in="SourceAlpha" type="matrix" values="0 0 0 0 0 0 0 0 0 0 0 0 0 0 0 0 0 0 127 0" result="hardAlpha"/>
<feOffset dy="0.925072"/>
<feGaussianBlur stdDeviation="0.925072"/>
<feColorMatrix type="matrix" values="0 0 0 0 0.129412 0 0 0 0 0 0 0 0 0 0.286275 0 0 0 0.16 0"/>
<feBlend mode="normal" in2="BackgroundImageFix" result="effect1_dropShadow_362_14693"/>
<feBlend mode="normal" in="SourceGraphic" in2="effect1_dropShadow_362_14693" result="shape"/>
</filter>
<filter id="filter15_d_362_14693" x="65.8428" y="234.667" width="131.321" height="35.625" filterUnits="userSpaceOnUse" color-interpolation-filters="sRGB">
<feFlood flood-opacity="0" result="BackgroundImageFix"/>
<feColorMatrix in="SourceAlpha" type="matrix" values="0 0 0 0 0 0 0 0 0 0 0 0 0 0 0 0 0 0 127 0" result="hardAlpha"/>
<feOffset dy="2.65854"/>
<feGaussianBlur stdDeviation="3.9878"/>
<feColorMatrix type="matrix" values="0 0 0 0 0.439216 0 0 0 0 0.564706 0 0 0 0 0.690196 0 0 0 0.15 0"/>
<feBlend mode="normal" in2="BackgroundImageFix" result="effect1_dropShadow_362_14693"/>
<feBlend mode="normal" in="SourceGraphic" in2="effect1_dropShadow_362_14693" result="shape"/>
</filter>
<clipPath id="clip0_362_14693">
<rect width="304" height="304" fill="white"/>
</clipPath>
<clipPath id="clip1_362_14693">
<rect width="176.244" height="312.956" fill="white" transform="translate(64.292 -38.0586)"/>
</clipPath>
<clipPath id="clip2_362_14693">
<rect width="15.6661" height="15.6478" fill="white" transform="translate(77.8926 70.2031)"/>
</clipPath>
</defs>
</svg>
