<svg width="304" height="304" viewBox="0 0 304 304" fill="none" xmlns="http://www.w3.org/2000/svg">
<g clip-path="url(#clip0_362_14326)">
<path d="M179.585 200.387L222.807 176.797H234.415L221.022 205.505L179.585 217.08V200.387Z" fill="#6991FF"/>
<path d="M162.807 0H53.6343C43.6351 0 35.5449 8.21573 35.5449 18.1659V284.355C35.5449 294.306 43.7261 302.521 53.6343 302.521H162.807C172.715 302.521 180.896 294.306 180.896 284.355V18.1659C180.896 8.21573 172.715 0 162.807 0ZM173.988 266.92C173.988 276.14 166.534 283.625 157.353 283.625H57.5431C48.362 283.625 40.9081 276.14 40.9081 266.92V21.4522C40.9081 12.2323 48.362 4.74687 57.5431 4.74687H157.353C166.534 4.74687 173.988 12.2323 173.988 21.4522V266.92Z" fill="#210049"/>
<path d="M158.807 4.74609H57.725C48.453 4.74609 40.9082 12.2315 40.9082 21.4514V267.01C40.9082 276.23 48.453 283.716 57.725 283.716H158.807C168.079 283.716 175.624 276.23 175.624 267.01V21.4514C175.624 12.2315 168.079 4.74609 158.807 4.74609Z" fill="white"/>
<path d="M36.0906 53.0374H35.3634C34.0908 53.0374 33 51.942 33 50.664V42.9047C33 41.6267 34.0908 40.5312 35.3634 40.5312H36.0906C37.3633 40.5312 38.4541 41.6267 38.4541 42.9047V50.664C38.545 51.942 37.4542 53.0374 36.0906 53.0374Z" fill="#210049"/>
<path d="M35.8179 84.7128C34.2725 84.7128 33.0908 83.4348 33.0908 81.9742V65.4515C33.0908 63.8996 34.3634 62.7129 35.8179 62.7129C37.3632 62.7129 38.5449 63.9909 38.5449 65.4515V81.9742C38.5449 83.5261 37.2723 84.7128 35.8179 84.7128Z" fill="#210049"/>
<path d="M182.26 84.7143C180.715 84.7143 179.533 83.4363 179.533 81.9757V50.0257C179.533 48.4738 180.806 47.2871 182.26 47.2871C183.806 47.2871 184.987 48.5651 184.987 50.0257V81.9757C184.987 83.5276 183.715 84.7143 182.26 84.7143Z" fill="#210049"/>
<path d="M35.8179 111.734C34.2725 111.734 33.0908 110.456 33.0908 108.996V92.473C33.0908 90.9211 34.3634 89.7344 35.8179 89.7344C37.3632 89.7344 38.5449 91.0124 38.5449 92.473V108.996C38.5449 110.456 37.2723 111.734 35.8179 111.734Z" fill="#210049"/>
<rect x="72.8145" y="289.832" width="74.5392" height="4.56429" rx="2.28215" fill="white"/>
<mask id="mask0_362_14326" style="mask-type:alpha" maskUnits="userSpaceOnUse" x="40" y="4" width="137" height="280">
<path d="M159.154 4.48828H57.7008C48.3948 4.48828 40.8223 11.9858 40.8223 21.2206V267.176C40.8223 276.411 48.3948 283.908 57.7008 283.908H159.154C168.46 283.908 176.033 276.411 176.033 267.176V21.2206C176.033 11.9858 168.46 4.48828 159.154 4.48828Z" fill="white"/>
</mask>
<g mask="url(#mask0_362_14326)">
<rect opacity="0.9" x="-67.6646" y="-121.095" width="244.171" height="435.498" fill="#210049" stroke="#979797" stroke-width="0.60625"/>
<g filter="url(#filter0_d_362_14326)">
<path fill-rule="evenodd" clip-rule="evenodd" d="M151.96 258.716C162.548 258.716 171.131 250.114 171.131 239.503C171.131 228.893 162.548 220.291 151.96 220.291C141.372 220.291 132.789 228.893 132.789 239.503C132.789 250.114 141.372 258.716 151.96 258.716Z" fill="#FF2F73"/>
</g>
<path fill-rule="evenodd" clip-rule="evenodd" d="M151.278 238.677C150.173 238.359 149.426 237.755 149.426 236.611C149.426 235.419 150.248 234.609 151.278 234.577V238.677ZM151.995 240.028C153.13 240.41 153.952 241.157 153.952 242.237C153.952 243.811 152.877 244.367 151.995 244.399V240.028ZM151.278 244.398C150.651 244.382 149.515 243.953 148.977 242.999L148.126 243.635C148.843 244.605 149.934 245.288 151.278 245.32V247.188H151.995V245.32C153.713 245.288 155.027 244.08 155.027 242.316C155.027 240.25 153.504 239.503 151.995 238.947V234.577C152.712 234.593 153.474 234.942 153.937 235.642L154.759 234.974C154.086 234.132 152.951 233.719 151.995 233.687V231.818H151.278V233.687C149.724 233.766 148.395 234.863 148.395 236.706C148.395 238.645 149.919 239.392 151.278 239.837V244.398Z" fill="white"/>
<path d="M151.278 238.677L151.175 239.036C151.288 239.069 151.409 239.046 151.503 238.976C151.597 238.905 151.652 238.794 151.652 238.677H151.278ZM151.278 234.577H151.652C151.652 234.476 151.611 234.379 151.539 234.308C151.466 234.238 151.368 234.2 151.267 234.203L151.278 234.577ZM151.995 240.028L152.114 239.674C152 239.636 151.875 239.654 151.777 239.725C151.679 239.795 151.621 239.908 151.621 240.028H151.995ZM151.995 244.399H151.621C151.621 244.5 151.663 244.597 151.736 244.668C151.809 244.738 151.907 244.776 152.009 244.772L151.995 244.399ZM151.278 244.398L151.268 244.772C151.369 244.774 151.467 244.736 151.539 244.666C151.611 244.595 151.652 244.499 151.652 244.398H151.278ZM148.977 242.999L149.303 242.816C149.25 242.722 149.16 242.656 149.055 242.634C148.95 242.611 148.84 242.636 148.754 242.7L148.977 242.999ZM148.126 243.635L147.902 243.336C147.737 243.459 147.703 243.692 147.825 243.858L148.126 243.635ZM151.278 245.32H151.652C151.652 245.117 151.49 244.951 151.287 244.946L151.278 245.32ZM151.278 247.188H150.904C150.904 247.395 151.071 247.562 151.278 247.562V247.188ZM151.995 247.188V247.562C152.201 247.562 152.369 247.395 152.369 247.188H151.995ZM151.995 245.32L151.988 244.946C151.784 244.95 151.621 245.116 151.621 245.32H151.995ZM151.995 238.947H151.621C151.621 239.104 151.719 239.244 151.866 239.298L151.995 238.947ZM151.995 234.577L152.003 234.203C151.903 234.201 151.805 234.239 151.734 234.31C151.662 234.38 151.621 234.476 151.621 234.577H151.995ZM153.937 235.642L153.625 235.848C153.683 235.936 153.776 235.995 153.88 236.011C153.985 236.027 154.091 235.998 154.173 235.932L153.937 235.642ZM154.759 234.974L154.994 235.264C155.154 235.135 155.179 234.901 155.051 234.741L154.759 234.974ZM151.995 233.687H151.621C151.621 233.889 151.781 234.054 151.983 234.061L151.995 233.687ZM151.995 231.818H152.369C152.369 231.612 152.201 231.444 151.995 231.444V231.818ZM151.278 231.818V231.444C151.071 231.444 150.904 231.612 150.904 231.818H151.278ZM151.278 233.687L151.297 234.06C151.496 234.05 151.652 233.886 151.652 233.687H151.278ZM151.278 239.837H151.652C151.652 239.675 151.548 239.532 151.394 239.482L151.278 239.837ZM151.382 238.318C150.862 238.168 150.468 237.962 150.205 237.693C149.953 237.434 149.8 237.092 149.8 236.611H149.052C149.052 237.274 149.272 237.806 149.67 238.215C150.057 238.613 150.589 238.868 151.175 239.036L151.382 238.318ZM149.8 236.611C149.8 235.61 150.472 234.976 151.29 234.951L151.267 234.203C150.023 234.241 149.052 235.228 149.052 236.611H149.8ZM150.904 234.577V238.677H151.652V234.577H150.904ZM151.876 240.383C152.942 240.741 153.578 241.39 153.578 242.237H154.326C154.326 240.923 153.319 240.079 152.114 239.674L151.876 240.383ZM153.578 242.237C153.578 242.931 153.345 243.357 153.055 243.617C152.754 243.886 152.355 244.011 151.982 244.025L152.009 244.772C152.516 244.754 153.096 244.585 153.554 244.174C154.021 243.755 154.326 243.117 154.326 242.237H153.578ZM152.369 244.399V240.028H151.621V244.399H152.369ZM151.287 244.024C151.041 244.018 150.656 243.926 150.27 243.72C149.886 243.516 149.529 243.216 149.303 242.816L148.652 243.183C148.964 243.737 149.443 244.128 149.919 244.38C150.391 244.632 150.888 244.762 151.268 244.772L151.287 244.024ZM148.754 242.7L147.902 243.336L148.35 243.935L149.201 243.299L148.754 242.7ZM147.825 243.858C148.601 244.906 149.793 245.659 151.269 245.693L151.287 244.946C150.074 244.917 149.085 244.303 148.427 243.413L147.825 243.858ZM150.904 245.32V247.188H151.652V245.32H150.904ZM151.278 247.562H151.995V246.814H151.278V247.562ZM152.369 247.188V245.32H151.621V247.188H152.369ZM152.002 245.694C153.906 245.658 155.401 244.301 155.401 242.316H154.654C154.654 243.859 153.52 244.917 151.988 244.946L152.002 245.694ZM155.401 242.316C155.401 241.175 154.973 240.371 154.328 239.788C153.7 239.221 152.882 238.876 152.124 238.596L151.866 239.298C152.617 239.575 153.315 239.881 153.826 240.343C154.32 240.789 154.654 241.392 154.654 242.316H155.401ZM152.369 238.947V234.577H151.621V238.947H152.369ZM151.987 234.951C152.594 234.964 153.236 235.261 153.625 235.848L154.249 235.435C153.711 234.624 152.83 234.221 152.003 234.203L151.987 234.951ZM154.173 235.932L154.994 235.264L154.523 234.684L153.701 235.351L154.173 235.932ZM155.051 234.741C154.293 233.791 153.041 233.348 152.007 233.313L151.983 234.061C152.861 234.09 153.88 234.472 154.466 235.207L155.051 234.741ZM152.369 233.687V231.818H151.621V233.687H152.369ZM151.995 231.444H151.278V232.192H151.995V231.444ZM150.904 231.818V233.687H151.652V231.818H150.904ZM151.259 233.314C149.532 233.402 148.021 234.639 148.021 236.706H148.769C148.769 235.087 149.916 234.131 151.297 234.06L151.259 233.314ZM148.021 236.706C148.021 237.791 148.454 238.562 149.08 239.113C149.689 239.649 150.47 239.966 151.162 240.192L151.394 239.482C150.726 239.263 150.065 238.984 149.574 238.551C149.098 238.132 148.769 237.561 148.769 236.706H148.021ZM150.904 239.837V244.398H151.652V239.837H150.904Z" fill="white"/>
<path d="M73.315 194.477H74.479V191.761H76.0892L77.3987 194.477H78.6888L77.2532 191.605C78.0777 191.314 78.6015 190.626 78.6015 189.743C78.6015 188.521 77.68 187.687 76.3317 187.687H73.315V194.477ZM74.479 190.829V188.666H76.225C76.9525 188.666 77.4278 189.093 77.4278 189.753C77.4278 190.403 76.9525 190.829 76.225 190.829H74.479ZM81.7102 194.574C82.4474 194.574 83.0391 194.36 83.6308 193.865L82.913 193.216C82.6414 193.497 82.2146 193.671 81.7587 193.671C81.0021 193.671 80.4104 193.099 80.3037 192.313H83.8927V192.052C83.8927 190.597 82.9227 189.539 81.5938 189.539C80.2552 189.539 79.227 190.626 79.227 192.052C79.227 193.477 80.3134 194.574 81.7102 194.574ZM80.3134 191.634C80.4395 190.907 80.9245 190.432 81.5841 190.432C82.234 190.432 82.7384 190.926 82.8548 191.634H80.3134ZM87.2605 194.564C88.0171 194.564 88.7155 194.263 89.2005 193.739L88.5215 193.041C88.182 193.41 87.7649 193.604 87.2993 193.604C86.5136 193.604 85.9025 192.934 85.9025 192.052C85.9025 191.179 86.5136 190.5 87.2993 190.5C87.7649 190.5 88.182 190.694 88.5215 191.072L89.2005 190.364C88.7155 189.84 88.0171 189.539 87.2605 189.539C85.8734 189.539 84.8064 190.645 84.8064 192.052C84.8064 193.468 85.8734 194.564 87.2605 194.564ZM91.5813 194.564C92.1439 194.564 92.6095 194.38 93.0266 193.972V194.477H94.113V191.305C94.113 190.179 93.3952 189.539 92.1245 189.539C91.4746 189.539 90.8344 189.704 90.1069 190.034L90.4949 190.829C91.0575 190.567 91.5037 190.451 91.9111 190.451C92.658 190.451 93.0266 190.781 93.0266 191.421V191.964C92.5998 191.751 92.173 191.654 91.7171 191.654C90.5725 191.654 89.8547 192.207 89.8547 193.08C89.8547 193.953 90.5628 194.564 91.5813 194.564ZM90.8829 193.06C90.8829 192.624 91.2806 192.362 91.9111 192.362C92.3282 192.362 92.6774 192.43 93.0266 192.595V193.38C92.6968 193.662 92.3185 193.788 91.882 193.788C91.2709 193.788 90.8829 193.507 90.8829 193.06ZM95.44 194.477H96.5361V191.276C96.7786 190.771 97.2151 190.47 97.7486 190.47C97.9523 190.47 98.1754 190.519 98.35 190.587V189.627C98.1851 189.559 98.059 189.539 97.8747 189.53C97.2733 189.53 96.8077 189.927 96.5361 190.664V189.617H95.44V194.477ZM101.29 196.601C102.765 196.601 103.58 195.902 103.58 194.651V189.617H102.493V190.228C102.134 189.801 101.63 189.578 101.067 189.578C99.7966 189.578 98.7975 190.655 98.7975 192.032C98.7975 193.41 99.7578 194.506 100.99 194.506C101.601 194.506 102.134 194.253 102.484 193.827V194.651C102.484 195.359 102.057 195.728 101.242 195.728C100.757 195.728 100.291 195.602 99.719 195.32L99.3407 196.126C99.913 196.426 100.592 196.601 101.29 196.601ZM101.329 193.594C100.495 193.594 99.8742 192.925 99.8742 192.042C99.8742 191.149 100.495 190.5 101.329 190.5C101.785 190.5 102.202 190.694 102.484 191.023V193.06C102.202 193.4 101.805 193.594 101.329 193.594ZM106.406 194.564C106.969 194.564 107.434 194.38 107.851 193.972V194.477H108.938V191.305C108.938 190.179 108.22 189.539 106.949 189.539C106.299 189.539 105.659 189.704 104.932 190.034L105.32 190.829C105.882 190.567 106.328 190.451 106.736 190.451C107.483 190.451 107.851 190.781 107.851 191.421V191.964C107.424 191.751 106.998 191.654 106.542 191.654C105.397 191.654 104.679 192.207 104.679 193.08C104.679 193.953 105.387 194.564 106.406 194.564ZM105.708 193.06C105.708 192.624 106.105 192.362 106.736 192.362C107.153 192.362 107.502 192.43 107.851 192.595V193.38C107.521 193.662 107.143 193.788 106.707 193.788C106.096 193.788 105.708 193.507 105.708 193.06ZM112.579 194.477H113.675L113.656 189.403L117.293 194.477H118.331V187.687H117.235L117.255 192.624L113.714 187.687H112.579V194.477ZM122.083 194.574C122.82 194.574 123.412 194.36 124.003 193.865L123.285 193.216C123.014 193.497 122.587 193.671 122.131 193.671C121.375 193.671 120.783 193.099 120.676 192.313H124.265V192.052C124.265 190.597 123.295 189.539 121.966 189.539C120.628 189.539 119.599 190.626 119.599 192.052C119.599 193.477 120.686 194.574 122.083 194.574ZM120.686 191.634C120.812 190.907 121.297 190.432 121.957 190.432C122.606 190.432 123.111 190.926 123.227 191.634H120.686ZM128.865 196.514H129.961V189.617H128.875V190.218C128.506 189.801 128.011 189.578 127.449 189.578C126.178 189.578 125.179 190.664 125.179 192.052C125.179 193.429 126.139 194.525 127.371 194.525C127.982 194.525 128.516 194.283 128.865 193.846V196.514ZM127.711 193.604C126.876 193.604 126.256 192.934 126.256 192.052C126.256 191.159 126.876 190.5 127.711 190.5C128.166 190.5 128.584 190.694 128.865 191.023V193.07C128.584 193.419 128.186 193.604 127.711 193.604ZM132.971 194.554C133.621 194.554 134.145 194.263 134.514 193.691V194.477H135.61V189.617H134.514V193.089C134.261 193.477 133.893 193.671 133.456 193.671C132.806 193.671 132.389 193.216 132.389 192.498V189.617H131.284V192.818C131.284 193.836 131.982 194.554 132.971 194.554ZM137.511 188.627C137.88 188.627 138.19 188.327 138.19 187.958C138.19 187.59 137.88 187.279 137.511 187.279C137.133 187.279 136.832 187.59 136.832 187.958C136.832 188.327 137.133 188.627 137.511 188.627ZM136.958 194.477H138.054V189.617H136.958V194.477Z" fill="white"/>
<g opacity="0.8">
<g filter="url(#filter1_d_362_14326)">
<path fill-rule="evenodd" clip-rule="evenodd" d="M152.332 199.139C156.838 199.139 160.491 195.478 160.491 190.962C160.491 186.446 156.838 182.785 152.332 182.785C147.826 182.785 144.173 186.446 144.173 190.962C144.173 195.478 147.826 199.139 152.332 199.139Z" fill="#FF2F73"/>
</g>
<path d="M152.348 193.281V188.942" stroke="white" stroke-width="0.60625" stroke-linecap="round" stroke-linejoin="round"/>
<path d="M154.159 190.822L152.329 188.905L150.499 190.822" stroke="white" stroke-width="0.60625" stroke-linecap="round" stroke-linejoin="round"/>
</g>
<path d="M115.056 118.158H119.917V117.176H116.211V115.242H118.771V114.279H116.211V112.403H119.878V111.421H115.056V118.158ZM121.087 118.158H122.175V114.722C122.425 114.337 122.781 114.135 123.224 114.135C123.869 114.135 124.283 114.587 124.283 115.29V118.158H125.38V114.982C125.38 113.962 124.687 113.259 123.696 113.259C123.07 113.259 122.541 113.558 122.175 114.125V113.336H121.087V118.158ZM127.869 118.158H128.927L130.91 113.336H129.774L128.437 116.84L127.089 113.336H125.905L127.869 118.158ZM131.468 112.46H132.421L134.019 111.18H132.652L131.468 112.46ZM131.69 118.158H132.777V113.336H131.69V118.158ZM135.578 118.245C136.136 118.245 136.598 118.062 137.012 117.658V118.158H138.09V115.011C138.09 113.894 137.378 113.259 136.117 113.259C135.472 113.259 134.837 113.423 134.115 113.75L134.5 114.539C135.058 114.279 135.501 114.164 135.905 114.164C136.646 114.164 137.012 114.491 137.012 115.126V115.665C136.588 115.454 136.165 115.357 135.712 115.357C134.577 115.357 133.864 115.906 133.864 116.772C133.864 117.638 134.567 118.245 135.578 118.245ZM134.885 116.753C134.885 116.32 135.279 116.06 135.905 116.06C136.319 116.06 136.665 116.127 137.012 116.291V117.071C136.685 117.35 136.309 117.475 135.876 117.475C135.27 117.475 134.885 117.196 134.885 116.753Z" fill="white"/>
<g opacity="0.8">
<path fill-rule="evenodd" clip-rule="evenodd" d="M152.331 122.909C156.837 122.909 160.49 119.248 160.49 114.732C160.49 110.216 156.837 106.555 152.331 106.555C147.825 106.555 144.172 110.216 144.172 114.732C144.172 119.248 147.825 122.909 152.331 122.909Z" fill="#FF2F73"/>
<path d="M150.261 115.04L154.591 115.04" stroke="white" stroke-width="0.60625" stroke-linecap="round" stroke-linejoin="round"/>
<path d="M152.716 116.855L154.629 115.021L152.716 113.188" stroke="white" stroke-width="0.60625" stroke-linecap="round" stroke-linejoin="round"/>
</g>
<path d="M119.192 79.3184H120.347V76.7485H122.205C123.572 76.7485 124.457 75.8919 124.457 74.6792C124.457 73.4376 123.572 72.581 122.205 72.581H119.192V79.3184ZM120.347 75.8053V73.5531H122.032C122.84 73.5531 123.292 74.0055 123.292 74.6696C123.292 75.3529 122.84 75.8053 122.022 75.8053H120.347ZM126.129 73.5146C126.495 73.5146 126.803 73.2162 126.803 72.8505C126.803 72.4847 126.495 72.1767 126.129 72.1767C125.754 72.1767 125.455 72.4847 125.455 72.8505C125.455 73.2162 125.754 73.5146 126.129 73.5146ZM125.58 79.3184H126.668V74.4963H125.58V79.3184ZM129.969 79.3665C130.575 79.3665 131.114 79.1162 131.461 78.6831V79.3184H132.539V72.2249L131.451 72.4174V75.0834C131.095 74.6792 130.594 74.4578 130.046 74.4578C128.785 74.4578 127.794 75.5358 127.794 76.9122C127.794 78.2789 128.746 79.3665 129.969 79.3665ZM130.306 78.4521C129.478 78.4521 128.862 77.788 128.862 76.9122C128.862 76.0267 129.478 75.3722 130.306 75.3722C130.758 75.3722 131.172 75.5647 131.451 75.8919V77.9228C131.172 78.2693 130.777 78.4521 130.306 78.4521ZM136.132 79.4146C136.864 79.4146 137.451 79.2029 138.038 78.712L137.326 78.0671C137.056 78.3463 136.633 78.5195 136.18 78.5195C135.429 78.5195 134.842 77.9516 134.737 77.172H138.298V76.9122C138.298 75.4684 137.335 74.4193 136.017 74.4193C134.688 74.4193 133.668 75.4973 133.668 76.9122C133.668 78.327 134.746 79.4146 136.132 79.4146ZM134.746 76.4983C134.871 75.7764 135.352 75.3048 136.007 75.3048C136.652 75.3048 137.152 75.7957 137.268 76.4983H134.746Z" fill="white"/>
<g opacity="0.8">
<path fill-rule="evenodd" clip-rule="evenodd" d="M152.332 84.309C156.838 84.309 160.491 80.648 160.491 76.132C160.491 71.616 156.838 67.9551 152.332 67.9551C147.826 67.9551 144.173 71.616 144.173 76.132C144.173 80.648 147.826 84.309 152.332 84.309Z" fill="#FF2F73"/>
<path d="M154.387 75.9152L150.057 75.9152" stroke="white" stroke-width="0.60625" stroke-linecap="round" stroke-linejoin="round"/>
<path d="M151.932 74.0998L150.018 75.9336L151.932 77.7674" stroke="white" stroke-width="0.60625" stroke-linecap="round" stroke-linejoin="round"/>
</g>
<path d="M119.902 41.266C121.51 41.266 122.607 40.3902 122.607 39.1486C122.607 38.1283 121.972 37.5316 120.615 37.291L119.412 37.0889C118.68 36.9734 118.372 36.7231 118.372 36.2322C118.372 35.6836 118.911 35.2698 119.719 35.2698C120.48 35.2698 121.202 35.5393 121.875 36.0494L122.463 35.1831C121.693 34.6153 120.769 34.3169 119.758 34.3169C118.247 34.3169 117.275 35.1254 117.275 36.3477C117.275 37.2717 117.843 37.8492 119.007 38.061L120.249 38.2727C121.144 38.4267 121.471 38.6866 121.471 39.2352C121.471 39.8608 120.855 40.3132 119.97 40.3132C119.19 40.3132 118.565 40.0437 117.698 39.3314L117.073 40.1784C117.929 40.9003 118.844 41.266 119.902 41.266ZM125.248 41.2468C125.806 41.2468 126.268 41.0639 126.682 40.6597V41.1602H127.76V38.0128C127.76 36.8964 127.048 36.2611 125.787 36.2611C125.142 36.2611 124.507 36.4247 123.785 36.752L124.17 37.5412C124.728 37.2814 125.171 37.1659 125.575 37.1659C126.316 37.1659 126.682 37.4931 126.682 38.1283V38.6673C126.258 38.4556 125.835 38.3593 125.382 38.3593C124.247 38.3593 123.534 38.9079 123.534 39.7742C123.534 40.6404 124.237 41.2468 125.248 41.2468ZM124.555 39.7549C124.555 39.3218 124.949 39.0619 125.575 39.0619C125.989 39.0619 126.335 39.1293 126.682 39.2929V40.0726C126.355 40.3517 125.979 40.4768 125.546 40.4768C124.94 40.4768 124.555 40.1977 124.555 39.7549ZM131.29 41.2468C132.041 41.2468 132.734 40.9484 133.215 40.4287L132.541 39.7357C132.205 40.1014 131.791 40.2939 131.329 40.2939C130.549 40.2939 129.943 39.6298 129.943 38.7539C129.943 37.8877 130.549 37.214 131.329 37.214C131.791 37.214 132.205 37.4065 132.541 37.7818L133.215 37.0792C132.734 36.5595 132.041 36.2611 131.29 36.2611C129.914 36.2611 128.855 37.3584 128.855 38.7539C128.855 40.1592 129.914 41.2468 131.29 41.2468ZM135.577 41.2468C136.136 41.2468 136.598 41.0639 137.012 40.6597V41.1602H138.09V38.0128C138.09 36.8964 137.377 36.2611 136.116 36.2611C135.472 36.2611 134.836 36.4247 134.114 36.752L134.499 37.5412C135.058 37.2814 135.5 37.1659 135.905 37.1659C136.646 37.1659 137.012 37.4931 137.012 38.1283V38.6673C136.588 38.4556 136.165 38.3593 135.712 38.3593C134.576 38.3593 133.864 38.9079 133.864 39.7742C133.864 40.6404 134.567 41.2468 135.577 41.2468ZM134.884 39.7549C134.884 39.3218 135.279 39.0619 135.905 39.0619C136.319 39.0619 136.665 39.1293 137.012 39.2929V40.0726C136.684 40.3517 136.309 40.4768 135.876 40.4768C135.269 40.4768 134.884 40.1977 134.884 39.7549Z" fill="white"/>
<g opacity="0.8">
<path fill-rule="evenodd" clip-rule="evenodd" d="M152.331 46.1508C156.837 46.1508 160.49 42.4898 160.49 37.9738C160.49 33.4578 156.837 29.7969 152.331 29.7969C147.825 29.7969 144.172 33.4578 144.172 37.9738C144.172 42.4898 147.825 46.1508 152.331 46.1508Z" fill="#FF2F73"/>
<path d="M152.31 35.5879V39.9272" stroke="white" stroke-width="0.60625" stroke-linecap="round" stroke-linejoin="round"/>
<path d="M150.498 38.0467L152.328 39.9645L154.158 38.0467" stroke="white" stroke-width="0.60625" stroke-linecap="round" stroke-linejoin="round"/>
</g>
<path d="M93.8033 156.424C94.8332 156.424 95.8149 155.981 96.4309 155.221L95.6609 154.47C95.1797 155.067 94.5155 155.385 93.8033 155.385C92.4943 155.385 91.503 154.336 91.503 152.95C91.503 151.564 92.4943 150.515 93.8033 150.515C94.5155 150.515 95.1797 150.832 95.6609 151.429L96.4309 150.678C95.8149 149.918 94.8332 149.475 93.8033 149.475C91.8398 149.475 90.3191 150.996 90.3191 152.95C90.3191 154.904 91.8398 156.424 93.8033 156.424ZM98.7505 150.62H99.7034L101.301 149.34H99.9344L98.7505 150.62ZM99.5205 156.405C100.897 156.405 101.936 155.337 101.936 153.912C101.936 152.488 100.897 151.419 99.5205 151.419C98.1345 151.419 97.0951 152.488 97.0951 153.912C97.0951 155.337 98.1345 156.405 99.5205 156.405ZM99.5205 155.481C98.7313 155.481 98.1634 154.817 98.1634 153.912C98.1634 153.017 98.7313 152.343 99.5205 152.343C100.3 152.343 100.868 153.017 100.868 153.912C100.868 154.817 100.3 155.481 99.5205 155.481ZM105.013 156.366C105.62 156.366 106.159 156.116 106.505 155.683V156.318H107.583V149.225L106.495 149.417V152.083C106.139 151.679 105.639 151.458 105.09 151.458C103.829 151.458 102.838 152.536 102.838 153.912C102.838 155.279 103.791 156.366 105.013 156.366ZM105.35 155.452C104.522 155.452 103.906 154.788 103.906 153.912C103.906 153.027 104.522 152.372 105.35 152.372C105.802 152.372 106.216 152.565 106.495 152.892V154.923C106.216 155.269 105.822 155.452 105.35 155.452ZM109.473 150.515C109.839 150.515 110.147 150.216 110.147 149.85C110.147 149.485 109.839 149.177 109.473 149.177C109.098 149.177 108.799 149.485 108.799 149.85C108.799 150.216 109.098 150.515 109.473 150.515ZM108.924 156.318H110.012V151.496H108.924V156.318ZM113.611 158.426C115.074 158.426 115.883 157.733 115.883 156.492V151.496H114.805V152.103C114.448 151.679 113.948 151.458 113.39 151.458C112.129 151.458 111.138 152.526 111.138 153.893C111.138 155.26 112.09 156.347 113.313 156.347C113.919 156.347 114.448 156.097 114.795 155.673V156.492C114.795 157.194 114.371 157.56 113.563 157.56C113.082 157.56 112.62 157.435 112.052 157.156L111.677 157.955C112.244 158.253 112.918 158.426 113.611 158.426ZM113.65 155.443C112.822 155.443 112.206 154.778 112.206 153.903C112.206 153.017 112.822 152.372 113.65 152.372C114.102 152.372 114.516 152.565 114.795 152.892V154.913C114.516 155.25 114.121 155.443 113.65 155.443ZM119.428 156.405C120.804 156.405 121.844 155.337 121.844 153.912C121.844 152.488 120.804 151.419 119.428 151.419C118.042 151.419 117.003 152.488 117.003 153.912C117.003 155.337 118.042 156.405 119.428 156.405ZM119.428 155.481C118.639 155.481 118.071 154.817 118.071 153.912C118.071 153.017 118.639 152.343 119.428 152.343C120.208 152.343 120.776 153.017 120.776 153.912C120.776 154.817 120.208 155.481 119.428 155.481ZM130.432 156.674L131.481 156.376L130.73 155.462C131.375 154.836 131.77 153.941 131.77 152.95C131.77 151.005 130.268 149.475 128.363 149.475C126.457 149.475 124.956 151.005 124.956 152.95C124.956 154.894 126.457 156.424 128.363 156.424C128.931 156.424 129.45 156.289 129.912 156.039L130.432 156.674ZM128.363 155.385C127.102 155.385 126.13 154.336 126.13 152.95C126.13 151.564 127.102 150.515 128.363 150.515C129.624 150.515 130.586 151.564 130.586 152.95C130.586 153.595 130.374 154.153 130.028 154.576L129.421 153.845L128.372 154.143L129.219 155.173C128.969 155.308 128.671 155.385 128.363 155.385ZM133.074 156.318H134.229V153.623H135.827L137.126 156.318H138.406L136.982 153.469C137.8 153.181 138.32 152.497 138.32 151.621C138.32 150.409 137.405 149.581 136.068 149.581H133.074V156.318ZM134.229 152.699V150.553H135.962C136.684 150.553 137.155 150.977 137.155 151.631C137.155 152.276 136.684 152.699 135.962 152.699H134.229Z" fill="white"/>
<g opacity="0.8">
<path fill-rule="evenodd" clip-rule="evenodd" d="M152.331 161.309C156.837 161.309 160.49 157.648 160.49 153.132C160.49 148.616 156.837 144.955 152.331 144.955C147.825 144.955 144.172 148.616 144.172 153.132C144.172 157.648 147.825 161.309 152.331 161.309Z" fill="#FF2F73"/>
<g clip-path="url(#clip1_362_14326)">
<path d="M154.754 154.408H153.734C153.664 154.408 153.606 154.465 153.606 154.536V155.558C153.606 155.629 153.664 155.686 153.734 155.686H154.754C154.824 155.686 154.881 155.629 154.881 155.558V154.536C154.881 154.465 154.824 154.408 154.754 154.408Z" fill="white"/>
<path d="M153.479 153.387H152.714C152.644 153.387 152.587 153.444 152.587 153.514V154.281C152.587 154.352 152.644 154.409 152.714 154.409H153.479C153.55 154.409 153.607 154.352 153.607 154.281V153.514C153.607 153.444 153.55 153.387 153.479 153.387Z" fill="white"/>
<path d="M155.773 155.688H155.008C154.938 155.688 154.881 155.745 154.881 155.815V156.582C154.881 156.652 154.938 156.71 155.008 156.71H155.773C155.844 156.71 155.901 156.652 155.901 156.582V155.815C155.901 155.745 155.844 155.688 155.773 155.688Z" fill="white"/>
<path d="M155.774 153.387H155.263C155.193 153.387 155.136 153.444 155.136 153.515V154.026C155.136 154.097 155.193 154.154 155.263 154.154H155.774C155.845 154.154 155.902 154.097 155.902 154.026V153.515C155.902 153.444 155.845 153.387 155.774 153.387Z" fill="white"/>
<path d="M153.225 155.941H152.715C152.644 155.941 152.587 155.999 152.587 156.069V156.581C152.587 156.652 152.644 156.709 152.715 156.709H153.225C153.296 156.709 153.353 156.652 153.353 156.581V156.069C153.353 155.999 153.296 155.941 153.225 155.941Z" fill="white"/>
<path d="M154.754 150.576H153.734C153.664 150.576 153.606 150.633 153.606 150.704V151.726C153.606 151.797 153.664 151.854 153.734 151.854H154.754C154.824 151.854 154.881 151.797 154.881 151.726V150.704C154.881 150.633 154.824 150.576 154.754 150.576Z" fill="white"/>
<path d="M155.392 149.811H153.097C152.956 149.811 152.842 149.925 152.842 150.066V152.366C152.842 152.507 152.956 152.621 153.097 152.621H155.392C155.532 152.621 155.647 152.507 155.647 152.366V150.066C155.647 149.925 155.532 149.811 155.392 149.811Z" stroke="white" stroke-width="0.454688" stroke-linecap="round" stroke-linejoin="round"/>
<path d="M150.929 150.576H149.909C149.838 150.576 149.781 150.633 149.781 150.704V151.726C149.781 151.797 149.838 151.854 149.909 151.854H150.929C150.999 151.854 151.056 151.797 151.056 151.726V150.704C151.056 150.633 150.999 150.576 150.929 150.576Z" fill="white"/>
<path d="M151.566 149.811H149.272C149.131 149.811 149.017 149.925 149.017 150.066V152.366C149.017 152.507 149.131 152.621 149.272 152.621H151.566C151.707 152.621 151.821 152.507 151.821 152.366V150.066C151.821 149.925 151.707 149.811 151.566 149.811Z" stroke="white" stroke-width="0.454688" stroke-linecap="round" stroke-linejoin="round"/>
<path d="M150.929 154.408H149.909C149.838 154.408 149.781 154.465 149.781 154.536V155.558C149.781 155.629 149.838 155.686 149.909 155.686H150.929C150.999 155.686 151.056 155.629 151.056 155.558V154.536C151.056 154.465 150.999 154.408 150.929 154.408Z" fill="white"/>
<path d="M151.566 153.643H149.272C149.131 153.643 149.017 153.757 149.017 153.898V156.198C149.017 156.339 149.131 156.453 149.272 156.453H151.566C151.707 156.453 151.821 156.339 151.821 156.198V153.898C151.821 153.757 151.707 153.643 151.566 153.643Z" stroke="white" stroke-width="0.454688" stroke-linecap="round" stroke-linejoin="round"/>
</g>
</g>
</g>
<path d="M184.278 213.084C186.873 214.386 190.224 214.712 191.575 214.712L189.953 227.739C189.143 227.196 186.71 226.925 183.468 230.181C180.225 233.438 177.252 233.709 176.171 233.438C174.874 233.438 173.468 232.352 172.928 231.81C170.982 231.81 169.415 230.181 168.874 229.367C166.929 229.367 165.902 226.653 165.631 225.296L159.984 229.707C159.043 230.442 157.701 230.359 156.858 229.512C155.9 228.55 155.949 226.98 156.965 226.079L168.874 215.526C172.117 209.013 181.035 211.455 184.278 213.084Z" fill="white"/>
<path d="M271.341 348L275.258 270.232C257.541 268.367 221.659 265.085 219.869 266.875L215.393 292.611L210.917 345.762L271.341 348Z" fill="#A699B6"/>
<path d="M228.261 338.49L234.415 297.088" stroke="#210049" stroke-linecap="round"/>
<path d="M273.02 196.381C268.275 167.731 250.759 160.164 250.759 160.164C239.733 175.145 232.112 168.034 229.68 162.607C216.708 186.054 216.708 209.828 218.33 218.784L192.386 214.713C190.765 219.055 188.494 227.903 192.386 228.554C196.278 229.205 211.303 237.51 218.33 241.58C278.324 266.005 278.25 227.961 273.02 196.381Z" fill="#8EADFF"/>
<path d="M250.759 160.164L250.957 159.705L250.592 159.547L250.356 159.868L250.759 160.164ZM273.02 196.381L273.513 196.299L273.02 196.381ZM218.33 241.58L218.079 242.013L218.109 242.031L218.141 242.044L218.33 241.58ZM192.386 214.713L192.464 214.219L192.06 214.156L191.918 214.538L192.386 214.713ZM218.33 218.784L218.252 219.278L218.947 219.387L218.822 218.695L218.33 218.784ZM229.68 162.607L230.136 162.402L229.727 161.489L229.242 162.365L229.68 162.607ZM250.759 160.164C250.561 160.623 250.56 160.623 250.56 160.623C250.56 160.623 250.56 160.623 250.56 160.623C250.56 160.623 250.561 160.623 250.562 160.623C250.563 160.624 250.565 160.625 250.569 160.627C250.576 160.63 250.587 160.635 250.602 160.642C250.632 160.655 250.678 160.677 250.74 160.706C250.863 160.766 251.047 160.858 251.284 160.985C251.759 161.241 252.447 161.64 253.291 162.209C254.977 163.346 257.284 165.161 259.74 167.865C264.649 173.268 270.17 182.234 272.527 196.462L273.513 196.299C271.125 181.877 265.516 172.735 260.48 167.192C257.964 164.423 255.595 162.556 253.85 161.379C252.977 160.791 252.26 160.375 251.758 160.105C251.507 159.97 251.31 159.871 251.174 159.806C251.106 159.773 251.053 159.748 251.017 159.732C250.999 159.723 250.985 159.717 250.975 159.713C250.97 159.71 250.966 159.709 250.963 159.707C250.961 159.707 250.96 159.706 250.959 159.706C250.959 159.706 250.958 159.705 250.958 159.705C250.958 159.705 250.957 159.705 250.759 160.164ZM272.527 196.462C273.832 204.346 274.812 212.609 274.618 220.188C274.424 227.775 273.055 234.619 269.716 239.708C266.396 244.769 261.092 248.15 252.883 248.765C244.646 249.382 233.485 247.211 218.518 241.117L218.141 242.044C233.171 248.163 244.499 250.396 252.958 249.762C261.445 249.126 267.045 245.602 270.552 240.257C274.04 234.941 275.421 227.878 275.617 220.213C275.814 212.541 274.822 204.205 273.513 196.299L272.527 196.462ZM218.58 241.148C215.063 239.11 209.543 236.012 204.413 233.341C201.849 232.006 199.377 230.775 197.299 229.836C195.241 228.906 193.515 228.236 192.469 228.061L192.303 229.047C193.203 229.197 194.814 229.81 196.887 230.747C198.941 231.676 201.395 232.897 203.951 234.228C209.064 236.89 214.57 239.98 218.079 242.013L218.58 241.148ZM192.469 228.061C191.738 227.938 191.266 227.448 190.993 226.578C190.714 225.685 190.677 224.462 190.816 223.067C191.094 220.291 192.052 217.038 192.854 214.888L191.918 214.538C191.099 216.73 190.111 220.072 189.821 222.968C189.677 224.41 189.7 225.792 190.039 226.876C190.385 227.984 191.089 228.844 192.303 229.047L192.469 228.061ZM192.309 215.207L218.252 219.278L218.407 218.29L192.464 214.219L192.309 215.207ZM218.822 218.695C217.218 209.837 217.209 186.182 230.117 162.849L229.242 162.365C216.207 185.926 216.198 209.82 217.838 218.873L218.822 218.695ZM229.224 162.811C230.469 165.589 233.086 168.909 236.916 169.532C240.787 170.161 245.612 168.001 251.162 160.46L250.356 159.868C244.88 167.308 240.381 169.082 237.077 168.545C233.733 168.001 231.323 165.051 230.136 162.402L229.224 162.811Z" fill="#8EADFF"/>
<path d="M219.869 266.875L220.988 242.258L275.258 223.795V270.792C265.411 275.268 234.229 270.046 219.869 266.875Z" fill="#8EADFF"/>
<path d="M220.428 242.818C262.213 259.829 270.83 245.983 274.856 226.033" stroke="#4376FF" stroke-linecap="round"/>
<path d="M217.631 218.2C222.666 219.878 246.053 220.214 250.081 223.795C250.081 218.2 255.228 203.429 257.914 195.82" stroke="#4376FF"/>
<path d="M268.697 117.696C263.505 120.704 256.775 118.894 253.755 113.551C250.684 108.285 252.423 101.538 257.615 98.5291C262.871 95.5087 269.538 97.3312 272.621 102.662C275.629 107.94 273.889 114.687 268.697 117.696Z" fill="#210049"/>
<path d="M261.632 117.671C260.291 122.622 255.279 125.531 250.36 124.249C245.43 122.902 242.533 117.869 243.81 112.929C245.087 107.99 250.151 105.005 255.082 106.351C260.012 107.698 262.909 112.731 261.632 117.671Z" fill="white"/>
<path d="M207.448 153.803C210.114 144.898 212.781 132.746 212.879 127.493C212.901 126.164 212.879 127.493 212.879 127.493L229.037 119.486C229.037 119.486 234.363 140.374 234.42 154.08L244.502 153.287L243.945 124.167L241.621 102.728C266.919 106.493 271.459 136.47 271.459 136.47C273.672 156.207 273.252 164.766 261.36 167.217C261.36 167.217 261.169 167.252 260.913 167.299C260.403 167.393 259.892 167.487 259.317 167.593C258.412 167.693 257.57 167.781 256.792 167.858C249.879 168.665 235.884 169.714 220.991 168.012C220.788 167.983 220.521 167.966 220.318 167.937C220.254 167.949 220.115 167.908 220.051 167.92C212.456 166.798 205.042 161.601 207.448 153.803Z" fill="#210049"/>
<path d="M212.88 127.492C212.647 141.781 223.914 150.378 238.474 150.617C253.034 150.856 263.398 142.921 263.567 128.644C263.788 114.29 252.111 102.721 237.58 102.277C217.551 101.719 213.1 113.139 212.88 127.492Z" fill="#210049"/>
<path d="M228.967 148.058C228.782 153.195 228.533 158.343 228.347 163.479C228.263 165.549 227.946 167.794 228.065 169.892C228.389 174.206 232.654 177.331 237.043 177.518C241.304 177.729 247.175 174.463 248.227 170.095C249.087 166.491 248.222 161.747 248.206 158.039C248.135 151.492 248.075 145.01 248.003 138.463L228.967 148.058Z" fill="white"/>
<path d="M233.243 159.929C223.815 159.608 216.345 151.572 216.411 143.609L216.604 124.755C216.626 114.745 224.309 106.574 233.951 106.259C243.86 105.962 253.762 113.948 254.041 124.167L253.705 139.337C253.527 151.032 244.528 159.578 233.243 159.929Z" fill="white"/>
<path d="M227.146 138.912L225.252 143.395L227.495 144.081" stroke="#210049" stroke-width="0.992989" stroke-miterlimit="10" stroke-linecap="round" stroke-linejoin="round"/>
<path d="M245.488 122.492C245.553 123.209 244.783 135.278 251.447 139.619C255.34 142.15 260.685 126.59 260.685 126.59L245.488 122.492Z" fill="#210049"/>
<path d="M260.561 140.395C260.623 143.63 258.212 146.326 255.065 146.441C251.919 146.555 249.338 143.982 249.213 140.758C249.151 137.523 251.562 134.826 254.709 134.712C257.855 134.597 260.436 137.171 260.561 140.395Z" fill="white"/>
<path d="M217.771 110.89C217.771 110.89 224.646 131.227 252.989 127.806C252.989 127.806 260.789 131.143 259.462 123.502C258.135 115.86 244.496 104.386 244.496 104.386L231.273 104.962L217.771 110.89Z" fill="#210049"/>
<path d="M231.463 108.903C231.463 108.903 216.739 112.471 216.603 124.755L215.264 117.049L220.375 108.887L222.752 106.727L228.254 105.053L231.463 108.903Z" fill="#210049"/>
<path d="M236.249 137.237C235.284 137.164 234.57 136.202 234.654 135.089C234.739 133.976 235.589 133.134 236.554 133.208C237.519 133.282 238.233 134.244 238.149 135.356C238.064 136.469 237.214 137.311 236.249 137.237Z" fill="#210049"/>
<path d="M219.581 137.462C218.616 137.388 217.902 136.426 217.986 135.314C218.071 134.201 218.921 133.359 219.886 133.433C220.851 133.507 221.565 134.468 221.481 135.581C221.396 136.694 220.546 137.536 219.581 137.462Z" fill="#210049"/>
<path d="M225.882 150.678C228.802 151.135 231.948 150.292 234.169 148.359" stroke="#210049" stroke-width="0.992989" stroke-miterlimit="10" stroke-linecap="round" stroke-linejoin="round"/>
<path d="M249.5 152.102C249.275 158.107 245.16 163.767 239.589 165.785C242.353 166.47 245.349 166.25 247.965 165.04C246.407 167.712 243.518 169.237 240.797 170.599C247.167 172.608 254.015 170.356 260.352 168.197C261.785 167.734 263.207 167.208 264.442 166.385C268.021 163.938 269.164 158.625 266.971 154.92" fill="#210049"/>
<path d="M227.942 159.445C228.424 159.556 228.982 159.718 229.464 159.828C231.444 160.193 233.429 160.226 235.408 159.862" stroke="#210049" stroke-width="0.992989" stroke-miterlimit="10" stroke-linecap="round" stroke-linejoin="round"/>
<path d="M240.539 145.874C238.68 145.732 237.24 144.744 237.322 143.667C237.404 142.59 238.976 141.833 240.835 141.975C242.694 142.117 244.134 143.105 244.052 144.182C243.97 145.259 242.398 146.016 240.539 145.874Z" fill="#FFD5E3"/>
<path d="M216.5 145.181C218.369 145.302 219.884 144.559 220.016 143.475C220.148 142.39 218.649 141.407 216.844 141.275C216.716 141.299 216.577 141.258 216.513 141.27" fill="#FFD5E3"/>
</g>
<defs>
<filter id="filter0_d_362_14326" x="128.516" y="217.442" width="46.8884" height="46.9724" filterUnits="userSpaceOnUse" color-interpolation-filters="sRGB">
<feFlood flood-opacity="0" result="BackgroundImageFix"/>
<feColorMatrix in="SourceAlpha" type="matrix" values="0 0 0 0 0 0 0 0 0 0 0 0 0 0 0 0 0 0 127 0" result="hardAlpha"/>
<feOffset dy="1.42443"/>
<feGaussianBlur stdDeviation="2.13665"/>
<feColorMatrix type="matrix" values="0 0 0 0 0 0 0 0 0 0 0 0 0 0 0 0 0 0 0.3 0"/>
<feBlend mode="normal" in2="BackgroundImageFix" result="effect1_dropShadow_362_14326"/>
<feBlend mode="normal" in="SourceGraphic" in2="effect1_dropShadow_362_14326" result="shape"/>
</filter>
<filter id="filter1_d_362_14326" x="141.855" y="181.24" width="20.9532" height="20.9884" filterUnits="userSpaceOnUse" color-interpolation-filters="sRGB">
<feFlood flood-opacity="0" result="BackgroundImageFix"/>
<feColorMatrix in="SourceAlpha" type="matrix" values="0 0 0 0 0 0 0 0 0 0 0 0 0 0 0 0 0 0 127 0" result="hardAlpha"/>
<feOffset dy="0.77248"/>
<feGaussianBlur stdDeviation="1.15872"/>
<feColorMatrix type="matrix" values="0 0 0 0 0 0 0 0 0 0 0 0 0 0 0 0 0 0 0.3 0"/>
<feBlend mode="normal" in2="BackgroundImageFix" result="effect1_dropShadow_362_14326"/>
<feBlend mode="normal" in="SourceGraphic" in2="effect1_dropShadow_362_14326" result="shape"/>
</filter>
<clipPath id="clip0_362_14326">
<rect width="304" height="304" fill="white"/>
</clipPath>
<clipPath id="clip1_362_14326">
<rect width="8.15924" height="8.17695" fill="white" transform="translate(148.252 149.043)"/>
</clipPath>
</defs>
</svg>
