<svg width="304" height="304" viewBox="0 0 304 304" fill="none" xmlns="http://www.w3.org/2000/svg">
<g clip-path="url(#clip0_12429_24334)">
<g clip-path="url(#clip1_12429_24334)">
<path d="M61.0607 100.968C61.0607 100.968 50.1556 124.42 75.9645 139.067L78.2318 121.065L61.0607 100.968Z" fill="#FFACC7"/>
<path d="M216.793 13.5081L112.342 0.353061C102.775 -0.85181 94.0487 6.00023 92.8548 15.4795L60.9167 269.071C59.7228 278.55 66.5645 287.363 76.0443 288.556L180.496 301.711C189.976 302.905 198.789 296.064 199.983 286.585L231.921 32.9939C233.115 23.5147 226.273 14.702 216.793 13.5081ZM195.465 269.142C194.359 277.926 186.329 284.159 177.545 283.052L82.0512 271.026C73.2672 269.919 67.0337 261.89 68.1399 253.106L97.5918 19.2565C98.698 10.473 106.728 4.23997 115.512 5.34626L211.005 17.3731C219.79 18.4794 226.023 26.5087 224.917 35.2922L195.465 269.142Z" fill="#210049"/>
<path d="M212.397 17.5483L115.686 5.36817C106.815 4.25093 98.6981 10.473 97.5918 19.2565L68.129 253.193C67.0228 261.977 73.3432 270.017 82.2142 271.134L178.926 283.315C187.797 284.432 195.913 278.21 197.019 269.426L226.482 35.4894C227.589 26.7059 221.268 18.6656 212.397 17.5483Z" fill="#210049"/>
<path d="M89.1927 48.7664L88.4969 48.6788C87.2793 48.5254 86.3671 47.3503 86.5204 46.1327L87.4515 38.7402C87.6048 37.5226 88.7799 36.6104 89.9975 36.7638L90.6933 36.8514C91.9109 37.0048 92.8231 38.1799 92.6697 39.3974L91.7387 46.7899C91.6723 48.0185 90.4972 48.9307 89.1927 48.7664Z" fill="#210049"/>
<path d="M85.1312 78.9103C83.6527 78.7241 82.6754 77.3642 82.8507 75.9728L84.8331 60.232C85.0193 58.7536 86.3793 57.7764 87.7708 57.9516C89.2493 58.1379 90.2266 59.4978 90.0513 60.8892L88.0689 76.63C87.8827 78.1084 86.5227 79.0856 85.1312 78.9103Z" fill="#210049"/>
<path d="M225.241 96.5562C223.762 96.37 222.785 95.0101 222.96 93.6186L226.794 63.1807C226.98 61.7023 228.34 60.7251 229.731 60.9004C231.21 61.0866 232.187 62.4465 232.012 63.8379L228.179 94.2759C227.992 95.7543 226.632 96.7315 225.241 96.5562Z" fill="#210049"/>
<path d="M81.8892 104.652C80.4107 104.466 79.4334 103.106 79.6087 101.714L81.5911 85.9737C81.7773 84.4953 83.1373 83.5181 84.5288 83.6933C86.0073 83.8796 86.9846 85.2395 86.8093 86.6309L84.8269 102.372C84.6516 103.763 83.2807 104.827 81.8892 104.652Z" fill="#210049"/>
<g clip-path="url(#clip2_12429_24334)">
<rect x="100.48" y="6" width="129" height="267.87" rx="16" transform="rotate(7.18 100.48 6)" fill="white"/>
<rect x="92" y="-7" width="167" height="51" fill="#210049"/>
<g clip-path="url(#clip3_12429_24334)">
<rect width="129.349" height="229.954" transform="translate(100.198 6.10889) rotate(7.18)" fill="white"/>
<path d="M98.7582 146.251L99.2202 146.31L99.7141 142.389L100.987 146.206L103.158 142.836L102.666 146.744L103.134 146.803L103.7 142.311L103.014 142.224L101.11 145.231L100.011 141.846L99.324 141.76L98.7582 146.251ZM105.593 147.178C106.029 147.233 106.424 147.145 106.819 146.908L106.564 146.557C106.327 146.729 105.991 146.811 105.664 146.769C105.067 146.694 104.652 146.159 104.688 145.512L107.145 145.822L107.163 145.681C107.276 144.782 106.746 144.024 105.925 143.921C105.09 143.816 104.361 144.434 104.245 145.352C104.129 146.276 104.713 147.067 105.593 147.178ZM104.743 145.18C104.899 144.613 105.347 144.259 105.867 144.324C106.381 144.389 106.726 144.856 106.725 145.43L104.743 145.18ZM108.852 147.588C109.032 147.611 109.228 147.609 109.408 147.573L109.461 147.156C109.279 147.199 109.168 147.204 109.007 147.184C108.68 147.143 108.569 146.992 108.611 146.658L108.853 144.733L109.752 144.846L109.8 144.461L108.902 144.348L109.024 143.379L108.542 143.429L108.433 144.289L107.785 144.208L107.737 144.593L108.385 144.674L108.127 146.721C108.064 147.222 108.313 147.52 108.852 147.588ZM111.054 147.859C111.439 147.907 111.79 147.808 112.101 147.561L112.055 147.927L112.517 147.985L112.779 145.906C112.869 145.193 112.482 144.747 111.706 144.649C111.327 144.602 110.943 144.651 110.487 144.802L110.615 145.183C111.004 145.043 111.31 144.997 111.599 145.033C112.131 145.1 112.374 145.398 112.309 145.912L112.255 146.342C112 146.14 111.689 146.023 111.33 145.977C110.624 145.888 110.109 146.202 110.038 146.76C109.967 147.324 110.386 147.775 111.054 147.859ZM110.489 146.804C110.533 146.457 110.876 146.266 111.357 146.326C111.71 146.371 111.971 146.475 112.215 146.662L112.139 147.266C111.851 147.477 111.548 147.556 111.195 147.512C110.727 147.453 110.443 147.169 110.489 146.804ZM114.43 148.291C115.123 148.378 115.703 148.021 115.772 147.469C115.831 147.007 115.581 146.708 114.967 146.514L114.453 146.351C114.058 146.23 113.938 146.091 113.971 145.834C114.009 145.526 114.303 145.368 114.714 145.419C115.047 145.461 115.355 145.604 115.654 145.877L115.926 145.579C115.562 145.259 115.211 145.091 114.782 145.037C114.121 144.953 113.605 145.273 113.537 145.812C113.479 146.268 113.723 146.559 114.319 146.745L114.821 146.899C115.209 147.027 115.359 147.182 115.326 147.439C115.284 147.773 114.921 147.968 114.465 147.911C114.131 147.869 113.844 147.715 113.507 147.392L113.218 147.669C113.488 148.009 113.917 148.226 114.43 148.291Z" fill="#210049"/>
<path d="M107.449 121.763C104.342 122.175 102.33 124.302 101.982 127.059C101.688 129.395 102.67 131.152 104.269 132.329L104.064 133.957C104.032 134.215 104.228 134.453 104.502 134.487L106.423 134.729C106.697 134.764 106.946 134.582 106.979 134.324L107.062 133.666C108.272 134.018 109.581 134.169 110.853 134.119L110.768 134.801C110.735 135.06 110.931 135.297 111.205 135.332L113.126 135.574C113.401 135.608 113.65 135.427 113.682 135.168L113.883 133.577C115.545 133.006 116.964 131.767 117.716 130.328C118.171 129.458 117.471 128.547 116.497 128.424V128.424C116.74 126.496 116.284 125.264 114.946 124.051C114.946 124.051 115.723 123.191 115.124 122.64C114.524 122.09 113.579 123.019 113.579 123.019C113.579 123.019 112.829 122.441 112.165 122.357" stroke="#210049" stroke-width="0.718606" stroke-linejoin="round"/>
<path d="M112.728 127.285C112.815 126.596 113.304 126.09 113.82 126.155C114.337 126.22 114.686 126.832 114.599 127.521" stroke="#210049" stroke-width="0.359303" stroke-linecap="round"/>
<path d="M102.771 124.075C102.771 124.075 102.134 123.65 102.174 122.787" stroke="#210049" stroke-width="0.359303" stroke-linecap="round"/>
<circle cx="109.613" cy="121.822" r="2.51512" transform="rotate(7.18 109.613 121.822)" stroke="#FF2F73" stroke-width="0.718606"/>
<path d="M110.861 121.98C110.948 121.291 110.46 120.662 109.771 120.575C109.081 120.488 108.452 120.977 108.366 121.666" stroke="#210049" stroke-width="0.359303" stroke-linecap="round" stroke-linejoin="round"/>
<path d="M175.869 155.966L177.756 156.203C178.635 156.314 179.275 155.893 179.369 155.142C179.439 154.59 179.118 154.139 178.538 153.929C179.044 153.843 179.399 153.509 179.461 153.015C179.548 152.322 179.072 151.806 178.251 151.703L176.435 151.474L175.869 155.966ZM176.682 153.5L176.876 151.96L178.159 152.121C178.705 152.19 179.02 152.536 178.961 153.004C178.902 153.473 178.511 153.73 177.965 153.661L176.682 153.5ZM176.417 155.604L176.631 153.904L177.972 154.073C178.588 154.15 178.938 154.533 178.873 155.047C178.808 155.56 178.367 155.85 177.758 155.773L176.417 155.604ZM181.382 156.712C182.249 156.821 182.991 156.211 183.107 155.287C183.223 154.363 182.656 153.587 181.79 153.478C180.924 153.369 180.182 153.98 180.065 154.904C179.949 155.828 180.516 156.603 181.382 156.712ZM181.434 156.302C180.825 156.225 180.441 155.648 180.527 154.962C180.614 154.275 181.129 153.812 181.738 153.889C182.348 153.966 182.731 154.542 182.645 155.229C182.558 155.915 182.044 156.378 181.434 156.302ZM183.732 156.956L184.2 157.015L184.796 152.286L184.315 152.323L183.732 156.956ZM186.121 157.322C186.814 157.41 187.394 157.052 187.463 156.501C187.521 156.038 187.272 155.74 186.658 155.545L186.144 155.383C185.748 155.261 185.629 155.122 185.661 154.866C185.7 154.558 185.994 154.399 186.405 154.451C186.738 154.493 187.046 154.636 187.344 154.908L187.617 154.61C187.253 154.29 186.902 154.122 186.472 154.068C185.811 153.985 185.295 154.304 185.227 154.843C185.17 155.299 185.414 155.59 186.009 155.776L186.511 155.931C186.9 156.058 187.049 156.214 187.017 156.47C186.975 156.804 186.612 156.999 186.156 156.942C185.822 156.9 185.535 156.747 185.198 156.424L184.909 156.7C185.179 157.041 185.608 157.258 186.121 157.322ZM188.785 153.623C188.971 153.646 189.144 153.512 189.167 153.332C189.19 153.152 189.055 152.979 188.869 152.955C188.683 152.932 188.509 153.067 188.487 153.246C188.464 153.426 188.599 153.599 188.785 153.623ZM188.055 157.501L188.524 157.56L188.918 154.428L188.45 154.369L188.055 157.501ZM189.484 157.681L189.952 157.74L190.548 153.011L190.068 153.048L189.484 157.681ZM190.913 157.861L191.381 157.92L191.977 153.191L191.496 153.228L190.913 157.861ZM193.715 158.266C194.581 158.375 195.323 157.764 195.439 156.84C195.555 155.916 194.988 155.141 194.122 155.032C193.256 154.923 192.514 155.533 192.398 156.457C192.281 157.381 192.848 158.157 193.715 158.266ZM193.766 157.855C193.157 157.778 192.773 157.202 192.86 156.515C192.946 155.829 193.461 155.366 194.07 155.442C194.68 155.519 195.064 156.096 194.977 156.782C194.891 157.469 194.376 157.932 193.766 157.855ZM197.025 158.696C197.718 158.783 198.297 158.426 198.367 157.874C198.425 157.412 198.176 157.113 197.561 156.919L197.047 156.756C196.652 156.635 196.532 156.496 196.565 156.239C196.604 155.931 196.897 155.773 197.308 155.824C197.642 155.866 197.95 156.009 198.248 156.282L198.52 155.983C198.156 155.664 197.806 155.496 197.376 155.442C196.715 155.358 196.199 155.678 196.131 156.217C196.073 156.673 196.317 156.964 196.913 157.15L197.415 157.304C197.803 157.432 197.953 157.587 197.921 157.844C197.879 158.178 197.515 158.373 197.059 158.316C196.726 158.274 196.439 158.12 196.101 157.797L195.812 158.074C196.082 158.414 196.511 158.631 197.025 158.696Z" fill="#210049"/>
<path d="M183.647 135.676C183.671 135.479 183.851 135.339 184.048 135.364L195.099 136.756C195.296 136.781 195.435 136.961 195.411 137.158L194.625 143.396C194.352 145.562 192.375 147.096 190.209 146.824L186.288 146.33C184.122 146.057 182.588 144.08 182.861 141.914L183.647 135.676Z" stroke="#210049" stroke-width="0.718606"/>
<path d="M183.65 137.804L194.879 139.218" stroke="#210049" stroke-width="0.359303" stroke-linecap="round" stroke-dasharray="0.72 1.44"/>
<path d="M193.283 136.799L194.181 129.67C194.206 129.473 194.066 129.293 193.869 129.268L187.096 128.415C186.899 128.39 186.72 128.53 186.695 128.727L185.797 135.856" stroke="#210049" stroke-width="0.718606"/>
<path d="M190.515 130.113L190.246 130.079L190.203 130.421C189.667 130.389 189.114 130.687 189.039 131.285C188.958 131.928 189.386 132.217 189.947 132.451L189.807 133.567C189.554 133.53 189.275 133.336 189.123 133.103L188.632 133.47C188.907 133.816 189.306 134.014 189.742 134.084L189.696 134.446L189.964 134.48L190.01 134.118C190.564 134.173 191.116 133.88 191.204 133.181C191.289 132.503 190.767 132.197 190.28 131.972L190.408 130.957C190.637 130.986 190.873 131.113 191.006 131.303L191.462 130.932C191.223 130.662 190.835 130.496 190.473 130.445L190.515 130.113ZM190.021 131.868C189.777 131.761 189.604 131.607 189.639 131.33C189.676 131.039 189.903 130.919 190.14 130.924L190.021 131.868ZM190.206 132.565C190.458 132.689 190.64 132.845 190.603 133.141C190.565 133.438 190.356 133.621 190.075 133.601L190.206 132.565Z" fill="#FF2F73"/>
<path d="M137.709 151.23C138.37 151.313 139.013 151.127 139.496 150.705L139.212 150.324C138.828 150.68 138.285 150.846 137.766 150.781C136.752 150.653 136.084 149.741 136.217 148.689C136.35 147.637 137.222 146.919 138.236 147.046C138.756 147.112 139.24 147.407 139.524 147.847L139.894 147.548C139.53 147.02 138.954 146.68 138.293 146.597C137.009 146.435 135.88 147.33 135.717 148.626C135.553 149.922 136.426 151.068 137.709 151.23ZM141.491 151.687C142.357 151.796 143.099 151.185 143.215 150.261C143.331 149.337 142.764 148.562 141.898 148.453C141.032 148.344 140.29 148.954 140.173 149.878C140.057 150.802 140.624 151.578 141.491 151.687ZM141.542 151.276C140.933 151.199 140.549 150.623 140.635 149.936C140.722 149.25 141.237 148.787 141.846 148.863C142.456 148.94 142.84 149.517 142.753 150.203C142.667 150.89 142.152 151.353 141.542 151.276ZM143.84 151.931L144.308 151.99L144.904 147.26L144.423 147.298L143.84 151.931ZM146.667 152.339C147.129 152.397 147.588 152.272 147.935 152.003L147.675 151.638C147.419 151.854 147.067 151.959 146.74 151.918C146.124 151.84 145.709 151.253 145.793 150.586C145.877 149.919 146.424 149.453 147.04 149.531C147.368 149.572 147.683 149.762 147.877 150.034L148.219 149.745C147.95 149.398 147.537 149.163 147.075 149.105C146.202 148.995 145.438 149.622 145.324 150.527C145.21 151.432 145.794 152.229 146.667 152.339ZM148.533 152.522L149.002 152.581L149.293 150.271C149.518 149.98 149.828 149.849 150.175 149.893C150.688 149.958 150.971 150.345 150.902 150.897L150.663 152.79L151.132 152.849L151.387 150.822C151.474 150.135 151.071 149.608 150.397 149.523C149.98 149.471 149.616 149.614 149.332 149.956L149.597 147.852L149.117 147.889L148.533 152.522ZM153.515 149.343L153.945 149.397L154.967 148.73L154.332 148.65L153.515 149.343ZM153.447 153.193C154.313 153.302 155.055 152.692 155.171 151.768C155.288 150.844 154.72 150.068 153.854 149.959C152.988 149.85 152.246 150.46 152.13 151.384C152.013 152.308 152.58 153.084 153.447 153.193ZM153.498 152.782C152.889 152.706 152.505 152.129 152.592 151.443C152.678 150.756 153.193 150.293 153.802 150.37C154.412 150.446 154.796 151.023 154.709 151.709C154.623 152.396 154.108 152.859 153.498 152.782ZM155.796 153.437L156.264 153.496L156.555 151.186C156.781 150.895 157.091 150.764 157.437 150.808C157.951 150.873 158.234 151.26 158.165 151.812L157.926 153.705L158.395 153.764L158.65 151.736C158.737 151.05 158.334 150.523 157.66 150.438C157.243 150.386 156.879 150.529 156.595 150.871L156.659 150.364L156.19 150.305L155.796 153.437Z" fill="#210049"/>
<rect x="144.519" y="122.87" width="12.2163" height="17.9651" rx="1.07791" transform="rotate(7.18 144.519 122.87)" stroke="#210049" stroke-width="0.718606"/>
<path d="M151.505 133.528L153.111 132.282" stroke="#210049" stroke-width="0.359303" stroke-linecap="round"/>
<path d="M151.685 132.102L152.931 133.708" stroke="#210049" stroke-width="0.359303" stroke-linecap="round"/>
<path d="M152.224 127.824L153.829 126.578" stroke="#210049" stroke-width="0.359303" stroke-linecap="round"/>
<path d="M152.404 126.398L153.65 128.004" stroke="#210049" stroke-width="0.359303" stroke-linecap="round"/>
<path d="M145.083 138.513L146.689 137.267" stroke="#210049" stroke-width="0.359303" stroke-linecap="round"/>
<path d="M145.263 137.087L146.509 138.693" stroke="#210049" stroke-width="0.359303" stroke-linecap="round"/>
<path d="M145.802 132.809L147.407 131.563" stroke="#210049" stroke-width="0.359303" stroke-linecap="round"/>
<path d="M145.981 131.383L147.228 132.989" stroke="#210049" stroke-width="0.359303" stroke-linecap="round"/>
<path d="M146.52 127.106L148.126 125.859" stroke="#FF2F73" stroke-width="0.359303" stroke-linecap="round"/>
<path d="M146.7 125.68L147.946 127.285" stroke="#FF2F73" stroke-width="0.359303" stroke-linecap="round"/>
<path d="M150.787 139.232L152.392 137.985" stroke="#FF2F73" stroke-width="0.359303" stroke-linecap="round"/>
<path d="M150.966 137.806L152.213 139.411" stroke="#FF2F73" stroke-width="0.359303" stroke-linecap="round"/>
<g clip-path="url(#clip4_12429_24334)">
<path fill-rule="evenodd" clip-rule="evenodd" d="M64.3749 -60.9036C63.7729 -66.2701 67.3035 -71.2317 72.5707 -72.4215L201.967 -101.65C207.674 -102.939 213.344 -99.3574 214.631 -93.6501L250.705 66.2634C252.163 72.7281 247.617 79.0069 241.02 79.6389L92.2236 93.8942C86.4675 94.4457 81.3338 90.2788 80.6892 84.532L64.3749 -60.9036Z" fill="#FF2F73"/>
<path fill-rule="evenodd" clip-rule="evenodd" d="M100.586 -50.1136C102.841 -55.3426 108.382 -58.3486 113.994 -57.3879L237.902 -36.1785C241.052 -35.6392 243.211 -32.7036 242.787 -29.5357L224.774 104.924C223.759 112.497 216.174 117.336 208.879 115.063L63.7042 69.8415C56.7107 67.663 53.1452 59.906 56.0455 53.1799L100.586 -50.1136Z" fill="#210049"/>
<rect x="104.465" y="18.2349" width="14.3721" height="14.3721" rx="7.18606" transform="rotate(7.18 104.465 18.2349)" fill="#4D336D"/>
<g clip-path="url(#clip5_12429_24334)">
<path d="M112.403 24.5763C112.226 25.4516 111.466 26.0879 110.73 25.9953C109.995 25.9027 109.415 25.0976 109.462 24.2059C109.511 23.2784 110.249 22.6753 111.134 22.7869C112.02 22.8985 112.583 23.6824 112.403 24.5763Z" stroke="white" stroke-width="0.538954" stroke-linecap="round" stroke-linejoin="round"/>
<path d="M110.596 27.0648C109.142 26.8817 107.565 27.4979 107.102 28.9774C107.046 29.1558 107.127 29.3439 107.318 29.368L113.2 30.109C113.391 30.133 113.516 29.9709 113.506 29.7843C113.424 28.2359 112.049 27.248 110.596 27.0648Z" stroke="white" stroke-width="0.538954" stroke-miterlimit="10"/>
</g>
<path d="M124.128 26.1679L124.458 26.2094L124.629 24.849L126.349 25.0657L126.177 26.426L126.507 26.4675L126.884 23.473L126.554 23.4315L126.386 24.7705L124.666 24.5539L124.835 23.2149L124.505 23.1734L124.128 26.1679ZM128.121 26.7057C128.699 26.7784 129.193 26.3714 129.271 25.7554C129.348 25.1394 128.97 24.6224 128.393 24.5496C127.815 24.4769 127.321 24.8839 127.243 25.4999C127.165 26.1159 127.544 26.6329 128.121 26.7057ZM128.156 26.4319C127.749 26.3807 127.493 25.9965 127.551 25.5387C127.609 25.081 127.952 24.7722 128.358 24.8234C128.765 24.8746 129.02 25.2588 128.963 25.7166C128.905 26.1743 128.562 26.4831 128.156 26.4319ZM129.687 26.8682L129.999 26.9075L130.397 23.7548L130.076 23.7796L129.687 26.8682ZM131.281 27.108C131.537 27.1404 131.772 27.0743 131.979 26.9092L131.949 27.1531L132.257 27.1919L132.431 25.8059C132.491 25.331 132.233 25.0334 131.715 24.9682C131.463 24.9364 131.207 24.9693 130.903 25.0701L130.988 25.3242C131.248 25.2309 131.452 25.2001 131.644 25.2243C131.999 25.269 132.161 25.4676 132.118 25.8098L132.082 26.0964C131.912 25.9621 131.704 25.8838 131.465 25.8536C130.994 25.7943 130.651 26.0031 130.604 26.3753C130.556 26.7517 130.836 27.052 131.281 27.108ZM130.904 26.4044C130.934 26.1734 131.163 26.0458 131.483 26.0862C131.719 26.1159 131.892 26.1856 132.055 26.3103L132.004 26.7125C131.813 26.8535 131.61 26.9062 131.375 26.8766C131.063 26.8372 130.874 26.6483 130.904 26.4044ZM132.7 27.93L132.944 27.9607L133.415 27.0162L133.081 26.9741L132.7 27.93Z" fill="white"/>
<path d="M123.356 33.1261L124 33.2073L124.365 30.2228L126.128 33.4753L126.738 33.5522L127.241 29.5596L126.597 29.4784L126.242 32.383L124.526 29.2175L123.859 29.1335L123.356 33.1261ZM128.937 33.8871C129.37 33.9417 129.734 33.8601 130.119 33.613L129.745 33.1777C129.564 33.323 129.3 33.394 129.032 33.3603C128.587 33.3042 128.282 32.9239 128.277 32.4539L130.388 32.7198L130.407 32.5658C130.515 31.7102 130.023 31.0167 129.241 30.9182C128.454 30.8191 127.769 31.3817 127.664 32.2202C127.558 33.0586 128.116 33.7836 128.937 33.8871ZM128.333 32.0554C128.461 31.637 128.782 31.3934 129.17 31.4423C129.552 31.4904 129.812 31.8187 129.828 32.2437L128.333 32.0554ZM132.781 35.5303L133.426 35.6115L133.937 31.5561L133.298 31.4756L133.253 31.8292C133.067 31.5567 132.793 31.3888 132.462 31.3472C131.715 31.253 131.047 31.8178 130.944 32.6335C130.842 33.4434 131.326 34.1591 132.05 34.2503C132.41 34.2956 132.741 34.1925 132.979 33.9617L132.781 35.5303ZM132.318 33.7336C131.828 33.6718 131.512 33.2323 131.577 32.7132C131.644 32.1885 132.057 31.8466 132.548 31.9084C132.816 31.9422 133.047 32.0872 133.188 32.3019L133.036 33.5054C132.845 33.6899 132.598 33.7688 132.318 33.7336ZM135.341 34.6823C135.723 34.7304 136.053 34.5981 136.312 34.2889L136.254 34.7509L136.898 34.8321L137.258 31.9745L136.614 31.8933L136.357 33.9353C136.179 34.1447 135.948 34.2315 135.692 34.1992C135.31 34.151 135.098 33.8521 135.151 33.43L135.365 31.736L134.714 31.654L134.477 33.5363C134.402 34.1352 134.759 34.609 135.341 34.6823ZM138.45 31.5336C138.666 31.5609 138.871 31.4071 138.899 31.1903C138.926 30.9736 138.766 30.7681 138.55 30.7408C138.327 30.7127 138.127 30.873 138.1 31.0897C138.073 31.3065 138.227 31.5056 138.45 31.5336ZM137.691 34.932L138.336 35.0132L138.696 32.1556L138.051 32.0744L137.691 34.932Z" fill="white"/>
<g clip-path="url(#clip6_12429_24334)">
<path d="M204.625 39.7152C204.262 39.136 203.993 38.8304 204.175 37.3825C204.342 36.0565 203.724 35.4988 203.196 35.1992C203.126 35.1595 203.065 35.0808 203.052 35.002C202.996 34.6569 202.759 34.3293 202.395 34.2834C202.03 34.2375 201.719 34.4963 201.581 34.8169C201.548 34.891 201.47 34.9509 201.392 34.972C200.805 35.1314 200.07 35.5169 199.902 36.8442C199.719 38.2921 199.383 38.5213 198.887 38.9924C198.682 39.1876 198.797 39.5339 199.108 39.5731L204.269 40.2233C204.578 40.2623 204.774 39.9541 204.625 39.7152Z" stroke="white" stroke-width="0.538954" stroke-linecap="round" stroke-linejoin="round"/>
<path d="M202.757 40.0326L202.723 40.3C202.688 40.5836 202.541 40.8415 202.315 41.0168C202.089 41.1921 201.803 41.2705 201.519 41.2347C201.235 41.199 200.978 41.0521 200.802 40.8262C200.627 40.6004 200.549 40.3142 200.584 40.0305L200.618 39.7632" stroke="white" stroke-width="0.538954" stroke-linecap="round" stroke-linejoin="round"/>
</g>
<circle cx="204.365" cy="35.8898" r="1.43721" transform="rotate(7.18 204.365 35.8898)" fill="#FF585F"/>
<path d="M214.806 37.816C214.806 37.816 214.899 37.2676 215.491 36.893C215.843 36.6706 216.235 36.6428 216.578 36.6813C216.892 36.7169 217.165 36.8051 217.322 36.9077C217.59 37.0837 218.106 37.495 218.014 38.2202C217.918 38.9834 217.387 39.2678 216.785 39.5792C216.182 39.8905 215.993 40.2465 215.94 40.6749" stroke="white" stroke-width="0.538954" stroke-miterlimit="10" stroke-linecap="round"/>
<path d="M215.712 42.4791C216.008 42.5163 216.277 42.3071 216.314 42.0117C216.351 41.7164 216.142 41.4469 215.847 41.4096C215.552 41.3724 215.282 41.5817 215.245 41.877C215.208 42.1723 215.417 42.4419 215.712 42.4791Z" fill="white"/>
<path d="M150.463 62.6628L150.571 61.8044C150.091 61.7033 149.645 61.5357 149.235 61.3015C148.833 61.0615 148.488 60.7679 148.201 60.4208L149.031 59.5418C149.493 60.1138 150.054 60.492 150.714 60.6765L150.916 59.0695L150.391 58.8918C149.76 58.6907 149.319 58.4357 149.068 58.1268C148.823 57.8121 148.734 57.3919 148.8 56.8662C148.876 56.2673 149.145 55.8179 149.609 55.5181C150.08 55.2124 150.68 55.0952 151.408 55.1667L151.512 54.3382L152.181 54.4224L152.073 55.2808C152.894 55.4655 153.633 55.8256 154.289 56.3611L153.578 57.3363C152.999 56.8848 152.449 56.5823 151.928 56.4287L151.728 58.0158L152.256 58.1735C152.931 58.3938 153.404 58.663 153.675 58.981C153.953 59.2932 154.062 59.6956 154 60.188C153.925 60.7802 153.642 61.2313 153.15 61.5411C152.658 61.8509 152.02 61.9734 151.238 61.9086L151.132 62.7471L150.463 62.6628ZM151.069 57.8517L151.266 56.2946C150.932 56.2593 150.657 56.299 150.439 56.4136C150.23 56.5224 150.11 56.6899 150.082 56.9161C150.051 57.1623 150.098 57.3508 150.224 57.4815C150.349 57.6123 150.588 57.7269 150.941 57.8254L151.069 57.8517ZM151.376 60.8107C151.739 60.8293 152.036 60.7788 152.267 60.6593C152.505 60.5405 152.638 60.368 152.667 60.1418C152.696 59.9089 152.647 59.7337 152.52 59.6163C152.393 59.4989 152.124 59.3805 151.713 59.2611L151.577 59.2136L151.376 60.8107ZM157.488 60.81C157.268 60.7823 157.089 60.6786 156.949 60.4987C156.81 60.3189 156.754 60.1192 156.781 59.8996C156.81 59.6734 156.914 59.4904 157.094 59.3509C157.274 59.2113 157.473 59.1553 157.693 59.183C157.913 59.2106 158.092 59.3144 158.232 59.4942C158.371 59.674 158.427 59.8771 158.398 60.1033C158.371 60.3229 158.267 60.5025 158.087 60.6421C157.907 60.7817 157.708 60.8376 157.488 60.81ZM159.983 61.1243C159.764 61.0967 159.584 60.9929 159.445 60.8131C159.305 60.6333 159.249 60.4336 159.277 60.214C159.305 59.9877 159.409 59.8048 159.589 59.6652C159.769 59.5256 159.969 59.4697 160.188 59.4973C160.408 59.525 160.588 59.6287 160.727 59.8086C160.867 59.9884 160.922 60.1914 160.894 60.4177C160.866 60.6373 160.762 60.8169 160.583 60.9564C160.403 61.096 160.203 61.152 159.983 61.1243ZM162.479 61.4387C162.259 61.411 162.08 61.3073 161.94 61.1275C161.8 60.9476 161.745 60.7479 161.772 60.5283C161.801 60.3021 161.905 60.1192 162.085 59.9796C162.264 59.84 162.464 59.784 162.684 59.8117C162.903 59.8394 163.083 59.9431 163.223 60.1229C163.362 60.3027 163.418 60.5058 163.389 60.732C163.362 60.9516 163.258 61.1312 163.078 61.2708C162.898 61.4104 162.698 61.4664 162.479 61.4387ZM164.974 61.753C164.755 61.7254 164.575 61.6216 164.435 61.4418C164.296 61.262 164.24 61.0623 164.268 60.8427C164.296 60.6164 164.4 60.4335 164.58 60.2939C164.76 60.1543 164.96 60.0984 165.179 60.126C165.399 60.1537 165.578 60.2575 165.718 60.4373C165.858 60.6171 165.913 60.8201 165.885 61.0464C165.857 61.266 165.753 61.4456 165.573 61.5852C165.394 61.7247 165.194 61.7807 164.974 61.753ZM167.47 62.0674C167.25 62.0397 167.07 61.936 166.931 61.7562C166.791 61.5763 166.735 61.3766 166.763 61.157C166.791 60.9308 166.896 60.7479 167.075 60.6083C167.255 60.4687 167.455 60.4127 167.675 60.4404C167.894 60.4681 168.074 60.5718 168.213 60.7516C168.353 60.9315 168.408 61.1345 168.38 61.3607C168.352 61.5803 168.249 61.7599 168.069 61.8995C167.889 62.0391 167.689 62.0951 167.47 62.0674Z" fill="white"/>
<path d="M144.732 84.117L145.245 84.1816L145.566 81.6321L146.567 81.7582L146.623 81.3133L144.108 80.9964L144.052 81.4413L145.053 81.5674L144.732 84.117ZM147.211 84.4641C147.498 84.5002 147.745 84.401 147.939 84.169L147.896 84.5155L148.379 84.5764L148.649 82.4332L148.166 82.3724L147.973 83.9038C147.84 84.0609 147.667 84.126 147.474 84.1017C147.188 84.0656 147.029 83.8414 147.069 83.5248L147.229 82.2543L146.741 82.1929L146.563 83.6046C146.507 84.0538 146.775 84.4091 147.211 84.4641ZM149.826 85.667L150.31 85.7279L150.454 84.5814C150.586 84.7805 150.796 84.9026 151.049 84.9344C151.609 85.005 152.106 84.5809 152.183 83.9692C152.259 83.3617 151.897 82.825 151.353 82.7565C151.08 82.722 150.825 82.8116 150.646 82.9933L150.684 82.6896L150.209 82.6298L149.826 85.667ZM150.984 84.5178C150.778 84.4919 150.606 84.3789 150.501 84.2136L150.613 83.3195C150.757 83.1811 150.943 83.1177 151.157 83.1446C151.52 83.1904 151.757 83.5201 151.708 83.9093C151.658 84.3029 151.352 84.5641 150.984 84.5178ZM152.554 85.1024L153.038 85.1633L153.435 82.0105L152.941 82.0352L152.554 85.1024ZM154.277 85.3586C154.526 85.3898 154.741 85.3344 154.948 85.1779L154.92 85.4004L155.399 85.4607L155.575 84.0619C155.637 83.5657 155.356 83.2434 154.796 83.1728C154.509 83.1367 154.218 83.1739 153.879 83.2789L154.006 83.6513C154.268 83.567 154.472 83.5405 154.651 83.5631C154.981 83.6046 155.125 83.7705 155.089 84.0529L155.059 84.2924C154.883 84.1746 154.7 84.1081 154.499 84.0828C153.994 84.0192 153.647 84.2231 153.598 84.6081C153.55 84.9931 153.828 85.302 154.277 85.3586ZM154.053 84.6567C154.077 84.4642 154.267 84.3708 154.545 84.4058C154.729 84.429 154.879 84.4783 155.024 84.5705L154.981 84.917C154.819 85.0227 154.646 85.0573 154.453 85.0331C154.184 84.9991 154.028 84.8535 154.053 84.6567ZM156.84 85.6857C156.968 85.7019 157.134 85.701 157.262 85.6781L157.314 85.2717C157.18 85.2941 157.11 85.2983 157.016 85.2864C156.798 85.2589 156.727 85.1674 156.753 84.9578L156.891 83.8627L157.486 83.9376L157.535 83.5526L156.94 83.4777L157.027 82.7847L156.531 82.8264L156.457 83.4168L156.029 83.3629L155.98 83.7479L156.408 83.8018L156.257 85.0039C156.207 85.3974 156.408 85.6313 156.84 85.6857ZM158.338 85.8701C158.586 85.9014 158.802 85.846 159.008 85.6895L158.98 85.9119L159.459 85.9723L159.636 84.5734C159.698 84.0772 159.417 83.755 158.857 83.6844C158.57 83.6483 158.279 83.6854 157.939 83.7904L158.066 84.1628C158.329 84.0785 158.532 84.052 158.712 84.0746C159.041 84.1161 159.186 84.2821 159.15 84.5644L159.12 84.8039C158.943 84.6861 158.761 84.6196 158.56 84.5943C158.055 84.5307 157.707 84.7347 157.659 85.1197C157.61 85.5047 157.889 85.8135 158.338 85.8701ZM158.114 85.1682C158.138 84.9757 158.328 84.8823 158.606 84.9174C158.79 84.9405 158.94 84.9899 159.085 85.082L159.041 85.4285C158.88 85.5342 158.706 85.5688 158.514 85.5446C158.244 85.5106 158.089 85.365 158.114 85.1682Z" fill="#E9E6ED"/>
<path d="M163.515 83.6528L164.917 85.4591L166.724 84.057" stroke="#E9E6ED" stroke-width="0.538954" stroke-linecap="round" stroke-linejoin="round"/>
<rect x="141.643" y="78.145" width="29.5756" height="7.07791" rx="3.53895" transform="rotate(7.18 141.643 78.145)" stroke="#E9E6ED" stroke-width="0.359303"/>
<path d="M147.444 73.9566L147.957 74.0213L148.279 71.4717L149.28 71.5978L149.336 71.1529L146.82 70.836L146.764 71.2809L147.765 71.407L147.444 73.9566ZM149.887 74.3035C150.499 74.3805 151.021 73.9639 151.1 73.3308C151.18 72.6977 150.778 72.1646 150.166 72.0876C149.55 72.01 149.028 72.4266 148.949 73.0597C148.869 73.6928 149.271 74.2259 149.887 74.3035ZM149.939 73.8928C149.588 73.8486 149.373 73.5217 149.424 73.1195C149.474 72.7217 149.764 72.4541 150.115 72.4982C150.461 72.5419 150.676 72.8731 150.626 73.271C150.575 73.6731 150.285 73.9365 149.939 73.8928ZM152.283 74.6097C152.412 74.6258 152.577 74.6249 152.706 74.6021L152.757 74.1957C152.624 74.218 152.554 74.2222 152.46 74.2104C152.241 74.1829 152.17 74.0914 152.197 73.8817L152.335 72.7866L152.929 72.8615L152.978 72.4765L152.383 72.4016L152.471 71.7086L151.974 71.7504L151.9 72.3407L151.472 72.2868L151.424 72.6718L151.851 72.7257L151.7 73.9278C151.65 74.3214 151.851 74.5552 152.283 74.6097ZM153.781 74.794C154.029 74.8253 154.245 74.7699 154.452 74.6134L154.424 74.8358L154.903 74.8962L155.079 73.4973C155.141 73.0011 154.86 72.6789 154.3 72.6083C154.013 72.5722 153.722 72.6094 153.383 72.7144L153.51 73.0867C153.772 73.0025 153.976 72.9759 154.155 72.9986C154.485 73.0401 154.629 73.206 154.593 73.4883L154.563 73.7279C154.387 73.6101 154.204 73.5436 154.003 73.5182C153.498 73.4547 153.151 73.6586 153.102 74.0436C153.054 74.4286 153.332 74.7375 153.781 74.794ZM153.557 74.0922C153.581 73.8997 153.771 73.8063 154.049 73.8413C154.233 73.8645 154.383 73.9138 154.528 74.0059L154.484 74.3524C154.323 74.4582 154.15 74.4928 153.957 74.4685C153.687 74.4346 153.532 74.289 153.557 74.0922ZM155.488 74.9699L155.971 75.0308L156.368 71.8781L155.874 71.9027L155.488 74.9699ZM156.998 73.5697C157.165 73.5907 157.315 73.4705 157.336 73.2994C157.358 73.1283 157.243 72.9704 157.076 72.9494C156.909 72.9284 156.759 73.0528 156.738 73.2239C156.716 73.395 156.831 73.5486 156.998 73.5697ZM156.796 75.1738C156.963 75.1949 157.113 75.0747 157.134 74.9036C157.156 74.7324 157.041 74.5746 156.874 74.5536C156.707 74.5325 156.557 74.657 156.535 74.8281C156.514 74.9992 156.629 75.1528 156.796 75.1738ZM159.338 75.7462L159.604 75.7796L159.652 75.3988C160.213 75.4304 160.608 75.1543 160.668 74.6795C160.714 74.3158 160.536 74.0718 160.102 73.8912L159.854 73.7904L159.954 72.9947C160.164 73.0602 160.366 73.1769 160.549 73.3477L160.803 73.0191C160.582 72.8087 160.305 72.6608 160.006 72.5883L160.053 72.2119L159.788 72.1785L159.741 72.5506C159.182 72.5062 158.805 72.7674 158.746 73.2379C158.7 73.6016 158.88 73.8632 159.289 74.0364L159.542 74.1334L159.437 74.9676C159.196 74.9069 158.965 74.7778 158.758 74.591L158.494 74.9271C158.736 75.1488 159.055 75.302 159.386 75.3697L159.338 75.7462ZM159.597 73.6971L159.519 73.6612C159.254 73.554 159.164 73.4384 159.187 73.2587C159.213 73.0491 159.407 72.9257 159.691 72.9485L159.597 73.6971ZM159.702 75.001L159.799 74.2267L159.873 74.2621C160.152 74.3971 160.235 74.4945 160.212 74.6742C160.185 74.8881 159.991 75.0157 159.702 75.001ZM162.356 74.9051C162.523 74.9261 162.672 74.8059 162.694 74.6348C162.715 74.4637 162.601 74.3058 162.434 74.2848C162.267 74.2638 162.117 74.3883 162.095 74.5594C162.073 74.7305 162.189 74.8841 162.356 74.9051ZM163.425 75.0398C163.592 75.0609 163.742 74.9407 163.763 74.7696C163.785 74.5984 163.67 74.4406 163.503 74.4195C163.336 74.3985 163.186 74.523 163.164 74.6941C163.143 74.8652 163.258 75.0188 163.425 75.0398ZM164.495 75.1746C164.661 75.1956 164.811 75.0754 164.833 74.9043C164.854 74.7332 164.74 74.5753 164.573 74.5543C164.406 74.5333 164.255 74.6577 164.234 74.8288C164.212 74.9999 164.328 75.1535 164.495 75.1746ZM165.564 75.3093C165.731 75.3303 165.881 75.2101 165.902 75.039C165.924 74.8679 165.809 74.71 165.642 74.689C165.475 74.668 165.325 74.7924 165.303 74.9636C165.282 75.1347 165.397 75.2883 165.564 75.3093ZM166.633 75.444C166.8 75.465 166.95 75.3448 166.972 75.1737C166.993 75.0026 166.878 74.8447 166.712 74.8237C166.545 74.8027 166.394 74.9272 166.373 75.0983C166.351 75.2694 166.467 75.423 166.633 75.444Z" fill="white"/>
<path d="M146.023 49.7975L147.483 49.9814C148.63 50.1258 149.595 49.3609 149.737 48.2373C149.878 47.1137 149.132 46.1332 147.986 45.9888L146.526 45.8048L146.023 49.7975ZM146.782 49.2905L147.136 46.4842L147.928 46.5841C148.647 46.6747 149.135 47.3561 149.035 48.1489C148.935 48.9417 148.294 49.4809 147.575 49.3904L146.782 49.2905ZM150.929 46.9216C151.146 46.9489 151.351 46.795 151.378 46.5783C151.405 46.3616 151.246 46.156 151.029 46.1287C150.806 46.1007 150.607 46.261 150.579 46.4777C150.552 46.6944 150.707 46.8935 150.929 46.9216ZM150.171 50.32L150.815 50.4012L151.175 47.5436L150.531 47.4624L150.171 50.32ZM152.576 50.6809C153.243 50.765 153.796 50.4232 153.862 49.8985C153.916 49.4707 153.675 49.1739 153.118 48.9993L152.623 48.8384C152.332 48.7497 152.24 48.6569 152.263 48.4744C152.289 48.2691 152.498 48.168 152.795 48.2054C153.086 48.242 153.355 48.3628 153.622 48.5877L153.978 48.198C153.642 47.9238 153.297 47.7645 152.897 47.7142C152.23 47.6301 151.747 47.9227 151.68 48.4589C151.626 48.8867 151.861 49.1771 152.407 49.3502L152.899 49.499C153.171 49.5912 153.279 49.6976 153.257 49.8744C153.228 50.1025 152.974 50.2328 152.632 50.1897C152.341 50.153 152.102 50.0302 151.755 49.7489L151.398 50.1386C151.669 50.4276 152.085 50.6191 152.576 50.6809ZM154.193 52.0376L154.837 52.1188L155.03 50.5902C155.205 50.8557 155.486 51.0185 155.822 51.0609C156.569 51.155 157.232 50.5895 157.334 49.7739C157.436 48.9639 156.953 48.2483 156.228 48.157C155.863 48.111 155.524 48.2305 155.285 48.4727L155.336 48.0677L154.703 47.988L154.193 52.0376ZM155.736 50.5053C155.462 50.4708 155.232 50.3202 155.091 50.0997L155.242 48.9076C155.433 48.7231 155.681 48.6385 155.966 48.6744C156.451 48.7355 156.767 49.1751 156.701 49.6941C156.635 50.2188 156.226 50.5671 155.736 50.5053ZM159.129 51.5007C159.945 51.6034 160.641 51.0479 160.747 50.2038C160.853 49.3596 160.317 48.6489 159.501 48.5461C158.68 48.4427 157.984 48.9982 157.878 49.8423C157.772 50.6865 158.308 51.3972 159.129 51.5007ZM159.198 50.9531C158.731 50.8942 158.444 50.4583 158.511 49.9221C158.578 49.3917 158.965 49.0348 159.433 49.0937C159.895 49.1519 160.181 49.5936 160.114 50.124C160.046 50.6602 159.66 51.0113 159.198 50.9531ZM161.233 51.7135L161.877 51.7947L162.134 49.7585C162.311 49.549 162.537 49.4558 162.799 49.4889C163.182 49.537 163.393 49.836 163.341 50.2524L163.127 51.9521L163.777 52.034L164.014 50.1518C164.09 49.5472 163.732 49.0791 163.144 49.0051C162.774 48.9583 162.438 49.0956 162.178 49.4049L162.237 48.9372L161.593 48.856L161.233 51.7135ZM165.305 48.7326C165.522 48.7599 165.727 48.6061 165.754 48.3894C165.782 48.1726 165.622 47.9671 165.405 47.9398C165.183 47.9118 164.983 48.072 164.956 48.2888C164.928 48.5055 165.083 48.7046 165.305 48.7326ZM164.547 52.131L165.192 52.2122L165.551 49.3546L164.907 49.2734L164.547 52.131ZM165.99 52.3128L166.623 52.3925L166.669 52.0275C166.853 52.3115 167.133 52.4857 167.469 52.5281C168.216 52.6223 168.879 52.0567 168.981 51.2411C169.083 50.4311 168.6 49.7155 167.876 49.6242C167.516 49.579 167.177 49.6927 166.946 49.9185L167.161 48.2131L166.503 48.2403L165.99 52.3128ZM167.383 51.9726C167.109 51.9381 166.879 51.7874 166.738 51.5669L166.889 50.3749C167.08 50.1904 167.328 50.1057 167.613 50.1417C168.098 50.2027 168.414 50.6423 168.348 51.1613C168.282 51.6861 167.873 52.0344 167.383 51.9726ZM169.477 52.752L170.121 52.8332L170.651 48.6296L169.992 48.6624L169.477 52.752ZM172.236 53.1575C172.669 53.2121 173.033 53.1305 173.417 52.8834L173.043 52.4481C172.863 52.5934 172.599 52.6645 172.331 52.6307C171.886 52.5746 171.58 52.1943 171.576 51.7244L173.686 51.9902L173.706 51.8362C173.813 50.9807 173.321 50.2871 172.54 50.1887C171.753 50.0895 171.068 50.6522 170.962 51.4906C170.857 52.3291 171.414 53.0541 172.236 53.1575ZM171.632 51.3258C171.76 50.9074 172.08 50.6638 172.468 50.7127C172.85 50.7608 173.11 51.0891 173.126 51.5141L171.632 51.3258Z" fill="white"/>
<g clip-path="url(#clip7_12429_24334)">
<path d="M178.655 50.2152C177.787 50.1059 176.833 50.4962 176.005 51.4129C175.982 51.4394 175.966 51.4723 175.961 51.5075C175.957 51.5427 175.962 51.5785 175.977 51.6105C176.41 52.5217 177.206 53.2919 178.251 53.4236C179.285 53.5539 180.266 53.0054 180.912 52.2282C180.934 52.2015 180.948 52.169 180.953 52.1345C180.957 52.0999 180.951 52.0649 180.936 52.0335C180.501 51.1299 179.682 50.3446 178.655 50.2152Z" stroke="white" stroke-width="0.538954" stroke-linecap="round" stroke-linejoin="round"/>
<path d="M178.345 52.7111C178.837 52.7731 179.286 52.4244 179.348 51.9322C179.41 51.44 179.062 50.9907 178.569 50.9287C178.077 50.8667 177.628 51.2154 177.566 51.7076C177.504 52.1998 177.853 52.6491 178.345 52.7111Z" stroke="white" stroke-width="0.538954" stroke-miterlimit="10"/>
</g>
<mask id="mask0_12429_24334" style="mask-type:alpha" maskUnits="userSpaceOnUse" x="105" y="9" width="117" height="20">
<path fill-rule="evenodd" clip-rule="evenodd" d="M221.534 24.171C221.559 23.9741 221.42 23.7944 221.223 23.7696L220.866 23.7247L220.926 23.2494L219.5 23.0697L219.44 23.5451L219.084 23.5001C218.887 23.4753 218.707 23.6148 218.683 23.8117L218.233 27.3766C218.209 27.5735 218.348 27.7532 218.545 27.778L220.684 28.0474C220.881 28.0722 221.061 27.9327 221.085 27.7358L221.534 24.171ZM209.058 23.1345C209.153 23.0422 209.156 22.8878 209.057 22.7996C208.706 22.4866 207.865 21.8454 206.637 21.6906C205.407 21.5357 204.434 21.9483 204.018 22.1647C203.9 22.2257 203.864 22.3759 203.933 22.4889L205.786 25.51C205.943 25.7668 206.298 25.8115 206.514 25.6015L209.058 23.1345ZM107.024 13.0163L107.472 9.45598L107.402 9.44708L105.951 9.77928L105.89 10.2642L106.797 10.079L106.436 12.9423L107.024 13.0163ZM110.635 13.4713L110.694 13.0034L109.057 12.7971L109.931 12.0482C110.052 11.9512 110.164 11.8547 110.267 11.7588C110.37 11.6612 110.461 11.5629 110.539 11.4638C110.619 11.3634 110.684 11.261 110.734 11.1566C110.783 11.0523 110.815 10.9449 110.829 10.8344C110.854 10.6346 110.832 10.456 110.763 10.2988C110.695 10.1417 110.583 10.0129 110.428 9.91244C110.272 9.81196 110.075 9.74678 109.838 9.7169C109.586 9.68518 109.365 9.70923 109.173 9.78907C108.982 9.86728 108.828 9.98656 108.712 10.1469C108.596 10.3056 108.526 10.4881 108.5 10.6945L109.087 10.7684C109.103 10.6401 109.14 10.5292 109.198 10.4359C109.256 10.3409 109.334 10.2706 109.43 10.225C109.527 10.1794 109.641 10.1648 109.772 10.1814C109.886 10.1958 109.98 10.2331 110.053 10.2935C110.126 10.3523 110.178 10.4273 110.208 10.5185C110.239 10.6083 110.248 10.7092 110.234 10.8213C110.224 10.9009 110.198 10.981 110.157 11.0616C110.117 11.1408 110.054 11.2278 109.968 11.3225C109.882 11.4173 109.766 11.5282 109.621 11.6552L108.308 12.7696L108.257 13.1716L110.635 13.4713ZM111.293 13.0244C111.224 13.0783 111.183 13.1508 111.172 13.2418C111.16 13.3327 111.181 13.413 111.235 13.4825C111.289 13.552 111.369 13.5934 111.475 13.6067C111.582 13.6202 111.67 13.5999 111.737 13.5457C111.807 13.4918 111.847 13.4193 111.859 13.3283C111.87 13.2374 111.849 13.1571 111.795 13.0876C111.743 13.0167 111.663 12.9745 111.556 12.9609C111.451 12.9476 111.363 12.9688 111.293 13.0244ZM111.557 10.9484C111.488 11.0024 111.447 11.0748 111.436 11.1658C111.424 11.2568 111.445 11.337 111.499 11.4066C111.553 11.4761 111.633 11.5175 111.739 11.5308C111.846 11.5443 111.934 11.524 112.001 11.4698C112.071 11.4158 112.111 11.3434 112.123 11.2524C112.134 11.1614 112.113 11.0812 112.059 11.0117C112.007 10.9407 111.927 10.8985 111.82 10.885C111.715 10.8717 111.627 10.8928 111.557 10.9484ZM113.707 11.7861L113.356 11.7419L113.339 11.8784L113.315 12.0685L113.298 12.2001L113.649 12.2443C113.784 12.2613 113.898 12.2971 113.992 12.3518C114.086 12.4049 114.154 12.4779 114.197 12.5708C114.24 12.6636 114.253 12.7791 114.235 12.9172C114.22 13.0391 114.182 13.14 114.123 13.2199C114.065 13.3001 113.988 13.3565 113.894 13.3891C113.799 13.4217 113.69 13.4302 113.566 13.4147C113.449 13.3999 113.348 13.3641 113.263 13.3071C113.179 13.2504 113.117 13.179 113.077 13.0931C113.038 13.0057 113.026 12.9092 113.039 12.8036L112.452 12.7297C112.431 12.8954 112.444 13.0456 112.492 13.1803C112.541 13.3136 112.615 13.4294 112.715 13.5278C112.815 13.6246 112.932 13.7029 113.067 13.7627C113.201 13.8226 113.345 13.8621 113.497 13.8813C113.668 13.9028 113.828 13.8999 113.979 13.8727C114.131 13.8456 114.267 13.7942 114.387 13.7186C114.507 13.6429 114.604 13.5446 114.679 13.4237C114.755 13.3013 114.804 13.1572 114.825 12.9915C114.84 12.8697 114.833 12.7515 114.803 12.6372C114.774 12.523 114.719 12.4178 114.637 12.3217C114.56 12.229 114.455 12.15 114.324 12.0847C114.436 12.0496 114.534 12.0024 114.618 11.943C114.721 11.8686 114.803 11.7823 114.863 11.6843C114.924 11.5862 114.96 11.4869 114.973 11.3861C115.001 11.1652 114.976 10.9739 114.899 10.8124C114.822 10.6509 114.702 10.5219 114.539 10.4255C114.378 10.3276 114.183 10.2643 113.954 10.2354C113.74 10.2084 113.541 10.2263 113.358 10.2891C113.177 10.3504 113.028 10.448 112.91 10.5817C112.793 10.7154 112.722 10.8765 112.699 11.065L113.288 11.1393C113.301 11.0353 113.337 10.949 113.395 10.8804C113.454 10.8102 113.527 10.76 113.615 10.7298C113.704 10.6982 113.801 10.689 113.905 10.7021C114.029 10.7176 114.128 10.7524 114.202 10.8063C114.277 10.8603 114.33 10.9305 114.358 11.0166C114.389 11.1013 114.397 11.1997 114.383 11.3118C114.37 11.4191 114.336 11.5113 114.281 11.5887C114.227 11.666 114.151 11.7225 114.055 11.7581C113.959 11.794 113.843 11.8033 113.707 11.7861ZM117.746 12.852L117.82 12.272C117.848 12.0495 117.854 11.8523 117.84 11.6804C117.825 11.507 117.791 11.3566 117.738 11.2295C117.686 11.1008 117.618 10.9931 117.531 10.9063C117.446 10.8197 117.346 10.7518 117.23 10.7025C117.116 10.6518 116.988 10.6176 116.847 10.5998C116.671 10.5777 116.509 10.5853 116.359 10.6225C116.21 10.6599 116.077 10.7331 115.96 10.8421C115.842 10.9494 115.744 11.0962 115.664 11.2826C115.585 11.4674 115.527 11.6994 115.492 11.9789L115.419 12.5589C115.391 12.7814 115.384 12.9794 115.399 13.1529C115.415 13.3266 115.449 13.4785 115.5 13.6088C115.553 13.7376 115.623 13.8462 115.709 13.9346C115.795 14.0231 115.895 14.0926 116.009 14.1433C116.125 14.1942 116.253 14.2284 116.392 14.246C116.568 14.2681 116.73 14.2597 116.878 14.2206C117.029 14.1818 117.162 14.1079 117.28 13.9989C117.398 13.8899 117.496 13.7414 117.574 13.5532C117.654 13.3636 117.711 13.1298 117.746 12.852ZM117.243 12.1103L117.149 12.8609C117.126 13.038 117.095 13.1884 117.055 13.312C117.014 13.4356 116.965 13.5342 116.906 13.6077C116.848 13.6795 116.78 13.7288 116.704 13.7555C116.628 13.7823 116.544 13.7898 116.451 13.7781C116.378 13.7689 116.312 13.7491 116.253 13.7185C116.196 13.6882 116.147 13.6457 116.106 13.5911C116.067 13.535 116.036 13.4667 116.013 13.3862C115.99 13.3042 115.978 13.2077 115.975 13.0968C115.973 12.9859 115.98 12.859 115.998 12.716L116.093 11.9654C116.115 11.7884 116.146 11.6396 116.186 11.5192C116.228 11.3974 116.278 11.3014 116.337 11.2312C116.395 11.1609 116.462 11.1133 116.538 11.0882C116.614 11.0614 116.697 11.0538 116.788 11.0652C116.863 11.0747 116.929 11.0945 116.986 11.1248C117.044 11.1535 117.093 11.1952 117.134 11.2499C117.175 11.3029 117.206 11.3696 117.227 11.4498C117.251 11.5287 117.263 11.6235 117.266 11.7344C117.269 11.8437 117.261 11.969 117.243 12.1103ZM215.15 23.1045C215.177 22.8928 214.934 22.7545 214.766 22.8854L210.327 26.3306C210.159 26.4614 210.233 26.7308 210.444 26.7574L214.148 27.2241C214.411 27.2571 214.651 27.0711 214.684 26.8086L215.15 23.1045Z" fill="white"/>
</mask>
<g mask="url(#mask0_12429_24334)">
<g filter="url(#filter0_b_12429_24334)">
<rect x="100.198" y="6.10889" width="129.349" height="8.62327" transform="rotate(7.18 100.198 6.10889)" fill="white"/>
</g>
</g>
</g>
</g>
</g>
<g filter="url(#filter1_d_12429_24334)">
<path fill-rule="evenodd" clip-rule="evenodd" d="M169.439 263.324C179.531 264.596 188.744 257.445 190.015 247.352C191.286 237.26 184.134 228.048 174.041 226.777C163.949 225.506 154.736 232.657 153.465 242.749C152.194 252.841 159.346 262.053 169.439 263.324Z" fill="#FF2F73"/>
</g>
<path fill-rule="evenodd" clip-rule="evenodd" d="M171.189 244.183C170.173 243.748 169.533 243.084 169.67 241.996C169.813 240.862 170.693 240.19 171.68 240.283L171.189 244.183ZM171.71 245.554C172.747 246.053 173.441 246.862 173.311 247.89C173.123 249.386 172.031 249.786 171.187 249.71L171.71 245.554ZM170.503 249.624C169.907 249.534 168.876 248.989 168.478 248.018L167.59 248.52C168.158 249.528 169.115 250.309 170.393 250.501L170.169 252.278L170.853 252.364L171.076 250.587C172.718 250.763 174.116 249.772 174.327 248.094C174.574 246.129 173.211 245.236 171.84 244.526L172.363 240.369C173.045 240.47 173.729 240.894 174.087 241.615L174.95 241.079C174.41 240.197 173.378 239.668 172.47 239.523L172.694 237.745L172.01 237.659L171.786 239.436C170.296 239.326 168.897 240.209 168.676 241.962C168.444 243.806 169.807 244.7 171.05 245.286L170.503 249.624Z" fill="white"/>
<path d="M171.189 244.183L171.041 244.527C171.149 244.573 171.273 244.566 171.375 244.507C171.476 244.449 171.545 244.346 171.56 244.23L171.189 244.183ZM171.68 240.283L172.051 240.33C172.063 240.23 172.035 240.128 171.972 240.049C171.908 239.971 171.816 239.921 171.715 239.911L171.68 240.283ZM171.71 245.554L171.873 245.217C171.764 245.165 171.637 245.168 171.532 245.225C171.426 245.283 171.354 245.388 171.339 245.507L171.71 245.554ZM171.187 249.71L170.816 249.664C170.803 249.764 170.832 249.866 170.896 249.945C170.959 250.024 171.052 250.074 171.154 250.083L171.187 249.71ZM170.503 249.624L170.447 249.994C170.547 250.009 170.649 249.983 170.729 249.922C170.809 249.862 170.862 249.771 170.874 249.671L170.503 249.624ZM168.478 248.018L168.824 247.876C168.783 247.777 168.702 247.7 168.6 247.664C168.499 247.629 168.387 247.639 168.294 247.692L168.478 248.018ZM167.59 248.52L167.406 248.195C167.227 248.296 167.163 248.524 167.264 248.704L167.59 248.52ZM170.393 250.501L170.764 250.547C170.789 250.346 170.649 250.161 170.448 250.131L170.393 250.501ZM170.169 252.278L169.798 252.231C169.786 252.33 169.813 252.429 169.874 252.507C169.935 252.586 170.024 252.637 170.122 252.649L170.169 252.278ZM170.853 252.364L170.806 252.735C170.904 252.748 171.004 252.72 171.082 252.66C171.16 252.599 171.211 252.509 171.224 252.411L170.853 252.364ZM171.076 250.587L171.116 250.215C170.914 250.193 170.731 250.338 170.706 250.54L171.076 250.587ZM171.84 244.526L171.469 244.479C171.449 244.634 171.529 244.786 171.668 244.858L171.84 244.526ZM172.363 240.369L172.418 239.999C172.319 239.984 172.218 240.01 172.137 240.071C172.057 240.132 172.005 240.222 171.992 240.322L172.363 240.369ZM174.087 241.615L173.752 241.781C173.799 241.875 173.883 241.946 173.985 241.975C174.086 242.003 174.195 241.988 174.284 241.932L174.087 241.615ZM174.95 241.079L175.147 241.396C175.322 241.288 175.376 241.059 175.269 240.883L174.95 241.079ZM172.47 239.523L172.099 239.476C172.074 239.676 172.212 239.86 172.411 239.892L172.47 239.523ZM172.694 237.745L173.065 237.792C173.077 237.694 173.05 237.594 172.989 237.516C172.928 237.438 172.839 237.387 172.741 237.374L172.694 237.745ZM172.01 237.659L172.057 237.288C171.959 237.276 171.859 237.303 171.781 237.364C171.703 237.425 171.652 237.514 171.639 237.612L172.01 237.659ZM171.786 239.436L171.759 239.809C171.957 239.824 172.133 239.681 172.157 239.483L171.786 239.436ZM171.05 245.286L171.421 245.333C171.441 245.172 171.356 245.017 171.209 244.948L171.05 245.286ZM171.336 243.839C170.86 243.635 170.511 243.394 170.295 243.109C170.088 242.835 169.984 242.496 170.041 242.042L169.299 241.949C169.22 242.583 169.367 243.121 169.699 243.56C170.023 243.988 170.502 244.295 171.041 244.527L171.336 243.839ZM170.041 242.042C170.16 241.099 170.869 240.582 171.645 240.656L171.715 239.911C170.518 239.798 169.466 240.625 169.299 241.949L170.041 242.042ZM171.309 240.237L170.818 244.136L171.56 244.23L172.051 240.33L171.309 240.237ZM171.548 245.891C172.519 246.358 173.04 247.047 172.94 247.843L173.682 247.936C173.841 246.676 172.975 245.747 171.873 245.217L171.548 245.891ZM172.94 247.843C172.858 248.499 172.587 248.872 172.282 249.082C171.968 249.299 171.576 249.37 171.22 249.338L171.154 250.083C171.642 250.127 172.218 250.035 172.707 249.697C173.207 249.352 173.576 248.777 173.682 247.936L172.94 247.843ZM171.558 249.757L172.081 245.601L171.339 245.507L170.816 249.664L171.558 249.757ZM170.559 249.254C170.327 249.219 169.974 249.087 169.632 248.846C169.292 248.607 168.99 248.28 168.824 247.876L168.132 248.16C168.365 248.727 168.777 249.158 169.201 249.457C169.623 249.754 170.083 249.939 170.447 249.994L170.559 249.254ZM168.294 247.692L167.406 248.195L167.774 248.846L168.662 248.343L168.294 247.692ZM167.264 248.704C167.88 249.797 168.93 250.659 170.338 250.871L170.448 250.131C169.301 249.959 168.435 249.259 167.916 248.337L167.264 248.704ZM170.022 250.454L169.798 252.231L170.54 252.325L170.764 250.547L170.022 250.454ZM170.122 252.649L170.806 252.735L170.899 251.993L170.216 251.907L170.122 252.649ZM171.224 252.411L171.447 250.634L170.706 250.54L170.482 252.317L171.224 252.411ZM171.037 250.959C172.862 251.154 174.459 250.039 174.698 248.141L173.956 248.047C173.772 249.505 172.574 250.371 171.116 250.215L171.037 250.959ZM174.698 248.141C174.835 247.05 174.522 246.231 173.974 245.595C173.442 244.978 172.7 244.55 172.012 244.194L171.668 244.858C172.351 245.211 172.977 245.585 173.408 246.084C173.822 246.564 174.066 247.173 173.956 248.047L174.698 248.141ZM172.211 244.572L172.734 240.416L171.992 240.322L171.469 244.479L172.211 244.572ZM172.308 240.739C172.882 240.824 173.454 241.181 173.752 241.781L174.422 241.449C174.004 240.607 173.208 240.116 172.418 239.999L172.308 240.739ZM174.284 241.932L175.147 241.396L174.753 240.761L173.89 241.297L174.284 241.932ZM175.269 240.883C174.657 239.885 173.513 239.311 172.529 239.153L172.411 239.892C173.242 240.025 174.163 240.509 174.631 241.274L175.269 240.883ZM172.841 239.569L173.065 237.792L172.323 237.699L172.099 239.476L172.841 239.569ZM172.741 237.374L172.057 237.288L171.964 238.03L172.647 238.116L172.741 237.374ZM171.639 237.612L171.415 239.39L172.157 239.483L172.381 237.706L171.639 237.612ZM171.814 239.064C170.152 238.94 168.554 239.939 168.305 241.915L169.047 242.009C169.24 240.479 170.44 239.711 171.759 239.809L171.814 239.064ZM168.305 241.915C168.175 242.952 168.497 243.742 169.03 244.344C169.549 244.93 170.258 245.326 170.89 245.624L171.209 244.948C170.599 244.66 170.005 244.316 169.59 243.848C169.189 243.395 168.946 242.816 169.047 242.009L168.305 241.915ZM170.679 245.239L170.132 249.577L170.874 249.671L171.421 245.333L170.679 245.239Z" fill="white"/>
<path d="M230.267 81.9049L202.629 93.001C198.344 94.7583 194.829 98.1144 193.227 102.418C192.017 105.711 191.654 109.994 193.856 114.954C199.39 127.843 212.908 123.626 212.908 123.626L235.617 116.591C241.5 114.77 246.57 110.992 249.794 105.744C252.233 101.81 253.868 96.5389 252.831 90.0473C250.149 73.4542 231.669 70.7733 231.669 70.7733L230.267 81.9049Z" fill="#FFACC7"/>
<path d="M239.095 117.737L202.129 128.541C198.181 129.723 194.548 131.915 191.935 135.12C188.92 138.716 186.469 144.15 188.68 151.142C193.093 165.215 208.591 160.011 208.591 160.011L233.255 154.283C239.987 152.745 245.547 147.88 247.521 141.326C248.415 138.435 248.733 135.206 247.791 131.465C244.596 118.253 239.095 117.737 239.095 117.737Z" fill="#FFACC7"/>
<path d="M236.17 188.662L207.285 197.039C204.163 197.971 201.389 199.654 199.31 202.131C196.927 204.923 195.074 209.107 196.765 214.62C200.159 225.561 212.242 221.517 212.242 221.517L231.447 217.045C236.634 215.843 240.998 212.063 242.622 206.879C243.342 204.673 243.584 202.053 242.879 199.225C240.453 189.025 236.17 188.662 236.17 188.662Z" fill="#FFACC7"/>
<path d="M241.483 156.998C240.441 155.453 238.495 154.766 236.69 155.069C227.36 156.897 198.77 162.926 195.07 167.054C190.64 172.062 188.548 176.746 190.39 183.162C192.233 189.578 198.761 195.966 212.691 194.098C226.62 192.231 243.099 184.853 244.867 177.831C246.558 171.419 247.466 165.614 241.483 156.998Z" fill="#FFACC7"/>
<path d="M79.0351 122.403C90.3227 123.825 100.449 117.229 101.653 107.671C102.856 98.1131 94.6819 89.2124 83.3942 87.7908C72.1066 86.3692 61.9803 92.965 60.7766 102.523C59.5728 112.081 67.7474 120.981 79.0351 122.403Z" fill="#FFACC7"/>
<path d="M100.568 102.64C100.567 99.2045 92.2761 86.7102 83.2692 89.3699C83.2692 89.3699 79.0601 96.9697 82.1901 102.242C85.32 107.514 100.206 104.081 100.568 102.64Z" fill="#FFBED4"/>
<path d="M215.842 116.906C218.413 106.824 213.056 100.295 210.056 98.2917C203.875 98.5972 193.125 101.904 199.571 112.689C206.018 123.474 213.104 119.994 215.842 116.906Z" fill="#FFBED4"/>
<path d="M205.885 156.819C210.546 147.516 206.705 139.996 204.201 137.399C198.097 136.379 186.889 137.318 190.887 149.229C194.886 161.14 202.552 159.252 205.885 156.819Z" fill="#FFBED4"/>
<path d="M208.255 189.637C212.917 180.334 209.075 172.814 206.572 170.217C200.468 169.197 189.259 170.136 193.258 182.047C197.257 193.958 204.923 192.07 208.255 189.637Z" fill="#FFBED4"/>
<path d="M212.713 218.108C216.041 210.506 212.323 204.621 210.048 202.628C204.843 202.021 195.464 203.156 199.597 212.549C203.729 221.942 210.063 220.169 212.713 218.108Z" fill="#FFBED4"/>
<rect x="95.9175" y="278.779" width="71.8792" height="4.3829" rx="2.19145" transform="rotate(7.17823 95.9175 278.779)" fill="white"/>
</g>
</g>
<defs>
<filter id="filter0_b_12429_24334" x="9.29487" y="-83.7169" width="309.064" height="204.374" filterUnits="userSpaceOnUse" color-interpolation-filters="sRGB">
<feFlood flood-opacity="0" result="BackgroundImageFix"/>
<feGaussianBlur in="BackgroundImage" stdDeviation="44.9129"/>
<feComposite in2="SourceAlpha" operator="in" result="effect1_backgroundBlur_12429_24334"/>
<feBlend mode="normal" in="SourceGraphic" in2="effect1_backgroundBlur_12429_24334" result="shape"/>
</filter>
<filter id="filter1_d_12429_24334" x="149.046" y="223.782" width="45.3886" height="45.3864" filterUnits="userSpaceOnUse" color-interpolation-filters="sRGB">
<feFlood flood-opacity="0" result="BackgroundImageFix"/>
<feColorMatrix in="SourceAlpha" type="matrix" values="0 0 0 0 0 0 0 0 0 0 0 0 0 0 0 0 0 0 127 0" result="hardAlpha"/>
<feOffset dy="1.42443"/>
<feGaussianBlur stdDeviation="2.13665"/>
<feColorMatrix type="matrix" values="0 0 0 0 0 0 0 0 0 0 0 0 0 0 0 0 0 0 0.3 0"/>
<feBlend mode="normal" in2="BackgroundImageFix" result="effect1_dropShadow_12429_24334"/>
<feBlend mode="normal" in="SourceGraphic" in2="effect1_dropShadow_12429_24334" result="shape"/>
</filter>
<clipPath id="clip0_12429_24334">
<rect width="304" height="304" fill="white"/>
</clipPath>
<clipPath id="clip1_12429_24334">
<rect width="194.775" height="291.357" fill="white" transform="translate(73.3465 -5) rotate(7.17823)"/>
</clipPath>
<clipPath id="clip2_12429_24334">
<rect x="100.48" y="6" width="129" height="267.87" rx="16" transform="rotate(7.18 100.48 6)" fill="white"/>
</clipPath>
<clipPath id="clip3_12429_24334">
<rect width="129.349" height="229.954" fill="white" transform="translate(100.198 6.10889) rotate(7.18)"/>
</clipPath>
<clipPath id="clip4_12429_24334">
<rect width="129.349" height="95.5746" fill="white" transform="matrix(-0.992158 -0.124987 -0.124987 0.992158 228.533 22.2759)"/>
</clipPath>
<clipPath id="clip5_12429_24334">
<rect width="8.62327" height="8.62327" fill="white" transform="translate(106.958 21.4458) rotate(7.18)"/>
</clipPath>
<clipPath id="clip6_12429_24334">
<rect width="8.62327" height="8.62327" fill="white" transform="translate(198.218 32.9424) rotate(7.18)"/>
</clipPath>
<clipPath id="clip7_12429_24334">
<rect width="5.74885" height="5.74885" fill="white" transform="translate(175.964 48.6084) rotate(7.18)"/>
</clipPath>
</defs>
</svg>
