<svg width="360" height="400" viewBox="0 0 360 400" fill="none" xmlns="http://www.w3.org/2000/svg">
<g clip-path="url(#clip0_362_14454)">
<path d="M108.001 -10.7043C114.004 -8.85612 119.276 -5.17294 123.076 -0.172623C125.895 3.44001 131.066 -1.36292 128.268 -4.94772C123.605 -10.9036 117.222 -15.2784 109.985 -17.4771C105.614 -18.8692 103.624 -12.0755 108.001 -10.7043Z" fill="#EAFAFB"/>
<path d="M1.17071 11.7702C5.57839 12.8555 10.1759 12.9179 14.6114 11.9527C19.0469 10.9876 23.2029 9.02032 26.7613 6.20159C30.3456 3.41729 25.4738 -1.80327 21.8896 0.981025C19.2599 3.01862 16.2052 4.43774 12.9521 5.13304C9.69906 5.82834 6.33123 5.78197 3.09855 4.99739C-1.33475 3.93936 -3.35307 10.7052 1.11502 11.7702H1.17071Z" fill="#EAFAFB"/>
<path d="M24.2622 35.4167C32.9996 34.7981 41.7548 36.3401 49.7554 39.9064C53.9312 41.7441 55.8868 34.9643 51.7389 33.1336C43.1565 29.3443 33.7819 27.6984 24.4223 28.3376C19.9124 28.6369 19.6967 35.7091 24.2622 35.4028V35.4167Z" fill="#EAFAFB"/>
<path d="M69.6738 17.8631C81.4356 19.4153 96.2388 18.7332 100.408 5.3337C101.758 1.00411 94.9443 -1.04931 93.5871 3.29421C90.511 13.1785 77.9349 11.842 69.8338 10.7701C65.3101 10.1714 65.1639 17.2436 69.6738 17.8422V17.8631Z" fill="#EAFAFB"/>
<path d="M123.089 33.482L122.484 33.1061C122.091 32.8616 121.654 32.6969 121.197 32.6214C120.74 32.5459 120.273 32.5611 119.822 32.6662C119.372 32.7712 118.946 32.964 118.57 33.2336C118.193 33.5031 117.874 33.8442 117.63 34.2373C117.385 34.6303 117.22 35.0677 117.145 35.5244C117.069 35.9811 117.085 36.4482 117.19 36.8991C117.295 37.3499 117.487 37.7757 117.757 38.152C118.026 38.5283 118.367 38.8479 118.76 39.0924L119.366 39.4683C119.759 39.7128 120.196 39.8775 120.653 39.953C121.11 40.0285 121.577 40.0133 122.027 39.9083C122.478 39.8032 122.904 39.6104 123.28 39.3408C123.656 39.0713 123.976 38.7302 124.22 38.3372C124.465 37.9441 124.629 37.5067 124.705 37.05C124.78 36.5933 124.765 36.1262 124.66 35.6753C124.555 35.2245 124.362 34.7987 124.093 34.4224C123.823 34.0461 123.482 33.7265 123.089 33.482Z" fill="#EAFAFB"/>
<path d="M91.9658 43.2127L74.7337 29.1241C71.1982 26.2284 67.5095 32.2425 71.0172 35.1104L88.2423 49.199C91.7778 52.0877 95.4665 46.0736 91.9658 43.2127Z" fill="#EAFAFB"/>
<path d="M44.8072 20.4846C47.2013 16.6353 41.1603 12.8695 38.7592 16.7258C36.3582 20.5821 42.4061 24.3478 44.8072 20.4846Z" fill="#EAFAFB"/>
<path d="M218.019 14.938C229.576 11.2252 239.757 4.13638 247.25 -5.41522C250.068 -8.95825 243.999 -12.6892 241.202 -9.17405C234.798 -1.11639 226.16 4.87371 216.37 8.04689C212.069 9.43904 213.676 16.358 218.012 14.938H218.019Z" fill="#EAFAFB"/>
<path d="M304.966 11.1387C316.282 7.65836 327.236 1.47022 328.399 -11.435C328.795 -15.9665 321.697 -16.1823 321.3 -11.6647C320.479 -2.29554 311.243 1.8322 303.316 4.24062C298.98 5.56317 300.595 12.4683 304.966 11.1387Z" fill="#EAFAFB"/>
<path d="M319.817 29.8074C325.816 31.6559 331.085 35.3362 334.885 40.3321C337.669 43.9448 342.882 39.1418 340.084 35.564C335.419 29.6076 329.033 25.2329 321.794 23.0346C317.43 21.6425 315.433 28.4362 319.817 29.8074Z" fill="#EAFAFB"/>
<path d="M212.945 52.2835C217.353 53.3688 221.951 53.4312 226.386 52.4661C230.822 51.5009 234.978 49.5336 238.536 46.7149C242.12 43.9306 237.249 38.717 233.699 41.5013C231.068 43.5362 228.013 44.9536 224.761 45.6488C221.508 46.344 218.141 46.2992 214.908 45.5176C210.482 44.4596 208.457 51.2255 212.925 52.2905L212.945 52.2835Z" fill="#EAFAFB"/>
<path d="M236.072 75.9259C244.81 75.3117 253.566 76.8584 261.565 80.4296C265.741 82.2672 267.704 75.4804 263.549 73.6567C254.968 69.8683 245.596 68.2224 236.239 68.8608C231.722 69.1601 231.506 76.2322 236.072 75.9259Z" fill="#EAFAFB"/>
<path d="M281.484 58.365C293.246 59.9242 308.056 59.2351 312.218 45.8356C313.568 41.4991 306.754 39.4526 305.404 43.7961C302.321 53.6804 289.745 52.344 281.651 51.272C277.12 50.6734 276.981 57.7455 281.484 58.3372V58.365Z" fill="#EAFAFB"/>
<path d="M253.43 30.4251C262.145 31.2448 270.598 33.8512 278.262 38.0819C282.264 40.2815 286.008 34.3092 281.985 32.0957C273.224 27.2499 263.557 24.2663 253.59 23.3321C249.038 22.8935 248.885 29.9657 253.43 30.3972V30.4251Z" fill="#EAFAFB"/>
<path d="M269.375 10.8167C271.769 6.96735 265.728 3.20157 263.327 7.05784C260.926 10.9141 266.973 14.6799 269.375 10.8167Z" fill="#EAFAFB"/>
<path d="M334.9 74.0133L334.301 73.6374C333.908 73.3928 333.471 73.2281 333.014 73.1527C332.558 73.0772 332.091 73.0924 331.64 73.1974C331.189 73.3024 330.763 73.4953 330.387 73.7648C330.011 74.0344 329.691 74.3754 329.447 74.7685C329.202 75.1616 329.038 75.5989 328.962 76.0557C328.887 76.5124 328.902 76.9795 329.007 77.4303C329.112 77.8812 329.305 78.3069 329.574 78.6832C329.844 79.0596 330.185 79.3791 330.578 79.6236L331.183 79.9995C331.576 80.2436 332.014 80.4078 332.47 80.4829C332.926 80.558 333.393 80.5424 333.844 80.437C334.294 80.3317 334.719 80.1386 335.095 79.8688C335.471 79.5991 335.79 79.258 336.034 78.8649C336.278 78.4718 336.442 78.0345 336.518 77.578C336.593 77.1215 336.577 76.6546 336.472 76.2041C336.366 75.7536 336.173 75.3282 335.904 74.9523C335.634 74.5764 335.293 74.2573 334.9 74.0133Z" fill="#EAFAFB"/>
<path d="M303.776 83.7173L286.551 69.6288C283.015 66.74 279.327 72.7541 282.827 75.615L300.052 89.7036C303.588 92.5993 307.277 86.5852 303.776 83.7173Z" fill="#EAFAFB"/>
<path d="M256.589 60.9955C258.983 57.1462 252.943 53.3735 250.541 57.2367C248.14 61.0999 254.188 64.8517 256.589 60.9955Z" fill="#EAFAFB"/>
<path d="M233.455 30.8586C235.856 27.0023 229.808 23.2366 227.414 27.0928C225.02 30.9491 231.061 34.7148 233.455 30.8586Z" fill="#EAFAFB"/>
<path d="M302.676 27.3765L302.071 27.0007C301.277 26.5068 300.32 26.3486 299.409 26.5607C298.499 26.7728 297.71 27.338 297.216 28.1318C296.723 28.9256 296.564 29.8831 296.777 30.7936C296.989 31.7041 297.554 32.4931 298.347 32.9869L298.953 33.3628C299.346 33.6073 299.783 33.772 300.24 33.8475C300.696 33.923 301.163 33.9078 301.614 33.8028C302.065 33.6977 302.491 33.505 302.867 33.2354C303.243 32.9658 303.563 32.6248 303.807 32.2317C304.052 31.8386 304.216 31.4012 304.292 30.9445C304.367 30.4878 304.352 30.0207 304.247 29.5698C304.142 29.119 303.949 28.6933 303.68 28.3169C303.41 27.9406 303.069 27.6211 302.676 27.3765Z" fill="#EAFAFB"/>
<path d="M20.2608 174.617C22.655 170.767 16.614 166.995 14.2129 170.858C11.8118 174.721 17.8667 178.473 20.2608 174.617Z" fill="#EAFAFB"/>
<path d="M-29.6256 93.2935C-18.0673 89.5834 -7.8858 82.494 -0.395107 72.9402C2.38875 69.3972 -3.64526 65.6662 -6.43608 69.1814C-12.8413 77.2379 -21.4784 83.2277 -31.2681 86.4023C-35.5692 87.7945 -33.9615 94.7135 -29.6256 93.2935Z" fill="#EAFAFB"/>
<path d="M27.0881 66.2668C35.7374 65.1611 44.5067 67.0079 51.9758 71.5083C55.915 73.8401 59.6314 67.8608 55.6992 65.522C46.5953 60.1023 35.921 57.9352 25.4247 59.3757C20.894 59.9604 22.5713 66.8446 27.0672 66.2668H27.0881Z" fill="#EAFAFB"/>
<path d="M57.3136 89.4872C68.6369 86.0068 79.6262 79.8257 80.7536 66.9204C81.1503 62.389 74.0515 62.1732 73.6548 66.6907C72.8336 76.0599 63.5981 80.1876 55.6711 82.596C51.3352 83.9186 52.9499 90.8237 57.3136 89.4872Z" fill="#EAFAFB"/>
<path d="M72.1587 108.156C78.1581 110.009 83.4285 113.691 87.2333 118.687C90.052 122.3 95.23 117.497 92.4322 113.919C87.7643 107.966 81.3792 103.592 74.1422 101.39C69.7785 100.033 67.7811 106.798 72.1587 108.163V108.156Z" fill="#EAFAFB"/>
<path d="M-11.5728 154.286C-2.83408 153.668 5.92207 155.215 13.9204 158.789C18.0962 160.627 20.0518 153.84 15.9039 152.016C7.32157 148.227 -2.05311 146.581 -11.4127 147.22C-15.9226 147.52 -16.1383 154.592 -11.5728 154.286Z" fill="#EAFAFB"/>
<path d="M33.8391 136.724C45.6009 138.283 60.411 137.594 64.5729 124.194C65.9231 119.865 59.1096 117.818 57.7525 122.162C54.6763 132.039 42.1002 130.71 33.9992 129.638C29.4754 129.039 29.3362 136.111 33.8391 136.703V136.724Z" fill="#EAFAFB"/>
<path d="M5.77754 108.818C14.495 109.637 22.9502 112.244 30.6165 116.474C34.6114 118.674 38.3626 112.702 34.3399 110.488C25.5788 105.643 15.9119 102.66 5.94456 101.725C1.38599 101.286 1.23289 108.351 5.77754 108.79V108.818Z" fill="#EAFAFB"/>
<path d="M21.7227 89.1741C24.1238 85.3248 18.0758 81.559 15.6817 85.4153C13.2876 89.2715 19.3286 93.0373 21.7227 89.1741Z" fill="#EAFAFB"/>
<path d="M0.551193 44.9864C-4.66299 47.2678 -10.4623 47.8522 -16.0267 46.657C-20.4739 45.7173 -22.2486 52.5666 -17.7596 53.5064C-10.4088 55.0795 -2.74729 54.2549 4.10064 51.1536C8.27643 49.316 4.66435 43.1627 0.551193 44.9864Z" fill="#EAFAFB"/>
<path d="M0.516388 25.0289C-11.5782 26.0628 -23.0867 30.6931 -32.528 38.324C-36.0635 41.15 -30.983 46.1479 -27.4753 43.3427C-19.4303 36.9238 -9.67244 33.0186 0.579044 32.1149C5.08194 31.7043 5.06104 24.6182 0.516388 25.0289Z" fill="#EAFAFB"/>
<path d="M87.2544 152.349L86.6489 151.973C86.2559 151.729 85.8186 151.564 85.3619 151.489C84.9053 151.413 84.4383 151.428 83.9875 151.533C83.5367 151.638 83.111 151.831 82.7348 152.101C82.3585 152.37 82.039 152.711 81.7945 153.104C81.55 153.497 81.3853 153.935 81.3099 154.392C81.2344 154.848 81.2496 155.315 81.3546 155.766C81.4597 156.217 81.6524 156.643 81.9219 157.019C82.1915 157.395 82.5324 157.715 82.9254 157.96L83.531 158.335C84.3247 158.829 85.282 158.988 86.1924 158.775C87.1027 158.563 87.8916 157.998 88.3853 157.204C88.8791 156.41 89.0373 155.453 88.8252 154.542C88.6131 153.632 88.0481 152.843 87.2544 152.349Z" fill="#EAFAFB"/>
<path d="M56.1521 162.075L38.927 147.986C35.3845 145.097 31.6959 151.112 35.2036 153.972L52.4287 168.061C55.9642 170.957 59.6528 164.943 56.1521 162.075Z" fill="#EAFAFB"/>
<path d="M8.97221 139.355C11.3663 135.506 5.32535 131.733 2.92428 135.596C0.5232 139.459 6.57113 143.211 8.97221 139.355Z" fill="#EAFAFB"/>
<path d="M55.0307 105.74L54.4253 105.364C54.0323 105.119 53.5949 104.955 53.1383 104.879C52.6817 104.804 52.2146 104.819 51.7638 104.924C51.3131 105.029 50.8874 105.222 50.5111 105.491C50.1349 105.761 49.8154 106.102 49.5709 106.495C49.3264 106.888 49.1617 107.326 49.0862 107.782C49.0108 108.239 49.026 108.706 49.131 109.157C49.236 109.608 49.4288 110.033 49.6983 110.41C49.9678 110.786 50.3088 111.106 50.7018 111.35L51.3073 111.726C52.101 112.22 53.0584 112.378 53.9687 112.166C54.8791 111.954 55.6679 111.389 56.1617 110.595C56.6554 109.801 56.8137 108.844 56.6016 107.933C56.3895 107.023 55.8244 106.234 55.0307 105.74Z" fill="#EAFAFB"/>
<path d="M-23.1886 215.135C-11.6324 211.421 -1.45206 204.332 6.04188 194.782C8.86054 191.239 2.79173 187.508 -0.00605392 191.023C-6.41056 199.079 -15.0482 205.067 -24.8381 208.237C-29.1322 209.629 -27.5245 216.555 -23.1886 215.135Z" fill="#EAFAFB"/>
<path d="M33.5393 188.107C42.1933 186.996 50.9686 188.844 58.4409 193.349C62.3801 195.68 66.0966 189.701 62.1644 187.362C53.0623 181.938 42.3863 179.77 31.8899 181.216C27.3661 181.801 29.0434 188.685 33.5393 188.107Z" fill="#EAFAFB"/>
<path d="M63.7659 211.329C75.0892 207.883 86.0785 201.66 87.206 188.755C87.6027 184.23 80.5038 184.008 80.1071 188.532C79.2859 197.915 70.0713 202.022 62.1234 204.437C57.7806 205.76 59.3952 212.658 63.7659 211.329Z" fill="#EAFAFB"/>
<path d="M78.6178 229.997C84.6173 231.846 89.8867 235.529 93.6854 240.528C96.511 244.141 101.682 239.338 98.8843 235.753C94.2182 229.801 87.8357 225.427 80.6013 223.224C76.2306 221.832 74.2332 228.632 78.6178 229.997Z" fill="#EAFAFB"/>
<path d="M-28.2483 252.475C-23.8407 253.561 -19.2429 253.624 -14.8072 252.659C-10.3715 251.693 -6.21554 249.726 -2.65763 246.906C0.919632 244.122 -3.94516 238.908 -7.52938 241.685C-10.1594 243.722 -13.2139 245.142 -16.4666 245.838C-19.7194 246.534 -23.0871 246.49 -26.3204 245.709C-30.7537 244.651 -32.772 251.41 -28.3039 252.475H-28.2483Z" fill="#EAFAFB"/>
<path d="M-5.09354 276.126C3.64512 275.509 12.4011 277.056 20.3997 280.63C24.5755 282.468 26.5311 275.681 22.3762 273.857C13.796 270.069 4.42427 268.42 -4.93348 269.054C-9.44333 269.361 -9.66603 276.426 -5.09354 276.126Z" fill="#EAFAFB"/>
<path d="M40.2906 258.564C52.0524 260.123 66.8556 259.434 71.0244 246.034C72.3746 241.705 65.5541 239.658 64.204 244.002C61.1278 253.879 48.5517 252.549 40.4507 251.477C35.9199 250.879 35.7808 257.944 40.2906 258.543V258.564Z" fill="#EAFAFB"/>
<path d="M12.2295 230.63C20.9456 231.446 29.3994 234.052 37.0616 238.287C41.0634 240.487 44.8076 234.514 40.785 232.301C32.0246 227.454 22.3573 224.47 12.3896 223.537C7.83799 223.099 7.68489 230.164 12.2295 230.602V230.63Z" fill="#EAFAFB"/>
<path d="M28.1734 211.015C30.5675 207.165 24.5265 203.358 22.1255 207.256C19.7244 211.154 25.7723 214.871 28.1734 211.015Z" fill="#EAFAFB"/>
<path d="M93.7339 274.191L93.1284 273.815C92.7354 273.571 92.2981 273.406 91.8414 273.33C91.3848 273.255 90.9177 273.27 90.467 273.375C90.0162 273.48 89.5905 273.673 89.2142 273.943C88.838 274.212 88.5185 274.553 88.274 274.946C88.0296 275.339 87.8648 275.777 87.7894 276.233C87.7139 276.69 87.7291 277.157 87.8341 277.608C87.9391 278.059 88.1319 278.485 88.4014 278.861C88.671 279.237 89.012 279.557 89.405 279.801L90.0105 280.177C90.4035 280.422 90.8407 280.586 91.2974 280.662C91.754 280.737 92.2211 280.722 92.6719 280.617C93.1226 280.512 93.5483 280.319 93.9245 280.05C94.3008 279.78 94.6203 279.439 94.8648 279.046C95.1093 278.653 95.274 278.216 95.3494 277.759C95.4249 277.302 95.4097 276.835 95.3047 276.384C95.1997 275.933 95.0069 275.508 94.7374 275.131C94.4678 274.755 94.1269 274.436 93.7339 274.191Z" fill="#EAFAFB"/>
<path d="M62.5756 283.915L45.3504 269.826C41.8149 266.937 38.1263 272.951 41.627 275.812L58.8522 289.901C62.3946 292.79 66.0763 286.775 62.5756 283.915Z" fill="#EAFAFB"/>
<path d="M15.4234 261.195C17.8175 257.338 11.7765 253.572 9.37545 257.429C6.97437 261.285 13.0223 265.086 15.4234 261.195Z" fill="#EAFAFB"/>
<path d="M16.69 293.675C19.0841 289.818 13.0431 286.018 10.6421 289.909C8.24097 293.8 14.2889 297.566 16.69 293.675Z" fill="#EAFAFB"/>
<path d="M-26.7515 334.186C-15.1949 330.476 -5.01411 323.389 2.47905 313.84C5.29771 310.29 -0.771109 306.559 -3.56889 310.074C-9.971 318.134 -18.6092 324.124 -28.4009 327.295C-32.702 328.687 -31.0943 335.606 -26.7584 334.186H-26.7515Z" fill="#EAFAFB"/>
<path d="M29.9628 307.199C38.6191 306.087 47.3969 307.935 54.8714 312.441C58.8106 314.766 62.527 308.793 58.5948 306.454C49.4989 301.005 38.82 298.813 28.3134 300.238C23.7827 300.823 25.4599 307.714 29.9559 307.137L29.9628 307.199Z" fill="#EAFAFB"/>
<path d="M-8.69858 395.177C0.0399208 394.562 8.79525 396.109 16.7946 399.68C20.9704 401.518 22.933 394.738 18.7781 392.907C10.197 389.122 0.825562 387.476 -8.53156 388.112C-13.0484 388.411 -13.2641 395.483 -8.69858 395.177Z" fill="#EAFAFB"/>
<path d="M36.7133 377.621C48.4751 379.174 63.2852 378.491 67.454 365.092C68.7972 360.762 61.9837 358.709 60.6336 363.059C57.5505 372.937 44.9744 371.6 36.8803 370.528C32.3496 369.93 32.2104 377.002 36.7133 377.6V377.621Z" fill="#EAFAFB"/>
<path d="M8.6591 349.661C17.375 350.477 25.8287 353.083 33.4911 357.318C37.4929 359.517 41.2372 353.545 37.2145 351.331C28.4514 346.504 18.7876 343.535 8.82612 342.609C4.27451 342.171 4.12141 349.243 8.66606 349.682L8.6591 349.661Z" fill="#EAFAFB"/>
<path d="M24.6031 330.073C26.9972 326.217 20.9562 322.416 18.5551 326.307C16.1541 330.198 22.202 333.929 24.6031 330.073Z" fill="#EAFAFB"/>
<path d="M11.8462 380.246C14.2404 376.397 8.19938 372.631 5.7983 376.488C3.39722 380.344 9.44516 384.144 11.8462 380.246Z" fill="#EAFAFB"/>
<path d="M61.4761 227.583L60.8706 227.2C60.0769 226.706 59.1195 226.548 58.2092 226.76C57.2988 226.972 56.51 227.537 56.0162 228.331C55.5225 229.125 55.3642 230.082 55.5763 230.993C55.7884 231.903 56.3535 232.692 57.1472 233.186L57.7526 233.569C58.5463 234.063 59.5037 234.221 60.414 234.009C61.3244 233.797 62.1133 233.232 62.607 232.438C63.1008 231.644 63.259 230.687 63.0469 229.776C62.8348 228.866 62.2698 228.077 61.4761 227.583Z" fill="#EAFAFB"/>
<path d="M162.634 172.544C165.028 168.688 158.987 164.922 156.593 168.778C154.199 172.635 160.24 176.435 162.634 172.544Z" fill="#EAFAFB"/>
<path d="M108.259 71.7728C112.831 68.3845 118.353 66.5193 124.043 66.4409C128.595 66.3574 128.79 59.2922 124.204 59.3757C116.686 59.4842 109.402 62.0021 103.422 66.5592C99.7821 69.2809 104.654 74.4736 108.294 71.7728H108.259Z" fill="#EAFAFB"/>
<path d="M112.755 91.2123C124.313 87.5049 134.494 80.4179 141.985 70.866C144.769 67.323 138.735 63.592 135.944 67.1072C129.544 75.1583 120.915 81.1455 111.133 84.3212C106.832 85.7133 108.44 92.6393 112.776 91.2123H112.755Z" fill="#EAFAFB"/>
<path d="M169.469 64.1903C178.125 63.0797 186.902 64.9268 194.377 69.4318C198.316 71.7636 202.033 65.7843 198.101 63.4455C188.998 58.0226 178.322 55.8553 167.826 57.2991C163.295 57.8769 164.973 64.768 169.469 64.1903Z" fill="#EAFAFB"/>
<path d="M199.694 87.4112C211.018 83.9656 222.007 77.7427 223.135 64.8375C223.531 60.306 216.432 60.0902 216.036 64.6147C215.214 73.9839 205.979 78.1047 198.052 80.5201C193.716 81.8426 195.331 88.7407 199.694 87.4112Z" fill="#EAFAFB"/>
<path d="M214.553 106.083C220.551 107.936 225.819 111.618 229.62 116.614C232.404 120.227 237.617 115.424 234.819 111.839C230.151 105.886 223.766 101.512 216.529 99.3099C212.166 97.9177 210.168 104.718 214.553 106.083Z" fill="#EAFAFB"/>
<path d="M107.653 128.559C112.061 129.646 116.659 129.709 121.094 128.744C125.53 127.779 129.686 125.811 133.244 122.99C136.828 120.206 131.956 114.992 128.372 117.769C125.742 119.807 122.688 121.226 119.435 121.921C116.181 122.617 112.814 122.57 109.581 121.786C105.155 120.735 103.129 127.494 107.597 128.559H107.653Z" fill="#EAFAFB"/>
<path d="M130.808 152.211C139.547 151.594 148.303 153.141 156.301 156.715C160.477 158.553 162.433 151.766 158.285 149.942C149.703 146.151 140.328 144.503 130.968 145.139C126.458 145.446 126.243 152.511 130.808 152.211Z" fill="#EAFAFB"/>
<path d="M176.22 134.649C187.982 136.202 202.792 135.52 206.954 122.12C208.304 117.79 201.49 115.744 200.133 120.088C197.057 129.965 184.481 128.635 176.38 127.563C171.856 126.965 171.717 134.03 176.22 134.629V134.649Z" fill="#EAFAFB"/>
<path d="M148.158 106.729C156.877 107.544 165.333 110.151 172.997 114.386C176.992 116.592 180.743 110.62 176.721 108.399C167.959 103.557 158.292 100.576 148.325 99.6426C143.767 99.2041 143.614 106.269 148.158 106.708V106.729Z" fill="#EAFAFB"/>
<path d="M164.103 87.099C166.504 83.2497 160.456 79.477 158.062 83.3402C155.667 87.2034 161.708 90.9553 164.103 87.099Z" fill="#EAFAFB"/>
<path d="M229.635 150.275L229.029 149.899C228.636 149.655 228.199 149.491 227.743 149.416C227.286 149.341 226.819 149.356 226.369 149.462C225.918 149.567 225.493 149.76 225.117 150.03C224.741 150.3 224.422 150.641 224.178 151.034C223.934 151.427 223.77 151.864 223.695 152.321C223.62 152.777 223.636 153.244 223.741 153.695C223.846 154.145 224.039 154.57 224.309 154.946C224.579 155.322 224.92 155.641 225.313 155.885L225.911 156.261C226.304 156.506 226.742 156.671 227.198 156.746C227.655 156.822 228.122 156.806 228.573 156.701C229.024 156.596 229.449 156.403 229.825 156.134C230.202 155.864 230.521 155.523 230.766 155.13C231.01 154.737 231.175 154.3 231.25 153.843C231.326 153.386 231.311 152.919 231.206 152.468C231.101 152.018 230.908 151.592 230.638 151.215C230.369 150.839 230.028 150.52 229.635 150.275Z" fill="#EAFAFB"/>
<path d="M198.511 160L181.286 145.911C177.744 143.016 174.062 149.03 177.563 151.897L194.788 165.986C198.323 168.875 202.012 162.861 198.511 160Z" fill="#EAFAFB"/>
<path d="M163.894 14.5264C175.656 16.0856 190.459 15.3965 194.628 1.99706C195.978 -2.33254 189.158 -4.37901 187.807 -0.0354955C184.731 9.84183 172.155 8.51231 164.054 7.44036C159.523 6.84173 159.384 13.9139 163.894 14.5056V14.5264Z" fill="#EAFAFB"/>
<path d="M186.179 39.9048L168.954 25.8163C165.418 22.9276 161.73 28.9416 165.231 31.8025L182.456 45.8911C185.998 48.7867 189.68 42.7726 186.179 39.9048Z" fill="#EAFAFB"/>
<path d="M151.353 137.28C153.747 133.424 147.706 129.658 145.305 133.515C142.904 137.371 148.952 141.137 151.353 137.28Z" fill="#EAFAFB"/>
<path d="M114.647 158.935C117.041 155.078 111 151.313 108.599 155.169C106.198 159.025 112.246 162.791 114.647 158.935Z" fill="#EAFAFB"/>
<path d="M100.888 345.483C103.282 341.633 97.234 337.868 94.8399 341.724C92.4458 345.58 98.4867 349.339 100.888 345.483Z" fill="#EAFAFB"/>
<path d="M69.0475 325.178C77.786 324.564 86.5413 326.111 94.5407 329.682C98.7164 331.519 100.679 324.733 96.5242 322.909C87.9443 319.12 78.5719 317.474 69.2145 318.113C64.6977 318.412 64.482 325.485 69.0475 325.178Z" fill="#EAFAFB"/>
<path d="M154.86 322.583C163.599 321.966 172.355 323.512 180.353 327.087C184.529 328.924 186.484 322.138 182.337 320.314C173.754 316.526 164.38 314.878 155.02 315.511C150.51 315.817 150.294 322.882 154.86 322.583Z" fill="#EAFAFB"/>
<path d="M114.459 307.617C126.221 309.176 141.031 308.494 145.2 295.088C146.543 290.751 139.73 288.705 138.38 293.048C135.297 302.932 122.72 301.596 114.626 300.524C110.096 299.925 109.956 306.997 114.459 307.589V307.617Z" fill="#EAFAFB"/>
<path d="M136.751 332.954L119.526 318.865C115.991 315.976 112.302 321.99 115.803 324.851L133.028 338.94C136.563 341.836 140.252 335.822 136.751 332.954Z" fill="#EAFAFB"/>
<path d="M89.5929 310.247C91.987 306.398 85.946 302.59 83.5449 306.488C81.1438 310.386 87.1987 314.103 89.5929 310.247Z" fill="#EAFAFB"/>
<path d="M128.19 107.099C130.585 103.25 124.544 99.477 122.143 103.34C119.742 107.203 125.796 110.955 128.19 107.099Z" fill="#EAFAFB"/>
<path d="M197.432 103.66L196.827 103.284C196.434 103.039 195.996 102.875 195.54 102.799C195.083 102.724 194.616 102.739 194.165 102.844C193.714 102.949 193.289 103.142 192.912 103.411C192.536 103.681 192.217 104.022 191.972 104.415C191.728 104.808 191.563 105.245 191.488 105.702C191.412 106.159 191.427 106.626 191.532 107.077C191.637 107.528 191.83 107.953 192.1 108.33C192.369 108.706 192.71 109.026 193.103 109.27L193.709 109.646C194.502 110.14 195.46 110.298 196.37 110.086C197.28 109.874 198.069 109.309 198.563 108.515C199.057 107.721 199.215 106.764 199.003 105.853C198.791 104.943 198.226 104.154 197.432 103.66Z" fill="#EAFAFB"/>
<path d="M114.71 193.614C119.278 190.222 124.799 188.356 130.488 188.282C135.039 188.198 135.241 181.126 130.655 181.21C123.135 181.324 115.85 183.844 109.866 188.4C106.233 191.122 111.105 196.315 114.738 193.614H114.71Z" fill="#EAFAFB"/>
<path d="M119.206 213.055C130.763 209.346 140.944 202.259 148.436 192.709C151.22 189.159 145.186 185.428 142.388 188.943C135.986 197.003 127.348 202.993 117.556 206.164C113.262 207.556 114.87 214.475 119.206 213.055Z" fill="#EAFAFB"/>
<path d="M175.92 186.034C184.574 184.923 193.349 186.77 200.821 191.275C204.761 193.6 208.477 187.621 204.545 185.289C195.447 179.858 184.774 177.683 174.277 179.122C169.747 179.706 171.424 186.598 175.92 186.02V186.034Z" fill="#EAFAFB"/>
<path d="M206.146 209.254C217.469 205.808 228.458 199.585 229.586 186.68C229.983 182.149 222.884 181.933 222.487 186.451C221.666 195.827 212.43 199.947 204.503 202.363C200.16 203.678 201.775 210.583 206.146 209.254Z" fill="#EAFAFB"/>
<path d="M220.998 227.923C227 229.771 232.272 233.454 236.072 238.454C238.891 242.067 244.062 237.264 241.264 233.679C236.602 227.723 230.218 223.349 222.981 221.15C218.611 219.758 216.613 226.551 220.998 227.923Z" fill="#EAFAFB"/>
<path d="M114.133 250.399C118.54 251.485 123.138 251.548 127.574 250.583C132.009 249.618 136.165 247.65 139.723 244.831C143.301 242.046 138.436 236.826 134.852 239.61C132.222 241.648 129.167 243.067 125.914 243.762C122.661 244.457 119.293 244.411 116.06 243.626C111.627 242.568 109.609 249.334 114.077 250.399H114.133Z" fill="#EAFAFB"/>
<path d="M137.259 274.046C145.997 273.432 154.753 274.979 162.752 278.549C166.928 280.387 168.884 273.607 164.729 271.776C156.149 267.987 146.776 266.341 137.419 266.98C132.909 267.28 132.686 274.352 137.259 274.046Z" fill="#EAFAFB"/>
<path d="M182.671 256.49C194.433 258.042 209.236 257.36 213.405 243.961C214.755 239.631 207.935 237.578 206.585 241.921C203.509 251.805 190.933 250.469 182.832 249.397C178.301 248.798 178.162 255.871 182.671 256.469V256.49Z" fill="#EAFAFB"/>
<path d="M154.609 228.542C163.326 229.357 171.779 231.964 179.441 236.199C183.443 238.399 187.194 232.426 183.165 230.213C174.403 225.369 164.737 222.386 154.77 221.449C150.218 221.011 150.065 228.083 154.609 228.521V228.542Z" fill="#EAFAFB"/>
<path d="M170.554 208.94C172.948 205.084 166.907 201.283 164.506 205.175C162.105 209.066 168.153 212.831 170.554 208.94Z" fill="#EAFAFB"/>
<path d="M236.086 272.111L235.481 271.735C235.088 271.491 234.651 271.326 234.194 271.25C233.737 271.175 233.27 271.19 232.819 271.295C232.369 271.4 231.943 271.593 231.567 271.862C231.191 272.132 230.871 272.473 230.627 272.866C230.382 273.259 230.217 273.697 230.142 274.153C230.066 274.61 230.082 275.077 230.187 275.528C230.292 275.979 230.484 276.405 230.754 276.781C231.024 277.157 231.364 277.477 231.757 277.721L232.363 278.097C233.157 278.591 234.114 278.749 235.024 278.537C235.935 278.325 236.724 277.76 237.217 276.966C237.711 276.172 237.869 275.215 237.657 274.304C237.445 273.394 236.88 272.605 236.086 272.111Z" fill="#EAFAFB"/>
<path d="M204.955 281.842L187.73 267.753C184.195 264.857 180.506 270.871 184.007 273.739L201.239 287.828C204.774 290.717 208.463 284.702 204.955 281.842Z" fill="#EAFAFB"/>
<path d="M157.804 259.114C160.198 255.264 154.157 251.498 151.756 255.355C149.355 259.211 155.403 263.012 157.804 259.114Z" fill="#EAFAFB"/>
<path d="M134.642 228.938C137.036 225.082 130.995 221.282 128.594 225.173C126.193 229.064 132.241 232.829 134.642 228.938Z" fill="#EAFAFB"/>
<path d="M203.856 225.5L203.251 225.124C202.457 224.631 201.5 224.474 200.591 224.686C199.681 224.899 198.893 225.465 198.4 226.258C197.907 227.052 197.75 228.009 197.963 228.919C198.175 229.829 198.741 230.617 199.535 231.11L200.133 231.486C200.927 231.98 201.884 232.138 202.794 231.926C203.705 231.714 204.494 231.149 204.987 230.355C205.481 229.561 205.639 228.603 205.427 227.693C205.215 226.782 204.65 225.994 203.856 225.5Z" fill="#EAFAFB"/>
<path d="M297.31 202.216C299.704 206.065 293.663 209.831 291.262 205.975C288.861 202.119 294.909 198.318 297.31 202.216Z" fill="#EAFAFB"/>
<path d="M242.921 302.981C247.484 306.367 252.996 308.232 258.678 308.313C263.229 308.396 263.424 315.469 258.838 315.378C251.321 315.27 244.036 312.752 238.056 308.195C234.416 305.473 239.295 300.28 242.893 302.981H242.921Z" fill="#EAFAFB"/>
<path d="M247.416 283.533C258.973 287.243 269.154 294.329 276.647 303.879C279.466 307.429 273.397 311.16 270.599 307.645C264.197 299.585 255.559 293.594 245.767 290.424C241.473 289.032 243.074 282.113 247.41 283.533H247.416Z" fill="#EAFAFB"/>
<path d="M242.35 246.195C246.756 245.108 251.353 245.045 255.788 246.01C260.222 246.975 264.377 248.943 267.934 251.763C271.518 254.548 266.653 259.768 263.062 256.984C260.431 254.948 257.377 253.529 254.124 252.834C250.871 252.139 247.504 252.185 244.271 252.968C239.844 254.026 237.819 247.26 242.294 246.195H242.35Z" fill="#EAFAFB"/>
<path d="M265.47 222.549C274.209 223.163 282.964 221.616 290.964 218.045C295.139 216.208 297.102 222.987 292.947 224.818C284.367 228.607 274.995 230.253 265.637 229.614C261.121 229.315 260.905 222.243 265.47 222.549Z" fill="#EAFAFB"/>
<path d="M282.827 268.045C291.543 267.229 299.997 264.623 307.659 260.389C311.661 258.189 315.405 264.161 311.383 266.375C302.621 271.218 292.954 274.201 282.987 275.139C278.436 275.577 278.283 268.505 282.827 268.066V268.045Z" fill="#EAFAFB"/>
<path d="M298.772 287.654C301.166 291.51 295.125 295.311 292.724 291.419C290.323 287.528 296.371 283.763 298.772 287.654Z" fill="#EAFAFB"/>
<path d="M293.315 338.522C302.031 337.706 310.485 335.099 318.147 330.865C322.149 328.666 325.894 334.638 321.871 336.851C313.11 341.697 303.443 344.681 293.476 345.615C288.924 346.054 288.771 338.988 293.315 338.55V338.522Z" fill="#EAFAFB"/>
<path d="M309.26 358.158C311.654 362.007 305.613 365.78 303.212 361.917C300.811 358.054 306.859 354.302 309.26 358.158Z" fill="#EAFAFB"/>
<path d="M286.015 237.48C288.409 241.329 282.368 245.095 279.974 241.239C277.58 237.382 283.621 233.582 286.015 237.48Z" fill="#EAFAFB"/>
<path d="M262.853 267.654C265.247 271.51 259.199 275.276 256.805 271.413C254.411 267.55 260.452 263.798 262.853 267.654Z" fill="#EAFAFB"/>
<path d="M201.97 380.983C206.54 384.377 212.063 386.245 217.754 386.322C222.299 386.405 222.501 393.471 217.915 393.387C210.395 393.278 203.109 390.76 197.126 386.203C193.493 383.475 198.365 378.282 201.998 380.983H201.97Z" fill="#EAFAFB"/>
<path d="M206.48 361.535C218.037 365.248 228.218 372.337 235.711 381.889C238.494 385.432 232.46 389.163 229.663 385.647C223.256 377.595 214.615 371.614 204.824 368.454C200.523 367.062 202.13 360.101 206.466 361.556L206.48 361.535Z" fill="#EAFAFB"/>
<path d="M201.392 324.19C205.8 323.106 210.397 323.044 214.833 324.009C219.268 324.974 223.424 326.941 226.983 329.759C230.567 332.543 225.696 337.757 222.111 334.98C219.481 332.943 216.427 331.523 213.174 330.827C209.921 330.131 206.554 330.175 203.32 330.956C198.887 332.014 196.869 325.255 201.337 324.184L201.392 324.19Z" fill="#EAFAFB"/>
<path d="M241.87 346.047C250.588 345.228 259.043 342.621 266.709 338.391C270.704 336.191 274.455 342.163 270.426 344.377C261.665 349.224 251.998 352.207 242.03 353.14C237.479 353.579 237.326 346.514 241.87 346.075V346.047Z" fill="#EAFAFB"/>
<path d="M257.815 365.67C260.209 369.52 254.168 373.286 251.774 369.429C249.379 365.573 255.42 361.814 257.815 365.67Z" fill="#EAFAFB"/>
<path d="M174.556 349.152C176.95 353.008 170.902 356.809 168.508 352.918C166.114 349.027 172.155 345.296 174.556 349.152Z" fill="#EAFAFB"/>
<path d="M221.903 345.658C224.297 349.507 218.256 353.273 215.855 349.417C213.454 345.56 219.502 341.795 221.903 345.658Z" fill="#EAFAFB"/>
<path d="M249.372 181.139C253.943 184.531 259.466 186.397 265.157 186.471C269.708 186.555 269.903 193.627 265.317 193.543C257.8 193.431 250.517 190.914 244.535 186.36C240.895 183.631 245.767 178.438 249.407 181.139H249.372Z" fill="#EAFAFB"/>
<path d="M253.869 161.718C265.427 165.428 275.608 172.518 283.099 182.072C285.918 185.615 279.849 189.346 277.058 185.83C270.653 177.774 262.016 171.784 252.226 168.609C247.925 167.217 249.533 160.298 253.869 161.718Z" fill="#EAFAFB"/>
<path d="M248.795 124.353C253.202 123.268 257.8 123.205 262.235 124.171C266.671 125.136 270.827 127.103 274.385 129.922C277.97 132.706 273.098 137.92 269.514 135.135C266.883 133.099 263.829 131.681 260.576 130.986C257.323 130.29 253.955 130.336 250.723 131.119C246.296 132.177 244.271 125.418 248.739 124.346L248.795 124.353Z" fill="#EAFAFB"/>
<path d="M271.901 100.709C280.64 101.326 289.396 99.7796 297.394 96.2052C301.57 94.3675 303.525 101.154 299.378 102.978C290.795 106.767 281.421 108.413 272.061 107.774C267.551 107.475 267.335 100.403 271.901 100.709Z" fill="#EAFAFB"/>
<path d="M289.299 146.212C298.017 145.393 306.472 142.786 314.138 138.555C318.133 136.355 321.884 142.327 317.862 144.541C309.101 149.386 299.434 152.369 289.466 153.305C284.915 153.743 284.755 146.678 289.299 146.239V146.212Z" fill="#EAFAFB"/>
<path d="M305.217 165.82C307.618 169.669 301.57 173.435 299.176 169.579C296.782 165.723 302.823 161.957 305.217 165.82Z" fill="#EAFAFB"/>
<path d="M334.308 216.138C345.866 219.849 356.048 226.938 363.539 236.491C366.322 240.035 360.288 243.765 357.491 240.25C351.087 232.193 342.449 226.203 332.659 223.029C328.358 221.637 329.965 214.718 334.301 216.138H334.308Z" fill="#EAFAFB"/>
<path d="M329.234 178.794C333.642 177.708 338.24 177.644 342.675 178.61C347.111 179.575 351.267 181.543 354.825 184.363C358.409 187.147 353.537 192.361 349.953 189.577C347.322 187.542 344.267 186.124 341.015 185.429C337.762 184.734 334.395 184.779 331.162 185.56C326.736 186.618 324.71 179.853 329.179 178.788L329.234 178.794Z" fill="#EAFAFB"/>
<path d="M330.215 315.6C341.773 319.307 351.955 326.394 359.446 335.946C362.23 339.496 356.195 343.227 353.398 339.712C346.995 331.66 338.36 325.677 328.573 322.512C324.272 321.12 325.879 314.201 330.215 315.621V315.6Z" fill="#EAFAFB"/>
<path d="M325.142 278.256C329.55 277.17 334.148 277.108 338.583 278.073C343.019 279.038 347.175 281.005 350.733 283.824C354.317 286.608 349.445 291.829 345.861 289.045C343.232 287.007 340.177 285.588 336.924 284.893C333.671 284.197 330.303 284.244 327.07 285.028C322.637 286.086 320.619 279.321 325.087 278.256H325.142Z" fill="#EAFAFB"/>
<path d="M352.361 155.148C361.1 155.762 369.855 154.216 377.854 150.645C382.03 148.807 383.993 155.594 379.838 157.417C371.258 161.206 361.885 162.852 352.528 162.213C348.011 161.914 347.795 154.842 352.361 155.148Z" fill="#EAFAFB"/>
<path d="M336.264 113.739C340.834 117.133 346.357 119.001 352.048 119.078C356.593 119.161 356.795 126.226 352.208 126.143C344.689 126.033 337.403 123.516 331.42 118.959C327.787 116.231 332.659 111.038 336.292 113.739H336.264Z" fill="#EAFAFB"/>
<path d="M340.759 94.2969C352.318 98.007 362.499 105.096 369.99 114.65C372.774 118.193 366.74 121.924 363.949 118.409C357.547 110.342 348.91 104.343 339.117 101.16C334.816 99.7681 336.423 92.8491 340.759 94.2691V94.2969Z" fill="#EAFAFB"/>
<path d="M340.405 5.62457C351.963 9.33505 362.144 16.4243 369.635 25.9778C372.419 29.5208 366.385 33.2518 363.587 29.7366C357.183 21.679 348.546 15.6889 338.755 12.5157C334.454 11.1236 336.062 4.20457 340.398 5.62457H340.405Z" fill="#EAFAFB"/>
<path d="M292.466 115.639C294.86 119.488 288.819 123.261 286.418 119.397C284.017 115.534 290.065 111.782 292.466 115.639Z" fill="#EAFAFB"/>
<path d="M269.305 145.814C271.699 149.67 265.658 153.471 263.257 149.58C260.856 145.689 266.911 141.958 269.305 145.814Z" fill="#EAFAFB"/>
</g>
<defs>
<clipPath id="clip0_362_14454">
<rect width="360" height="400" fill="white"/>
</clipPath>
</defs>
</svg>
