<svg width="360" height="400" viewBox="0 0 360 400" fill="none" xmlns="http://www.w3.org/2000/svg">
<g clip-path="url(#clip0_362_14076)">
<path fill-rule="evenodd" clip-rule="evenodd" d="M148.295 182.386C89.0448 183.514 32.8741 209.573 -26.693 205.931C-33.3114 205.526 -33.2865 215.825 -26.693 216.228C32.9508 219.873 89.0448 193.81 148.295 192.683C154.914 192.556 154.935 182.259 148.295 182.386Z" fill="#FFEAF1"/>
<path fill-rule="evenodd" clip-rule="evenodd" d="M325.694 203.128C301.255 201.657 277.185 198.019 253.364 192.383C231.741 187.266 210.23 181.727 187.821 183.162C181.239 183.584 181.193 193.882 187.821 193.458C211.951 191.915 234.821 198.844 258.109 204.049C280.351 209.02 302.951 212.057 325.694 213.425C332.312 213.824 332.289 203.525 325.694 203.128Z" fill="#FFEAF1"/>
<path fill-rule="evenodd" clip-rule="evenodd" d="M522.139 198.575C469.369 210.446 415.329 213.998 361.45 209.316C354.849 208.743 354.887 219.043 361.45 219.613C416.227 224.373 471.241 220.57 524.876 208.503C531.339 207.049 528.604 197.121 522.139 198.575Z" fill="#FFEAF1"/>
<path fill-rule="evenodd" clip-rule="evenodd" d="M375.519 177.341C346.418 180.592 317.392 179.129 288.804 172.744C282.348 171.302 279.592 181.227 286.067 182.673C315.519 189.251 345.517 190.99 375.519 187.638C382.032 186.911 382.105 176.605 375.519 177.341Z" fill="#FFEAF1"/>
<path fill-rule="evenodd" clip-rule="evenodd" d="M243.963 241.171C193.527 231.241 141.913 232.278 91.9385 244.345C85.5004 245.899 88.2275 255.831 94.6771 254.274C142.808 242.654 192.637 241.534 241.226 251.1C247.699 252.375 250.468 242.452 243.963 241.171Z" fill="#FFEAF1"/>
<path fill-rule="evenodd" clip-rule="evenodd" d="M296.383 257.315C289.982 255.246 283.582 253.177 277.18 251.107C270.861 249.063 268.153 259.003 274.443 261.036L293.646 267.244C299.966 269.288 302.674 259.348 296.383 257.315Z" fill="#FFEAF1"/>
<path fill-rule="evenodd" clip-rule="evenodd" d="M458.405 276.149C416.931 277.409 375.552 274.722 334.615 267.927C328.133 266.85 325.344 276.77 331.876 277.856C373.721 284.802 416.005 287.735 458.405 286.446C465.016 286.244 465.045 275.948 458.405 276.149Z" fill="#FFEAF1"/>
<path fill-rule="evenodd" clip-rule="evenodd" d="M41.0134 267.179C-8.32988 268.605 -57.4699 264.083 -105.705 253.562C-112.164 252.154 -114.924 262.079 -108.441 263.493C-59.3378 274.202 -9.22741 278.927 41.0134 277.475C47.626 277.283 47.6529 266.987 41.0134 267.179Z" fill="#FFEAF1"/>
<path fill-rule="evenodd" clip-rule="evenodd" d="M83.1388 268.586H79.309C76.6164 268.586 74.0369 270.954 74.1616 273.735C74.2862 276.524 76.4227 278.883 79.309 278.883H83.1388C85.8314 278.883 88.4128 276.514 88.2881 273.735C88.1616 270.945 86.0251 268.586 83.1388 268.586Z" fill="#FFEAF1"/>
<path fill-rule="evenodd" clip-rule="evenodd" d="M20.5571 171.159C-19.3544 176.235 -60.4031 181.056 -99.3136 167.889C-105.604 165.76 -108.304 175.702 -102.05 177.819C-62.2673 191.282 -20.2711 186.649 20.5571 181.455C27.0412 180.631 27.1237 170.322 20.5571 171.159Z" fill="#FFEAF1"/>
<path fill-rule="evenodd" clip-rule="evenodd" d="M171.092 148.651C138.105 155.699 104.925 161.719 71.5671 166.709C65.037 167.687 67.812 177.61 74.3057 176.64C107.664 171.648 140.844 165.628 173.828 158.58C180.305 157.197 177.564 147.269 171.092 148.651Z" fill="#FFEAF1"/>
<path fill-rule="evenodd" clip-rule="evenodd" d="M250.354 151.045L204.403 149.776C197.773 149.592 197.779 159.888 204.403 160.073L250.354 161.342C256.981 161.526 256.978 151.228 250.354 151.045Z" fill="#FFEAF1"/>
<path fill-rule="evenodd" clip-rule="evenodd" d="M242.693 117.635C186.476 117.782 130.495 123.628 75.4466 135.016C68.9606 136.358 71.705 146.285 78.1833 144.946C132.352 133.739 187.38 128.077 242.693 127.931C249.317 127.914 249.33 117.618 242.693 117.635Z" fill="#FFEAF1"/>
<path fill-rule="evenodd" clip-rule="evenodd" d="M325.9 133.728C309.048 131.224 292.352 128.002 275.778 124.057C269.336 122.524 266.588 132.451 273.041 133.987C289.615 137.932 306.311 141.154 323.163 143.657C329.645 144.621 332.441 134.701 325.9 133.728Z" fill="#FFEAF1"/>
<path fill-rule="evenodd" clip-rule="evenodd" d="M415.008 148.553C398.197 148.99 381.721 147.437 365.303 143.76C358.847 142.316 356.091 152.241 362.566 153.691C379.865 157.563 397.28 159.312 415.008 158.85C421.623 158.677 421.648 148.38 415.008 148.553Z" fill="#FFEAF1"/>
<path fill-rule="evenodd" clip-rule="evenodd" d="M288.419 149.57C287.59 147.007 284.83 145.092 282.086 145.974L278.243 147.209C275.682 148.032 273.767 150.818 274.647 153.541C275.477 156.106 278.235 158.021 280.979 157.137L284.823 155.902C287.383 155.08 289.301 152.293 288.419 149.57Z" fill="#FFEAF1"/>
<path fill-rule="evenodd" clip-rule="evenodd" d="M341.07 152.615C336.012 151.432 330.85 150.903 325.66 151.156C319.065 151.476 319.026 161.775 325.66 161.452C329.966 161.243 334.135 161.562 338.333 162.544C344.779 164.053 347.529 154.126 341.07 152.615Z" fill="#FFEAF1"/>
<path fill-rule="evenodd" clip-rule="evenodd" d="M168.659 185.617H167.382C164.69 185.617 162.11 187.986 162.235 190.767C162.359 193.555 164.496 195.914 167.382 195.914H168.659C171.352 195.914 173.932 193.545 173.809 190.767C173.682 187.976 171.546 185.617 168.659 185.617Z" fill="#FFEAF1"/>
<path fill-rule="evenodd" clip-rule="evenodd" d="M42.3088 143.657C37.6293 144.088 32.9499 144.518 28.2704 144.95C25.5011 145.205 23.1211 147.132 23.1211 150.097C23.1211 152.684 25.4838 155.503 28.2704 155.246C32.9499 154.815 37.6293 154.385 42.3088 153.954C45.0781 153.699 47.4581 151.769 47.4581 148.806C47.4581 146.219 45.0934 143.4 42.3088 143.657Z" fill="#FFEAF1"/>
<path fill-rule="evenodd" clip-rule="evenodd" d="M19.3183 290.285H11.6605C8.96597 290.285 6.38652 292.654 6.51118 295.434C6.63584 298.223 8.77418 300.582 11.6605 300.582H19.3183C22.0109 300.582 24.5923 298.213 24.4676 295.434C24.341 292.644 22.2046 290.285 19.3183 290.285Z" fill="#FFEAF1"/>
<path fill-rule="evenodd" clip-rule="evenodd" d="M174.799 263.763C136.721 281.349 95.7109 290.931 53.7972 292.216C47.1865 292.419 47.1597 302.716 53.7972 302.512C97.6038 301.17 140.217 291.026 179.997 272.654C186.005 269.879 180.781 260.999 174.799 263.763Z" fill="#FFEAF1"/>
<path fill-rule="evenodd" clip-rule="evenodd" d="M143.071 260.029C135.825 261.231 128.58 262.434 121.334 263.636C114.814 264.718 117.579 274.643 124.073 273.565C131.317 272.362 138.562 271.16 145.808 269.957C152.33 268.876 149.565 258.951 143.071 260.029Z" fill="#FFEAF1"/>
<path fill-rule="evenodd" clip-rule="evenodd" d="M251.62 271.331C221.909 270.437 192.595 274.982 164.567 284.892C158.362 287.086 161.034 297.039 167.305 294.822C194.528 285.197 222.753 280.759 251.62 281.628C258.248 281.827 258.242 271.53 251.62 271.331Z" fill="#FFEAF1"/>
<path fill-rule="evenodd" clip-rule="evenodd" d="M457.188 301.889C386.485 303.483 317.238 279.696 246.427 287.793C239.92 288.537 239.845 298.844 246.427 298.09C317.231 289.995 386.483 313.78 457.188 312.186C463.805 312.036 463.828 301.74 457.188 301.889Z" fill="#FFEAF1"/>
<path fill-rule="evenodd" clip-rule="evenodd" d="M61.4397 249.439H58.887C56.1944 249.439 53.6131 251.808 53.7377 254.589C53.8624 257.377 56.0007 259.736 58.887 259.736H61.4397C64.1323 259.736 66.7136 257.368 66.589 254.589C66.4624 251.798 64.326 249.439 61.4397 249.439Z" fill="#FFEAF1"/>
<path fill-rule="evenodd" clip-rule="evenodd" d="M156.04 316.102C119.728 307.59 83.7595 320.071 47.2885 319.976C40.6625 319.956 40.6529 330.255 47.2885 330.272C82.6664 330.364 118.136 317.787 153.303 326.03C159.749 327.541 162.499 317.615 156.04 316.102Z" fill="#FFEAF1"/>
<path fill-rule="evenodd" clip-rule="evenodd" d="M284.881 324.141C251.009 327.31 217.236 324.907 184.185 316.812C177.75 315.235 175.004 325.164 181.448 326.742C215.351 335.044 250.121 337.689 284.881 334.438C291.423 333.826 291.486 323.524 284.881 324.141Z" fill="#FFEAF1"/>
<path fill-rule="evenodd" clip-rule="evenodd" d="M219.754 307.283C214.244 305.917 208.736 304.552 203.226 303.188C196.794 301.595 194.05 311.521 200.49 313.117C205.998 314.482 211.508 315.846 217.017 317.211C223.45 318.805 226.192 308.878 219.754 307.283Z" fill="#FFEAF1"/>
<path fill-rule="evenodd" clip-rule="evenodd" d="M325.501 318.27C324.826 315.816 321.765 313.639 319.168 314.674C314.031 316.721 308.893 318.767 303.755 320.815C301.174 321.843 299.363 324.256 300.159 327.148C300.832 329.603 303.893 331.779 306.492 330.744L321.905 324.603C324.487 323.575 326.297 321.162 325.501 318.27Z" fill="#FFEAF1"/>
<path fill-rule="evenodd" clip-rule="evenodd" d="M282.204 304.726C274.118 306 266.035 307.271 257.949 308.544C251.423 309.572 254.194 319.495 260.688 318.473C268.771 317.201 276.857 315.928 284.94 314.655C291.469 313.629 288.697 303.704 282.204 304.726Z" fill="#FFEAF1"/>
<path fill-rule="evenodd" clip-rule="evenodd" d="M168.66 303.049C162.034 303.049 162.024 313.346 168.66 313.346C175.286 313.346 175.295 303.049 168.66 303.049Z" fill="#FFEAF1"/>
<path fill-rule="evenodd" clip-rule="evenodd" d="M23.1481 311.921C15.7261 311.814 8.57462 310.709 1.45571 308.617C-4.91525 306.743 -7.6347 316.677 -1.281 318.545C6.67791 320.885 14.8535 322.099 23.1481 322.218C29.776 322.314 29.7798 312.017 23.1481 311.921Z" fill="#FFEAF1"/>
<path fill-rule="evenodd" clip-rule="evenodd" d="M235.108 353.137C204.471 348.814 174.278 342.28 144.594 333.552C138.223 331.679 135.501 341.613 141.855 343.481C171.539 352.209 201.735 358.743 232.372 363.066C238.852 363.98 241.654 354.061 235.108 353.137Z" fill="#FFEAF1"/>
<path fill-rule="evenodd" clip-rule="evenodd" d="M350.868 327.655C325.188 347.318 293.991 356.409 261.768 353.513C255.169 352.92 255.209 363.221 261.768 363.809C295.554 366.845 329.126 357.174 356.065 336.546C361.255 332.572 356.132 323.624 350.868 327.655Z" fill="#FFEAF1"/>
<path fill-rule="evenodd" clip-rule="evenodd" d="M115.05 332.406C108.424 332.406 108.415 342.703 115.05 342.703C121.676 342.703 121.686 332.406 115.05 332.406Z" fill="#FFEAF1"/>
<path fill-rule="evenodd" clip-rule="evenodd" d="M339.701 221.357H338.423C335.731 221.357 333.151 223.726 333.276 226.507C333.4 229.295 335.537 231.654 338.423 231.654H339.701C342.393 231.654 344.974 229.286 344.85 226.507C344.723 223.716 342.587 221.357 339.701 221.357Z" fill="#FFEAF1"/>
<path fill-rule="evenodd" clip-rule="evenodd" d="M34.635 177.959C28.0089 177.959 27.9974 188.256 34.635 188.256C41.261 188.256 41.2706 177.959 34.635 177.959Z" fill="#FFEAF1"/>
<path fill-rule="evenodd" clip-rule="evenodd" d="M72.4898 106.968C44.929 104.439 17.4564 106.249 -9.56552 112.194C-15.5894 113.52 -13.0387 122.765 -7.01483 121.44C19.1959 115.675 45.7748 114.105 72.4898 116.557C78.6326 117.121 78.5942 107.528 72.4898 106.968Z" fill="#FFEAF1"/>
<path fill-rule="evenodd" clip-rule="evenodd" d="M52.2713 124.954C31.4957 123.918 10.8869 125.157 -9.64132 128.467C-15.7169 129.447 -13.1394 138.689 -7.09256 137.715C12.5842 134.541 32.374 133.551 52.2713 134.543C58.4389 134.85 58.4236 125.261 52.2713 124.954Z" fill="#FFEAF1"/>
<path fill-rule="evenodd" clip-rule="evenodd" d="M92.6916 111.779H91.5026C88.996 111.779 86.593 113.985 86.7081 116.574C86.8251 119.172 88.8157 121.368 91.5026 121.368H92.6916C95.2001 121.368 97.6012 119.163 97.4862 116.574C97.3692 113.977 95.3804 111.779 92.6916 111.779Z" fill="#FFEAF1"/>
<path fill-rule="evenodd" clip-rule="evenodd" d="M393.381 127.979C366.814 121.835 340.712 114.07 315.108 104.691C309.304 102.566 306.802 111.83 312.557 113.937C338.164 123.315 364.265 131.08 390.832 137.225C396.837 138.616 399.401 129.372 393.381 127.979Z" fill="#FFEAF1"/>
<path fill-rule="evenodd" clip-rule="evenodd" d="M467.178 331.638C422.796 327.058 382.726 350.948 339.796 357.336C333.712 358.242 336.298 367.482 342.344 366.582C384.396 360.324 423.75 336.745 467.178 341.227C473.311 341.86 473.265 332.267 467.178 331.638Z" fill="#FFEAF1"/>
<path fill-rule="evenodd" clip-rule="evenodd" d="M116.5 349.953C76.4911 342.405 35.9256 338.999 -4.78178 339.902C-10.9437 340.04 -10.9648 349.629 -4.78178 349.491C35.0741 348.607 74.7746 351.81 113.952 359.199C119.983 360.338 122.566 351.098 116.5 349.953Z" fill="#FFEAF1"/>
<path fill-rule="evenodd" clip-rule="evenodd" d="M288.819 381.536C263.567 382.892 238.621 380.552 214.08 374.424C208.093 372.931 205.538 382.174 211.532 383.672C236.864 389.997 262.743 392.525 288.819 391.125C294.958 390.795 294.997 381.204 288.819 381.536Z" fill="#FFEAF1"/>
<path fill-rule="evenodd" clip-rule="evenodd" d="M389.613 369.405C364.586 377.566 338.899 382.667 312.632 384.533C306.512 384.968 306.465 394.561 312.632 394.122C339.739 392.197 366.321 387.078 392.162 378.651C398.003 376.747 395.505 367.484 389.613 369.405Z" fill="#FFEAF1"/>
<path fill-rule="evenodd" clip-rule="evenodd" d="M256.729 172.402C250.56 172.402 250.548 181.991 256.729 181.991C262.899 181.991 262.91 172.402 256.729 172.402Z" fill="#FFEAF1"/>
<path fill-rule="evenodd" clip-rule="evenodd" d="M70.2986 85.9672C3.39581 79.9318 -61.2727 109.533 -128.164 100.815C-134.264 100.021 -134.207 109.616 -128.164 110.404C-61.2497 119.124 3.40924 89.5228 70.2986 95.5562C76.4432 96.1105 76.4049 86.5176 70.2986 85.9672Z" fill="#FFEAF1"/>
<path fill-rule="evenodd" clip-rule="evenodd" d="M204.641 93.7705C170.654 98.2774 136.385 97.8459 102.558 92.1826C96.5211 91.1719 93.9263 100.41 100.01 101.428C134.714 107.239 169.747 107.987 204.641 103.36C210.671 102.56 210.75 92.9612 204.641 93.7705Z" fill="#FFEAF1"/>
<path fill-rule="evenodd" clip-rule="evenodd" d="M399.351 95.2586C372.116 90.5753 344.578 85.8115 316.837 86.617C288.969 87.4282 262.089 95.7247 234.344 97.6156C228.221 98.0318 228.175 107.625 234.344 107.205C260.86 105.398 286.576 97.6559 313.132 96.3499C341.262 94.9652 369.187 99.7578 396.802 104.504C402.837 105.544 405.43 96.3038 399.351 95.2586Z" fill="#FFEAF1"/>
<path fill-rule="evenodd" clip-rule="evenodd" d="M324.609 57.9514C275.879 68.2136 224.516 78.355 176.082 61.3479C170.248 59.2996 167.74 68.5607 173.533 70.5955C223.557 88.1588 276.825 77.7969 327.157 67.1972C333.193 65.9276 330.638 56.6818 324.609 57.9514Z" fill="#FFEAF1"/>
<path fill-rule="evenodd" clip-rule="evenodd" d="M487.454 51.0494C445.178 66.4053 399.855 70.2736 355.636 61.8851C349.606 60.7401 347.021 69.9801 353.087 71.1308C398.972 79.8377 446.079 76.2514 490.003 60.2952C495.758 58.2048 493.275 48.936 487.454 51.0494Z" fill="#FFEAF1"/>
<path fill-rule="evenodd" clip-rule="evenodd" d="M378.161 34.5605C331.184 28.7649 285.55 44.0805 239.085 47.8893C232.979 48.3898 232.925 57.9827 239.085 57.4783C285.536 53.6696 331.226 38.3578 378.161 44.1496C384.271 44.9033 384.215 35.3085 378.161 34.5605Z" fill="#FFEAF1"/>
<path fill-rule="evenodd" clip-rule="evenodd" d="M338.943 71.0508C332.773 71.0508 332.762 80.6398 338.943 80.6398C345.113 80.6398 345.124 71.0508 338.943 71.0508Z" fill="#FFEAF1"/>
<path fill-rule="evenodd" clip-rule="evenodd" d="M134.046 57.1851C102.851 48.1771 71.0424 39.3149 38.3879 38.2774C23.149 37.7922 7.74519 39.1577 -7.01043 43.1065C-23.423 47.4963 -38.3455 55.856 -54.48 61.0418C-60.3332 62.9212 -57.8304 72.1823 -51.9313 70.2876C-37.4365 65.6292 -23.9754 58.3051 -9.44029 53.781C6.04218 48.9596 22.2227 47.3525 38.3879 47.8665C70.1756 48.8771 101.133 57.6626 131.498 66.4308C137.437 68.1473 139.974 58.8977 134.046 57.1851Z" fill="#FFEAF1"/>
<path fill-rule="evenodd" clip-rule="evenodd" d="M65.6076 62.9998C37.46 55.9557 8.71011 58.6004 -17.794 70.322C-23.4247 72.8113 -18.5515 81.0771 -12.9535 78.6012C11.0863 67.9689 37.5961 65.8727 63.0589 72.2456C69.0463 73.7453 71.6008 64.4995 65.6076 62.9998Z" fill="#FFEAF1"/>
<path fill-rule="evenodd" clip-rule="evenodd" d="M159.449 78.0318C141.485 78.3233 123.69 77.0671 105.962 74.1003C99.9245 73.0915 97.3297 82.3296 103.413 83.3479C121.975 86.4548 140.624 87.9277 159.449 87.6208C165.613 87.5211 165.632 77.9321 159.449 78.0318Z" fill="#FFEAF1"/>
<path fill-rule="evenodd" clip-rule="evenodd" d="M84.5661 67.4844C78.3965 67.4844 78.385 77.0734 84.5661 77.0734C90.7357 77.0734 90.7472 67.4844 84.5661 67.4844Z" fill="#FFEAF1"/>
<path fill-rule="evenodd" clip-rule="evenodd" d="M165.33 39.565C142.838 36.859 121.807 28.7869 103.036 16.1601C97.9017 12.7061 93.0957 21.0102 98.1951 24.4412C118.474 38.0806 141.098 46.2371 165.33 49.1541C171.444 49.8905 171.39 40.2938 165.33 39.565Z" fill="#FFEAF1"/>
<path fill-rule="evenodd" clip-rule="evenodd" d="M220.064 38.7755C203.488 39.4947 188.427 35.0186 174.868 25.4525C169.817 21.8873 165.021 30.1972 170.03 33.7317C184.785 44.1454 202.025 49.149 220.064 48.3646C226.21 48.098 226.245 38.507 220.064 38.7755Z" fill="#FFEAF1"/>
<path fill-rule="evenodd" clip-rule="evenodd" d="M258.115 29.3419C244.708 28.874 231.715 26.657 218.892 22.737C212.978 20.9285 210.45 30.18 216.344 31.9828C229.972 36.1502 243.878 38.4343 258.115 38.931C264.287 39.1458 264.279 29.5567 258.115 29.3419Z" fill="#FFEAF1"/>
<path fill-rule="evenodd" clip-rule="evenodd" d="M156.9 60.5671L155.711 59.3781C153.935 57.6022 150.682 57.4699 148.931 59.3781C147.175 61.2921 147.037 64.2647 148.931 66.1594L150.118 67.3485C151.894 69.1225 155.149 69.2548 156.9 67.3485C158.657 65.4345 158.795 62.4619 156.9 60.5671Z" fill="#FFEAF1"/>
<path fill-rule="evenodd" clip-rule="evenodd" d="M66.5106 12.1958C40.5281 9.16378 14.5438 11.7528 -10.3571 19.7424C-17.382 21.9958 -14.3787 33.1095 -7.29815 30.8389C16.7224 23.1331 41.4621 20.7799 66.5106 23.7027C73.852 24.5599 73.7906 13.0454 66.5106 12.1958Z" fill="#FFEAF1"/>
<path fill-rule="evenodd" clip-rule="evenodd" d="M90.3205 25.9805H89.6205C86.6115 25.9805 83.729 28.627 83.8671 31.7339C84.0071 34.8503 86.3947 37.4873 89.6205 37.4873H90.3205C93.3295 37.4873 96.2139 34.8407 96.0739 31.7339C95.9339 28.6175 93.5462 25.9805 90.3205 25.9805Z" fill="#FFEAF1"/>
<mask id="mask0_362_14076" style="mask-type:alpha" maskUnits="userSpaceOnUse" x="-134" y="0" width="700" height="526">
<path d="M-134 0H565.593V525.474H-134" fill="white"/>
</mask>
<g mask="url(#mask0_362_14076)">
<path fill-rule="evenodd" clip-rule="evenodd" d="M153.286 16.4115C146.052 11.291 138.818 6.1685 131.582 1.04795C125.527 -3.23835 119.772 6.73425 125.775 10.9841C133.008 16.1047 140.242 21.2252 147.478 26.3477C153.533 30.634 159.288 20.6614 153.286 16.4115Z" fill="#FFEAF1"/>
</g>
<path fill-rule="evenodd" clip-rule="evenodd" d="M372.06 5.69535C352.644 8.89042 333.196 12.0989 313.538 13.3704C296.581 14.4674 277 15.9921 261.666 7.4348C255.193 3.82165 249.384 13.7559 255.858 17.371C272.175 26.4767 291.622 26.0452 309.766 25.0997C331.715 23.9548 353.461 20.3551 375.119 16.7918C382.409 15.5912 379.315 4.50056 372.06 5.69535Z" fill="#FFEAF1"/>
<path fill-rule="evenodd" clip-rule="evenodd" d="M193.721 12.2767C191.423 10.1691 187.858 10.0022 185.584 12.2767L184.886 12.9767C182.753 15.1074 182.596 19.0102 184.886 21.1121C187.181 23.2217 190.746 23.3866 193.021 21.1121L193.721 20.414C195.852 18.2814 196.011 14.3786 193.721 12.2767Z" fill="#FFEAF1"/>
<path fill-rule="evenodd" clip-rule="evenodd" d="M95.7892 216.464C70.2555 223.015 44.5933 229.016 18.8026 234.468C11.561 235.999 14.6256 247.093 21.8615 245.565C47.6522 240.112 73.3144 234.11 98.8481 227.56C106.017 225.721 102.977 214.619 95.7892 216.464Z" fill="#FFEAF1"/>
<path fill-rule="evenodd" clip-rule="evenodd" d="M207.84 208.556C207.156 208.556 206.555 208.683 205.997 208.861C205.489 208.709 204.95 208.598 204.342 208.587C186.363 208.247 168.416 208.665 150.471 209.841C143.12 210.324 143.066 221.833 150.471 221.348C168.416 220.172 186.363 219.754 204.342 220.094C205.029 220.105 205.631 219.99 206.191 219.821C206.697 219.963 207.234 220.063 207.84 220.063C215.245 220.063 215.256 208.556 207.84 208.556Z" fill="#FFEAF1"/>
<path fill-rule="evenodd" clip-rule="evenodd" d="M340.743 241.792C313.276 238.234 287.815 226.162 260.232 222.971C252.888 222.121 252.95 233.634 260.232 234.477C287.744 237.661 313.255 249.737 340.743 253.299C348.065 254.248 347.996 242.732 340.743 241.792Z" fill="#FFEAF1"/>
<path fill-rule="evenodd" clip-rule="evenodd" d="M361.736 248.428C354.331 248.428 354.319 259.935 361.736 259.935C369.14 259.935 369.152 248.428 361.736 248.428Z" fill="#FFEAF1"/>
<path fill-rule="evenodd" clip-rule="evenodd" d="M236.521 212.752C229.116 212.752 229.105 224.259 236.521 224.259C243.925 224.259 243.937 212.752 236.521 212.752Z" fill="#FFEAF1"/>
<path fill-rule="evenodd" clip-rule="evenodd" d="M119.7 216.25C112.296 216.25 112.284 227.757 119.7 227.757C127.105 227.757 127.117 216.25 119.7 216.25Z" fill="#FFEAF1"/>
<path fill-rule="evenodd" clip-rule="evenodd" d="M191.052 147.697H189.654C186.643 147.697 183.76 150.344 183.9 153.451C184.038 156.567 186.428 159.204 189.654 159.204H191.052C194.061 159.204 196.945 156.558 196.805 153.451C196.665 150.334 194.278 147.697 191.052 147.697Z" fill="#FFEAF1"/>
<path fill-rule="evenodd" clip-rule="evenodd" d="M4.27949 248.428C-3.12517 248.428 -3.13668 259.935 4.27949 259.935C11.6841 259.935 11.6957 248.428 4.27949 248.428Z" fill="#FFEAF1"/>
<path fill-rule="evenodd" clip-rule="evenodd" d="M291.783 107.125C284.379 107.125 284.367 118.632 291.783 118.632C299.188 118.632 299.2 107.125 291.783 107.125Z" fill="#FFEAF1"/>
<path fill-rule="evenodd" clip-rule="evenodd" d="M132.425 351.17H131.948C128.939 351.17 126.054 353.816 126.194 356.923C126.334 360.04 128.722 362.677 131.948 362.677H132.425C135.434 362.677 138.319 360.03 138.179 356.923C138.039 353.807 135.651 351.17 132.425 351.17Z" fill="#FFEAF1"/>
<path fill-rule="evenodd" clip-rule="evenodd" d="M192.727 369.981C179.69 368.039 166.994 362.084 154.651 357.644C147.67 355.134 144.665 366.247 151.592 368.74C163.937 373.18 176.636 379.135 189.668 381.078C196.911 382.157 200.037 371.071 192.727 369.981Z" fill="#FFEAF1"/>
</g>
<defs>
<clipPath id="clip0_362_14076">
<rect width="360" height="400" fill="white"/>
</clipPath>
</defs>
</svg>
