<svg width="360" height="400" viewBox="0 0 360 400" fill="none" xmlns="http://www.w3.org/2000/svg">
<g clip-path="url(#clip0_362_14306)">
<path d="M603.218 2.26027C576.091 2.26027 562.313 -3.95583 548.996 -9.97184C535.466 -16.0812 522.682 -21.8504 496.402 -21.8504C470.121 -21.8504 457.337 -16.0812 443.807 -9.97184C430.476 -3.96917 416.713 2.26027 389.585 2.26027C362.458 2.26027 348.688 -3.96917 335.364 -9.97184C321.834 -16.0812 309.05 -21.8504 282.769 -21.8504C256.488 -21.8504 243.705 -16.0812 230.174 -9.97184C216.844 -3.96917 203.08 2.26027 175.953 2.26027C148.826 2.26027 135.056 -3.96917 121.739 -9.97184C108.202 -16.0812 95.4177 -21.8504 69.1303 -21.8504C42.8428 -21.8504 30.079 -16.0812 16.542 -9.97184C3.21164 -3.96917 -10.5453 2.26027 -37.6726 2.26027C-64.7999 2.26027 -78.5701 -3.96917 -91.8938 -9.97184C-105.424 -16.0812 -118.208 -21.8504 -144.489 -21.8504C-145.019 -21.8504 -145.528 -22.0613 -145.903 -22.4365C-146.278 -22.8117 -146.488 -23.3207 -146.488 -23.8513C-146.488 -24.382 -146.278 -24.8909 -145.903 -25.2662C-145.528 -25.6414 -145.019 -25.8522 -144.489 -25.8522C-117.361 -25.8522 -103.585 -19.6295 -90.2675 -13.6201C-76.7372 -7.51074 -63.9534 -1.73484 -37.6726 -1.73484C-11.3918 -1.73484 1.39204 -7.51074 14.9224 -13.6201C28.2527 -19.6228 42.0163 -25.8522 69.1436 -25.8522C96.2709 -25.8522 110.041 -19.6295 123.358 -13.6201C136.895 -7.51074 149.679 -1.73484 175.953 -1.73484C202.227 -1.73484 215.018 -7.51074 228.555 -13.6201C241.885 -19.6228 255.642 -25.8522 282.769 -25.8522C309.897 -25.8522 323.673 -19.6295 336.99 -13.6201C350.521 -7.51074 363.305 -1.73484 389.585 -1.73484C415.866 -1.73484 428.65 -7.51074 442.18 -13.6201C455.511 -19.6228 469.274 -25.8522 496.402 -25.8522C523.529 -25.8522 537.299 -19.6295 550.616 -13.6201C564.153 -7.51074 576.937 -1.73484 603.218 -1.73484C629.499 -1.73484 642.276 -7.51074 655.813 -13.6201C669.143 -19.6228 682.9 -25.8522 710.027 -25.8522C710.314 -25.8995 710.607 -25.8838 710.886 -25.8064C711.166 -25.7289 711.425 -25.5915 711.646 -25.4037C711.868 -25.2158 712.045 -24.9821 712.167 -24.7186C712.289 -24.4552 712.352 -24.1683 712.352 -23.878C712.352 -23.5877 712.289 -23.3009 712.167 -23.0374C712.045 -22.774 711.868 -22.5402 711.646 -22.3524C711.425 -22.1645 711.166 -22.0271 710.886 -21.9497C710.607 -21.8722 710.314 -21.8566 710.027 -21.9038C683.753 -21.9038 670.969 -16.1346 657.432 -10.0252C644.115 -3.96917 630.338 2.26027 603.218 2.26027Z" fill="#ECF1FF"/>
<path d="M591.887 78.8078C564.759 78.8078 550.982 72.585 537.665 66.5757C524.135 60.4663 511.351 54.6904 485.07 54.6904C458.79 54.6904 446.006 60.4663 432.476 66.5757C419.145 72.5784 405.382 78.8078 378.254 78.8078C351.127 78.8078 337.357 72.585 324.033 66.5757C310.503 60.4663 297.746 54.7238 271.438 54.7238C245.131 54.7238 232.374 60.4997 218.843 66.6091C205.513 72.6117 191.749 78.8412 164.622 78.8412C137.495 78.8412 123.724 72.6184 110.407 66.6091C96.8705 60.4663 84.0867 54.7238 57.7992 54.7238C31.5117 54.7238 18.7346 60.4997 5.1976 66.6091C-8.13275 72.6117 -21.8897 78.8412 -49.017 78.8412C-76.1442 78.8412 -89.9145 72.6184 -103.238 66.6091C-116.755 60.4663 -129.539 54.7238 -155.82 54.7238C-156.35 54.7238 -156.859 54.513 -157.234 54.1377C-157.609 53.7625 -157.819 53.2535 -157.819 52.7229C-157.819 52.1922 -157.609 51.6833 -157.234 51.308C-156.859 50.9328 -156.35 50.722 -155.82 50.722C-128.693 50.722 -114.916 56.9448 -101.599 62.9541C-88.0682 69.0635 -75.2844 74.8394 -49.0036 74.8394C-22.7228 74.8394 -9.93903 69.0635 3.59129 62.9541C16.9216 56.9514 30.6852 50.722 57.8125 50.722C84.9398 50.722 98.7101 56.9448 112.027 62.9541C125.564 69.0635 138.348 74.8394 164.622 74.8394C190.896 74.8394 203.687 69.0635 217.224 62.9541C230.554 56.9514 244.311 50.722 271.438 50.722C298.565 50.722 312.342 56.9448 325.659 62.9541C339.19 69.0635 351.973 74.8394 378.254 74.8394C404.535 74.8394 417.319 69.0635 430.849 62.9541C444.18 56.9514 457.943 50.722 485.07 50.722C512.198 50.722 525.968 56.9448 539.285 62.9541C552.822 69.0635 565.606 74.8394 591.887 74.8394C618.167 74.8394 630.945 69.0635 644.482 62.9541C657.812 56.9514 671.569 50.722 698.696 50.722C698.982 50.6747 699.275 50.6904 699.555 50.7678C699.835 50.8453 700.094 50.9827 700.315 51.1706C700.536 51.3584 700.714 51.5922 700.836 51.8556C700.958 52.1191 701.021 52.4059 701.021 52.6962C701.021 52.9865 700.958 53.2733 700.836 53.5368C700.714 53.8003 700.536 54.034 700.315 54.2218C700.094 54.4097 699.835 54.5471 699.555 54.6246C699.275 54.702 698.982 54.7177 698.696 54.6704C672.422 54.6704 659.638 60.4463 646.101 66.5557C632.784 72.585 619.007 78.8078 591.887 78.8078Z" fill="#ECF1FF"/>
<path d="M565.686 140.096C538.558 140.096 524.788 133.88 511.471 127.864C497.934 121.755 485.15 115.985 458.87 115.985C432.589 115.985 419.812 121.755 406.275 127.864C392.944 133.867 379.187 140.096 352.06 140.096C324.933 140.096 311.156 133.88 297.839 127.864C284.302 121.755 271.518 115.985 245.244 115.985C218.97 115.985 206.179 121.755 192.642 127.864C179.312 133.867 165.555 140.096 138.428 140.096C111.3 140.096 97.5302 133.88 84.2065 127.864C70.6761 121.755 57.8923 115.985 31.6115 115.985C5.33072 115.985 -7.45308 121.755 -20.9834 127.864C-34.3138 133.867 -48.0707 140.096 -75.2046 140.096C-102.339 140.096 -116.102 133.88 -129.419 127.864C-142.956 121.755 -155.733 115.985 -182.014 115.985C-182.544 115.985 -183.053 115.775 -183.428 115.399C-183.803 115.024 -184.014 114.515 -184.014 113.985C-184.014 113.454 -183.803 112.945 -183.428 112.57C-183.053 112.195 -182.544 111.984 -182.014 111.984C-154.887 111.984 -141.117 118.206 -127.8 124.216C-114.263 130.325 -101.479 136.101 -75.2046 136.101C-48.9305 136.101 -36.14 130.325 -22.603 124.216C-9.27267 118.213 4.48424 111.984 31.6115 111.984C58.7388 111.984 72.5091 118.206 85.8328 124.216C99.3631 130.325 112.147 136.101 138.428 136.101C164.708 136.101 177.492 130.325 191.023 124.216C204.353 118.213 218.117 111.984 245.244 111.984C272.371 111.984 286.141 118.206 299.458 124.216C312.995 130.325 325.779 136.101 352.06 136.101C378.341 136.101 391.118 130.325 404.655 124.216C417.985 118.213 431.742 111.984 458.87 111.984C485.997 111.984 499.774 118.206 513.091 124.216C526.621 130.325 539.405 136.101 565.686 136.101C591.966 136.101 604.75 130.325 618.281 124.216C631.611 118.213 645.375 111.984 672.502 111.984C672.788 111.936 673.081 111.952 673.361 112.03C673.64 112.107 673.9 112.244 674.121 112.432C674.342 112.62 674.52 112.854 674.642 113.117C674.764 113.381 674.827 113.668 674.827 113.958C674.827 114.248 674.764 114.535 674.642 114.799C674.52 115.062 674.342 115.296 674.121 115.484C673.9 115.671 673.64 115.809 673.361 115.886C673.081 115.964 672.788 115.979 672.502 115.932C646.221 115.932 633.437 121.701 619.907 127.811C606.577 133.9 592.8 140.096 565.686 140.096Z" fill="#ECF1FF"/>
<path d="M603.218 50.7246C576.091 50.7246 562.313 44.5085 548.996 38.4992C535.466 32.3831 522.682 26.6139 496.402 26.6139C470.121 26.6139 457.337 32.3831 443.807 38.4992C430.476 44.5019 416.713 50.7246 389.585 50.7246C362.458 50.7246 348.688 44.5085 335.364 38.4992C321.834 32.3831 309.05 26.6139 282.769 26.6139C256.488 26.6139 243.705 32.3831 230.174 38.4992C216.844 44.5019 203.08 50.7246 175.953 50.7246C148.826 50.7246 135.056 44.5085 121.739 38.4992C108.202 32.3831 95.4177 26.6139 69.1436 26.6139C42.8694 26.6139 30.079 32.3831 16.542 38.4992C3.21164 44.5019 -10.5453 50.7246 -37.6726 50.7246C-64.7999 50.7246 -78.5701 44.5285 -91.8938 38.5192C-105.424 32.4032 -118.208 26.6339 -144.489 26.6339C-145.019 26.6339 -145.528 26.4231 -145.903 26.0479C-146.278 25.6726 -146.488 25.1637 -146.488 24.633C-146.488 24.1024 -146.278 23.5934 -145.903 23.2182C-145.528 22.843 -145.019 22.6321 -144.489 22.6321C-117.361 22.6321 -103.585 28.8549 -90.2675 34.8643C-76.7372 40.9736 -63.9534 46.7495 -37.6726 46.7495C-11.3918 46.7495 1.39204 40.9736 14.9224 34.8643C28.2527 28.8616 42.0163 22.6321 69.1436 22.6321C96.2709 22.6321 110.041 28.8549 123.358 34.8643C136.895 40.9736 149.679 46.7495 175.953 46.7495C202.227 46.7495 215.018 40.9736 228.555 34.8643C241.885 28.8616 255.642 22.6321 282.769 22.6321C309.897 22.6321 323.673 28.8549 336.99 34.8643C350.521 40.9736 363.305 46.7495 389.585 46.7495C415.866 46.7495 428.65 40.9736 442.18 34.8643C455.511 28.8616 469.274 22.6321 496.402 22.6321C523.529 22.6321 537.299 28.8549 550.616 34.8643C564.153 40.9736 576.937 46.7495 603.218 46.7495C629.499 46.7495 642.276 40.9736 655.813 34.8643C669.143 28.8616 682.9 22.6321 710.027 22.6321C710.314 22.5849 710.607 22.6005 710.886 22.678C711.166 22.7555 711.425 22.8929 711.646 23.0807C711.868 23.2685 712.045 23.5023 712.167 23.7658C712.289 24.0292 712.352 24.316 712.352 24.6064C712.352 24.8967 712.289 25.1835 712.167 25.447C712.045 25.7104 711.868 25.9442 711.646 26.132C711.425 26.3198 711.166 26.4573 710.886 26.5347C710.607 26.6122 710.314 26.6278 710.027 26.5806C683.753 26.5806 670.969 32.3498 657.432 38.4658C644.115 44.5285 630.338 50.7246 603.218 50.7246Z" fill="#ECF1FF"/>
<path d="M577.683 22.7095C550.555 22.7095 536.779 16.4934 523.461 10.4841C509.931 4.368 497.147 -1.40123 470.867 -1.40123C444.586 -1.40123 431.802 4.368 418.272 10.4841C404.941 16.4867 391.178 22.7095 364.05 22.7095C336.923 22.7095 323.153 16.4934 309.836 10.4841C296.299 4.368 283.515 -1.40123 257.234 -1.40123C230.953 -1.40123 218.176 4.368 204.639 10.4841C191.309 16.4867 177.552 22.7095 150.425 22.7095C123.297 22.7095 109.521 16.4934 96.2035 10.4841C82.6732 4.368 69.8894 -1.40123 43.6086 -1.40123C17.3278 -1.40123 4.54398 4.368 -8.98633 10.4841C-22.3167 16.4867 -36.0803 22.7095 -63.2076 22.7095C-90.3348 22.7095 -104.105 16.4934 -117.422 10.4841C-130.959 4.368 -143.743 -1.40123 -170.017 -1.40123C-170.547 -1.40123 -171.056 -1.61204 -171.431 -1.98728C-171.806 -2.36251 -172.017 -2.87145 -172.017 -3.40212C-172.017 -3.93279 -171.806 -4.44172 -171.431 -4.81696C-171.056 -5.1922 -170.547 -5.40301 -170.017 -5.40301C-142.89 -5.40301 -129.12 0.81976 -115.802 6.8291C-102.266 12.9385 -89.4884 18.7144 -63.2076 18.7144C-36.9268 18.7144 -24.1429 12.9385 -10.6126 6.8291C2.71773 0.82643 16.4813 -5.40301 43.6086 -5.40301C70.7359 -5.40301 84.5061 0.81976 97.8231 6.8291C111.36 12.9385 124.144 18.7144 150.425 18.7144C176.706 18.7144 189.483 12.9385 203.02 6.8291C216.35 0.82643 230.107 -5.40301 257.234 -5.40301C284.361 -5.40301 298.138 0.81976 311.455 6.8291C324.986 12.9385 337.77 18.7144 364.05 18.7144C390.331 18.7144 403.115 12.9385 416.645 6.8291C429.976 0.82643 443.739 -5.40301 470.867 -5.40301C497.994 -5.40301 511.764 0.81976 525.088 6.8291C538.618 12.9385 551.402 18.7144 577.683 18.7144C603.964 18.7144 616.747 12.9385 630.278 6.8291C643.608 0.82643 657.372 -5.40301 684.499 -5.40301C684.785 -5.45026 685.078 -5.43461 685.358 -5.35715C685.637 -5.27969 685.897 -5.14227 686.118 -4.95443C686.339 -4.7666 686.517 -4.53285 686.639 -4.2694C686.761 -4.00595 686.824 -3.71911 686.824 -3.4288C686.824 -3.13849 686.761 -2.85165 686.639 -2.5882C686.517 -2.32475 686.339 -2.09099 686.118 -1.90316C685.897 -1.71532 685.637 -1.57791 685.358 -1.50045C685.078 -1.42299 684.785 -1.40734 684.499 -1.45459C658.218 -1.45459 645.434 4.31464 631.897 10.4307C618.574 16.4667 604.803 22.7095 577.683 22.7095Z" fill="#ECF1FF"/>
<path d="M593.013 108.268C565.885 108.268 552.109 102.052 538.792 96.036C525.261 89.9266 512.477 84.1574 486.196 84.1574C459.916 84.1574 447.132 89.9266 433.602 96.036C420.271 102.039 406.508 108.268 379.38 108.268C352.253 108.268 338.483 102.052 325.166 96.036C311.629 89.9266 298.845 84.1574 272.564 84.1574C246.283 84.1574 233.506 89.9266 219.969 96.036C206.639 102.039 192.882 108.268 165.755 108.268C138.627 108.268 124.85 102.052 111.533 96.036C98.0031 89.9266 85.2193 84.1574 58.9385 84.1574C32.6577 84.1574 19.8739 89.9266 6.34358 96.036C-6.98677 102.039 -20.7504 108.268 -47.8776 108.268C-75.0049 108.268 -88.7819 102.079 -102.099 96.036C-115.636 89.9266 -128.42 84.1574 -154.694 84.1574C-155.224 84.1574 -155.733 83.9466 -156.108 83.5713C-156.483 83.1961 -156.693 82.6871 -156.693 82.1565C-156.693 81.6258 -156.483 81.1169 -156.108 80.7416C-155.733 80.3664 -155.224 80.1556 -154.694 80.1556C-127.567 80.1556 -113.796 86.3717 -100.479 92.3877C-86.9423 98.4971 -74.1651 104.266 -47.8843 104.266C-21.6035 104.266 -8.81969 98.4971 4.71062 92.3877C18.041 86.385 31.8046 80.1556 58.9319 80.1556C86.0591 80.1556 99.8294 86.3717 113.146 92.3877C126.683 98.4971 139.467 104.266 165.748 104.266C192.029 104.266 204.806 98.4971 218.343 92.3877C231.673 86.385 245.43 80.1556 272.558 80.1556C299.685 80.1556 313.462 86.3717 326.779 92.3877C340.309 98.4971 353.093 104.266 379.374 104.266C405.654 104.266 418.438 98.4971 431.969 92.3877C445.299 86.385 459.063 80.1556 486.19 80.1556C513.317 80.1556 527.087 86.3717 540.411 92.3877C553.941 98.4971 566.725 104.266 593.006 104.266C619.287 104.266 632.071 98.4971 645.601 92.3877C658.931 86.385 672.695 80.1556 699.822 80.1556C700.108 80.1083 700.402 80.124 700.681 80.2014C700.961 80.2789 701.22 80.4163 701.441 80.6041C701.663 80.792 701.84 81.0257 701.962 81.2892C702.084 81.5526 702.147 81.8395 702.147 82.1298C702.147 82.4201 702.084 82.7069 701.962 82.9704C701.84 83.2338 701.663 83.4676 701.441 83.6554C701.22 83.8433 700.961 83.9807 700.681 84.0581C700.402 84.1356 700.108 84.1513 699.822 84.104C673.541 84.104 660.758 89.8732 647.221 95.9826C633.904 102.079 620.133 108.268 593.013 108.268Z" fill="#ECF1FF"/>
<path d="M603.218 165.814C576.091 165.814 562.313 159.592 548.996 153.582C535.466 147.466 522.682 141.697 496.402 141.697C470.121 141.697 457.337 147.466 443.807 153.582C430.476 159.585 416.713 165.814 389.585 165.814C362.458 165.814 348.688 159.592 335.364 153.582C321.834 147.466 309.05 141.697 282.769 141.697C256.488 141.697 243.705 147.466 230.174 153.582C216.844 159.585 203.08 165.814 175.953 165.814C148.826 165.814 135.056 159.592 121.739 153.582C108.202 147.466 95.4177 141.697 69.1436 141.697C42.8694 141.697 30.079 147.466 16.542 153.582C3.21164 159.585 -10.5453 165.814 -37.6726 165.814C-64.7999 165.814 -78.5701 159.592 -91.8938 153.582C-105.424 147.466 -118.208 141.697 -144.489 141.697C-145.019 141.697 -145.528 141.486 -145.903 141.111C-146.278 140.736 -146.488 140.227 -146.488 139.696C-146.488 139.166 -146.278 138.657 -145.903 138.281C-145.528 137.906 -145.019 137.695 -144.489 137.695C-117.361 137.695 -103.585 143.918 -90.2675 149.927C-76.7372 156.037 -63.9534 161.813 -37.6726 161.813C-11.3918 161.813 1.39204 156.037 14.9224 149.927C28.2527 143.925 42.0163 137.695 69.1436 137.695C96.2709 137.695 110.041 143.918 123.358 149.927C136.895 156.037 149.679 161.813 175.953 161.813C202.227 161.813 215.018 156.037 228.555 149.927C241.885 143.925 255.642 137.695 282.769 137.695C309.897 137.695 323.673 143.918 336.99 149.927C350.521 156.037 363.305 161.813 389.585 161.813C415.866 161.813 428.65 156.104 442.18 149.981C455.511 143.978 469.274 137.749 496.402 137.749C523.529 137.749 537.299 143.971 550.616 149.981C564.153 156.09 576.937 161.866 603.218 161.866C629.499 161.866 642.276 156.09 655.813 149.981C669.143 143.978 682.9 137.749 710.027 137.749C710.314 137.701 710.607 137.717 710.886 137.795C711.166 137.872 711.425 138.009 711.646 138.197C711.868 138.385 712.045 138.619 712.167 138.882C712.289 139.146 712.352 139.433 712.352 139.723C712.352 140.013 712.289 140.3 712.167 140.563C712.045 140.827 711.868 141.061 711.646 141.249C711.425 141.436 711.166 141.574 710.886 141.651C710.607 141.729 710.314 141.744 710.027 141.697C683.753 141.697 670.969 147.466 657.432 153.582C644.115 159.592 630.338 165.814 603.218 165.814Z" fill="#ECF1FF"/>
<path d="M577.683 186.237C550.555 186.237 536.778 180.015 523.461 174.005C509.931 167.896 497.147 162.12 470.866 162.12C444.586 162.12 431.802 167.896 418.271 174.005C404.941 180.008 391.177 186.237 364.05 186.237C336.923 186.237 323.153 180.015 309.836 174.005C296.292 167.896 283.508 162.107 257.227 162.107C230.947 162.107 218.169 167.882 204.632 173.992C191.302 179.995 177.545 186.224 150.418 186.224C123.291 186.224 109.514 180.001 96.1967 173.992C82.6664 167.896 69.8826 162.107 43.6018 162.107C17.321 162.107 4.53716 167.882 -8.99316 173.992C-22.3235 179.995 -36.0871 186.224 -63.2144 186.224C-90.3417 186.224 -104.112 180.001 -117.429 173.992C-130.966 167.896 -143.75 162.107 -170.024 162.107C-170.554 162.107 -171.063 161.896 -171.438 161.521C-171.813 161.145 -172.023 160.636 -172.023 160.106C-172.023 159.575 -171.813 159.066 -171.438 158.691C-171.063 158.316 -170.554 158.105 -170.024 158.105C-142.897 158.105 -129.126 164.328 -115.809 170.337C-102.272 176.453 -89.4952 182.222 -63.2144 182.222C-36.9336 182.222 -24.1498 176.453 -10.6195 170.337C2.71091 164.334 16.4745 158.105 43.6018 158.105C70.7291 158.105 84.4993 164.328 97.8163 170.337C111.353 176.453 124.137 182.222 150.418 182.222C176.699 182.222 189.476 176.453 203.013 170.337C216.343 164.334 230.1 158.105 257.227 158.105C284.355 158.105 298.132 164.328 311.449 170.337C324.979 176.453 337.763 182.222 364.044 182.222C390.324 182.222 403.108 176.453 416.639 170.337C429.969 164.334 443.732 158.105 470.86 158.105C497.987 158.105 511.757 164.328 525.081 170.337C538.611 176.453 551.395 182.222 577.676 182.222C603.957 182.222 616.741 176.453 630.271 170.337C643.601 164.334 657.365 158.105 684.492 158.105C684.778 158.058 685.071 158.073 685.351 158.151C685.631 158.228 685.89 158.366 686.111 158.553C686.333 158.741 686.51 158.975 686.632 159.238C686.754 159.502 686.817 159.789 686.817 160.079C686.817 160.369 686.754 160.656 686.632 160.92C686.51 161.183 686.333 161.417 686.111 161.605C685.89 161.792 685.631 161.93 685.351 162.007C685.071 162.085 684.778 162.1 684.492 162.053C658.211 162.053 645.427 167.829 631.891 173.939C618.573 180.015 604.803 186.237 577.683 186.237Z" fill="#ECF1FF"/>
<path d="M603.218 214.296C576.091 214.296 562.313 208.073 548.996 202.063C535.466 195.954 522.682 190.178 496.402 190.178C470.121 190.178 457.337 195.954 443.807 202.063C430.476 208.066 416.713 214.296 389.585 214.296C362.458 214.296 348.688 208.073 335.364 202.063C321.834 195.954 309.05 190.178 282.769 190.178C256.488 190.178 243.705 195.954 230.174 202.063C216.844 208.066 203.08 214.296 175.953 214.296C148.826 214.296 135.056 208.073 121.739 202.063C108.202 195.954 95.4177 190.178 69.1436 190.178C42.8694 190.178 30.079 195.954 16.542 202.063C3.21164 208.066 -10.5453 214.296 -37.6726 214.296C-64.7999 214.296 -78.5701 208.073 -91.8938 202.063C-105.424 195.954 -118.208 190.178 -144.489 190.178C-145.019 190.178 -145.528 189.967 -145.903 189.592C-146.278 189.217 -146.488 188.708 -146.488 188.177C-146.48 187.652 -146.265 187.152 -145.891 186.784C-145.517 186.416 -145.013 186.21 -144.489 186.21C-117.361 186.21 -103.585 192.426 -90.2675 198.435C-76.7372 204.551 -63.9534 210.32 -37.6726 210.32C-11.3918 210.32 1.39204 204.551 14.9224 198.435C28.2527 192.432 42.0163 186.21 69.1436 186.21C96.2709 186.21 110.041 192.426 123.358 198.435C136.895 204.551 149.679 210.32 175.953 210.32C202.227 210.32 215.018 204.551 228.555 198.435C241.885 192.432 255.642 186.21 282.769 186.21C309.897 186.21 323.673 192.426 336.99 198.435C350.521 204.551 363.305 210.32 389.585 210.32C415.866 210.32 428.65 204.551 442.18 198.435C455.511 192.432 469.274 186.21 496.402 186.21C523.529 186.21 537.299 192.426 550.616 198.435C564.153 204.551 576.937 210.32 603.218 210.32C629.499 210.32 642.276 204.551 655.813 198.435C669.143 192.432 682.9 186.21 710.027 186.21C710.315 186.159 710.61 186.172 710.891 186.248C711.173 186.324 711.435 186.461 711.658 186.649C711.882 186.836 712.062 187.071 712.185 187.335C712.308 187.6 712.372 187.889 712.372 188.181C712.372 188.473 712.308 188.761 712.185 189.026C712.062 189.29 711.882 189.525 711.658 189.713C711.435 189.9 711.173 190.037 710.891 190.113C710.61 190.189 710.315 190.202 710.027 190.151C683.753 190.151 670.969 195.927 657.432 202.037C644.115 208.073 630.338 214.296 603.218 214.296Z" fill="#ECF1FF"/>
<path d="M591.887 290.829C564.759 290.829 550.982 284.613 537.665 278.597C524.135 272.487 511.351 266.711 485.07 266.711C458.79 266.711 446.006 272.487 432.476 278.597C419.145 284.599 405.382 290.829 378.254 290.829C351.127 290.829 337.357 284.613 324.033 278.597C310.503 272.487 297.719 266.711 271.438 266.711C245.157 266.711 232.374 272.487 218.843 278.597C205.513 284.599 191.749 290.829 164.622 290.829C137.495 290.829 123.724 284.613 110.407 278.597C96.8705 272.487 84.0867 266.711 57.8125 266.711C31.5384 266.711 18.7479 272.487 5.21095 278.597C-8.11942 284.599 -21.8763 290.829 -49.0036 290.829C-76.1309 290.829 -89.9012 284.613 -103.225 278.597C-116.755 272.487 -129.539 266.711 -155.82 266.711C-156.35 266.711 -156.859 266.501 -157.234 266.125C-157.609 265.75 -157.819 265.241 -157.819 264.711C-157.819 264.18 -157.609 263.671 -157.234 263.296C-156.859 262.92 -156.35 262.71 -155.82 262.71C-128.693 262.71 -114.916 268.926 -101.599 274.942C-88.0682 281.051 -75.2844 286.82 -49.0036 286.82C-22.7228 286.82 -9.93901 281.051 3.59131 274.942C16.9217 268.939 30.6853 262.71 57.8125 262.71C84.9398 262.71 98.7101 268.926 112.027 274.942C125.564 281.051 138.348 286.82 164.622 286.82C190.896 286.82 203.687 281.051 217.224 274.942C230.554 268.939 244.311 262.71 271.438 262.71C298.565 262.71 312.342 268.926 325.659 274.942C339.19 281.051 351.974 286.82 378.254 286.82C404.535 286.82 417.319 281.051 430.849 274.942C444.18 268.939 457.943 262.71 485.07 262.71C512.198 262.71 525.968 268.926 539.285 274.942C552.822 281.051 565.606 286.82 591.887 286.82C618.168 286.82 630.945 281.051 644.482 274.942C657.812 268.939 671.569 262.71 698.696 262.71C698.984 262.659 699.279 262.672 699.56 262.748C699.842 262.824 700.104 262.961 700.327 263.148C700.551 263.336 700.73 263.571 700.854 263.835C700.977 264.1 701.041 264.389 701.041 264.681C701.041 264.973 700.977 265.261 700.854 265.526C700.73 265.79 700.551 266.025 700.327 266.213C700.104 266.4 699.842 266.537 699.56 266.613C699.279 266.689 698.984 266.702 698.696 266.651C672.422 266.651 659.638 272.427 646.101 278.537C632.784 284.619 619.007 290.829 591.887 290.829Z" fill="#ECF1FF"/>
<path d="M565.686 352.15C538.558 352.15 524.788 345.928 511.471 339.918C497.934 333.809 485.15 328.033 458.869 328.033C432.589 328.033 419.812 333.809 406.275 339.918C392.944 345.921 379.187 352.15 352.06 352.15C324.933 352.15 311.156 345.928 297.839 339.918C284.302 333.809 271.518 328.033 245.244 328.033C218.97 328.033 206.179 333.809 192.642 339.918C179.312 345.921 165.555 352.15 138.428 352.15C111.3 352.15 97.5301 345.928 84.2064 339.918C70.6761 333.809 57.8923 328.033 31.6115 328.033C5.3307 328.033 -7.45309 333.809 -20.9834 339.918C-34.3138 345.921 -48.0707 352.15 -75.2046 352.15C-102.339 352.15 -116.102 345.928 -129.419 339.918C-142.956 333.809 -155.733 328.033 -182.014 328.033C-182.544 328.033 -183.053 327.822 -183.428 327.447C-183.803 327.072 -184.014 326.563 -184.014 326.032C-184.014 325.501 -183.803 324.993 -183.428 324.617C-183.053 324.242 -182.544 324.031 -182.014 324.031C-154.887 324.031 -141.117 330.247 -127.8 336.257C-114.276 342.433 -101.499 348.189 -75.218 348.189C-48.9372 348.189 -36.1534 342.419 -22.6164 336.303C-9.28601 330.301 4.4709 324.078 31.5982 324.078C58.7255 324.078 72.4957 330.294 85.8194 336.303C99.3497 342.433 112.134 348.189 138.448 348.189C164.762 348.189 177.512 342.419 191.043 336.303C204.373 330.301 218.137 324.078 245.264 324.078C272.391 324.078 286.161 330.294 299.478 336.303C312.982 342.433 325.739 348.189 352.047 348.189C378.354 348.189 391.105 342.419 404.642 336.303C417.972 330.301 431.729 324.078 458.856 324.078C485.983 324.078 499.76 330.294 513.077 336.303C526.608 342.419 539.391 348.189 565.672 348.189C591.953 348.189 604.737 342.419 618.267 336.303C631.598 330.301 645.361 324.078 672.488 324.078C672.776 324.028 673.071 324.041 673.353 324.117C673.634 324.192 673.896 324.329 674.12 324.517C674.343 324.705 674.523 324.939 674.646 325.204C674.769 325.468 674.833 325.757 674.833 326.049C674.833 326.341 674.769 326.629 674.646 326.894C674.523 327.159 674.343 327.393 674.12 327.581C673.896 327.769 673.634 327.905 673.353 327.981C673.071 328.057 672.776 328.07 672.488 328.02C646.208 328.02 633.424 333.796 619.893 339.905C606.576 345.928 592.8 352.15 565.686 352.15Z" fill="#ECF1FF"/>
<path d="M603.218 374.294C576.091 374.294 562.313 368.071 548.996 362.062C535.466 355.952 522.682 350.177 496.402 350.177C470.121 350.177 457.337 355.952 443.807 362.062C430.476 368.064 416.713 374.294 389.585 374.294C362.458 374.294 348.688 368.071 335.364 362.062C321.834 355.952 309.077 350.19 282.769 350.19C256.462 350.19 243.705 355.966 230.174 362.075C216.844 368.078 203.08 374.307 175.953 374.307C148.826 374.307 135.056 368.085 121.739 362.075C108.202 355.952 95.4177 350.19 69.1303 350.19C42.8428 350.19 30.0656 355.966 16.5287 362.075C3.19832 368.078 -10.5586 374.307 -37.6859 374.307C-64.8132 374.307 -78.5701 368.071 -91.8938 362.062C-105.424 355.952 -118.208 350.19 -144.489 350.19C-145.019 350.19 -145.528 349.979 -145.903 349.604C-146.278 349.229 -146.488 348.72 -146.488 348.189C-146.48 347.664 -146.265 347.164 -145.891 346.796C-145.517 346.428 -145.013 346.221 -144.489 346.221C-117.361 346.221 -103.585 352.438 -90.2675 358.454C-76.7372 364.563 -63.9534 370.332 -37.6726 370.332C-11.3918 370.332 1.39204 364.563 14.9224 358.454C28.2527 352.451 42.0163 346.221 69.1436 346.221C96.2709 346.221 110.041 352.438 123.358 358.454C136.895 364.563 149.679 370.332 175.953 370.332C202.227 370.332 215.018 364.563 228.555 358.454C241.885 352.451 255.642 346.221 282.769 346.221C309.897 346.221 323.673 352.438 336.99 358.454C350.521 364.563 363.305 370.332 389.585 370.332C415.866 370.332 428.65 364.563 442.18 358.454C455.511 352.451 469.274 346.221 496.402 346.221C523.529 346.221 537.299 352.438 550.616 358.454C564.153 364.563 576.937 370.332 603.218 370.332C629.499 370.332 642.276 364.563 655.813 358.454C669.143 352.451 682.9 346.221 710.027 346.221C710.315 346.171 710.61 346.184 710.891 346.26C711.173 346.336 711.435 346.472 711.658 346.66C711.882 346.848 712.062 347.083 712.185 347.347C712.308 347.612 712.372 347.9 712.372 348.192C712.372 348.484 712.308 348.773 712.185 349.037C712.062 349.302 711.882 349.537 711.658 349.724C711.435 349.912 711.173 350.049 710.891 350.125C710.61 350.2 710.315 350.214 710.027 350.163C683.753 350.163 670.969 355.939 657.432 362.048C644.115 368.071 630.338 374.294 603.218 374.294Z" fill="#ECF1FF"/>
<path d="M577.683 399.997C550.555 399.997 536.779 393.781 523.461 387.765C509.931 381.656 497.147 375.887 470.867 375.887C444.586 375.887 431.802 381.656 418.272 387.765C404.941 393.768 391.178 399.997 364.05 399.997C336.923 399.997 323.153 393.781 309.836 387.765C296.299 381.656 283.515 375.887 257.234 375.887C230.953 375.887 218.176 381.656 204.639 387.765C191.309 393.768 177.552 399.997 150.425 399.997C123.297 399.997 109.521 393.781 96.2035 387.765C82.6732 381.656 69.8894 375.887 43.6086 375.887C17.3278 375.887 4.54398 381.656 -8.98633 387.765C-22.3167 393.768 -36.0803 399.997 -63.2076 399.997C-90.3348 399.997 -104.105 393.781 -117.422 387.765C-130.959 381.656 -143.743 375.887 -170.017 375.887C-170.547 375.887 -171.056 375.676 -171.431 375.3C-171.806 374.925 -172.017 374.416 -172.017 373.886C-172.017 373.355 -171.806 372.846 -171.431 372.471C-171.056 372.096 -170.547 371.885 -170.017 371.885C-142.89 371.885 -129.12 378.101 -115.802 384.117C-102.266 390.226 -89.4884 395.995 -63.2076 395.995C-36.9268 395.995 -24.1429 390.226 -10.6126 384.117C2.71773 378.114 16.4813 371.885 43.6086 371.885C70.7359 371.885 84.4995 378.154 97.7898 384.204C111.327 390.313 124.111 396.082 150.391 396.082C176.672 396.082 189.449 390.313 202.986 384.204C216.317 378.201 230.074 371.971 257.201 371.971C284.328 371.971 298.105 378.188 311.422 384.204C324.952 390.313 337.736 396.082 364.017 396.082C390.298 396.082 403.082 390.313 416.612 384.204C429.942 378.201 443.706 371.971 470.833 371.971C497.96 371.971 511.731 378.188 525.054 384.204C538.585 390.313 551.369 396.082 577.649 396.082C603.93 396.082 616.714 390.313 630.244 384.204C643.575 378.201 657.338 371.971 684.466 371.971C684.752 371.924 685.045 371.94 685.324 372.017C685.604 372.095 685.863 372.232 686.085 372.42C686.306 372.608 686.484 372.842 686.605 373.105C686.727 373.369 686.791 373.655 686.791 373.946C686.791 374.236 686.727 374.523 686.605 374.786C686.484 375.05 686.306 375.283 686.085 375.471C685.863 375.659 685.604 375.797 685.324 375.874C685.045 375.951 684.752 375.967 684.466 375.92C658.185 375.92 645.401 381.689 631.864 387.798C618.574 393.781 604.803 399.997 577.683 399.997Z" fill="#ECF1FF"/>
<path d="M603.218 262.778C576.091 262.778 562.313 256.555 548.996 250.546C535.466 244.436 522.682 238.661 496.402 238.661C470.121 238.661 457.337 244.436 443.807 250.546C430.476 256.549 416.713 262.778 389.585 262.778C362.458 262.778 348.688 256.555 335.364 250.546C321.834 244.436 309.05 238.661 282.769 238.661C256.488 238.661 243.705 244.436 230.174 250.546C216.844 256.549 203.08 262.778 175.953 262.778C148.826 262.778 135.056 256.555 121.739 250.546C108.202 244.436 95.4177 238.661 69.1436 238.661C42.8694 238.661 30.079 244.436 16.542 250.546C3.21164 256.549 -10.5453 262.778 -37.6726 262.778C-64.7999 262.778 -78.5701 256.555 -91.8938 250.546C-105.424 244.436 -118.208 238.661 -144.489 238.661C-145.013 238.661 -145.517 238.454 -145.891 238.086C-146.265 237.718 -146.48 237.218 -146.488 236.693C-146.488 236.162 -146.278 235.653 -145.903 235.278C-145.528 234.903 -145.019 234.692 -144.489 234.692C-117.361 234.692 -103.585 240.908 -90.2675 246.924C-76.7372 253.034 -63.9534 258.803 -37.6726 258.803C-11.3918 258.803 1.39204 253.034 14.9224 246.924C28.2527 240.922 42.0163 234.692 69.1436 234.692C96.2709 234.692 110.041 240.908 123.358 246.924C136.895 253.034 149.679 258.803 175.953 258.803C202.227 258.803 215.018 253.034 228.555 246.924C241.885 240.922 255.642 234.692 282.769 234.692C309.897 234.692 323.673 240.908 336.99 246.924C350.521 253.034 363.305 258.803 389.585 258.803C415.866 258.803 428.65 253.034 442.18 246.924C455.511 240.922 469.274 234.692 496.402 234.692C523.529 234.692 537.299 240.908 550.616 246.924C564.153 253.034 576.937 258.803 603.218 258.803C629.499 258.803 642.276 253.034 655.813 246.924C669.143 240.922 682.9 234.692 710.027 234.692C710.315 234.642 710.61 234.655 710.891 234.731C711.173 234.807 711.435 234.943 711.658 235.131C711.882 235.319 712.062 235.553 712.185 235.818C712.308 236.083 712.372 236.371 712.372 236.663C712.372 236.955 712.308 237.243 712.185 237.508C712.062 237.773 711.882 238.007 711.658 238.195C711.435 238.383 711.173 238.519 710.891 238.595C710.61 238.671 710.315 238.684 710.027 238.634C683.753 238.634 670.969 244.41 657.432 250.519C644.115 256.555 630.338 262.778 603.218 262.778Z" fill="#ECF1FF"/>
<path d="M577.683 234.719C550.555 234.719 536.779 228.496 523.461 222.487C509.931 216.377 497.147 210.601 470.867 210.601C444.586 210.601 431.802 216.377 418.272 222.487C404.941 228.489 391.178 234.719 364.05 234.719C336.923 234.719 323.153 228.496 309.836 222.487C296.299 216.377 283.515 210.601 257.234 210.601C230.953 210.601 218.176 216.377 204.639 222.487C191.309 228.489 177.552 234.719 150.425 234.719C123.297 234.719 109.521 228.496 96.2035 222.487C82.6732 216.377 69.8894 210.601 43.6086 210.601C17.3278 210.601 4.54398 216.377 -8.98633 222.487C-22.3167 228.489 -36.0803 234.719 -63.2076 234.719C-90.3348 234.719 -104.105 228.496 -117.422 222.487C-130.959 216.377 -143.743 210.601 -170.017 210.601C-170.547 210.601 -171.056 210.39 -171.431 210.015C-171.806 209.64 -172.017 209.131 -172.017 208.6C-172.008 208.075 -171.793 207.575 -171.419 207.207C-171.045 206.839 -170.542 206.633 -170.017 206.633C-142.89 206.633 -129.12 212.849 -115.802 218.858C-102.272 225.001 -89.5017 230.804 -63.2142 230.804C-36.9268 230.804 -24.1496 225.034 -10.6193 218.918C2.71106 212.916 16.4746 206.693 43.6019 206.693C70.7292 206.693 84.4995 212.909 97.8165 218.918C111.353 225.001 124.137 230.804 150.445 230.804C176.752 230.804 189.503 225.034 203.04 218.918C216.37 212.916 230.127 206.693 257.254 206.693C284.382 206.693 298.158 212.909 311.475 218.918C324.979 225.001 337.736 230.804 364.044 230.804C390.351 230.804 403.108 225.034 416.639 218.918C429.969 212.916 443.733 206.693 470.86 206.693C497.987 206.693 511.757 212.909 525.081 218.918C538.611 225.034 551.395 230.804 577.676 230.804C603.957 230.804 616.741 225.034 630.271 218.918C643.601 212.916 657.365 206.693 684.492 206.693C684.78 206.642 685.075 206.656 685.356 206.731C685.638 206.807 685.9 206.944 686.123 207.132C686.347 207.319 686.526 207.554 686.65 207.819C686.773 208.083 686.837 208.372 686.837 208.664C686.837 208.956 686.773 209.244 686.65 209.509C686.526 209.773 686.347 210.008 686.123 210.196C685.9 210.384 685.638 210.52 685.356 210.596C685.075 210.672 684.78 210.685 684.492 210.635C658.211 210.635 645.428 216.41 631.891 222.52C618.574 228.496 604.803 234.719 577.683 234.719Z" fill="#ECF1FF"/>
<path d="M593.013 320.296C565.885 320.296 552.109 314.08 538.792 308.064C525.261 301.954 512.477 296.185 486.196 296.185C459.916 296.185 447.132 301.954 433.602 308.064C420.271 314.066 406.508 320.296 379.38 320.296C352.253 320.296 338.483 314.08 325.166 308.064C311.622 301.954 298.838 296.165 272.558 296.165C246.277 296.165 233.5 301.934 219.963 308.044C206.632 314.046 192.875 320.276 165.748 320.276C138.621 320.276 124.844 314.06 111.527 308.044C97.9965 301.954 85.2127 296.165 58.9319 296.165C32.6511 296.165 19.8672 301.934 6.33691 308.044C-6.99344 314.046 -20.757 320.276 -47.8843 320.276C-75.0116 320.276 -88.7819 314.06 -102.099 308.044C-115.636 301.954 -128.42 296.165 -154.694 296.165C-155.224 296.165 -155.733 295.954 -156.108 295.579C-156.483 295.204 -156.693 294.695 -156.693 294.164C-156.693 293.634 -156.483 293.125 -156.108 292.749C-155.733 292.374 -155.224 292.163 -154.694 292.163C-127.567 292.163 -113.796 298.38 -100.479 304.396C-86.9423 310.505 -74.1651 316.281 -47.8843 316.281C-21.6035 316.281 -8.81969 310.505 4.71062 304.396C18.041 298.393 31.8046 292.163 58.9319 292.163C86.0591 292.163 99.8294 298.38 113.146 304.396C126.683 310.505 139.467 316.281 165.748 316.281C192.029 316.281 204.806 310.505 218.343 304.396C231.673 298.393 245.43 292.163 272.558 292.163C299.685 292.163 313.462 298.38 326.779 304.396C340.309 310.505 353.093 316.281 379.374 316.281C405.654 316.281 418.438 310.505 431.969 304.396C445.299 298.393 459.063 292.163 486.19 292.163C513.317 292.163 527.087 298.38 540.411 304.396C553.941 310.505 566.725 316.281 593.006 316.281C619.287 316.281 632.071 310.505 645.601 304.396C658.931 298.393 672.695 292.163 699.822 292.163C700.108 292.116 700.402 292.132 700.681 292.209C700.961 292.287 701.22 292.424 701.441 292.612C701.663 292.8 701.84 293.034 701.962 293.297C702.084 293.56 702.147 293.847 702.147 294.138C702.147 294.428 702.084 294.715 701.962 294.978C701.84 295.242 701.663 295.475 701.441 295.663C701.22 295.851 700.961 295.989 700.681 296.066C700.402 296.143 700.108 296.159 699.822 296.112C673.541 296.112 660.758 301.881 647.221 307.99C633.904 314.08 620.133 320.296 593.013 320.296Z" fill="#ECF1FF"/>
</g>
<defs>
<clipPath id="clip0_362_14306">
<rect width="360" height="400" fill="white"/>
</clipPath>
</defs>
</svg>
