<svg width="88" height="89" viewBox="0 0 88 89" fill="none" xmlns="http://www.w3.org/2000/svg">
<path d="M22.0073 81.5919L2.52126 32.3315C1.00778 28.4549 2.89963 24.0111 6.77791 22.4983L56.1551 3.02102C60.0334 1.50823 64.4792 3.39922 65.9927 7.27576L85.4787 56.7253C86.9922 60.6019 85.1004 65.0457 81.2221 66.5585L31.8449 85.9412C27.872 87.5485 23.5208 85.563 22.0073 81.5919Z" fill="#FFDADB"/>
<path d="M81.5059 46.5139C73.8439 48.1213 65.3306 45.8521 57.8578 48.7831C53.6011 50.485 50.1958 53.7943 46.6013 56.5362C42.1554 59.8454 37.2366 61.1691 31.7503 61.3582C25.8856 61.5473 19.8317 61.0746 14.0615 61.5473L15.8588 66.1803C22.9532 65.7075 30.1422 66.8421 37.1421 65.8966C41.1149 65.3293 44.804 63.9111 48.0202 61.5473C52.1822 58.6163 55.7767 54.8343 60.5064 53.1324C67.79 50.6741 75.9249 52.8488 83.3977 51.2414L81.5059 46.5139Z" fill="#FFB3B6"/>
<path d="M36.102 54.1725C44.3315 51.9978 49.3449 43.772 57.0069 40.7464C63.6283 38.099 71.2903 39.8009 77.7226 36.9644L76.0199 32.426C69.0201 35.7353 60.0338 33.3715 53.034 37.1535C48.9665 39.3282 45.6558 42.732 42.0613 45.5684C37.71 48.8777 32.9804 50.2014 27.5887 50.1068C21.4402 50.0123 15.0079 48.4049 8.85938 47.8376L10.7512 52.7542C19.1699 53.6997 27.8724 56.3471 36.102 54.1725Z" fill="#FFB3B6"/>
<path d="M6.7787 42.7318C12.8326 42.7318 19.0757 43.3937 24.9404 42.5427C28.9133 41.9754 32.6024 40.5572 35.8185 38.1934C39.9806 35.2624 43.5751 31.4804 48.3047 29.7785C56.5343 27.0366 65.8989 30.1567 73.9393 26.942L72.142 22.3091C63.7233 25.4292 53.9803 22.0254 45.6562 25.4292C41.3995 27.1311 37.9942 30.4404 34.3997 33.1823C29.9538 36.4916 25.035 37.8152 19.5487 38.0043C14.6299 38.1934 9.80565 37.8152 4.98145 38.0043L6.7787 42.7318Z" fill="#FFB3B6"/>
<path d="M44 17.5C29.0938 17.5 17 29.5937 17 44.5C17 59.4062 29.0938 71.5 44 71.5C58.9062 71.5 71 59.4062 71 44.5C71 29.5937 58.9062 17.5 44 17.5Z" stroke="#210049" stroke-width="2" stroke-miterlimit="10"/>
<path d="M44 26.5V46.75H57.5" stroke="#210049" stroke-width="2" stroke-linecap="round" stroke-linejoin="round"/>
</svg>
