<svg width="88" height="88" viewBox="0 0 88 88" fill="none" xmlns="http://www.w3.org/2000/svg">
<path d="M22.0073 81.0919L2.52126 31.8315C1.00778 27.9549 2.89963 23.5111 6.77791 21.9983L56.1551 2.52102C60.0334 1.00823 64.4792 2.89922 65.9927 6.77576L85.4787 56.2253C86.9922 60.1019 85.1004 64.5457 81.2221 66.0585L31.8449 85.4412C27.872 87.0485 23.5208 85.063 22.0073 81.0919Z" fill="#FFDADB"/>
<path d="M81.5059 46.0137C73.8439 47.621 65.3306 45.3518 57.8578 48.2829C53.6011 49.9848 50.1958 53.294 46.6013 56.036C42.1554 59.3452 37.2366 60.6689 31.7503 60.858C25.8856 61.0471 19.8317 60.5743 14.0615 61.0471L15.8588 65.68C22.9532 65.2073 30.1422 66.3419 37.1421 65.3964C41.1149 64.8291 44.804 63.4108 48.0202 61.0471C52.1822 58.116 55.7767 54.3341 60.5064 52.6322C67.79 50.1739 75.9249 52.3485 83.3977 50.7412L81.5059 46.0137Z" fill="#FFB3B6"/>
<path d="M36.102 53.6722C44.3315 51.4976 49.3449 43.2718 57.0069 40.2462C63.6283 37.5988 71.2903 39.3007 77.7226 36.4642L76.0199 31.9258C69.0201 35.235 60.0338 32.8713 53.034 36.6533C48.9665 38.8279 45.6558 42.2317 42.0613 45.0682C37.71 48.3774 32.9804 49.7011 27.5887 49.6066C21.4402 49.512 15.0079 47.9047 8.85938 47.3374L10.7512 52.254C19.1699 53.1995 27.8724 55.8469 36.102 53.6722Z" fill="#FFB3B6"/>
<path d="M6.7787 42.2318C12.8326 42.2318 19.0757 42.8937 24.9404 42.0427C28.9133 41.4754 32.6024 40.0572 35.8185 37.6934C39.9806 34.7624 43.5751 30.9804 48.3047 29.2785C56.5343 26.5366 65.8989 29.6567 73.9393 26.442L72.142 21.8091C63.7233 24.9292 53.9803 21.5254 45.6562 24.9292C41.3995 26.6311 37.9942 29.9404 34.3997 32.6823C29.9538 35.9916 25.035 37.3152 19.5487 37.5043C14.6299 37.6934 9.80565 37.3152 4.98145 37.5043L6.7787 42.2318Z" fill="#FFB3B6"/>
<path d="M17 63V71H25" stroke="#210049" stroke-width="2" stroke-linecap="round" stroke-linejoin="round"/>
<path d="M72 24L72 16L64 16" stroke="#210049" stroke-width="2" stroke-linecap="round" stroke-linejoin="round"/>
<path d="M25 16L17 16L17 24" stroke="#210049" stroke-width="2" stroke-linecap="round" stroke-linejoin="round"/>
<path d="M64 71L72 71L72 63" stroke="#210049" stroke-width="2" stroke-linecap="round" stroke-linejoin="round"/>
<path d="M20 50H68" stroke="#210049" stroke-width="2" stroke-linecap="round" stroke-linejoin="round"/>
<path d="M27.1718 50C26.8926 48.1159 26.3343 43.4783 31.3591 44.7826V38.6957C33.3132 37.971 37.2214 35.2174 37.2214 30C39.5942 33.6232 46.7684 40.6087 56.483 39.5652V44.7826C58.9954 43.0435 62.0103 45.4783 60.6703 50" stroke="#210049" stroke-linejoin="round"/>
<path d="M59.3123 43.3921L59.1227 44.374L61.0863 44.7533L61.276 43.7715L59.3123 43.3921ZM27.091 44.2458L27.3368 45.2151L29.2754 44.7235L29.0296 43.7542L27.091 44.2458ZM29.0296 43.7542C27.7763 38.8113 27.4175 33.3421 29.3889 29.163C31.2996 25.1126 35.5402 22 44.1772 22V20C35.0009 20 29.9106 23.3693 27.58 28.3097C25.3101 33.1216 25.7995 39.1523 27.091 44.2458L29.0296 43.7542ZM44.1772 22C48.5049 22 51.6607 22.8382 53.9491 24.1595C56.2266 25.4744 57.7075 27.3031 58.6376 29.4028C60.5231 33.6589 60.1516 39.0476 59.3123 43.3921L61.276 43.7715C62.1333 39.3342 62.61 33.432 60.4662 28.5927C59.3817 26.1446 57.6286 23.9745 54.9491 22.4274C52.2806 20.8868 48.7563 20 44.1772 20V22Z" fill="#210049"/>
<path d="M31 54C31 54 34.8235 66 44 66C53.1765 66 57 54 57 54" stroke="#210049" stroke-width="2" stroke-linecap="round" stroke-linejoin="round"/>
</svg>
