<svg width="88" height="88" viewBox="0 0 88 88" fill="none" xmlns="http://www.w3.org/2000/svg">
<g clip-path="url(#clip0)">
<path d="M22.0073 80.5919L2.52126 31.3315C1.00778 27.4549 2.89963 23.0111 6.77791 21.4983L56.1551 2.02102C60.0334 0.508226 64.4792 2.39922 65.9927 6.27576L85.4787 55.7253C86.9922 59.6019 85.1004 64.0457 81.2221 65.5585L31.8449 84.9412C27.872 86.5485 23.5208 84.563 22.0073 80.5919Z" fill="#E4D2FF"/>
<path d="M81.5059 45.5137C73.8439 47.121 65.3306 44.8518 57.8578 47.7829C53.6011 49.4848 50.1958 52.794 46.6013 55.536C42.1554 58.8452 37.2366 60.1689 31.7503 60.358C25.8856 60.5471 19.8317 60.0743 14.0615 60.5471L15.8588 65.18C22.9532 64.7073 30.1422 65.8419 37.1421 64.8964C41.1149 64.3291 44.804 62.9108 48.0202 60.5471C52.1822 57.616 55.7767 53.8341 60.5064 52.1322C67.79 49.6739 75.9249 51.8485 83.3977 50.2412L81.5059 45.5137Z" fill="#C7B1EB"/>
<path d="M36.1015 53.1722C44.331 50.9976 49.3444 42.7718 57.0064 39.7462C63.6279 37.0988 71.2898 38.8007 77.7221 35.9642L76.0194 31.4258C69.0196 34.735 60.0333 32.3713 53.0335 36.1533C48.966 38.3279 45.6553 41.7317 42.0608 44.5682C37.7096 47.8774 32.9799 49.2011 27.5882 49.1066C21.4397 49.012 15.0074 47.4047 8.85889 46.8374L10.7507 51.754C19.1695 52.6995 27.8719 55.3469 36.1015 53.1722Z" fill="#C7B1EB"/>
<path d="M6.77821 41.7318C12.8321 41.7318 19.0752 42.3937 24.9399 41.5427C28.9128 40.9754 32.6019 39.5572 35.8181 37.1934C39.9801 34.2624 43.5746 30.4804 48.3042 28.7785C56.5338 26.0366 65.8984 29.1567 73.9388 25.942L72.1415 21.3091C63.7228 24.4292 53.9798 21.0254 45.6557 24.4292C41.399 26.1311 37.9937 29.4404 34.3992 32.1823C29.9533 35.4916 25.0345 36.8152 19.5482 37.0043C14.6294 37.1934 9.80517 36.8152 4.98096 37.0043L6.77821 41.7318Z" fill="#C7B1EB"/>
<path d="M52.3561 45.906L59.8974 43.1612C61.8574 42.4478 62.8679 40.2806 62.1546 38.3206C61.4412 36.3607 59.274 35.3501 57.314 36.0635L46.3907 40.0392C43.1186 41.2302 43.4761 37.5835 40.8927 30.4858C38.3094 23.388 34.2325 20.8529 31.5375 21.8338C28.8426 22.8147 29.5625 26.0693 30.6927 29.1745C31.823 32.2798 33.2761 36.2722 33.1962 38.8132V38.8132C33.081 42.4737 30.2423 45.3924 28.8305 48.7717C27.3768 52.2509 26.4765 57.3723 29.4891 63.1345C33.7045 71.1973 40.3894 74.3754 47.8062 71.6759L64.9858 65.423C66.9458 64.7097 67.9563 62.5425 67.243 60.5825C66.5296 58.6225 64.3624 57.612 62.4024 58.3253L57.0792 60.2629L65.0641 57.3566C67.0241 56.6432 68.0346 54.476 67.3213 52.5161C66.6079 50.5561 64.4407 49.5455 62.4807 50.2589L54.4958 53.1652L65.1424 49.2901C67.1023 48.5767 68.1129 46.4096 67.3995 44.4496C66.6862 42.4896 64.519 41.479 62.559 42.1924L52.7997 45.7445" stroke="#210049" stroke-width="2" stroke-linecap="round" stroke-linejoin="round"/>
<path d="M24.8445 28.289L19.5212 30.2266" stroke="#210049" stroke-linecap="round" stroke-linejoin="round"/>
<path d="M46.1375 20.539L40.8142 22.4766" stroke="#210049" stroke-linecap="round" stroke-linejoin="round"/>
<path d="M27.9856 12.0747L29.9231 17.3979" stroke="#210049" stroke-linecap="round" stroke-linejoin="round"/>
<path d="M38.8145 12.5475L36.4204 17.6816" stroke="#210049" stroke-linecap="round" stroke-linejoin="round"/>
<path d="M19.994 19.3974L25.1282 21.7915" stroke="#210049" stroke-linecap="round" stroke-linejoin="round"/>
</g>
<defs>
<clipPath id="clip0">
<rect width="88" height="88" fill="white"/>
</clipPath>
</defs>
</svg>
