<svg width="88" height="89" viewBox="0 0 88 89" fill="none" xmlns="http://www.w3.org/2000/svg">
<path d="M22.0073 81.5919L2.52126 32.3315C1.00778 28.4549 2.89963 24.0111 6.77791 22.4983L56.1551 3.02102C60.0334 1.50823 64.4792 3.39922 65.9927 7.27576L85.4787 56.7253C86.9922 60.6019 85.1004 65.0457 81.2221 66.5585L31.8449 85.9412C27.872 87.5485 23.5208 85.563 22.0073 81.5919Z" fill="#FFF69F"/>
<path d="M81.5059 46.5139C73.8439 48.1213 65.3306 45.8521 57.8578 48.7831C53.6011 50.485 50.1958 53.7943 46.6013 56.5362C42.1554 59.8454 37.2366 61.1691 31.7503 61.3582C25.8856 61.5473 19.8317 61.0746 14.0615 61.5473L15.8588 66.1803C22.9532 65.7075 30.1422 66.8421 37.1421 65.8966C41.1149 65.3293 44.804 63.9111 48.0202 61.5473C52.1822 58.6163 55.7767 54.8343 60.5064 53.1324C67.79 50.6741 75.9249 52.8488 83.3977 51.2414L81.5059 46.5139Z" fill="#FFEF57"/>
<path d="M36.1015 54.1725C44.331 51.9978 49.3444 43.772 57.0064 40.7464C63.6279 38.099 71.2898 39.8009 77.7221 36.9644L76.0194 32.426C69.0196 35.7353 60.0333 33.3715 53.0335 37.1535C48.966 39.3282 45.6553 42.732 42.0608 45.5684C37.7096 48.8777 32.9799 50.2014 27.5882 50.1068C21.4397 50.0123 15.0074 48.4049 8.85889 47.8376L10.7507 52.7542C19.1695 53.6997 27.8719 56.3471 36.1015 54.1725Z" fill="#FFEF57"/>
<path d="M6.77821 42.7318C12.8321 42.7318 19.0752 43.3937 24.9399 42.5427C28.9128 41.9754 32.6019 40.5572 35.8181 38.1934C39.9801 35.2624 43.5746 31.4804 48.3042 29.7785C56.5338 27.0366 65.8984 30.1567 73.9388 26.942L72.1415 22.3091C63.7228 25.4292 53.9798 22.0254 45.6557 25.4292C41.399 27.1311 37.9937 30.4404 34.3992 33.1823C29.9533 36.4916 25.0345 37.8152 19.5482 38.0043C14.6294 38.1934 9.80517 37.8152 4.98096 38.0043L6.77821 42.7318Z" fill="#FFEF57"/>
<path d="M44 15.25V22" stroke="#210049" stroke-width="1.5" stroke-miterlimit="10" stroke-linecap="round"/>
<path d="M44 67V73.75" stroke="#210049" stroke-width="1.5" stroke-miterlimit="10" stroke-linecap="round"/>
<path d="M64.6827 23.8171L59.9099 28.5899" stroke="#210049" stroke-width="1.5" stroke-miterlimit="10" stroke-linecap="round"/>
<path d="M28.0897 60.4084L23.3169 65.1813" stroke="#210049" stroke-width="1.5" stroke-miterlimit="10" stroke-linecap="round"/>
<path d="M73.25 44.5H66.5" stroke="#210049" stroke-width="1.5" stroke-miterlimit="10" stroke-linecap="round"/>
<path d="M21.5 44.5H14.75" stroke="#210049" stroke-width="1.5" stroke-miterlimit="10" stroke-linecap="round"/>
<path d="M64.6827 65.1813L59.9099 60.4084" stroke="#210049" stroke-width="1.5" stroke-miterlimit="10" stroke-linecap="round"/>
<path d="M28.0897 28.5899L23.3169 23.8171" stroke="#210049" stroke-width="1.5" stroke-miterlimit="10" stroke-linecap="round"/>
<path d="M44 55.75C50.2132 55.75 55.25 50.7132 55.25 44.5C55.25 38.2868 50.2132 33.25 44 33.25C37.7868 33.25 32.75 38.2868 32.75 44.5C32.75 50.7132 37.7868 55.75 44 55.75Z" stroke="#210049" stroke-width="1.5" stroke-miterlimit="10" stroke-linecap="round"/>
</svg>
