<svg width="46" height="46" viewBox="0 0 46 46" fill="none" xmlns="http://www.w3.org/2000/svg">
<path d="M19.799 2.82843C21.3611 1.26633 23.8938 1.26633 25.4559 2.82843L42.4264 19.799C43.9885 21.3611 43.9885 23.8937 42.4264 25.4558L25.4559 42.4264C23.8938 43.9885 21.3611 43.9885 19.799 42.4264L2.82845 25.4558C1.26635 23.8937 1.26635 21.3611 2.82845 19.799L19.799 2.82843Z" fill="#72A9F9"/>
<mask id="mask0" mask-type="alpha" maskUnits="userSpaceOnUse" x="1" y="1" width="43" height="43">
<path d="M19.799 2.82843C21.3611 1.26633 23.8938 1.26633 25.4559 2.82843L42.4264 19.799C43.9885 21.3611 43.9885 23.8937 42.4264 25.4558L25.4559 42.4264C23.8938 43.9885 21.3611 43.9885 19.799 42.4264L2.82845 25.4558C1.26635 23.8937 1.26635 21.3611 2.82845 19.799L19.799 2.82843Z" fill="#55D355"/>
</mask>
<g mask="url(#mask0)">
<path d="M87.7912 -0.57805C82.2077 1.28388 78.998 0.961409 75.8453 0.61994C72.6355 0.297471 69.6157 -0.0250239 64.2602 1.76091C58.9046 3.54684 56.6258 5.63626 54.309 7.80166C51.9922 9.96706 49.6185 12.1515 44.035 14.0134C38.4515 15.8753 35.2418 15.5528 32.089 15.2114C28.8793 14.8889 25.8595 14.5664 20.5039 16.3523C15.0914 18.1573 12.8696 20.2277 10.5528 22.3931C8.23601 24.5585 5.86225 26.7429 0.278779 28.6048C-5.3047 30.4667 -8.51442 30.1443 -11.6672 29.8028C-14.8769 29.4803 -17.8967 29.1578 -23.2523 30.9438C-28.6648 32.7487 -30.8866 34.8191 -33.2034 36.9845C-35.5202 39.1499 -37.894 41.3343 -43.4774 43.1962C-49.0609 45.0582 -52.2706 44.7357 -55.4234 44.3942C-58.6331 44.0718 -61.6529 43.7493 -67.0085 45.5352C-67.2364 45.6112 -67.4643 45.4973 -67.5403 45.2694C-67.6163 45.0415 -67.5024 44.8135 -67.2745 44.7375C-61.691 42.8756 -58.4813 43.1981 -55.3285 43.5396C-52.1188 43.862 -49.099 44.1845 -43.7434 42.3986C-38.3878 40.6127 -36.109 38.5232 -33.7923 36.3578C-31.4755 34.1924 -29.1017 32.008 -23.5183 30.1461C-17.9348 28.2842 -14.7251 28.6067 -11.5723 28.9481C-8.36259 29.2706 -5.34279 29.5931 0.0127895 27.8072C5.42534 26.0022 7.64717 23.9318 9.96395 21.7664C12.2807 19.601 14.6545 17.4166 20.238 15.5547C25.8214 13.6928 29.0312 14.0152 32.1839 14.3567C35.3936 14.6792 38.4134 15.0017 43.769 13.2157C49.1816 11.4108 51.4034 9.34038 53.7202 7.17499C56.0369 5.00959 58.4107 2.8252 63.9942 0.963268C69.5776 -0.898659 72.7874 -0.576191 75.9401 -0.234722C79.1498 0.0877474 82.1696 0.410242 87.5252 -1.37569C92.9378 -3.18062 95.1596 -5.25104 97.4764 -7.41644C99.7931 -9.58184 102.167 -11.7662 107.75 -13.6282C107.978 -13.7042 108.206 -13.5902 108.282 -13.3623C108.358 -13.1344 108.244 -12.9065 108.016 -12.8305C102.604 -11.0256 100.382 -8.95517 98.0652 -6.78977C95.7294 -4.68135 93.3177 -2.42098 87.7912 -0.57805Z" fill="#97D5E3" stroke="#97D5E3" stroke-width="0.8625"/>
<path d="M84.6373 -10.0358C79.0539 -8.17382 75.8441 -8.49629 72.6914 -8.83776C69.4817 -9.16023 66.4619 -9.48273 61.1063 -7.6968C55.7507 -5.91087 53.4719 -3.82144 51.1551 -1.65604C48.8383 0.509353 46.4646 2.69375 40.8811 4.55568C35.2976 6.4176 32.0879 6.09513 28.9352 5.75366C25.7255 5.43119 22.7057 5.1087 17.3501 6.89463C11.9375 8.69956 9.7157 10.77 7.39892 12.9354C5.08215 15.1008 2.70838 17.2852 -2.87509 19.1471C-8.45856 21.009 -11.6683 20.6866 -14.821 20.3451C-18.0308 20.0226 -21.0506 19.7001 -26.4061 21.4861C-31.8187 23.291 -34.0405 25.3614 -36.3573 27.5268C-38.6741 29.6922 -41.0478 31.8766 -46.6313 33.7385C-52.2148 35.6005 -55.4245 35.278 -58.5772 34.9365C-61.787 34.614 -64.8068 34.2916 -70.1623 36.0775C-70.3902 36.1535 -70.6182 36.0396 -70.6942 35.8117C-70.7702 35.5838 -70.6562 35.3558 -70.4283 35.2798C-64.8449 33.4179 -61.6351 33.7404 -58.4824 34.0819C-55.2727 34.4043 -52.2529 34.7268 -46.8973 32.9409C-41.5417 31.155 -39.2629 29.0655 -36.9461 26.9001C-34.6293 24.7347 -32.2556 22.5503 -26.6721 20.6884C-21.0886 18.8265 -17.8789 19.149 -14.7262 19.4904C-11.5165 19.8129 -8.49666 20.1354 -3.14108 18.3495C2.27147 16.5445 4.4933 14.4741 6.81008 12.3087C9.12686 10.1433 11.5006 7.95892 17.0841 6.09699C22.6676 4.23507 25.8773 4.55754 29.03 4.899C32.2398 5.22147 35.2596 5.54397 40.6151 3.75804C46.0277 1.95311 48.2495 -0.117317 50.5663 -2.28271C52.8831 -4.44811 55.2568 -6.63251 60.8403 -8.49443C66.4238 -10.3564 69.6335 -10.0339 72.7862 -9.69242C75.996 -9.36995 79.0158 -9.04746 84.3713 -10.8334C89.7839 -12.6383 92.0057 -14.7087 94.3225 -16.8741C96.6393 -19.0395 99.013 -21.2239 104.597 -23.0859C104.824 -23.1619 105.052 -23.0479 105.128 -22.82C105.204 -22.5921 105.09 -22.3642 104.862 -22.2882C99.4499 -20.4833 97.2281 -18.4129 94.9113 -16.2475C92.5946 -14.0821 90.1638 -11.8787 84.6373 -10.0358Z" fill="#97D5E3" stroke="#97D5E3" stroke-width="0.8625"/>
<path d="M81.5785 -19.2086C75.995 -17.3466 72.7853 -17.6691 69.6325 -18.0106C66.4228 -18.333 63.403 -18.6555 58.0474 -16.8696C52.6918 -15.0837 50.413 -12.9943 48.0963 -10.8289C45.7795 -8.66346 43.4057 -6.47907 37.8223 -4.61714C32.2388 -2.75522 29.0291 -3.07768 25.8763 -3.41915C22.6666 -3.74162 19.6468 -4.06412 14.2912 -2.27819C8.87867 -0.473259 6.65684 1.59717 4.34006 3.76256C2.02328 5.92796 -0.350472 8.11236 -5.93395 9.97428C-11.5174 11.8362 -14.7271 11.5137 -17.8799 11.1723C-21.1466 10.8688 -24.1664 10.5463 -29.522 12.3322C-34.9345 14.1372 -37.1563 16.2076 -39.4731 18.373C-41.7899 20.5384 -44.1636 22.7228 -49.7471 24.5847C-55.3306 26.4466 -58.5403 26.1242 -61.6931 25.7827C-64.9028 25.4602 -67.9226 25.1377 -73.2782 26.9237C-73.563 27.0187 -73.7909 26.9047 -73.8669 26.6768C-73.9429 26.4489 -73.829 26.221 -73.6011 26.145C-68.0176 24.2831 -64.8079 24.6056 -61.6552 24.947C-58.4455 25.2695 -55.4257 25.592 -50.0701 23.8061C-44.7145 22.0201 -42.4357 19.9307 -40.1189 17.7653C-37.8021 15.5999 -35.3714 13.3965 -29.7879 11.5346C-24.2045 9.67267 -20.9948 9.99514 -17.842 10.3366C-14.6323 10.6591 -11.6125 10.9816 -6.25691 9.19564C-0.844359 7.39071 1.37746 5.32029 3.69424 3.15489C6.01102 0.989497 8.38478 -1.1949 13.9683 -3.05683C19.5517 -4.91875 22.7614 -4.59628 25.9142 -4.25481C29.1239 -3.93234 32.1437 -3.60985 37.4993 -5.39578C42.9118 -7.20071 45.1337 -9.27114 47.4504 -11.4365C49.7672 -13.6019 52.141 -15.7863 57.7245 -17.6483C63.3079 -19.5102 66.5176 -19.1877 69.6704 -18.8462C72.8801 -18.5238 75.8999 -18.2013 81.2555 -19.9872C86.668 -21.7921 88.8899 -23.8626 91.2067 -26.028C93.5234 -28.1934 95.8972 -30.3778 101.481 -32.2397C101.709 -32.3157 101.936 -32.2017 102.012 -31.9739C102.088 -31.746 101.975 -31.518 101.747 -31.442C96.3341 -29.6371 94.1123 -27.5667 91.7955 -25.4013C89.5357 -23.2549 87.105 -21.0515 81.5785 -19.2086Z" fill="#97D5E3" stroke="#97D5E3" stroke-width="0.8625"/>
<path d="M96.8539 26.5987C91.2704 28.4606 88.0607 28.1382 84.9079 27.7967C81.6982 27.4742 78.6784 27.1517 73.3228 28.9377C67.9672 30.7236 65.6884 32.813 63.3717 34.9784C61.0549 37.1438 58.6811 39.3282 53.0977 41.1901C47.5142 43.0521 44.3045 42.7296 41.1517 42.3881C37.942 42.0657 34.9222 41.7432 29.5666 43.5291C24.1541 45.334 21.9322 47.4044 19.6155 49.5698C17.2987 51.7352 14.9249 53.9196 9.34146 55.7816C3.75799 57.6435 0.548264 57.321 -2.60448 56.9796C-5.8142 56.6571 -8.834 56.3346 -14.1896 58.1205C-19.6021 59.9255 -21.824 61.9959 -24.1407 64.1613C-26.4575 66.3267 -28.8313 68.5111 -34.4147 70.373C-39.9982 72.2349 -43.2079 71.9125 -46.3607 71.571C-49.5704 71.2485 -52.5902 70.926 -57.9458 72.7119C-58.1737 72.7879 -58.4016 72.674 -58.4776 72.4461C-58.5536 72.2182 -58.4397 71.9903 -58.2118 71.9143C-52.6283 70.0524 -49.4186 70.3749 -46.2658 70.7163C-43.0561 71.0388 -40.0363 71.3613 -34.6807 69.5754C-29.3252 67.7894 -27.1603 65.738 -24.8435 63.5726C-22.5267 61.4072 -20.153 59.2228 -14.5695 57.3609C-8.98604 55.499 -5.77632 55.8214 -2.62358 56.1629C0.586145 56.4854 3.60594 56.8079 8.96152 55.0219C14.3741 53.217 16.5959 51.1466 18.9127 48.9812C21.2295 46.8158 23.6032 44.6314 29.1867 42.7695C34.7702 40.9075 37.9799 41.23 41.1326 41.5715C44.3424 41.8939 47.3621 42.2164 52.7177 40.4305C58.1303 38.6256 60.3521 36.5551 62.6689 34.3898C64.9857 32.2243 67.3594 30.04 72.9429 28.178C78.5264 26.3161 81.7361 26.6386 84.8888 26.98C88.0986 27.3025 91.1184 27.625 96.4739 25.8391C101.886 24.0342 104.108 21.9637 106.425 19.7983C108.742 17.6329 111.116 15.4485 116.699 13.5866C116.927 13.5106 117.155 13.6245 117.231 13.8524C117.307 14.0803 117.193 14.3083 116.965 14.3842C111.553 16.1892 109.331 18.2596 107.014 20.425C104.811 22.5524 102.38 24.7558 96.8539 26.5987Z" fill="#97D5E3" stroke="#97D5E3" stroke-width="0.8625"/>
<path d="M93.7 17.141C88.1165 19.0029 84.9068 18.6805 81.754 18.339C78.5443 18.0165 75.5245 17.694 70.1689 19.48C64.8134 21.2659 62.5346 23.3553 60.2178 25.5207C57.901 27.6861 55.5273 29.8705 49.9438 31.7324C44.3603 33.5944 41.1506 33.2719 37.9978 32.9304C34.7881 32.608 31.7683 32.2855 26.4127 34.0714C21.0002 35.8763 18.7784 37.9467 16.4616 40.1121C14.1448 42.2775 11.771 44.4619 6.18757 46.3239C0.604097 48.1858 -2.60562 47.8633 -5.75837 47.5218C-8.96809 47.1994 -11.9879 46.8769 -17.3435 48.6628C-22.756 50.4677 -24.9779 52.5382 -27.2946 54.7036C-29.6114 56.869 -31.9852 59.0534 -37.5686 60.9153C-43.1521 62.7772 -46.3618 62.4547 -49.5146 62.1133C-52.7243 61.7908 -55.7441 61.4683 -61.0997 63.2542C-61.4225 63.4252 -61.6504 63.3113 -61.7264 63.0834C-61.8024 62.8555 -61.6885 62.6276 -61.4606 62.5516C-55.8771 60.6896 -52.6674 61.0121 -49.5147 61.3536C-46.305 61.6761 -43.2852 61.9985 -37.9296 60.2126C-32.574 58.4267 -30.2952 56.3373 -27.9784 54.1719C-25.6616 52.0065 -23.2879 49.8221 -17.7044 47.9601C-12.1209 46.0982 -8.91121 46.4207 -5.75846 46.7622C-2.54874 47.0846 0.471054 47.4071 5.82663 45.6212C11.2392 43.8163 13.461 41.7458 15.7778 39.5804C18.0946 37.415 20.4683 35.2306 26.0518 33.3687C31.6353 31.5068 34.845 31.8293 37.9977 32.1707C41.2075 32.4932 44.2273 32.8157 49.5828 31.0298C54.9954 29.2248 57.2172 27.1544 59.534 24.989C61.8508 22.8236 64.2245 20.6392 69.808 18.7773C75.3915 16.9154 78.6012 17.2378 81.754 17.5793C84.9637 17.9018 87.9835 18.2243 93.3391 16.4383C98.7516 14.6334 100.973 12.563 103.29 10.3976C105.607 8.23219 107.981 6.04779 113.564 4.18587C113.792 4.10987 114.02 4.22379 114.096 4.45169C114.172 4.67959 114.058 4.90751 113.83 4.98351C108.418 6.78844 106.196 8.85886 103.879 11.0243C101.657 13.0947 99.2265 15.2981 93.7 17.141Z" fill="#97D5E3" stroke="#97D5E3" stroke-width="0.8625"/>
<path d="M90.6411 7.9681C85.0576 9.83003 81.8479 9.50756 78.6952 9.16609C75.4854 8.84362 72.4656 8.52112 67.1101 10.307C61.7545 12.093 59.4757 14.1824 57.1589 16.3478C54.8421 18.5132 52.4684 20.6976 46.8849 22.5595C41.3014 24.4215 38.0917 24.099 34.939 23.7575C31.7292 23.435 28.7094 23.1125 23.3539 24.8985C17.9413 26.7034 15.7195 28.7738 13.4027 30.9392C11.0859 33.1046 8.71217 35.289 3.1287 37.151C-2.45478 39.0129 -5.6645 38.6904 -8.81725 38.3489C-12.027 38.0265 -15.0468 37.704 -20.4023 39.4899C-25.8149 41.2948 -28.0367 43.3653 -30.3535 45.5307C-32.6703 47.6961 -35.044 49.8805 -40.6275 51.7424C-46.211 53.6043 -49.4207 53.2818 -52.5735 52.9404C-55.7832 52.6179 -58.803 52.2954 -64.1586 54.0813C-64.3865 54.1573 -64.6144 54.0434 -64.6904 53.8155C-64.7664 53.5876 -64.6524 53.3597 -64.4245 53.2837C-58.8411 51.4218 -55.6314 51.7442 -52.4786 52.0857C-49.2689 52.4082 -46.2491 52.7307 -40.8935 50.9447C-35.5379 49.1588 -33.2591 47.0694 -30.9423 44.904C-28.6256 42.7386 -26.2518 40.5542 -20.6683 38.6923C-15.0849 36.8303 -11.8751 37.1528 -8.72239 37.4943C-5.51267 37.8167 -2.49287 38.1392 2.86271 36.3533C8.27526 34.5484 10.4971 32.478 12.8139 30.3126C15.1306 28.1472 17.5044 25.9628 23.0879 24.1008C28.6713 22.2389 31.8811 22.5614 35.0338 22.9029C38.2435 23.2253 41.2633 23.5478 46.6189 21.7619C52.0315 19.957 54.2533 17.8865 56.5701 15.7211C58.8869 13.5557 61.2606 11.3713 66.8441 9.50941C72.4276 7.64748 75.6373 7.96995 78.79 8.31142C81.9997 8.63389 85.0195 8.95639 90.3751 7.17046C95.7877 5.36553 98.0095 3.2951 100.326 1.1297C102.643 -1.03569 105.017 -3.22009 110.6 -5.08202C110.828 -5.15801 111.056 -5.04408 111.132 -4.81619C111.208 -4.58829 111.094 -4.36037 110.866 -4.28438C105.454 -2.47945 103.232 -0.409021 100.915 1.75638C98.5983 3.92178 96.1676 6.12517 90.6411 7.9681Z" fill="#97D5E3" stroke="#97D5E3" stroke-width="0.8625"/>
</g>
</svg>
