<svg width="276" height="76" viewBox="0 0 276 76" fill="none" xmlns="http://www.w3.org/2000/svg">
<g opacity="0.7">
<path opacity="0.5" d="M0 8C0 3.58172 3.58172 0 8 0H268C272.418 0 276 3.58172 276 8V76H0V8Z" fill="#D6D6D6"/>
<mask id="mask0" mask-type="alpha" maskUnits="userSpaceOnUse" x="0" y="0" width="276" height="76">
<path d="M0 8C0 3.58172 3.58172 0 8 0H268C272.418 0 276 3.58172 276 8V76H0V8Z" fill="white"/>
</mask>
<g mask="url(#mask0)">
<path fill-rule="evenodd" clip-rule="evenodd" d="M-4 75.9998H276V-0.000244141H-4V75.9998Z" fill="#408DFF"/>
<path d="M248.884 11.5957C232.5 11.5957 224.167 7.85188 216.156 4.22884C207.984 0.525291 200.255 -2.93672 184.394 -2.93672C168.533 -2.93672 160.804 0.565547 152.632 4.22884C144.581 7.85188 136.288 11.5957 119.904 11.5957C103.52 11.5957 95.1868 7.85188 87.1759 4.22884C79.0039 0.525291 71.2748 -2.93672 55.4139 -2.93672C39.5531 -2.93672 31.8239 0.565547 23.652 4.22884C15.6008 7.85188 7.30804 11.5957 -9.07613 11.5957C-25.4603 11.5957 -33.7933 7.85188 -41.8042 4.22884C-49.9762 0.525291 -57.7054 -2.93672 -73.5662 -2.93672C-89.4271 -2.93672 -97.1562 0.565547 -105.328 4.22884C-113.379 7.85188 -121.672 11.5957 -138.056 11.5957C-154.44 11.5957 -162.773 7.85188 -170.784 4.22884C-179.117 0.525291 -186.847 -2.97698 -202.707 -2.97698C-203.351 -2.97698 -203.915 -3.5003 -203.915 -4.18465C-203.915 -4.82875 -203.392 -5.39233 -202.707 -5.39233C-186.323 -5.39233 -177.99 -1.64853 -169.979 1.9745C-161.807 5.67805 -154.078 9.14007 -138.217 9.14007C-122.356 9.14007 -114.627 5.6378 -106.455 1.9745C-98.4041 -1.64853 -90.1114 -5.39233 -73.7272 -5.39233C-57.343 -5.39233 -49.0101 -1.64853 -40.9991 1.9745C-32.8271 5.67805 -25.098 9.14007 -9.23715 9.14007C6.6237 9.14007 14.3528 5.6378 22.5248 1.9745C30.576 -1.64853 38.8687 -5.39233 55.2529 -5.39233C71.6371 -5.39233 79.9701 -1.64853 87.981 1.9745C96.153 5.67805 103.882 9.14007 119.743 9.14007C135.604 9.14007 143.333 5.6378 151.505 1.9745C159.556 -1.64853 167.849 -5.39233 184.233 -5.39233C200.617 -5.39233 208.95 -1.64853 216.961 1.9745C225.133 5.67805 232.862 9.14007 248.723 9.14007C264.584 9.14007 272.313 5.6378 280.485 1.9745C288.536 -1.64853 296.829 -5.39233 313.213 -5.39233C313.857 -5.39233 314.421 -4.86901 314.421 -4.18465C314.421 -3.54056 313.898 -2.97698 313.213 -2.97698C297.352 -2.97698 289.623 0.525289 281.451 4.18858C273.561 7.85188 265.268 11.5957 248.884 11.5957Z" fill="#74CDE0"/>
<path d="M264.302 28.5032C247.918 28.5032 239.585 24.7594 231.574 21.1363C223.402 17.4328 215.673 13.9708 199.812 13.9708C183.951 13.9708 176.222 17.473 168.05 21.1363C159.999 24.7594 151.706 28.5032 135.322 28.5032C118.938 28.5032 110.605 24.7594 102.594 21.1363C94.422 17.4328 86.6928 13.9708 70.832 13.9708C54.9711 13.9708 47.242 17.473 39.07 21.1363C31.0188 24.7594 22.7261 28.5032 6.3419 28.5032C-10.0423 28.5032 -18.3752 24.7594 -26.3862 21.1363C-34.5582 17.4328 -42.2873 13.9708 -58.1481 13.9708C-74.009 13.9708 -81.7381 17.473 -89.9101 21.1363C-97.9613 24.7594 -106.254 28.5032 -122.638 28.5032C-139.022 28.5032 -147.355 24.7594 -155.366 21.1363C-163.538 17.4328 -171.267 13.9708 -187.128 13.9708C-187.772 13.9708 -188.336 13.4475 -188.336 12.7631C-188.336 12.119 -187.813 11.5554 -187.128 11.5554C-170.744 11.5554 -162.411 15.2992 -154.4 18.9223C-146.228 22.6258 -138.499 26.0878 -122.638 26.0878C-106.777 26.0878 -99.0482 22.5856 -90.8762 18.9223C-82.8251 15.2992 -74.5323 11.5554 -58.1481 11.5554C-41.764 11.5554 -33.431 15.2992 -25.42 18.9223C-17.2481 22.6258 -9.51894 26.0878 6.3419 26.0878C22.2028 26.0878 29.9319 22.5856 38.1039 18.9223C46.1551 15.2992 54.4478 11.5554 70.832 11.5554C87.2162 11.5554 95.5491 15.2992 103.56 18.9223C111.732 22.6258 119.461 26.0878 135.322 26.0878C151.183 26.0878 158.912 22.5856 167.084 18.9223C175.135 15.2992 183.428 11.5554 199.812 11.5554C216.196 11.5554 224.529 15.2992 232.54 18.9223C240.712 22.6258 248.441 26.0878 264.302 26.0878C280.163 26.0878 287.892 22.5856 296.064 18.9223C304.115 15.2992 312.408 11.5554 328.792 11.5554C329.436 11.5554 330 12.0787 330 12.7631C330 13.4072 329.477 13.9708 328.792 13.9708C312.931 13.9708 305.202 17.473 297.03 21.1363C289.019 24.7594 280.686 28.5032 264.302 28.5032Z" fill="#74CDE0"/>
<path d="M257.459 74.717C241.074 74.717 232.742 70.9732 224.731 67.3502C216.559 63.6467 208.829 60.1846 192.969 60.1846C177.108 60.1846 169.379 63.6869 161.207 67.3502C153.155 70.9732 144.863 74.717 128.479 74.717C112.094 74.717 103.761 70.9732 95.7504 67.3502C87.5785 63.6467 79.8493 60.1846 63.9885 60.1846C48.1276 60.1846 40.3985 63.6869 32.2265 67.3502C24.1753 70.9732 15.8826 74.717 -0.501602 74.717C-16.8858 74.717 -25.2188 70.9732 -33.2297 67.3502C-41.4017 63.6467 -49.1308 60.1846 -64.9917 60.1846C-80.8525 60.1846 -88.5816 63.6869 -96.7536 67.3502C-104.805 70.9732 -113.098 74.717 -129.482 74.717C-145.866 74.717 -154.199 70.9732 -162.21 67.3502C-170.382 63.6467 -178.111 60.1846 -193.972 60.1846C-194.616 60.1846 -195.179 59.6613 -195.179 58.977C-195.179 58.3329 -194.656 57.7693 -193.972 57.7693C-177.588 57.7693 -169.255 61.5131 -161.244 65.1361C-153.072 68.8397 -145.343 72.3017 -129.482 72.3017C-113.621 72.3017 -105.892 68.7994 -97.7197 65.1361C-89.6686 61.5131 -81.3758 57.7693 -64.9917 57.7693C-48.6075 57.7693 -40.2745 61.5131 -32.2635 65.1361C-24.0916 68.8397 -16.3624 72.3017 -0.501602 72.3017C15.3593 72.3017 23.0884 68.7994 31.2604 65.1361C39.3116 61.5131 47.6043 57.7693 63.9885 57.7693C80.3727 57.7693 88.7056 61.5131 96.7166 65.1361C104.889 68.8397 112.618 72.3017 128.479 72.3017C144.339 72.3017 152.069 68.7994 160.24 65.1361C168.292 61.5131 176.584 57.7693 192.969 57.7693C209.353 57.7693 217.686 61.5131 225.697 65.1361C233.869 68.8397 241.598 72.3017 257.459 72.3017C273.32 72.3017 281.049 68.7994 289.221 65.1361C297.272 61.5131 305.565 57.7693 321.949 57.7693C322.593 57.7693 323.156 58.2926 323.156 58.977C323.156 59.6211 322.633 60.1846 321.949 60.1846C306.088 60.1846 298.359 63.6869 290.187 67.3502C282.176 70.9732 273.843 74.717 257.459 74.717Z" fill="#74CDE0"/>
<path d="M264.302 57.7693C247.918 57.7693 239.585 54.0255 231.574 50.4025C223.402 46.6989 215.673 43.2369 199.812 43.2369C183.951 43.2369 176.222 46.7392 168.05 50.4025C159.999 54.0255 151.706 57.7693 135.322 57.7693C118.938 57.7693 110.605 54.0255 102.594 50.4025C94.422 46.6989 86.6928 43.2369 70.832 43.2369C54.9711 43.2369 47.242 46.7392 39.07 50.4025C31.0188 54.0255 22.7261 57.7693 6.3419 57.7693C-10.0423 57.7693 -18.3752 54.0255 -26.3862 50.4025C-34.5582 46.6989 -42.2873 43.2369 -58.1481 43.2369C-74.009 43.2369 -81.7381 46.7392 -89.9101 50.4025C-97.9613 54.0255 -106.254 57.7693 -122.638 57.7693C-139.022 57.7693 -147.355 54.0255 -155.366 50.4025C-163.538 46.6989 -171.267 43.2369 -187.128 43.2369C-187.772 43.2369 -188.336 42.7136 -188.336 42.0292C-188.336 41.3851 -187.813 40.8215 -187.128 40.8215C-170.744 40.8215 -162.411 44.5653 -154.4 48.1884C-146.228 51.8919 -138.499 55.3539 -122.638 55.3539C-106.777 55.3539 -99.0482 51.8517 -90.8762 48.1884C-82.8251 44.5653 -74.5323 40.8215 -58.1481 40.8215C-41.764 40.8215 -33.431 44.5653 -25.42 48.1884C-17.2481 51.8919 -9.51894 55.3539 6.3419 55.3539C22.2028 55.3539 29.9319 51.8517 38.1039 48.1884C46.1551 44.5653 54.4478 40.8215 70.832 40.8215C87.2162 40.8215 95.5491 44.5653 103.56 48.1884C111.732 51.8919 119.461 55.3539 135.322 55.3539C151.183 55.3539 158.912 51.8517 167.084 48.1884C175.135 44.5653 183.428 40.8215 199.812 40.8215C216.196 40.8215 224.529 44.5653 232.54 48.1884C240.712 51.8919 248.441 55.3539 264.302 55.3539C280.163 55.3539 287.892 51.8517 296.064 48.1884C304.115 44.5653 312.408 40.8215 328.792 40.8215C329.436 40.8215 330 41.3449 330 42.0292C330 42.6733 329.477 43.2369 328.792 43.2369C312.931 43.2369 305.202 46.7392 297.03 50.4025C289.019 54.0255 280.686 57.7693 264.302 57.7693Z" fill="#74CDE0"/>
<path d="M248.884 40.8618C232.5 40.8618 224.167 37.118 216.156 33.495C207.984 29.7914 200.255 26.3294 184.394 26.3294C168.533 26.3294 160.804 29.8317 152.632 33.495C144.581 37.118 136.288 40.8618 119.904 40.8618C103.52 40.8618 95.1869 37.118 87.176 33.495C79.004 29.7914 71.2749 26.3294 55.414 26.3294C39.5532 26.3294 31.824 29.8317 23.6521 33.495C15.6009 37.118 7.30817 40.8618 -9.07602 40.8618C-25.4602 40.8618 -33.7932 37.118 -41.8041 33.495C-49.9761 29.7914 -57.7052 26.3294 -73.5661 26.3294C-89.4269 26.3294 -97.1561 29.8317 -105.328 33.495C-113.379 37.118 -121.672 40.8618 -138.056 40.8618C-154.44 40.8618 -162.773 37.118 -170.784 33.495C-178.956 29.7914 -186.685 26.3294 -202.546 26.3294C-203.19 26.3294 -203.754 25.8061 -203.754 25.1217C-203.754 24.4776 -203.231 23.9141 -202.546 23.9141C-186.162 23.9141 -177.829 27.6579 -169.818 31.2809C-161.646 34.9845 -153.917 38.4465 -138.056 38.4465C-122.195 38.4465 -114.466 34.9442 -106.294 31.2809C-98.243 27.6579 -89.9503 23.9141 -73.5661 23.9141C-57.1819 23.9141 -48.8489 27.6579 -40.838 31.2809C-32.666 34.9845 -24.9369 38.4465 -9.07602 38.4465C6.78484 38.4465 14.514 34.9442 22.6859 31.2809C30.7371 27.6579 39.0299 23.9141 55.414 23.9141C71.7982 23.9141 80.1312 27.6579 88.1422 31.2809C96.3141 34.9845 104.043 38.4465 119.904 38.4465C135.765 38.4465 143.494 34.9442 151.666 31.2809C159.717 27.6579 168.01 23.9141 184.394 23.9141C200.778 23.9141 209.111 27.6579 217.122 31.2809C225.294 34.9845 233.023 38.4465 248.884 38.4465C264.745 38.4465 272.474 34.9442 280.646 31.2809C288.697 27.6579 296.99 23.9141 313.374 23.9141C314.018 23.9141 314.582 24.4374 314.582 25.1217C314.582 25.7658 314.059 26.3294 313.374 26.3294C297.513 26.3294 289.784 29.8317 281.612 33.495C273.561 37.0778 265.268 40.8618 248.884 40.8618Z" fill="#74CDE0"/>
<path d="M258.143 92.5105C241.759 92.5105 233.426 88.7667 225.415 85.1436C217.243 81.4401 209.514 77.9781 193.653 77.9781C177.792 77.9781 170.063 81.4804 161.891 85.1436C153.84 88.7667 145.547 92.5105 129.163 92.5105C112.779 92.5105 104.446 88.7667 96.4349 85.1436C88.263 81.4401 80.5338 77.9781 64.673 77.9781C48.8121 77.9781 41.083 81.4804 32.911 85.1436C24.8598 88.7667 16.5671 92.5105 0.182907 92.5105C-16.2013 92.5105 -24.5343 88.7667 -32.5452 85.1436C-40.7172 81.4401 -48.4463 77.9781 -64.3072 77.9781C-80.168 77.9781 -87.8972 81.4804 -96.0691 85.1436C-104.12 88.7667 -112.413 92.5105 -128.797 92.5105C-145.181 92.5105 -153.514 88.7667 -161.525 85.1436C-169.858 81.4401 -177.587 77.9378 -193.448 77.9378C-194.092 77.9378 -194.656 77.4145 -194.656 76.7301C-194.656 76.086 -194.133 75.5225 -193.448 75.5225C-177.064 75.5225 -168.731 79.2663 -160.72 82.8893C-152.548 86.5928 -144.819 90.0549 -128.958 90.0549C-113.097 90.0549 -105.368 86.5526 -97.1963 82.8893C-89.1451 79.2663 -80.8524 75.5225 -64.4682 75.5225C-48.084 75.5225 -39.751 79.2663 -31.7401 82.8893C-23.5681 86.5928 -15.839 90.0549 0.0218658 90.0549C15.8827 90.0549 23.6119 86.5526 31.7838 82.8893C39.835 79.2663 48.1278 75.5225 64.5119 75.5225C80.8961 75.5225 89.2291 79.2663 97.2401 82.8893C105.412 86.5928 113.141 90.0549 129.002 90.0549C144.863 90.0549 152.592 86.5526 160.764 82.8893C168.815 79.2663 177.108 75.5225 193.492 75.5225C209.876 75.5225 218.209 79.2663 226.22 82.8893C234.392 86.5928 242.121 90.0549 257.982 90.0549C273.843 90.0549 281.572 86.5526 289.744 82.8893C297.795 79.2663 306.088 75.5225 322.472 75.5225C323.116 75.5225 323.68 76.0458 323.68 76.7301C323.68 77.3742 323.157 77.9378 322.472 77.9378C306.611 77.9378 298.882 81.4401 290.71 85.1034C282.82 88.7667 274.527 92.5105 258.143 92.5105Z" fill="#74CDE0"/>
</g>
</g>
</svg>
