<?xml version="1.0" encoding="utf-8"?>
<svg viewBox="0 0 312 80" fill="none" xmlns="http://www.w3.org/2000/svg">
  <path fill-rule="evenodd" clip-rule="evenodd" d="M 0.02 8.019 C 0.02 3.601 3.602 0.019 8.02 0.019 L 304.02 0.019 C 308.438 0.019 312.02 3.601 312.02 8.019 L 312.02 80.019 L 0.02 80.019 L 0.02 8.019 Z" fill="#E7E9EA"/>
  <g opacity="0.7" transform="matrix(1, 0, 0, 1, 0.02041, 0.01905)">
    <mask id="mask0" style="mask-type:alpha" maskUnits="userSpaceOnUse" x="0" y="0" width="312" height="80">
      <path d="M0 8C0 3.58172 3.58172 0 8 0H304C308.418 0 312 3.58172 312 8V80H0V8Z" fill="white"/>
    </mask>
    <g mask="url(#mask0)">
      <path fill-rule="evenodd" clip-rule="evenodd" d="M-4.52173 79.9998H312V-0.000244141H-4.52173V79.9998Z" fill="#8CFF79"/>
      <path d="M281.347 12.2061C262.826 12.2061 253.406 8.26525 244.35 4.45153C235.112 0.553054 226.375 -3.09117 208.445 -3.09117C190.516 -3.09117 181.778 0.595428 172.541 4.45153C163.439 8.26525 154.065 12.2061 135.544 12.2061C117.022 12.2061 107.602 8.26525 98.5466 4.45153C89.3087 0.553054 80.5714 -3.09117 62.6418 -3.09117C44.7121 -3.09117 35.9748 0.595428 26.7369 4.45153C17.6356 8.26525 8.26122 12.2061 -10.26 12.2061C-28.7813 12.2061 -38.2012 8.26525 -47.257 4.45153C-56.4949 0.553054 -65.2322 -3.09117 -83.1618 -3.09117C-101.092 -3.09117 -109.829 0.595428 -119.067 4.45153C-128.168 8.26525 -137.542 12.2061 -156.064 12.2061C-174.585 12.2061 -184.005 8.26525 -193.061 4.45153C-202.481 0.553054 -211.218 -3.13354 -229.147 -3.13354C-229.876 -3.13354 -230.513 -3.68441 -230.513 -4.40478C-230.513 -5.08278 -229.921 -5.67603 -229.147 -5.67603C-210.626 -5.67603 -201.206 -1.73518 -192.151 2.07854C-182.913 5.97701 -174.175 9.62125 -156.246 9.62125C-138.316 9.62125 -129.579 5.93464 -120.341 2.07854C-111.24 -1.73518 -101.865 -5.67603 -83.3439 -5.67603C-64.8226 -5.67603 -55.4027 -1.73518 -46.3469 2.07854C-37.109 5.97701 -28.3717 9.62125 -10.4421 9.62125C7.48761 9.62125 16.2249 5.93464 25.4628 2.07854C34.5641 -1.73518 43.9385 -5.67603 62.4597 -5.67603C80.981 -5.67603 90.4009 -1.73518 99.4567 2.07854C108.695 5.97701 117.432 9.62125 135.362 9.62125C153.291 9.62125 162.029 5.93464 171.266 2.07854C180.368 -1.73518 189.742 -5.67603 208.263 -5.67603C226.785 -5.67603 236.205 -1.73518 245.26 2.07854C254.498 5.97701 263.236 9.62125 281.165 9.62125C299.095 9.62125 307.832 5.93464 317.07 2.07854C326.171 -1.73518 335.546 -5.67603 354.067 -5.67603C354.795 -5.67603 355.432 -5.12515 355.432 -4.40478C355.432 -3.72679 354.841 -3.13354 354.067 -3.13354C336.137 -3.13354 327.4 0.553051 318.162 4.40915C309.243 8.26525 299.868 12.2061 281.347 12.2061Z" fill="#21E535"/>
      <path d="M298.776 30.0034C280.255 30.0034 270.835 26.0626 261.78 22.2489C252.542 18.3504 243.804 14.7062 225.875 14.7062C207.945 14.7062 199.208 18.3928 189.97 22.2489C180.868 26.0626 171.494 30.0034 152.973 30.0034C134.452 30.0034 125.032 26.0626 115.976 22.2489C106.738 18.3504 98.0007 14.7062 80.071 14.7062C62.1414 14.7062 53.4041 18.3928 44.1662 22.2489C35.0649 26.0626 25.6905 30.0034 7.16925 30.0034C-11.352 30.0034 -20.7719 26.0626 -29.8277 22.2489C-39.0656 18.3504 -47.8029 14.7062 -65.7326 14.7062C-83.6622 14.7062 -92.3995 18.3928 -101.637 22.2489C-110.739 26.0626 -120.113 30.0034 -138.634 30.0034C-157.156 30.0034 -166.575 26.0626 -175.631 22.2489C-184.869 18.3504 -193.607 14.7062 -211.536 14.7062C-212.264 14.7062 -212.901 14.1553 -212.901 13.4349C-212.901 12.7569 -212.31 12.1637 -211.536 12.1637C-193.015 12.1637 -183.595 16.1045 -174.539 19.9183C-165.301 23.8167 -156.564 27.461 -138.634 27.461C-120.705 27.461 -111.967 23.7744 -102.73 19.9183C-93.6282 16.1045 -84.2538 12.1637 -65.7326 12.1637C-47.2113 12.1637 -37.7914 16.1045 -28.7356 19.9183C-19.4977 23.8167 -10.7604 27.461 7.16925 27.461C25.0989 27.461 33.8362 23.7744 43.0741 19.9183C52.1754 16.1045 61.5498 12.1637 80.071 12.1637C98.5923 12.1637 108.012 16.1045 117.068 19.9183C126.306 23.8167 135.043 27.461 152.973 27.461C170.903 27.461 179.64 23.7744 188.878 19.9183C197.979 16.1045 207.353 12.1637 225.875 12.1637C244.396 12.1637 253.816 16.1045 262.872 19.9183C272.11 23.8167 280.847 27.461 298.776 27.461C316.706 27.461 325.443 23.7744 334.681 19.9183C343.783 16.1045 353.157 12.1637 371.678 12.1637C372.406 12.1637 373.044 12.7146 373.044 13.4349C373.044 14.1129 372.452 14.7062 371.678 14.7062C353.749 14.7062 345.011 18.3928 335.773 22.2489C326.718 26.0626 317.298 30.0034 298.776 30.0034Z" fill="#21E535"/>
      <path d="M291.04 78.6496C272.519 78.6496 263.099 74.7087 254.043 70.895C244.805 66.9965 236.068 63.3523 218.138 63.3523C200.209 63.3523 191.471 67.0389 182.234 70.895C173.132 74.7087 163.758 78.6496 145.237 78.6496C126.715 78.6496 117.296 74.7087 108.24 70.895C99.0018 66.9965 90.2645 63.3523 72.3348 63.3523C54.4052 63.3523 45.6679 67.0389 36.43 70.895C27.3287 74.7087 17.9543 78.6496 -0.566956 78.6496C-19.0882 78.6496 -28.5081 74.7087 -37.5639 70.895C-46.8018 66.9965 -55.5391 63.3523 -73.4688 63.3523C-91.3984 63.3523 -100.136 67.0389 -109.374 70.895C-118.475 74.7087 -127.849 78.6496 -146.371 78.6496C-164.892 78.6496 -174.312 74.7087 -183.368 70.895C-192.605 66.9965 -201.343 63.3523 -219.272 63.3523C-220 63.3523 -220.638 62.8014 -220.638 62.0811C-220.638 61.4031 -220.046 60.8098 -219.272 60.8098C-200.751 60.8098 -191.331 64.7507 -182.275 68.5644C-173.038 72.4629 -164.3 76.1071 -146.371 76.1071C-128.441 76.1071 -119.704 72.4205 -110.466 68.5644C-101.364 64.7507 -91.99 60.8098 -73.4688 60.8098C-54.9475 60.8098 -45.5276 64.7507 -36.4718 68.5644C-27.2339 72.4629 -18.4966 76.1071 -0.566956 76.1071C17.3627 76.1071 26.1 72.4205 35.3379 68.5644C44.4392 64.7507 53.8136 60.8098 72.3348 60.8098C90.8561 60.8098 100.276 64.7507 109.332 68.5644C118.57 72.4629 127.307 76.1071 145.237 76.1071C163.166 76.1071 171.904 72.4205 181.141 68.5644C190.243 64.7507 199.617 60.8098 218.138 60.8098C236.66 60.8098 246.08 64.7507 255.135 68.5644C264.373 72.4629 273.111 76.1071 291.04 76.1071C308.97 76.1071 317.707 72.4205 326.945 68.5644C336.046 64.7507 345.421 60.8098 363.942 60.8098C364.67 60.8098 365.307 61.3607 365.307 62.0811C365.307 62.7591 364.716 63.3523 363.942 63.3523C346.012 63.3523 337.275 67.0389 328.037 70.895C318.981 74.7087 309.562 78.6496 291.04 78.6496Z" fill="#21E535"/>
      <path d="M298.776 60.8097C280.255 60.8097 270.835 56.8689 261.78 53.0552C252.542 49.1567 243.804 45.5125 225.875 45.5125C207.945 45.5125 199.208 49.1991 189.97 53.0552C180.868 56.8689 171.494 60.8097 152.973 60.8097C134.452 60.8097 125.032 56.8689 115.976 53.0552C106.738 49.1567 98.0007 45.5125 80.071 45.5125C62.1414 45.5125 53.4041 49.1991 44.1662 53.0552C35.0649 56.8689 25.6905 60.8097 7.16925 60.8097C-11.352 60.8097 -20.7719 56.8689 -29.8277 53.0552C-39.0656 49.1567 -47.8029 45.5125 -65.7326 45.5125C-83.6622 45.5125 -92.3995 49.1991 -101.637 53.0552C-110.739 56.8689 -120.113 60.8097 -138.634 60.8097C-157.156 60.8097 -166.575 56.8689 -175.631 53.0552C-184.869 49.1567 -193.607 45.5125 -211.536 45.5125C-212.264 45.5125 -212.901 44.9616 -212.901 44.2412C-212.901 43.5632 -212.31 42.97 -211.536 42.97C-193.015 42.97 -183.595 46.9108 -174.539 50.7245C-165.301 54.623 -156.564 58.2672 -138.634 58.2672C-120.705 58.2672 -111.967 54.5806 -102.73 50.7245C-93.6282 46.9108 -84.2538 42.97 -65.7326 42.97C-47.2113 42.97 -37.7914 46.9108 -28.7356 50.7245C-19.4977 54.623 -10.7604 58.2672 7.16925 58.2672C25.0989 58.2672 33.8362 54.5806 43.0741 50.7245C52.1754 46.9108 61.5498 42.97 80.071 42.97C98.5923 42.97 108.012 46.9108 117.068 50.7245C126.306 54.623 135.043 58.2672 152.973 58.2672C170.903 58.2672 179.64 54.5806 188.878 50.7245C197.979 46.9108 207.353 42.97 225.875 42.97C244.396 42.97 253.816 46.9108 262.872 50.7245C272.11 54.623 280.847 58.2672 298.776 58.2672C316.706 58.2672 325.443 54.5806 334.681 50.7245C343.783 46.9108 353.157 42.97 371.678 42.97C372.406 42.97 373.044 43.5208 373.044 44.2412C373.044 44.9192 372.452 45.5125 371.678 45.5125C353.749 45.5125 345.011 49.1991 335.773 53.0552C326.718 56.8689 317.298 60.8097 298.776 60.8097Z" fill="#21E535"/>
      <path d="M281.347 43.0125C262.826 43.0125 253.406 39.0716 244.35 35.2579C235.112 31.3594 226.375 27.7152 208.445 27.7152C190.516 27.7152 181.779 31.4018 172.541 35.2579C163.439 39.0716 154.065 43.0125 135.544 43.0125C117.022 43.0125 107.603 39.0716 98.5467 35.2579C89.3088 31.3594 80.5715 27.7152 62.6419 27.7152C44.7122 27.7152 35.9749 31.4018 26.737 35.2579C17.6357 39.0716 8.26132 43.0125 -10.2599 43.0125C-28.7812 43.0125 -38.2011 39.0716 -47.2569 35.2579C-56.4948 31.3594 -65.2321 27.7152 -83.1617 27.7152C-101.091 27.7152 -109.829 31.4018 -119.067 35.2579C-128.168 39.0716 -137.542 43.0125 -156.064 43.0125C-174.585 43.0125 -184.005 39.0716 -193.061 35.2579C-202.298 31.3594 -211.036 27.7152 -228.965 27.7152C-229.693 27.7152 -230.331 27.1643 -230.331 26.444C-230.331 25.766 -229.739 25.1727 -228.965 25.1727C-210.444 25.1727 -201.024 29.1136 -191.968 32.9273C-182.731 36.8258 -173.993 40.47 -156.064 40.47C-138.134 40.47 -129.397 36.7834 -120.159 32.9273C-111.057 29.1136 -101.683 25.1727 -83.1617 25.1727C-64.6405 25.1727 -55.2206 29.1136 -46.1647 32.9273C-36.9269 36.8258 -28.1896 40.47 -10.2599 40.47C7.66974 40.47 16.407 36.7834 25.6449 32.9273C34.7462 29.1136 44.1206 25.1727 62.6419 25.1727C81.1631 25.1727 90.583 29.1136 99.6389 32.9273C108.877 36.8258 117.614 40.47 135.544 40.47C153.473 40.47 162.211 36.7834 171.448 32.9273C180.55 29.1136 189.924 25.1727 208.445 25.1727C226.967 25.1727 236.387 29.1136 245.443 32.9273C254.68 36.8258 263.418 40.47 281.347 40.47C299.277 40.47 308.014 36.7834 317.252 32.9273C326.353 29.1136 335.728 25.1727 354.249 25.1727C354.977 25.1727 355.614 25.7236 355.614 26.444C355.614 27.122 355.023 27.7152 354.249 27.7152C336.319 27.7152 327.582 31.4018 318.344 35.2579C309.243 39.0293 299.869 43.0125 281.347 43.0125Z" fill="#21E535"/>
      <path d="M291.814 97.3793C273.293 97.3793 263.873 93.4385 254.817 89.6248C245.579 85.7263 236.842 82.082 218.912 82.082C200.983 82.082 192.245 85.7687 183.007 89.6248C173.906 93.4385 164.532 97.3793 146.01 97.3793C127.489 97.3793 118.069 93.4385 109.013 89.6248C99.7755 85.7263 91.0382 82.082 73.1086 82.082C55.1789 82.082 46.4416 85.7687 37.2037 89.6248C28.1024 93.4385 18.728 97.3793 0.206772 97.3793C-18.3145 97.3793 -27.7344 93.4385 -36.7902 89.6248C-46.0281 85.7263 -54.7654 82.082 -72.6951 82.082C-90.6247 82.082 -99.362 85.7687 -108.6 89.6248C-117.701 93.4385 -127.076 97.3793 -145.597 97.3793C-164.118 97.3793 -173.538 93.4385 -182.594 89.6248C-192.014 85.7263 -200.751 82.0397 -218.681 82.0397C-219.409 82.0397 -220.046 81.4888 -220.046 80.7684C-220.046 80.0904 -219.454 79.4972 -218.681 79.4972C-200.159 79.4972 -190.74 83.438 -181.684 87.2518C-172.446 91.1502 -163.709 94.7945 -145.779 94.7945C-127.849 94.7945 -119.112 91.1079 -109.874 87.2518C-100.773 83.438 -91.3983 79.4972 -72.8771 79.4972C-54.3558 79.4972 -44.9359 83.438 -35.8801 87.2518C-26.6422 91.1502 -17.9049 94.7945 0.0247192 94.7945C17.9544 94.7945 26.6917 91.1079 35.9296 87.2518C45.0309 83.438 54.4053 79.4972 72.9265 79.4972C91.4478 79.4972 100.868 83.438 109.924 87.2518C119.161 91.1502 127.899 94.7945 145.828 94.7945C163.758 94.7945 172.495 91.1079 181.733 87.2518C190.835 83.438 200.209 79.4972 218.73 79.4972C237.251 79.4972 246.671 83.438 255.727 87.2518C264.965 91.1502 273.702 94.7945 291.632 94.7945C309.562 94.7945 318.299 91.1079 327.537 87.2518C336.638 83.438 346.013 79.4972 364.534 79.4972C365.262 79.4972 365.899 80.0481 365.899 80.7684C365.899 81.4464 365.307 82.0397 364.534 82.0397C346.604 82.0397 337.867 85.7263 328.629 89.5824C319.71 93.4385 310.335 97.3793 291.814 97.3793Z" fill="#21E535"/>
    </g>
  </g>
  <circle cx="157.592" cy="39.503" r="24" fill="white"/>
  <path d="M 163.307 36.345 L 163.307 29.665 C 163.307 28.173 162.714 26.742 161.659 25.687 C 160.604 24.632 159.173 24.04 157.682 24.04 C 156.19 24.04 154.759 24.632 153.704 25.687 C 152.649 26.742 152.057 28.173 152.057 29.665 L 152.057 36.345" stroke="#5CE66B" stroke-width="2" stroke-linecap="round" stroke-linejoin="round"/>
  <path d="M 165.557 36.345 L 149.807 36.345 C 147.943 36.345 146.432 37.856 146.432 39.72 L 146.432 52.095 C 146.432 53.959 147.943 55.47 149.807 55.47 L 165.557 55.47 C 167.421 55.47 168.932 53.959 168.932 52.095 L 168.932 39.72 C 168.932 37.856 167.421 36.345 165.557 36.345 Z" stroke="#5CE66B" stroke-width="2" stroke-linecap="round" stroke-linejoin="round"/>
  <path d="M 157.682 40.032 L 157.682 41.345" stroke="#5CE66B" stroke-miterlimit="10" stroke-linecap="round"/>
  <path d="M 157.682 50.095 L 157.682 51.407" stroke="#5CE66B" stroke-miterlimit="10" stroke-linecap="round"/>
  <path d="M 161.703 41.698 L 160.775 42.626" stroke="#5CE66B" stroke-miterlimit="10" stroke-linecap="round"/>
  <path d="M 154.588 48.813 L 153.66 49.741" stroke="#5CE66B" stroke-miterlimit="10" stroke-linecap="round"/>
  <path d="M 163.369 45.72 L 162.057 45.72" stroke="#5CE66B" stroke-miterlimit="10" stroke-linecap="round"/>
  <path d="M 153.307 45.72 L 151.994 45.72" stroke="#5CE66B" stroke-miterlimit="10" stroke-linecap="round"/>
  <path d="M 161.703 49.741 L 160.775 48.813" stroke="#5CE66B" stroke-miterlimit="10" stroke-linecap="round"/>
  <path d="M 154.588 42.626 L 153.66 41.698" stroke="#5CE66B" stroke-miterlimit="10" stroke-linecap="round"/>
  <path d="M 157.682 47.907 C 158.89 47.907 159.869 46.928 159.869 45.72 C 159.869 44.511 158.89 43.532 157.682 43.532 C 156.474 43.532 155.494 44.511 155.494 45.72 C 155.494 46.928 156.474 47.907 157.682 47.907 Z" stroke="#5CE66B" stroke-miterlimit="10" stroke-linecap="round"/>
</svg>