<?xml version="1.0" encoding="utf-8"?>
<svg viewBox="0 0 312 80" fill="none" xmlns="http://www.w3.org/2000/svg">
  <path fill-rule="evenodd" clip-rule="evenodd" d="M -0.037 8.046 C -0.037 3.628 3.545 0.046 7.963 0.046 L 303.963 0.046 C 308.381 0.046 311.963 3.628 311.963 8.046 L 311.963 80.046 L -0.037 80.046 L -0.037 8.046 Z" fill="#E7E9EA"/>
  <g opacity="0.7" transform="matrix(1, 0, 0, 1, -0.037065, 0.046008)">
    <mask id="mask0" style="mask-type:alpha" maskUnits="userSpaceOnUse" x="0" y="0" width="312" height="80">
      <path d="M0 8C0 3.58172 3.58172 0 8 0H304C308.418 0 312 3.58172 312 8V80H0V8Z" fill="white"/>
    </mask>
    <g mask="url(#mask0)">
      <path fill-rule="evenodd" clip-rule="evenodd" d="M-4.52173 79.9998H312V-0.000213623H-4.52173V79.9998Z" fill="#FF4063"/>
      <path d="M281.347 12.2061C262.826 12.2061 253.406 8.26522 244.35 4.4515C235.112 0.553023 226.375 -3.0912 208.445 -3.0912C190.516 -3.0912 181.778 0.595398 172.541 4.4515C163.439 8.26522 154.065 12.2061 135.544 12.2061C117.022 12.2061 107.602 8.26522 98.5466 4.4515C89.3087 0.553023 80.5714 -3.0912 62.6418 -3.0912C44.7121 -3.0912 35.9748 0.595398 26.7369 4.4515C17.6356 8.26522 8.26122 12.2061 -10.26 12.2061C-28.7813 12.2061 -38.2012 8.26522 -47.257 4.4515C-56.4949 0.553023 -65.2322 -3.0912 -83.1618 -3.0912C-101.092 -3.0912 -109.829 0.595398 -119.067 4.4515C-128.168 8.26522 -137.542 12.2061 -156.064 12.2061C-174.585 12.2061 -184.005 8.26522 -193.061 4.4515C-202.481 0.553023 -211.218 -3.13357 -229.147 -3.13357C-229.876 -3.13357 -230.513 -3.68444 -230.513 -4.40481C-230.513 -5.08281 -229.921 -5.67606 -229.147 -5.67606C-210.626 -5.67606 -201.206 -1.73521 -192.151 2.07851C-182.913 5.97698 -174.175 9.62122 -156.246 9.62122C-138.316 9.62122 -129.579 5.93461 -120.341 2.07851C-111.24 -1.73521 -101.865 -5.67606 -83.3439 -5.67606C-64.8226 -5.67606 -55.4027 -1.73521 -46.3469 2.07851C-37.109 5.97698 -28.3717 9.62122 -10.4421 9.62122C7.48761 9.62122 16.2249 5.93461 25.4628 2.07851C34.5641 -1.73521 43.9385 -5.67606 62.4597 -5.67606C80.981 -5.67606 90.4009 -1.73521 99.4567 2.07851C108.695 5.97698 117.432 9.62122 135.362 9.62122C153.291 9.62122 162.029 5.93461 171.266 2.07851C180.368 -1.73521 189.742 -5.67606 208.263 -5.67606C226.785 -5.67606 236.205 -1.73521 245.26 2.07851C254.498 5.97698 263.236 9.62122 281.165 9.62122C299.095 9.62122 307.832 5.93461 317.07 2.07851C326.171 -1.73521 335.546 -5.67606 354.067 -5.67606C354.795 -5.67606 355.432 -5.12518 355.432 -4.40481C355.432 -3.72682 354.841 -3.13357 354.067 -3.13357C336.137 -3.13357 327.4 0.55302 318.162 4.40912C309.243 8.26522 299.868 12.2061 281.347 12.2061Z" fill="#FF6895"/>
      <path d="M298.776 30.0035C280.255 30.0035 270.835 26.0627 261.78 22.2489C252.542 18.3505 243.804 14.7062 225.875 14.7062C207.945 14.7062 199.208 18.3928 189.97 22.2489C180.868 26.0627 171.494 30.0035 152.973 30.0035C134.452 30.0035 125.032 26.0627 115.976 22.2489C106.738 18.3505 98.0007 14.7062 80.071 14.7062C62.1414 14.7062 53.4041 18.3928 44.1662 22.2489C35.0649 26.0627 25.6905 30.0035 7.16925 30.0035C-11.352 30.0035 -20.7719 26.0627 -29.8277 22.2489C-39.0656 18.3505 -47.8029 14.7062 -65.7326 14.7062C-83.6622 14.7062 -92.3995 18.3928 -101.637 22.2489C-110.739 26.0627 -120.113 30.0035 -138.634 30.0035C-157.156 30.0035 -166.575 26.0627 -175.631 22.2489C-184.869 18.3505 -193.607 14.7062 -211.536 14.7062C-212.264 14.7062 -212.901 14.1554 -212.901 13.435C-212.901 12.757 -212.31 12.1638 -211.536 12.1638C-193.015 12.1638 -183.595 16.1046 -174.539 19.9183C-165.301 23.8168 -156.564 27.461 -138.634 27.461C-120.705 27.461 -111.967 23.7744 -102.73 19.9183C-93.6282 16.1046 -84.2538 12.1638 -65.7326 12.1638C-47.2113 12.1638 -37.7914 16.1046 -28.7356 19.9183C-19.4977 23.8168 -10.7604 27.461 7.16925 27.461C25.0989 27.461 33.8362 23.7744 43.0741 19.9183C52.1754 16.1046 61.5498 12.1638 80.071 12.1638C98.5923 12.1638 108.012 16.1046 117.068 19.9183C126.306 23.8168 135.043 27.461 152.973 27.461C170.903 27.461 179.64 23.7744 188.878 19.9183C197.979 16.1046 207.353 12.1638 225.875 12.1638C244.396 12.1638 253.816 16.1046 262.872 19.9183C272.11 23.8168 280.847 27.461 298.776 27.461C316.706 27.461 325.443 23.7744 334.681 19.9183C343.783 16.1046 353.157 12.1638 371.678 12.1638C372.406 12.1638 373.044 12.7146 373.044 13.435C373.044 14.113 372.452 14.7062 371.678 14.7062C353.749 14.7062 345.011 18.3928 335.773 22.2489C326.718 26.0627 317.298 30.0035 298.776 30.0035Z" fill="#FF6895"/>
      <path d="M291.04 78.6496C272.519 78.6496 263.099 74.7087 254.043 70.895C244.805 66.9965 236.068 63.3523 218.138 63.3523C200.209 63.3523 191.471 67.0389 182.234 70.895C173.132 74.7087 163.758 78.6496 145.237 78.6496C126.715 78.6496 117.296 74.7087 108.24 70.895C99.0018 66.9965 90.2645 63.3523 72.3348 63.3523C54.4052 63.3523 45.6679 67.0389 36.43 70.895C27.3287 74.7087 17.9543 78.6496 -0.566956 78.6496C-19.0882 78.6496 -28.5081 74.7087 -37.5639 70.895C-46.8018 66.9965 -55.5391 63.3523 -73.4688 63.3523C-91.3984 63.3523 -100.136 67.0389 -109.374 70.895C-118.475 74.7087 -127.849 78.6496 -146.371 78.6496C-164.892 78.6496 -174.312 74.7087 -183.368 70.895C-192.605 66.9965 -201.343 63.3523 -219.272 63.3523C-220 63.3523 -220.638 62.8014 -220.638 62.0811C-220.638 61.4031 -220.046 60.8098 -219.272 60.8098C-200.751 60.8098 -191.331 64.7507 -182.275 68.5644C-173.038 72.4629 -164.3 76.1071 -146.371 76.1071C-128.441 76.1071 -119.704 72.4205 -110.466 68.5644C-101.364 64.7507 -91.99 60.8098 -73.4688 60.8098C-54.9475 60.8098 -45.5276 64.7507 -36.4718 68.5644C-27.2339 72.4629 -18.4966 76.1071 -0.566956 76.1071C17.3627 76.1071 26.1 72.4205 35.3379 68.5644C44.4392 64.7507 53.8136 60.8098 72.3348 60.8098C90.8561 60.8098 100.276 64.7507 109.332 68.5644C118.57 72.4629 127.307 76.1071 145.237 76.1071C163.166 76.1071 171.904 72.4205 181.141 68.5644C190.243 64.7507 199.617 60.8098 218.138 60.8098C236.66 60.8098 246.08 64.7507 255.135 68.5644C264.373 72.4629 273.111 76.1071 291.04 76.1071C308.97 76.1071 317.707 72.4205 326.945 68.5644C336.046 64.7507 345.421 60.8098 363.942 60.8098C364.67 60.8098 365.307 61.3607 365.307 62.0811C365.307 62.7591 364.716 63.3523 363.942 63.3523C346.012 63.3523 337.275 67.0389 328.037 70.895C318.981 74.7087 309.562 78.6496 291.04 78.6496Z" fill="#FF6895"/>
      <path d="M298.776 60.8098C280.255 60.8098 270.835 56.8689 261.78 53.0552C252.542 49.1567 243.804 45.5125 225.875 45.5125C207.945 45.5125 199.208 49.1991 189.97 53.0552C180.868 56.8689 171.494 60.8098 152.973 60.8098C134.452 60.8098 125.032 56.8689 115.976 53.0552C106.738 49.1567 98.0007 45.5125 80.071 45.5125C62.1414 45.5125 53.4041 49.1991 44.1662 53.0552C35.0649 56.8689 25.6905 60.8098 7.16925 60.8098C-11.352 60.8098 -20.7719 56.8689 -29.8277 53.0552C-39.0656 49.1567 -47.8029 45.5125 -65.7326 45.5125C-83.6622 45.5125 -92.3995 49.1991 -101.637 53.0552C-110.739 56.8689 -120.113 60.8098 -138.634 60.8098C-157.156 60.8098 -166.575 56.8689 -175.631 53.0552C-184.869 49.1567 -193.607 45.5125 -211.536 45.5125C-212.264 45.5125 -212.901 44.9616 -212.901 44.2413C-212.901 43.5633 -212.31 42.97 -211.536 42.97C-193.015 42.97 -183.595 46.9109 -174.539 50.7246C-165.301 54.6231 -156.564 58.2673 -138.634 58.2673C-120.705 58.2673 -111.967 54.5807 -102.73 50.7246C-93.6282 46.9109 -84.2538 42.97 -65.7326 42.97C-47.2113 42.97 -37.7914 46.9109 -28.7356 50.7246C-19.4977 54.6231 -10.7604 58.2673 7.16925 58.2673C25.0989 58.2673 33.8362 54.5807 43.0741 50.7246C52.1754 46.9109 61.5498 42.97 80.071 42.97C98.5923 42.97 108.012 46.9109 117.068 50.7246C126.306 54.6231 135.043 58.2673 152.973 58.2673C170.903 58.2673 179.64 54.5807 188.878 50.7246C197.979 46.9109 207.353 42.97 225.875 42.97C244.396 42.97 253.816 46.9109 262.872 50.7246C272.11 54.6231 280.847 58.2673 298.776 58.2673C316.706 58.2673 325.443 54.5807 334.681 50.7246C343.783 46.9109 353.157 42.97 371.678 42.97C372.406 42.97 373.044 43.5209 373.044 44.2413C373.044 44.9193 372.452 45.5125 371.678 45.5125C353.749 45.5125 345.011 49.1991 335.773 53.0552C326.718 56.8689 317.298 60.8098 298.776 60.8098Z" fill="#FF6895"/>
      <path d="M281.347 43.0125C262.826 43.0125 253.406 39.0717 244.35 35.258C235.112 31.3595 226.375 27.7153 208.445 27.7153C190.516 27.7153 181.779 31.4019 172.541 35.258C163.439 39.0717 154.065 43.0125 135.544 43.0125C117.022 43.0125 107.603 39.0717 98.5467 35.258C89.3088 31.3595 80.5715 27.7153 62.6419 27.7153C44.7122 27.7153 35.9749 31.4019 26.737 35.258C17.6357 39.0717 8.26132 43.0125 -10.2599 43.0125C-28.7812 43.0125 -38.2011 39.0717 -47.2569 35.258C-56.4948 31.3595 -65.2321 27.7153 -83.1617 27.7153C-101.091 27.7153 -109.829 31.4019 -119.067 35.258C-128.168 39.0717 -137.542 43.0125 -156.064 43.0125C-174.585 43.0125 -184.005 39.0717 -193.061 35.258C-202.298 31.3595 -211.036 27.7153 -228.965 27.7153C-229.693 27.7153 -230.331 27.1644 -230.331 26.444C-230.331 25.766 -229.739 25.1728 -228.965 25.1728C-210.444 25.1728 -201.024 29.1136 -191.968 32.9274C-182.731 36.8258 -173.993 40.4701 -156.064 40.4701C-138.134 40.4701 -129.397 36.7835 -120.159 32.9274C-111.057 29.1136 -101.683 25.1728 -83.1617 25.1728C-64.6405 25.1728 -55.2206 29.1136 -46.1647 32.9274C-36.9269 36.8258 -28.1896 40.4701 -10.2599 40.4701C7.66974 40.4701 16.407 36.7835 25.6449 32.9274C34.7462 29.1136 44.1206 25.1728 62.6419 25.1728C81.1631 25.1728 90.583 29.1136 99.6389 32.9274C108.877 36.8258 117.614 40.4701 135.544 40.4701C153.473 40.4701 162.211 36.7835 171.448 32.9274C180.55 29.1136 189.924 25.1728 208.445 25.1728C226.967 25.1728 236.387 29.1136 245.443 32.9274C254.68 36.8258 263.418 40.4701 281.347 40.4701C299.277 40.4701 308.014 36.7835 317.252 32.9274C326.353 29.1136 335.728 25.1728 354.249 25.1728C354.977 25.1728 355.614 25.7237 355.614 26.444C355.614 27.122 355.023 27.7153 354.249 27.7153C336.319 27.7153 327.582 31.4019 318.344 35.258C309.243 39.0293 299.869 43.0125 281.347 43.0125Z" fill="#FF6895"/>
      <path d="M291.814 97.3794C273.293 97.3794 263.873 93.4385 254.817 89.6248C245.579 85.7263 236.842 82.0821 218.912 82.0821C200.983 82.0821 192.245 85.7687 183.007 89.6248C173.906 93.4385 164.532 97.3794 146.01 97.3794C127.489 97.3794 118.069 93.4385 109.013 89.6248C99.7755 85.7263 91.0382 82.0821 73.1086 82.0821C55.1789 82.0821 46.4416 85.7687 37.2037 89.6248C28.1024 93.4385 18.728 97.3794 0.206772 97.3794C-18.3145 97.3794 -27.7344 93.4385 -36.7902 89.6248C-46.0281 85.7263 -54.7654 82.0821 -72.6951 82.0821C-90.6247 82.0821 -99.362 85.7687 -108.6 89.6248C-117.701 93.4385 -127.076 97.3794 -145.597 97.3794C-164.118 97.3794 -173.538 93.4385 -182.594 89.6248C-192.014 85.7263 -200.751 82.0397 -218.681 82.0397C-219.409 82.0397 -220.046 81.4888 -220.046 80.7685C-220.046 80.0905 -219.454 79.4972 -218.681 79.4972C-200.159 79.4972 -190.74 83.4381 -181.684 87.2518C-172.446 91.1503 -163.709 94.7945 -145.779 94.7945C-127.849 94.7945 -119.112 91.1079 -109.874 87.2518C-100.773 83.4381 -91.3983 79.4972 -72.8771 79.4972C-54.3558 79.4972 -44.9359 83.4381 -35.8801 87.2518C-26.6422 91.1503 -17.9049 94.7945 0.0247192 94.7945C17.9544 94.7945 26.6917 91.1079 35.9296 87.2518C45.0309 83.4381 54.4053 79.4972 72.9265 79.4972C91.4478 79.4972 100.868 83.4381 109.924 87.2518C119.161 91.1503 127.899 94.7945 145.828 94.7945C163.758 94.7945 172.495 91.1079 181.733 87.2518C190.835 83.4381 200.209 79.4972 218.73 79.4972C237.251 79.4972 246.671 83.4381 255.727 87.2518C264.965 91.1503 273.702 94.7945 291.632 94.7945C309.562 94.7945 318.299 91.1079 327.537 87.2518C336.638 83.4381 346.013 79.4972 364.534 79.4972C365.262 79.4972 365.899 80.0481 365.899 80.7685C365.899 81.4465 365.307 82.0397 364.534 82.0397C346.604 82.0397 337.867 85.7263 328.629 89.5824C319.71 93.4385 310.335 97.3794 291.814 97.3794Z" fill="#FF6895"/>
    </g>
  </g>
  <circle cx="157.592" cy="39.503" r="24" fill="white"/>
  <path d="M 163.025 35.851 L 163.025 29.171 C 163.025 27.679 162.432 26.249 161.377 25.194 C 160.323 24.139 158.892 23.546 157.4 23.546 C 155.908 23.546 154.477 24.139 153.422 25.194 C 152.368 26.249 151.775 27.679 151.775 29.171 L 151.775 35.851" stroke="#F8738C" stroke-width="2" stroke-linecap="round" stroke-linejoin="round"/>
  <path d="M 165.275 35.851 L 149.525 35.851 C 147.661 35.851 146.15 37.362 146.15 39.226 L 146.15 51.601 C 146.15 53.465 147.661 54.976 149.525 54.976 L 165.275 54.976 C 167.139 54.976 168.65 53.465 168.65 51.601 L 168.65 39.226 C 168.65 37.362 167.139 35.851 165.275 35.851 Z" stroke="#F8738C" stroke-width="2" stroke-linecap="round" stroke-linejoin="round"/>
  <path d="M 154.637 42.128 C 154.234 42.128 153.915 42.458 153.915 42.857 C 153.915 43.27 154.234 43.586 154.637 43.586 C 155.054 43.586 155.373 43.27 155.373 42.857 C 155.373 42.458 155.054 42.128 154.637 42.128 Z M 155.096 45.085 L 154.22 45.085 C 154.276 45.91 154.04 46.433 153.401 46.901 L 152.956 47.231 C 151.775 48.07 151.4 48.647 151.4 49.596 C 151.4 50.958 152.623 51.976 154.248 51.976 C 155.471 51.976 156.554 51.398 157.305 50.353 L 156.527 49.83 C 155.929 50.642 155.165 51.068 154.29 51.068 C 153.22 51.068 152.386 50.422 152.386 49.583 C 152.386 48.964 152.664 48.537 153.428 47.96 L 154.012 47.533 C 154.873 46.901 155.165 46.227 155.096 45.085 Z" fill="#F8738C"/>
  <path d="M 160.454 46.117 L 161.33 46.117 C 161.274 45.291 161.51 44.769 162.149 44.301 L 162.594 43.971 C 163.775 43.132 164.15 42.554 164.15 41.605 C 164.15 40.244 162.927 39.226 161.302 39.226 C 160.079 39.226 158.996 39.804 158.245 40.849 L 159.023 41.371 C 159.621 40.56 160.385 40.134 161.26 40.134 C 162.33 40.134 163.164 40.78 163.164 41.619 C 163.164 42.238 162.886 42.664 162.122 43.242 L 161.538 43.668 C 160.677 44.301 160.385 44.975 160.454 46.117 Z M 160.913 49.074 C 161.316 49.074 161.635 48.744 161.635 48.345 C 161.635 47.932 161.316 47.616 160.913 47.616 C 160.496 47.616 160.177 47.932 160.177 48.345 C 160.177 48.744 160.496 49.074 160.913 49.074 Z" fill="#F8738C"/>
</svg>