<svg width="24" height="24" viewBox="0 0 24 24" fill="none" xmlns="http://www.w3.org/2000/svg">
    <path fill-rule="evenodd" clip-rule="evenodd" d="M12 24C18.6274 24 24 18.6274 24 12C24 5.37258 18.6274 0 12 0C5.37258 0 0 5.37258 0 12C0 18.6274 5.37258 24 12 24Z" fill="#742FE1"/>
    <path d="M10.0446 10.8333H7.28725C6.85219 10.8333 6.5 10.4803 6.5 10.045V7.28837C6.5 6.8519 6.85182 6.5 7.28725 6.5H10.0446C10.4797 6.5 10.8333 6.85302 10.8333 7.28837V10.045C10.8333 10.4792 10.4793 10.8333 10.0446 10.8333Z" stroke="white"/>
    <path d="M10.0446 17.5H7.28725C6.85219 17.5 6.5 17.147 6.5 16.7116V13.955C6.5 13.5186 6.85182 13.1667 7.28725 13.1667H10.0446C10.4797 13.1667 10.8333 13.5197 10.8333 13.955V16.7116C10.8333 17.1459 10.4793 17.5 10.0446 17.5Z" stroke="white"/>
    <path d="M16.7113 10.8333H13.9539C13.5189 10.8333 13.1667 10.4803 13.1667 10.045V7.28837C13.1667 6.8519 13.5185 6.5 13.9539 6.5H16.7113C17.1464 6.5 17.5 6.85302 17.5 7.28837V10.045C17.5 10.4792 17.146 10.8333 16.7113 10.8333Z" stroke="white"/>
    <path d="M16.7113 17.5H13.9539C13.5189 17.5 13.1667 17.147 13.1667 16.7116V13.955C13.1667 13.5186 13.5185 13.1667 13.9539 13.1667H16.7113C17.1464 13.1667 17.5 13.5197 17.5 13.955V16.7116C17.5 17.1459 17.146 17.5 16.7113 17.5Z" stroke="white"/>
  </svg>
