<svg width="48" height="48" viewBox="0 0 48 48" fill="none" xmlns="http://www.w3.org/2000/svg">
<path fill-rule="evenodd" clip-rule="evenodd" d="M21.6218 45.0152L2.98481 26.3782C1.67173 25.0651 1.67173 22.9357 2.98481 21.6227L21.6218 2.98481C22.9349 1.67173 25.0643 1.67173 26.3773 2.98481L45.0152 21.6227C46.3283 22.9357 46.3283 25.0651 45.0152 26.3782L26.3773 45.0152C25.0643 46.3283 22.9349 46.3283 21.6218 45.0152Z" fill="#E4D2FF"/>
<path d="M20.25 32.25C20.6642 32.25 21 31.9142 21 31.5C21 31.0858 20.6642 30.75 20.25 30.75C19.8358 30.75 19.5 31.0858 19.5 31.5C19.5 31.9142 19.8358 32.25 20.25 32.25Z" stroke="#210049" stroke-width="1.5" stroke-linecap="round" stroke-linejoin="round"/>
<path d="M30.75 32.25C31.1642 32.25 31.5 31.9142 31.5 31.5C31.5 31.0858 31.1642 30.75 30.75 30.75C30.3358 30.75 30 31.0858 30 31.5C30 31.9142 30.3358 32.25 30.75 32.25Z" stroke="#210049" stroke-width="1.5" stroke-linecap="round" stroke-linejoin="round"/>
<path d="M14.25 15.75H17.25L19.5 28.5H31.5" stroke="#210049" stroke-width="1.5" stroke-linecap="round" stroke-linejoin="round"/>
<path d="M19.5 25.5H31.1925C31.2792 25.5001 31.3633 25.4701 31.4304 25.4151C31.4975 25.3601 31.5434 25.2836 31.5605 25.1986L32.9105 18.4486C32.9214 18.3942 32.92 18.338 32.9066 18.2841C32.8931 18.2303 32.8679 18.1801 32.8327 18.1372C32.7975 18.0943 32.7532 18.0597 32.703 18.036C32.6528 18.0122 32.598 18 32.5425 18H18" stroke="#210049" stroke-width="1.5" stroke-linecap="round" stroke-linejoin="round"/>
</svg>
