<svg width="88" height="88" viewBox="0 0 88 88" fill="none" xmlns="http://www.w3.org/2000/svg">
<path d="M22.0073 81.0919L2.52126 31.8315C1.00778 27.9549 2.89963 23.5111 6.77791 21.9983L56.1551 2.52102C60.0334 1.00823 64.4792 2.89922 65.9927 6.77576L85.4787 56.2253C86.9922 60.1019 85.1004 64.5457 81.2221 66.0585L31.8449 85.4412C27.872 87.0485 23.5208 85.063 22.0073 81.0919Z" fill="#D5F4F7"/>
<path d="M81.5059 46.0139C73.8439 47.6213 65.3306 45.3521 57.8578 48.2831C53.6011 49.985 50.1958 53.2943 46.6013 56.0362C42.1554 59.3454 37.2366 60.6691 31.7503 60.8582C25.8856 61.0473 19.8317 60.5746 14.0615 61.0473L15.8588 65.6803C22.9532 65.2075 30.1422 66.3421 37.1421 65.3966C41.1149 64.8293 44.804 63.4111 48.0202 61.0473C52.1822 58.1163 55.7767 54.3343 60.5064 52.6324C67.79 50.1741 75.9249 52.3488 83.3977 50.7414L81.5059 46.0139Z" fill="#ACEAEF"/>
<path d="M36.1015 53.6725C44.331 51.4978 49.3444 43.272 57.0064 40.2464C63.6279 37.599 71.2898 39.3009 77.7221 36.4644L76.0194 31.926C69.0196 35.2353 60.0333 32.8715 53.0335 36.6535C48.966 38.8282 45.6553 42.232 42.0608 45.0684C37.7096 48.3777 32.9799 49.7014 27.5882 49.6068C21.4397 49.5123 15.0074 47.9049 8.85889 47.3376L10.7507 52.2542C19.1695 53.1997 27.8719 55.8471 36.1015 53.6725Z" fill="#ACEAEF"/>
<path d="M6.77821 42.2318C12.8321 42.2318 19.0752 42.8937 24.9399 42.0427C28.9128 41.4754 32.6019 40.0572 35.8181 37.6934C39.9801 34.7624 43.5746 30.9804 48.3042 29.2785C56.5338 26.5366 65.8984 29.6567 73.9388 26.442L72.1415 21.8091C63.7228 24.9292 53.9798 21.5254 45.6557 24.9292C41.399 26.6311 37.9937 29.9404 34.3992 32.6823C29.9533 35.9916 25.0345 37.3152 19.5482 37.5043C14.6294 37.6934 9.80517 37.3152 4.98096 37.5043L6.77821 42.2318Z" fill="#ACEAEF"/>
<path d="M38.5 55L36 64" stroke="#210049"/>
<path d="M47 36L53 30" stroke="#210049" stroke-linecap="round" stroke-linejoin="round"/>
<path d="M59.9944 53.8342L59.5215 52.953L59.9944 53.8342ZM31.6776 49.044C24.2179 41.5843 22.9215 30.2319 27.7686 21.2001L26.0064 20.2544C20.7651 30.0206 22.1462 42.341 30.2634 50.4582L31.6776 49.044ZM59.5215 52.953C50.4898 57.8001 39.1374 56.5037 31.6776 49.044L30.2634 50.4582C38.3807 58.5755 50.7011 59.9566 60.4673 54.7153L59.5215 52.953ZM61.0672 50.1493L30.5723 19.6544L29.1581 21.0687L59.653 51.5636L61.0672 50.1493ZM60.4673 54.7153C62.2322 53.7681 62.3814 51.4635 61.0672 50.1493L59.653 51.5636C60.1224 52.033 59.9792 52.7074 59.5215 52.953L60.4673 54.7153ZM27.7686 21.2001C28.0142 20.7425 28.6887 20.5992 29.1581 21.0687L30.5723 19.6544C29.2581 18.3403 26.9536 18.4895 26.0064 20.2544L27.7686 21.2001Z" fill="#210049"/>
<circle cx="55" cy="28" r="3" stroke="#210049" stroke-width="2"/>
<path d="M48 68V66.5C48 65.3954 47.1046 64.5 46 64.5H28C26.8954 64.5 26 65.3954 26 66.5V68" stroke="#210049" stroke-width="2" stroke-linecap="round"/>
<path d="M62.2 25.0001C62.2 25.0001 62.3166 23.7168 60.8 22.2001C59.2833 20.6834 58 20.8001 58 20.8001" stroke="#210049" stroke-linecap="round" stroke-linejoin="round"/>
<path d="M65.7001 24.2999C65.7001 24.2999 66.1279 21.9277 63.6001 19.3999C61.0723 16.8721 58.7001 17.2999 58.7001 17.2999" stroke="#210049" stroke-linecap="round" stroke-linejoin="round"/>
<path d="M69.2 25C69.2 25 70.4445 20.6444 66.4 16.6C62.3556 12.5556 58 13.8 58 13.8" stroke="#210049" stroke-linecap="round" stroke-linejoin="round"/>
</svg>
