<?xml version="1.0" encoding="utf-8"?>
<!-- Generator: Adobe Illustrator 22.0.1, SVG Export Plug-In . SVG Version: 6.00 Build 0)  -->
<svg version="1.1" id="Layer_1" xmlns="http://www.w3.org/2000/svg" xmlns:xlink="http://www.w3.org/1999/xlink" x="0px" y="0px"
	 viewBox="0 0 50 50" style="enable-background:new 0 0 50 50;" xml:space="preserve">
<style type="text/css">
	.st0{fill:#2FCAD7;}
	.st1{opacity:0.8;}
	.st2{opacity:0.8082;fill:#77E6EF;enable-background:new    ;}
	.st3{opacity:0.5;fill:none;stroke:#FF585F;stroke-width:2.9065;enable-background:new    ;}
	.st4{fill:#F8E71C;}
	.st5{fill:none;stroke:#210049;}
	.st6{fill:none;stroke:#210049;stroke-width:0.5;}
	.st7{fill:none;stroke:#210049;stroke-width:0.5;stroke-linecap:round;stroke-linejoin:round;}
	.st8{fill:#210049;}
	.st9{fill:none;stroke:#210049;stroke-width:0.5;stroke-miterlimit:10;}
</style>
<g>
	<path class="st0" d="M1.8,28.9l19.4,19.2c2.1,2,5.6,2,7.6,0l19.4-19.2c2.1-2,2.1-5.5,0-7.6L28.9,2.1c-2.1-2-5.6-2-7.6,0L1.8,21.3
		C-0.3,23.5-0.3,26.8,1.8,28.9z"/>
	<g class="st1">
		<path class="st2" d="M19.4,16.7c0,2.6-0.7,5.1-2.1,7.3c-0.5,0.8-1.6-0.2-1.1-1c1.1-1.8,1.7-4,1.7-6.2C18,15.9,19.4,15.7,19.4,16.7
			z"/>
		<path class="st2" d="M26.6,13.1c1.1,1.8,1.3,3.8,0.6,5.8c-0.4,0.9-1.8,0.3-1.5-0.6c0.5-1.4,0.3-3-0.5-4.2
			C24.7,13.2,26,12.3,26.6,13.1z"/>
		<path class="st2" d="M33.1,16.6c0.5,1.9,1.3,3.5,2.5,4.9c0.6,0.7-0.6,1.6-1.2,0.9c-1.3-1.5-2.2-3.3-2.7-5.3
			C31.5,16.1,32.9,15.6,33.1,16.6z"/>
		<path class="st2" d="M41.4,19c1,2.4,1.7,5.7-0.4,7.6c-0.7,0.6-1.5-0.7-0.8-1.3c1.6-1.4,0.6-4-0.1-5.7C39.8,18.6,41,18.1,41.4,19z"
			/>
		<path class="st2" d="M30.4,23.3l-0.1-0.1c-0.3-0.3-0.4-0.8-0.1-1.1c0.3-0.3,0.7-0.4,1.1-0.1l0.1,0.1c0.3,0.3,0.4,0.8,0.1,1.1
			C31.2,23.5,30.8,23.6,30.4,23.3z"/>
		<path class="st2" d="M35,11.8c0,0.1,0,0.1,0,0.2c0,0.4-0.3,0.8-0.7,0.8s-0.8-0.3-0.9-0.7c0-0.1,0-0.1,0-0.2c0-0.4,0.3-0.8,0.7-0.8
			S34.9,11.4,35,11.8z"/>
		<path class="st2" d="M29.2,9.3c0,0.1,0,0.1,0,0.2c0,0.4-0.3,0.8-0.7,0.8c-0.4,0-0.8-0.3-0.9-0.7c0-0.1,0-0.1,0-0.2
			c0-0.4,0.3-0.8,0.7-0.8C28.8,8.6,29.2,8.9,29.2,9.3z"/>
		<path class="st2" d="M12,26.6c0,0.1,0,0.1,0,0.2c0,0.4-0.3,0.8-0.7,0.8s-0.8-0.3-0.9-0.7c0-0.1,0-0.1,0-0.2c0-0.4,0.3-0.8,0.7-0.8
			S11.9,26.2,12,26.6z"/>
		<path class="st2" d="M28,34l-0.1-0.1c-0.3-0.3-0.4-0.8-0.1-1.1s0.7-0.4,1.1-0.1l0.1,0.1c0.3,0.3,0.4,0.8,0.1,1.1
			C28.8,34.2,28.3,34.2,28,34z"/>
		<path class="st2" d="M23.1,24.1L23,24c-0.3-0.3-0.4-0.8-0.1-1.1c0.3-0.3,0.7-0.4,1.1-0.1l0.1,0.1c0.3,0.3,0.4,0.8,0.1,1.1
			C23.8,24.3,23.4,24.4,23.1,24.1z"/>
		<path class="st2" d="M15.7,29l-0.1-0.1c-0.3-0.3-0.4-0.8-0.1-1.1c0.3-0.3,0.7-0.4,1.1-0.1l0.1,0.1c0.3,0.3,0.4,0.8,0.1,1.1
			S16,29.3,15.7,29z"/>
		<path class="st2" d="M46.9,25.7l-0.1-0.1c-0.3-0.3-0.4-0.8-0.1-1.1c0.3-0.3,0.7-0.4,1.1-0.1l0.1,0.1c0.3,0.3,0.4,0.8,0.1,1.1
			C47.7,26,47.2,26,46.9,25.7z"/>
		<path class="st2" d="M22.2,15.9l-0.1-0.1c-0.3-0.3-0.4-0.8-0.1-1.1s0.7-0.4,1.1-0.1l0.1,0.1c0.3,0.3,0.4,0.8,0.1,1.1
			C23,16.1,22.6,16.2,22.2,15.9z"/>
	</g>
	<path class="st3" d="M35,44c2.7,0,4.9-2.2,4.9-4.9s-2.2-4.9-4.9-4.9s-4.9,2.2-4.9,4.9S32.3,44,35,44z"/>
	<path class="st4" d="M6.3,9.1l-2,1.8C4.2,11,4,11,3.8,10.9c-0.1-0.1-0.1-0.1-0.1-0.2L3.9,8L1.8,6.7C1.6,6.6,1.6,6.4,1.7,6.2
		c0-0.1,0.1-0.1,0.2-0.1l2.6-0.5L4.9,3c0-0.2,0.2-0.3,0.4-0.3c0.1,0,0.2,0.1,0.2,0.2l1.4,2.4l2.5-0.5c0.2,0,0.4,0.1,0.4,0.3
		c0,0.1,0,0.2-0.1,0.3L8.3,7.3l0.9,2.4c0.1,0.2,0,0.4-0.2,0.4c-0.1,0-0.2,0-0.2,0L6.3,9.1z"/>
	<g>
		<path class="st5" d="M42.5,36H7.9c-1,0-1.9-0.8-1.9-1.8V14.9c0-1,0.9-1.8,1.9-1.8h34.6c1,0,1.9,0.8,1.9,1.8v19.3
			C44.4,35.2,43.5,36,42.5,36z"/>
		<path class="st6" d="M38.5,29.9c0,1-1,1.9-2.1,1.9c-1.2,0-2.1-0.8-2.1-1.9c0-1,1-1.9,2.1-1.9C37.5,28.1,38.5,28.9,38.5,29.9z"/>
		<path class="st6" d="M41.7,29.9c0,1-1,1.9-2.1,1.9c-1.2,0-2.1-0.8-2.1-1.9c0-1,1-1.9,2.1-1.9C40.7,28.1,41.7,28.9,41.7,29.9z"/>
		<path class="st6" d="M12.5,23.8h-2.3c-0.3,0-0.5-0.2-0.5-0.5v-1.7c0-0.3,0.2-0.5,0.5-0.5h2.3c0.2,0,0.5,0.2,0.5,0.5v1.7
			C12.9,23.6,12.7,23.8,12.5,23.8z"/>
		<path class="st7" d="M9.7,31.8h20.8"/>
		<path d="M13.8,27"/>
		<g>
			<path class="st8" d="M10,27c-0.1,0-0.1,0-0.2,0.1c0,0.1-0.1,0.1,0,0.2c0,0.1,0,0.1,0.1,0.1l0,0l0.6,0.9l-0.6,0.9l0,0l-0.1,0.1
				c0,0.1,0,0.1,0,0.2s0.1,0.1,0.2,0.1c0.1,0,0.1,0,0.2,0c0,0,0,0,0.1-0.1l0.6-0.8l0.6,0.8c0,0,0,0,0.1,0.1c0.1,0,0.1,0.1,0.2,0
				c0.1,0,0.1,0,0.2-0.1c0-0.1,0.1-0.1,0-0.2c0-0.1,0-0.1-0.1-0.1l0,0l-0.6-0.9l0.6-0.9l0,0l0.1-0.1c0-0.1,0-0.1,0-0.2
				S11.9,27,11.8,27l0,0c-0.1,0-0.1,0-0.2,0c0,0,0,0-0.1,0.1l-0.6,0.8l-0.6-0.8c0,0,0,0-0.1-0.1C10.2,27,10.1,27,10,27L10,27z"/>
			<path class="st8" d="M12.7,27c-0.1,0-0.1,0-0.2,0.1c0,0.1-0.1,0.1,0,0.2c0,0.1,0,0.1,0.1,0.1l0,0l0.6,0.9l-0.6,0.9l0,0l-0.1,0.1
				c0,0.1,0,0.1,0,0.2s0.1,0.1,0.2,0.1c0.1,0,0.1,0,0.2,0c0,0,0,0,0.1-0.1l0.6-0.8l0.6,0.8c0,0,0,0,0.1,0.1c0.1,0,0.1,0.1,0.2,0
				c0.1,0,0.1,0,0.2-0.1c0-0.1,0.1-0.1,0-0.2c0-0.1,0-0.1-0.1-0.1l0,0L14,28.3l0.6-0.9l0,0l0.1-0.1c0-0.1,0-0.1,0-0.2
				S14.6,27,14.5,27l0,0c-0.1,0-0.1,0-0.2,0c0,0,0,0-0.1,0.1l-0.6,0.8L13,27.1c0,0,0,0-0.1-0.1C12.8,27,12.8,27,12.7,27L12.7,27z"/>
			<path class="st8" d="M15.3,27c-0.1,0-0.1,0-0.2,0.1c0,0.1-0.1,0.1,0,0.2c0,0.1,0,0.1,0.1,0.1l0,0l0.6,0.9l-0.6,0.9l0,0l-0.1,0.1
				c0,0.1,0,0.1,0,0.2s0.1,0.1,0.2,0.1c0.1,0,0.1,0,0.2,0c0,0,0,0,0.1-0.1l0.6-0.8l0.6,0.8c0,0,0,0,0.1,0.1c0.1,0,0.1,0.1,0.2,0
				c0.1,0,0.1,0,0.2-0.1c0-0.1,0.1-0.1,0-0.2c0-0.1,0-0.1-0.1-0.1l0,0l-0.6-0.9l0.6-0.9l0,0l0.1-0.1c0-0.1,0-0.1,0-0.2
				S17.2,27,17.1,27l0,0c-0.1,0-0.1,0-0.2,0c0,0,0,0-0.1,0.1l-0.6,0.8l-0.6-0.8c0,0,0,0-0.1-0.1C15.5,27,15.4,27,15.3,27
				C15.4,27,15.4,27,15.3,27z"/>
			<path class="st8" d="M18,27c-0.1,0-0.1,0-0.2,0.1c0,0.1-0.1,0.1,0,0.2c0,0.1,0,0.1,0.1,0.1l0,0l0.6,0.9l-0.6,0.9l0,0l-0.1,0.1
				c0,0.1,0,0.1,0,0.2s0.1,0.1,0.2,0.1s0.1,0,0.2,0c0,0,0,0,0.1-0.1l0.6-0.8l0.6,0.8c0,0,0,0,0.1,0.1c0.1,0,0.1,0.1,0.2,0
				c0.1,0,0.1,0,0.2-0.1c0-0.1,0.1-0.1,0-0.2c0-0.1,0-0.1-0.1-0.1l0,0l-0.6-0.9l0.6-0.9l0,0l0.1-0.1c0-0.1,0-0.1,0-0.2
				S19.9,27,19.8,27l0,0c-0.1,0-0.1,0-0.2,0c0,0,0,0-0.1,0.1l-0.6,0.8l-0.6-0.8c0,0,0,0-0.1-0.1C18.2,27,18.1,27,18,27L18,27z"/>
			<path class="st8" d="M20.7,27c-0.1,0-0.1,0-0.2,0.1c0,0.1-0.1,0.1,0,0.2c0,0.1,0,0.1,0.1,0.1l0,0l0.6,0.9l-0.6,0.9l0,0l-0.1,0.1
				c0,0.1,0,0.1,0,0.2s0.1,0.1,0.2,0.1s0.1,0,0.2,0c0,0,0,0,0.1-0.1l0.6-0.8l0.6,0.8c0,0,0,0,0.1,0.1c0.1,0,0.1,0.1,0.2,0
				c0.1,0,0.1,0,0.2-0.1c0-0.1,0.1-0.1,0-0.2c0-0.1,0-0.1-0.1-0.1l0,0L22,28.3l0.6-0.9l0,0l0.1-0.1c0-0.1,0-0.1,0-0.2
				S22.6,27,22.5,27l0,0c-0.1,0-0.1,0-0.2,0c0,0,0,0-0.1,0.1l-0.6,0.8L21,27.1c0,0,0,0-0.1-0.1C20.8,27.1,20.8,27,20.7,27L20.7,27z"
				/>
			<path class="st8" d="M23.3,27c-0.1,0-0.1,0-0.2,0.1c0,0.1-0.1,0.1,0,0.2c0,0.1,0,0.1,0.1,0.1l0,0l0.6,0.9l-0.6,0.9l0,0l-0.1,0.1
				c0,0.1,0,0.1,0,0.2s0.1,0.1,0.2,0.1s0.1,0,0.2,0c0,0,0,0,0.1-0.1l0.6-0.8l0.6,0.8c0,0,0,0,0.1,0.1c0.1,0,0.1,0.1,0.2,0
				c0.1,0,0.1,0,0.2-0.1c0-0.1,0.1-0.1,0-0.2c0-0.1,0-0.1-0.1-0.1l0,0l-0.6-0.9l0.6-0.9l0,0l0.1-0.1c0-0.1,0-0.1,0-0.2
				S25.2,27,25.1,27l0,0c-0.1,0-0.1,0-0.2,0c0,0,0,0-0.1,0.1l-0.6,0.8l-0.6-0.8c0,0,0,0-0.1-0.1C23.5,27.1,23.4,27,23.3,27L23.3,27z
				"/>
			<path class="st8" d="M26,27c-0.1,0-0.1,0-0.2,0.1c0,0.1-0.1,0.1,0,0.2c0,0.1,0,0.1,0.1,0.1l0,0l0.6,0.9l-0.6,0.9l0,0l-0.1,0.1
				c0,0.1,0,0.1,0,0.2s0.1,0.1,0.2,0.1s0.1,0,0.2,0c0,0,0,0,0.1-0.1l0.6-0.8l0.6,0.8c0,0,0,0,0.1,0.1c0.1,0,0.1,0.1,0.2,0
				c0.1,0,0.1,0,0.2-0.1c0-0.1,0.1-0.1,0-0.2c0-0.1,0-0.1-0.1-0.1l0,0l-0.6-0.9l0.6-0.9l0,0l0.1-0.1c0-0.1,0-0.1,0-0.2
				S27.9,27,27.8,27l0,0c-0.1,0-0.1,0-0.2,0c0,0,0,0-0.1,0.1l-0.6,0.8l-0.6-0.8c0,0,0,0-0.1-0.1C26.1,27.1,26.1,27,26,27L26,27z"/>
			<path class="st8" d="M28.7,27c-0.1,0-0.1,0-0.2,0.1c0,0.1-0.1,0.1,0,0.2c0,0.1,0,0.1,0.1,0.1l0,0l0.6,0.9l-0.6,0.9l0,0l-0.1,0.1
				c0,0.1,0,0.1,0,0.2s0.1,0.1,0.2,0.1s0.1,0,0.2,0c0,0,0,0,0.1-0.1l0.6-0.8l0.6,0.8c0,0,0,0,0.1,0.1c0.1,0,0.1,0.1,0.2,0
				c0.1,0,0.1,0,0.2-0.1c0-0.1,0.1-0.1,0-0.2c0-0.1,0-0.1-0.1-0.1l0,0L30,28.3l0.6-0.9l0,0l0.1-0.1c0-0.1,0-0.1,0-0.2
				S30.6,27,30.5,27l0,0c-0.1,0-0.1,0-0.2,0c0,0,0,0-0.1,0.1l-0.6,0.8L29,27.1c0,0,0,0-0.1-0.1C28.8,27.1,28.8,27,28.7,27L28.7,27z"
				/>
		</g>
		<path class="st9" d="M40.5,19.3h-6.2c-0.6,0-1-0.5-1-1V17c0-0.6,0.5-1,1-1h6.2c0.6,0,1,0.5,1,1v1.3C41.5,18.9,41.1,19.3,40.5,19.3
			z"/>
	</g>
</g>
</svg>
