<svg width="88" height="88" viewBox="0 0 88 88" fill="none" xmlns="http://www.w3.org/2000/svg">
<path d="M22.0073 81.0919L2.52126 31.8315C1.00778 27.9549 2.89963 23.5111 6.77791 21.9983L56.1551 2.52102C60.0334 1.00823 64.4792 2.89922 65.9927 6.77576L85.4787 56.2253C86.9922 60.1019 85.1004 64.5457 81.2221 66.0585L31.8449 85.4412C27.872 87.0485 23.5208 85.063 22.0073 81.0919Z" fill="#E9E6ED"/>
<path d="M81.5059 46.0137C73.8439 47.621 65.3306 45.3518 57.8578 48.2829C53.6011 49.9848 50.1958 53.294 46.6013 56.036C42.1554 59.3452 37.2366 60.6689 31.7503 60.858C25.8856 61.0471 19.8317 60.5743 14.0615 61.0471L15.8588 65.68C22.9532 65.2073 30.1422 66.3419 37.1421 65.3964C41.1149 64.8291 44.804 63.4108 48.0202 61.0471C52.1822 58.116 55.7767 54.3341 60.5064 52.6322C67.79 50.1739 75.9249 52.3485 83.3977 50.7412L81.5059 46.0137Z" fill="#D3CCDB"/>
<path d="M36.1015 53.6722C44.331 51.4976 49.3444 43.2718 57.0064 40.2462C63.6279 37.5988 71.2898 39.3007 77.7221 36.4642L76.0194 31.9258C69.0196 35.235 60.0333 32.8713 53.0335 36.6533C48.966 38.8279 45.6553 42.2317 42.0608 45.0682C37.7096 48.3774 32.9799 49.7011 27.5882 49.6066C21.4397 49.512 15.0074 47.9047 8.85889 47.3374L10.7507 52.254C19.1695 53.1995 27.8719 55.8469 36.1015 53.6722Z" fill="#D3CCDB"/>
<path d="M6.77821 42.2313C12.8321 42.2313 19.0752 42.8932 24.9399 42.0423C28.9128 41.475 32.6019 40.0567 35.8181 37.693C39.9801 34.7619 43.5746 30.9799 48.3042 29.278C56.5338 26.5361 65.8984 29.6562 73.9388 26.4415L72.1415 21.8086C63.7228 24.9287 53.9798 21.5249 45.6557 24.9287C41.399 26.6306 37.9937 29.9399 34.3992 32.6818C29.9533 35.9911 25.0345 37.3148 19.5482 37.5039C14.6294 37.693 9.80517 37.3148 4.98096 37.5039L6.77821 42.2313Z" fill="#D3CCDB"/>
<path fill-rule="evenodd" clip-rule="evenodd" d="M20.625 33.375C20.0614 33.375 19.5209 33.5989 19.1224 33.9974C18.7239 34.3959 18.5 34.9364 18.5 35.5V64.1875C18.5 68.2037 21.9213 71.625 25.9375 71.625H62.0625C66.0787 71.625 69.5 68.3698 69.5 64.3535V35.5C69.5 34.9364 69.2761 34.3959 68.8776 33.9974C68.4791 33.5989 67.9386 33.375 67.375 33.375H20.625Z" stroke="#210049" stroke-width="2" stroke-linecap="round" stroke-linejoin="round"/>
<path d="M31.25 33.375V29.125C31.25 25.7435 32.5933 22.5005 34.9844 20.1094C37.3755 17.7183 40.6185 16.375 44 16.375V16.375C47.3815 16.375 50.6245 17.7183 53.0156 20.1094C55.4067 22.5005 56.75 25.7435 56.75 29.125V33.375" stroke="#210049" stroke-width="2" stroke-linecap="round" stroke-linejoin="round"/>
</svg>
