<svg width="95" height="103" viewBox="0 0 95 103" fill="none" xmlns="http://www.w3.org/2000/svg">
<path d="M41.0301 11.8338L35.989 16.9801L34.4547 13.6622L43.8367 4.08447C44.7043 3.19332 45.7396 2.48541 46.882 2.00216C48.0243 1.51891 49.2509 1.27 50.4898 1.27C51.7288 1.27 52.9553 1.51891 54.0977 2.00216C55.2401 2.48541 56.2753 3.19332 57.143 4.08447L92.8824 40.5659C93.5826 41.2976 94.162 42.1375 94.5986 43.0537L88.0301 46.2217L54.3364 11.8338C53.4684 10.9432 52.4331 10.2358 51.2907 9.75294C50.1484 9.27004 48.922 9.02133 47.6833 9.02133C46.4445 9.02133 45.2181 9.27004 44.0758 9.75294C42.9334 10.2358 41.8981 10.9432 41.0301 11.8338Z" fill="#FFFF00"/>
<path d="M5.56161 62.1805L40.7621 98.112C41.6651 99.0386 42.7424 99.7747 43.9309 100.277C45.1194 100.78 46.3953 101.038 47.6842 101.038C48.973 101.038 50.249 100.78 51.4375 100.277C52.626 99.7747 53.7032 99.0386 54.6062 98.112L89.8067 62.1805C91.6444 60.2945 92.674 57.7571 92.674 55.1142C92.674 52.4712 91.6444 49.9338 89.8067 48.0479L54.6062 12.1152C53.7032 11.1885 52.626 10.4525 51.4375 9.95005C50.249 9.44761 48.973 9.18883 47.6842 9.18883C46.3953 9.18883 45.1194 9.44761 43.9309 9.95005C42.7424 10.4525 41.6651 11.1885 40.7621 12.1152L5.56161 48.0479C3.72392 49.9338 2.69433 52.4712 2.69433 55.1142C2.69433 57.7571 3.72392 60.2945 5.56161 62.1805Z" fill="#A7E866"/>
<g opacity="0.4">
<path opacity="0.4" d="M36.0895 16.9963L41.1318 11.85C41.9997 10.9594 43.0351 10.252 44.1774 9.76911C45.3198 9.28622 46.5461 9.03751 47.7849 9.03751C49.0237 9.03751 50.2501 9.28622 51.3924 9.76911C52.5347 10.252 53.5701 10.9594 54.4381 11.85L88.126 46.2414L65.1552 57.3155C64.0357 57.8521 62.8216 58.1592 61.5833 58.2191C60.345 58.2789 59.1072 58.0902 57.9419 57.6639C56.7766 57.2377 55.707 56.5824 54.7952 55.7361C53.8833 54.8898 53.1475 53.8694 52.6303 52.7341L36.0895 16.9963Z" fill="white"/>
</g>
<path d="M44.6509 99.4378H37.341C37.1893 99.4378 37.0438 99.377 36.9365 99.2689C36.8292 99.1608 36.769 99.0142 36.769 98.8614V86.5698C36.7691 86.4813 36.7894 86.394 36.8284 86.3147C36.8674 86.2353 36.924 86.1661 36.9938 86.1124C37.0636 86.0586 37.1448 86.0218 37.231 86.0048C37.3172 85.9878 37.4061 85.991 37.4909 86.0142C39.7838 86.6593 42.2082 86.6593 44.5011 86.0142C44.5858 85.991 44.6748 85.9878 44.761 86.0048C44.8472 86.0218 44.9284 86.0586 44.9982 86.1124C45.068 86.1661 45.1246 86.2353 45.1636 86.3147C45.2026 86.394 45.2229 86.4813 45.223 86.5698V98.8614C45.223 99.0142 45.1627 99.1608 45.0554 99.2689C44.9482 99.377 44.8027 99.4378 44.6509 99.4378ZM37.9131 98.2849H44.0789V87.3053C42.0492 87.7675 39.9428 87.7675 37.9131 87.3053V98.2849Z" fill="#210049"/>
<path d="M59.2663 100.014H22.7214C22.4524 100.014 22.192 99.9188 21.9859 99.7446C21.7798 99.5705 21.6412 99.3288 21.5944 99.0619L12.8257 48.977C12.7966 48.8111 12.804 48.6409 12.8472 48.4782C12.8904 48.3156 12.9685 48.1644 13.0759 48.0354C13.1833 47.9064 13.3175 47.8027 13.469 47.7315C13.6205 47.6604 13.7856 47.6235 13.9527 47.6236H68.0418C68.2089 47.6235 68.374 47.6604 68.5255 47.7315C68.677 47.8027 68.8112 47.9064 68.9186 48.0354C69.026 48.1644 69.1041 48.3156 69.1473 48.4782C69.1905 48.6409 69.1979 48.8111 69.1688 48.977L60.3967 99.0619C60.3498 99.3293 60.2106 99.5715 60.0038 99.7457C59.797 99.92 59.5358 100.015 59.2663 100.014ZM23.6836 97.7084H58.3098L66.678 49.9292H15.3154L23.6836 97.7084Z" fill="#210049"/>
<path d="M14.3931 52.454H14.3484C12.7983 52.3979 11.3121 51.8171 10.1298 50.8053C8.94752 49.7936 8.13811 48.4099 7.83225 46.8776C7.52639 45.3453 7.74192 43.7539 8.44405 42.3602C9.14618 40.9666 10.2939 39.852 11.702 39.1964C11.5971 38.7163 11.5442 38.2262 11.5442 37.7346C11.5459 36.0747 12.134 34.4697 13.2032 33.2069C14.2723 31.9441 15.7527 31.1061 17.3793 30.8429C17.3391 30.553 17.3188 30.2607 17.3186 29.9679C17.3149 28.9769 17.5215 27.9965 17.9247 27.0925C18.328 26.1885 18.9184 25.3819 19.6565 24.7268C20.3945 24.0717 21.2631 23.5832 22.2039 23.2942C23.1448 23.0051 24.1361 22.9222 25.1113 23.0509C25.3272 21.6604 25.9562 20.3685 26.9154 19.3454C27.8746 18.3224 29.1189 17.6162 30.4844 17.32C31.8499 17.0237 33.2724 17.1514 34.5644 17.6861C35.8565 18.2208 36.9574 19.1375 37.722 20.3153C38.492 19.7877 39.36 19.4226 40.2738 19.2421C41.1876 19.0617 42.1281 19.0694 43.0388 19.265C43.6614 17.9066 44.7018 16.7865 46.0057 16.0706C47.3097 15.3547 48.8079 15.0812 50.2782 15.2905C51.7486 15.4998 53.1129 16.1809 54.169 17.2327C55.2251 18.2846 55.9167 19.6513 56.1415 21.1303C57.7731 21.3856 59.2608 22.2191 60.337 23.481C61.4131 24.7428 62.0071 26.3502 62.0121 28.0139C62.0119 28.3066 61.992 28.5989 61.9526 28.8889C63.5802 29.1508 65.0621 29.9882 66.1326 31.2511C67.2031 32.514 67.7923 34.1197 67.7945 35.7805C67.7965 36.728 67.6053 37.6658 67.2327 38.5358C68.912 38.6774 70.4821 39.4316 71.6485 40.657C72.8149 41.8824 73.4973 43.4947 73.5675 45.1911C73.6377 46.8875 73.091 48.5514 72.0299 49.8704C70.9689 51.1895 69.4665 52.0729 67.8048 52.3548C67.6242 52.3857 67.4388 52.3724 67.2643 52.316C67.0898 52.2596 66.9313 52.1618 66.8022 52.0309C66.673 51.9 66.5769 51.7397 66.522 51.5635C66.4672 51.3874 66.4551 51.2005 66.4868 51.0187L66.6778 49.9247H15.3152L15.52 51.0925C15.5504 51.2589 15.5441 51.43 15.5015 51.5937C15.4589 51.7574 15.381 51.9096 15.2734 52.0395C15.1659 52.1695 15.0312 52.274 14.8791 52.3456C14.7269 52.4172 14.561 52.4542 14.3931 52.454ZM18.512 33.0679C17.9005 33.0629 17.2941 33.1797 16.7276 33.4116C16.1611 33.6434 15.6457 33.9858 15.211 34.4191C14.7762 34.8523 14.4307 35.3678 14.1943 35.936C13.958 36.5042 13.8354 37.1139 13.8336 37.73C13.8365 38.3233 13.9531 38.9104 14.1768 39.4592C14.2374 39.6104 14.2656 39.7728 14.2593 39.9357C14.2531 40.0986 14.2126 40.2583 14.1406 40.4043C14.0686 40.5503 13.9667 40.6792 13.8416 40.7826C13.7164 40.886 13.571 40.9615 13.4148 41.004C12.4682 41.2559 11.6256 41.8048 11.0093 42.5713C10.3929 43.3378 10.0347 44.2821 9.98653 45.2674C9.93836 46.2528 10.2027 47.228 10.7413 48.0518C11.2799 48.8757 12.0648 49.5054 12.9823 49.8497L12.829 48.9747C12.7999 48.8089 12.8073 48.6387 12.8505 48.476C12.8937 48.3133 12.9718 48.1622 13.0792 48.0331C13.1866 47.9041 13.3208 47.8004 13.4723 47.7293C13.6238 47.6581 13.7889 47.6213 13.956 47.6213H68.0417C68.2087 47.6213 68.3737 47.6581 68.525 47.7292C68.6764 47.8003 68.8105 47.9039 68.9179 48.0328C69.0253 48.1617 69.1034 48.3127 69.1467 48.4752C69.1901 48.6377 69.1975 48.8078 69.1686 48.9736L69.084 49.4555C70.0613 48.8653 70.787 47.9313 71.1212 46.8337C71.4553 45.7362 71.3743 44.5528 70.8936 43.5119C70.4129 42.471 69.5667 41.6464 68.5181 41.1971C67.4696 40.7478 66.2931 40.7057 65.2156 41.079C64.9695 41.1587 64.7039 41.152 64.4621 41.0602C64.2202 40.9683 64.0163 40.7967 63.8836 40.5732C63.7509 40.3496 63.6973 40.0874 63.7314 39.8293C63.7655 39.5711 63.8854 39.3322 64.0715 39.1514C64.5245 38.718 64.8851 38.196 65.1312 37.6174C65.3773 37.0388 65.5037 36.4158 65.5028 35.7863C65.5013 34.548 65.0126 33.3607 64.1437 32.4849C63.2749 31.609 62.0969 31.116 60.8679 31.1139C60.7375 31.1335 60.662 31.1427 60.5842 31.1484C60.3937 31.1621 60.2029 31.1275 60.0291 31.0477C59.8553 30.968 59.7041 30.8458 59.5892 30.6921C59.4743 30.5384 59.3994 30.3582 59.3714 30.1679C59.3433 29.9775 59.363 29.7832 59.4286 29.6025C59.6203 29.095 59.7203 28.5569 59.7238 28.0139C59.7226 26.7758 59.234 25.5887 58.3654 24.7129C57.4967 23.8372 56.3188 23.3444 55.09 23.3426C54.7866 23.3426 54.4956 23.2211 54.281 23.0049C54.0664 22.7887 53.9459 22.4955 53.9459 22.1898C53.9525 21.055 53.5479 19.9567 52.8078 19.1013C52.0678 18.2458 51.0434 17.6919 49.9268 17.5436C48.8102 17.3953 47.6782 17.6627 46.7435 18.2958C45.8087 18.9288 45.1354 19.8838 44.85 20.9816C44.8078 21.1389 44.7331 21.2855 44.6306 21.4115C44.5281 21.5376 44.4003 21.6404 44.2555 21.7131C44.1108 21.7857 43.9524 21.8266 43.7907 21.8331C43.6291 21.8395 43.468 21.8114 43.318 21.7505C42.4499 21.3971 41.4953 21.3193 40.5821 21.5276C39.6689 21.7359 38.8407 22.2204 38.2083 22.9161C38.0753 23.0605 37.9079 23.1682 37.7219 23.2288C37.5359 23.2895 37.3376 23.3012 37.1458 23.2627C36.9541 23.2242 36.7754 23.1368 36.6267 23.0089C36.478 22.881 36.3643 22.7169 36.2964 22.5322C35.924 21.5013 35.2026 20.6357 34.2593 20.0879C33.316 19.54 32.2111 19.3449 31.1391 19.5369C30.0671 19.7288 29.0966 20.2956 28.3984 21.1374C27.7002 21.9792 27.319 23.0421 27.3218 24.1392C27.3424 24.2706 27.3527 24.3571 27.3573 24.4447C27.3677 24.6351 27.3311 24.8251 27.2508 24.9977C27.1705 25.1703 27.0489 25.3202 26.897 25.4338C26.745 25.5475 26.5675 25.6214 26.3803 25.649C26.1931 25.6765 26.002 25.6569 25.8241 25.5918C25.3217 25.3997 24.7895 25.2986 24.2521 25.2932C23.0227 25.2944 21.844 25.7869 20.9744 26.6626C20.1049 27.5383 19.6156 28.7257 19.6138 29.9645C19.6202 30.5073 19.7216 31.0447 19.9135 31.5519C19.9768 31.7323 19.9946 31.9257 19.9652 32.1147C19.9359 32.3037 19.8603 32.4823 19.7453 32.6346C19.6303 32.7868 19.4796 32.9078 19.3066 32.9867C19.1336 33.0655 18.9439 33.0998 18.7545 33.0864C18.6779 33.0864 18.6035 33.0714 18.5257 33.061L18.512 33.0679Z" fill="#210049"/>
<path d="M34.4191 41.9874C34.2673 41.9874 34.1218 41.9266 34.0146 41.8185C33.9073 41.7104 33.847 41.5638 33.847 41.4109C33.8468 40.2961 34.1326 39.2002 34.6767 38.2295C35.2208 37.2588 36.0047 36.4463 36.9523 35.8708C37.8999 35.2953 38.979 34.9764 40.085 34.945C41.1909 34.9137 42.2862 35.1709 43.2644 35.6917C43.8894 34.3692 44.9422 33.3002 46.2498 32.6603C47.5575 32.0203 49.0423 31.8474 50.4603 32.17C51.8783 32.4926 53.1453 33.2915 54.0532 34.4356C54.9611 35.5796 55.4559 37.0007 55.4563 38.4654C55.4563 38.6183 55.396 38.7649 55.2888 38.873C55.1815 38.9811 55.036 39.0419 54.8842 39.0419C54.7325 39.0419 54.587 38.9811 54.4797 38.873C54.3725 38.7649 54.3122 38.6183 54.3122 38.4654C54.3116 37.2129 53.8711 36.0009 53.0685 35.0443C52.266 34.0877 51.1533 33.4482 49.9277 33.2391C48.702 33.0301 47.4424 33.2649 46.3721 33.902C45.3018 34.5392 44.4899 35.5375 44.0802 36.7201C44.0514 36.8034 44.0039 36.879 43.9416 36.941C43.8792 37.003 43.8035 37.0497 43.7204 37.0775C43.6372 37.1054 43.5489 37.1136 43.4621 37.1016C43.3753 37.0896 43.2924 37.0577 43.2198 37.0083C42.4264 36.4675 41.5018 36.1546 40.5454 36.1032C39.5889 36.0518 38.6365 36.2638 37.7906 36.7165C36.9446 37.1692 36.237 37.8455 35.7436 38.6727C35.2502 39.4999 34.9897 40.447 34.99 41.4121C34.9897 41.5646 34.9294 41.7107 34.8224 41.8185C34.7154 41.9263 34.5704 41.9871 34.4191 41.9874Z" fill="#210049"/>
<path d="M40.9991 87.6523C38.1392 87.6528 35.3434 86.7987 32.9653 85.1981C30.5872 83.5975 28.7335 81.3223 27.6387 78.6602C26.5439 75.9981 26.2571 73.0686 26.8147 70.2423C27.3723 67.4159 28.7491 64.8197 30.7711 62.7818C32.7932 60.744 35.3695 59.356 38.1744 58.7935C40.9793 58.2311 43.8867 58.5193 46.529 59.6218C49.1713 60.7243 51.4298 62.5915 53.0189 64.9873C54.6079 67.3832 55.4562 70.2 55.4565 73.0817C55.4519 76.944 53.9274 80.647 51.2172 83.3784C48.507 86.1098 44.8324 87.6468 40.9991 87.6523ZM40.9991 59.665C38.3655 59.6645 35.7909 60.451 33.6008 61.925C31.4108 63.3989 29.7038 65.4942 28.6956 67.9457C27.6874 70.3972 27.4234 73.095 27.9369 75.6977C28.4505 78.3004 29.7185 80.6913 31.5806 82.5679C33.4427 84.4445 35.8153 85.7225 38.3983 86.2404C40.9813 86.7582 43.6587 86.4927 46.0919 85.4773C48.5251 84.4619 50.6049 82.7422 52.0681 80.5358C53.5313 78.3294 54.3123 75.7353 54.3123 73.0817C54.3081 69.525 52.9042 66.1153 50.4084 63.6001C47.9127 61.085 44.5289 59.6698 40.9991 59.665Z" fill="#210049"/>
<path d="M30.0326 99.4355H22.7227C22.571 99.4355 22.4255 99.3747 22.3182 99.2666C22.2109 99.1585 22.1506 99.0119 22.1506 98.859V48.7741C22.1506 48.6213 22.2109 48.4747 22.3182 48.3666C22.4255 48.2585 22.571 48.1977 22.7227 48.1977H30.0326C30.1843 48.1977 30.3298 48.2585 30.4371 48.3666C30.5444 48.4747 30.6046 48.6213 30.6046 48.7741V64.5126C30.6064 64.6401 30.5662 64.7646 30.4902 64.8666C28.6735 67.2135 27.6869 70.1047 27.6869 73.0811C27.6869 76.0575 28.6735 78.9486 30.4902 81.2956C30.5662 81.3976 30.6064 81.522 30.6046 81.6495V98.859C30.6046 99.0119 30.5444 99.1585 30.4371 99.2666C30.3298 99.3747 30.1843 99.4355 30.0326 99.4355ZM23.2947 98.2826H29.4605V81.8432C27.5646 79.3218 26.5384 76.2451 26.5384 73.0817C26.5384 69.9183 27.5646 66.8415 29.4605 64.3201V49.3506H23.2947V98.2826Z" fill="#210049"/>
<path d="M44.6512 60.1698C44.6006 60.1696 44.5502 60.1627 44.5014 60.1491C42.2085 59.504 39.7841 59.504 37.4912 60.1491C37.4064 60.1729 37.3173 60.1765 37.2309 60.1595C37.1445 60.1425 37.0632 60.1054 36.9935 60.0511C36.9225 59.9974 36.8648 59.9278 36.8251 59.8478C36.7854 59.7677 36.7647 59.6795 36.7647 59.59V48.7764C36.7647 48.6235 36.825 48.4769 36.9323 48.3688C37.0395 48.2607 37.1851 48.2 37.3368 48.2H44.6467C44.7984 48.2 44.9439 48.2607 45.0512 48.3688C45.1585 48.4769 45.2187 48.6235 45.2187 48.7764V59.5923C45.2187 59.7452 45.1585 59.8918 45.0512 59.9999C44.9439 60.108 44.7984 60.1687 44.6467 60.1687L44.6512 60.1698ZM37.9134 49.3528V58.8579C39.9431 58.3958 42.0495 58.3958 44.0792 58.8579V49.3528H37.9134Z" fill="#210049"/>
<path d="M59.2663 99.4377H51.961C51.8092 99.4377 51.6637 99.377 51.5565 99.2689C51.4492 99.1608 51.3889 99.0142 51.3889 98.8613V81.6483C51.3888 81.5202 51.4311 81.3956 51.509 81.2944C53.3257 78.948 54.3123 76.0575 54.3123 73.0816C54.3123 70.1057 53.3257 67.2151 51.509 64.8688C51.4311 64.7676 51.3888 64.643 51.3889 64.5149V48.7764C51.3889 48.6235 51.4492 48.4769 51.5565 48.3688C51.6637 48.2607 51.8092 48.2 51.961 48.2H59.2663C59.418 48.2 59.5635 48.2607 59.6708 48.3688C59.7781 48.4769 59.8383 48.6235 59.8383 48.7764V98.8613C59.8383 99.0142 59.7781 99.1608 59.6708 99.2689C59.5635 99.377 59.418 99.4377 59.2663 99.4377ZM52.5285 98.2849H58.6942V49.3528H52.533V64.3189C54.4297 66.84 55.4563 69.9169 55.4563 73.0804C55.4563 76.244 54.4297 79.3209 52.533 81.842L52.5285 98.2849Z" fill="#210049"/>
<path d="M35.7473 83.999C35.5956 83.999 35.4501 83.9383 35.3428 83.8302C35.2355 83.7221 35.1752 83.5755 35.1752 83.4226V64.0446C35.1752 63.8917 35.2355 63.7451 35.3428 63.637C35.4501 63.5289 35.5956 63.4682 35.7473 63.4682H39.5356C39.6541 63.4681 39.7697 63.5051 39.8664 63.5741C39.9632 63.6431 40.0362 63.7406 40.0756 63.8532L41.9508 69.222V64.0734C41.9508 63.9206 42.0111 63.7739 42.1184 63.6658C42.2257 63.5577 42.3712 63.497 42.5229 63.497H46.2986C46.4503 63.497 46.5958 63.5577 46.7031 63.6658C46.8103 63.7739 46.8706 63.9206 46.8706 64.0734V83.2946C46.8711 83.3758 46.8545 83.4561 46.8221 83.5303C46.7896 83.6045 46.742 83.671 46.6822 83.7254C46.6225 83.7799 46.5521 83.8209 46.4755 83.846C46.3989 83.8711 46.318 83.8797 46.2379 83.8711C45.437 83.7846 43.2037 83.5679 42.4771 83.6036C42.3543 83.6094 42.2329 83.5752 42.1309 83.5061C42.0289 83.4369 41.9517 83.3365 41.9108 83.2197L40.1156 78.1092V82.9984C40.116 83.1447 40.0611 83.2857 39.9621 83.3927C39.863 83.4997 39.7273 83.5648 39.5825 83.5748C38.3513 83.6418 37.1248 83.7777 35.9086 83.9817C35.856 83.9952 35.8016 84.001 35.7473 83.999ZM36.3194 64.621V82.7286C37.1363 82.6133 38.2884 82.5119 38.9669 82.46V74.751C38.9671 74.6152 39.0149 74.4839 39.1018 74.3801C39.1887 74.2764 39.3092 74.2068 39.442 74.1838C39.5748 74.1608 39.7114 74.1858 39.8277 74.2543C39.9441 74.3229 40.0327 74.4306 40.0779 74.5585L42.849 82.4462C43.6602 82.4646 44.9519 82.581 45.7219 82.6571V64.6499H43.0904V72.5952C43.0907 72.7314 43.043 72.8634 42.9559 72.9676C42.8688 73.0719 42.7479 73.1416 42.6146 73.1646C42.4813 73.1875 42.3443 73.1621 42.2278 73.0929C42.1113 73.0237 42.0229 72.9152 41.9783 72.7866L39.1294 64.621H36.3194Z" fill="#210049"/>
</svg>
