<svg width="60" height="68" viewBox="0 0 60 68" fill="none" xmlns="http://www.w3.org/2000/svg">
<path d="M0.0259357 5C2.31594 6.45 4.27594 8 5.60594 10.07C7.48594 13.02 9.13594 16.13 10.7559 19.23C11.8659 21.35 12.7259 23.59 13.7559 25.75C15.7559 29.93 18.7959 33.1 23.0259 35.08C23.9259 35.5 24.7959 36.01 25.7059 36.42C29.9559 38.33 32.9059 41.48 34.7859 45.71C35.6959 47.75 36.5459 49.84 37.6659 51.76C38.7459 53.6 40.0759 55.31 41.4259 56.98C42.2859 58.04 42.4459 58.54 41.6359 59.43C40.7359 60.43 39.4859 60.64 38.7259 59.69C37.2459 57.83 35.7959 55.91 34.5959 53.86C33.4359 51.87 32.6059 49.68 31.6259 47.59C29.8759 43.87 27.1559 41.15 23.4059 39.38C21.2059 38.35 19.0359 37.21 17.0259 35.85C13.5359 33.49 11.5059 29.94 9.80594 26.18C8.32594 22.91 7.02594 19.54 5.28594 16.41C4.06594 14.21 2.23594 12.35 0.715936 10.3C0.385936 9.86 0.0859357 9.3 0.0459357 8.78C-0.0440643 7.6 0.0259357 6.41 0.0259357 5Z" fill="#F5F5F5" fill-opacity="0.8"/>
<path d="M9.08008 0.021952C10.2801 0.021952 11.3201 -0.048048 12.3401 0.061952C12.6601 0.101952 13.0901 0.591952 13.2001 0.951952C14.1401 4.00195 14.9801 7.08195 15.9401 10.122C17.3101 14.502 19.4901 18.362 23.5401 20.812C25.2101 21.822 26.9701 22.722 28.7801 23.442C33.6301 25.362 37.0801 28.672 39.3901 33.312C40.2401 35.022 41.2101 36.712 42.4001 38.192C43.4801 39.532 44.8701 40.662 46.2501 41.722C47.3201 42.552 47.6301 42.972 47.1301 43.922C46.5401 45.042 45.3901 45.612 44.4501 44.982C43.0401 44.032 41.5901 43.022 40.5301 41.722C39.1501 40.032 37.9901 38.122 37.0101 36.172C34.6701 31.542 31.1801 28.242 26.4001 26.262C25.3001 25.802 24.2501 25.212 23.1501 24.732C18.5101 22.672 15.3401 19.202 13.6901 14.452C12.0501 9.77195 10.6501 4.99195 9.08008 0.021952Z" fill="#F5F5F5" fill-opacity="0.8"/>
<path d="M21.1206 0.0819092C22.3206 0.0819092 23.3506 0.0819092 24.4506 0.0819092C24.7906 1.70191 25.1306 3.33191 25.4906 4.96191C26.8206 11.0019 30.4806 14.5619 36.6206 15.6719C40.9206 16.4519 45.1206 17.5419 48.7806 20.1519C54.3606 24.1319 57.7006 29.5219 59.0706 36.1919C59.3406 37.5319 58.8706 38.4019 57.7606 38.7819C56.7006 39.1419 55.9806 38.8019 55.7506 37.7719C53.4006 27.1919 46.8206 21.0719 36.2006 19.1719C33.2506 18.6419 30.3106 18.0219 27.8306 16.1419C24.6106 13.7119 23.0806 10.2919 22.2506 6.50191C21.7906 4.41191 21.5006 2.28191 21.1206 0.0819092Z" fill="#F5F5F5" fill-opacity="0.8"/>
<path d="M0.390229 24.6919C0.760229 25.3919 1.17023 26.0719 1.50023 26.7919C4.11023 32.5119 8.43023 36.4519 14.0702 39.0919C16.4902 40.2219 18.8302 41.5419 21.1602 42.8419C25.5102 45.2819 28.0702 49.0919 29.0202 53.9119C29.6302 57.0019 29.8902 60.1519 30.2902 63.2819C30.4102 64.2219 30.1602 65.0219 29.2802 65.5319C28.0002 66.2719 26.9602 65.8119 26.8002 64.3619C26.5802 62.3319 26.4102 60.3019 26.2502 58.2719C25.7902 52.3419 23.0002 47.9319 17.7202 45.1319C14.8302 43.6019 11.9202 42.0919 9.05023 40.5219C5.55023 38.6119 2.59023 36.0919 0.600229 32.5819C0.320229 32.0919 0.140229 31.4719 0.130229 30.9119C0.0702293 28.8519 0.110229 26.7919 0.110229 24.7319C0.200229 24.7219 0.290229 24.7019 0.390229 24.6919Z" fill="#F5F5F5" fill-opacity="0.8"/>
<path d="M0.210185 39.062C3.86019 41.552 7.44018 43.812 10.8202 46.352C14.0102 48.762 16.1002 52.142 17.7002 55.742C19.0102 58.692 20.0602 61.752 21.1702 64.792C21.5902 65.942 21.1402 66.912 20.0602 67.492C19.0202 68.062 18.3802 67.792 17.9602 66.672C16.9102 63.872 15.9502 61.032 14.7802 58.282C12.5702 53.092 9.05019 48.992 4.17019 46.112C3.79019 45.892 3.42019 45.642 3.05019 45.412C-0.239815 43.352 -0.239815 43.352 0.210185 39.062Z" fill="#F5F5F5" fill-opacity="0.8"/>
</svg>
