<?xml version="1.0" encoding="utf-8"?>
<!-- Generator: Adobe Illustrator 22.0.1, SVG Export Plug-In . SVG Version: 6.00 Build 0)  -->
<svg version="1.1" id="Layer_1" xmlns="http://www.w3.org/2000/svg" xmlns:xlink="http://www.w3.org/1999/xlink" x="0px" y="0px"
	 viewBox="0 0 50 50" style="enable-background:new 0 0 50 50;" xml:space="preserve">
<style type="text/css">
	.st0{opacity:0.5;fill:#FFFF00;enable-background:new    ;}
	.st1{fill:#00DA8C;}
	.st2{opacity:0.4;fill:#FFFFFF;}
	.st3{fill:none;stroke:#210049;}
	.st4{fill:none;stroke:#210049;stroke-width:0.5;}
	.st5{fill:none;stroke:#210049;stroke-width:0.5;stroke-miterlimit:10;}
	.st6{fill:none;stroke:#210049;stroke-width:0.5;stroke-linecap:round;}
</style>
<g>
	<path class="st0" d="M21.6,5.5L19,8.1l-0.8-1.7L23,1.6c1.9-1.9,5-1.9,6.8,0l18.4,18.2c0.4,0.4,0.7,0.8,0.9,1.2l-3.4,1.6L28.5,5.5
		C26.6,3.7,23.5,3.7,21.6,5.5z"/>
	<path class="st1" d="M3.4,30.5l18.1,17.9c2,1.9,5.2,1.9,7.1,0l18.1-17.9c2-1.9,2-5.1,0-7.1L28.6,5.5c-2-1.9-5.2-1.9-7.1,0L3.4,23.4
		C1.4,25.4,1.4,28.5,3.4,30.5z"/>
	<path class="st2" d="M19,8l2.6-2.6c1.9-1.9,5.3-1.6,6.9,0l17.3,17.2L34,28.1c-2.4,1.1-5.3,0.1-6.4-2.3L19,8z"/>
	<path class="st3" d="M41.8,38.6l-0.6-12.5c0.3-0.8,0.4-1.6,0.4-2.5c0-2.5-1.3-4.7-3.3-6v-0.5c0-1.1-0.9-2-2-2h-3.7
		c-1.1,0-2,0.9-2,2v0.6c-0.3,0.2-0.5,0.4-0.8,0.6h-8.4h-0.1h-8.4c-0.3-0.2-0.5-0.4-0.8-0.6v-0.5c0-1.1-0.9-2-2-2H6.3
		c-1.1,0-2,0.9-2,2v0.4c-2,1.2-3.3,3.5-3.3,6c0,0.9,0.2,1.7,0.4,2.5L0.9,38.6c-0.1,1.6,1.2,2.9,2.7,2.9s3.8-1.1,4.7-2.4l3.6-5
		c0.9,1,2.2,1.6,3.6,1.6c2.7,0,4.9-2.2,4.9-4.9c0-0.1,0-0.2,0-0.4h0.9h0.1h1c0,0.1,0,0.2,0,0.4c0,2.7,2.2,4.9,4.9,4.9
		c1.5,0,2.7-0.6,3.6-1.6l3.6,5c0.9,1.3,3.1,2.4,4.6,2.4C40.7,41.5,41.9,40.2,41.8,38.6z"/>
	<path class="st4" d="M17.7,30.8c0,1.4-1.1,2.4-2.4,2.4s-2.4-1.1-2.4-2.4c0-1.3,1.1-2.4,2.4-2.4C16.7,28.3,17.7,29.4,17.7,30.8z"/>
	<path class="st4" d="M29.8,30.8c0,1.4-1.1,2.4-2.4,2.4S25,32.1,25,30.8c0-1.3,1.1-2.4,2.4-2.4C28.8,28.3,29.8,29.4,29.8,30.8z"/>
	<g>
		<path class="st5" d="M35.8,21.3c0,0.6-0.5,1.1-1.1,1.1s-1.1-0.5-1.1-1.1s0.5-1.1,1.1-1.1S35.8,20.7,35.8,21.3z"/>
		<path class="st5" d="M33.6,23.6c0,0.6-0.5,1.1-1.1,1.1c-0.6,0-1.1-0.5-1.1-1.1s0.5-1.1,1.1-1.1C33,22.4,33.6,22.9,33.6,23.6z"/>
		<path class="st5" d="M38,23.6c0,0.6-0.5,1.1-1.1,1.1s-1.1-0.5-1.1-1.1s0.5-1.1,1.1-1.1S38,22.9,38,23.6z"/>
		<path class="st5" d="M35.8,25.8c0,0.6-0.5,1.1-1.1,1.1s-1.1-0.5-1.1-1.1s0.5-1.1,1.1-1.1S35.8,25.2,35.8,25.8z"/>
		<path class="st5" d="M7.2,20.7V22c0,0.1,0,0.1,0.1,0.2L8,22.9c0.1,0.1,0.3,0.1,0.4,0l0.7-0.7c0,0,0.1-0.1,0.1-0.2v-1.4
			c0-0.1-0.1-0.3-0.3-0.3H7.5C7.3,20.5,7.2,20.6,7.2,20.7z"/>
		<path class="st5" d="M9.1,26.7v-1.3c0-0.1,0-0.1-0.1-0.2l-0.7-0.7c-0.1-0.1-0.3-0.1-0.4,0l-0.7,0.7c0,0-0.1,0.1-0.1,0.2v1.4
			c0,0.1,0.2,0.3,0.3,0.3h1.4C9,27,9.1,26.9,9.1,26.7z"/>
		<path class="st5" d="M11.2,22.7H9.9c-0.1,0-0.1,0-0.2,0.1L9,23.5c-0.1,0.1-0.1,0.3,0,0.4l0.7,0.7c0,0,0.1,0.1,0.2,0.1h1.4
			c0.1,0,0.3-0.1,0.3-0.3V23C11.5,22.8,11.4,22.7,11.2,22.7z"/>
		<path class="st5" d="M5.2,24.6h1.4c0.1,0,0.1,0,0.2-0.1l0.7-0.7c0.1-0.1,0.1-0.3,0-0.4l-0.7-0.7c0,0-0.1-0.1-0.2-0.1H5.2
			c-0.1,0-0.3,0.1-0.3,0.3v1.4C4.9,24.5,5,24.6,5.2,24.6z"/>
	</g>
	<path class="st3" d="M8.2,30.8c3.9,0,7.1-3.2,7.1-7.1s-3.2-7.1-7.1-7.1s-7.1,3.2-7.1,7.1C1.1,27.6,4.3,30.8,8.2,30.8z"/>
	<path class="st3" d="M34.6,30.8c3.9,0,7.1-3.2,7.1-7.1s-3.2-7.1-7.1-7.1s-7.1,3.2-7.1,7.1S30.6,30.8,34.6,30.8z"/>
	<path class="st6" d="M20.3,25.5h-2"/>
	<path class="st6" d="M24.3,25.5h-2"/>
</g>
</svg>
