<svg width="48" height="48" viewBox="0 0 48 48" fill="none" xmlns="http://www.w3.org/2000/svg">
<path fill-rule="evenodd" clip-rule="evenodd" d="M21.6218 45.0152L2.98481 26.3782C1.67173 25.0651 1.67173 22.9357 2.98481 21.6227L21.6218 2.98481C22.9349 1.67173 25.0643 1.67173 26.3773 2.98481L45.0152 21.6227C46.3283 22.9357 46.3283 25.0651 45.0152 26.3782L26.3773 45.0152C25.0643 46.3283 22.9349 46.3283 21.6218 45.0152Z" fill="#D9F5EC"/>
<path d="M27.75 12.75H20.25C19.0074 12.75 18 13.7574 18 15V33C18 34.2426 19.0074 35.25 20.25 35.25H27.75C28.9926 35.25 30 34.2426 30 33V15C30 13.7574 28.9926 12.75 27.75 12.75Z" stroke="#210049" stroke-width="1.5" stroke-linecap="round" stroke-linejoin="round"/>
<path d="M20.25 12.75H21.375C21.4745 12.75 21.5698 12.7895 21.6402 12.8598C21.7105 12.9302 21.75 13.0255 21.75 13.125C21.75 13.3239 21.829 13.5147 21.9697 13.6553C22.1103 13.796 22.3011 13.875 22.5 13.875H25.5C25.6989 13.875 25.8897 13.796 26.0303 13.6553C26.171 13.5147 26.25 13.3239 26.25 13.125C26.25 13.0255 26.2895 12.9302 26.3598 12.8598C26.4302 12.7895 26.5255 12.75 26.625 12.75H27.75" stroke="#210049" stroke-width="1.5" stroke-linecap="round" stroke-linejoin="round"/>
</svg>
