<svg width="48" height="48" viewBox="0 0 48 48" fill="none" xmlns="http://www.w3.org/2000/svg">
<g filter="url(#filter0_d)">
<rect x="4" y="2" width="40" height="40" rx="8" fill="white"/>
</g>
<path d="M29 7H19C17.3431 7 16 8.34315 16 10V34C16 35.6569 17.3431 37 19 37H29C30.6569 37 32 35.6569 32 34V10C32 8.34315 30.6569 7 29 7Z" stroke="#210049" stroke-width="1.5" stroke-linecap="round" stroke-linejoin="round"/>
<path d="M19 7H20.5C20.6326 7 20.7598 7.05268 20.8536 7.14645C20.9473 7.24021 21 7.36739 21 7.5C21 7.76522 21.1054 8.01957 21.2929 8.20711C21.4804 8.39464 21.7348 8.5 22 8.5H26C26.2652 8.5 26.5196 8.39464 26.7071 8.20711C26.8946 8.01957 27 7.76522 27 7.5C27 7.36739 27.0527 7.24021 27.1464 7.14645C27.2402 7.05268 27.3674 7 27.5 7H29" stroke="#210049" stroke-width="1.5" stroke-linecap="round" stroke-linejoin="round"/>
<circle cx="24" cy="33" r="1" fill="#210049"/>
<defs>
<filter id="filter0_d" x="0" y="0" width="48" height="48" filterUnits="userSpaceOnUse" color-interpolation-filters="sRGB">
<feFlood flood-opacity="0" result="BackgroundImageFix"/>
<feColorMatrix in="SourceAlpha" type="matrix" values="0 0 0 0 0 0 0 0 0 0 0 0 0 0 0 0 0 0 127 0"/>
<feOffset dy="2"/>
<feGaussianBlur stdDeviation="2"/>
<feColorMatrix type="matrix" values="0 0 0 0 0.129412 0 0 0 0 0 0 0 0 0 0.286275 0 0 0 0.16 0"/>
<feBlend mode="normal" in2="BackgroundImageFix" result="effect1_dropShadow"/>
<feBlend mode="normal" in="SourceGraphic" in2="effect1_dropShadow" result="shape"/>
</filter>
</defs>
</svg>
