<svg width="88" height="88" viewBox="0 0 88 88" fill="none" xmlns="http://www.w3.org/2000/svg">
<path d="M22.0073 81.0919L2.52126 31.8315C1.00778 27.9549 2.89963 23.5111 6.77791 21.9983L56.1551 2.52102C60.0334 1.00823 64.4792 2.89922 65.9927 6.77576L85.4787 56.2253C86.9922 60.1019 85.1004 64.5457 81.2221 66.0585L31.8449 85.4412C27.872 87.0485 23.5208 85.063 22.0073 81.0919Z" fill="#D9F5EC"/>
<path d="M81.5059 46.0137C73.8439 47.621 65.3306 45.3518 57.8578 48.2829C53.6011 49.9848 50.1958 53.294 46.6013 56.036C42.1554 59.3452 37.2366 60.6689 31.7503 60.858C25.8856 61.0471 19.8317 60.5743 14.0615 61.0471L15.8588 65.68C22.9532 65.2073 30.1422 66.3419 37.1421 65.3964C41.1149 64.8291 44.804 63.4108 48.0202 61.0471C52.1822 58.116 55.7767 54.3341 60.5064 52.6322C67.79 50.1739 75.9249 52.3485 83.3977 50.7412L81.5059 46.0137Z" fill="#B4EBDA"/>
<path d="M36.1015 53.6722C44.331 51.4976 49.3444 43.2718 57.0064 40.2462C63.6279 37.5988 71.2898 39.3007 77.7221 36.4642L76.0194 31.9258C69.0196 35.235 60.0333 32.8713 53.0335 36.6533C48.966 38.8279 45.6553 42.2317 42.0608 45.0682C37.7096 48.3774 32.9799 49.7011 27.5882 49.6066C21.4397 49.512 15.0074 47.9047 8.85889 47.3374L10.7507 52.254C19.1695 53.1995 27.8719 55.8469 36.1015 53.6722Z" fill="#B4EBDA"/>
<path d="M6.77821 42.2318C12.8321 42.2318 19.0752 42.8937 24.9399 42.0427C28.9128 41.4754 32.6019 40.0572 35.8181 37.6934C39.9801 34.7624 43.5746 30.9804 48.3042 29.2785C56.5338 26.5366 65.8984 29.6567 73.9388 26.442L72.1415 21.8091C63.7228 24.9292 53.9798 21.5254 45.6557 24.9292C41.399 26.6311 37.9937 29.9404 34.3992 32.6823C29.9533 35.9916 25.0345 37.3152 19.5482 37.5043C14.6294 37.6934 9.80517 37.3152 4.98096 37.5043L6.77821 42.2318Z" fill="#B4EBDA"/>
<path d="M53.8125 14H33.1875C29.7702 14 27 16.6863 27 20V68C27 71.3137 29.7702 74 33.1875 74H53.8125C57.2298 74 60 71.3137 60 68V20C60 16.6863 57.2298 14 53.8125 14Z" stroke="#210049" stroke-width="2" stroke-linecap="round" stroke-linejoin="round"/>
<path d="M33 14H36.15C36.4285 14 36.6955 14.1054 36.8925 14.2929C37.0894 14.4804 37.2 14.7348 37.2 15C37.2 15.5304 37.4212 16.0391 37.8151 16.4142C38.2089 16.7893 38.743 17 39.3 17H47.7C48.257 17 48.7911 16.7893 49.1849 16.4142C49.5788 16.0391 49.8 15.5304 49.8 15C49.8 14.7348 49.9106 14.4804 50.1075 14.2929C50.3044 14.1054 50.5715 14 50.85 14H54" stroke="#210049" stroke-linecap="round" stroke-linejoin="round"/>
<path d="M52.3753 45.387V43.9902C52.3753 39.3622 48.614 35.6094 43.9753 35.6094C42.7133 35.6078 41.4673 35.8909 40.33 36.4376C39.1926 36.9843 38.1932 37.7805 37.4062 38.7669M35.6001 42.6106V44.0075C35.6001 48.6406 39.3595 52.3906 44.0001 52.3906C45.2584 52.3888 46.5005 52.1063 47.6357 51.5636C48.771 51.0209 49.7709 50.2318 50.5626 49.2538" stroke="#210049" stroke-linecap="round" stroke-linejoin="round"/>
<path d="M33.5 44L35.5625 41.9375L37.7188 44" stroke="#210049" stroke-linecap="round" stroke-linejoin="round"/>
<path d="M54.5 44L52.4375 46.0625L50.2812 44" stroke="#210049" stroke-linecap="round" stroke-linejoin="round"/>
</svg>
