<svg width="46" height="46" viewBox="0 0 46 46" fill="none" xmlns="http://www.w3.org/2000/svg">
<path d="M19.799 2.82843C21.3611 1.26633 23.8937 1.26633 25.4558 2.82843L42.4264 19.799C43.9885 21.3611 43.9885 23.8937 42.4264 25.4558L25.4558 42.4264C23.8937 43.9885 21.3611 43.9885 19.799 42.4264L2.82842 25.4558C1.26632 23.8937 1.26632 21.3611 2.82842 19.799L19.799 2.82843Z" fill="#F9D641"/>
<mask id="mask0" mask-type="alpha" maskUnits="userSpaceOnUse" x="1" y="1" width="43" height="43">
<path d="M19.799 2.82843C21.3611 1.26633 23.8937 1.26633 25.4558 2.82843L42.4264 19.799C43.9885 21.3611 43.9885 23.8937 42.4264 25.4558L25.4558 42.4264C23.8937 43.9885 21.3611 43.9885 19.799 42.4264L2.82842 25.4558C1.26632 23.8937 1.26632 21.3611 2.82842 19.799L19.799 2.82843Z" fill="#F9D641"/>
</mask>
<g mask="url(#mask0)">
<path d="M6.72352 -0.224745C8.63271 0.0580975 10.4358 0.941983 11.8147 2.32084C12.9461 3.3815 14.6785 1.7198 13.5471 0.659139C11.6733 -1.14398 9.37517 -2.24 6.79423 -2.62891C5.27395 -2.8764 5.20324 -0.472232 6.72352 -0.224745Z" fill="#EDC70A"/>
<path d="M3.08192 5.53815C6.86494 7.48269 10.8601 8.15444 15.0674 7.69483C16.5877 7.51805 16.0573 5.14924 14.5371 5.32602C11.0369 5.71493 7.53669 5.11389 4.35471 3.48754C3.01121 2.78043 1.73842 4.83104 3.08192 5.53815Z" fill="#EDC70A"/>
<path d="M23.3405 12.7153C25.7447 14.5538 27.3357 17.064 28.0782 19.9985C28.4671 21.5188 30.8005 20.9531 30.4116 19.4328C29.4924 15.8266 27.4771 12.8921 24.578 10.6293C23.3405 9.67473 22.1031 11.7607 23.3405 12.7153Z" fill="#EDC70A"/>
<path d="M25.0022 25.62C28.5731 27.4938 32.7097 28.6606 36.1038 25.8321C37.3059 24.8422 35.6088 23.0744 34.4775 24.0644C32.0026 26.115 28.7853 24.8775 26.275 23.5694C24.8962 22.8269 23.6234 24.8775 25.0022 25.62Z" fill="#EDC70A"/>
<path d="M24.1184 33.7164C25.1437 35.6609 25.4972 37.7115 25.2144 39.9036C25.0022 41.4592 27.4418 41.5653 27.6185 39.9743C27.9367 37.3933 27.4418 34.8477 26.2397 32.5143C25.4619 31.1708 23.3759 32.3375 24.1184 33.7164Z" fill="#EDC70A"/>
<path d="M-7.13577 13.3517C-5.47407 16.0741 -2.75171 17.8065 0.394912 18.1954C1.91519 18.3722 2.02126 15.9327 0.500979 15.7559C-1.76176 15.473 -3.77702 14.1649 -4.9791 12.185C-5.82763 10.8415 -7.94895 11.9729 -7.13577 13.3517Z" fill="#EDC70A"/>
<path d="M-7.24183 24.63C-4.94373 26.6453 -3.28203 29.0141 -2.18602 31.8779C-1.62033 33.3628 0.50099 32.1607 -0.0646952 30.7465C-1.26678 27.7059 -3.10526 25.0896 -5.50942 22.9683C-6.67615 21.943 -8.44391 23.5694 -7.24183 24.63Z" fill="#EDC70A"/>
<path d="M7.96097 31.3476C10.4005 34.5649 14.1482 37.959 18.3908 35.767C19.7697 35.0245 18.6383 32.9032 17.2241 33.6103C14.1128 35.2367 11.3904 31.8779 9.69338 29.6859C8.73878 28.4485 7.00637 30.1102 7.96097 31.3476Z" fill="#EDC70A"/>
<path d="M7.89025 17.8418C9.79944 20.1753 11.2137 22.7916 12.0622 25.6907C12.4864 27.1756 14.8553 26.6453 14.3956 25.125C13.4057 21.8016 11.85 18.8318 9.65802 16.1447C8.66807 14.9427 6.9003 16.6397 7.89025 17.8418Z" fill="#EDC70A"/>
<path d="M16.4816 16.9579C17.9665 16.6044 17.4362 14.2356 15.9513 14.5891C14.431 14.9073 14.9967 17.3115 16.4816 16.9579Z" fill="#EDC70A"/>
<path d="M7.21851 42.838C6.97102 40.3278 6.72354 37.8176 6.44069 35.272C6.29927 33.7164 3.96582 34.282 4.10724 35.8377C4.35473 38.3479 4.60222 40.8581 4.88506 43.4037C5.02648 44.9594 7.35993 44.3937 7.21851 42.838Z" fill="#EDC70A"/>
<path d="M1.31417 25.9736C2.7991 25.62 2.26877 23.2512 0.783844 23.6048C-0.771791 23.9583 -0.241461 26.3271 1.31417 25.9736Z" fill="#EDC70A"/>
<path d="M3.01121 13.1042C4.49613 12.7507 3.96581 10.3819 2.48088 10.7354C0.925246 11.089 1.45558 13.4578 3.01121 13.1042Z" fill="#EDC70A"/>
<path d="M20.5121 28.9787C20.5121 28.908 20.4768 28.802 20.4768 28.7313C20.3353 28.0949 19.6636 27.6352 19.0272 27.8474C18.4262 28.0241 17.9665 28.6252 18.1433 29.2969C18.1433 29.3676 18.1787 29.4737 18.1787 29.5444C18.3201 30.1808 18.9918 30.6404 19.6282 30.4283C20.2646 30.2869 20.6889 29.6505 20.5121 28.9787Z" fill="#EDC70A"/>
</g>
</svg>
