<svg width="47" height="46" viewBox="0 0 47 46" fill="none" xmlns="http://www.w3.org/2000/svg">
<path d="M20.5715 3.20099C22.1336 1.63889 24.6662 1.63889 26.2283 3.20099L43.1989 20.1715C44.761 21.7336 44.761 24.2663 43.1989 25.8284L26.2283 42.799C24.6662 44.3611 22.1336 44.3611 20.5715 42.799L3.60091 25.8284C2.03882 24.2663 2.03882 21.7336 3.60091 20.1715L20.5715 3.20099Z" fill="#4F3386"/>
<mask id="mask0" mask-type="alpha" maskUnits="userSpaceOnUse" x="2" y="2" width="43" height="42">
<path d="M20.5715 3.20099C22.1336 1.63889 24.6662 1.63889 26.2283 3.20099L43.1989 20.1715C44.761 21.7336 44.761 24.2663 43.1989 25.8284L26.2283 42.799C24.6662 44.3611 22.1336 44.3611 20.5715 42.799L3.60091 25.8284C2.03882 24.2663 2.03882 21.7336 3.60091 20.1715L20.5715 3.20099Z" fill="#4F3386"/>
</mask>
<g mask="url(#mask0)">
<g opacity="0.7">
<path opacity="0.7" d="M45.8391 7.6796C43.5763 10.0838 42.1621 12.9122 41.5611 16.1295C41.3489 17.3316 43.2581 17.4023 43.4349 16.2356C43.9299 13.5486 45.132 11.0737 47.0765 9.05846C47.925 8.20993 46.6876 6.83107 45.8391 7.6796Z" fill="#7551CC"/>
<path opacity="0.7" d="M36.0103 21.1853C34.1011 22.5288 31.8737 23.2006 29.5402 23.1299C28.3028 23.0945 28.1967 24.9684 29.4342 25.0037C32.298 25.1098 34.985 24.2613 37.2831 22.5996C38.273 21.8924 37.0002 20.4782 36.0103 21.1853Z" fill="#7551CC"/>
<path opacity="0.7" d="M26.0047 19.5944C23.7773 21.8217 22.0095 24.6502 23.3884 27.8675C23.848 28.9635 25.5451 28.115 25.0855 27.019C24.0602 24.7209 25.7219 22.5642 27.2775 21.0086C28.0907 20.1247 26.8532 18.7458 26.0047 19.5944Z" fill="#7551CC"/>
<path opacity="0.7" d="M20.1711 17.0841C18.5094 17.4023 16.883 17.1902 15.3274 16.5538C14.196 16.0588 13.595 17.862 14.691 18.3216C16.5648 19.1347 18.5801 19.3115 20.56 18.958C21.7621 18.7458 21.3732 16.872 20.1711 17.0841Z" fill="#7551CC"/>
<path opacity="0.7" d="M42.3035 -1.65419C39.8993 -1.01779 38.0255 0.643898 37.0356 2.90664C36.5406 4.03801 38.3437 4.63905 38.8387 3.50768C39.5458 1.88133 40.9954 0.64391 42.7278 0.18429C43.8591 -0.169263 43.4702 -1.97238 42.3035 -1.65419Z" fill="#7551CC"/>
<path opacity="0.7" d="M33.889 -4.27049C31.9091 -2.9977 29.717 -2.29058 27.3482 -2.1138C26.1108 -2.00774 26.535 -0.169258 27.7725 -0.275324C30.2474 -0.487456 32.6515 -1.26528 34.7728 -2.60878C35.7628 -3.24518 34.9496 -4.90689 33.889 -4.27049Z" fill="#7551CC"/>
<path opacity="0.7" d="M25.5097 5.59369C22.5399 6.72506 19.1811 8.7403 19.8882 12.4173C20.1357 13.584 21.9742 13.2304 21.7621 12.0283C21.2317 9.30599 24.343 8.03319 26.3583 7.29073C27.525 6.83111 26.6411 5.16942 25.5097 5.59369Z" fill="#7551CC"/>
<path opacity="0.7" d="M35.6214 8.56349C33.4293 9.48273 31.202 9.94235 28.8331 9.90699C27.6311 9.90699 27.4896 11.7455 28.7271 11.7808C31.4141 11.7808 33.995 11.2505 36.4699 10.2606C37.6013 9.76558 36.7174 8.10387 35.6214 8.56349Z" fill="#7551CC"/>
<g opacity="0.7">
<path opacity="0.7" d="M34.3839 15.175C34.3132 16.377 36.187 16.4831 36.2577 15.281C36.3284 14.0789 34.4193 13.9375 34.3839 15.175Z" fill="#7551CC"/>
</g>
<path opacity="0.7" d="M11.0494 8.66958C11.1201 8.66958 11.1908 8.66958 11.2615 8.66958C11.7565 8.66958 12.2515 8.31603 12.2868 7.7857C12.2868 7.29072 11.9333 6.79573 11.3676 6.79573C11.2969 6.79573 11.2262 6.79575 11.1555 6.79575C10.6605 6.79575 10.1655 7.14928 10.1302 7.67961C10.1655 8.20994 10.5544 8.66958 11.0494 8.66958Z" fill="#7551CC"/>
<path opacity="0.7" d="M17.0951 2.48241C19.0397 2.87131 20.9489 3.22486 22.8934 3.61377C24.0955 3.8259 24.2016 1.95207 22.9995 1.73994C21.055 1.35103 19.1458 0.997464 17.2012 0.608556C15.9991 0.396424 15.8931 2.27027 17.0951 2.48241Z" fill="#7551CC"/>
<g opacity="0.7">
<path opacity="0.7" d="M30.9898 1.81065C30.9191 3.01273 32.7929 3.1188 32.8636 1.91672C32.9344 0.714634 31.0605 0.60857 30.9898 1.81065Z" fill="#7551CC"/>
</g>
<g opacity="0.7">
<path opacity="0.7" d="M40.2176 5.94722C40.1469 7.1493 42.0207 7.25536 42.0914 6.05328C42.1621 4.8512 40.2883 4.74514 40.2176 5.94722Z" fill="#7551CC"/>
</g>
<path opacity="0.7" d="M24.4844 15.5285C24.5551 15.5285 24.6259 15.5285 24.6966 15.5285C25.1915 15.5285 25.6865 15.1749 25.7219 14.6446C25.7219 14.1496 25.3683 13.6546 24.8026 13.6546C24.7319 13.6546 24.6612 13.6546 24.5905 13.6546C24.0955 13.6546 23.6006 14.0082 23.5652 14.5385C23.5652 15.0335 23.9541 15.4931 24.4844 15.5285Z" fill="#7551CC"/>
</g>
<g opacity="0.7">
<g opacity="0.7">
<path opacity="0.7" d="M40.96 21.4682C40.8893 22.6703 42.7631 22.7763 42.8338 21.5743C42.9046 20.3722 40.9954 20.2308 40.96 21.4682Z" fill="#7551CC"/>
</g>
<path opacity="0.7" d="M48.6675 43.8835C47.0058 44.2017 45.3794 43.9896 43.8238 43.3532C42.6924 42.8582 42.0914 44.6613 43.1874 45.1209C45.0612 45.9341 47.0765 46.1109 49.0564 45.7573C50.2585 45.4745 49.8342 43.636 48.6675 43.8835Z" fill="#7551CC"/>
<path opacity="0.7" d="M39.5458 35.4689C39.6165 35.4689 39.6872 35.4689 39.7579 35.4689C40.2529 35.4689 40.7479 35.1154 40.7832 34.585C40.7832 34.0901 40.4297 33.5951 39.864 33.5951C39.7933 33.5951 39.7226 33.5951 39.6519 33.5951C39.1569 33.5951 38.6619 33.9486 38.6266 34.479C38.6266 34.9739 39.0155 35.4336 39.5458 35.4689Z" fill="#7551CC"/>
<path opacity="0.7" d="M45.5562 29.2464C47.5007 29.6353 49.4099 29.9889 51.3545 30.3778C52.5566 30.5899 52.6626 28.716 51.4606 28.5039C49.516 28.115 47.6068 27.7615 45.6623 27.3726C44.4955 27.1251 44.3895 28.9989 45.5562 29.2464Z" fill="#7551CC"/>
</g>
</g>
</svg>
