<svg width="47" height="46" viewBox="0 0 47 46" fill="none" xmlns="http://www.w3.org/2000/svg">
<path d="M20.5715 3.20099C22.1336 1.63889 24.6662 1.63889 26.2283 3.20099L43.1989 20.1715C44.761 21.7336 44.761 24.2663 43.1989 25.8284L26.2283 42.799C24.6662 44.3611 22.1336 44.3611 20.5715 42.799L3.60091 25.8284C2.03882 24.2663 2.03882 21.7336 3.60091 20.1715L20.5715 3.20099Z" fill="#F98484"/>
<mask id="mask0" mask-type="alpha" maskUnits="userSpaceOnUse" x="2" y="2" width="43" height="42">
<path d="M20.5715 3.20099C22.1336 1.63889 24.6662 1.63889 26.2283 3.20099L43.1989 20.1715C44.761 21.7336 44.761 24.2663 43.1989 25.8284L26.2283 42.799C24.6662 44.3611 22.1336 44.3611 20.5715 42.799L3.60091 25.8284C2.03882 24.2663 2.03882 21.7336 3.60091 20.1715L20.5715 3.20099Z" fill="#F98484"/>
</mask>
<g mask="url(#mask0)">
<g opacity="0.7">
<g opacity="0.45">
<path opacity="0.45" d="M21.2333 1.38797C23.1071 1.77688 24.8042 2.76682 26.1124 4.21639C27.173 5.34776 28.9761 3.82748 27.9508 2.66076C26.1831 0.751567 24.0264 -0.485868 21.4808 -0.980843C19.9605 -1.29904 19.713 1.06977 21.2333 1.38797Z" fill="#E00E95"/>
<path opacity="0.45" d="M17.3089 6.86805C20.9151 8.98937 24.8396 9.94397 29.0115 9.73183C30.5671 9.66112 30.1075 7.29232 28.6226 7.36303C25.1224 7.5398 21.7283 6.69127 18.6877 4.9235C17.3442 4.14568 15.9654 6.09023 17.3089 6.86805Z" fill="#E00E95"/>
<path opacity="0.45" d="M36.825 15.2119C39.0524 17.1564 40.502 19.7374 41.0677 22.7072C41.3859 24.2275 43.684 23.8386 43.4365 22.3183C42.7647 18.7474 40.9616 15.6715 38.2039 13.2674C37.0725 12.2067 35.6583 14.1866 36.825 15.2119Z" fill="#E00E95"/>
<path opacity="0.45" d="M37.7089 28.0459C41.103 30.1672 45.1335 31.5107 48.6691 28.9651C49.9065 28.0812 48.3862 26.2074 47.1488 27.0913C44.6032 29.0005 41.4566 27.5509 39.0878 26.1013C37.7796 25.2882 36.4008 27.2327 37.7089 28.0459Z" fill="#E00E95"/>
<path opacity="0.45" d="M36.2947 35.9655C37.1786 37.9807 37.4261 39.996 37.0018 42.1173C36.6836 43.6376 39.0878 43.8497 39.3706 42.3648C39.8656 39.8192 39.512 37.2736 38.4514 34.9402C37.815 33.5259 35.6583 34.5513 36.2947 35.9655Z" fill="#E00E95"/>
<path opacity="0.45" d="M6.70228 13.9391C8.22256 16.7322 10.7328 18.606 13.8441 19.1717C15.329 19.4545 15.5765 17.0857 14.0915 16.8029C11.8641 16.414 9.95497 14.929 8.89431 12.9491C8.15185 11.5703 5.99517 12.5249 6.70228 13.9391Z" fill="#E00E95"/>
<path opacity="0.45" d="M5.8891 25.076C8.01042 27.1974 9.53071 29.6369 10.4499 32.536C10.9096 33.9856 13.0662 32.9603 12.6066 31.5107C11.6167 28.4701 9.99031 25.7831 7.72757 23.5204C6.63156 22.4244 4.79308 23.98 5.8891 25.076Z" fill="#E00E95"/>
<path opacity="0.45" d="M20.4909 32.6067C22.7536 35.9301 26.2184 39.5364 30.5318 37.6272C31.946 36.9908 30.9207 34.8341 29.5418 35.4352C26.3598 36.8494 23.885 33.3845 22.3647 31.0864C21.4454 29.8137 19.6423 31.3339 20.4909 32.6067Z" fill="#E00E95"/>
<path opacity="0.45" d="M21.304 19.2778C23.0718 21.6819 24.2739 24.3689 24.9103 27.2681C25.2285 28.7884 27.5973 28.3994 27.2791 26.8792C26.5366 23.5204 25.1578 20.5152 23.1425 17.7221C22.2233 16.5201 20.4201 18.0403 21.304 19.2778Z" fill="#E00E95"/>
<g opacity="0.45">
<path opacity="0.45" d="M29.8247 18.9596C31.3449 18.7121 30.956 16.3433 29.4358 16.5907C27.9155 16.8382 28.3044 19.207 29.8247 18.9596Z" fill="#E00E95"/>
</g>
<path opacity="0.45" d="M19.0413 43.9558C18.9352 41.4456 18.8645 38.9707 18.7584 36.4604C18.6877 34.9048 16.3543 35.3291 16.3896 36.8494C16.4957 39.3596 16.5664 41.8345 16.6725 44.3447C16.7785 45.865 19.112 45.4407 19.0413 43.9558Z" fill="#E00E95"/>
<g opacity="0.45">
<path opacity="0.45" d="M14.2683 26.9499C15.7886 26.7024 15.3997 24.3336 13.8794 24.581C12.3591 24.8285 12.748 27.1973 14.2683 26.9499Z" fill="#E00E95"/>
</g>
<g opacity="0.45">
<path opacity="0.45" d="M16.7432 14.2926C18.2635 14.0452 17.8746 11.6764 16.3543 11.9238C14.7987 12.2067 15.2229 14.5401 16.7432 14.2926Z" fill="#E00E95"/>
</g>
<path opacity="0.45" d="M35.4462 6.9034C36.0472 5.10028 37.2139 3.50928 38.8049 2.41327C40.0424 1.52938 38.7342 -0.485873 37.4968 0.39801C35.4108 1.91829 33.9259 3.96891 33.0774 6.37307C32.5824 7.85799 34.9865 8.35297 35.4462 6.9034Z" fill="#E00E95"/>
<path opacity="0.45" d="M40.4313 11.4642C42.9769 8.14082 44.3557 4.35781 44.6386 0.185878C44.7446 -1.3344 42.3405 -1.19299 42.2344 0.327292C41.9869 3.82747 40.7848 7.08017 38.6281 9.87324C37.7089 11.0753 39.512 12.6663 40.4313 11.4642Z" fill="#E00E95"/>
<g opacity="0.45">
<path opacity="0.45" d="M47.7498 12.9138C47.6791 11.3582 45.2749 11.4996 45.3456 13.0552C45.4164 14.5402 47.8559 14.4341 47.7498 12.9138Z" fill="#E00E95"/>
</g>
<path opacity="0.45" d="M33.0773 31.0511C33.0773 30.9804 33.042 30.8743 33.042 30.8036C32.9359 30.2026 32.2995 29.7076 31.6985 29.8136C31.0621 29.9551 30.6025 30.5561 30.7439 31.1925C30.7439 31.2632 30.7793 31.3693 30.7793 31.44C30.8853 32.041 31.5217 32.536 32.1228 32.4299C32.7238 32.3239 33.1834 31.7228 33.0773 31.0511Z" fill="#E00E95"/>
</g>
</g>
</g>
</svg>
