<svg width="46" height="46" viewBox="0 0 46 46" fill="none" xmlns="http://www.w3.org/2000/svg">
<path d="M20.1716 3.20099C21.7337 1.63889 24.2663 1.63889 25.8284 3.20099L42.799 20.1715C44.3611 21.7336 44.3611 24.2663 42.799 25.8284L25.8284 42.799C24.2663 44.3611 21.7337 44.3611 20.1716 42.799L3.20101 25.8284C1.63891 24.2663 1.63891 21.7336 3.20101 20.1715L20.1716 3.20099Z" fill="#DB4CB0"/>
<mask id="mask0" mask-type="alpha" maskUnits="userSpaceOnUse" x="2" y="2" width="42" height="42">
<path d="M20.1716 3.20099C21.7337 1.63889 24.2663 1.63889 25.8284 3.20099L42.799 20.1715C44.3611 21.7336 44.3611 24.2663 42.799 25.8284L25.8284 42.799C24.2663 44.3611 21.7337 44.3611 20.1716 42.799L3.20101 25.8284C1.63891 24.2663 1.63891 21.7336 3.20101 20.1715L20.1716 3.20099Z" fill="#DB4CB0"/>
</mask>
<g mask="url(#mask0)">
<g opacity="0.45">
<g opacity="0.83">
<path opacity="0.83" d="M32.3058 13.4261C31.5634 15.0171 30.326 16.3252 28.7703 17.2444C27.5329 17.9162 28.5228 19.8961 29.7956 19.189C31.8816 18.0223 33.4019 16.2898 34.4272 14.1332C34.9928 12.8604 32.9069 12.1886 32.3058 13.4261Z" fill="#E00E95"/>
<path opacity="0.83" d="M28.2047 8.82989C25.553 11.623 23.8913 14.911 23.2549 18.7294C23.0074 20.1082 25.1995 20.2497 25.4469 18.8708C26.0126 15.6888 27.4622 12.825 29.6896 10.4562C30.6442 9.43094 29.1946 7.76923 28.2047 8.82989Z" fill="#E00E95"/>
<path opacity="0.83" d="M16.6788 24.5984C14.4514 26.1894 11.8351 26.9672 9.11277 26.8611C7.69856 26.7904 7.55712 28.9825 8.97133 29.0532C12.3301 29.1592 15.4767 28.2046 18.1637 26.2247C19.3304 25.4116 17.8455 23.7852 16.6788 24.5984Z" fill="#E00E95"/>
<path opacity="0.83" d="M4.97617 22.7245C2.39523 25.3762 0.309265 28.6642 1.90026 32.3765C2.46594 33.6493 4.44582 32.6594 3.88014 31.3866C2.71341 28.7349 4.6226 26.1894 6.42572 24.3862C7.45103 23.3609 6.00147 21.6992 4.97617 22.7245Z" fill="#E00E95"/>
<path opacity="0.83" d="M24.068 -2.16559C21.275 -1.42313 19.0476 0.521398 17.9162 3.13769C17.3505 4.41049 19.4365 5.15295 20.0376 3.8448C20.8861 1.93561 22.5478 0.486053 24.563 -0.0442767C25.8712 -0.362475 25.4115 -2.51915 24.068 -2.16559Z" fill="#E00E95"/>
<path opacity="0.83" d="M14.2393 -5.20619C11.9058 -3.72127 9.36022 -2.87273 6.60251 -2.6606C5.18829 -2.51918 5.68326 -0.397849 7.06212 -0.503915C9.99661 -0.751402 12.7543 -1.67065 15.2292 -3.22629C16.4313 -4.0041 15.406 -5.94865 14.2393 -5.20619Z" fill="#E00E95"/>
<path opacity="0.83" d="M4.41049 6.31967C0.981027 7.62782 -2.97877 10.032 -2.13024 14.2746C-1.88276 15.6535 0.309258 15.2292 0.0264155 13.815C-0.574625 10.6684 3.03162 9.18347 5.40043 8.22888C6.74393 7.80462 5.754 5.8247 4.41049 6.31967Z" fill="#E00E95"/>
<path opacity="0.83" d="M16.2545 9.81986C13.7089 10.8805 11.0573 11.4109 8.33493 11.3755C6.92071 11.3755 6.77932 13.5675 8.19353 13.5675C11.3402 13.6029 14.3807 12.9665 17.2445 11.729C18.5173 11.234 17.5273 9.25417 16.2545 9.81986Z" fill="#E00E95"/>
<g opacity="0.83">
<path opacity="0.83" d="M14.7696 17.5273C14.6989 18.9416 16.8909 19.083 16.9616 17.6688C17.0677 16.2899 14.8403 16.1131 14.7696 17.5273Z" fill="#E00E95"/>
</g>
<path opacity="0.83" d="M-5.41829 2.71341C-3.15554 3.13768 -0.892786 3.56192 1.36996 3.98619C2.74881 4.23368 2.89021 2.04167 1.51135 1.79418C-0.751391 1.36992 -3.0141 0.945631 -5.27685 0.521367C-6.69106 0.238525 -6.79714 2.46593 -5.41829 2.71341Z" fill="#E00E95"/>
<g opacity="0.83">
<path opacity="0.83" d="M10.8451 1.93561C10.7744 3.34982 12.9665 3.49123 13.0372 2.07702C13.1079 0.662806 10.9158 0.521393 10.8451 1.93561Z" fill="#E00E95"/>
</g>
<g opacity="0.83">
<path opacity="0.83" d="M21.6285 6.7793C21.5578 8.19351 23.7499 8.33493 23.8206 6.92071C23.9266 5.47114 21.6992 5.36509 21.6285 6.7793Z" fill="#E00E95"/>
</g>
<path opacity="0.83" d="M24.4216 25.058C25.9065 25.9772 27.0733 27.356 27.7804 28.9824C28.3107 30.2905 30.3967 29.5481 29.831 28.2046C28.9118 26.0125 27.3915 24.2801 25.3762 23.0427C24.1742 22.3356 23.2195 24.3509 24.4216 25.058Z" fill="#E00E95"/>
<path opacity="0.83" d="M19.3305 28.5935C21.8053 31.5634 24.8813 33.5786 28.5582 34.71C29.9017 35.1342 30.2906 32.9069 28.9471 32.5533C25.8712 31.5987 23.1842 29.831 21.1336 27.3561C20.179 26.2601 18.3759 27.4975 19.3305 28.5935Z" fill="#E00E95"/>
<g opacity="0.83">
<path opacity="0.83" d="M16.502 34.8867C17.8809 35.1342 18.2698 32.9776 16.8909 32.7301C15.4767 32.4472 15.0878 34.6039 16.502 34.8867Z" fill="#E00E95"/>
</g>
<path opacity="0.83" d="M3.24377 17.9516C3.31448 17.9516 3.38521 17.9515 3.45592 17.9515C4.05696 17.9869 4.62264 17.4919 4.62264 16.9262C4.65799 16.3252 4.1984 15.7949 3.59736 15.7595C3.52665 15.7595 3.45592 15.7595 3.38521 15.7595C2.78417 15.7242 2.21849 16.2191 2.21849 16.7848C2.18314 17.3859 2.57202 17.9162 3.24377 17.9516Z" fill="#E00E95"/>
</g>
</g>
</g>
</svg>
