<svg width="46" height="46" viewBox="0 0 46 46" fill="none" xmlns="http://www.w3.org/2000/svg">
<path d="M20.1716 3.20099C21.7337 1.63889 24.2663 1.63889 25.8284 3.20099L42.799 20.1715C44.3611 21.7336 44.3611 24.2663 42.799 25.8284L25.8284 42.799C24.2663 44.3611 21.7337 44.3611 20.1716 42.799L3.20101 25.8284C1.63891 24.2663 1.63891 21.7336 3.20101 20.1715L20.1716 3.20099Z" fill="#F7BE69"/>
<mask id="mask0" mask-type="alpha" maskUnits="userSpaceOnUse" x="2" y="2" width="42" height="42">
<path d="M20.1716 3.20099C21.7337 1.63889 24.2663 1.63889 25.8284 3.20099L42.799 20.1715C44.3611 21.7336 44.3611 24.2663 42.799 25.8284L25.8284 42.799C24.2663 44.3611 21.7337 44.3611 20.1716 42.799L3.20101 25.8284C1.63891 24.2663 1.63891 21.7336 3.20101 20.1715L20.1716 3.20099Z" fill="#F7BE69"/>
</mask>
<g mask="url(#mask0)">
<path opacity="0.45" d="M44.5794 19.959C45.4632 21.8328 45.7107 23.9188 45.3572 25.9694C45.0743 27.5957 47.5492 28.1614 47.8674 26.5704C48.3624 23.8127 48.0088 21.1257 46.8067 18.6508C46.0996 17.0952 43.8723 18.4741 44.5794 19.959Z" fill="#F79661"/>
<path opacity="0.45" d="M37.3315 20.1358C37.8619 24.6259 39.5589 28.5857 42.4227 32.0151C43.4834 33.2879 45.2511 31.3788 44.2258 30.1413C41.8216 27.2422 40.3367 23.7774 39.9125 20.0297C39.7357 18.4387 37.1547 18.4741 37.3315 20.1358Z" fill="#F79661"/>
<path opacity="0.45" d="M42.8116 42.3036C42.5641 45.5209 41.2913 48.42 39.1346 50.7888C38.0386 52.0263 39.8771 53.7941 40.9731 52.5566C43.6248 49.6221 45.0743 46.1219 45.3572 42.2329C45.5339 40.5712 42.953 40.6772 42.8116 42.3036Z" fill="#F79661"/>
<path opacity="0.45" d="M24.4268 15.6456C22.9772 18.7215 23.048 22.1156 24.5329 25.1562C25.24 26.6411 27.4674 25.2623 26.7249 23.8127C25.6289 21.656 25.6289 19.0397 26.6895 16.8477C27.3967 15.2921 25.1339 14.09 24.4268 15.6456Z" fill="#F79661"/>
<path opacity="0.45" d="M14.3505 22.1157C13.8909 25.333 12.7596 28.2321 10.8857 30.8838C9.93112 32.2626 12.2292 33.4294 13.1485 32.0859C15.1284 29.2574 16.3658 26.1108 16.8608 22.7167C17.0376 21.055 14.5627 20.4893 14.3505 22.1157Z" fill="#F79661"/>
<path opacity="0.45" d="M17.2497 39.5812C15.8355 43.6824 14.9869 48.9857 19.4771 51.4252C20.9266 52.2384 22.1641 49.9403 20.7145 49.1271C17.4265 47.324 18.8407 42.9399 19.7953 40.1469C20.2902 38.5912 17.78 37.9902 17.2497 39.5812Z" fill="#F79661"/>
<path opacity="0.45" d="M29.2351 31.6262C28.2806 34.7021 26.7956 37.4599 24.7097 39.8994C23.649 41.1722 25.4875 42.9399 26.5481 41.6671C28.917 38.8741 30.6494 35.7275 31.7454 32.2273C32.2404 30.6009 29.7655 30.0352 29.2351 31.6262Z" fill="#F79661"/>
<g opacity="0.45">
<path opacity="0.45" d="M35.0688 38.7327C36.2709 39.864 38.074 37.9902 36.8719 36.8588C35.6345 35.6921 33.8667 37.6013 35.0688 38.7327Z" fill="#F79661"/>
</g>
<path opacity="0.45" d="M6.60772 45.627C8.72904 43.9299 10.7797 42.2328 12.901 40.5358C14.1738 39.4751 12.2999 37.7427 11.0625 38.768C8.94118 40.4651 6.89057 42.1621 4.76925 43.8592C3.4611 44.9552 5.33493 46.6876 6.60772 45.627Z" fill="#F79661"/>
<g opacity="0.45">
<path opacity="0.45" d="M18.1336 30.4949C19.3356 31.6262 21.1388 29.7524 19.9367 28.621C18.6992 27.525 16.9315 29.3635 18.1336 30.4949Z" fill="#F79661"/>
</g>
<g opacity="0.45">
<path opacity="0.45" d="M30.5787 24.4844C31.7807 25.6158 33.5839 23.742 32.3818 22.6106C31.1443 21.4439 29.3766 23.3531 30.5787 24.4844Z" fill="#F79661"/>
</g>
</g>
</svg>
