<svg width="47" height="46" viewBox="0 0 47 46" fill="none" xmlns="http://www.w3.org/2000/svg">
<path d="M20.5715 3.20102C22.1336 1.63892 24.6662 1.63892 26.2283 3.20102L43.1989 20.1716C44.761 21.7337 44.761 24.2663 43.1989 25.8284L26.2283 42.799C24.6662 44.3611 22.1336 44.3611 20.5715 42.799L3.60091 25.8284C2.03882 24.2663 2.03882 21.7337 3.60091 20.1716L20.5715 3.20102Z" fill="#55D355"/>
<mask id="mask0" mask-type="alpha" maskUnits="userSpaceOnUse" x="2" y="2" width="43" height="42">
<path d="M20.5715 3.20102C22.1336 1.63892 24.6662 1.63892 26.2283 3.20102L43.1989 20.1716C44.761 21.7337 44.761 24.2663 43.1989 25.8284L26.2283 42.799C24.6662 44.3611 22.1336 44.3611 20.5715 42.799L3.60091 25.8284C2.03882 24.2663 2.03882 21.7337 3.60091 20.1716L20.5715 3.20102Z" fill="#55D355"/>
</mask>
<g mask="url(#mask0)">
<g opacity="0.45">
<g opacity="0.83">
<path opacity="0.83" d="M43.5448 25.6793C42.5902 27.6946 41.0699 29.3563 39.1254 30.4523C37.6051 31.3362 38.8425 33.7757 40.3628 32.8918C42.9791 31.4069 44.8883 29.2856 46.1257 26.5632C46.9036 24.9369 44.2873 24.0883 43.5448 25.6793Z" fill="#21B1A0"/>
<path opacity="0.83" d="M38.4183 19.8457C35.0949 23.3812 33.0443 27.4824 32.1957 32.2201C31.8775 33.9525 34.6706 34.1292 34.9535 32.3615C35.6606 28.4017 37.499 24.7954 40.2921 21.8609C41.4588 20.6235 39.6204 18.5729 38.4183 19.8457Z" fill="#21B1A0"/>
<path opacity="0.83" d="M33.1857 6.12783C29.6855 7.08242 26.8924 9.45123 25.4782 12.7746C24.7711 14.401 27.4228 15.2849 28.1299 13.6585C29.1552 11.2897 31.2765 9.45122 33.8221 8.81483C35.4838 8.35521 34.9181 5.66821 33.1857 6.12783Z" fill="#21B1A0"/>
<path opacity="0.83" d="M20.9174 2.34481C17.9829 4.21865 14.8363 5.24395 11.3714 5.52679C9.60367 5.66822 10.1694 8.35522 11.9371 8.2138C15.6141 7.93096 19.0789 6.72887 22.1548 4.78433C23.6751 3.82974 22.4377 1.39022 20.9174 2.34481Z" fill="#21B1A0"/>
<path opacity="0.83" d="M8.61371 16.7698C4.30036 18.3961 -0.614023 21.4013 0.411282 26.74C0.72948 28.4724 3.48719 27.9067 3.09828 26.1743C2.32046 22.2145 6.88131 20.3407 9.85116 19.2093C11.5482 18.5729 10.2401 16.1334 8.61371 16.7698Z" fill="#21B1A0"/>
<path opacity="0.83" d="M23.4276 21.1185C20.2456 22.462 16.9576 23.1338 13.5281 23.0984C11.7603 23.0984 11.5836 25.8208 13.3513 25.8208C17.2758 25.8561 21.0942 25.0783 24.7004 23.5227C26.2914 22.8509 25.054 20.4114 23.4276 21.1185Z" fill="#21B1A0"/>
<path opacity="0.83" d="M-3.72529 12.2089C-0.89686 12.7746 1.96693 13.305 4.76 13.8353C6.49241 14.1535 6.66919 11.4311 4.93678 11.1129C2.10835 10.5472 -0.755436 10.0169 -3.54851 9.48658C-5.28092 9.16839 -5.4577 11.8907 -3.72529 12.2089Z" fill="#21B1A0"/>
<g opacity="0.83">
<path opacity="0.83" d="M16.6747 11.2544C16.5687 12.9868 19.3264 13.1989 19.4325 11.3958C19.5385 9.66337 16.7455 9.48659 16.6747 11.2544Z" fill="#21B1A0"/>
</g>
<g opacity="0.83">
<path opacity="0.83" d="M30.1805 17.2648C30.0744 18.9972 32.8321 19.2093 32.9382 17.4062C33.0443 15.6738 30.2865 15.5323 30.1805 17.2648Z" fill="#21B1A0"/>
</g>
<path opacity="0.83" d="M33.6453 40.2457C35.5191 41.4125 36.9687 43.1449 37.8172 45.1955C38.5243 46.8218 41.0699 45.9026 40.3982 44.2409C39.2668 41.4832 37.3576 39.2911 34.812 37.7355C33.3271 36.8163 32.125 39.2911 33.6453 40.2457Z" fill="#21B1A0"/>
<path opacity="0.83" d="M7.09344 31.3008C7.16416 31.3008 7.27022 31.3362 7.37629 31.3008C8.11875 31.3362 8.82585 30.7705 8.86121 30.028C8.89656 29.2856 8.33088 28.6492 7.55307 28.5785C7.48235 28.5785 7.37628 28.5431 7.27021 28.5785C6.52775 28.5431 5.82065 29.1088 5.78529 29.8513C5.82065 30.5937 6.35098 31.2655 7.09344 31.3008Z" fill="#21B1A0"/>
</g>
</g>
</g>
</svg>
