<svg width="46" height="46" viewBox="0 0 46 46" fill="none" xmlns="http://www.w3.org/2000/svg">
<path d="M20.1716 3.20102C21.7337 1.63892 24.2663 1.63892 25.8284 3.20102L42.799 20.1716C44.3611 21.7337 44.3611 24.2663 42.799 25.8284L25.8284 42.799C24.2663 44.3611 21.7337 44.3611 20.1716 42.799L3.20101 25.8284C1.63891 24.2663 1.63891 21.7337 3.20101 20.1716L20.1716 3.20102Z" fill="#32BF90"/>
<mask id="mask0" mask-type="alpha" maskUnits="userSpaceOnUse" x="2" y="2" width="42" height="42">
<path d="M20.1716 3.20102C21.7337 1.63892 24.2663 1.63892 25.8284 3.20102L42.799 20.1716C44.3611 21.7337 44.3611 24.2663 42.799 25.8284L25.8284 42.799C24.2663 44.3611 21.7337 44.3611 20.1716 42.799L3.20101 25.8284C1.63891 24.2663 1.63891 21.7337 3.20101 20.1716L20.1716 3.20102Z" fill="#32BF90"/>
</mask>
<g mask="url(#mask0)">
<g opacity="0.45">
<path opacity="0.45" d="M45.6032 44.6133C46.5224 43.0576 44.1183 41.6434 43.199 43.1991C42.3151 44.7193 44.7193 46.1336 45.6032 44.6133Z" fill="#2FA37C"/>
</g>
<path opacity="0.45" d="M10.7782 4.83853C15.4097 3.24754 19.1574 0.489819 22.1273 -3.32856C23.1879 -4.74277 20.7838 -6.15699 19.7231 -4.74277C17.2129 -1.52544 13.9248 0.843368 10.0711 2.15152C8.40939 2.68185 9.08114 5.40421 10.7782 4.83853Z" fill="#2FA37C"/>
<path opacity="0.45" d="M44.8961 2.75256C49.3155 1.30299 53.5935 -1.20724 53.9824 -6.26305C54.1239 -8.03082 51.3308 -8.06617 51.1893 -6.2984C50.9065 -2.62144 47.3356 -0.959751 44.2243 0.0301984C42.4919 0.631239 43.199 3.31824 44.8961 2.75256Z" fill="#2FA37C"/>
<path opacity="0.45" d="M9.0458 19.511C12.652 20.2888 16.2229 19.4756 19.0514 17.1422C20.4656 16.0108 18.4857 14.0309 17.1068 15.1269C15.0562 16.7533 12.3692 17.3897 9.7529 16.824C8.02049 16.4351 7.24267 19.1221 9.0458 19.511Z" fill="#2FA37C"/>
<path opacity="0.45" d="M18.2382 28.6327C21.703 28.3498 25.0617 28.8801 28.2791 30.259C29.9408 30.9307 30.6832 28.2791 29.0215 27.6074C25.5921 26.1578 21.9858 25.5921 18.2735 25.9103C16.5058 25.981 16.4704 28.7741 18.2382 28.6327Z" fill="#2FA37C"/>
<path opacity="0.45" d="M35.9512 21.4555C40.5827 21.9859 46.381 21.6323 47.9367 16.329C48.4316 14.632 45.7446 13.8541 45.2497 15.5512C44.1183 19.4403 39.1685 19.016 35.9512 18.6271C34.1834 18.4857 34.1834 21.2434 35.9512 21.4555Z" fill="#2FA37C"/>
<path opacity="0.45" d="M24.7789 10.6368C28.2437 10.9196 31.5318 11.8742 34.5723 13.5006C36.1633 14.3138 37.5776 11.9803 36.0219 11.1318C32.5217 9.25793 28.7741 8.19728 24.8496 7.87908C23.0112 7.73766 22.9758 10.5307 24.7789 10.6368Z" fill="#2FA37C"/>
<g opacity="0.45">
<path opacity="0.45" d="M30.9307 2.85862C31.85 1.30298 29.4458 -0.111224 28.5266 1.44441C27.572 2.96469 30.0115 4.41425 30.9307 2.85862Z" fill="#2FA37C"/>
</g>
<path opacity="0.45" d="M44.8608 31.2843C42.5627 29.4812 40.2999 27.6427 38.0018 25.8396C36.5876 24.7082 35.1734 27.1124 36.5522 28.2084C38.8503 30.0115 41.1131 31.85 43.4112 33.6531C44.8607 34.7491 46.275 32.345 44.8608 31.2843Z" fill="#2FA37C"/>
<g opacity="0.45">
<path opacity="0.45" d="M26.2285 22.6223C27.1477 21.0666 24.7436 19.6524 23.8243 21.208C22.9051 22.7637 25.3092 24.1779 26.2285 22.6223Z" fill="#2FA37C"/>
</g>
<g opacity="0.45">
<path opacity="0.45" d="M16.9654 10.955C17.8846 9.39936 15.4805 7.98514 14.5612 9.54078C13.642 11.0257 16.0108 12.4753 16.9654 10.955Z" fill="#2FA37C"/>
</g>
<path opacity="0.45" d="M44.0829 9.15189C44.0122 9.08118 43.9061 9.04583 43.8708 9.01047C43.2344 8.65692 42.3151 8.79834 41.9616 9.50544C41.608 10.1418 41.7848 11.0257 42.4566 11.4146C42.5273 11.4853 42.6333 11.5207 42.6687 11.5561C43.3051 11.9096 44.2243 11.7682 44.5779 11.0611C44.9314 10.4247 44.7547 9.5408 44.0829 9.15189Z" fill="#2FA37C"/>
</g>
</svg>
