<svg width="46" height="46" viewBox="0 0 46 46" fill="none" xmlns="http://www.w3.org/2000/svg">
<path d="M20.1716 3.20099C21.7337 1.63889 24.2663 1.63889 25.8284 3.20099L42.799 20.1715C44.3611 21.7336 44.3611 24.2663 42.799 25.8284L25.8284 42.799C24.2663 44.3611 21.7337 44.3611 20.1716 42.799L3.20101 25.8284C1.63891 24.2663 1.63891 21.7336 3.20101 20.1715L20.1716 3.20099Z" fill="#A5DCE0"/>
<mask id="mask0" mask-type="alpha" maskUnits="userSpaceOnUse" x="2" y="2" width="42" height="42">
<path d="M20.1716 3.20099C21.7337 1.63889 24.2663 1.63889 25.8284 3.20099L42.799 20.1715C44.3611 21.7336 44.3611 24.2663 42.799 25.8284L25.8284 42.799C24.2663 44.3611 21.7337 44.3611 20.1716 42.799L3.20101 25.8284C1.63891 24.2663 1.63891 21.7336 3.20101 20.1715L20.1716 3.20099Z" fill="#A5DCE0"/>
</mask>
<g mask="url(#mask0)">
<path opacity="0.45" d="M8.72714 12.4043C10.5656 10.99 12.7577 10.2122 15.0911 10.1415C16.9296 10.0708 16.9649 7.20701 15.1265 7.27772C11.9798 7.38379 9.18677 8.4091 6.71189 10.3183C5.26232 11.4143 7.27758 13.5003 8.72714 12.4043Z" fill="#85D2D8"/>
<path opacity="0.45" d="M10.7071 20.2531C15.48 18.5914 19.3691 15.763 22.445 11.7679C23.541 10.3183 21.0662 8.83336 19.9702 10.2829C17.4246 13.6063 13.9951 16.0458 9.99995 17.4247C8.23219 18.0611 8.90394 20.8542 10.7071 20.2531Z" fill="#85D2D8"/>
<path opacity="0.45" d="M33.5112 8.90406C37.0468 8.40909 40.5469 9.08083 43.6582 10.8486C45.2846 11.7678 46.7341 9.32832 45.1431 8.37373C41.3248 6.1817 37.1175 5.43924 32.8041 6.07563C31.001 6.39383 31.7081 9.15155 33.5112 8.90406Z" fill="#85D2D8"/>
<path opacity="0.45" d="M45.921 18.1318C50.5172 16.6469 54.9366 14.0659 55.2902 8.83335C55.4316 6.99487 52.5324 6.92416 52.4264 8.79799C52.1435 12.6164 48.4312 14.3488 45.2139 15.3741C43.4815 15.9044 44.1886 18.7329 45.921 18.1318Z" fill="#85D2D8"/>
<path opacity="0.45" d="M8.86858 35.4559C12.5809 36.2691 16.2932 35.3852 19.2277 33.0164C20.6773 31.8497 18.662 29.7637 17.2124 30.9304C15.0911 32.6275 12.2627 33.2639 9.61103 32.6629C7.80791 32.2739 7.0301 35.0317 8.86858 35.4559Z" fill="#85D2D8"/>
<path opacity="0.45" d="M18.3792 44.8958C21.9854 44.613 25.4149 45.1433 28.7383 46.5575C30.4353 47.2646 31.2132 44.5069 29.5161 43.7998C25.9806 42.3149 22.1975 41.7138 18.4145 42.032C16.576 42.1734 16.5407 45.0372 18.3792 44.8958Z" fill="#85D2D8"/>
<path opacity="0.45" d="M36.7286 37.4358C41.5369 38.0015 47.512 37.6126 49.1383 32.1679C49.6333 30.4001 46.8756 29.6223 46.3806 31.3901C45.1785 35.4206 40.052 34.9609 36.7639 34.572C34.8901 34.3953 34.8901 37.2237 36.7286 37.4358Z" fill="#85D2D8"/>
<path opacity="0.45" d="M25.1674 26.2989C28.7736 26.5817 32.097 27.5717 35.3144 29.2334C36.9407 30.0819 38.461 27.6424 36.7993 26.7585C33.1577 24.814 29.304 23.7179 25.2027 23.3644C23.2936 23.2937 23.3289 26.1575 25.1674 26.2989Z" fill="#85D2D8"/>
<g opacity="0.45">
<path opacity="0.45" d="M31.496 18.2732C32.4506 16.6822 29.9757 15.1973 29.0211 16.7883C28.0665 18.3086 30.5768 19.8289 31.496 18.2732Z" fill="#85D2D8"/>
</g>
<path opacity="0.45" d="M45.921 47.6182C43.5522 45.7443 41.1833 43.8705 38.8499 42.032C37.4003 40.8653 35.9154 43.3402 37.365 44.5069C39.7338 46.3807 42.1026 48.2546 44.436 50.093C45.921 51.2244 47.4059 48.7495 45.921 47.6182Z" fill="#85D2D8"/>
<g opacity="0.45">
<path opacity="0.45" d="M26.6523 38.6733C27.6069 37.0823 25.132 35.5973 24.1774 37.1883C23.2229 38.7793 25.6977 40.2642 26.6523 38.6733Z" fill="#85D2D8"/>
</g>
<g opacity="0.45">
<path opacity="0.45" d="M17.0357 26.5817C17.9903 24.9907 15.5154 23.5058 14.5608 25.0968C13.6062 26.6878 16.0811 28.1727 17.0357 26.5817Z" fill="#85D2D8"/>
</g>
<path opacity="0.45" d="M45.1078 24.7433C45.0371 24.6725 44.931 24.6372 44.8603 24.5665C44.1886 24.1776 43.234 24.3543 42.8804 25.0614C42.4915 25.7332 42.6683 26.6171 43.3754 27.0413C43.4461 27.1121 43.5522 27.1474 43.6229 27.2181C44.2946 27.607 45.2492 27.4303 45.6028 26.7231C45.9917 26.0514 45.8149 25.1675 45.1078 24.7433Z" fill="#85D2D8"/>
</g>
</svg>
