<svg width="46" height="46" viewBox="0 0 46 46" fill="none" xmlns="http://www.w3.org/2000/svg">
<path d="M19.799 2.82843C21.3611 1.26633 23.8937 1.26633 25.4558 2.82843L42.4264 19.799C43.9885 21.3611 43.9885 23.8937 42.4264 25.4558L25.4558 42.4264C23.8937 43.9885 21.3611 43.9885 19.799 42.4264L2.82842 25.4558C1.26632 23.8937 1.26632 21.3611 2.82842 19.799L19.799 2.82843Z" fill="#34B1E8"/>
<mask id="mask0" mask-type="alpha" maskUnits="userSpaceOnUse" x="1" y="1" width="43" height="43">
<path d="M19.799 2.82843C21.3611 1.26633 23.8937 1.26633 25.4558 2.82843L42.4264 19.799C43.9885 21.3611 43.9885 23.8937 42.4264 25.4558L25.4558 42.4264C23.8937 43.9885 21.3611 43.9885 19.799 42.4264L2.82842 25.4558C1.26632 23.8937 1.26632 21.3611 2.82842 19.799L19.799 2.82843Z" fill="#34B1E8"/>
</mask>
<g mask="url(#mask0)">
<path opacity="0.45" d="M8.35463 12.0316C10.1931 10.6174 12.3851 9.83958 14.7186 9.76887C16.5571 9.69816 16.5924 6.83437 14.754 6.90509C11.6073 7.01115 8.81425 8.03646 6.33938 9.94565C4.88981 11.0417 6.90506 13.1276 8.35463 12.0316Z" fill="#2E9AC9"/>
<path opacity="0.45" d="M10.3345 19.8805C15.1075 18.2188 18.9966 15.3904 22.0725 11.3952C23.1685 9.94565 20.6937 8.46072 19.5976 9.91029C17.0521 13.2337 13.6226 15.6732 9.62744 17.0521C7.85967 17.6885 8.53142 20.4815 10.3345 19.8805Z" fill="#2E9AC9"/>
<path opacity="0.45" d="M33.1387 8.53143C36.6743 8.03646 40.1744 8.70821 43.2857 10.476C44.9121 11.3952 46.3616 8.95569 44.7706 8.0011C40.9523 5.80907 36.745 5.06661 32.4316 5.70301C30.6285 6.02121 31.3356 8.77892 33.1387 8.53143Z" fill="#2E9AC9"/>
<path opacity="0.45" d="M45.5485 17.7592C50.1447 16.2742 54.5641 13.6933 54.9176 8.46071C55.0591 6.62223 52.1599 6.55152 52.0539 8.42535C51.771 12.2437 48.0587 13.9761 44.8414 15.0014C43.109 15.5318 43.8161 18.3602 45.5485 17.7592Z" fill="#2E9AC9"/>
<path opacity="0.45" d="M8.49606 35.0833C12.2084 35.8965 15.9207 35.0126 18.8552 32.6438C20.3047 31.477 18.2895 29.3911 16.8399 30.5578C14.7186 32.2549 11.8902 32.8913 9.23852 32.2902C7.4354 31.9013 6.65759 34.659 8.49606 35.0833Z" fill="#2E9AC9"/>
<path opacity="0.45" d="M18.0067 44.5232C21.6129 44.2403 25.0424 44.7707 28.3658 46.1849C30.0628 46.892 30.8406 44.1343 29.1436 43.4271C25.608 41.9422 21.825 41.3412 18.042 41.6594C16.2035 41.8008 16.1682 44.6646 18.0067 44.5232Z" fill="#2E9AC9"/>
<path opacity="0.45" d="M36.3561 37.0632C41.1644 37.6289 47.1394 37.24 48.7658 31.7952C49.2608 30.0275 46.5031 29.2496 46.0081 31.0174C44.806 35.0479 39.6795 34.5883 36.3914 34.1994C34.5176 34.0226 34.5176 36.851 36.3561 37.0632Z" fill="#2E9AC9"/>
<path opacity="0.45" d="M24.7949 25.9263C28.4011 26.2091 31.7245 27.199 34.9419 28.8608C36.5682 29.7093 38.0885 27.2698 36.4268 26.3859C32.7852 24.4413 28.9315 23.3453 24.8302 22.9918C22.921 22.9211 22.9564 25.7848 24.7949 25.9263Z" fill="#2E9AC9"/>
<g opacity="0.45">
<path opacity="0.45" d="M31.1235 17.9006C32.0781 16.3096 29.6032 14.8247 28.6486 16.4157C27.694 17.936 30.2043 19.4562 31.1235 17.9006Z" fill="#2E9AC9"/>
</g>
<path opacity="0.45" d="M45.5485 47.2455C43.1796 45.3717 40.8108 43.4979 38.4774 41.6594C37.0278 40.4926 35.5429 42.9675 36.9925 44.1343C39.3613 46.0081 41.7301 47.8819 44.0635 49.7204C45.5484 50.8518 47.0334 48.3769 45.5485 47.2455Z" fill="#2E9AC9"/>
<g opacity="0.45">
<path opacity="0.45" d="M26.2798 38.3006C27.2344 36.7096 24.7595 35.2247 23.8049 36.8157C22.8503 38.4067 25.3252 39.8916 26.2798 38.3006Z" fill="#2E9AC9"/>
</g>
<g opacity="0.45">
<path opacity="0.45" d="M16.6632 26.2091C17.6177 24.6181 15.1429 23.1332 14.1883 24.7242C13.2337 26.3152 15.7086 27.8001 16.6632 26.2091Z" fill="#2E9AC9"/>
</g>
<path opacity="0.45" d="M44.7353 24.3706C44.6646 24.2999 44.5585 24.2645 44.4878 24.1938C43.816 23.8049 42.8614 23.9817 42.5079 24.6888C42.119 25.3606 42.2958 26.2444 43.0029 26.6687C43.0736 26.7394 43.1796 26.7748 43.2504 26.8455C43.9221 27.2344 44.8767 27.0576 45.2303 26.3505C45.6192 25.6788 45.4424 24.7949 44.7353 24.3706Z" fill="#2E9AC9"/>
</g>
</svg>
