<svg width="47" height="46" viewBox="0 0 47 46" fill="none" xmlns="http://www.w3.org/2000/svg">
<path d="M20.5715 3.20099C22.1336 1.63889 24.6662 1.63889 26.2283 3.20099L43.1989 20.1715C44.761 21.7336 44.761 24.2663 43.1989 25.8284L26.2283 42.799C24.6662 44.3611 22.1336 44.3611 20.5715 42.799L3.60091 25.8284C2.03882 24.2663 2.03882 21.7336 3.60091 20.1715L20.5715 3.20099Z" fill="#1D6DCD"/>
<mask id="mask0" mask-type="alpha" maskUnits="userSpaceOnUse" x="2" y="2" width="43" height="42">
<path d="M20.5715 3.20099C22.1336 1.63889 24.6662 1.63889 26.2283 3.20099L43.1989 20.1715C44.761 21.7336 44.761 24.2663 43.1989 25.8284L26.2283 42.799C24.6662 44.3611 22.1336 44.3611 20.5715 42.799L3.60091 25.8284C2.03882 24.2663 2.03882 21.7336 3.60091 20.1715L20.5715 3.20099Z" fill="#1D6DCD"/>
</mask>
<g mask="url(#mask0)">
<g opacity="0.45">
<g opacity="0.45">
<path opacity="0.45" d="M23.9411 23.9655C24.6836 25.2736 26.7342 24.1423 26.0271 22.7987C25.2493 21.526 23.1987 22.6573 23.9411 23.9655Z" fill="#10B4C1"/>
</g>
<path opacity="0.45" d="M47.1342 42.4917C45.5786 43.9766 43.7401 44.8251 41.6188 45.1787C40.0985 45.4262 40.6642 47.6889 42.1492 47.4768C44.6594 47.0879 46.9221 45.9565 48.7606 44.1887C49.9273 43.0927 48.2656 41.431 47.1342 42.4917Z" fill="#10B4C1"/>
<path opacity="0.45" d="M47.2757 10.6719C46.0029 13.3589 44.2351 15.5509 41.8663 17.354C40.6642 18.2733 42.3259 19.935 43.528 19.0157C46.0382 17.1419 48.0181 14.667 49.3616 11.8386C49.9627 10.4597 47.9121 9.25765 47.2757 10.6719Z" fill="#10B4C1"/>
<path opacity="0.45" d="M45.0483 26.6878C42.7148 29.8698 40.4874 34.2892 43.7048 37.648C44.7301 38.744 46.4625 37.0823 45.4018 36.0216C43.033 33.5114 45.4725 30.0819 47.0635 27.9253C47.9828 26.6525 45.9675 25.4857 45.0483 26.6878Z" fill="#10B4C1"/>
<path opacity="0.45" d="M31.8607 39.734C31.9314 39.6633 32.0021 39.6633 32.0728 39.5926C32.6032 39.2744 32.8507 38.5319 32.5325 38.0016C32.2143 37.4712 31.5072 37.2591 30.9415 37.5419C30.8708 37.6127 30.8001 37.6127 30.7293 37.6834C30.199 38.0016 29.9515 38.744 30.2697 39.2743C30.5879 39.8047 31.2597 40.0522 31.8607 39.734Z" fill="#10B4C1"/>
<path opacity="0.45" d="M34.0881 29.092C36.3862 28.2081 38.6843 27.2535 40.9824 26.3696C42.3966 25.804 41.2653 23.7533 39.851 24.319C37.5529 25.2029 35.2548 26.1575 32.9567 27.0414C31.5425 27.6071 32.6739 29.6577 34.0881 29.092Z" fill="#10B4C1"/>
</g>
<g opacity="0.45">
<path opacity="0.45" d="M41.1592 7.52525C40.0632 10.2476 38.154 12.4397 35.6084 13.9246C34.3002 14.667 35.4316 16.7176 36.7398 15.9752C39.851 14.1367 42.0784 11.4851 43.4219 8.16165C44.023 6.71209 41.7249 6.11104 41.1592 7.52525Z" fill="#10B4C1"/>
<path opacity="0.45" d="M29.5626 12.5457C28.7495 16.3994 28.7848 20.6067 32.3203 23.0109C33.5931 23.8594 34.7952 21.8088 33.5224 20.9603C30.9415 19.2279 31.2243 15.8338 31.79 13.1468C32.1082 11.6972 29.8455 11.0608 29.5626 12.5457Z" fill="#10B4C1"/>
<path opacity="0.45" d="M21.6784 13.8538C20.1228 15.3388 18.2843 16.1873 16.163 16.5408C14.6427 16.7883 15.2084 19.0511 16.6933 18.8389C19.2035 18.45 21.4663 17.3187 23.3048 15.5509C24.4715 14.4549 22.8098 12.7932 21.6784 13.8538Z" fill="#10B4C1"/>
<path opacity="0.45" d="M19.5924 -1.94999C17.259 1.23199 15.0316 5.65141 18.2489 9.01017C19.2742 10.1062 21.0066 8.44448 19.946 7.38382C17.5772 4.87359 20.0167 1.44413 21.6077 -0.712548C22.5269 -1.98534 20.5117 -3.15208 19.5924 -1.94999Z" fill="#10B4C1"/>
<path opacity="0.45" d="M32.2496 -5.55623C30.5879 -3.11671 28.4666 -1.1368 25.9917 0.418838C24.6836 1.23201 25.815 3.28262 27.1231 2.46944C29.9869 0.666321 32.3557 -1.63177 34.2649 -4.38949C35.1488 -5.62693 33.0982 -6.82902 32.2496 -5.55623Z" fill="#10B4C1"/>
<g opacity="0.45">
<path opacity="0.45" d="M35.3609 2.22195C36.1034 3.5301 38.154 2.39872 37.4469 1.05522C36.7044 -0.252932 34.6184 0.913805 35.3609 2.22195Z" fill="#10B4C1"/>
</g>
<path opacity="0.45" d="M6.40488 11.0961C6.47559 11.0254 6.54631 11.0254 6.61702 10.9547C7.14735 10.6365 7.39484 9.89406 7.07664 9.36373C6.75845 8.8334 6.05133 8.62128 5.48564 8.90412C5.41493 8.97483 5.34422 8.97483 5.27351 9.04554C4.74318 9.36374 4.49571 10.1062 4.8139 10.6365C5.1321 11.1669 5.80384 11.4143 6.40488 11.0961Z" fill="#10B4C1"/>
<path opacity="0.45" d="M8.63228 0.454176C10.9304 -0.429707 13.2285 -1.38429 15.5266 -2.26818C16.9408 -2.83386 15.8094 -4.88449 14.3952 -4.3188C12.0971 -3.43492 9.799 -2.48031 7.5009 -1.59643C6.08669 -1.03074 7.21806 1.01986 8.63228 0.454176Z" fill="#10B4C1"/>
<path opacity="0.45" d="M25.1786 9.22231C25.2493 9.1516 25.32 9.1516 25.3907 9.08089C25.921 8.76269 26.1685 8.02022 25.8503 7.48989C25.5321 6.95956 24.825 6.74744 24.2593 7.03029C24.1886 7.101 24.1179 7.101 24.0472 7.17171C23.5169 7.48991 23.2694 8.23235 23.5876 8.76268C23.9058 9.36372 24.6129 9.57587 25.1786 9.22231Z" fill="#10B4C1"/>
</g>
</g>
</svg>
