<svg width="46" height="46" viewBox="0 0 46 46" fill="none" xmlns="http://www.w3.org/2000/svg">
<path d="M20.1716 3.20099C21.7337 1.63889 24.2663 1.63889 25.8284 3.20099L42.799 20.1715C44.3611 21.7336 44.3611 24.2663 42.799 25.8284L25.8284 42.799C24.2663 44.3611 21.7337 44.3611 20.1716 42.799L3.20101 25.8284C1.63891 24.2663 1.63891 21.7336 3.20101 20.1715L20.1716 3.20099Z" fill="#C395EE"/>
<mask id="mask0" mask-type="alpha" maskUnits="userSpaceOnUse" x="2" y="2" width="42" height="42">
<path d="M20.1716 3.20099C21.7337 1.63889 24.2663 1.63889 25.8284 3.20099L42.799 20.1715C44.3611 21.7336 44.3611 24.2663 42.799 25.8284L25.8284 42.799C24.2663 44.3611 21.7337 44.3611 20.1716 42.799L3.20101 25.8284C1.63891 24.2663 1.63891 21.7336 3.20101 20.1715L20.1716 3.20099Z" fill="#C395EE"/>
</mask>
<g mask="url(#mask0)">
<path opacity="0.45" d="M13.6769 1.79765C15.5154 0.383439 17.7074 -0.394382 20.0409 -0.465093C21.8793 -0.535803 21.9147 -3.39959 20.0762 -3.32888C16.9296 -3.22281 14.1365 -2.1975 11.6616 -0.288313C10.2121 0.807702 12.2273 2.89367 13.6769 1.79765Z" fill="#A66DD9"/>
<path opacity="0.45" d="M15.6568 9.64654C20.4298 7.98484 24.3189 5.15641 27.3948 1.16125C28.4908 -0.288316 26.0159 -1.77324 24.9199 -0.323672C22.3743 2.99973 18.9449 5.43925 14.9497 6.81811C13.1819 7.45451 13.8537 10.2476 15.6568 9.64654Z" fill="#A66DD9"/>
<path opacity="0.45" d="M38.461 -1.70253C41.9965 -2.1975 45.4967 -1.52576 48.608 0.24201C50.2343 1.16125 51.6839 -1.27827 50.0929 -2.23286C46.2745 -4.42489 42.0672 -5.16735 37.7539 -4.53096C35.9508 -4.21276 36.6579 -1.45504 38.461 -1.70253Z" fill="#A66DD9"/>
<path opacity="0.45" d="M13.8183 24.8493C17.5306 25.6625 21.2429 24.7786 24.1774 22.4098C25.627 21.2431 23.6118 19.1571 22.1622 20.3238C20.0409 22.0209 17.2124 22.6573 14.5608 22.0563C12.7577 21.6674 11.9799 24.4251 13.8183 24.8493Z" fill="#A66DD9"/>
<path opacity="0.45" d="M23.3289 34.2892C26.9352 34.0064 30.3646 34.5367 33.688 35.9509C35.3851 36.658 36.1629 33.9003 34.4658 33.1932C30.9303 31.7083 27.1473 31.1072 23.3643 31.4254C21.5258 31.5668 21.4904 34.4306 23.3289 34.2892Z" fill="#A66DD9"/>
<path opacity="0.45" d="M41.6783 26.8292C46.4867 27.3949 52.4617 27.006 54.0881 21.5613C54.583 19.7935 51.8253 19.0157 51.3303 20.7835C50.1283 24.814 45.0017 24.3543 41.7137 23.9654C39.8399 23.7887 39.8399 26.6171 41.6783 26.8292Z" fill="#A66DD9"/>
<path opacity="0.45" d="M30.1171 15.6923C33.7234 15.9751 37.0468 16.9651 40.2641 18.6268C41.8905 19.4753 43.4108 17.0358 41.7491 16.1519C38.1075 14.2074 34.2537 13.1113 30.1525 12.7578C28.2433 12.6871 28.2787 15.5509 30.1171 15.6923Z" fill="#A66DD9"/>
<g opacity="0.45">
<path opacity="0.45" d="M36.4458 7.66663C37.4004 6.07564 34.9255 4.59073 33.9709 6.18172C33.0163 7.702 35.5265 9.22227 36.4458 7.66663Z" fill="#A66DD9"/>
</g>
<path opacity="0.45" d="M50.8707 37.0116C48.5019 35.1377 46.1331 33.2639 43.7996 31.4254C42.3501 30.2587 40.8652 32.7336 42.3147 33.9003C44.6835 35.7741 47.0523 37.648 49.3858 39.4864C50.8707 40.6178 52.3556 38.1429 50.8707 37.0116Z" fill="#A66DD9"/>
<g opacity="0.45">
<path opacity="0.45" d="M31.6021 28.0667C32.5567 26.4757 30.0818 24.9907 29.1272 26.5817C28.1726 28.1727 30.6475 29.6577 31.6021 28.0667Z" fill="#A66DD9"/>
</g>
<g opacity="0.45">
<path opacity="0.45" d="M21.9854 15.9751C22.94 14.3842 20.4651 12.8992 19.5105 14.4902C18.556 16.0812 21.0308 17.5661 21.9854 15.9751Z" fill="#A66DD9"/>
</g>
</g>
</svg>
