<svg width="47" height="46" viewBox="0 0 47 46" fill="none" xmlns="http://www.w3.org/2000/svg">
<path d="M20.5715 2.82843C22.1336 1.26633 24.6662 1.26633 26.2283 2.82843L43.1989 19.799C44.761 21.3611 44.761 23.8937 43.1989 25.4558L26.2283 42.4264C24.6662 43.9885 22.1336 43.9885 20.5715 42.4264L3.60091 25.4558C2.03882 23.8937 2.03882 21.3611 3.60091 19.799L20.5715 2.82843Z" fill="#8D3CBC"/>
<mask id="mask0" mask-type="alpha" maskUnits="userSpaceOnUse" x="2" y="1" width="43" height="43">
<path d="M20.5715 2.82843C22.1336 1.26633 24.6662 1.26633 26.2283 2.82843L43.1989 19.799C44.761 21.3611 44.761 23.8937 43.1989 25.4558L26.2283 42.4264C24.6662 43.9885 22.1336 43.9885 20.5715 42.4264L3.60091 25.4558C2.03882 23.8937 2.03882 21.3611 3.60091 19.799L20.5715 2.82843Z" fill="#8D3CBC"/>
</mask>
<g mask="url(#mask0)">
<path d="M20.5715 2.82843C22.1336 1.26633 24.6662 1.26633 26.2283 2.82843L43.1989 19.799C44.761 21.3611 44.761 23.8937 43.1989 25.4558L26.2283 42.4264C24.6662 43.9885 22.1336 43.9885 20.5715 42.4264L3.60091 25.4558C2.03882 23.8937 2.03882 21.3611 3.60091 19.799L20.5715 2.82843Z" fill="#8D3CBC"/>
<g opacity="0.45">
<path opacity="0.45" d="M26.8014 28.3624C26.0589 29.9534 24.8215 31.2615 23.3012 32.1454C22.0991 32.8525 23.0537 34.7971 24.2912 34.0546C26.3771 32.8879 27.8621 31.1908 28.8874 29.0341C29.4884 27.7967 27.3671 27.0896 26.8014 28.3624Z" fill="#3E1357"/>
<path opacity="0.45" d="M22.7002 23.7662C20.0485 26.5592 18.4222 29.8119 17.7504 33.595C17.5029 34.9738 19.695 35.1152 19.9425 33.7364C20.4728 30.5898 21.9577 27.7613 24.1497 25.4279C25.1397 24.3672 23.6548 22.7409 22.7002 23.7662Z" fill="#3E1357"/>
<path opacity="0.45" d="M11.2804 39.4286C9.05302 41.0196 6.47209 41.762 3.74972 41.656C2.33551 41.5852 2.19409 43.7773 3.60831 43.848C6.93171 43.9894 10.043 42.9995 12.6946 41.0549C13.9321 40.2417 12.4471 38.6154 11.2804 39.4286Z" fill="#3E1357"/>
<path opacity="0.45" d="M-0.280777 37.5548C-2.82636 40.1711 -4.91234 43.4591 -3.32135 47.1007C-2.75567 48.3735 -0.811117 47.4189 -1.34145 46.1108C-2.50817 43.4591 -0.598981 40.9842 1.20414 39.1811C2.15874 38.2265 0.709173 36.5648 -0.280777 37.5548Z" fill="#3E1357"/>
<path opacity="0.45" d="M18.599 12.8767C15.8059 13.6192 13.6139 15.5284 12.4825 18.1447C11.9168 19.4175 14.0381 20.1246 14.5331 18.8518C15.3463 16.978 17.008 15.5284 19.0232 14.9981C20.4374 14.6445 20.0132 12.5232 18.599 12.8767Z" fill="#3E1357"/>
<path opacity="0.45" d="M8.87625 9.87152C6.5428 11.3564 4.03257 12.1696 1.31021 12.4171C-0.0686471 12.5232 0.35561 14.6445 1.76982 14.5738C4.66896 14.3617 7.42667 13.4424 9.86619 11.8514C11.0683 11.0736 10.043 9.12906 8.87625 9.87152Z" fill="#3E1357"/>
<path opacity="0.45" d="M10.8562 24.7915C8.34592 25.8875 5.72963 26.3825 3.00727 26.3471C1.59306 26.3471 1.48697 28.5038 2.86583 28.5391C5.9771 28.5391 8.98232 27.9381 11.8815 26.736C13.1543 26.1703 12.1289 24.2258 10.8562 24.7915Z" fill="#3E1357"/>
<g opacity="0.45">
<path opacity="0.45" d="M9.37122 32.4282C9.30051 33.8424 11.4572 33.9485 11.5633 32.5696C11.7047 31.1554 9.47729 31.0494 9.37122 32.4282Z" fill="#3E1357"/>
</g>
<g opacity="0.45">
<path opacity="0.45" d="M5.48215 16.9426C5.41144 18.3568 7.56811 18.4629 7.67417 17.084C7.78024 15.7052 5.58822 15.5637 5.48215 16.9426Z" fill="#3E1357"/>
</g>
<g opacity="0.45">
<path opacity="0.45" d="M16.1948 21.7156C16.1241 23.1298 18.2808 23.2359 18.3868 21.857C18.4929 20.4781 16.3009 20.3367 16.1948 21.7156Z" fill="#3E1357"/>
</g>
</g>
<g opacity="0.45">
<g opacity="0.45">
<path opacity="0.45" d="M28.1449 5.09859C28.0742 6.5128 30.2309 6.61886 30.337 5.24C30.4077 3.82579 28.2156 3.68437 28.1449 5.09859Z" fill="#3E1357"/>
</g>
<path opacity="0.45" d="M43.8781 33.9839C41.3325 36.6002 39.2465 39.8882 40.8375 43.5298C41.4032 44.8026 43.3477 43.848 42.8174 42.5399C41.6507 39.8882 43.5599 37.4134 45.363 35.6102C46.2822 34.6203 44.8327 32.9586 43.8781 33.9839Z" fill="#3E1357"/>
<path opacity="0.45" d="M37.0545 31.1201C35.1099 31.509 33.2361 31.2615 31.3976 30.4837C30.1248 29.918 29.4177 31.9686 30.6905 32.5343C32.8472 33.4889 35.1807 33.701 37.4788 33.2414C38.893 32.9586 38.4687 30.8373 37.0545 31.1201Z" fill="#3E1357"/>
<path opacity="0.45" d="M53.0351 6.30064C50.7016 7.78556 48.1914 8.59874 45.469 8.84622C44.0902 8.95229 44.5144 11.0736 45.9286 11.0029C48.8278 10.7908 51.5855 9.87154 54.025 8.28055C55.1917 7.46737 54.2018 5.55818 53.0351 6.30064Z" fill="#3E1357"/>
<path opacity="0.45" d="M43.277 17.7558C39.8475 19.0639 35.9231 21.4328 36.7716 25.6754C37.0191 27.0543 39.1758 26.5946 38.9283 25.2158C38.3273 22.0691 41.9335 20.5842 44.3023 19.7003C45.6105 19.17 44.5852 17.2255 43.277 17.7558Z" fill="#3E1357"/>
<path opacity="0.45" d="M26.4832 21.3267C26.5539 21.3267 26.6246 21.3267 26.6954 21.3267C27.2964 21.362 27.8267 20.9024 27.8621 20.3014C27.8621 19.7357 27.4378 19.17 26.8368 19.1346C26.7661 19.1346 26.6954 19.1346 26.6246 19.1346C26.0236 19.0993 25.4933 19.5589 25.4579 20.1599C25.4579 20.7963 25.8822 21.2913 26.4832 21.3267Z" fill="#3E1357"/>
<path opacity="0.45" d="M33.5189 14.1495C35.7817 14.5738 38.0091 15.0334 40.2718 15.4577C41.6507 15.7052 41.7567 13.5485 40.4132 13.2656C38.1505 12.8414 35.9231 12.3818 33.6604 11.9575C32.2461 11.6747 32.1401 13.902 33.5189 14.1495Z" fill="#3E1357"/>
<path opacity="0.45" d="M42.1103 29.2463C42.181 29.2463 42.2517 29.2463 42.3224 29.2463C42.9235 29.2816 43.4538 28.822 43.4891 28.221C43.4891 27.6553 43.0649 27.0896 42.4638 27.0542C42.3931 27.0542 42.3224 27.0542 42.2517 27.0542C41.6507 27.0189 41.1203 27.4785 41.085 28.0795C41.0496 28.6806 41.4385 29.2109 42.1103 29.2463Z" fill="#3E1357"/>
</g>
</g>
</svg>
