<svg width="48" height="48" viewBox="0 0 48 48" fill="none" xmlns="http://www.w3.org/2000/svg">
<path fill-rule="evenodd" clip-rule="evenodd" d="M21.6218 45.0152L2.98481 26.3782C1.67173 25.0651 1.67173 22.9357 2.98481 21.6227L21.6218 2.98481C22.9349 1.67173 25.0643 1.67173 26.3773 2.98481L45.0152 21.6227C46.3283 22.9357 46.3283 25.0651 45.0152 26.3782L26.3773 45.0152C25.0643 46.3283 22.9349 46.3283 21.6218 45.0152Z" fill="#B4EBDA"/>
<path d="M22.2234 19.8361C22.2234 20.4455 22.2234 21.0361 22.4156 21.5892C20.3953 23.9611 15.0609 30.2283 14.5641 30.7064C14.4653 30.795 14.3863 30.9034 14.3322 31.0245C14.2781 31.1457 14.2501 31.2769 14.25 31.4095C14.25 31.808 14.4937 32.1923 14.7 32.408C15.0094 32.7314 16.3312 33.9548 16.575 33.7205C17.2969 33.0173 17.4422 32.8298 17.7375 32.5392C18.1828 32.1033 17.6906 31.2127 17.8453 30.8517C18 30.4908 18.1641 30.4205 18.4312 30.3642C18.6984 30.308 19.1719 30.5002 19.5422 30.5048C19.9312 30.5095 20.1422 30.3455 20.4328 30.0736C20.6672 29.858 20.8359 29.6564 20.8406 29.3423C20.85 28.9205 20.2406 28.3627 20.6953 27.9173C21.15 27.472 21.8062 28.208 22.2891 28.1517C22.7719 28.0955 23.3578 27.4252 23.4188 27.1392C23.4797 26.8533 22.8703 26.1173 22.9641 25.7002C22.9969 25.5595 23.2828 25.2314 23.4984 25.1845C23.7141 25.1377 24.6703 25.508 24.8859 25.4611C25.1484 25.4048 25.4531 25.1283 25.7016 24.9736C26.4281 25.2877 27.0891 25.4142 27.9375 25.4142C31.1484 25.4142 33.75 22.9111 33.75 19.8267C33.75 16.7423 31.1484 14.25 27.9375 14.25C24.7266 14.25 22.2234 16.7517 22.2234 19.8361ZM30.75 18.75C30.75 19.0467 30.662 19.3367 30.4972 19.5834C30.3324 19.83 30.0981 20.0223 29.824 20.1358C29.5499 20.2494 29.2483 20.2791 28.9574 20.2212C28.6664 20.1633 28.3991 20.0204 28.1893 19.8107C27.9796 19.6009 27.8367 19.3336 27.7788 19.0426C27.7209 18.7517 27.7506 18.4501 27.8642 18.176C27.9777 17.9019 28.17 17.6676 28.4166 17.5028C28.6633 17.338 28.9533 17.25 29.25 17.25C29.6478 17.25 30.0294 17.408 30.3107 17.6893C30.592 17.9706 30.75 18.3522 30.75 18.75Z" stroke="#210049" stroke-width="1.5" stroke-linejoin="round"/>
</svg>
