<svg width="48" height="48" viewBox="0 0 48 48" fill="none" xmlns="http://www.w3.org/2000/svg">
<path fill-rule="evenodd" clip-rule="evenodd" d="M21.6218 45.0152L2.98481 26.3782C1.67173 25.0651 1.67173 22.9357 2.98481 21.6227L21.6218 2.98481C22.9349 1.67173 25.0643 1.67173 26.3773 2.98481L45.0152 21.6227C46.3283 22.9357 46.3283 25.0651 45.0152 26.3782L26.3773 45.0152C25.0643 46.3283 22.9349 46.3283 21.6218 45.0152Z" fill="#ACEAEF"/>
<path d="M23.9841 17.25C20.3307 17.25 16.583 19.3645 13.6327 23.5936C13.5485 23.7156 13.5023 23.8599 13.5001 24.0082C13.4978 24.1564 13.5396 24.302 13.62 24.4266C15.8869 27.975 19.5844 30.75 23.9841 30.75C28.336 30.75 32.1094 27.9666 34.3805 24.4102C34.4591 24.2881 34.5009 24.1459 34.5009 24.0007C34.5009 23.8555 34.4591 23.7134 34.3805 23.5912C32.1043 20.0756 28.3032 17.25 23.9841 17.25Z" stroke="#210049" stroke-width="1.5" stroke-linecap="round" stroke-linejoin="round"/>
<path d="M24 27.75C26.0711 27.75 27.75 26.0711 27.75 24C27.75 21.9289 26.0711 20.25 24 20.25C21.9289 20.25 20.25 21.9289 20.25 24C20.25 26.0711 21.9289 27.75 24 27.75Z" stroke="#210049" stroke-width="1.5" stroke-miterlimit="10"/>
</svg>
