<svg width="48" height="48" viewBox="0 0 48 48" fill="none" xmlns="http://www.w3.org/2000/svg">
<path fill-rule="evenodd" clip-rule="evenodd" d="M21.6218 45.0152L2.98481 26.3782C1.67173 25.0651 1.67173 22.9357 2.98481 21.6227L21.6218 2.98481C22.9349 1.67173 25.0643 1.67173 26.3773 2.98481L45.0152 21.6227C46.3283 22.9357 46.3283 25.0651 45.0152 26.3782L26.3773 45.0152C25.0643 46.3283 22.9349 46.3283 21.6218 45.0152Z" fill="#E4D2FF"/>
<path d="M20.625 24C21.2463 24 21.75 23.4963 21.75 22.875C21.75 22.2537 21.2463 21.75 20.625 21.75C20.0037 21.75 19.5 22.2537 19.5 22.875C19.5 23.4963 20.0037 24 20.625 24Z" fill="#210049"/>
<path d="M24.0024 30C21.8734 30 20.0827 28.6158 19.516 26.7268C19.5002 26.6705 19.4977 26.6114 19.5087 26.554C19.5198 26.4967 19.5441 26.4427 19.5797 26.3964C19.6153 26.3501 19.6612 26.3128 19.7138 26.2874C19.7664 26.2619 19.8242 26.2492 19.8826 26.25H28.1181C28.1765 26.2492 28.2343 26.2619 28.2869 26.2874C28.3394 26.3128 28.3854 26.3501 28.421 26.3964C28.4566 26.4427 28.4809 26.4967 28.4919 26.554C28.503 26.6114 28.5005 26.6705 28.4846 26.7268C27.9226 28.6158 26.1315 30 24.0024 30Z" fill="#210049"/>
<path d="M27.375 24C27.9963 24 28.5 23.4963 28.5 22.875C28.5 22.2537 27.9963 21.75 27.375 21.75C26.7537 21.75 26.25 22.2537 26.25 22.875C26.25 23.4963 26.7537 24 27.375 24Z" fill="#210049"/>
<path d="M24 33.75C29.3848 33.75 33.75 29.3848 33.75 24C33.75 18.6152 29.3848 14.25 24 14.25C18.6152 14.25 14.25 18.6152 14.25 24C14.25 29.3848 18.6152 33.75 24 33.75Z" stroke="#210049" stroke-width="1.5" stroke-miterlimit="10"/>
</svg>
