<svg width="240" height="248" viewBox="0 0 240 248" fill="none" xmlns="http://www.w3.org/2000/svg">
<path d="M78.6301 87.1705C80.0888 87.5658 81.6307 87.5311 83.0701 87.0705C84.3226 86.6719 85.4608 85.9777 86.3885 85.0465C87.3163 84.1154 88.0062 82.9746 88.4001 81.7205C88.8529 80.2794 88.8841 78.7388 88.4901 77.2805C88.4327 77.0427 88.4299 76.795 88.482 76.5559C88.534 76.3168 88.6396 76.0927 88.7906 75.9002C88.9417 75.7078 89.1344 75.552 89.3543 75.4447C89.5741 75.3374 89.8154 75.2813 90.0601 75.2805H128.06C128.305 75.2793 128.548 75.3342 128.769 75.4409C128.989 75.5476 129.183 75.7034 129.334 75.8964C129.486 76.0893 129.591 76.3143 129.643 76.5542C129.694 76.7941 129.69 77.0425 129.63 77.2805C129.224 78.7621 129.262 80.3306 129.74 81.7905C130.14 83.0332 130.831 84.1619 131.757 85.0823C132.683 86.0027 133.815 86.6879 135.06 87.0805C136.506 87.5411 138.055 87.5758 139.52 87.1805C139.757 87.1213 140.005 87.1169 140.244 87.1676C140.483 87.2183 140.708 87.3227 140.9 87.4731C141.093 87.6234 141.249 87.8157 141.356 88.0353C141.464 88.2549 141.52 88.4961 141.52 88.7405V175.551C141.52 175.795 141.464 176.036 141.357 176.255C141.25 176.475 141.093 176.666 140.9 176.816C140.707 176.966 140.482 177.069 140.243 177.118C140.004 177.168 139.757 177.162 139.52 177.101C138.033 176.705 136.464 176.747 135 177.221C133.758 177.619 132.629 178.31 131.71 179.236C130.791 180.162 130.109 181.295 129.72 182.541C129.255 183.983 129.22 185.529 129.62 186.991C129.677 187.228 129.68 187.476 129.628 187.715C129.576 187.954 129.471 188.178 129.32 188.371C129.169 188.563 128.976 188.719 128.756 188.826C128.536 188.934 128.295 188.99 128.05 188.991H90.0501C89.8042 188.994 89.5608 188.94 89.3389 188.834C89.117 188.728 88.9226 188.572 88.7707 188.379C88.6188 188.185 88.5136 187.959 88.4632 187.719C88.4128 187.478 88.4186 187.229 88.4801 186.991C88.882 185.508 88.8438 183.941 88.3701 182.481C87.969 181.239 87.2768 180.111 86.3515 179.191C85.4261 178.27 84.2942 177.585 83.0501 177.191C81.6038 176.73 80.0556 176.695 78.5901 177.091C78.3529 177.15 78.1054 177.154 77.8663 177.103C77.6271 177.053 77.4027 176.948 77.2099 176.798C77.0172 176.648 76.8612 176.455 76.7538 176.236C76.6464 176.016 76.5904 175.775 76.5901 175.531V88.7305C76.5888 88.4817 76.6452 88.236 76.7548 88.0126C76.8645 87.7892 77.0244 87.5943 77.2221 87.4431C77.4198 87.292 77.6498 87.1887 77.8941 87.1414C78.1384 87.0941 78.3903 87.1041 78.6301 87.1705Z" fill="#D5F4F7"/>
<path d="M137.61 83.26C139.819 83.26 141.61 81.4691 141.61 79.26C141.61 77.0509 139.819 75.26 137.61 75.26C135.401 75.26 133.61 77.0509 133.61 79.26C133.61 81.4691 135.401 83.26 137.61 83.26Z" fill="#D5F4F7"/>
<path d="M80.6106 83.26C82.8197 83.26 84.6106 81.4691 84.6106 79.26C84.6106 77.0509 82.8197 75.26 80.6106 75.26C78.4015 75.26 76.6106 77.0509 76.6106 79.26C76.6106 81.4691 78.4015 83.26 80.6106 83.26Z" fill="#D5F4F7"/>
<path d="M80.6101 189.01C82.8192 189.01 84.6101 187.219 84.6101 185.01C84.6101 182.801 82.8192 181.01 80.6101 181.01C78.401 181.01 76.6101 182.801 76.6101 185.01C76.6101 187.219 78.401 189.01 80.6101 189.01Z" fill="#D5F4F7"/>
<path d="M137.61 189.01C139.819 189.01 141.61 187.219 141.61 185.01C141.61 182.801 139.819 181.01 137.61 181.01C135.401 181.01 133.61 182.801 133.61 185.01C133.61 187.219 135.401 189.01 137.61 189.01Z" fill="#D5F4F7"/>
<path d="M10 197H11C11.2652 197 11.5196 196.895 11.7071 196.707C11.8946 196.52 12 196.265 12 196C12 195.735 11.8946 195.48 11.7071 195.293C11.5196 195.105 11.2652 195 11 195H10C9.73478 195 9.48043 195.105 9.29289 195.293C9.10536 195.48 9 195.735 9 196C9 196.265 9.10536 196.52 9.29289 196.707C9.48043 196.895 9.73478 197 10 197Z" fill="#82DFE7"/>
<path d="M6.00002 197C6.26236 196.999 6.51375 196.895 6.70002 196.71C6.88627 196.523 6.99081 196.269 6.99081 196.005C6.99081 195.741 6.88627 195.487 6.70002 195.3C6.51265 195.114 6.2592 195.009 5.99502 195.009C5.73083 195.009 5.47738 195.114 5.29002 195.3C5.10527 195.486 5.00112 195.738 5.00002 196C4.99926 196.132 5.02448 196.262 5.07424 196.384C5.12401 196.506 5.19733 196.617 5.29002 196.71C5.38346 196.803 5.49427 196.876 5.61611 196.926C5.73795 196.975 5.86841 197.001 6.00002 197Z" fill="#82DFE7"/>
<path d="M14 197H18C18.2652 197 18.5196 196.895 18.7071 196.707C18.8946 196.52 19 196.265 19 196C19 195.735 18.8946 195.48 18.7071 195.293C18.5196 195.105 18.2652 195 18 195H14C13.7348 195 13.4804 195.105 13.2929 195.293C13.1054 195.48 13 195.735 13 196C13 196.265 13.1054 196.52 13.2929 196.707C13.4804 196.895 13.7348 197 14 197Z" fill="#82DFE7"/>
<path d="M21 197H31C31.2652 197 31.5196 196.895 31.7071 196.707C31.8946 196.52 32 196.265 32 196C32 195.735 31.8946 195.48 31.7071 195.293C31.5196 195.105 31.2652 195 31 195H21C20.7348 195 20.4804 195.105 20.2929 195.293C20.1054 195.48 20 195.735 20 196C20 196.265 20.1054 196.52 20.2929 196.707C20.4804 196.895 20.7348 197 21 197Z" fill="#82DFE7"/>
<path d="M33.2959 197H204.757C204.961 197 205.157 196.895 205.301 196.707C205.445 196.52 205.526 196.265 205.526 196C205.526 195.735 205.445 195.48 205.301 195.293C205.157 195.105 204.961 195 204.757 195H33.2959C33.0918 195 32.8961 195.105 32.7518 195.293C32.6074 195.48 32.5264 195.735 32.5264 196C32.5264 196.265 32.6074 196.52 32.7518 196.707C32.8961 196.895 33.0918 197 33.2959 197Z" fill="#82DFE7"/>
<path d="M175.27 133.39V129.39H158.27C158.005 129.39 157.75 129.495 157.563 129.683C157.375 129.87 157.27 130.125 157.27 130.39V132.39C157.27 132.655 157.375 132.91 157.563 133.097C157.75 133.285 158.005 133.39 158.27 133.39H175.27Z" fill="white"/>
<path d="M204.27 127.4H178.27C177.718 127.4 177.27 127.848 177.27 128.4V134.4C177.27 134.952 177.718 135.4 178.27 135.4H204.27C204.822 135.4 205.27 134.952 205.27 134.4V128.4C205.27 127.848 204.822 127.4 204.27 127.4Z" fill="white"/>
<path d="M155.27 132.39V130.39H138.27C138.005 130.39 137.75 130.495 137.563 130.683C137.375 130.87 137.27 131.125 137.27 131.39C137.27 131.655 137.375 131.909 137.563 132.097C137.75 132.285 138.005 132.39 138.27 132.39H155.27Z" fill="white"/>
<path d="M113.97 144.08C113.897 143.857 113.749 143.667 113.55 143.542C113.351 143.418 113.114 143.367 112.882 143.399C112.65 143.432 112.436 143.544 112.278 143.718C112.121 143.892 112.029 144.116 112.02 144.35C112.02 145.47 112.255 146.577 112.71 147.6C113.164 148.624 113.829 149.54 114.66 150.29C114.66 150.29 114.66 150.36 114.72 150.38C114.763 150.416 114.81 150.446 114.86 150.47C116.308 151.747 118.169 152.458 120.1 152.47C120.365 152.47 120.62 152.365 120.807 152.177C120.995 151.99 121.1 151.735 121.1 151.47C121.1 151.205 120.995 150.95 120.807 150.763C120.62 150.575 120.365 150.47 120.1 150.47C118.996 150.47 117.912 150.166 116.97 149.59L118.11 148.45C118.616 147.887 118.891 147.154 118.879 146.396C118.867 145.639 118.569 144.915 118.045 144.368C117.521 143.822 116.81 143.493 116.054 143.449C115.299 143.405 114.554 143.648 113.97 144.13V144.08ZM116.7 147L115.4 148.24C114.966 147.705 114.628 147.1 114.4 146.45L115.27 145.57C115.363 145.476 115.474 145.402 115.595 145.351C115.717 145.3 115.848 145.274 115.98 145.274C116.112 145.274 116.243 145.3 116.365 145.351C116.486 145.402 116.597 145.476 116.69 145.57C116.786 145.663 116.862 145.773 116.915 145.896C116.967 146.018 116.995 146.15 116.996 146.283C116.997 146.416 116.971 146.548 116.92 146.671C116.87 146.795 116.795 146.906 116.7 147Z" fill="#2FCAD7"/>
<path d="M116.15 134.24C116.205 134.462 116.334 134.658 116.516 134.797C116.698 134.935 116.921 135.007 117.15 135C117.23 135.01 117.31 135.01 117.39 135L125.39 133C125.655 133.001 125.91 132.897 126.098 132.711C126.287 132.524 126.394 132.27 126.395 132.005C126.396 131.74 126.292 131.485 126.106 131.296C125.919 131.108 125.665 131.001 125.4 131L117.4 129C117.271 128.963 117.135 128.952 117.002 128.968C116.868 128.984 116.739 129.027 116.622 129.095C116.506 129.162 116.404 129.252 116.323 129.36C116.242 129.467 116.184 129.59 116.152 129.721C116.119 129.851 116.114 129.987 116.135 130.12C116.156 130.253 116.204 130.38 116.276 130.494C116.348 130.608 116.442 130.706 116.553 130.783C116.663 130.859 116.788 130.913 116.92 130.94L121.04 131.94L116.92 132.94C116.779 132.966 116.645 133.021 116.528 133.103C116.41 133.185 116.311 133.291 116.238 133.414C116.165 133.538 116.12 133.675 116.104 133.818C116.089 133.96 116.105 134.104 116.15 134.24Z" fill="#2FCAD7"/>
<path d="M207.27 125.48V125.39C207.27 125.125 207.165 124.87 206.977 124.683C206.79 124.495 206.535 124.39 206.27 124.39C206.005 124.39 205.75 124.495 205.563 124.683C205.375 124.87 205.27 125.125 205.27 125.39H178.27C177.651 125.392 177.048 125.585 176.543 125.943C176.038 126.301 175.656 126.806 175.45 127.39H157.27C156.921 127.392 156.579 127.486 156.277 127.661C155.975 127.836 155.725 128.088 155.55 128.39H150.74V67.62C150.74 66.9252 150.464 66.2587 149.973 65.7674C149.481 65.2761 148.815 65 148.12 65H70.1201C69.7752 64.9987 69.4334 65.0655 69.1144 65.1966C68.7954 65.3277 68.5054 65.5204 68.261 65.7639C68.0167 66.0073 67.8228 66.2965 67.6905 66.6151C67.5582 66.9336 67.4901 67.2751 67.4901 67.62V165.15C67.4917 165.261 67.53 165.368 67.599 165.454C67.668 165.541 67.7637 165.602 67.8712 165.628C67.9787 165.655 68.0919 165.644 68.193 165.6C68.2942 165.555 68.3775 165.477 68.4301 165.38L69.2601 163.83C69.4126 163.54 69.4915 163.217 69.4901 162.89V67.62C69.4927 67.4547 69.5603 67.297 69.6781 67.181C69.796 67.065 69.9547 67 70.1201 67H148.12C148.285 67 148.442 67.0653 148.558 67.1816C148.675 67.2979 148.74 67.4556 148.74 67.62V128.39H138.92C138.48 127.845 137.924 127.406 137.293 127.103C136.661 126.8 135.97 126.642 135.27 126.64C135.005 126.64 134.751 126.745 134.563 126.933C134.375 127.12 134.27 127.375 134.27 127.64V135.14C134.27 135.405 134.375 135.66 134.563 135.847C134.751 136.035 135.005 136.14 135.27 136.14C135.97 136.138 136.661 135.98 137.293 135.677C137.924 135.374 138.48 134.935 138.92 134.39H148.74V182.15C147.512 182.36 146.379 182.947 145.5 183.83L134.34 195H126.23V188.33C126.254 187.072 125.894 185.838 125.199 184.789C124.505 183.741 123.507 182.928 122.34 182.46C121.264 182.041 120.088 181.947 118.959 182.19C117.83 182.434 116.798 183.004 115.99 183.83L104.83 195H73.4901C72.4292 195 71.4118 194.579 70.6617 193.828C69.9115 193.078 69.4901 192.061 69.4901 191V171.29L80.7501 150.75C80.8158 150.635 80.8581 150.508 80.8748 150.377C80.8915 150.246 80.8822 150.113 80.8474 149.985C80.8125 149.857 80.7529 149.738 80.6719 149.633C80.5908 149.528 80.49 149.441 80.3751 149.375C80.2602 149.309 80.1335 149.267 80.0022 149.25C79.8709 149.234 79.7376 149.243 79.6099 149.278C79.4822 149.313 79.3627 149.372 79.258 149.453C79.1534 149.534 79.0658 149.635 79.0001 149.75L54.5101 194.48C54.4237 194.638 54.2964 194.769 54.1416 194.861C53.9867 194.952 53.81 195 53.6301 195H45.8501C45.5849 195 45.3305 195.105 45.143 195.293C44.9555 195.48 44.8501 195.735 44.8501 196C44.8501 196.265 44.9555 196.52 45.143 196.707C45.3305 196.895 45.5849 197 45.8501 197H53.6301C54.1681 197 54.6961 196.855 55.1588 196.58C55.6215 196.306 56.0019 195.912 56.2601 195.44L67.4901 174.94V191C67.4901 192.591 68.1222 194.117 69.2475 195.243C70.3727 196.368 71.8988 197 73.4901 197H124.23V216C124.23 216.265 124.335 216.52 124.523 216.707C124.711 216.895 124.965 217 125.23 217H140.23C140.487 217 140.734 216.902 140.92 216.725C141.106 216.548 141.217 216.306 141.23 216.05C141.237 215.389 141.112 214.734 140.864 214.121C140.616 213.509 140.248 212.952 139.783 212.482C139.318 212.012 138.765 211.64 138.155 211.385C137.545 211.131 136.891 211 136.23 211H126.23V197H149.74C150.005 197 150.26 196.895 150.447 196.707C150.635 196.52 150.74 196.265 150.74 196V188.07C150.74 187.805 150.635 187.55 150.447 187.363C150.26 187.175 150.005 187.07 149.74 187.07C149.475 187.07 149.221 187.175 149.033 187.363C148.845 187.55 148.74 187.805 148.74 188.07V195H137.16L146.91 185.25C147.276 184.875 147.713 184.578 148.195 184.375C148.678 184.172 149.197 184.069 149.72 184.07C150.238 184.08 150.75 184.185 151.23 184.38C151.967 184.673 152.597 185.183 153.038 185.842C153.479 186.5 153.71 187.277 153.7 188.07V216C153.7 216.265 153.805 216.52 153.993 216.707C154.181 216.895 154.435 217 154.7 217H169.7C169.957 217 170.204 216.902 170.39 216.725C170.576 216.548 170.687 216.306 170.7 216.05C170.707 215.389 170.582 214.734 170.334 214.121C170.086 213.509 169.718 212.952 169.253 212.482C168.788 212.012 168.235 211.64 167.625 211.385C167.015 211.131 166.361 211 165.7 211H155.7V189.36C155.707 187.916 155.364 186.492 154.7 185.21C154.34 184.414 153.784 183.721 153.085 183.197C152.386 182.672 151.566 182.333 150.7 182.21V152.68L160.46 162.44C161.008 162.998 161.662 163.442 162.383 163.745C163.104 164.049 163.878 164.207 164.66 164.21C165.623 164.206 166.572 163.976 167.43 163.54C168.429 163.019 169.264 162.231 169.842 161.264C170.419 160.296 170.716 159.187 170.7 158.06V135.39H175.41C175.616 135.974 175.998 136.479 176.503 136.837C177.008 137.195 177.611 137.388 178.23 137.39H205.23C205.23 137.655 205.335 137.91 205.523 138.097C205.71 138.285 205.965 138.39 206.23 138.39C206.495 138.39 206.75 138.285 206.937 138.097C207.125 137.91 207.23 137.655 207.23 137.39V137.3C208.621 137.056 209.881 136.33 210.789 135.249C211.697 134.168 212.195 132.802 212.195 131.39C212.195 129.978 211.697 128.612 210.789 127.531C209.881 126.45 208.621 125.724 207.23 125.48H207.27ZM124.27 195H107.65L117.41 185.25C117.969 184.694 118.681 184.316 119.454 184.163C120.228 184.01 121.03 184.089 121.759 184.39C122.487 184.692 123.111 185.202 123.551 185.857C123.99 186.511 124.227 187.281 124.23 188.07L124.27 195ZM136.27 213C136.891 213 137.496 213.192 138.003 213.55C138.51 213.908 138.893 214.415 139.1 215H126.23V213H136.27ZM155.78 213H165.78C166.401 213 167.006 213.192 167.513 213.55C168.02 213.908 168.403 214.415 168.61 215H155.74L155.78 213ZM139.91 132.39C139.983 132.062 140.02 131.726 140.02 131.39C140.019 131.054 139.982 130.719 139.91 130.39H155.27V132.39H139.91ZM168.74 158.19C168.741 158.982 168.506 159.756 168.067 160.414C167.627 161.072 167.003 161.585 166.271 161.888C165.54 162.192 164.735 162.271 163.959 162.116C163.183 161.962 162.469 161.58 161.91 161.02L150.74 149.85V134.39H155.55C155.725 134.692 155.975 134.944 156.277 135.119C156.579 135.294 156.921 135.388 157.27 135.39H168.74V158.19ZM175.27 133.39H158.27C158.005 133.39 157.751 133.285 157.563 133.097C157.375 132.91 157.27 132.655 157.27 132.39V130.39C157.27 130.125 157.375 129.87 157.563 129.683C157.751 129.495 158.005 129.39 158.27 129.39H175.27V133.39ZM205.27 134.39C205.27 134.655 205.165 134.91 204.977 135.097C204.79 135.285 204.535 135.39 204.27 135.39H178.27C178.005 135.39 177.751 135.285 177.563 135.097C177.375 134.91 177.27 134.655 177.27 134.39V128.39C177.27 128.125 177.375 127.87 177.563 127.683C177.751 127.495 178.005 127.39 178.27 127.39H204.27C204.535 127.39 204.79 127.495 204.977 127.683C205.165 127.87 205.27 128.125 205.27 128.39V134.39ZM207.27 135.27V127.52C208.13 127.74 208.893 128.241 209.438 128.942C209.982 129.644 210.278 130.507 210.278 131.395C210.278 132.283 209.982 133.146 209.438 133.848C208.893 134.549 208.13 135.05 207.27 135.27Z" fill="#2FCAD7"/>
<path opacity="0.25" d="M203.27 127.39V132.39C203.27 132.655 203.165 132.91 202.977 133.097C202.79 133.285 202.535 133.39 202.27 133.39H177.27V134.39C177.27 134.655 177.375 134.91 177.563 135.097C177.75 135.285 178.005 135.39 178.27 135.39H204.27C204.535 135.39 204.79 135.285 204.977 135.097C205.165 134.91 205.27 134.655 205.27 134.39V128.39C205.27 128.125 205.165 127.87 204.977 127.683C204.79 127.495 204.535 127.39 204.27 127.39H203.27Z" fill="#82DFE7"/>
<path opacity="0.25" d="M173.27 129.39V130.39C173.27 130.655 173.165 130.91 172.977 131.097C172.79 131.285 172.535 131.39 172.27 131.39H157.27V132.39C157.27 132.655 157.375 132.91 157.563 133.097C157.75 133.285 158.005 133.39 158.27 133.39H175.27V129.39H173.27Z" fill="#82DFE7"/>
<path opacity="0.25" d="M153.27 130.39V130.89C153.27 131.023 153.217 131.15 153.123 131.243C153.03 131.337 152.903 131.39 152.77 131.39H140.02C140.02 131.726 139.983 132.062 139.91 132.39H155.27V130.39H153.27Z" fill="#82DFE7"/>
<path d="M215.11 123.55C214.978 123.551 214.848 123.525 214.726 123.476C214.604 123.426 214.493 123.353 214.4 123.26C214.214 123.073 214.109 122.819 214.109 122.555C214.109 122.291 214.214 122.037 214.4 121.85L219.7 116.55C219.887 116.364 220.141 116.259 220.405 116.259C220.669 116.259 220.923 116.364 221.11 116.55C221.204 116.643 221.278 116.754 221.329 116.875C221.38 116.997 221.406 117.128 221.406 117.26C221.406 117.392 221.38 117.523 221.329 117.645C221.278 117.766 221.204 117.877 221.11 117.97L215.81 123.26C215.624 123.445 215.372 123.549 215.11 123.55Z" fill="#82DFE7"/>
<path d="M226.27 132.39H218.77C218.505 132.39 218.25 132.285 218.063 132.097C217.875 131.909 217.77 131.655 217.77 131.39C217.77 131.125 217.875 130.87 218.063 130.683C218.25 130.495 218.505 130.39 218.77 130.39H226.27C226.535 130.39 226.79 130.495 226.977 130.683C227.165 130.87 227.27 131.125 227.27 131.39C227.27 131.655 227.165 131.909 226.977 132.097C226.79 132.285 226.535 132.39 226.27 132.39Z" fill="#82DFE7"/>
<path d="M220.4 146.54C220.268 146.539 220.137 146.513 220.015 146.461C219.893 146.41 219.783 146.334 219.69 146.24L214.39 140.94C214.204 140.753 214.099 140.499 214.099 140.235C214.099 139.971 214.204 139.717 214.39 139.53C214.483 139.436 214.593 139.362 214.715 139.311C214.837 139.26 214.968 139.234 215.1 139.234C215.232 139.234 215.363 139.26 215.484 139.311C215.606 139.362 215.717 139.436 215.81 139.53L221.11 144.83C221.251 144.97 221.347 145.149 221.386 145.343C221.425 145.538 221.405 145.74 221.329 145.923C221.253 146.107 221.124 146.263 220.959 146.373C220.793 146.483 220.599 146.541 220.4 146.54Z" fill="#82DFE7"/>
<path d="M228.526 197H229.526C229.792 197 230.046 196.895 230.233 196.707C230.421 196.52 230.526 196.265 230.526 196C230.526 195.735 230.421 195.48 230.233 195.293C230.046 195.105 229.792 195 229.526 195H228.526C228.261 195 228.007 195.105 227.819 195.293C227.632 195.48 227.526 195.735 227.526 196C227.526 196.265 227.632 196.52 227.819 196.707C228.007 196.895 228.261 197 228.526 197Z" fill="#82DFE7"/>
<path d="M233.526 196.991C233.658 196.992 233.788 196.966 233.91 196.917C234.032 196.867 234.143 196.793 234.236 196.701C234.422 196.513 234.527 196.26 234.527 195.996C234.527 195.732 234.422 195.478 234.236 195.291C234.049 195.105 233.795 195 233.531 195C233.267 195 233.014 195.105 232.826 195.291C232.689 195.431 232.596 195.607 232.559 195.8C232.521 195.992 232.541 196.191 232.616 196.372C232.69 196.553 232.816 196.708 232.978 196.818C233.14 196.928 233.331 196.988 233.526 196.991Z" fill="#82DFE7"/>
<path d="M221.526 197H225.526C225.792 197 226.046 196.895 226.233 196.707C226.421 196.52 226.526 196.265 226.526 196C226.526 195.735 226.421 195.48 226.233 195.293C226.046 195.105 225.792 195 225.526 195H221.526C221.261 195 221.007 195.105 220.819 195.293C220.632 195.48 220.526 195.735 220.526 196C220.526 196.265 220.632 196.52 220.819 196.707C221.007 196.895 221.261 197 221.526 197Z" fill="#82DFE7"/>
<path d="M208.526 197H218.526C218.792 197 219.046 196.895 219.233 196.707C219.421 196.52 219.526 196.265 219.526 196C219.526 195.735 219.421 195.48 219.233 195.293C219.046 195.105 218.792 195 218.526 195H208.526C208.261 195 208.007 195.105 207.819 195.293C207.632 195.48 207.526 195.735 207.526 196C207.526 196.265 207.632 196.52 207.819 196.707C208.007 196.895 208.261 197 208.526 197Z" fill="#82DFE7"/>
</svg>
