<svg width="80" height="80" viewBox="0 0 80 80" fill="none"
  xmlns="http://www.w3.org/2000/svg">
  <mask id="mask0" mask-type="alpha" maskUnits="userSpaceOnUse" x="0" y="0" width="80" height="80">
    <circle cx="40" cy="40" r="40" fill="#C4C4C4"/>
  </mask>
  <g mask="url(#mask0)">
    <path d="M25.9147 18.4136C36.8618 16.8066 44.0928 25.9459 51.9767 33.6791C60.8147 42.3162 69.2007 44.4755 79.0932 50.9533C88.9857 57.4312 94.9111 65.9678 93.5553 77.9192C92.2999 89.4186 84.0143 98.9094 73.469 100.366C63.928 101.671 53.6338 96.951 44.2435 98.6583C30.1831 101.219 20.7927 117.59 6.17995 116.083C-3.10996 115.129 -11.1947 107.044 -16.9695 98.4574C-21.0872 92.2809 -24.5521 85.4013 -25.5062 78.1703C-26.4603 70.9392 -24.5521 63.3064 -19.4301 59.3896C-12.2994 53.9161 -0.448524 56.1758 4.67348 48.3923C7.03362 44.7768 7.23448 39.8557 8.38944 35.4367C10.6491 26.5987 17.4283 19.6689 25.9147 18.4136Z" fill="#D9F5EC"/>
    <path d="M54.9394 116.184L40.4772 75.9106L58.4042 69.5834L76.2308 116.184" fill="#B4C8FF"/>
    <path d="M29.8817 88.0629C29.8817 88.0629 3.56867 94.9424 -12.3999 95.5952L-18.2752 77.618L28.6263 62.6537L29.8817 88.0629Z" fill="#B4C8FF"/>
    <path d="M31.3379 61.4485C31.3379 61.4485 13.8126 65.0138 9.54427 79.727C8.23866 84.1962 7.38499 116.234 7.38499 116.234H58.4042C58.4042 116.234 47.3065 105.94 52.7298 95.9467C58.2033 85.9538 58.4042 70.8388 45.097 65.8675L31.3379 61.4485Z" fill="#B4C8FF"/>
    <path d="M42.1343 66.7211C42.1845 66.6709 42.2347 66.6207 42.2849 66.5705C43.1888 65.6666 43.5905 64.4614 43.6407 63.206C43.691 62.3524 43.0884 61.348 43.8416 60.645C44.7957 59.7914 47.1558 60.1931 48.361 59.7914C49.7671 59.3394 51.1229 58.6866 52.6294 58.6866C55.6925 58.6364 58.9565 61.5991 60.915 63.658C62.2708 65.1142 63.5262 66.6709 64.5305 68.3782C64.9824 69.0813 65.3842 69.8345 65.6352 70.6379C66.74 74.1028 64.7816 77.7686 60.9652 77.7686C56.0942 77.7686 52.6294 74.1531 47.7082 74.3539C44.0927 74.5046 38.7698 77.7184 39.272 71.4916C39.3724 70.4873 39.4728 69.483 40.0252 68.6293C40.5776 67.8761 41.4312 67.3739 42.1343 66.7211Z" fill="#4376FF"/>
    <path d="M25.6635 81.1832C26.1656 80.1789 26.1154 78.7226 25.8643 77.6179C25.6133 76.5132 25.2617 75.4586 25.2617 74.3539C25.2617 72.6968 26.1154 71.1401 26.718 69.5834C26.9189 69.1314 26.9691 68.4786 26.5674 68.2778" stroke="#4376FF" stroke-width="1.8" stroke-miterlimit="10" stroke-linecap="round" stroke-linejoin="round"/>
    <path d="M64.9824 28.6576C60.6137 30.2143 55.7427 27.9044 54.1861 23.4352C52.5791 19.0162 54.8389 14.1453 59.2076 12.5886C63.6266 11.0319 68.4473 13.3418 70.0542 17.811C71.6109 22.23 69.3512 27.1009 64.9824 28.6576Z" fill="#210049"/>
    <path d="M59.6094 27.6532C57.902 31.2186 53.6839 32.725 50.1186 31.0679C46.5533 29.3606 45.0468 25.1425 46.7039 21.5771C48.3611 18.0118 52.6294 16.4551 56.1947 18.1625C59.76 19.8698 61.2665 24.0879 59.6094 27.6532Z" fill="white"/>
    <path d="M13.3607 47.4885C16.6247 41.1111 20.3407 32.2731 21.1441 28.3061C21.345 27.3018 21.1441 28.3061 21.1441 28.3061L34.5518 24.4897C34.5518 24.4897 35.7067 41.0609 33.8487 51.4555L41.6322 52.259L45.2477 30.1139L46.4529 13.5427C65.1834 19.9201 64.4803 43.2704 64.4803 43.2704C63.4258 58.536 61.9193 64.9636 52.529 65.1644C52.529 65.1644 52.3783 65.1644 52.1775 65.1644C51.7758 65.1644 51.374 65.1644 50.9221 65.1644C50.2191 65.1142 49.5663 65.064 48.9637 65.0138C43.5906 64.6623 32.7942 63.5073 21.6965 60.1429C21.5459 60.0927 21.345 60.0424 21.1944 59.9922C21.1442 59.9922 21.0437 59.942 20.9935 59.942C15.3693 58.0338 10.4482 53.0625 13.3607 47.4885Z" fill="#210049"/>
    <path d="M21.1442 28.3061C18.985 39.1025 26.3667 47.1872 37.4141 49.3967C48.4616 51.6062 57.4502 47.0365 59.5593 36.2402C61.7185 25.3936 54.4373 14.9989 43.44 12.6388C28.2749 9.42496 23.3035 17.4595 21.1442 28.3061Z" fill="#210049"/>
    <path d="M30.5346 46.1327C29.6809 49.9993 28.777 53.8659 27.9234 57.7325C27.5719 59.2892 27.0195 60.9463 26.8186 62.5532C26.4671 65.8674 29.2792 68.8302 32.5934 69.5834C35.8072 70.3366 40.7284 68.6795 42.1344 65.5159C43.2894 62.9047 43.2894 59.1888 43.7915 56.3767C44.6452 51.4053 45.4989 46.4842 46.3525 41.5128L30.5346 46.1327Z" fill="white"/>
    <path d="M32.1415 55.7239C25.0109 54.1672 20.4412 47.0366 21.5962 41.0107L24.3581 26.7494C25.7641 19.1668 32.7441 14.0448 40.1258 15.1496C47.7084 16.3045 54.136 23.7365 52.9308 31.5199L50.5707 42.9691C48.8131 51.807 40.7786 57.0295 32.1415 55.7239Z" fill="white"/>
    <path d="M29.9821 38.8011L28.6765 42.3162L30.4341 42.7682" stroke="#210049" stroke-width="1.8" stroke-miterlimit="10" stroke-linecap="round" stroke-linejoin="round"/>
    <path d="M46.6538 29.0593C46.6035 29.6117 44.3438 38.6505 48.813 42.8687C51.4243 45.3292 57.651 34.2818 57.651 34.2818L46.6538 29.0593Z" fill="#210049"/>
    <path d="M55.6425 44.7266C55.2408 47.1872 53.0313 48.8945 50.6209 48.543C48.2106 48.1915 46.6037 45.8816 46.9552 43.421C47.3569 40.9605 49.5664 39.2531 51.9767 39.6046C54.3871 39.9561 55.994 42.2661 55.6425 44.7266Z" fill="white"/>
    <path d="M27.1702 16.4049C27.1702 16.4049 29.5805 32.7752 51.6252 34.1311C51.6252 34.1311 57.0987 37.7466 57.149 31.7709C57.1992 25.7953 48.4114 15.1997 48.4114 15.1997L38.2678 13.7937L27.1702 16.4049Z" fill="#210049"/>
    <path d="M37.866 16.8067C37.866 16.8067 26.1657 17.4595 24.3579 26.7494L24.4081 20.7235L29.4297 15.25L31.5388 13.9444L35.9578 13.4422L37.866 16.8067Z" fill="#210049"/>
    <path d="M37.5772 38.9464C36.8531 38.756 36.4432 37.9276 36.6619 37.0962C36.8805 36.2647 37.6448 35.7451 38.369 35.9355C39.0931 36.1259 39.5029 36.9543 39.2843 37.7857C39.0657 38.6172 38.3014 39.1369 37.5772 38.9464Z" fill="#210049"/>
    <path d="M24.8612 36.7954C24.137 36.605 23.7272 35.7766 23.9458 34.9452C24.1644 34.1137 24.9287 33.5941 25.6529 33.7845C26.3771 33.9749 26.7869 34.8033 26.5682 35.6347C26.3496 36.4662 25.5853 36.9859 24.8612 36.7954Z" fill="#210049"/>
    <path d="M27.8229 47.6893C29.9822 48.4426 32.493 48.2417 34.4514 47.0867" stroke="#210049" stroke-width="1.8" stroke-miterlimit="10" stroke-linecap="round" stroke-linejoin="round"/>
    <path d="M45.5992 52.0581C44.5948 56.5775 40.678 60.2935 36.1586 61.0467C38.1672 61.9506 40.4772 62.2017 42.6364 61.6493C41.0797 63.4571 38.6694 64.2103 36.4097 64.8631C40.9793 67.2735 46.503 66.5202 51.625 65.767C52.78 65.6164 53.935 65.4155 54.9895 64.9635C58.0527 63.6077 59.6596 59.7411 58.5046 56.6277" fill="#210049"/>
    <path d="M28.1743 54.6191C28.5258 54.7698 28.9275 54.9707 29.279 55.1213C30.7353 55.6737 32.2418 55.975 33.7985 55.975" stroke="#210049" stroke-width="1.8" stroke-miterlimit="10" stroke-linecap="round" stroke-linejoin="round"/>
    <path d="M25.5129 63.8086C25.5129 65.5159 25.7639 67.3237 26.8185 68.6795C27.7224 69.8345 29.0782 70.4873 30.4842 70.9392C34.8028 72.2951 39.6737 70.7886 43.6407 68.6795" stroke="#4376FF" stroke-width="1.8" stroke-miterlimit="10" stroke-linecap="round" stroke-linejoin="round"/>
    <path d="M35.0036 71.4916C34.6019 74.1531 35.9075 77.0154 34.7023 79.4257C34.5517 79.727 34.3006 80.0283 33.9993 80.0283C33.5474 79.9781 33.3967 79.3755 33.4972 78.9236C33.8487 78.8231 34.2504 79.0742 34.4513 79.4257C35.556 81.1833 35.0036 84.9495 34.7525 86.9079" stroke="#4376FF" stroke-width="1.8" stroke-miterlimit="10" stroke-linecap="round" stroke-linejoin="round"/>
    <path d="M39.6438 46.0886C38.2491 45.7219 37.29 44.7723 37.5016 43.9677C37.7132 43.163 39.0153 42.808 40.41 43.1748C41.8047 43.5415 42.7638 44.4911 42.5522 45.2957C42.3406 46.1003 41.0385 46.4553 39.6438 46.0886Z" fill="#FFD5E3"/>
    <path d="M21.4454 42.2158C22.8514 42.5673 24.1068 42.2158 24.3579 41.4124C24.6089 40.6089 23.6046 39.6548 22.2488 39.3033C22.1484 39.3033 22.0479 39.2531 21.9977 39.2531" fill="#FFD5E3"/>
  </g>
</svg>
