<svg width="88" height="88" viewBox="0 0 88 88" fill="none" xmlns="http://www.w3.org/2000/svg">
<path d="M22.0073 81.0919L2.52126 31.8315C1.00778 27.9549 2.89963 23.5111 6.77791 21.9983L56.1551 2.52102C60.0334 1.00823 64.4792 2.89922 65.9927 6.77576L85.4787 56.2253C86.9922 60.1019 85.1004 64.5457 81.2221 66.0585L31.8449 85.4412C27.872 87.0485 23.5208 85.063 22.0073 81.0919Z" fill="#D5F4F7"/>
<path d="M81.5057 46.0139C73.8438 47.6213 65.3304 45.3521 57.8577 48.2831C53.601 49.985 50.1957 53.2943 46.6012 56.0362C42.1553 59.3454 37.2365 60.6691 31.7502 60.8582C25.8854 61.0473 19.8315 60.5746 14.0614 61.0473L15.8587 65.6803C22.9531 65.2075 30.1421 66.3421 37.1419 65.3966C41.1148 64.8293 44.8039 63.4111 48.0201 61.0473C52.1821 58.1163 55.7766 54.3343 60.5062 52.6324C67.7899 50.1741 75.9248 52.3488 83.3976 50.7414L81.5057 46.0139Z" fill="#ACEAEF"/>
<path d="M36.1015 53.6725C44.331 51.4978 49.3444 43.272 57.0064 40.2464C63.6279 37.599 71.2898 39.3009 77.7221 36.4644L76.0194 31.926C69.0196 35.2353 60.0333 32.8715 53.0335 36.6535C48.966 38.8282 45.6553 42.232 42.0608 45.0684C37.7096 48.3777 32.9799 49.7014 27.5882 49.6068C21.4397 49.5123 15.0074 47.9049 8.85889 47.3376L10.7507 52.2542C19.1695 53.1997 27.8719 55.8471 36.1015 53.6725Z" fill="#ACEAEF"/>
<path d="M6.77833 42.2318C12.8322 42.2318 19.0753 42.8937 24.9401 42.0427C28.9129 41.4754 32.602 40.0572 35.8182 37.6934C39.9802 34.7624 43.5748 30.9804 48.3044 29.2785C56.5339 26.5366 65.8985 29.6567 73.9389 26.442L72.1416 21.8091C63.7229 24.9292 53.9799 21.5254 45.6558 24.9292C41.3991 26.6311 37.9938 29.9404 34.3993 32.6823C29.9535 35.9916 25.0347 37.3152 19.5483 37.5043C14.6295 37.6934 9.80529 37.3152 4.98108 37.5043L6.77833 42.2318Z" fill="#ACEAEF"/>
<path d="M32.0343 29C34.3889 27.141 37.5804 26 41.0922 26C44.5479 26 47.6919 27.1044 50.0343 28.9097" stroke="#210049" stroke-linecap="round"/>
<path d="M35.2752 26.8865C33.8878 25.4117 33.0343 23.4067 33.0343 21.1964C33.0343 16.6694 36.6155 13 41.0337 13C45.4531 13 49.0343 16.6694 49.0343 21.1964C49.0343 23.4635 48.136 25.5156 46.6849 27" stroke="#210049" stroke-width="2"/>
<path d="M36.6637 23.8908C36.2633 23.1273 36.0343 22.2468 36.0343 21.3104C36.0343 18.3775 38.2726 16 41.0349 16C43.796 16 46.0343 18.3775 46.0343 21.3104C46.0343 22.3886 45.8176 23.1624 45.2984 24" stroke="#210049" stroke-linecap="round" stroke-linejoin="round"/>
<path d="M33.8456 23.3205C23.5286 26.1848 17.0343 34.6697 17.0343 44.654C17.0343 56.9953 28.4568 67 42.5465 67C50.3999 67 57.424 63.8915 62.1034 59.0023C71.634 53.8104 71.3015 46.1142 70.861 43.4725C70.7702 42.9344 70.3862 42.5681 69.9605 42.605L67.9692 42.7805C67.3913 36.6894 64.0247 31.2915 58.9907 27.5699L59.3858 26.3082C59.7649 25.0935 59.2655 23.7199 58.3 23.3205C57.7037 23.0738 57.051 23.2595 56.5897 23.8064L55.321 25.311C53.3249 24.2973 51.9299 23.5126 49.6381 23" stroke="#210049" stroke-width="2"/>
<path d="M25 61V67.7654C25 68.9997 25.9708 70 27.1688 70H32.8301C34.0281 70 35 68.9997 35 67.7654V65.5" stroke="#210049" stroke-width="2"/>
<path d="M48 66.5156V68.3057C48 69.2414 48.7626 70 49.7045 70H56.2955C57.2363 70 58 69.2414 58 68.3057V62" stroke="#210049" stroke-width="2"/>
<path d="M58.0343 39C58.0343 37.8955 58.9293 37 60.0338 37C61.1383 37 62.0343 37.8955 62.0343 39" stroke="#210049" stroke-linecap="round"/>
<path fill-rule="evenodd" clip-rule="evenodd" d="M21.0343 31C21.0343 32.1045 20.1391 33 19.0343 33C17.9295 33 17.0343 32.1045 17.0343 31C17.0343 29.8955 17.9295 29 19.0343 29C20.1391 29 21.0343 29.8955 21.0343 31V31Z" stroke="#210049"/>
<path d="M17.0343 31C17.0343 31 16.5728 28.2991 19.0343 26.5" stroke="#210049" stroke-linecap="round"/>
</svg>
