<svg width="40" height="43" viewBox="0 0 40 43" fill="none" xmlns="http://www.w3.org/2000/svg">
  <path fill-rule="evenodd" clip-rule="evenodd" d="M17.6167 41.9997L0.884639 25.1803C-0.294229 23.9953 -0.294229 22.0737 0.884639 20.8888L17.6167 4.07014C18.7956 2.88442 20.7073 2.88442 21.8861 4.07014L38.619 20.8888C39.7978 22.0737 39.7978 23.9953 38.619 25.1803L21.8861 41.9997C20.7073 43.1846 18.7956 43.1846 17.6167 41.9997Z" fill="#D5F4F7"/>
  <path d="M28.25 17H11.75C10.5074 17 9.5 18.0074 9.5 19.25V29.75C9.5 30.9926 10.5074 32 11.75 32H28.25C29.4926 32 30.5 30.9926 30.5 29.75V19.25C30.5 18.0074 29.4926 17 28.25 17Z" stroke="#210049" stroke-width="1.5" stroke-linejoin="round"/>
  <path d="M23 22.25V23.375C23 23.4745 22.9605 23.5698 22.8902 23.6402C22.8198 23.7105 22.7245 23.75 22.625 23.75H17.375C17.2755 23.75 17.1802 23.7105 17.1098 23.6402C17.0395 23.5698 17 23.4745 17 23.375V22.25M14.75 17V15.5C14.75 15.1022 14.908 14.7206 15.1893 14.4393C15.4706 14.158 15.8522 14 16.25 14H23.75C24.1478 14 24.5294 14.158 24.8107 14.4393C25.092 14.7206 25.25 15.1022 25.25 15.5V17H14.75ZM30.5 22.25H9.5H30.5Z" stroke="#210049" stroke-width="1.5" stroke-linecap="round" stroke-linejoin="round"/>
</svg>
