<svg width="48" height="48" viewBox="0 0 48 48" fill="none" xmlns="http://www.w3.org/2000/svg">
  <path fill-rule="evenodd" clip-rule="evenodd" d="M21.6218 45.0152L2.98481 26.3782C1.67173 25.0651 1.67173 22.9357 2.98481 21.6227L21.6218 2.98481C22.9349 1.67173 25.0643 1.67173 26.3773 2.98481L45.0152 21.6227C46.3283 22.9357 46.3283 25.0651 45.0152 26.3782L26.3773 45.0152C25.0643 46.3283 22.9349 46.3283 21.6218 45.0152Z" fill="#D5F4F7"/>
  <path d="M32.7 20.044L24.5095 16.0015C24.3511 15.9233 24.1767 15.8826 24 15.8826C23.8233 15.8826 23.6489 15.9233 23.4905 16.0015L15.3 20.044C14.986 20.1978 14.7213 20.4364 14.5357 20.7328C14.3502 21.0291 14.2512 21.3715 14.25 21.7212V30.3748C14.25 31.4102 15.1003 32.2498 16.1494 32.2498H31.8525C32.9016 32.2498 33.7519 31.4102 33.7519 30.3748V21.7212C33.7505 21.3713 33.6512 21.0288 33.4653 20.7324C33.2795 20.436 33.0143 20.1976 32.7 20.044V20.044Z" stroke="#210049" stroke-width="1.5" stroke-linecap="round" stroke-linejoin="round"/>
  <path d="M30.625 29.2498L24.5659 24.537C24.3685 24.3834 24.1254 24.3 23.8752 24.3C23.6251 24.3 23.382 24.3834 23.1845 24.537L17.125 29.2498" stroke="#210049" stroke-width="1.5" stroke-linecap="round" stroke-linejoin="round"/>
  <path d="M26.4998 25.8281L32.8748 21" stroke="#210049" stroke-width="1.5" stroke-linecap="round" stroke-linejoin="round"/>
  <path d="M14.875 21L21.3906 25.9219" stroke="#210049" stroke-width="1.5" stroke-linecap="round" stroke-linejoin="round"/>
</svg>
