<svg width="40" height="40" viewBox="0 0 40 40" fill="none" xmlns="http://www.w3.org/2000/svg">
<path fill-rule="evenodd" clip-rule="evenodd" d="M17.6167 38.9997L0.884639 22.1803C-0.294229 20.9953 -0.294229 19.0737 0.884639 17.8888L17.6167 1.07014C18.7956 -0.115584 20.7073 -0.115584 21.8861 1.07014L38.619 17.8888C39.7978 19.0737 39.7978 20.9953 38.619 22.1803L21.8861 38.9997C20.7073 40.1846 18.7956 40.1846 17.6167 38.9997Z" fill="#EEACEF"/>
<path d="M11.75 17.9375V29C11.75 29.1989 11.829 29.3897 11.9697 29.5303C12.1103 29.671 12.3011 29.75 12.5 29.75H17V23.375C17 23.0766 17.1185 22.7905 17.3295 22.5795C17.5405 22.3685 17.8266 22.25 18.125 22.25H21.875C22.1734 22.25 22.4595 22.3685 22.6705 22.5795C22.8815 22.7905 23 23.0766 23 23.375V29.75H27.5C27.6989 29.75 27.8897 29.671 28.0303 29.5303C28.171 29.3897 28.25 29.1989 28.25 29V17.9375" stroke="#210049" stroke-width="1.5" stroke-linecap="round" stroke-linejoin="round"/>
<path d="M30.5 20L20.5105 10.4375C20.2761 10.19 19.7281 10.1872 19.4895 10.4375L9.5 20M26.75 16.3906V11H24.5V14.2344" stroke="#210049" stroke-width="1.5" stroke-linecap="round" stroke-linejoin="round"/>
</svg>
