<svg width="48" height="48" viewBox="0 0 48 48" fill="none" xmlns="http://www.w3.org/2000/svg">
  <path fill-rule="evenodd" clip-rule="evenodd" d="M21.6218 45.0152L2.98481 26.3782C1.67173 25.0651 1.67173 22.9357 2.98481 21.6227L21.6218 2.98481C22.9349 1.67173 25.0643 1.67173 26.3773 2.98481L45.0152 21.6227C46.3283 22.9357 46.3283 25.0651 45.0152 26.3782L26.3773 45.0152C25.0643 46.3283 22.9349 46.3283 21.6218 45.0152Z" fill="#D5F4F7"/>
  <path d="M13.5 31.4766L19.125 16.4766L24.75 31.4766" stroke="#210049" stroke-width="1.5" stroke-linecap="round" stroke-linejoin="round"/>
  <path d="M22.7812 26.2266H15.4688" stroke="#210049" stroke-width="1.5" stroke-linecap="round" stroke-linejoin="round"/>
  <path d="M27.2812 23.2266C27.8527 21.8817 29.2031 20.9766 30.75 20.9766C32.9062 20.9766 34.5 22.4766 34.5 24.7266V31.4766" stroke="#210049" stroke-width="1.5" stroke-linecap="round" stroke-linejoin="round"/>
  <path d="M27 28.8047C27 30.4922 28.2591 31.5234 29.8125 31.5234C32.3438 31.5234 34.5 30.2578 34.5 26.5547V25.8516C33.5625 25.8516 31.7812 25.8984 30.1875 26.0859C28.6514 26.2669 27 26.9766 27 28.8047Z" stroke="#210049" stroke-width="1.5" stroke-linecap="round" stroke-linejoin="round"/>
</svg>
