<svg width="88" height="88" viewBox="0 0 88 88" fill="none" xmlns="http://www.w3.org/2000/svg">
<path d="M22.9943 79.4348L4.49143 32.4179C3.06126 28.6637 4.84898 24.4625 8.60318 23.0323L55.6202 4.52946C59.3744 3.0099 63.5755 4.88701 65.0057 8.55183L83.5086 55.5688C84.9387 59.323 83.151 63.5241 79.3968 64.9543L32.3798 83.5466C28.715 84.9768 24.5139 83.189 22.9943 79.4348Z" fill="#FFE812"/>
<path d="M22.0073 81.0919L2.52126 31.8315C1.00778 27.9549 2.89963 23.5111 6.77791 21.9983L56.1551 2.52102C60.0334 1.00823 64.4792 2.89922 65.9927 6.77576L85.4787 56.2253C86.9922 60.1019 85.1004 64.5457 81.2221 66.0585L31.8449 85.4412C27.872 87.0485 23.5208 85.063 22.0073 81.0919Z" fill="#E4D2FF"/>
<path d="M81.5057 46.0139C73.8438 47.6213 65.3304 45.3521 57.8577 48.2831C53.601 49.985 50.1957 53.2943 46.6012 56.0362C42.1553 59.3454 37.2365 60.6691 31.7502 60.8582C25.8854 61.0473 19.8315 60.5746 14.0614 61.0473L15.8587 65.6803C22.9531 65.2075 30.1421 66.3421 37.1419 65.3966C41.1148 64.8293 44.8039 63.4111 48.0201 61.0473C52.1821 58.1163 55.7766 54.3343 60.5062 52.6324C67.7899 50.1741 75.9248 52.3488 83.3976 50.7414L81.5057 46.0139Z" fill="#C7B1EB"/>
<path d="M36.1015 53.6725C44.331 51.4978 49.3444 43.272 57.0064 40.2464C63.6279 37.599 71.2898 39.3009 77.7221 36.4644L76.0194 31.926C69.0196 35.2353 60.0333 32.8715 53.0335 36.6535C48.966 38.8282 45.6553 42.232 42.0608 45.0684C37.7096 48.3777 32.9799 49.7014 27.5882 49.6068C21.4397 49.5123 15.0074 47.9049 8.85889 47.3376L10.7507 52.2542C19.1695 53.1997 27.8719 55.8471 36.1015 53.6725Z" fill="#C7B1EB"/>
<path d="M6.77833 42.2318C12.8322 42.2318 19.0753 42.8937 24.9401 42.0427C28.9129 41.4754 32.602 40.0572 35.8182 37.6934C39.9802 34.7624 43.5748 30.9804 48.3044 29.2785C56.5339 26.5366 65.8985 29.6567 73.9389 26.442L72.1416 21.8091C63.7229 24.9292 53.9799 21.5254 45.6558 24.9292C41.3991 26.6311 37.9938 29.9404 34.3993 32.6823C29.9535 35.9916 25.0347 37.3152 19.5483 37.5043C14.6295 37.6934 9.80529 37.3152 4.98108 37.5043L6.77833 42.2318Z" fill="#C7B1EB"/>
<path d="M63.6912 33.7064L68.8904 29.3906" stroke="#2A004A" stroke-width="0.854358" stroke-miterlimit="10" stroke-linecap="round" stroke-linejoin="round"/>
<path d="M65.4431 36.1466L71.2927 32.6504" stroke="#2A004A" stroke-width="0.854358" stroke-miterlimit="10" stroke-linecap="round" stroke-linejoin="round"/>
<path d="M66.3228 38.5301L73.0145 36.7068" stroke="#2A004A" stroke-width="0.854358" stroke-miterlimit="10" stroke-linecap="round" stroke-linejoin="round"/>
<path d="M51.6355 59.5794V63.3613C51.6355 65.211 50.1355 66.711 48.2858 66.711H27.3496C25.5 66.711 24 65.211 24 63.3613V25.3499C24 23.5003 25.5 22.0002 27.3496 22.0002H48.2858C50.1355 22.0002 51.6355 23.5003 51.6355 25.3499V28.2146" stroke="#2A004A" stroke-width="1.70872" stroke-miterlimit="10"/>
<path d="M49.4212 59.8271C58.0502 59.8271 65.0453 52.832 65.0453 44.203C65.0453 35.574 58.0502 28.5789 49.4212 28.5789C40.7922 28.5789 33.7971 35.574 33.7971 44.203C33.7971 52.832 40.7922 59.8271 49.4212 59.8271Z" stroke="#2A004A" stroke-width="1.70872" stroke-miterlimit="10"/>
<path d="M42.8685 34.8196H40.2933C40.064 34.8196 39.8798 35.0038 39.8798 35.2331V37.8083" stroke="#2A004A" stroke-width="0.854358" stroke-miterlimit="10" stroke-linecap="round" stroke-linejoin="round"/>
<path d="M39.8986 50.6277V53.2029C39.8986 53.4322 40.0828 53.6164 40.3121 53.6164H42.8873" stroke="#2A004A" stroke-width="0.854358" stroke-miterlimit="10" stroke-linecap="round" stroke-linejoin="round"/>
<path d="M55.9776 34.7932H58.5528C58.7821 34.7932 58.9663 34.9774 58.9663 35.2067V37.7819" stroke="#2A004A" stroke-width="0.854358" stroke-miterlimit="10" stroke-linecap="round" stroke-linejoin="round"/>
<path d="M58.9438 50.6016V53.1768C58.9438 53.4061 58.7596 53.5903 58.5303 53.5903H55.9551" stroke="#2A004A" stroke-width="0.854358" stroke-miterlimit="10" stroke-linecap="round" stroke-linejoin="round"/>
<path d="M49.376 36.0603V52.1318" stroke="#2A004A" stroke-width="0.854358" stroke-miterlimit="10" stroke-linecap="round" stroke-linejoin="round"/>
<path d="M57.6618 44.1882H42.876" stroke="#2A004A" stroke-width="0.854358" stroke-miterlimit="10" stroke-linecap="round" stroke-linejoin="round"/>
<path d="M41.5678 44.6167C41.8045 44.6167 41.9964 44.4248 41.9964 44.1881C41.9964 43.9514 41.8045 43.7595 41.5678 43.7595C41.3311 43.7595 41.1392 43.9514 41.1392 44.1881C41.1392 44.4248 41.3311 44.6167 41.5678 44.6167Z" fill="white"/>
<path d="M47.4475 39.8801C47.6842 39.8801 47.8761 39.6882 47.8761 39.4515C47.8761 39.2148 47.6842 39.0229 47.4475 39.0229C47.2108 39.0229 47.0189 39.2148 47.0189 39.4515C47.0189 39.6882 47.2108 39.8801 47.4475 39.8801Z" fill="white"/>
<path d="M46.1919 52.0119H42.831C42.1355 52.0119 41.5753 51.4479 41.5753 50.7562V47.3953C41.5753 46.6998 42.1392 46.1396 42.831 46.1396H46.1919C46.8874 46.1396 47.4475 46.7036 47.4475 47.3953V50.7562C47.4475 51.4517 46.8874 52.0119 46.1919 52.0119Z" stroke="#2A004A" stroke-width="0.854358" stroke-miterlimit="10"/>
<path d="M55.9776 51.9589H52.6167C51.9212 51.9589 51.361 51.395 51.361 50.7032V47.3423C51.361 46.6468 51.9249 46.0867 52.6167 46.0867H55.9776C56.6731 46.0867 57.2332 46.6506 57.2332 47.3423V50.7032C57.237 51.3987 56.6731 51.9589 55.9776 51.9589Z" stroke="#2A004A" stroke-width="0.854358" stroke-miterlimit="10"/>
<path d="M55.9776 42.203H52.6167C51.9212 42.203 51.361 41.6391 51.361 40.9474V37.5865C51.361 36.891 51.9249 36.3308 52.6167 36.3308H55.9776C56.6731 36.3308 57.2332 36.8947 57.2332 37.5865V40.9474C57.237 41.6429 56.6731 42.203 55.9776 42.203Z" stroke="#2A004A" stroke-width="0.854358" stroke-miterlimit="10"/>
<path d="M47.4475 40.6916V41.5976C47.4475 41.9322 47.1768 42.2066 46.8385 42.2066H42.1843C41.8498 42.2066 41.5753 41.936 41.5753 41.5976V36.9359C41.5753 36.6013 41.846 36.3269 42.1843 36.3269H46.8423C47.1768 36.3269 47.4513 36.5976 47.4513 36.9359V38.2254" stroke="#2A004A" stroke-width="0.854358" stroke-miterlimit="10" stroke-linecap="round" stroke-linejoin="round"/>
<path d="M44.5114 50.09C43.9362 50.09 43.47 49.6239 43.47 49.0487C43.47 48.4735 43.9362 48.0073 44.5114 48.0073C45.0866 48.0073 45.5527 48.4735 45.5527 49.0487C45.5527 49.6239 45.0866 50.09 44.5114 50.09Z" stroke="#2A004A" stroke-width="0.854358" stroke-miterlimit="10"/>
<path d="M54.2972 50.0642C53.722 50.0642 53.2558 49.598 53.2558 49.0228C53.2558 48.4476 53.722 47.9814 54.2972 47.9814C54.8723 47.9814 55.3385 48.4476 55.3385 49.0228C55.3385 49.598 54.8723 50.0642 54.2972 50.0642Z" stroke="#2A004A" stroke-width="0.854358" stroke-miterlimit="10"/>
<path d="M54.2972 40.3085C53.722 40.3085 53.2558 39.8424 53.2558 39.2672C53.2558 38.692 53.722 38.2258 54.2972 38.2258C54.8723 38.2258 55.3385 38.692 55.3385 39.2672C55.3385 39.8424 54.8723 40.3085 54.2972 40.3085Z" stroke="#2A004A" stroke-width="0.854358" stroke-miterlimit="10"/>
<path d="M44.5114 40.3308C43.9362 40.3308 43.47 39.8646 43.47 39.2894C43.47 38.7142 43.9362 38.248 44.5114 38.248C45.0866 38.248 45.5527 38.7142 45.5527 39.2894C45.5527 39.8684 45.0866 40.3308 44.5114 40.3308Z" stroke="#2A004A" stroke-width="0.854358" stroke-miterlimit="10"/>
<path d="M46.8009 63.6809H29.1279" stroke="#2A004A" stroke-width="0.854358" stroke-miterlimit="10" stroke-linecap="round"/>
<path d="M46.1204 22V25.6993C46.1204 26.2933 45.4738 26.7745 44.6768 26.7745H30.8459C30.0489 26.7745 29.4023 26.2933 29.4023 25.6993V22" stroke="#2A004A" stroke-width="0.854358" stroke-miterlimit="10" stroke-linecap="round"/>
</svg>
