<svg width="88" height="88" viewBox="0 0 88 88" fill="none" xmlns="http://www.w3.org/2000/svg">
<path d="M22.0073 81.0919L2.52126 31.8315C1.00778 27.9549 2.89963 23.5111 6.77791 21.9983L56.1551 2.52102C60.0334 1.00823 64.4792 2.89922 65.9927 6.77576L85.4787 56.2253C86.9922 60.1019 85.1004 64.5457 81.2221 66.0585L31.8449 85.4412C27.872 87.0485 23.5208 85.063 22.0073 81.0919Z" fill="#D5F4F7"/>
<path d="M81.5057 46.0139C73.8438 47.6213 65.3304 45.3521 57.8577 48.2831C53.601 49.985 50.1957 53.2943 46.6012 56.0362C42.1553 59.3454 37.2365 60.6691 31.7502 60.8582C25.8854 61.0473 19.8315 60.5746 14.0614 61.0473L15.8587 65.6803C22.9531 65.2075 30.1421 66.3421 37.1419 65.3966C41.1148 64.8293 44.8039 63.4111 48.0201 61.0473C52.1821 58.1163 55.7766 54.3343 60.5062 52.6324C67.7899 50.1741 75.9248 52.3488 83.3976 50.7414L81.5057 46.0139Z" fill="#ACEAEF"/>
<path d="M36.1015 53.6725C44.331 51.4978 49.3444 43.272 57.0064 40.2464C63.6279 37.599 71.2898 39.3009 77.7221 36.4644L76.0194 31.926C69.0196 35.2353 60.0333 32.8715 53.0335 36.6535C48.966 38.8282 45.6553 42.232 42.0608 45.0684C37.7096 48.3777 32.9799 49.7014 27.5882 49.6068C21.4397 49.5123 15.0074 47.9049 8.85889 47.3376L10.7507 52.2542C19.1695 53.1997 27.8719 55.8471 36.1015 53.6725Z" fill="#ACEAEF"/>
<path d="M6.77833 42.2318C12.8322 42.2318 19.0753 42.8937 24.9401 42.0427C28.9129 41.4754 32.602 40.0572 35.8182 37.6934C39.9802 34.7624 43.5748 30.9804 48.3044 29.2785C56.5339 26.5366 65.8985 29.6567 73.9389 26.442L72.1416 21.8091C63.7229 24.9292 53.9799 21.5254 45.6558 24.9292C41.3991 26.6311 37.9938 29.9404 34.3993 32.6823C29.9535 35.9916 25.0347 37.3152 19.5483 37.5043C14.6295 37.6934 9.80529 37.3152 4.98108 37.5043L6.77833 42.2318Z" fill="#ACEAEF"/>
<path d="M62 29.3158L67.1993 25" stroke="#2A004A" stroke-miterlimit="10" stroke-linecap="round" stroke-linejoin="round"/>
<path d="M63.7518 31.756L69.6015 28.2598" stroke="#2A004A" stroke-miterlimit="10" stroke-linecap="round" stroke-linejoin="round"/>
<path d="M64.6316 34.1396L71.3234 32.3163" stroke="#2A004A" stroke-miterlimit="10" stroke-linecap="round" stroke-linejoin="round"/>
<path d="M50.6355 59.5791V63.3611C50.6355 65.2107 49.1355 66.7107 47.2858 66.7107H26.3496C24.5 66.7107 23 65.2107 23 63.3611V25.3496C23 23.5 24.5 22 26.3496 22H47.2858C49.1355 22 50.6355 23.5 50.6355 25.3496V28.2143" stroke="#2A004A" stroke-width="2" stroke-miterlimit="10"/>
<path d="M49 60C57.8366 60 65 52.8366 65 44C65 35.1634 57.8366 28 49 28C40.1634 28 33 35.1634 33 44C33 52.8366 40.1634 60 49 60Z" stroke="#2A004A" stroke-width="2" stroke-miterlimit="10"/>
<path d="M42.1318 34.0278H39.4333C39.193 34.0278 39 34.2236 39 34.4672V37.2034" stroke="#2A004A" stroke-miterlimit="10" stroke-linecap="round" stroke-linejoin="round"/>
<path d="M39.0188 50.8245V53.5607C39.0188 53.8043 39.2118 54.0001 39.4521 54.0001H42.1506" stroke="#2A004A" stroke-miterlimit="10" stroke-linecap="round" stroke-linejoin="round"/>
<path d="M55.8683 34H58.5667C58.807 34 59.0001 34.1957 59.0001 34.4394V37.1756" stroke="#2A004A" stroke-miterlimit="10" stroke-linecap="round" stroke-linejoin="round"/>
<path d="M58.9764 50.7966V53.5328C58.9764 53.7765 58.7833 53.9722 58.543 53.9722H55.8446" stroke="#2A004A" stroke-miterlimit="10" stroke-linecap="round" stroke-linejoin="round"/>
<path d="M48.9508 35.2821V52.2825" stroke="#2A004A" stroke-miterlimit="10" stroke-linecap="round" stroke-linejoin="round"/>
<path d="M56.9395 43.9824H40.1738" stroke="#2A004A" stroke-miterlimit="10" stroke-linecap="round" stroke-linejoin="round"/>
<path d="M55.717 42H52.283C51.5723 42 51 41.4238 51 40.717V37.283C51 36.5723 51.5762 36 52.283 36H55.717C56.4276 36 57 36.5762 57 37.283V40.717C57.0038 41.4277 56.4276 42 55.717 42Z" stroke="#2A004A" stroke-miterlimit="10"/>
<path d="M55.717 52H52.283C51.5723 52 51 51.4238 51 50.717V47.283C51 46.5723 51.5762 46 52.283 46H55.717C56.4276 46 57 46.5762 57 47.283V50.717C57.0038 51.4277 56.4276 52 55.717 52Z" stroke="#2A004A" stroke-miterlimit="10"/>
<path d="M45.717 52H42.283C41.5723 52 41 51.4238 41 50.717V47.283C41 46.5723 41.5762 46 42.283 46H45.717C46.4276 46 47 46.5762 47 47.283V50.717C47.0038 51.4277 46.4276 52 45.717 52Z" stroke="#2A004A" stroke-miterlimit="10"/>
<path d="M46.9962 40.454V41.3785C46.9962 41.7199 46.7198 42 46.3743 42H41.6219C41.2802 42 41 41.7238 41 41.3785V36.6215C41 36.2801 41.2764 36 41.6219 36H46.3781C46.7198 36 47 36.2762 47 36.6215V37.9373" stroke="#2A004A" stroke-miterlimit="10" stroke-linecap="round" stroke-linejoin="round"/>
<path d="M54 50C53.4477 50 53 49.5523 53 49C53 48.4477 53.4477 48 54 48C54.5523 48 55 48.4477 55 49C55 49.5523 54.5523 50 54 50Z" stroke="#2A004A" stroke-miterlimit="10"/>
<path d="M54 40C53.4477 40 53 39.5523 53 39C53 38.4477 53.4477 38 54 38C54.5523 38 55 38.4477 55 39C55 39.5523 54.5523 40 54 40Z" stroke="#2A004A" stroke-miterlimit="10"/>
<path d="M44 50C43.4477 50 43 49.5523 43 49C43 48.4477 43.4477 48 44 48C44.5523 48 45 48.4477 45 49C45 49.5523 44.5523 50 44 50Z" stroke="#2A004A" stroke-miterlimit="10"/>
<path d="M44 40C43.4477 40 43 39.5523 43 39C43 38.4477 43.4477 38 44 38C44.5523 38 45 38.4477 45 39C45 39.5523 44.5523 40 44 40Z" stroke="#2A004A" stroke-miterlimit="10"/>
<path d="M45.8009 63.6805H28.1279" stroke="#2A004A" stroke-miterlimit="10" stroke-linecap="round"/>
</svg>
