<svg width="104" height="95" viewBox="0 0 104 95" fill="none" xmlns="http://www.w3.org/2000/svg">
  <path fill-rule="evenodd" clip-rule="evenodd" d="M32.3416 88.507L10.593 33.321C8.87441 28.9632 11.0184 24.0392 15.3808 22.3231L70.6115 0.592554C74.9728 -1.12466 79.902 1.01754 81.6185 5.37637L103.368 60.5613C105.086 64.919 102.942 69.8442 98.5803 71.5603L43.3486 93.2908C38.9873 95.0069 34.0591 92.8658 32.3416 88.507Z" fill="#FFE812"/>
  <mask id="mask0" mask-type="alpha" maskUnits="userSpaceOnUse" x="10" y="1" width="94" height="94">
  <path fill-rule="evenodd" clip-rule="evenodd" d="M10.0004 1.07911H103.96V94.9617H10V1.07911L103.961 1.07874V94.9616H10.0004V1.07911Z" fill="white"/>
  </mask>
  <g mask="url(#mask0)">
  <path fill-rule="evenodd" clip-rule="evenodd" d="M32.3415 89.5857L10.593 34.3997C8.87541 30.042 11.0183 25.1179 15.3808 23.4018L70.6114 1.67129C74.9738 -0.0459237 79.9019 2.09628 81.6195 6.45511L103.368 61.64C105.086 65.9978 102.942 70.9229 98.5802 72.639L43.3496 94.3695C38.9872 96.0857 34.059 93.9445 32.3415 89.5857Z" fill="#FFE812"/>
  </g>
  <path fill-rule="evenodd" clip-rule="evenodd" d="M98.8379 50.2028C90.2469 52.0278 80.6735 49.3992 72.3988 52.7689C67.6985 54.6824 63.9082 58.3649 59.7865 61.4229C54.7968 65.1237 49.3149 66.6252 43.1615 66.8259C36.5277 67.0405 29.869 66.4451 23.4004 66.9564L25.4364 72.1231C33.2825 71.6345 41.432 72.8997 49.1961 71.7607C53.6395 71.1081 57.6846 69.5139 61.4155 66.9251C66.0241 63.7269 70.0389 59.3346 75.3416 57.5635C83.4631 54.8507 92.6036 57.2701 100.88 55.3846L98.8379 50.2028Z" fill="#EFD40F"/>
  <path fill-rule="evenodd" clip-rule="evenodd" d="M47.9887 58.7483C57.1173 56.2976 62.7914 47.1096 71.4483 43.7313C78.8863 40.8287 87.3964 42.6073 94.6434 39.5591L92.6516 34.5045C84.7332 38.1266 74.7549 35.5433 66.9077 39.8126C62.4082 42.26 58.7042 46.1119 54.575 49.2346C49.7343 52.8955 44.4273 54.4445 38.358 54.3301C31.422 54.1985 24.3585 52.3778 17.4052 51.7457L19.5761 57.2533C29.1269 58.3125 38.8611 61.199 47.9887 58.7483Z" fill="#EFD40F"/>
  <path fill-rule="evenodd" clip-rule="evenodd" d="M15.1443 46.0078C21.9022 45.9538 28.8081 46.7337 35.4322 45.7629C39.8766 45.1103 43.9228 43.5161 47.6526 40.9284C52.2612 37.7291 56.276 33.3368 61.5788 31.5657C70.7419 28.5045 81.2027 31.9777 90.2547 28.4225L88.2349 23.2968C78.8903 26.7851 67.9416 22.9829 58.6359 26.7711C53.9356 28.6846 50.1442 32.3671 46.0236 35.4251C41.0328 39.126 35.552 40.6275 29.3986 40.8281C23.9382 41.005 18.4606 40.6372 13.0856 40.7839L15.1443 46.0078Z" fill="#EFD40F"/>
  <path d="M61.5266 55.2075V84.2813C61.5266 85.3859 60.6312 86.2813 59.5266 86.2813H8.77954C7.67497 86.2813 6.77954 85.3859 6.77954 84.2813V54.6527" stroke="#2A004A" stroke-width="2" stroke-miterlimit="10" stroke-linecap="round" stroke-linejoin="round"/>
  <path d="M59.1218 30.4397C58.2199 28.9268 56.5884 28 54.827 28H14.3378C12.5662 28 10.9269 28.9374 10.0285 30.4643L1 45.8078H68.2835L59.1218 30.4397Z" stroke="#2A004A" stroke-width="2" stroke-miterlimit="10" stroke-linecap="round" stroke-linejoin="round"/>
  <path d="M17.8212 45.8079C17.8212 50.8987 14.0552 55.0251 9.41061 55.0251C4.76607 55.0251 1 50.8987 1 45.8079" stroke="#2A004A" stroke-width="2" stroke-miterlimit="10" stroke-linecap="round" stroke-linejoin="round"/>
  <path d="M34.6424 45.8079C34.6424 50.8987 30.8764 55.0251 26.2318 55.0251C21.5873 55.0251 17.8212 50.8987 17.8212 45.8079" stroke="#2A004A" stroke-width="2" stroke-miterlimit="10" stroke-linecap="round" stroke-linejoin="round"/>
  <path d="M51.4622 45.7817C51.4622 50.8726 47.6961 54.999 43.0516 54.999C38.4071 54.999 34.641 50.8726 34.641 45.7817" stroke="#2A004A" stroke-width="2" stroke-miterlimit="10" stroke-linecap="round" stroke-linejoin="round"/>
  <path d="M68.2835 45.8079C68.2835 50.8987 64.5174 55.0251 59.8729 55.0251C55.2284 55.0251 51.4623 50.8987 51.4623 45.8079" stroke="#2A004A" stroke-width="2" stroke-miterlimit="10" stroke-linecap="round" stroke-linejoin="round"/>
  <path d="M29.6568 86.2815H16.7794L16.7335 65.0415C16.7335 63.1112 18.2941 61.546 20.2187 61.546H26.2175C28.1421 61.546 29.7027 63.1112 29.7027 65.0415L29.6568 86.2815Z" stroke="#2A004A" stroke-width="2" stroke-miterlimit="10" stroke-linecap="round" stroke-linejoin="round"/>
  <path d="M48.804 75.2515H40.1096C38.2954 75.2515 36.8236 73.7755 36.8236 71.9559V64.84C36.8236 63.0204 38.2954 61.5443 40.1096 61.5443H48.804C50.6182 61.5443 52.09 63.0204 52.09 64.84V71.9559C52.09 73.7769 50.6182 75.2515 48.804 75.2515Z" stroke="#2A004A" stroke-width="2" stroke-miterlimit="10" stroke-linecap="round" stroke-linejoin="round"/>
</svg>
