<svg width="153" height="150" viewBox="0 0 153 150" fill="none" xmlns="http://www.w3.org/2000/svg">
<g clip-path="url(#clip0)">
<path d="M85.6186 36.1587C87.3517 36.1587 88.7567 34.7564 88.7567 33.0266C88.7567 31.2968 87.3517 29.8945 85.6186 29.8945C83.8854 29.8945 82.4805 31.2968 82.4805 33.0266C82.4805 34.7564 83.8854 36.1587 85.6186 36.1587Z" stroke="#26A1AB" stroke-width="2" stroke-miterlimit="10"/>
<path d="M106.596 66.6709C107.882 68.804 109.393 70.7936 111.103 72.6059C117.769 79.7877 131.641 89.2238 151.219 74.4512" stroke="#26A1AB" stroke-width="2" stroke-miterlimit="10" stroke-linecap="round"/>
<path d="M42.7444 66.6416C42.7444 66.6416 29.7522 91.6881 24.9951 117.253" stroke="#26A1AB" stroke-width="2" stroke-miterlimit="10" stroke-linecap="round"/>
<path d="M105.986 42.2529V108.086C105.986 108.348 105.935 108.608 105.834 108.85C105.734 109.092 105.586 109.312 105.401 109.497C105.215 109.682 104.995 109.829 104.752 109.929C104.51 110.03 104.25 110.081 103.987 110.081H45.0232C44.4931 110.081 43.9847 109.871 43.6098 109.497C43.235 109.123 43.0244 108.615 43.0244 108.086V42.2529" stroke="#26A1AB" stroke-width="2" stroke-miterlimit="10"/>
<path opacity="0.25" d="M97.6805 30.5736C96.5572 30.8752 95.3706 30.8475 94.2626 30.4938C93.2951 30.1911 92.4153 29.6592 91.6983 28.9436C90.9813 28.228 90.4484 27.3499 90.1451 26.3843C89.7926 25.2811 89.7683 24.0996 90.0751 22.9829C90.1244 22.7987 90.1304 22.6056 90.0926 22.4187C90.0547 22.2318 89.9741 22.0562 89.8571 21.9056C89.74 21.7549 89.5896 21.6333 89.4177 21.5503C89.2457 21.4672 89.0569 21.425 88.8658 21.4268H59.6236C59.4338 21.4249 59.2462 21.4669 59.0755 21.5494C58.9047 21.632 58.7554 21.7528 58.6392 21.9026C58.5231 22.0523 58.4432 22.2269 58.4059 22.4126C58.3686 22.5983 58.3749 22.79 58.4243 22.9729C58.7331 24.1107 58.7018 25.3138 58.3344 26.4341C58.0285 27.388 57.4976 28.2547 56.7863 28.9612C56.075 29.6676 55.2041 30.1933 54.2468 30.4938C53.1354 30.8472 51.9457 30.8749 50.8189 30.5736C50.6351 30.5225 50.4418 30.5148 50.2545 30.5512C50.0671 30.5875 49.8908 30.6669 49.7395 30.7831C49.5883 30.8992 49.4661 31.0489 49.3829 31.2203C49.2996 31.3917 49.2575 31.5801 49.2599 31.7706V94.382C49.26 94.5707 49.3033 94.7569 49.3866 94.9263C49.4699 95.0957 49.591 95.2439 49.7405 95.3594C49.89 95.4749 50.064 95.5548 50.2492 95.5928C50.4344 95.6309 50.6258 95.6261 50.8089 95.579C51.9516 95.2652 53.1619 95.2964 54.2868 95.6687C55.2403 95.9761 56.1062 96.5069 56.8121 97.2166C57.518 97.9264 58.0434 98.7945 58.3444 99.7484C58.6987 100.854 58.7265 102.039 58.4243 103.16C58.375 103.344 58.369 103.537 58.4068 103.724C58.4447 103.911 58.5253 104.086 58.6423 104.237C58.7594 104.388 58.9098 104.509 59.0818 104.592C59.2537 104.675 59.4426 104.718 59.6336 104.716H88.8758C89.0649 104.716 89.2515 104.672 89.4212 104.589C89.5909 104.506 89.7394 104.385 89.8551 104.236C89.9709 104.087 90.0509 103.913 90.089 103.728C90.1271 103.544 90.1224 103.352 90.0751 103.17C89.7663 102.032 89.7976 100.829 90.1651 99.7085C90.4709 98.7546 91.0018 97.8879 91.7131 97.1815C92.4244 96.475 93.2953 95.9494 94.2526 95.6488C95.3649 95.2981 96.5548 95.2739 97.6805 95.579C97.8644 95.6264 98.0567 95.6309 98.2427 95.5923C98.4286 95.5537 98.6032 95.473 98.7529 95.3564C98.9026 95.2397 99.0235 95.0903 99.1061 94.9196C99.1888 94.7489 99.231 94.5616 99.2296 94.372V31.7706C99.2315 31.5812 99.1894 31.394 99.1067 31.2235C99.024 31.0531 98.9029 30.9041 98.7529 30.7881C98.6028 30.6722 98.4279 30.5925 98.2419 30.5553C98.0559 30.5181 97.8637 30.5244 97.6805 30.5736Z" fill="#00A5B6"/>
<path opacity="0.25" d="M52.3379 27.5604C54.0379 27.5604 55.416 26.185 55.416 24.4882C55.416 22.7915 54.0379 21.416 52.3379 21.416C50.6379 21.416 49.2598 22.7915 49.2598 24.4882C49.2598 26.185 50.6379 27.5604 52.3379 27.5604Z" fill="#00A5B6"/>
<path opacity="0.25" d="M96.1612 27.5604C97.8612 27.5604 99.2393 26.185 99.2393 24.4882C99.2393 22.7915 97.8612 21.416 96.1612 21.416C94.4611 21.416 93.083 22.7915 93.083 24.4882C93.083 26.185 94.4611 27.5604 96.1612 27.5604Z" fill="#00A5B6"/>
<path opacity="0.25" d="M52.3379 104.715C54.0379 104.715 55.416 103.339 55.416 101.643C55.416 99.9458 54.0379 98.5703 52.3379 98.5703C50.6379 98.5703 49.2598 99.9458 49.2598 101.643C49.2598 103.339 50.6379 104.715 52.3379 104.715Z" fill="#00A5B6"/>
<path opacity="0.25" d="M96.4317 104.715C98.1317 104.715 99.5098 103.339 99.5098 101.643C99.5098 99.9458 98.1317 98.5703 96.4317 98.5703C94.7316 98.5703 93.3535 99.9458 93.3535 101.643C93.3535 103.339 94.7316 104.715 96.4317 104.715Z" fill="#00A5B6"/>
<path d="M80.7553 77.0879L68.6215 77.3116C68.4453 77.3765 68.2641 77.3373 68.091 77.1969C67.918 77.0565 67.7573 76.8183 67.6205 76.4994C67.503 76.0084 67.7206 75.5112 68.1204 75.2702C72.3744 73.0112 76.7873 72.9298 81.1217 75.0306C81.54 75.2565 81.7659 75.7455 81.6764 76.2403C81.5558 76.5423 81.4118 76.7734 81.2533 76.9192C81.0949 77.065 80.9254 77.1224 80.7553 77.0879Z" fill="#26A1AB"/>
<path d="M64.921 65.8635C65.7489 65.8635 66.42 65.1936 66.42 64.3673C66.42 63.541 65.7489 62.8711 64.921 62.8711C64.093 62.8711 63.4219 63.541 63.4219 64.3673C63.4219 65.1936 64.093 65.8635 64.921 65.8635Z" fill="white"/>
<path d="M64.9207 67.8583C64.2289 67.8583 63.5526 67.6535 62.9774 67.2699C62.4022 66.8863 61.9539 66.3411 61.6891 65.7031C61.4244 65.0652 61.3551 64.3633 61.4901 63.686C61.625 63.0088 61.9582 62.3868 62.4474 61.8985C62.9365 61.4103 63.5598 61.0778 64.2383 60.9431C64.9168 60.8084 65.6202 60.8775 66.2593 61.1417C66.8985 61.406 67.4448 61.8534 67.8291 62.4276C68.2135 63.0017 68.4186 63.6766 68.4186 64.3671C68.4186 65.293 68.0501 66.181 67.3941 66.8358C66.7381 67.4905 65.8484 67.8583 64.9207 67.8583ZM64.9207 62.8709C64.6242 62.8709 64.3344 62.9587 64.0879 63.1231C63.8414 63.2875 63.6492 63.5212 63.5357 63.7946C63.4223 64.068 63.3926 64.3688 63.4504 64.659C63.5083 64.9493 63.6511 65.2159 63.8607 65.4251C64.0704 65.6344 64.3375 65.7769 64.6283 65.8346C64.9191 65.8923 65.2205 65.8627 65.4944 65.7495C65.7683 65.6362 66.0025 65.4444 66.1672 65.1984C66.3319 64.9523 66.4198 64.6631 66.4198 64.3671C66.4198 63.9703 66.2619 63.5898 65.9807 63.3092C65.6996 63.0286 65.3183 62.8709 64.9207 62.8709Z" fill="#26A1AB"/>
<path d="M83.3692 65.8635C84.1971 65.8635 84.8683 65.1936 84.8683 64.3673C84.8683 63.541 84.1971 62.8711 83.3692 62.8711C82.5413 62.8711 81.8701 63.541 81.8701 64.3673C81.8701 65.1936 82.5413 65.8635 83.3692 65.8635Z" fill="white"/>
<path d="M83.369 67.8583C82.6772 67.8583 82.0009 67.6535 81.4257 67.2699C80.8504 66.8863 80.4021 66.3411 80.1374 65.7031C79.8726 65.0652 79.8033 64.3633 79.9383 63.686C80.0733 63.0088 80.4064 62.3868 80.8956 61.8985C81.3848 61.4103 82.0081 61.0778 82.6866 60.9431C83.3651 60.8084 84.0684 60.8775 84.7076 61.1417C85.3467 61.406 85.893 61.8534 86.2774 62.4276C86.6617 63.0017 86.8669 63.6766 86.8669 64.3671C86.8669 64.8256 86.7764 65.2796 86.6006 65.7031C86.4248 66.1267 86.1672 66.5116 85.8423 66.8358C85.5175 67.1599 85.1319 67.4171 84.7076 67.5925C84.2832 67.768 83.8283 67.8583 83.369 67.8583ZM83.369 62.8709C83.0725 62.8709 82.7827 62.9587 82.5361 63.1231C82.2896 63.2875 82.0975 63.5212 81.984 63.7946C81.8705 64.068 81.8408 64.3688 81.8987 64.659C81.9565 64.9493 82.0993 65.2159 82.309 65.4251C82.5186 65.6344 82.7857 65.7769 83.0765 65.8346C83.3673 65.8923 83.6687 65.8627 83.9427 65.7495C84.2166 65.6362 84.4507 65.4444 84.6154 65.1984C84.7801 64.9523 84.8681 64.6631 84.8681 64.3671C84.8681 63.9703 84.7101 63.5898 84.429 63.3092C84.1479 63.0286 83.7666 62.8709 83.369 62.8709Z" fill="#26A1AB"/>
<path d="M41.0948 37.9138C41.0181 33.4896 41.825 29.0944 43.4683 24.9847C45.1116 20.875 47.5585 17.1331 50.6661 13.9773C53.7738 10.8215 57.48 8.31492 61.5686 6.60392C65.6572 4.89292 70.0462 4.01172 74.4796 4.01172C78.913 4.01172 83.302 4.89292 87.3906 6.60392C91.4792 8.31492 95.1854 10.8215 98.2931 13.9773C101.401 17.1331 103.848 20.875 105.491 24.9847C107.134 29.0944 107.941 33.4896 107.864 37.9138" fill="#C8F7F3"/>
<path d="M41.0948 37.9138C41.0181 33.4896 41.825 29.0944 43.4683 24.9847C45.1116 20.875 47.5585 17.1331 50.6661 13.9773C53.7738 10.8215 57.48 8.31492 61.5686 6.60392C65.6572 4.89292 70.0462 4.01172 74.4796 4.01172C78.913 4.01172 83.302 4.89292 87.3906 6.60392C91.4792 8.31492 95.1854 10.8215 98.2931 13.9773C101.401 17.1331 103.848 20.875 105.491 24.9847C107.134 29.0944 107.941 33.4896 107.864 37.9138" stroke="#26A1AB" stroke-width="2" stroke-miterlimit="10" stroke-linecap="round"/>
<path d="M81.8401 38.2726V8.34845C81.8401 6.39874 81.0641 4.52889 79.6828 3.15024C78.3015 1.77159 76.428 0.99707 74.4746 0.99707C72.5229 0.999713 70.652 1.7754 69.2728 3.15376C67.8937 4.53213 67.119 6.40047 67.119 8.34845V38.2726H40.6551C40.3135 38.2713 39.975 38.3375 39.6592 38.4674C39.3433 38.5972 39.0563 38.7882 38.8148 39.0293C38.5732 39.2704 38.3819 39.5568 38.2518 39.8721C38.1216 40.1873 38.0553 40.5251 38.0567 40.8661V50.1825C38.0567 50.8703 38.3304 51.5299 38.8177 52.0163C39.305 52.5027 39.9659 52.7759 40.6551 52.7759H108.294C108.984 52.7759 109.646 52.503 110.135 52.0169C110.624 51.5308 110.9 50.8712 110.902 50.1825V40.8661C110.902 40.5247 110.835 40.1866 110.704 39.8713C110.573 39.556 110.38 39.2696 110.138 39.0287C109.896 38.7877 109.608 38.5969 109.292 38.4672C108.975 38.3374 108.636 38.2713 108.294 38.2726H81.8401Z" fill="#C8F7F3" stroke="#26A1AB" stroke-width="2" stroke-miterlimit="10" stroke-linecap="round"/>
<path d="M74.0756 48.437C75.8087 48.437 77.2137 47.0347 77.2137 45.3049C77.2137 43.5751 75.8087 42.1729 74.0756 42.1729C72.3425 42.1729 70.9375 43.5751 70.9375 45.3049C70.9375 47.0347 72.3425 48.437 74.0756 48.437Z" stroke="#26A1AB" stroke-width="2" stroke-miterlimit="10"/>
<path d="M74.0756 33.7846C75.8087 33.7846 77.2137 32.3824 77.2137 30.6526C77.2137 28.9228 75.8087 27.5205 74.0756 27.5205C72.3425 27.5205 70.9375 28.9228 70.9375 30.6526C70.9375 32.3824 72.3425 33.7846 74.0756 33.7846Z" stroke="#26A1AB" stroke-width="2" stroke-miterlimit="10"/>
<path d="M98.2104 48.437C99.9435 48.437 101.348 47.0347 101.348 45.3049C101.348 43.5751 99.9435 42.1729 98.2104 42.1729C96.4772 42.1729 95.0723 43.5751 95.0723 45.3049C95.0723 47.0347 96.4772 48.437 98.2104 48.437Z" stroke="#26A1AB" stroke-width="2" stroke-miterlimit="10"/>
<path d="M48.7006 48.437C50.4337 48.437 51.8387 47.0347 51.8387 45.3049C51.8387 43.5751 50.4337 42.1729 48.7006 42.1729C46.9675 42.1729 45.5625 43.5751 45.5625 45.3049C45.5625 47.0347 46.9675 48.437 48.7006 48.437Z" stroke="#26A1AB" stroke-width="2" stroke-miterlimit="10"/>
<path d="M25.3543 140.185C38.8053 140.185 49.7095 129.302 49.7095 115.877C49.7095 102.452 38.8053 91.5684 25.3543 91.5684C11.9032 91.5684 0.999023 102.452 0.999023 115.877C0.999023 129.302 11.9032 140.185 25.3543 140.185Z" fill="#C8F7F3" stroke="#26A1AB" stroke-width="2" stroke-miterlimit="10" stroke-linecap="round"/>
<mask id="mask0" mask-type="alpha" maskUnits="userSpaceOnUse" x="-1" y="90" width="52" height="52">
<path d="M25.3543 140.185C38.8053 140.185 49.7095 129.302 49.7095 115.877C49.7095 102.452 38.8053 91.5684 25.3543 91.5684C11.9032 91.5684 0.999023 102.452 0.999023 115.877C0.999023 129.302 11.9032 140.185 25.3543 140.185Z" fill="#C8F7F3" stroke="#26A1AB" stroke-width="2" stroke-miterlimit="10" stroke-linecap="round"/>
</mask>
<g mask="url(#mask0)">
<path opacity="0.25" d="M9.85449 97.2832H40.5359" stroke="#59D4DE" stroke-miterlimit="10"/>
<path opacity="0.25" d="M0.0703125 101.941H50.7596" stroke="#59D4DE" stroke-miterlimit="10"/>
<path opacity="0.25" d="M0.0703125 106.6H50.7596" stroke="#59D4DE" stroke-miterlimit="10"/>
<path opacity="0.25" d="M0.0703125 111.258H50.7596" stroke="#59D4DE" stroke-miterlimit="10"/>
<path opacity="0.25" d="M0.0703125 115.916H50.7596" stroke="#59D4DE" stroke-miterlimit="10"/>
<path opacity="0.25" d="M0.0703125 120.574H50.7596" stroke="#59D4DE" stroke-miterlimit="10"/>
<path opacity="0.25" d="M0.0703125 125.242H50.7596" stroke="#59D4DE" stroke-miterlimit="10"/>
<path opacity="0.25" d="M0.0703125 129.9H50.7596" stroke="#59D4DE" stroke-miterlimit="10"/>
<path opacity="0.25" d="M9.85449 134.559H40.5359" stroke="#59D4DE" stroke-miterlimit="10"/>
</g>
<path opacity="0.25" d="M25.3544 127.945C32.033 127.945 37.4471 122.542 37.4471 115.876C37.4471 109.21 32.033 103.807 25.3544 103.807C18.6758 103.807 13.2617 109.21 13.2617 115.876C13.2617 122.542 18.6758 127.945 25.3544 127.945Z" fill="#59D4DE"/>
<path d="M53.9569 109.742L53.1874 116.724C52.2897 124.788 52.2662 132.925 53.1174 140.993L53.9569 148.973" stroke="#27A1AB" stroke-width="2" stroke-linecap="round" stroke-linejoin="round"/>
<path d="M94.4131 109.742L95.1926 116.724C96.082 124.789 96.1021 132.925 95.2526 140.993L94.4131 148.973" stroke="#27A1AB" stroke-width="2" stroke-linecap="round" stroke-linejoin="round"/>
<path d="M62.8116 55.9884C62.7515 55.8716 62.6688 55.7679 62.5683 55.6831C62.4679 55.5983 62.3516 55.5342 62.2263 55.4943C62.1009 55.4545 61.9689 55.4397 61.8379 55.4509C61.7068 55.4621 61.5792 55.499 61.4625 55.5595L57.3749 57.7041C57.1771 57.8104 57.021 57.9803 56.9318 58.1861C56.8425 58.3919 56.8254 58.6218 56.8832 58.8385C56.9409 59.0553 57.0702 59.2463 57.2501 59.3807C57.43 59.5151 57.65 59.585 57.8746 59.5793C58.0247 59.5783 58.1722 59.5406 58.3044 59.4696L62.3919 57.335C62.6264 57.2119 62.8024 57.0009 62.8811 56.7484C62.9598 56.4959 62.9348 56.2225 62.8116 55.9884Z" fill="#26A1AB"/>
<path d="M89.8253 57.554L85.6079 55.6987C85.3654 55.5915 85.0901 55.585 84.8427 55.6804C84.5953 55.7758 84.396 55.9653 84.2887 56.2074C84.1813 56.4495 84.1747 56.7242 84.2703 56.9711C84.3659 57.218 84.5559 57.4169 84.7984 57.5241L88.9958 59.3794C89.1345 59.4388 89.2848 59.466 89.4356 59.4592C89.6227 59.4531 89.8043 59.3948 89.9598 59.2907C90.1153 59.1867 90.2384 59.0411 90.315 58.8707C90.4238 58.6311 90.4334 58.3583 90.3417 58.1117C90.25 57.8651 90.0644 57.6647 89.8253 57.554Z" fill="#26A1AB"/>
</g>
<defs>
<clipPath id="clip0">
<rect width="152.228" height="150" fill="white"/>
</clipPath>
</defs>
</svg>
