<svg viewBox="0 0 240 249" fill="none" xmlns="http://www.w3.org/2000/svg">
  <path d="M187.562 144.615C187.562 144.615 238.581 146.925 229.725 94.5574" stroke="#26A1AB" stroke-width="3.53345" stroke-miterlimit="10" stroke-linecap="round" stroke-linejoin="round"/>
  <path d="M184.481 196.404H113.824C112.091 196.404 110.743 195.057 110.743 193.324V81.0804C110.743 79.3477 112.091 78 113.824 78H184.289C186.021 78 187.369 79.3477 187.369 81.0804V193.132C187.562 195.057 186.214 196.404 184.481 196.404Z" fill="white" stroke="#26A1AB" stroke-width="3.53345" stroke-miterlimit="10"/>
  <g opacity="0.8">
  <path opacity="0.25" d="M177.55 99.1782C176.202 99.5633 174.855 99.5633 173.315 99.1782C171.004 98.4081 169.079 96.4828 168.309 94.1725C167.924 92.6323 167.924 91.2846 168.309 89.9369C168.501 88.9742 167.924 88.0116 166.769 88.0116C159.645 88.0116 138.082 88.0116 131.151 88.0116C130.188 88.0116 129.418 88.9742 129.611 89.9369C129.996 91.2846 129.996 92.6323 129.418 94.1725C128.648 96.4828 126.723 98.4081 124.413 99.1782C122.872 99.5633 121.525 99.5633 120.177 99.1782C119.214 98.9857 118.252 99.5633 118.252 100.718C118.252 112.848 118.252 165.215 118.252 177.344C118.252 178.307 119.214 179.077 120.177 178.885C121.525 178.5 122.872 178.5 124.413 179.077C126.723 179.847 128.648 181.773 129.418 184.083C129.803 185.623 129.803 186.971 129.418 188.318C129.226 189.281 129.803 190.244 130.958 190.244C138.082 190.244 159.645 190.244 166.576 190.244C167.539 190.244 168.309 189.281 168.116 188.318C167.731 186.971 167.731 185.623 168.309 184.083C169.079 181.773 171.004 179.847 173.315 179.077C174.855 178.692 176.202 178.692 177.55 179.077C178.513 179.27 179.475 178.692 179.475 177.537C179.475 165.408 179.475 113.04 179.475 100.911C179.283 99.5633 178.513 98.7931 177.55 99.1782Z" fill="#59D4DE"/>
  <path opacity="0.25" d="M122.102 95.5201C124.229 95.5201 125.953 93.7961 125.953 91.6695C125.953 89.5429 124.229 87.819 122.102 87.819C119.976 87.819 118.252 89.5429 118.252 91.6695C118.252 93.7961 119.976 95.5201 122.102 95.5201Z" fill="#59D4DE"/>
  <path opacity="0.25" d="M175.625 95.5201C177.751 95.5201 179.475 93.7961 179.475 91.6695C179.475 89.5429 177.751 87.819 175.625 87.819C173.498 87.819 171.774 89.5429 171.774 91.6695C171.774 93.7961 173.498 95.5201 175.625 95.5201Z" fill="#59D4DE"/>
  <path opacity="0.25" d="M122.102 189.859C124.229 189.859 125.953 188.135 125.953 186.008C125.953 183.881 124.229 182.158 122.102 182.158C119.976 182.158 118.252 183.881 118.252 186.008C118.252 188.135 119.976 189.859 122.102 189.859Z" fill="#59D4DE"/>
  <path opacity="0.25" d="M176.01 189.859C178.137 189.859 179.86 188.135 179.86 186.008C179.86 183.881 178.137 182.158 176.01 182.158C173.883 182.158 172.159 183.881 172.159 186.008C172.159 188.135 173.883 189.859 176.01 189.859Z" fill="#59D4DE"/>
  </g>
  <path d="M137.504 137.491C138.568 137.491 139.43 136.629 139.43 135.566C139.43 134.502 138.568 133.64 137.504 133.64C136.441 133.64 135.579 134.502 135.579 135.566C135.579 136.629 136.441 137.491 137.504 137.491Z" fill="white"/>
  <path d="M137.504 139.801C135.194 139.801 133.269 137.876 133.269 135.566C133.269 133.255 135.194 131.33 137.504 131.33C139.815 131.33 141.74 133.255 141.74 135.566C141.74 137.876 139.815 139.801 137.504 139.801ZM137.504 133.64C136.542 133.64 135.579 134.411 135.579 135.566C135.579 136.721 136.349 137.491 137.504 137.491C138.66 137.491 139.43 136.721 139.43 135.566C139.43 134.411 138.467 133.64 137.504 133.64Z" fill="#26A1AB"/>
  <path d="M160.03 137.491C161.093 137.491 161.955 136.629 161.955 135.566C161.955 134.502 161.093 133.64 160.03 133.64C158.967 133.64 158.105 134.502 158.105 135.566C158.105 136.629 158.967 137.491 160.03 137.491Z" fill="white"/>
  <path d="M160.03 139.801C157.72 139.801 155.795 137.876 155.795 135.566C155.795 133.255 157.72 131.33 160.03 131.33C162.34 131.33 164.266 133.255 164.266 135.566C164.266 137.876 162.34 139.801 160.03 139.801ZM160.03 133.64C159.068 133.64 158.105 134.411 158.105 135.566C158.105 136.721 158.875 137.491 160.03 137.491C161.185 137.491 161.955 136.721 161.955 135.566C161.955 134.411 160.993 133.64 160.03 133.64Z" fill="#26A1AB"/>
  <path d="M155.602 144.229H142.318C141.74 144.229 141.355 144.614 141.355 145C141.162 145.577 141.547 145.962 141.933 146.155C144.243 147.31 146.553 147.887 149.056 147.887C151.559 147.887 153.869 147.31 156.18 146.155C156.565 145.962 156.95 145.385 156.757 145C156.565 144.422 155.987 144.229 155.602 144.229Z" fill="#26A1AB"/>
  <path d="M136.734 120.934C136.349 120.356 135.772 120.163 135.194 120.356L130.766 122.474C130.188 122.666 129.996 123.436 130.188 124.014C130.381 124.399 130.766 124.592 131.151 124.592C131.344 124.592 131.536 124.592 131.536 124.399L135.964 122.281C136.734 122.089 136.927 121.511 136.734 120.934Z" fill="#26A1AB"/>
  <path d="M166.961 122.666L162.533 120.356C161.955 120.163 161.378 120.356 160.993 120.934C160.8 121.511 160.993 122.089 161.57 122.474L165.998 124.592C166.191 124.592 166.384 124.784 166.384 124.784C166.769 124.784 167.154 124.592 167.346 124.207C167.731 123.436 167.539 122.859 166.961 122.666Z" fill="#26A1AB"/>
  <path opacity="0.25" d="M98.0362 157.321V156.551L98.9989 139.609C99.1914 137.299 96.6886 135.951 94.7633 136.913L81.8639 143.652L81.4789 143.844C76.6657 141.534 71.4674 139.801 65.8841 139.224C64.1514 139.031 62.4186 138.839 60.4934 138.839C59.9158 138.839 59.1457 138.839 58.5681 138.839C52.2147 139.031 46.2463 140.571 40.8555 143.074L28.1487 136.336C26.2234 135.181 23.7206 136.721 23.9131 139.031L24.8758 155.396C17.7522 163.675 13.5166 174.264 13.5166 186.008C13.5166 211.999 34.6947 233.177 60.6859 233.177C86.6771 233.177 107.855 211.999 107.855 186.008C107.855 175.226 104.197 165.408 98.0362 157.321Z" fill="#59D4DE" fill-opacity="0.8"/>
  <path d="M27.1861 219.7L29.8815 236.45C30.4591 240.108 33.732 242.996 37.5826 242.996C40.8556 242.996 43.7435 240.878 44.8986 237.99L47.209 231.637" fill="#D5F4F7"/>
  <path d="M27.1861 219.7L29.8815 236.45C30.4591 240.108 33.732 242.996 37.5826 242.996C40.8556 242.996 43.7435 240.878 44.8986 237.99L47.209 231.637" stroke="#26A1AB" stroke-width="3.53345" stroke-miterlimit="10"/>
  <path d="M93.2231 220.47L90.7202 236.45C90.1426 240.108 86.8697 242.996 83.0191 242.996C79.7461 242.996 76.8582 240.878 75.7031 237.99L73.3927 231.83" fill="#D5F4F7"/>
  <path d="M93.2231 220.47L90.7202 236.45C90.1426 240.108 86.8697 242.996 83.0191 242.996C79.7461 242.996 76.8582 240.878 75.7031 237.99L73.3927 231.83" stroke="#26A1AB" stroke-width="3.53345" stroke-miterlimit="10"/>
  <path d="M98.0362 157.321V156.551L98.9989 139.609C99.1914 137.299 96.6886 135.951 94.7633 136.913L81.8639 143.652L81.4789 143.844C76.6657 141.534 71.4674 139.801 65.8841 139.224C64.1514 139.031 62.4186 138.839 60.4934 138.839C59.9158 138.839 59.1457 138.839 58.5681 138.839C52.2147 139.031 46.2463 140.571 40.8555 143.074L28.1487 136.336C26.2234 135.181 23.7206 136.721 23.9131 139.031L24.8758 155.396C17.7522 163.675 13.5166 174.264 13.5166 186.008C13.5166 211.999 34.6947 233.177 60.6859 233.177C86.6771 233.177 107.855 211.999 107.855 186.008C107.855 175.226 104.197 165.408 98.0362 157.321Z" stroke="#26A1AB" stroke-width="3.53345" stroke-miterlimit="10"/>
  <path d="M65.4991 139.416C65.4991 141.727 63.9589 143.074 62.0336 143.074C60.1083 143.074 58.7606 141.727 58.7606 139.416" fill="#26A1AB"/>
  <path d="M14.8643 166.37C17.4163 166.37 19.485 164.301 19.485 161.749C19.485 159.198 17.4163 157.129 14.8643 157.129C12.3124 157.129 10.2437 159.198 10.2437 161.749C10.2437 164.301 12.3124 166.37 14.8643 166.37Z" stroke="#26A1AB" stroke-width="3.53345" stroke-miterlimit="10"/>
  <path d="M10.2437 162.52C10.2437 162.52 8.51092 157.321 14.2867 153.471" stroke="#26A1AB" stroke-width="3.53345" stroke-miterlimit="10" stroke-linecap="round"/>
  <path d="M31.2292 165.215C31.2292 165.985 31.8068 166.563 32.5769 166.563C33.347 166.563 33.9246 165.985 33.9246 165.215C33.9246 163.482 35.2723 162.135 37.005 162.135C38.7378 162.135 39.8929 163.482 39.8929 165.215C39.8929 165.985 40.4705 166.563 41.2406 166.563C42.0107 166.563 42.5883 165.985 42.5883 165.215C42.5883 161.942 39.8929 159.439 36.8125 159.439C33.732 159.439 31.2292 161.942 31.2292 165.215Z" fill="#26A1AB"/>
  <path d="M78.7835 165.215C78.7835 165.985 79.3611 166.563 80.1312 166.563C80.9013 166.563 81.4789 165.985 81.4789 165.215C81.4789 163.482 82.8266 162.135 84.5593 162.135C86.2921 162.135 87.4472 163.482 87.4472 165.215C87.4472 165.985 88.0248 166.563 88.7949 166.563C89.565 166.563 90.1426 165.985 90.1426 165.215C90.1426 161.942 87.4472 159.439 84.3668 159.439C81.4789 159.247 78.7835 161.942 78.7835 165.215Z" fill="#26A1AB"/>
  <path d="M37.005 174.649C37.005 179.847 43.3584 184.275 51.0595 184.275H70.6973C78.3984 184.275 84.7519 180.04 84.7519 174.649V173.109C84.7519 164.06 74.1628 156.936 60.8784 156.936C47.7865 156.936 37.1975 164.06 37.005 173.109V174.649Z" fill="#26A1AB"/>
  <path d="M71.4674 177.537C73.1687 177.537 74.5479 175.123 74.5479 172.146C74.5479 169.169 73.1687 166.755 71.4674 166.755C69.7662 166.755 68.387 169.169 68.387 172.146C68.387 175.123 69.7662 177.537 71.4674 177.537Z" fill="white"/>
  <path d="M49.7118 177.537C51.4131 177.537 52.7923 175.123 52.7923 172.146C52.7923 169.169 51.4131 166.755 49.7118 166.755C48.0105 166.755 46.6314 169.169 46.6314 172.146C46.6314 175.123 48.0105 177.537 49.7118 177.537Z" fill="white"/>
  <path opacity="0.25" d="M61.456 213.347C50.6745 213.347 40.8555 217.775 33.5395 224.706C41.2406 230.097 50.6745 233.37 60.6859 233.37C71.0824 233.37 80.9013 229.904 88.6024 224.128C81.4789 217.39 71.8525 213.347 61.456 213.347Z" fill="#59D4DE"/>
  <path d="M129.996 196.212L129.033 204.298C127.878 213.732 127.878 223.166 129.033 232.407L129.996 241.648" stroke="#27A1AB" stroke-width="3.53345" stroke-miterlimit="10" stroke-linecap="round" stroke-linejoin="round"/>
  <path d="M165.036 196.212L164.843 198.715C163.496 212.192 163.496 225.861 164.843 239.338L165.036 241.841" stroke="#27A1AB" stroke-width="3.53345" stroke-miterlimit="10" stroke-linecap="round" stroke-linejoin="round"/>
  <path d="M25.2564 248L163.654 248" stroke="#27A1AB" stroke-width="2" stroke-miterlimit="10" stroke-linecap="round" stroke-linejoin="round"/>
  <path d="M171.282 248L195.256 248" stroke="#27A1AB" stroke-width="2" stroke-miterlimit="10" stroke-linecap="round" stroke-linejoin="round"/>
  <path d="M110.166 146.732C110.166 146.732 97.6512 126.517 63.7663 134.796" stroke="#27A1AB" stroke-width="3.53345" stroke-miterlimit="10" stroke-linecap="round" stroke-linejoin="round"/>
  <path d="M55.2951 127.672L47.9791 120.934" stroke="#27A1AB" stroke-width="3.53345" stroke-miterlimit="10" stroke-linecap="round" stroke-linejoin="round"/>
  <path d="M66.4617 127.672L73.7778 120.934" stroke="#27A1AB" stroke-width="3.53345" stroke-miterlimit="10" stroke-linecap="round" stroke-linejoin="round"/>
  <path d="M60.8784 124.014L61.071 114.965" stroke="#27A1AB" stroke-width="3.53345" stroke-miterlimit="10" stroke-linecap="round" stroke-linejoin="round"/>
  </svg>
