<svg width="320" height="164" viewBox="0 0 320 164" fill="none" xmlns="http://www.w3.org/2000/svg">
<rect width="320" height="164" fill="#C8F7F3" fill-opacity="0.01"/>
<g opacity="0.25">
<path fill-rule="evenodd" clip-rule="evenodd" d="M204.8 31.8C203.4 32.2 201.9 32.2 200.4 31.7C197.9 30.9 195.8 28.9 195 26.3C194.5 24.7 194.5 23.2 194.9 21.9C195.2 20.9 194.4 19.9 193.3 19.9C185.8 19.9 162.8 19.9 155.3 19.9C154.2 19.9 153.5 20.9 153.7 21.9C154.1 23.3 154.1 24.8 153.6 26.4C152.8 28.9 150.8 30.9 148.3 31.7C146.7 32.2 145.2 32.2 143.8 31.8C142.8 31.5 141.8 32.3 141.8 33.4C141.8 46.3 141.8 107.3 141.8 120.2C141.8 121.3 142.8 122 143.8 121.8C145.2 121.4 146.7 121.4 148.3 121.9C150.8 122.7 152.8 124.7 153.6 127.2C154.1 128.8 154.1 130.3 153.7 131.7C153.4 132.7 154.2 133.7 155.3 133.7C162.8 133.7 185.8 133.7 193.3 133.7C194.4 133.7 195.1 132.7 194.9 131.7C194.5 130.3 194.5 128.8 195 127.2C195.8 124.7 197.8 122.7 200.3 121.9C201.9 121.4 203.4 121.4 204.8 121.8C205.8 122.1 206.8 121.3 206.8 120.2C206.8 107.3 206.8 46.3 206.8 33.4C206.8 32.3 205.8 31.5 204.8 31.8Z" fill="#59D5DF"/>
<path fill-rule="evenodd" clip-rule="evenodd" d="M145.8 27.9C148.009 27.9 149.8 26.1091 149.8 23.9C149.8 21.6909 148.009 19.9 145.8 19.9C143.591 19.9 141.8 21.6909 141.8 23.9C141.8 26.1091 143.591 27.9 145.8 27.9Z" fill="#59D5DF"/>
<path fill-rule="evenodd" clip-rule="evenodd" d="M202.8 27.9C205.009 27.9 206.8 26.1091 206.8 23.9C206.8 21.6909 205.009 19.9 202.8 19.9C200.591 19.9 198.8 21.6909 198.8 23.9C198.8 26.1091 200.591 27.9 202.8 27.9Z" fill="#59D5DF"/>
<path fill-rule="evenodd" clip-rule="evenodd" d="M202.8 133.6C205.009 133.6 206.8 131.809 206.8 129.6C206.8 127.391 205.009 125.6 202.8 125.6C200.591 125.6 198.8 127.391 198.8 129.6C198.8 131.809 200.591 133.6 202.8 133.6Z" fill="#59D5DF"/>
<path fill-rule="evenodd" clip-rule="evenodd" d="M145.8 133.6C148.009 133.6 149.8 131.809 149.8 129.6C149.8 127.391 148.009 125.6 145.8 125.6C143.591 125.6 141.8 127.391 141.8 129.6C141.8 131.809 143.591 133.6 145.8 133.6Z" fill="#59D5DF"/>
</g>
<path fill-rule="evenodd" clip-rule="evenodd" d="M39.6 141.6H38.6C38 141.6 37.6 141.2 37.6 140.6C37.6 140 38 139.6 38.6 139.6H39.6C40.2 139.6 40.6 140 40.6 140.6C40.6 141.2 40.1 141.6 39.6 141.6Z" fill="#59D5DF"/>
<path fill-rule="evenodd" clip-rule="evenodd" d="M34.6 141.6C34.3 141.6 34.1 141.5 33.9 141.3C33.7 141.1 33.6 140.9 33.6 140.6C33.6 140.3 33.7 140.1 33.9 139.9C34.3 139.5 34.9 139.5 35.3 139.9C35.5 140.1 35.6 140.3 35.6 140.6C35.6 140.9 35.5 141.1 35.3 141.3C35.1 141.5 34.9 141.6 34.6 141.6Z" fill="#59D5DF"/>
<path fill-rule="evenodd" clip-rule="evenodd" d="M46.6 141.6H42.6C42 141.6 41.6 141.2 41.6 140.6C41.6 140 42 139.6 42.6 139.6H46.6C47.2 139.6 47.6 140 47.6 140.6C47.6 141.2 47.1 141.6 46.6 141.6Z" fill="#59D5DF"/>
<path fill-rule="evenodd" clip-rule="evenodd" d="M59.6 141.6H49.6C49 141.6 48.6 141.2 48.6 140.6C48.6 140 49 139.6 49.6 139.6H59.6C60.2 139.6 60.6 140 60.6 140.6C60.6 141.2 60.1 141.6 59.6 141.6Z" fill="#59D5DF"/>
<path fill-rule="evenodd" clip-rule="evenodd" d="M281.4 141.6H280.4C279.8 141.6 279.4 141.2 279.4 140.6C279.4 140 279.8 139.6 280.4 139.6H281.4C282 139.6 282.4 140 282.4 140.6C282.4 141.2 282 141.6 281.4 141.6Z" fill="#59D5DF"/>
<path fill-rule="evenodd" clip-rule="evenodd" d="M285.4 141.6C285.1 141.6 284.9 141.5 284.7 141.3C284.5 141.1 284.4 140.9 284.4 140.6C284.4 140.3 284.5 140.1 284.7 139.9C285.1 139.5 285.7 139.5 286.1 139.9C286.3 140.1 286.4 140.3 286.4 140.6C286.4 140.9 286.3 141.1 286.1 141.3C285.9 141.5 285.7 141.6 285.4 141.6Z" fill="#59D5DF"/>
<path fill-rule="evenodd" clip-rule="evenodd" d="M277.4 141.6H273.4C272.8 141.6 272.4 141.2 272.4 140.6C272.4 140 272.8 139.6 273.4 139.6H277.4C278 139.6 278.4 140 278.4 140.6C278.4 141.2 278 141.6 277.4 141.6Z" fill="#59D5DF"/>
<path fill-rule="evenodd" clip-rule="evenodd" d="M270.4 141.6H260.4C259.8 141.6 259.4 141.2 259.4 140.6C259.4 140 259.8 139.6 260.4 139.6H270.4C271 139.6 271.4 140 271.4 140.6C271.4 141.2 271 141.6 270.4 141.6Z" fill="#59D5DF"/>
<path fill-rule="evenodd" clip-rule="evenodd" d="M257.4 141.6H62.6C62 141.6 61.6 141.2 61.6 140.6C61.6 140 62 139.6 62.6 139.6H257.4C258 139.6 258.4 140 258.4 140.6C258.4 141.2 258 141.6 257.4 141.6Z" fill="#59D5DF"/>
<path fill-rule="evenodd" clip-rule="evenodd" d="M104.5 77.1C105.328 77.1 106 76.4284 106 75.6C106 74.7716 105.328 74.1 104.5 74.1C103.672 74.1 103 74.7716 103 75.6C103 76.4284 103.672 77.1 104.5 77.1Z" fill="#59D5DF"/>
<path fill-rule="evenodd" clip-rule="evenodd" d="M110.5 77.1C111.328 77.1 112 76.4284 112 75.6C112 74.7716 111.328 74.1 110.5 74.1C109.672 74.1 109 74.7716 109 75.6C109 76.4284 109.672 77.1 110.5 77.1Z" fill="#59D5DF"/>
<path fill-rule="evenodd" clip-rule="evenodd" d="M116.5 77.1C117.328 77.1 118 76.4284 118 75.6C118 74.7716 117.328 74.1 116.5 74.1C115.672 74.1 115 74.7716 115 75.6C115 76.4284 115.672 77.1 116.5 77.1Z" fill="#59D5DF"/>
<path d="M160.8 84.3C162.8 82.3 165.9 82.3 167.9 84.3" stroke="#26A2AC" stroke-width="2"/>
<path d="M180.3 75.6C180.3 77.8 178.5 79.6 176.3 79.6C174.1 79.6 172.3 77.8 172.3 75.6" stroke="#26A2AC" stroke-width="2"/>
<path d="M156.3 75.6C156.3 77.8 154.5 79.6 152.3 79.6C150.1 79.6 148.3 77.8 148.3 75.6" stroke="#26A2AC" stroke-width="2"/>
<path fill-rule="evenodd" clip-rule="evenodd" d="M152.4 100.8C151.8 100.8 151.4 101.2 151.4 101.8V103.8H159.4V101.8C159.4 101.2 159 100.8 158.4 100.8H152.4Z" fill="white"/>
<path fill-rule="evenodd" clip-rule="evenodd" d="M239.7 143.7H231.3L204.4 94.4C204.1 93.9 203.5 93.7 203 94C202.5 94.3 202.3 94.9 202.6 95.4L213.9 116.1V139.1C213.9 139.4 213.6 139.7 213.3 139.7H194.1L163.3 120.2C161.7 119.2 159.7 119 157.9 119.7C156.1 120.4 154.8 121.8 154.3 123.7L149.8 139.7H134.6V108.4C134.6 108.1 134.4 107.9 134.1 107.9H133.1C132.8 107.9 132.6 108.1 132.6 108.4V139.7H87.6V129.7C87.6 126.9 85.4 124.7 82.6 124.7C82 124.7 81.6 125.1 81.6 125.7V140.7C81.6 141.3 82 141.7 82.6 141.7H149.3L147.4 148.5H135.9C133.1 148.5 130.9 150.7 130.9 153.5C130.9 154.1 131.3 154.5 131.9 154.5H147C147.4 154.5 147.8 154.2 148 153.8L151.4 141.7H213.3C214.7 141.7 215.9 140.5 215.9 139.1V119.8L229.8 145.3C230 145.6 230.3 145.8 230.7 145.8H239.7C240.3 145.8 240.7 145.4 240.7 144.8C240.7 144.2 240.2 143.7 239.7 143.7ZM85.6 139.6H83.6V126.8C84.8 127.2 85.6 128.3 85.6 129.6V139.6ZM146.3 152.4H133.1C133.5 151.2 134.6 150.4 135.9 150.4H146.8L146.3 152.4ZM152 139.6L156.3 124.1C156.6 122.9 157.5 121.9 158.7 121.4C159.9 120.9 161.2 121.1 162.3 121.8L190.4 139.6H152Z" fill="#26A2AC"/>
<path fill-rule="evenodd" clip-rule="evenodd" d="M120.8 105.8H161.3C163.5 105.8 165.3 107.6 165.3 109.8C165.3 110.4 165.7 110.8 166.3 110.8C166.9 110.8 167.3 110.4 167.3 109.8C167.3 106.8 165.1 104.3 162.2 103.9C161.7 103.8 161.4 103.4 161.4 102.9V101.8C161.4 100.1 160.1 98.8 158.4 98.8H152.4C150.7 98.8 149.4 100.1 149.4 101.8V102.8C149.4 103.4 149 103.8 148.4 103.8H134.7V12.2C134.7 11.9 135 11.6 135.3 11.6H213.3C213.6 11.6 213.9 11.9 213.9 12.2V107.3C213.9 107.6 214 107.9 214.1 108.2L214.9 109.9C215.1 110.4 215.8 110.2 215.8 109.7V12.2C215.8 10.8 214.6 9.6 213.2 9.6H135.2C133.8 9.6 132.6 10.8 132.6 12.2V84.3L117.1 94.9C114.8 96.5 113.9 99.3 114.9 102C115.9 104.3 118.2 105.8 120.8 105.8ZM151.4 101.8C151.4 101.2 151.8 100.8 152.4 100.8H158.4C159 100.8 159.4 101.2 159.4 101.8V102.8C159.4 103.4 159 103.8 158.4 103.8H152.4C151.8 103.8 151.4 103.4 151.4 102.8V101.8ZM118.3 96.5L132.6 86.7V103.8H120.5C118.3 103.8 117.1 102.3 116.7 101C116.3 99.7 116.5 97.8 118.3 96.5Z" fill="#26A2AC"/>
</svg>
