<svg width="196" height="145" viewBox="0 0 196 145" fill="none" xmlns="http://www.w3.org/2000/svg">
<g clip-path="url(#clip0)">
<path d="M136.272 100.368L135.289 107.988C134.088 116.806 133.87 125.623 134.634 134.441L135.398 143.149" stroke="#27A1AB" stroke-width="2" stroke-miterlimit="10" stroke-linecap="round" stroke-linejoin="round"/>
<path d="M168.374 101.13L168.156 103.416C166.627 116.152 166.3 128.889 167.283 141.734L167.501 144.02" stroke="#27A1AB" stroke-width="2" stroke-miterlimit="10" stroke-linecap="round" stroke-linejoin="round"/>
<path opacity="0.25" d="M173.943 98.8439L131.468 97.8642C128.956 97.7553 126.882 95.687 126.991 93.1832L128.956 6.74931C129.065 4.24555 131.14 2.17723 133.651 2.28609L176.127 3.26582C178.639 3.37468 180.713 5.443 180.604 7.94675L178.639 94.3807C178.639 96.8844 176.564 98.8439 173.943 98.8439Z" fill="#45C2D1"/>
<path d="M154.616 11.3213L148.174 11.2124C147.3 11.2124 146.536 10.4504 146.645 9.57954C146.645 8.70867 147.41 7.94666 148.283 7.94666L154.725 8.05551C155.599 8.05551 156.363 8.81753 156.254 9.6884C156.254 10.5593 155.49 11.3213 154.616 11.3213Z" fill="#27A1AB"/>
<path d="M161.059 11.4302H159.421C158.547 11.4302 157.783 10.6682 157.892 9.79731C157.892 8.92644 158.656 8.16443 159.53 8.16443H161.168C162.041 8.16443 162.806 8.92644 162.696 9.79731C162.696 10.6682 161.932 11.4302 161.059 11.4302Z" fill="#27A1AB"/>
<path d="M157.497 91.6593C157.551 89.2549 155.493 87.2589 152.901 87.2011C150.308 87.1434 148.163 89.0456 148.109 91.45C148.055 93.8543 150.113 95.8503 152.705 95.9081C155.298 95.9659 157.443 94.0636 157.497 91.6593Z" fill="#27A1AB"/>
<path d="M180.419 15.0621L128.781 13.9111L127.192 84.7641L178.83 85.915L180.419 15.0621Z" fill="white"/>
<path d="M133.542 2.17718C133.651 2.17718 133.651 2.17718 133.542 2.17718L176.127 3.15691C178.639 3.26577 180.713 5.33408 180.604 7.83784L178.639 94.2718C178.529 96.7755 176.564 98.735 174.052 98.735H173.943L131.468 97.7553C128.956 97.6464 126.881 95.5781 126.991 93.0743L128.956 6.64039C129.065 4.13664 131.14 2.17718 133.542 2.17718ZM133.542 0C129.83 0 126.881 2.93919 126.772 6.64039L124.807 93.0743C124.698 96.7755 127.755 99.9324 131.468 100.041L173.943 101.021H174.052C177.765 101.021 180.713 98.0818 180.822 94.3806L182.788 7.9467C182.788 6.0961 182.133 4.46321 180.932 3.15691C179.73 1.8506 177.983 1.08859 176.127 1.08859L133.761 0H133.542Z" fill="#00A0AB"/>
<path d="M163.024 57.9129C161.823 58.3483 161.168 59.7635 161.605 60.9609L162.041 62.1584C161.168 62.2672 160.294 62.0495 159.53 61.7229C159.093 61.5052 158.656 61.7229 158.438 62.0495C158.22 62.485 158.438 62.9204 158.766 63.1381C160.185 63.7913 161.823 63.9001 163.242 63.5735H163.352C163.352 63.5735 163.352 63.5735 163.461 63.5735C165.099 63.0293 166.627 61.9407 167.392 60.1989C167.61 59.7635 167.392 59.3281 167.064 59.1103C166.737 59.0015 166.409 59.0015 166.081 59.3281C165.645 58.0217 164.334 57.4775 163.024 57.9129ZM163.57 59.3281C164.007 59.2192 164.444 59.4369 164.553 59.7635L164.88 60.7432C164.444 61.1787 164.007 61.3964 163.57 61.7229L163.133 60.4166C162.915 59.9812 163.133 59.5458 163.57 59.3281Z" fill="#26A1AB"/>
<path d="M140.094 41.693C139.766 41.693 139.548 41.4753 139.329 41.1487C139.22 40.7132 139.329 40.1689 139.766 40.0601L143.369 38.4272C143.806 38.3183 144.352 38.4272 144.461 38.8626C144.57 39.2981 144.461 39.8424 144.024 39.9512L140.421 41.5841C140.312 41.693 140.203 41.693 140.094 41.693Z" fill="#00A1AC"/>
<path d="M168.156 41.9107C168.047 41.9107 167.938 41.9107 167.829 41.8019L164.225 40.0601C163.788 39.8424 163.679 39.407 163.788 38.9715C164.007 38.5361 164.444 38.4272 164.88 38.5361L168.484 40.2778C168.92 40.4955 169.03 40.931 168.92 41.3664C168.811 41.693 168.484 41.9107 168.156 41.9107Z" fill="#00A1AC"/>
<path d="M162.478 49.9663C163.322 49.9663 164.007 49.2839 164.007 48.4422C164.007 47.6005 163.322 46.9182 162.478 46.9182C161.634 46.9182 160.949 47.6005 160.949 48.4422C160.949 49.2839 161.634 49.9663 162.478 49.9663Z" fill="white"/>
<path d="M161.823 50.7282C160.185 50.7282 158.875 49.313 158.875 47.6802C158.875 46.0473 160.294 44.741 161.932 44.741C163.57 44.741 164.88 46.1561 164.88 47.789C164.88 49.5308 163.57 50.7282 161.823 50.7282ZM161.932 46.4827C161.277 46.4827 160.622 47.027 160.622 47.789C160.622 48.4422 161.168 49.0953 161.932 49.0953C162.587 49.0953 163.242 48.551 163.242 47.789C163.242 47.027 162.696 46.4827 161.932 46.4827Z" fill="#00A1AC"/>
<path d="M143.369 49.5307C144.214 49.5307 144.898 48.8484 144.898 48.0067C144.898 47.165 144.214 46.4827 143.369 46.4827C142.525 46.4827 141.841 47.165 141.841 48.0067C141.841 48.8484 142.525 49.5307 143.369 49.5307Z" fill="white"/>
<path d="M145.99 50.4017C144.352 50.4017 143.042 48.9865 143.042 47.3536C143.042 45.7207 144.461 44.4144 146.099 44.4144C147.737 44.4144 149.047 45.8296 149.047 47.4625C149.047 49.2042 147.628 50.4017 145.99 50.4017ZM146.099 46.0473C145.444 46.0473 144.789 46.5916 144.789 47.3536C144.789 48.0068 145.335 48.6599 146.099 48.6599C146.754 48.6599 147.409 48.1156 147.409 47.3536C147.409 46.7005 146.754 46.0473 146.099 46.0473Z" fill="#00A1AC"/>
<path d="M125.899 52.2523C125.899 52.2523 101.549 57.5864 98.2729 33.0931" stroke="#26A1AB" stroke-width="2" stroke-miterlimit="10" stroke-linecap="round" stroke-linejoin="round"/>
<path d="M180.822 54.1029C180.822 54.1029 214.454 62.7028 177.547 80.1202" stroke="#26A1AB" stroke-width="2" stroke-miterlimit="10" stroke-linecap="round" stroke-linejoin="round"/>
<path d="M59.728 100.368L60.7108 107.988C61.9119 116.806 62.1303 125.623 61.3659 134.441L60.6016 143.149" stroke="#27A1AB" stroke-width="2" stroke-miterlimit="10" stroke-linecap="round" stroke-linejoin="round"/>
<path d="M27.6257 101.13L27.8441 103.416C29.3728 116.152 29.7004 128.889 28.7177 141.734L28.4993 144.02" stroke="#27A1AB" stroke-width="2" stroke-miterlimit="10" stroke-linecap="round" stroke-linejoin="round"/>
<path opacity="0.25" d="M22.0567 98.8439L64.4233 97.8641C66.9347 97.7553 69.0093 95.687 68.9001 93.1832L67.0439 6.64042C66.9347 4.13667 64.86 2.06835 62.3486 2.17721L19.8728 3.15694C17.3614 3.26579 15.2868 5.33411 15.396 7.83787L17.3614 94.2718C17.3614 96.8844 19.4361 98.8439 22.0567 98.8439Z" fill="#45C2D1"/>
<path d="M34.068 11.3213L40.5103 11.2124C41.3839 11.2124 42.1482 10.4504 42.039 9.57954C42.039 8.70867 41.2747 7.94666 40.4011 7.94666L33.9588 8.05551C33.0853 8.05551 32.3209 8.81753 32.4301 9.6884C32.4301 10.5593 33.1945 11.3213 34.068 11.3213Z" fill="#27A1AB"/>
<path d="M45.8607 10.9947H47.4986C48.3721 10.9947 49.1365 10.2327 49.0273 9.36186C48.9181 8.49099 48.2629 7.62011 47.3894 7.72897H45.7515C44.878 7.72897 44.1136 8.49099 44.2228 9.36186C44.2228 10.3416 44.9872 10.9947 45.8607 10.9947Z" fill="#27A1AB"/>
<path d="M43.2297 95.9087C45.8223 95.8509 47.8803 93.855 47.8264 91.4506C47.7724 89.0463 45.627 87.144 43.0344 87.2018C40.4418 87.2596 38.3838 89.2555 38.4377 91.6599C38.4916 94.0642 40.6371 95.9665 43.2297 95.9087Z" fill="#27A1AB"/>
<path d="M17.1625 85.9321L68.8 84.7811L67.2111 13.9282L15.5735 15.0791L17.1625 85.9321Z" fill="white"/>
<path d="M62.3487 2.17718C64.8601 2.17718 66.9348 4.13664 66.9348 6.64039L68.9002 93.0743C69.0094 95.5781 66.9348 97.7553 64.4234 97.7553L21.9476 98.735H21.8384C19.327 98.735 17.2523 96.7755 17.2523 94.2718L15.3961 7.83784C15.2869 5.33408 17.3615 3.15691 19.8729 3.15691L62.3487 2.17718ZM62.3487 0H62.2395L19.7638 0.97973C17.9075 0.97973 16.2696 1.74174 14.9593 3.04805C13.7582 4.35435 13.103 6.0961 13.2122 7.83784L15.1777 94.2718C15.2869 97.973 18.3443 100.912 21.9476 100.912H22.0568L64.5326 99.9324C68.2451 99.8236 71.3025 96.7755 71.1933 92.9655L69.2278 6.64039C69.1186 2.93919 66.0612 0 62.3487 0Z" fill="#00A0AB"/>
<path d="M54.1593 37.774C54.4869 37.6651 54.7053 37.4474 54.7053 37.012C54.7053 36.5766 54.3777 36.1411 53.9409 36.1411L50.01 35.7057C49.5732 35.7057 49.1365 36.0323 49.1365 36.4677C49.1365 36.9031 49.4641 37.3386 49.9008 37.3386L53.8317 37.774C53.8317 37.8829 54.0501 37.774 54.1593 37.774Z" fill="#00A1AC"/>
<path d="M28.39 38.9715C28.4991 38.9715 28.6083 39.0804 28.7175 38.9715L32.6484 38.5361C33.0852 38.5361 33.4128 38.1006 33.4128 37.6652C33.4128 37.2298 32.976 36.9032 32.5393 36.9032L28.6083 37.3386C28.1716 37.3386 27.844 37.7741 27.844 38.2095C27.9532 38.6449 28.0624 38.8627 28.39 38.9715Z" fill="#00A1AC"/>
<path d="M33.5221 49.9663C34.3664 49.9663 35.0508 49.2839 35.0508 48.4422C35.0508 47.6005 34.3664 46.9182 33.5221 46.9182C32.6778 46.9182 31.9934 47.6005 31.9934 48.4422C31.9934 49.2839 32.6778 49.9663 33.5221 49.9663Z" fill="white"/>
<path d="M31.1199 47.789C31.1199 46.1561 32.4302 44.741 34.0681 44.741C35.7059 44.741 37.1254 46.0473 37.1254 47.6802C37.1254 49.313 35.8151 50.7282 34.1773 50.7282C32.4302 50.7282 31.1199 49.5308 31.1199 47.789ZM32.7578 47.789C32.7578 48.4422 33.4129 49.0953 34.0681 49.0953C34.7232 49.0953 35.3784 48.4422 35.3784 47.789C35.3784 47.1359 34.7232 46.4827 34.0681 46.4827C33.3037 46.4827 32.7578 47.027 32.7578 47.789Z" fill="#00A1AC"/>
<path d="M52.6307 49.5307C53.475 49.5307 54.1594 48.8484 54.1594 48.0067C54.1594 47.165 53.475 46.4827 52.6307 46.4827C51.7865 46.4827 51.1021 47.165 51.1021 48.0067C51.1021 48.8484 51.7865 49.5307 52.6307 49.5307Z" fill="white"/>
<path d="M46.8435 47.4625C46.8435 45.8296 48.1538 44.4144 49.7917 44.4144C51.4296 44.4144 52.8491 45.7207 52.8491 47.3536C52.8491 48.9865 51.5388 50.4017 49.9009 50.4017C48.3722 50.4017 46.9527 49.2042 46.8435 47.4625ZM48.5906 47.3536C48.5906 48.0068 49.2457 48.6599 49.9009 48.6599C50.556 48.6599 51.2112 48.0068 51.2112 47.3536C51.2112 46.7005 50.556 46.0473 49.9009 46.0473C49.1365 46.0473 48.5906 46.7005 48.5906 47.3536Z" fill="#00A1AC"/>
<path d="M70.1013 52.2523C70.1013 52.2523 94.4512 57.5864 97.7269 33.0931" stroke="#26A1AB" stroke-width="2" stroke-miterlimit="10" stroke-linecap="round" stroke-linejoin="round"/>
<path d="M15.0685 54.1029C15.0685 54.1029 -18.5627 62.7028 18.3443 80.1202" stroke="#26A1AB" stroke-width="2" stroke-miterlimit="10" stroke-linecap="round" stroke-linejoin="round"/>
<path d="M30.0278 59.9812C32.43 65.4241 37.2345 67.3836 42.6941 64.8799C43.6768 64.4444 42.8033 63.0293 41.8205 63.4647C37.2345 65.6419 33.4127 63.6824 31.4473 59.2192C31.0105 58.2395 29.591 59.1103 30.0278 59.9812Z" fill="#00A1AC"/>
</g>
<defs>
<clipPath id="clip0">
<rect width="196" height="145" fill="white"/>
</clipPath>
</defs>
</svg>
