<svg width="186" height="181" viewBox="0 0 186 181" fill="none" xmlns="http://www.w3.org/2000/svg">
<g filter="url(#filter0_d)">
<path d="M147.686 7.89676L147.424 31.107L146.116 170.899C146.116 173.684 144.154 176.072 141.668 176.735C141.145 176.867 140.621 177 140.098 177H138.136L52.3128 176.204H46.4255C43.024 176.204 40.4075 173.419 40.4075 169.971L41.8466 6.96835C41.8466 3.91786 44.2015 1.26526 47.0797 1C47.3413 1 47.603 1 47.8646 1L141.537 1.79578C143.238 1.79578 144.808 2.59156 145.854 3.6526C147.032 4.71364 147.686 6.3052 147.686 7.89676Z" stroke="#26A2AC" stroke-width="2" stroke-miterlimit="10" stroke-linecap="round"/>
</g>
<path d="M139.705 168.113C139.444 168.113 139.313 168.113 139.182 168.113C138.397 168.113 137.481 168.113 136.696 168.113C136.435 168.113 136.435 167.981 136.304 167.848C136.173 167.318 136.042 166.787 136.042 166.257C136.042 166.124 135.911 165.991 135.781 165.991C134.342 165.991 133.033 165.991 131.594 165.991C131.463 165.991 131.332 165.991 131.332 166.124C131.071 166.655 130.94 167.185 130.678 167.848C130.678 167.981 130.548 168.113 130.417 168.113C129.239 168.113 128.062 168.113 127.015 168.113H126.884C126.884 167.981 126.884 167.981 126.884 167.848C128.062 165.063 129.239 162.41 130.417 159.625C131.071 158.166 131.594 156.707 132.248 155.248C132.641 154.32 133.164 154.055 134.08 154.055C134.996 154.055 135.781 154.055 136.696 154.055C136.958 154.055 136.958 154.187 137.089 154.32C137.743 157.768 138.397 161.217 139.051 164.532C139.313 165.593 139.444 166.787 139.705 167.848C139.705 167.848 139.705 167.981 139.705 168.113ZM134.342 157.901C133.687 159.625 133.033 161.217 132.379 162.941C133.426 162.941 134.342 162.941 135.257 162.941C134.996 161.349 134.734 159.625 134.342 157.901Z" fill="#2FCAD7"/>
<path d="M112.232 153.789C112.101 154.055 112.101 154.32 111.97 154.452C110.138 158.829 108.307 163.073 106.475 167.45C106.344 167.715 106.214 167.848 105.952 167.848C104.905 167.848 103.859 167.848 102.812 167.848C102.55 167.848 102.42 167.715 102.42 167.583C101.504 163.869 100.588 160.288 99.6722 156.574C99.5414 155.911 99.1489 155.513 98.6256 155.248C97.7098 154.85 96.6632 154.452 95.6166 154.187C95.4858 154.187 95.4858 154.187 95.3549 154.055C95.3549 153.657 95.3549 153.657 95.7474 153.657C97.579 153.657 99.4106 153.657 101.242 153.657C102.42 153.657 103.074 154.187 103.205 155.381C103.597 157.901 104.12 160.421 104.513 162.941C104.513 162.941 104.513 162.941 104.513 163.073C104.644 162.675 104.775 162.41 104.905 162.012C105.952 159.36 107.129 156.574 108.176 153.922C108.307 153.789 108.307 153.657 108.568 153.657C109.615 153.657 110.662 153.657 111.839 153.657C111.97 153.789 112.101 153.789 112.232 153.789Z" fill="#2FCAD7"/>
<path d="M117.465 164.267C117.726 164.4 117.857 164.4 117.988 164.532C119.035 165.063 120.081 165.195 121.259 165.195C121.651 165.195 122.175 165.063 122.567 164.93C123.483 164.532 123.614 163.604 122.829 162.941C122.305 162.543 121.782 162.278 121.259 162.012C120.735 161.614 120.212 161.349 119.689 160.951C118.25 159.758 117.988 158.166 118.773 156.575C119.166 155.646 119.95 154.983 120.866 154.452C122.305 153.657 123.875 153.524 125.445 153.657C126.23 153.789 127.015 154.055 127.669 154.187C127.8 154.187 127.931 154.32 127.8 154.585C127.538 155.381 127.408 156.309 127.277 157.105C127.277 157.105 127.277 157.238 127.146 157.37C127.015 157.37 126.884 157.238 126.884 157.238C125.838 156.84 124.66 156.575 123.483 156.707C123.221 156.707 122.96 156.84 122.698 156.972C122.044 157.37 122.044 158.033 122.567 158.431C122.96 158.829 123.483 158.962 123.875 159.36C124.529 159.758 125.184 160.156 125.838 160.553C126.623 161.084 127.015 161.88 127.146 162.808C127.277 164.532 126.623 165.991 125.184 166.92C124.137 167.715 122.829 167.981 121.651 167.981C120.081 168.113 118.642 167.848 117.203 167.318C116.941 167.185 116.941 167.185 116.941 166.787C117.203 165.991 117.334 165.195 117.465 164.267C117.334 164.4 117.334 164.4 117.465 164.267Z" fill="#2FCAD7"/>
<path d="M110.662 167.848C110.793 167.45 110.793 166.92 110.923 166.522C111.578 163.471 112.232 160.288 113.017 157.238C113.278 156.177 113.54 155.116 113.671 154.055C113.671 153.922 113.802 153.789 113.932 153.789C114.979 153.789 116.026 153.789 116.941 153.789C117.072 153.789 117.072 153.789 117.203 153.789C117.203 153.922 117.203 154.055 117.203 154.055C116.287 158.431 115.241 162.676 114.325 167.052C114.194 167.848 114.194 167.848 113.409 167.848C112.624 167.848 111.708 167.848 110.923 167.848C110.923 167.848 110.793 167.848 110.662 167.848Z" fill="#2FCAD7"/>
<path opacity="0.1" d="M41.061 170.236L42.5001 7.23377C42.5001 3.78539 45.2474 1.13279 48.649 1.13279L65.7873 1.26542L64.2174 176.602L47.079 176.47C43.6775 176.337 40.9301 173.552 41.061 170.236Z" fill="#2FCAD7"/>
<path d="M117.727 69.0392C117.465 69.0392 117.203 68.9065 116.942 68.7739L110.269 64.9276C109.746 64.6624 109.484 64.1318 109.484 63.4687C109.484 62.9382 109.746 62.275 110.269 62.0098L116.942 57.8982C117.727 57.3677 118.773 57.633 119.166 58.4288C119.689 59.2245 119.427 60.2856 118.642 60.6835L114.325 63.4687L118.512 65.856C119.297 66.2539 119.558 67.315 119.166 68.1107C118.904 68.7739 118.381 69.0392 117.727 69.0392Z" fill="#26A2AC"/>
<path d="M68.6664 69.0391C68.928 69.0391 69.1897 68.9065 69.4513 68.7739L76.1235 64.9276C76.6468 64.6623 76.9085 64.1318 76.9085 63.4687C76.9085 62.9382 76.6468 62.275 76.1235 62.0097L69.5821 57.8982C68.7972 57.3677 67.7506 57.633 67.3581 58.4287C66.8348 59.2245 67.0964 60.2856 67.8814 60.6834L72.1987 63.4687L67.8814 65.856C67.0964 66.2539 66.8348 67.3149 67.2273 68.1107C67.4889 68.7739 68.0122 69.0391 68.6664 69.0391Z" fill="#26A2AC"/>
<g opacity="0.8">
<path opacity="0.25" d="M70.3669 80.3128H65.788C64.7414 80.3128 63.9564 79.517 63.9564 78.456C63.9564 77.3949 64.7414 76.5991 65.788 76.5991H70.3669C71.4136 76.5991 72.1985 77.3949 72.1985 78.456C72.1985 79.517 71.4136 80.3128 70.3669 80.3128Z" fill="#2FCAD7"/>
</g>
<g opacity="0.25">
<path opacity="0.8" d="M120.735 80.3128H116.157C115.11 80.3128 114.325 79.517 114.325 78.456C114.325 77.3949 115.11 76.5991 116.157 76.5991H120.735C121.782 76.5991 122.567 77.3949 122.567 78.456C122.567 79.517 121.782 80.3128 120.735 80.3128Z" fill="#2FCAD7"/>
</g>
<path d="M97.579 81.3738C97.0556 82.0369 96.2707 82.5674 95.4857 82.5674C94.5699 82.5674 93.785 82.1695 93.3925 81.3738C93.2617 81.1085 92.8692 80.9759 92.6075 80.9759C92.3459 80.9759 91.9534 81.1085 91.8226 81.3738C91.2992 82.0369 90.5143 82.5674 89.7293 82.5674C88.8135 82.5674 88.0286 82.1695 87.6361 81.3738C87.3744 80.9759 86.7203 80.8432 86.3278 81.1085C85.9353 81.3738 85.8045 82.0369 86.0662 82.4348C86.8511 83.7611 88.1594 84.4243 89.5985 84.4243C90.6451 84.4243 91.6917 84.0264 92.4767 83.3632C93.2617 84.0264 94.3083 84.4243 95.3549 84.4243C96.794 84.4243 98.2331 83.6285 99.0181 82.4348C99.2797 82.0369 99.1489 81.3738 98.7564 81.1085C98.3639 80.8432 97.8406 80.9759 97.579 81.3738Z" fill="#26A2AC"/>
<path d="M165.872 64.7949L168.881 63.2033C169.404 62.938 169.927 63.4686 169.666 63.9991L168.096 67.0496C167.703 67.8453 167.703 68.9064 168.096 69.7022L169.666 72.7527C169.927 73.2832 169.404 73.8137 168.881 73.5484L165.872 71.9569C165.087 71.559 164.04 71.559 163.255 71.9569L160.246 73.5484C159.723 73.8137 159.199 73.2832 159.461 72.7527L161.031 69.7022C161.423 68.9064 161.423 67.8453 161.031 67.0496L159.461 63.9991C159.199 63.4686 159.723 62.938 160.246 63.2033L163.255 64.7949C164.171 65.1927 165.087 65.1927 165.872 64.7949Z" fill="#2FCAD7"/>
<path d="M162.861 85.3523L164.039 81.506C164.17 80.8429 165.085 80.8429 165.216 81.506L166.394 85.3523C166.655 86.4133 167.44 87.2091 168.487 87.4744L172.281 88.668C172.935 88.8007 172.935 89.7291 172.281 89.8617L168.487 91.0554C167.44 91.3206 166.655 92.1164 166.394 93.1775L165.216 97.0237C165.085 97.6869 164.17 97.6869 164.039 97.0237L162.861 93.1775C162.6 92.1164 161.815 91.3206 160.768 91.0554L156.974 89.8617C156.32 89.7291 156.32 88.8007 156.974 88.668L160.768 87.4744C161.815 87.0765 162.6 86.2807 162.861 85.3523Z" fill="#2FCAD7"/>
<path d="M179.87 76.3339L179.739 74.2118C179.739 73.8139 180.132 73.6813 180.393 73.9466L181.701 75.6708C182.094 76.0687 182.617 76.3339 183.141 76.3339L185.234 76.2013C185.626 76.2013 185.757 76.5992 185.495 76.8644L183.795 78.1907C183.402 78.5886 183.141 79.1191 183.141 79.6497L183.271 81.7717C183.271 82.1696 182.879 82.3023 182.617 82.037L181.309 80.3128C180.917 79.9149 180.393 79.6497 179.87 79.6497L177.777 79.7823C177.384 79.7823 177.253 79.3844 177.515 79.1191L179.216 77.7928C179.608 77.395 179.87 76.8644 179.87 76.3339Z" fill="#2FCAD7"/>
<path d="M19.999 80.5776L16.99 78.986C16.4667 78.7208 15.9433 79.2513 16.205 79.7818L17.7749 82.8323C18.1674 83.6281 18.1674 84.6891 17.7749 85.4849L16.3358 88.4028C16.0742 88.9333 16.5975 89.4638 17.1208 89.1985L20.1298 87.607C20.9148 87.2091 21.9614 87.2091 22.7464 87.607L25.7554 89.1985C26.2787 89.4638 26.802 88.9333 26.5404 88.4028L24.9704 85.3523C24.578 84.5565 24.578 83.4954 24.9704 82.6997L26.5404 79.6492C26.802 79.1187 26.2787 78.5881 25.7554 78.8534L22.7464 80.445C21.8306 81.1081 20.784 81.1081 19.999 80.5776Z" fill="#2FCAD7"/>
<path d="M23.1377 101.136L21.9603 97.2895C21.8295 96.6263 20.9137 96.6263 20.7828 97.2895L19.6054 101.136C19.3437 102.197 18.5588 102.993 17.5122 103.258L13.7182 104.451C13.064 104.584 13.064 105.513 13.7182 105.645L17.5122 106.839C18.5588 107.104 19.3437 107.9 19.6054 108.961L20.7828 112.807C20.9137 113.47 21.8295 113.47 21.9603 112.807L23.1377 108.961C23.3994 107.9 24.1844 107.104 25.231 106.839L29.025 105.645C29.6791 105.513 29.6791 104.584 29.025 104.451L25.231 103.258C24.1844 102.993 23.3994 102.197 23.1377 101.136Z" fill="#2FCAD7"/>
<path d="M45.0968 51.7566L44.151 54.846C44.0459 55.3787 43.3104 55.3787 43.2053 54.846L42.2595 51.7566C42.0494 50.9044 41.4189 50.2652 40.5782 50.0522L37.5308 49.0934C37.0054 48.9869 37.0054 48.2411 37.5308 48.1346L40.5782 47.1758C41.4189 46.9628 42.0494 46.3236 42.2595 45.4714L43.2053 42.382C43.3104 41.8493 44.0459 41.8493 44.151 42.382L45.0968 45.4714C45.3069 46.3236 45.9374 46.9628 46.7781 47.1758L49.8255 48.1346C50.3509 48.2411 50.3509 48.9869 49.8255 49.0934L46.7781 50.0522C45.9374 50.2652 45.3069 50.9044 45.0968 51.7566Z" fill="white"/>
<path d="M6.13011 92.1167L6.26094 89.9946C6.26094 89.5968 5.86846 89.4641 5.6068 89.7294L4.29853 91.4536C3.90605 91.8515 3.38274 92.1167 2.85943 92.1167L0.766191 91.9841C0.373709 91.9841 0.242882 92.382 0.504536 92.6472L2.20529 93.9735C2.59777 94.3714 2.85943 94.902 2.85943 95.4325L2.7286 97.5546C2.7286 97.9525 3.12108 98.0851 3.38274 97.8198L4.69101 96.0956C5.08349 95.6977 5.6068 95.4325 6.13011 95.4325L8.22335 95.5651C8.61583 95.5651 8.74666 95.1672 8.48501 94.902L6.78425 93.5757C6.39177 93.3104 6.13011 92.7799 6.13011 92.1167Z" fill="#2FCAD7"/>
<defs>
<filter id="filter0_d" x="39.4075" y="0" width="112.278" height="181" filterUnits="userSpaceOnUse" color-interpolation-filters="sRGB">
<feFlood flood-opacity="0" result="BackgroundImageFix"/>
<feColorMatrix in="SourceAlpha" type="matrix" values="0 0 0 0 0 0 0 0 0 0 0 0 0 0 0 0 0 0 127 0"/>
<feOffset dx="2" dy="2"/>
<feGaussianBlur stdDeviation="0.5"/>
<feColorMatrix type="matrix" values="0 0 0 0 0.184314 0 0 0 0 0.792157 0 0 0 0 0.843137 0 0 0 0.12 0"/>
<feBlend mode="normal" in2="BackgroundImageFix" result="effect1_dropShadow"/>
<feBlend mode="normal" in="SourceGraphic" in2="effect1_dropShadow" result="shape"/>
</filter>
</defs>
</svg>
