<svg width="113" height="83" viewBox="0 0 113 83" fill="none" xmlns="http://www.w3.org/2000/svg">
<path opacity="0.25" fill-rule="evenodd" clip-rule="evenodd" d="M95.7167 1.88428C97.0012 2.76859 97.804 4.29604 97.804 5.90389V58.0784C97.804 60.0078 96.7603 61.696 94.9941 62.5804L62.0786 79.0608C59.2688 80.5078 55.8969 80.5078 53.0871 79.0608L20.1716 62.5804C19.4491 62.1784 18.8068 61.696 18.4054 61.0529C18.8068 62.7411 19.8505 64.1078 21.4561 64.9117L54.3716 81.3921C55.8969 82.1156 57.5829 82.5176 59.1885 82.5176C60.8744 82.5176 62.48 82.1156 64.0054 81.3921L96.9209 64.9117C98.9279 63.947 100.132 61.9372 100.132 59.6862V7.59212C100.212 4.85879 98.2857 2.52741 95.7167 1.88428Z" fill="#59D5DF"/>
<path opacity="0.25" fill-rule="evenodd" clip-rule="evenodd" d="M2.50962 39.1058L3.71384 38.4626C3.8744 38.3823 4.11525 38.543 4.03497 38.7842L3.39271 39.9901C3.23215 40.3117 3.23215 40.7136 3.39271 41.0352L4.03497 42.2411C4.11525 42.4019 3.95469 42.643 3.71384 42.5626L2.50962 41.9195C2.18849 41.7587 1.78708 41.7587 1.46595 41.9195L0.34201 42.4019C0.181447 42.4823 -0.059398 42.3215 0.0208836 42.0803L0.663137 40.8744C0.823701 40.5528 0.823701 40.1509 0.663137 39.8293L0.0208836 38.6234C-0.059398 38.4626 0.101165 38.2215 0.34201 38.3019L1.54624 38.945C1.78708 39.2666 2.18849 39.2666 2.50962 39.1058Z" fill="#59D5DF"/>
<path opacity="0.25" fill-rule="evenodd" clip-rule="evenodd" d="M9.81526 39.4276L10.297 37.9001C10.3772 37.6589 10.6984 37.6589 10.7786 37.9001L11.2603 39.4276C11.4209 39.8295 11.6617 40.1511 12.0631 40.2315L13.5885 40.7138C13.8293 40.7942 13.8293 41.1158 13.5885 41.1962L12.0631 41.6786C11.6617 41.8393 11.3406 42.0805 11.2603 42.4825L10.7786 44.0099C10.6984 44.2511 10.3772 44.2511 10.297 44.0099L9.81526 42.4825C9.6547 42.0805 9.41385 41.7589 9.01244 41.6786L7.48709 41.1962C7.24625 41.1158 7.24625 40.7942 7.48709 40.7138L9.01244 40.2315C9.41385 40.1511 9.6547 39.8295 9.81526 39.4276Z" fill="#59D5DF"/>
<path opacity="0.25" fill-rule="evenodd" clip-rule="evenodd" d="M105.35 18.2844L106.555 17.6413C106.715 17.5609 106.956 17.7217 106.876 17.9628L106.234 19.1687C106.073 19.4903 106.073 19.8923 106.234 20.2138L106.876 21.4197C106.956 21.5805 106.796 21.8217 106.555 21.7413L105.35 21.0981C105.029 20.9374 104.628 20.9374 104.307 21.0981L103.103 21.7413C102.942 21.8217 102.701 21.6609 102.781 21.4197L103.424 20.2138C103.584 19.8923 103.584 19.4903 103.424 19.1687L102.781 17.9628C102.701 17.8021 102.862 17.5609 103.103 17.6413L104.307 18.2844C104.628 18.4452 105.029 18.4452 105.35 18.2844Z" fill="#59D5DF"/>
<path opacity="0.25" fill-rule="evenodd" clip-rule="evenodd" d="M104.146 26.3236L104.628 24.7961C104.708 24.5549 105.029 24.5549 105.11 24.7961L105.591 26.3236C105.752 26.7255 105.993 27.0471 106.394 27.1275L107.919 27.6098C108.16 27.6902 108.16 28.0118 107.919 28.0922L106.394 28.5745C105.993 28.7353 105.672 28.9765 105.591 29.3785L105.11 30.9059C105.029 31.1471 104.708 31.1471 104.628 30.9059L104.146 29.3785C103.986 28.9765 103.745 28.6549 103.343 28.5745L101.818 28.0922C101.577 28.0118 101.577 27.6902 101.818 27.6098L103.343 27.1275C103.665 27.0471 103.986 26.7255 104.146 26.3236Z" fill="#59D5DF"/>
<path opacity="0.25" fill-rule="evenodd" clip-rule="evenodd" d="M110.81 22.7862L110.729 21.9823C110.729 21.8215 110.89 21.8215 110.97 21.9019L111.452 22.5451C111.612 22.7058 111.773 22.7862 112.014 22.7862L112.817 22.7058C112.977 22.7058 112.977 22.8666 112.897 22.947L112.255 23.4294C112.094 23.5902 112.014 23.7509 112.014 23.9921L112.094 24.796C112.094 24.9568 111.934 24.9568 111.853 24.8764L111.372 24.2333C111.211 24.0725 111.05 23.9921 110.81 23.9921L110.007 24.0725C109.846 24.0725 109.846 23.9117 109.927 23.8313L110.569 23.349C110.729 23.2686 110.89 23.0274 110.81 22.7862Z" fill="#59D5DF"/>
<path opacity="0.25" fill-rule="evenodd" clip-rule="evenodd" d="M1.38566 46.4215L1.30538 45.6176C1.30538 45.4568 1.46594 45.4568 1.54622 45.5372L2.02791 46.1803C2.18848 46.3411 2.34904 46.4215 2.58989 46.4215L3.3927 46.3411C3.55327 46.3411 3.55327 46.5019 3.47299 46.5823L2.83073 47.0646C2.67017 47.2254 2.58989 47.3862 2.58989 47.6274L2.67017 48.4313C2.67017 48.5921 2.5096 48.5921 2.42932 48.5117L1.94763 47.9489C1.78707 47.7882 1.62651 47.7078 1.38566 47.7078L0.582844 47.7882C0.422281 47.7882 0.422281 47.6274 0.502562 47.547L1.14482 47.0646C1.30538 46.8235 1.38566 46.5823 1.38566 46.4215Z" fill="#59D5DF"/>
<path opacity="0.25" fill-rule="evenodd" clip-rule="evenodd" d="M10.5378 31.2273L10.0561 30.5842C9.97581 30.5038 10.0561 30.343 10.2167 30.343L11.0195 30.6646C11.2603 30.745 11.5012 30.745 11.6617 30.5842L12.304 30.1019C12.3843 30.0215 12.5448 30.1019 12.5448 30.2626L12.2237 31.0666C12.1434 31.3077 12.1434 31.5489 12.304 31.7097L12.7857 32.3528C12.866 32.4332 12.7857 32.594 12.6251 32.594L11.8223 32.2724C11.5814 32.192 11.3406 32.192 11.18 32.3528L10.5378 32.8352C10.4575 32.9156 10.2969 32.8352 10.2969 32.6744L10.6181 31.8705C10.6983 31.7097 10.6983 31.4685 10.5378 31.2273Z" fill="#59D5DF"/>
<path fill-rule="evenodd" clip-rule="evenodd" d="M94.9942 62.6608L62.0787 79.1412C59.2688 80.5882 55.897 80.5882 53.0871 79.1412L20.1716 62.6608C18.4857 61.7765 17.3618 60.0882 17.3618 58.1588V5.98431C17.3618 3.17059 19.6096 1 22.3392 1H92.5857C95.3956 1 97.5632 3.25098 97.5632 5.98431V58.1588C97.804 60.0078 96.6801 61.7765 94.9942 62.6608Z" stroke="#26A2AC" stroke-width="2"/>
<path fill-rule="evenodd" clip-rule="evenodd" d="M22.4998 12.0137C22.2589 12.0137 21.9378 11.9333 21.7772 11.6921C21.6167 11.5313 21.4561 11.2098 21.4561 10.9686C21.4561 10.7274 21.5364 10.4059 21.7772 10.2451C22.1787 9.84311 22.8209 9.84311 23.2223 10.2451C23.3829 10.4059 23.5434 10.7274 23.5434 10.9686C23.5434 11.2098 23.4632 11.451 23.2223 11.6921C23.0617 11.9333 22.8209 12.0137 22.4998 12.0137Z" fill="#59D5DF"/>
<path fill-rule="evenodd" clip-rule="evenodd" d="M87.849 10.9686C87.849 10.4059 88.2505 10.0039 88.8124 10.0039C89.3744 10.0039 89.7758 10.4863 89.7758 10.9686C89.7758 11.5314 89.2941 11.9333 88.8124 11.9333C88.3307 12.0137 87.849 11.5314 87.849 10.9686ZM83.9955 10.9686C83.9955 10.4059 84.4772 10.0039 84.9589 10.0039C85.5209 10.0039 85.9223 10.4863 85.9223 10.9686C85.9223 11.5314 85.4406 11.9333 84.9589 11.9333C84.3969 12.0137 83.9955 11.5314 83.9955 10.9686ZM80.0617 10.9686C80.0617 10.4059 80.5434 10.0039 81.0251 10.0039C81.5871 10.0039 81.9885 10.4863 81.9885 10.9686C81.9885 11.5314 81.5068 11.9333 81.0251 11.9333C80.5434 12.0137 80.0617 11.5314 80.0617 10.9686ZM76.1279 10.9686C76.1279 10.4059 76.6096 10.0039 77.0913 10.0039C77.6533 10.0039 78.0547 10.4863 78.0547 10.9686C78.0547 11.5314 77.573 11.9333 77.0913 11.9333C76.6096 12.0137 76.1279 11.5314 76.1279 10.9686ZM72.2744 10.9686C72.2744 10.4059 72.7561 10.0039 73.2378 10.0039C73.7998 10.0039 74.2012 10.4863 74.2012 10.9686C74.2012 11.5314 73.7195 11.9333 73.2378 11.9333C72.6758 12.0137 72.2744 11.5314 72.2744 10.9686ZM68.3406 10.9686C68.3406 10.4059 68.8223 10.0039 69.304 10.0039C69.866 10.0039 70.2674 10.4863 70.2674 10.9686C70.2674 11.5314 69.7857 11.9333 69.304 11.9333C68.8223 12.0137 68.3406 11.5314 68.3406 10.9686ZM64.4068 10.9686C64.4068 10.4059 64.8885 10.0039 65.3702 10.0039C65.9321 10.0039 66.3336 10.4863 66.3336 10.9686C66.3336 11.5314 65.9321 11.9333 65.3702 11.9333C64.8885 12.0137 64.4068 11.5314 64.4068 10.9686ZM60.5533 10.9686C60.5533 10.4059 61.035 10.0039 61.5167 10.0039C62.0786 10.0039 62.48 10.4863 62.48 10.9686C62.48 11.5314 61.9983 11.9333 61.5167 11.9333C60.9547 12.0137 60.5533 11.5314 60.5533 10.9686ZM56.6195 10.9686C56.6195 10.4059 57.0209 10.0039 57.5829 10.0039C58.1448 10.0039 58.5462 10.4863 58.5462 10.9686C58.5462 11.5314 58.0645 11.9333 57.5829 11.9333C57.1012 12.0137 56.6195 11.5314 56.6195 10.9686ZM52.7659 10.9686C52.7659 10.4059 53.2476 10.0039 53.7293 10.0039C54.2913 10.0039 54.6927 10.4863 54.6927 10.9686C54.6927 11.5314 54.211 11.9333 53.7293 11.9333C53.1674 12.0137 52.7659 11.5314 52.7659 10.9686ZM48.8321 10.9686C48.8321 10.4059 49.3138 10.0039 49.7955 10.0039C50.3575 10.0039 50.7589 10.4863 50.7589 10.9686C50.7589 11.5314 50.2772 11.9333 49.7955 11.9333C49.3138 12.0137 48.8321 11.5314 48.8321 10.9686ZM44.8983 10.9686C44.8983 10.4059 45.38 10.0039 45.8617 10.0039C46.4237 10.0039 46.8251 10.4863 46.8251 10.9686C46.8251 11.5314 46.3434 11.9333 45.8617 11.9333C45.38 12.0137 44.8983 11.5314 44.8983 10.9686ZM41.0448 10.9686C41.0448 10.4059 41.5265 10.0039 42.0082 10.0039C42.5702 10.0039 42.9716 10.4863 42.9716 10.9686C42.9716 11.5314 42.4899 11.9333 42.0082 11.9333C41.4462 12.0137 41.0448 11.5314 41.0448 10.9686ZM37.111 10.9686C37.111 10.4059 37.5927 10.0039 38.0744 10.0039C38.6364 10.0039 39.0378 10.4863 39.0378 10.9686C39.0378 11.5314 38.6364 11.9333 38.0744 11.9333C37.5927 12.0137 37.111 11.5314 37.111 10.9686ZM33.2575 10.9686C33.2575 10.4059 33.7392 10.0039 34.2209 10.0039C34.7829 10.0039 35.1843 10.4863 35.1843 10.9686C35.1843 11.5314 34.7829 11.9333 34.2209 11.9333C33.6589 12.0137 33.2575 11.5314 33.2575 10.9686ZM29.3237 10.9686C29.3237 10.4059 29.8054 10.0039 30.2871 10.0039C30.849 10.0039 31.2505 10.4863 31.2505 10.9686C31.2505 11.5314 30.849 11.9333 30.2871 11.9333C29.8054 12.0137 29.3237 11.5314 29.3237 10.9686ZM25.3899 10.9686C25.3899 10.4059 25.7913 10.0039 26.3533 10.0039C26.9152 10.0039 27.3167 10.4863 27.3167 10.9686C27.3167 11.5314 26.835 11.9333 26.3533 11.9333C25.8716 12.0137 25.3899 11.5314 25.3899 10.9686Z" fill="#59D5DF"/>
<path fill-rule="evenodd" clip-rule="evenodd" d="M92.7462 12.0137C92.5054 12.0137 92.1843 11.9333 92.0237 11.6921C91.8631 11.5313 91.7026 11.2098 91.7026 10.9686C91.7026 10.7274 91.7829 10.4059 92.0237 10.2451C92.4251 9.84311 93.0674 9.84311 93.4688 10.2451C93.6293 10.4059 93.7899 10.7274 93.7899 10.9686C93.7899 11.2098 93.7096 11.451 93.4688 11.6921C93.3082 11.9333 93.0674 12.0137 92.7462 12.0137Z" fill="#59D5DF"/>
<path d="M38.5561 42.0805C44.0984 42.0805 48.5913 37.5814 48.5913 32.0314C48.5913 26.4815 44.0984 21.9824 38.5561 21.9824C33.0138 21.9824 28.5209 26.4815 28.5209 32.0314C28.5209 37.5814 33.0138 42.0805 38.5561 42.0805Z" fill="#2FCAD7"/>
<path fill-rule="evenodd" clip-rule="evenodd" d="M45.2998 32.5138C44.8181 32.5138 44.4167 32.1119 44.4167 31.7099V31.3883C44.3364 30.906 44.7378 30.4236 45.2195 30.4236C45.7012 30.3432 46.1828 30.7452 46.1828 31.2275V31.6295C46.2631 32.1119 45.8617 32.5138 45.2998 32.5138Z" fill="white"/>
<path fill-rule="evenodd" clip-rule="evenodd" d="M44.2561 29.7001C43.8547 29.7001 43.373 29.4589 43.1321 29.0569C42.5702 28.253 41.8476 27.5295 40.8843 27.1275C40.242 26.8059 39.9209 26.002 40.242 25.3589C40.5631 24.7158 41.366 24.3942 42.0082 24.7158C43.373 25.3589 44.4969 26.3236 45.38 27.6099C45.7814 28.253 45.6209 29.0569 44.9786 29.4589C44.7378 29.7001 44.4969 29.7001 44.2561 29.7001Z" fill="white"/>
<path fill-rule="evenodd" clip-rule="evenodd" d="M33.4983 37.1766C33.2575 37.1766 33.0166 37.0962 32.7758 36.855C32.6152 36.6139 32.4547 36.4531 32.2941 36.2119C32.0533 35.8099 32.1335 35.2472 32.535 35.006C32.9364 34.7648 33.4983 34.8452 33.7392 35.2472C33.8195 35.408 33.98 35.5688 34.1406 35.7296C34.4617 36.1315 34.3814 36.6943 33.98 37.0158C33.8195 37.0962 33.6589 37.1766 33.4983 37.1766Z" fill="white"/>
<path fill-rule="evenodd" clip-rule="evenodd" d="M38.4758 40.0706C37.4321 40.0706 36.4687 39.8294 35.5054 39.4274C34.8631 39.1862 34.4617 38.5431 34.6223 37.8196C34.7828 36.9353 35.7462 36.5333 36.4687 36.8549C37.1913 37.1764 37.9138 37.3372 38.6363 37.3372C39.4392 37.3372 40.0814 38.0608 39.9209 38.9451C39.8406 39.6686 39.118 40.0706 38.4758 40.0706Z" fill="white"/>
<path d="M77.9744 42.0805C83.5167 42.0805 88.0096 37.5814 88.0096 32.0314C88.0096 26.4815 83.5167 21.9824 77.9744 21.9824C72.4321 21.9824 67.9392 26.4815 67.9392 32.0314C67.9392 37.5814 72.4321 42.0805 77.9744 42.0805Z" fill="#2FCAD7"/>
<path fill-rule="evenodd" clip-rule="evenodd" d="M84.7181 32.5138C84.2364 32.5138 83.835 32.1119 83.835 31.7099V31.3883C83.7547 30.906 84.1561 30.4236 84.6378 30.4236C85.1195 30.3432 85.6012 30.7452 85.6012 31.2275V31.6295C85.6012 32.1119 85.1998 32.5138 84.7181 32.5138Z" fill="white"/>
<path fill-rule="evenodd" clip-rule="evenodd" d="M83.5942 29.7001C83.1928 29.7001 82.7111 29.4589 82.4702 29.0569C81.9082 28.253 81.1857 27.5295 80.2223 27.1275C79.5801 26.8059 79.259 26.002 79.5801 25.3589C79.9012 24.7158 80.704 24.3942 81.3463 24.7158C82.7111 25.3589 83.835 26.3236 84.7181 27.6099C85.1195 28.253 84.959 29.0569 84.3167 29.4589C84.1561 29.7001 83.835 29.7001 83.5942 29.7001Z" fill="white"/>
<path fill-rule="evenodd" clip-rule="evenodd" d="M72.8364 37.1766C72.5956 37.1766 72.3547 37.0962 72.1139 36.855C71.9533 36.6139 71.7927 36.4531 71.6322 36.2119C71.3913 35.8099 71.4716 35.2472 71.873 35.006C72.2744 34.7648 72.8364 34.8452 73.0772 35.2472C73.1575 35.408 73.3181 35.5688 73.4787 35.7296C73.7998 36.1315 73.7195 36.6943 73.3181 37.0158C73.2378 37.0962 73.0772 37.1766 72.8364 37.1766Z" fill="white"/>
<path fill-rule="evenodd" clip-rule="evenodd" d="M77.8942 40.0706C76.8505 40.0706 75.8871 39.8294 74.9238 39.4274C74.2815 39.1862 73.8801 38.5431 74.0407 37.8196C74.2012 36.9353 75.1646 36.5333 75.8871 36.8549C76.6097 37.1764 77.3322 37.3372 78.0547 37.3372C78.8576 37.3372 79.4998 38.0608 79.3392 38.9451C79.1787 39.6686 78.5364 40.0706 77.8942 40.0706Z" fill="white"/>
<g opacity="0.25">
<path opacity="0.25" fill-rule="evenodd" clip-rule="evenodd" d="M33.5786 48.1097H28.6012C27.4772 48.1097 26.5941 47.2254 26.5941 46.0999C26.5941 44.9744 27.4772 44.0901 28.6012 44.0901H33.5786C34.7026 44.0901 35.5857 44.9744 35.5857 46.0999C35.5857 47.2254 34.7026 48.1097 33.5786 48.1097Z" fill="#59D5DF"/>
</g>
<g opacity="0.25">
<path opacity="0.25" fill-rule="evenodd" clip-rule="evenodd" d="M88.0096 48.1097H83.0321C81.9082 48.1097 81.0251 47.2254 81.0251 46.0999C81.0251 44.9744 81.9082 44.0901 83.0321 44.0901H88.0096C89.1335 44.0901 90.0166 44.9744 90.0166 46.0999C90.0166 47.2254 89.1335 48.1097 88.0096 48.1097Z" fill="#59D5DF"/>
</g>
<path fill-rule="evenodd" clip-rule="evenodd" d="M61.9983 44.2509C61.5969 44.894 60.8744 45.2156 60.1518 45.2156C59.4293 45.2156 58.7068 44.8136 58.3054 44.2509C58.1448 44.0097 57.904 43.9293 57.6631 43.9293C57.4223 43.9293 57.1814 44.0901 57.0209 44.2509C56.6194 44.894 55.8969 45.2156 55.1744 45.2156C54.4518 45.2156 53.7293 44.8136 53.3279 44.2509C53.0871 43.8489 52.6054 43.7685 52.204 44.0097C51.8025 44.2509 51.7223 44.7332 51.9631 45.1352C52.6856 46.1803 53.8899 46.8234 55.1744 46.8234C56.1378 46.8234 57.0209 46.5018 57.6631 45.8587C58.3856 46.4215 59.2687 46.8234 60.1518 46.8234C61.4364 46.8234 62.6406 46.1803 63.3631 45.1352C63.604 44.7332 63.5237 44.2509 63.1223 44.0097C62.7209 43.8489 62.2392 43.9293 61.9983 44.2509Z" fill="#26A2AC"/>
<path fill-rule="evenodd" clip-rule="evenodd" d="M36.549 19.892C34.7828 21.6607 32.4547 22.6254 30.0462 22.6254C29.5645 22.6254 29.2434 22.9469 29.2434 23.4293C29.2434 23.9116 29.5645 24.2332 30.0462 24.2332C32.9364 24.2332 35.6659 23.1077 37.673 21.0175C37.9941 20.6959 37.9941 20.2136 37.673 19.892C37.3519 19.5705 36.8702 19.6509 36.549 19.892Z" fill="#26A2AC"/>
<path fill-rule="evenodd" clip-rule="evenodd" d="M86.4842 22.6254C83.9955 22.6254 81.6673 21.6607 79.9814 19.8921C79.6603 19.5705 79.1786 19.5705 78.8575 19.8921C78.5364 20.2136 78.5364 20.696 78.8575 21.0175C80.8645 23.0273 83.5941 24.2332 86.4842 24.2332C86.9659 24.2332 87.2871 23.9117 87.2871 23.4293C87.2871 22.947 86.9659 22.6254 86.4842 22.6254Z" fill="#26A2AC"/>
</svg>
