<svg width="159" height="245" viewBox="0 0 159 245" fill="none" xmlns="http://www.w3.org/2000/svg">
<rect width="159" height="244" fill="black" fill-opacity="0.01"/>
<path fill-rule="evenodd" clip-rule="evenodd" d="M140.613 138.09C140.613 137.889 140.449 137.728 140.248 137.728C140.048 137.728 139.885 137.889 139.885 138.09C139.885 138.291 140.048 138.453 140.248 138.453C140.449 138.453 140.613 138.291 140.613 138.09Z" fill="white"/>
<path d="M13.6011 244.043C13.6011 244.043 4.33736 212.163 39.3929 207.028" stroke="#26A2AC" stroke-width="2.2048"/>
<path d="M144.9 244.043C144.9 244.043 154.164 212.163 119.108 207.028" stroke="#26A2AC" stroke-width="2.2048"/>
<rect x="33.8853" y="83.5057" width="91.2295" height="123.087" fill="black" fill-opacity="0.01"/>
<rect x="39.2282" y="83.5057" width="80.1572" height="123.087" fill="black" fill-opacity="0.01"/>
<path fill-rule="evenodd" clip-rule="evenodd" d="M116.839 206.593H41.7745C40.3689 206.593 39.2282 205.456 39.2282 204.056V86.0427C39.2282 84.6423 40.3689 83.5057 41.7745 83.5057H116.839C118.245 83.5057 119.385 84.6423 119.385 86.0427V204.056C119.385 205.456 118.245 206.593 116.839 206.593Z" stroke="#26A2AC" stroke-width="2.2048"/>
<rect x="47.1866" y="93.8077" width="64.0057" height="105.919" fill="black" fill-opacity="0.01"/>
<path opacity="0.25" fill-rule="evenodd" clip-rule="evenodd" d="M108.862 105.433C107.531 105.795 106.062 105.813 104.515 105.339C102.031 104.576 100.036 102.589 99.2705 100.115C98.7944 98.5746 98.8134 97.1095 99.1776 95.7827C99.4488 94.7844 98.6785 93.8077 97.6396 93.8077H60.3868C59.3491 93.8077 58.5802 94.7831 58.8526 95.7788C59.2218 97.1248 59.2372 98.6126 58.7393 100.178C57.9627 102.621 55.9855 104.576 53.5283 105.336C51.9775 105.813 50.5032 105.795 49.1676 105.433C48.1657 105.162 47.1866 105.925 47.1866 106.961V186.589C47.1866 187.615 48.1593 188.376 49.1562 188.105C50.5083 187.736 52.0055 187.718 53.5791 188.215C56.0325 188.989 57.9945 190.959 58.7559 193.407C59.2358 194.952 59.2167 196.422 58.8539 197.752C58.5815 198.75 59.3517 199.725 60.3906 199.725H97.6435C98.681 199.725 99.4501 198.752 99.1789 197.756C98.8096 196.41 98.7931 194.922 99.2896 193.357C100.068 190.914 102.046 188.959 104.502 188.2C106.053 187.721 107.527 187.74 108.862 188.101C109.865 188.373 110.845 187.609 110.845 186.574V106.961C110.845 105.925 109.865 105.162 108.862 105.433Z" fill="#2FCAD7"/>
<path opacity="0.25" fill-rule="evenodd" clip-rule="evenodd" d="M55.0204 97.7118C55.0204 99.8668 53.2672 101.615 51.1042 101.615C48.941 101.615 47.1866 99.8668 47.1866 97.7118C47.1866 95.5553 48.941 93.8086 51.1042 93.8086C53.2672 93.8086 55.0204 95.5553 55.0204 97.7118Z" fill="#2FCAD7"/>
<path opacity="0.25" fill-rule="evenodd" clip-rule="evenodd" d="M110.845 97.7114C110.845 99.8666 109.091 101.615 106.928 101.615C104.764 101.615 103.01 99.8666 103.01 97.7114C103.01 95.555 104.764 93.8083 106.928 93.8083C109.091 93.8083 110.845 95.555 110.845 97.7114Z" fill="#2FCAD7"/>
<path opacity="0.25" fill-rule="evenodd" clip-rule="evenodd" d="M55.0204 195.823C55.0204 197.979 53.2672 199.726 51.1042 199.726C48.941 199.726 47.1866 197.979 47.1866 195.823C47.1866 193.667 48.941 191.921 51.1042 191.921C53.2672 191.921 55.0204 193.667 55.0204 195.823Z" fill="#2FCAD7"/>
<path opacity="0.25" fill-rule="evenodd" clip-rule="evenodd" d="M111.192 195.823C111.192 197.979 109.438 199.726 107.275 199.726C105.112 199.726 103.357 197.979 103.357 195.823C103.357 193.667 105.112 191.921 107.275 191.921C109.438 191.921 111.192 193.667 111.192 195.823Z" fill="#2FCAD7"/>
<path fill-rule="evenodd" clip-rule="evenodd" d="M123.664 152.6C123.664 152.441 123.535 152.316 123.378 152.316C123.221 152.316 123.094 152.441 123.094 152.6C123.094 152.757 123.221 152.883 123.378 152.883C123.535 152.883 123.664 152.757 123.664 152.6Z" fill="white"/>
<path fill-rule="evenodd" clip-rule="evenodd" d="M121.397 136.913C121.37 136.858 121.307 136.835 121.252 136.862L120.797 137.079C120.744 137.106 120.721 137.17 120.746 137.224C120.765 137.263 120.805 137.285 120.844 137.285C120.861 137.285 120.877 137.282 120.893 137.275L121.346 137.057C121.401 137.032 121.424 136.966 121.397 136.913Z" fill="#26A2AC"/>
<path fill-rule="evenodd" clip-rule="evenodd" d="M124.451 137.079L124 136.862C123.945 136.836 123.88 136.858 123.852 136.913C123.826 136.966 123.849 137.031 123.903 137.058L124.357 137.275C124.373 137.282 124.388 137.286 124.404 137.286C124.445 137.286 124.483 137.263 124.502 137.224C124.529 137.171 124.506 137.106 124.451 137.079Z" fill="#26A2AC"/>
<path fill-rule="evenodd" clip-rule="evenodd" d="M121.769 138.391C121.769 138.301 121.695 138.227 121.606 138.227C121.515 138.227 121.442 138.301 121.442 138.391C121.442 138.482 121.515 138.555 121.606 138.555C121.695 138.555 121.769 138.482 121.769 138.391Z" fill="white"/>
<path fill-rule="evenodd" clip-rule="evenodd" d="M123.785 138.391C123.785 138.301 123.711 138.227 123.621 138.227C123.53 138.227 123.456 138.301 123.456 138.391C123.456 138.482 123.53 138.555 123.621 138.555C123.711 138.555 123.785 138.482 123.785 138.391Z" fill="white"/>
<path fill-rule="evenodd" clip-rule="evenodd" d="M34.7348 152.6C34.7348 152.441 34.8634 152.316 35.02 152.316C35.1778 152.316 35.3052 152.441 35.3052 152.6C35.3052 152.757 35.1778 152.883 35.02 152.883C34.8634 152.883 34.7348 152.757 34.7348 152.6Z" fill="white"/>
<path fill-rule="evenodd" clip-rule="evenodd" d="M37.0019 136.913C37.0286 136.858 37.0922 136.835 37.1471 136.862L37.6015 137.079C37.655 137.106 37.6779 137.17 37.6525 137.224C37.6333 137.263 37.5939 137.285 37.5545 137.285C37.5379 137.285 37.5214 137.282 37.506 137.275L37.0529 137.057C36.9981 137.032 36.9752 136.966 37.0019 136.913Z" fill="#26A2AC"/>
<path fill-rule="evenodd" clip-rule="evenodd" d="M33.9473 137.079L34.3993 136.862C34.4541 136.836 34.519 136.858 34.5457 136.913C34.5712 136.966 34.5495 137.031 34.4948 137.058L34.0415 137.275C34.0263 137.282 34.011 137.286 33.9945 137.286C33.9537 137.286 33.9155 137.263 33.8965 137.224C33.8697 137.171 33.8925 137.106 33.9473 137.079Z" fill="#26A2AC"/>
<path fill-rule="evenodd" clip-rule="evenodd" d="M36.6293 138.391C36.6293 138.301 36.7031 138.227 36.7922 138.227C36.8827 138.227 36.9564 138.301 36.9564 138.391C36.9564 138.482 36.8827 138.555 36.7922 138.555C36.7031 138.555 36.6293 138.482 36.6293 138.391Z" fill="white"/>
<path fill-rule="evenodd" clip-rule="evenodd" d="M36.6293 138.391C36.6293 138.482 36.7031 138.555 36.7922 138.555C36.8826 138.555 36.9564 138.482 36.9564 138.391C36.9564 138.301 36.8826 138.227 36.7922 138.227C36.7031 138.227 36.6293 138.301 36.6293 138.391ZM36.4103 138.392C36.4103 138.181 36.5822 138.012 36.7923 138.012C37.0036 138.012 37.1755 138.181 37.1755 138.392C37.1755 138.603 37.0036 138.773 36.7923 138.773C36.5822 138.773 36.4103 138.603 36.4103 138.392Z" fill="#26A2AC"/>
<path fill-rule="evenodd" clip-rule="evenodd" d="M34.6133 138.391C34.6133 138.301 34.6871 138.227 34.7775 138.227C34.8666 138.227 34.9417 138.301 34.9417 138.391C34.9417 138.482 34.8666 138.555 34.7775 138.555C34.6871 138.555 34.6133 138.482 34.6133 138.391Z" fill="white"/>
<path fill-rule="evenodd" clip-rule="evenodd" d="M34.6133 138.391C34.6133 138.482 34.6872 138.555 34.7775 138.555C34.8666 138.555 34.9417 138.482 34.9417 138.391C34.9417 138.301 34.8666 138.227 34.7775 138.227C34.6872 138.227 34.6133 138.301 34.6133 138.391ZM34.3963 138.392C34.3963 138.181 34.5669 138.012 34.7783 138.012C34.9882 138.012 35.1601 138.181 35.1601 138.392C35.1601 138.603 34.9882 138.773 34.7783 138.773C34.5669 138.773 34.3963 138.603 34.3963 138.392Z" fill="#26A2AC"/>
<path fill-rule="evenodd" clip-rule="evenodd" d="M9.63077 143.947C9.63077 143.831 9.72519 143.739 9.84078 143.739C9.95474 143.739 10.0492 143.831 10.0492 143.947C10.0492 144.062 9.95474 144.156 9.84078 144.156C9.72519 144.156 9.63077 144.062 9.63077 143.947Z" fill="white"/>
<path d="M39.0984 145.804C39.0984 145.804 9.06732 147.17 11.9207 115.958" stroke="#26A2AC" stroke-width="2.2048" stroke-linecap="round"/>
<path d="M119.902 145.804C119.902 145.804 149.933 147.17 147.079 115.958" stroke="#26A2AC" stroke-width="2.2048" stroke-linecap="round"/>
<rect x="13" width="212" height="3" transform="rotate(90 13 0)" fill="black" fill-opacity="0.01"/>
<path fill-rule="evenodd" clip-rule="evenodd" d="M10 5.99999V5C10 4.39999 10.6 4 11.5 4C12.4 4 13 4.39999 13 5V5.99999C13 6.59999 12.4 7 11.5 7C10.6 7 10 6.5 10 5.99999Z" fill="#2FCAD7"/>
<path fill-rule="evenodd" clip-rule="evenodd" d="M10 0.999997C10 0.699998 10.15 0.499998 10.45 0.299999C10.75 0.0999998 11.05 0 11.5 0C11.95 0 12.25 0.0999998 12.55 0.299999C13.15 0.699998 13.15 1.3 12.55 1.69999C12.25 1.89999 11.95 2 11.5 2C11.05 2 10.75 1.89999 10.45 1.69999C10.15 1.5 10 1.3 10 0.999997Z" fill="#2FCAD7"/>
<path fill-rule="evenodd" clip-rule="evenodd" d="M10 12.9999V8.99999C10 8.39999 10.6 8 11.5 8C12.4 8 13 8.39999 13 8.99999V12.9999C13 13.6 12.4 14 11.5 14C10.6 14 10 13.4999 10 12.9999Z" fill="#2FCAD7"/>
<path fill-rule="evenodd" clip-rule="evenodd" d="M10 25.0833V15.9167C10 15.3666 10.6 15 11.5 15C12.4 15 13 15.3666 13 15.9167V25.0833C13 25.6333 12.4 26 11.5 26C10.6 26 10 25.5417 10 25.0833Z" fill="#2FCAD7"/>
<path fill-rule="evenodd" clip-rule="evenodd" d="M10 211.06V27.94C10 27.376 10.6 27 11.5 27C12.4 27 13 27.376 13 27.94V211.06C13 211.624 12.4 212 11.5 212C10.6 212 10 211.624 10 211.06Z" fill="#2FCAD7"/>
<rect x="148" width="212" height="2" transform="rotate(90 148 0)" fill="black" fill-opacity="0.01"/>
<path fill-rule="evenodd" clip-rule="evenodd" d="M146 5.99999V5C146 4.39999 146.4 4 146.999 4C147.6 4 148 4.39999 148 5V5.99999C148 6.59999 147.6 7 146.999 7C146.4 7 146 6.5 146 5.99999Z" fill="#2FCAD7"/>
<path fill-rule="evenodd" clip-rule="evenodd" d="M146 0.999997C146 0.699998 146.1 0.499998 146.301 0.299999C146.5 0.0999998 146.7 0 147 0C147.3 0 147.5 0.0999998 147.7 0.299999C148.1 0.699998 148.1 1.3 147.7 1.69999C147.5 1.89999 147.3 2 147 2C146.7 2 146.5 1.89999 146.301 1.69999C146.1 1.5 146 1.3 146 0.999997Z" fill="#2FCAD7"/>
<path fill-rule="evenodd" clip-rule="evenodd" d="M146 12.9999V8.99999C146 8.39999 146.4 8 146.999 8C147.6 8 148 8.39999 148 8.99999V12.9999C148 13.6 147.6 14 146.999 14C146.4 14 146 13.4999 146 12.9999Z" fill="#2FCAD7"/>
<path fill-rule="evenodd" clip-rule="evenodd" d="M146 25.0833V15.9167C146 15.3666 146.4 15 146.999 15C147.6 15 148 15.3666 148 15.9167V25.0833C148 25.6333 147.6 26 146.999 26C146.4 26 146 25.5417 146 25.0833Z" fill="#2FCAD7"/>
<path fill-rule="evenodd" clip-rule="evenodd" d="M146 211.06V27.94C146 27.376 146.4 27 146.999 27C147.6 27 148 27.376 148 27.94V211.06C148 211.624 147.6 212 146.999 212C146.4 212 146 211.624 146 211.06Z" fill="#2FCAD7"/>
<rect x="1.10779" y="206.628" width="156.784" height="14.6683" stroke="#26A2AC" stroke-width="2.21"/>
<rect x="58.6475" y="140.621" width="41.7049" height="11.2932" fill="black" fill-opacity="0.01"/>
<rect x="58.6475" y="140.621" width="41.7049" height="11.2932" fill="black" fill-opacity="0.01"/>
<path d="M84.1919 149.967C81.5854 152.563 77.5452 152.563 74.9387 149.967" stroke="#26A2AC" stroke-width="2.6" stroke-linecap="round"/>
<path d="M100.352 140.621C100.352 143.477 98.0066 145.813 95.1394 145.813C92.2721 145.813 89.9262 143.477 89.9262 140.621" stroke="#26A2AC" stroke-width="2.6" stroke-linecap="round"/>
<path d="M69.0738 140.621C69.0738 143.477 66.7279 145.813 63.8607 145.813C60.9934 145.813 58.6475 143.477 58.6475 140.621" stroke="#26A2AC" stroke-width="2.6" stroke-linecap="round"/>
</svg>
