<svg width="240" height="248" viewBox="0 0 240 248" fill="none" xmlns="http://www.w3.org/2000/svg">
<path opacity="0.1" fill-rule="evenodd" clip-rule="evenodd" d="M7.36925 111.348L77.8025 15.3738C82.0742 9.60538 90.0216 7.41737 96.7768 10.2021L229.299 63.7088C237.345 66.9908 241.617 75.345 239.431 83.3014L200.589 222.837C196.417 235.467 181.317 241.634 168.8 235.766L19.6876 160.279C1.01139 150.831 -4.75043 127.857 7.36925 111.348Z" fill="#4376FF"/>
<path d="M167.304 94.4585L169.501 88.3554L174.262 74.8065C175.238 72.2432 173.773 69.4358 171.21 68.4593L163.52 65.7739L139.474 57.2295L136.544 56.131L113.597 47.9528L99.1932 42.8262C96.6299 41.9717 93.8224 43.3144 92.8459 45.8777L92.7239 46.1219L73.9263 99.341L93.9445 99.7072L124.338 100.195L151.192 100.684L164.985 100.928L166.572 96.4115L167.304 94.4585Z" fill="#210049"/>
<path d="M163.642 65.7729L151.192 100.561L124.338 100.194L139.596 57.2285L163.642 65.7729Z" fill="#4D336D"/>
<path d="M106.639 51.6136L105.174 51.8578V52.4681L106.273 52.346L104.564 57.2285L105.296 57.4726L107.249 51.8578L106.639 51.6136Z" fill="white" stroke="white" stroke-width="0.305156" stroke-miterlimit="10"/>
<path d="M111.033 53.0781C110.789 52.9561 110.667 52.9561 110.423 52.9561C109.934 52.834 109.568 52.9561 109.202 53.0781V53.6885C109.568 53.5664 109.934 53.4443 110.301 53.5664C110.423 53.5664 110.545 53.5664 110.667 53.5664C111.521 53.8105 111.643 54.5429 111.399 55.0311C111.155 55.7635 110.423 56.2518 109.08 56.8621C108.836 56.9841 108.592 57.1062 108.348 57.2283L107.493 57.5944L107.371 58.0827L108.47 58.4489L110.911 59.3033L111.155 58.693L108.714 57.8386H108.592H108.714L109.202 57.5944C110.789 56.8621 111.765 56.2518 112.132 55.2753C112.498 54.4208 112.254 53.4443 111.033 53.0781Z" fill="white" stroke="white" stroke-width="0.305156" stroke-miterlimit="10"/>
<path d="M115.428 54.5439C114.817 54.2998 114.207 54.2998 113.841 54.4219V55.0322C114.085 54.9101 114.695 54.9101 115.061 55.0322C115.794 55.2763 115.916 55.7645 115.794 56.2528C115.55 56.8631 114.817 56.9852 114.207 56.741L113.841 56.619L113.597 57.2293L113.963 57.3513C114.695 57.5955 115.305 58.2058 115.061 58.9382C114.939 59.4264 114.329 59.9147 113.352 59.5485C112.864 59.3043 112.376 58.9382 112.254 58.8161L111.888 59.3043C112.132 59.5485 112.62 59.9147 113.23 60.1588C114.573 60.647 115.55 60.0367 115.916 59.1823C116.16 58.4499 115.794 57.7175 115.183 57.3513C115.916 57.3513 116.526 56.9852 116.648 56.3748C116.77 55.7645 116.526 54.9101 115.428 54.5439Z" fill="white" stroke="white" stroke-width="0.305156" stroke-miterlimit="10"/>
<path d="M121.164 56.7405L120.31 56.4964L116.648 59.0597L116.526 59.67L119.089 60.5245L118.601 61.9892L119.333 62.2333L119.822 60.7686L120.554 61.0127L120.798 60.4024L120.066 60.1583L121.164 56.7405ZM119.333 59.9141L117.502 59.3038L119.577 57.8391C119.822 57.595 120.066 57.4729 120.31 57.2288C120.188 57.4729 120.066 57.8391 119.944 58.0832L119.333 59.9141Z" fill="white" stroke="white" stroke-width="0.305156" stroke-miterlimit="10"/>
<path d="M125.68 58.9377L125.924 58.3274L123.239 57.3509L121.896 59.9142C122.141 59.9142 122.385 60.0363 122.629 60.1583C123.727 60.5245 124.094 61.2569 123.849 61.9893C123.605 62.7216 122.873 62.9658 122.141 62.7216C121.652 62.4775 121.286 62.2334 121.042 61.9893L120.676 62.4775C120.92 62.7216 121.286 63.0878 122.018 63.3319C123.239 63.6981 124.338 63.2099 124.704 62.1113C124.948 61.3789 124.704 60.7686 124.46 60.4024C124.216 60.0363 123.727 59.7921 123.361 59.6701C123.117 59.548 122.995 59.548 122.873 59.548L123.605 58.2053L125.68 58.9377Z" fill="white" stroke="white" stroke-width="0.305156" stroke-miterlimit="10"/>
<path d="M129.465 60.1586C129.709 60.1586 129.953 60.2807 130.075 60.2807L130.319 59.6703C130.197 59.6703 129.953 59.5483 129.709 59.5483C128.976 59.4262 128.244 59.4262 127.634 59.7924C126.901 60.1586 126.169 60.891 125.803 61.9895C125.315 63.4543 125.803 64.6749 127.023 65.0411C128.122 65.4073 129.221 64.797 129.587 63.6984C129.953 62.5998 129.465 61.6233 128.488 61.2572C127.878 61.013 127.268 61.1351 126.901 61.5013C127.268 60.6468 128.244 59.9145 129.465 60.1586ZM128 61.8675C128.732 62.1116 128.976 62.7219 128.732 63.5763C128.488 64.4308 127.756 64.797 127.146 64.5528C126.413 64.3087 126.169 63.4543 126.413 62.4778C126.413 62.3557 126.535 62.2337 126.657 62.2337C127.023 61.7454 127.512 61.6233 128 61.8675Z" fill="white" stroke="white" stroke-width="0.305156" stroke-miterlimit="10"/>
<path d="M183.996 140.308L184.165 111.304C184.221 105.385 179.437 100.7 173.636 100.643L170.914 100.672L157.536 100.575L131.492 100.376L102.015 100.212L82.6008 100.179L61.6471 100.044C58.4513 100.078 55.5059 101.411 53.5174 103.681C51.879 105.474 50.9582 107.969 50.8672 110.574L50.8859 112.35L50.4533 195.098C50.3972 201.018 55.1814 205.703 60.9824 205.76L172.973 206.477C178.892 206.533 183.577 201.749 183.634 195.948L183.841 170.614" fill="#ACEAEF"/>
<path d="M183.996 140.308L184.165 111.304C184.221 105.385 179.437 100.7 173.636 100.643L170.914 100.672L157.536 100.575L131.492 100.376L102.015 100.212L82.6008 100.179L61.6471 100.044C58.4513 100.078 55.5059 101.411 53.5174 103.681C51.879 105.474 50.9582 107.969 50.8672 110.574L50.8859 112.35L50.4533 195.098C50.3972 201.018 55.1814 205.703 60.9824 205.76L172.973 206.477C178.892 206.533 183.577 201.749 183.634 195.948L183.841 170.614" stroke="#2FCAD7" stroke-width="1.50783" stroke-miterlimit="10"/>
<path d="M184.046 170.593L162.973 170.459C155.279 170.422 149.057 164.095 149.094 156.4L149.175 152.848C149.219 145.745 154.96 140.121 162.063 140.165L184.082 140.289C186.449 140.264 188.364 142.256 188.27 144.506L188.145 166.407C188.17 168.774 186.294 170.569 184.046 170.593Z" fill="#59D5DF"/>
<path d="M163.493 163.586C168.265 163.536 172.093 159.626 172.043 154.855C171.993 150.083 168.084 146.255 163.312 146.305C158.54 146.355 154.712 150.264 154.762 155.036C154.812 159.808 158.721 163.636 163.493 163.586Z" fill="#ACEAEF"/>
<path d="M51.9004 118.73L181.291 119.383" stroke="#59D5DF" stroke-width="1.50783" stroke-miterlimit="10" stroke-linecap="round" stroke-linejoin="round" stroke-dasharray="10.55 10.55"/>
<path d="M53.1577 193.412L182.667 194.063" stroke="#59D5DF" stroke-width="1.50783" stroke-miterlimit="10" stroke-linecap="round" stroke-linejoin="round" stroke-dasharray="10.55 10.55"/>
<path d="M47.5492 51.3078C49.827 51.3078 51.6736 49.4612 51.6736 47.1834C51.6736 44.9056 49.827 43.059 47.5492 43.059C45.2714 43.059 43.4248 44.9056 43.4248 47.1834C43.4248 49.4612 45.2714 51.3078 47.5492 51.3078Z" stroke="#4376FF" stroke-width="2.06219" stroke-miterlimit="10" stroke-linecap="round" stroke-linejoin="round"/>
<path d="M175.864 47.8704C178.141 47.8704 179.988 46.0239 179.988 43.746C179.988 41.4682 178.141 39.6216 175.864 39.6216C173.586 39.6216 171.739 41.4682 171.739 43.746C171.739 46.0239 173.586 47.8704 175.864 47.8704Z" stroke="#4376FF" stroke-width="2.06219" stroke-miterlimit="10" stroke-linecap="round" stroke-linejoin="round"/>
<path d="M57.1729 77.7723L58.8913 76.512" stroke="#4376FF" stroke-width="1.92907" stroke-miterlimit="10" stroke-linecap="round" stroke-linejoin="round"/>
<path d="M62.3286 73.7624L64.1617 72.5022" stroke="#4376FF" stroke-width="1.92907" stroke-miterlimit="10" stroke-linecap="round" stroke-linejoin="round"/>
<path d="M63.3597 78.5748L61.9849 76.8563" stroke="#4376FF" stroke-width="1.92907" stroke-miterlimit="10" stroke-linecap="round" stroke-linejoin="round"/>
<path d="M59.3499 73.4191L57.9751 71.7006" stroke="#4376FF" stroke-width="1.92907" stroke-miterlimit="10" stroke-linecap="round" stroke-linejoin="round"/>
<path d="M116.747 25.0726L118.466 23.8124" stroke="#4376FF" stroke-width="1.92907" stroke-miterlimit="10" stroke-linecap="round" stroke-linejoin="round"/>
<path d="M121.903 21.0628L123.736 19.8026" stroke="#4376FF" stroke-width="1.92907" stroke-miterlimit="10" stroke-linecap="round" stroke-linejoin="round"/>
<path d="M122.934 25.8741L121.56 24.1556" stroke="#4376FF" stroke-width="1.92907" stroke-miterlimit="10" stroke-linecap="round" stroke-linejoin="round"/>
<path d="M118.925 20.7185L117.55 19" stroke="#4376FF" stroke-width="1.92907" stroke-miterlimit="10" stroke-linecap="round" stroke-linejoin="round"/>
<path d="M188.924 90.374L190.643 89.1138" stroke="#4376FF" stroke-width="1.92907" stroke-miterlimit="10" stroke-linecap="round" stroke-linejoin="round"/>
<path d="M194.08 86.3642L195.913 85.1039" stroke="#4376FF" stroke-width="1.92907" stroke-miterlimit="10" stroke-linecap="round" stroke-linejoin="round"/>
<path d="M195.111 91.1755L193.736 89.457" stroke="#4376FF" stroke-width="1.92907" stroke-miterlimit="10" stroke-linecap="round" stroke-linejoin="round"/>
<path d="M191.101 86.0199L189.727 84.3014" stroke="#4376FF" stroke-width="1.92907" stroke-miterlimit="10" stroke-linecap="round" stroke-linejoin="round"/>
<path d="M84.783 39.8508C86.7445 39.8508 88.3345 38.2608 88.3345 36.2993C88.3345 34.3378 86.7445 32.7477 84.783 32.7477C82.8215 32.7477 81.2314 34.3378 81.2314 36.2993C81.2314 38.2608 82.8215 39.8508 84.783 39.8508Z" fill="#4376FF"/>
<path d="M138.629 43.2883C140.591 43.2883 142.181 41.6982 142.181 39.7367C142.181 37.7753 140.591 36.1852 138.629 36.1852C136.668 36.1852 135.078 37.7753 135.078 39.7367C135.078 41.6982 136.668 43.2883 138.629 43.2883Z" fill="#4376FF"/>
<path d="M206.224 62.7641C208.185 62.7641 209.775 61.174 209.775 59.2126C209.775 57.2511 208.185 55.661 206.224 55.661C204.262 55.661 202.672 57.2511 202.672 59.2126C202.672 61.174 204.262 62.7641 206.224 62.7641Z" fill="#4376FF"/>
</svg>
