<svg width="24" height="24" viewBox="0 0 24 24" fill="none" xmlns="http://www.w3.org/2000/svg">
<path d="M9.1875 10.3125H12.1875V18.375" stroke="#210049" stroke-width="1.5" stroke-linecap="round" stroke-linejoin="round"/>
<path d="M8.76562 18.5625H15.2344" stroke="#210049" stroke-width="1.5" stroke-miterlimit="10" stroke-linecap="round"/>
<path d="M11.5 6.5C11.3022 6.5 11.1089 6.44135 10.9444 6.33147C10.78 6.22159 10.6518 6.06541 10.5761 5.88268C10.5004 5.69996 10.4806 5.49889 10.5192 5.30491C10.5578 5.11093 10.653 4.93275 10.7929 4.79289C10.9327 4.65304 11.1109 4.5578 11.3049 4.51922C11.4989 4.48063 11.7 4.50043 11.8827 4.57612C12.0654 4.65181 12.2216 4.77998 12.3315 4.94443C12.4414 5.10888 12.5 5.30222 12.5 5.5C12.5 5.76522 12.3946 6.01957 12.2071 6.20711C12.0196 6.39464 11.7652 6.5 11.5 6.5Z" fill="#210049"/>
</svg>
