<svg width="88" height="88" viewBox="0 0 88 88" fill="none" xmlns="http://www.w3.org/2000/svg">
<path d="M22.0073 81.0919L2.52126 31.8315C1.00778 27.9549 2.89963 23.5111 6.77791 21.9983L56.1551 2.52102C60.0334 1.00823 64.4792 2.89922 65.9927 6.77576L85.4787 56.2253C86.9922 60.1019 85.1004 64.5457 81.2221 66.0585L31.8449 85.4412C27.872 87.0485 23.5208 85.063 22.0073 81.0919Z" fill="#D9E4FF"/>
<path d="M81.5049 46.0137C73.8429 47.621 65.3296 45.3518 57.8568 48.2829C53.6001 49.9848 50.1948 53.294 46.6003 56.036C42.1545 59.3452 37.2357 60.6689 31.7493 60.858C25.8846 61.0471 19.8307 60.5743 14.0605 61.0471L15.8578 65.68C22.9522 65.2073 30.1412 66.3419 37.1411 65.3964C41.114 64.8291 44.8031 63.4108 48.0192 61.0471C52.1813 58.116 55.7758 54.3341 60.5054 52.6322C67.789 50.1739 75.9239 52.3485 83.3967 50.7412L81.5049 46.0137Z" fill="#B4C8FF"/>
<path d="M36.102 53.6722C44.3315 51.4976 49.3449 43.2718 57.0069 40.2462C63.6283 37.5988 71.2903 39.3007 77.7226 36.4642L76.0199 31.9258C69.0201 35.235 60.0338 32.8713 53.034 36.6533C48.9665 38.8279 45.6558 42.2317 42.0613 45.0682C37.71 48.3774 32.9804 49.7011 27.5887 49.6066C21.4402 49.512 15.0079 47.9047 8.85938 47.3374L10.7512 52.254C19.1699 53.1995 27.8724 55.8469 36.102 53.6722Z" fill="#B4C8FF"/>
<path d="M6.77772 42.2313C12.8316 42.2313 19.0747 42.8932 24.9395 42.0423C28.9123 41.475 32.6014 40.0567 35.8176 37.693C39.9796 34.7619 43.5741 30.9799 48.3038 29.278C56.5333 26.5361 65.8979 29.6562 73.9383 26.4415L72.141 21.8086C63.7223 24.9287 53.9793 21.5249 45.6552 24.9287C41.3985 26.6306 37.9932 29.9399 34.3987 32.6818C29.9528 35.9911 25.034 37.3148 19.5477 37.5039C14.6289 37.693 9.80468 37.3148 4.98047 37.5039L6.77772 42.2313Z" fill="#B4C8FF"/>
<circle cx="44" cy="44" r="27" stroke="#210049" stroke-width="2"/>
<path d="M72.5235 58.5056C69.4602 64.5291 64.5686 69.4283 58.5498 72.5009" stroke="#210049" stroke-width="2" stroke-linecap="round"/>
<path d="M29.6969 72.6255C23.6518 69.605 18.718 64.7482 15.6029 58.7514" stroke="#210049" stroke-width="2" stroke-linecap="round"/>
<path d="M15.5558 29.3396C18.6518 23.3328 23.5699 18.4602 29.6054 15.4204" stroke="#210049" stroke-width="2" stroke-linecap="round"/>
<path d="M58.59 15.5196C64.6045 18.6008 69.4892 23.5069 72.5439 29.5348" stroke="#210049" stroke-width="2" stroke-linecap="round"/>
<circle cx="44" cy="44" r="13" stroke="#210049" stroke-width="2"/>
<mask id="path-11-inside-1" fill="white">
<path d="M68.2487 58C65.8906 62.0844 62.5389 65.507 58.5047 67.9502L50.6722 55.0171C52.5279 53.8932 54.0697 52.3188 55.1544 50.44L68.2487 58Z"/>
</mask>
<path d="M68.2487 58C65.8906 62.0844 62.5389 65.507 58.5047 67.9502L50.6722 55.0171C52.5279 53.8932 54.0697 52.3188 55.1544 50.44L68.2487 58Z" stroke="#210049" stroke-width="2" mask="url(#path-11-inside-1)"/>
<mask id="path-12-inside-2" fill="white">
<path d="M58 19.7513C62.0844 22.1094 65.507 25.4611 67.9502 29.4952L55.0171 37.3278C53.8932 35.4721 52.3188 33.9303 50.44 32.8456L58 19.7513Z"/>
</mask>
<path d="M58 19.7513C62.0844 22.1094 65.507 25.4611 67.9502 29.4952L55.0171 37.3278C53.8932 35.4721 52.3188 33.9303 50.44 32.8456L58 19.7513Z" stroke="#210049" stroke-width="2" mask="url(#path-12-inside-2)"/>
<mask id="path-13-inside-3" fill="white">
<path d="M19.7513 58C22.1094 62.0844 25.4611 65.507 29.4953 67.9502L37.3278 55.0171C35.4721 53.8932 33.9303 52.3188 32.8456 50.44L19.7513 58Z"/>
</mask>
<path d="M19.7513 58C22.1094 62.0844 25.4611 65.507 29.4953 67.9502L37.3278 55.0171C35.4721 53.8932 33.9303 52.3188 32.8456 50.44L19.7513 58Z" stroke="#210049" stroke-width="2" mask="url(#path-13-inside-3)"/>
<mask id="path-14-inside-4" fill="white">
<path d="M30 19.7513C25.9156 22.1094 22.493 25.4611 20.0498 29.4952L32.9829 37.3278C34.1068 35.4721 35.6812 33.9303 37.56 32.8456L30 19.7513Z"/>
</mask>
<path d="M30 19.7513C25.9156 22.1094 22.493 25.4611 20.0498 29.4952L32.9829 37.3278C34.1068 35.4721 35.6812 33.9303 37.56 32.8456L30 19.7513Z" stroke="#210049" stroke-width="2" mask="url(#path-14-inside-4)"/>
</svg>
