<svg width="88" height="88" viewBox="0 0 88 88" fill="none" xmlns="http://www.w3.org/2000/svg">
<path d="M22.0073 81.0919L2.52126 31.8315C1.00778 27.9549 2.89963 23.5111 6.77791 21.9983L56.1551 2.52102C60.0334 1.00823 64.4792 2.89922 65.9927 6.77576L85.4787 56.2253C86.9922 60.1019 85.1004 64.5457 81.2221 66.0585L31.8449 85.4412C27.872 87.0485 23.5208 85.063 22.0073 81.0919Z" fill="#E4D2FF"/>
<path d="M81.5059 46.0137C73.8439 47.621 65.3306 45.3518 57.8578 48.2829C53.6011 49.9848 50.1958 53.294 46.6013 56.036C42.1554 59.3452 37.2366 60.6689 31.7503 60.858C25.8856 61.0471 19.8317 60.5743 14.0615 61.0471L15.8588 65.68C22.9532 65.2073 30.1422 66.3419 37.1421 65.3964C41.1149 64.8291 44.804 63.4108 48.0202 61.0471C52.1822 58.116 55.7767 54.3341 60.5064 52.6322C67.79 50.1739 75.9249 52.3485 83.3977 50.7412L81.5059 46.0137Z" fill="#C7B1EB"/>
<path d="M36.102 53.6722C44.3315 51.4976 49.3449 43.2718 57.0069 40.2462C63.6283 37.5988 71.2903 39.3007 77.7226 36.4642L76.0199 31.9258C69.0201 35.235 60.0338 32.8713 53.034 36.6533C48.9665 38.8279 45.6558 42.2317 42.0613 45.0682C37.71 48.3774 32.9804 49.7011 27.5887 49.6066C21.4402 49.512 15.0079 47.9047 8.85938 47.3374L10.7512 52.254C19.1699 53.1995 27.8724 55.8469 36.102 53.6722Z" fill="#C7B1EB"/>
<path d="M6.7787 42.2318C12.8326 42.2318 19.0757 42.8937 24.9404 42.0427C28.9133 41.4754 32.6024 40.0572 35.8185 37.6934C39.9806 34.7624 43.5751 30.9804 48.3047 29.2785C56.5343 26.5366 65.8989 29.6567 73.9393 26.442L72.142 21.8091C63.7233 24.9292 53.9803 21.5254 45.6562 24.9292C41.3995 26.6311 37.9942 29.9404 34.3997 32.6823C29.9538 35.9916 25.035 37.3152 19.5487 37.5043C14.6299 37.6934 9.80565 37.3152 4.98145 37.5043L6.7787 42.2318Z" fill="#C7B1EB"/>
<circle cx="44" cy="44" r="27" stroke="#210049" stroke-width="2"/>
<path d="M72.5235 58.5056C69.4602 64.5291 64.5686 69.4283 58.5498 72.5009" stroke="#210049" stroke-width="2" stroke-linecap="round"/>
<path d="M29.6969 72.6255C23.6518 69.605 18.718 64.7482 15.6029 58.7514" stroke="#210049" stroke-width="2" stroke-linecap="round"/>
<path d="M15.5558 29.3396C18.6518 23.3328 23.5699 18.4602 29.6054 15.4204" stroke="#210049" stroke-width="2" stroke-linecap="round"/>
<path d="M58.59 15.5196C64.6045 18.6008 69.4892 23.5069 72.5439 29.5348" stroke="#210049" stroke-width="2" stroke-linecap="round"/>
<circle cx="44" cy="44" r="13" stroke="#210049" stroke-width="2"/>
<mask id="path-11-inside-1_3793:40427" fill="white">
<path d="M68.2487 58C65.8906 62.0844 62.5389 65.507 58.5048 67.9502L50.6722 55.0171C52.5279 53.8932 54.0697 52.3188 55.1544 50.44L68.2487 58Z"/>
</mask>
<path d="M68.2487 58C65.8906 62.0844 62.5389 65.507 58.5048 67.9502L50.6722 55.0171C52.5279 53.8932 54.0697 52.3188 55.1544 50.44L68.2487 58Z" stroke="#210049" stroke-width="2" mask="url(#path-11-inside-1_3793:40427)"/>
<mask id="path-12-inside-2_3793:40427" fill="white">
<path d="M58 19.7513C62.0844 22.1094 65.507 25.4611 67.9502 29.4952L55.0171 37.3278C53.8932 35.4721 52.3188 33.9303 50.44 32.8456L58 19.7513Z"/>
</mask>
<path d="M58 19.7513C62.0844 22.1094 65.507 25.4611 67.9502 29.4952L55.0171 37.3278C53.8932 35.4721 52.3188 33.9303 50.44 32.8456L58 19.7513Z" stroke="#210049" stroke-width="2" mask="url(#path-12-inside-2_3793:40427)"/>
<mask id="path-13-inside-3_3793:40427" fill="white">
<path d="M19.7513 58C22.1094 62.0844 25.4611 65.507 29.4952 67.9502L37.3278 55.0171C35.4721 53.8932 33.9303 52.3188 32.8456 50.44L19.7513 58Z"/>
</mask>
<path d="M19.7513 58C22.1094 62.0844 25.4611 65.507 29.4952 67.9502L37.3278 55.0171C35.4721 53.8932 33.9303 52.3188 32.8456 50.44L19.7513 58Z" stroke="#210049" stroke-width="2" mask="url(#path-13-inside-3_3793:40427)"/>
<mask id="path-14-inside-4_3793:40427" fill="white">
<path d="M30 19.7513C25.9156 22.1094 22.493 25.4611 20.0498 29.4952L32.9829 37.3278C34.1068 35.4721 35.6812 33.9303 37.56 32.8456L30 19.7513Z"/>
</mask>
<path d="M30 19.7513C25.9156 22.1094 22.493 25.4611 20.0498 29.4952L32.9829 37.3278C34.1068 35.4721 35.6812 33.9303 37.56 32.8456L30 19.7513Z" stroke="#210049" stroke-width="2" mask="url(#path-14-inside-4_3793:40427)"/>
</svg>
