<svg width="88" height="88" viewBox="0 0 88 88" fill="none" xmlns="http://www.w3.org/2000/svg">
<path d="M22.0073 81.0919L2.52126 31.8315C1.00778 27.9549 2.89963 23.5111 6.77791 21.9983L56.1551 2.52102C60.0334 1.00823 64.4792 2.89922 65.9927 6.77576L85.4787 56.2253C86.9922 60.1019 85.1004 64.5457 81.2221 66.0585L31.8449 85.4412C27.872 87.0485 23.5208 85.063 22.0073 81.0919Z" fill="#FFF69F"/>
<path d="M81.5057 46.0139C73.8438 47.6213 65.3304 45.3521 57.8577 48.2831C53.601 49.985 50.1957 53.2943 46.6012 56.0362C42.1553 59.3454 37.2365 60.6691 31.7502 60.8582C25.8854 61.0473 19.8315 60.5746 14.0614 61.0473L15.8587 65.6803C22.9531 65.2075 30.1421 66.3421 37.1419 65.3966C41.1148 64.8293 44.8039 63.4111 48.0201 61.0473C52.1821 58.1163 55.7766 54.3343 60.5062 52.6324C67.7899 50.1741 75.9248 52.3488 83.3976 50.7414L81.5057 46.0139Z" fill="#FFEF57"/>
<path d="M36.1015 53.6722C44.331 51.4976 49.3444 43.2718 57.0064 40.2462C63.6279 37.5988 71.2898 39.3007 77.7221 36.4642L76.0194 31.9258C69.0196 35.235 60.0333 32.8713 53.0335 36.6533C48.966 38.8279 45.6553 42.2317 42.0608 45.0682C37.7096 48.3774 32.9799 49.7011 27.5882 49.6066C21.4397 49.512 15.0074 47.9047 8.85889 47.3374L10.7507 52.254C19.1695 53.1995 27.8719 55.8469 36.1015 53.6722Z" fill="#FFEF57"/>
<path d="M6.77833 42.2318C12.8322 42.2318 19.0753 42.8937 24.9401 42.0427C28.9129 41.4754 32.602 40.0572 35.8182 37.6934C39.9802 34.7624 43.5748 30.9804 48.3044 29.2785C56.5339 26.5366 65.8985 29.6567 73.9389 26.442L72.1416 21.8091C63.7229 24.9292 53.9799 21.5254 45.6558 24.9292C41.3991 26.6311 37.9938 29.9404 34.3993 32.6823C29.9535 35.9916 25.0347 37.3152 19.5483 37.5043C14.6295 37.6934 9.80529 37.3152 4.98108 37.5043L6.77833 42.2318Z" fill="#FFEF57"/>
<circle cx="44" cy="44" r="27" stroke="#210049" stroke-width="2"/>
<path d="M72.5235 58.5056C69.4602 64.5291 64.5686 69.4283 58.5498 72.5009" stroke="#210049" stroke-width="2" stroke-linecap="round"/>
<path d="M29.6969 72.6255C23.6518 69.605 18.718 64.7482 15.6029 58.7514" stroke="#210049" stroke-width="2" stroke-linecap="round"/>
<path d="M15.5558 29.3396C18.6518 23.3328 23.5699 18.4602 29.6054 15.4204" stroke="#210049" stroke-width="2" stroke-linecap="round"/>
<path d="M58.59 15.5196C64.6045 18.6008 69.4892 23.5069 72.5439 29.5348" stroke="#210049" stroke-width="2" stroke-linecap="round"/>
<circle cx="44" cy="44" r="13" stroke="#210049" stroke-width="2"/>
<mask id="path-11-inside-1" fill="white">
<path d="M68.2487 58C65.8906 62.0844 62.5389 65.507 58.5047 67.9502L50.6722 55.0171C52.5279 53.8932 54.0697 52.3188 55.1544 50.44L68.2487 58Z"/>
</mask>
<path d="M68.2487 58C65.8906 62.0844 62.5389 65.507 58.5047 67.9502L50.6722 55.0171C52.5279 53.8932 54.0697 52.3188 55.1544 50.44L68.2487 58Z" stroke="#210049" stroke-width="2" mask="url(#path-11-inside-1)"/>
<mask id="path-12-inside-2" fill="white">
<path d="M58 19.7513C62.0844 22.1094 65.507 25.4611 67.9502 29.4952L55.0171 37.3278C53.8932 35.4721 52.3188 33.9303 50.44 32.8456L58 19.7513Z"/>
</mask>
<path d="M58 19.7513C62.0844 22.1094 65.507 25.4611 67.9502 29.4952L55.0171 37.3278C53.8932 35.4721 52.3188 33.9303 50.44 32.8456L58 19.7513Z" stroke="#210049" stroke-width="2" mask="url(#path-12-inside-2)"/>
<mask id="path-13-inside-3" fill="white">
<path d="M19.7513 58C22.1094 62.0844 25.4611 65.507 29.4953 67.9502L37.3278 55.0171C35.4721 53.8932 33.9303 52.3188 32.8456 50.44L19.7513 58Z"/>
</mask>
<path d="M19.7513 58C22.1094 62.0844 25.4611 65.507 29.4953 67.9502L37.3278 55.0171C35.4721 53.8932 33.9303 52.3188 32.8456 50.44L19.7513 58Z" stroke="#210049" stroke-width="2" mask="url(#path-13-inside-3)"/>
<mask id="path-14-inside-4" fill="white">
<path d="M30 19.7513C25.9156 22.1094 22.493 25.4611 20.0498 29.4952L32.9829 37.3278C34.1068 35.4721 35.6812 33.9303 37.56 32.8456L30 19.7513Z"/>
</mask>
<path d="M30 19.7513C25.9156 22.1094 22.493 25.4611 20.0498 29.4952L32.9829 37.3278C34.1068 35.4721 35.6812 33.9303 37.56 32.8456L30 19.7513Z" stroke="#210049" stroke-width="2" mask="url(#path-14-inside-4)"/>
</svg>