<svg width="88" height="88" viewBox="0 0 88 88" fill="none" xmlns="http://www.w3.org/2000/svg">
<path d="M22.0073 81.0919L2.52126 31.8315C1.00778 27.9549 2.89963 23.5111 6.77791 21.9983L56.1551 2.52102C60.0334 1.00823 64.4792 2.89922 65.9927 6.77576L85.4787 56.2253C86.9922 60.1019 85.1004 64.5457 81.2221 66.0585L31.8449 85.4412C27.872 87.0485 23.5208 85.063 22.0073 81.0919Z" fill="#FFDADB"/>
<path d="M81.5059 46.0139C73.8439 47.6213 65.3306 45.3521 57.8578 48.2831C53.6011 49.985 50.1958 53.2943 46.6013 56.0362C42.1554 59.3454 37.2366 60.6691 31.7503 60.8582C25.8856 61.0473 19.8317 60.5746 14.0615 61.0473L15.8588 65.6803C22.9532 65.2075 30.1422 66.3421 37.1421 65.3966C41.1149 64.8293 44.804 63.4111 48.0202 61.0473C52.1822 58.1163 55.7767 54.3343 60.5064 52.6324C67.79 50.1741 75.9249 52.3488 83.3977 50.7414L81.5059 46.0139Z" fill="#FFB3B6"/>
<path d="M36.1015 53.6725C44.331 51.4978 49.3444 43.272 57.0064 40.2464C63.6279 37.599 71.2898 39.3009 77.7221 36.4644L76.0194 31.926C69.0196 35.2353 60.0333 32.8715 53.0335 36.6535C48.966 38.8282 45.6553 42.232 42.0608 45.0684C37.7096 48.3777 32.9799 49.7014 27.5882 49.6068C21.4397 49.5123 15.0074 47.9049 8.85889 47.3376L10.7507 52.2542C19.1695 53.1997 27.8719 55.8471 36.1015 53.6725Z" fill="#FFB3B6"/>
<path d="M6.77821 42.2318C12.8321 42.2318 19.0752 42.8937 24.9399 42.0427C28.9128 41.4754 32.6019 40.0572 35.8181 37.6934C39.9801 34.7624 43.5746 30.9804 48.3042 29.2785C56.5338 26.5366 65.8984 29.6567 73.9388 26.442L72.1415 21.8091C63.7228 24.9292 53.9798 21.5254 45.6557 24.9292C41.399 26.6311 37.9937 29.9404 34.3992 32.6823C29.9533 35.9916 25.0345 37.3152 19.5482 37.5043C14.6294 37.6934 9.80517 37.3152 4.98096 37.5043L6.77821 42.2318Z" fill="#FFB3B6"/>
<path d="M39.8332 43.6752L32.0813 41.5981C30.0666 41.0583 27.9958 42.2539 27.456 44.2686C26.9161 46.2833 28.1117 48.3541 30.1264 48.8939L41.3547 51.9026C44.7181 52.8038 42.3336 55.586 40.3787 62.8818C38.4238 70.1777 40.3093 74.5927 43.0795 75.335C45.8497 76.0773 47.1267 72.9983 47.982 69.8064C48.8372 66.6145 49.9369 62.5105 51.4598 60.475V60.475C53.6537 57.5424 57.6531 56.7798 60.748 54.8214C63.9343 52.8052 67.6093 49.1265 68.4466 42.6784C69.6182 33.6559 65.9651 27.2182 58.3412 25.1754L40.682 20.4436C38.6673 19.9038 36.5965 21.0994 36.0567 23.1141C35.5168 25.1288 36.7124 27.1996 38.7271 27.7395L44.199 29.2057L35.9912 27.0064C33.9765 26.4666 31.9056 27.6622 31.3658 29.6769C30.826 31.6916 32.0216 33.7624 34.0363 34.3022L42.2441 36.5015L31.3003 33.5691C29.2856 33.0293 27.2148 34.2249 26.6749 36.2396C26.1351 38.2543 27.3307 40.3252 29.3454 40.865L39.3772 43.553" stroke="#210049" stroke-width="2" stroke-linecap="round" stroke-linejoin="round"/>
<path d="M25.4004 23.6724V18" stroke="#210049" stroke-linecap="round" stroke-linejoin="round"/>
<path fill-rule="evenodd" clip-rule="evenodd" d="M25.4003 27.1077C25.8464 27.1077 26.2087 26.7462 26.2087 26.2992C26.2087 25.8531 25.8464 25.4908 25.4003 25.4908C24.9541 25.4908 24.5918 25.8531 24.5918 26.2992C24.5918 26.7462 24.9541 27.1077 25.4003 27.1077Z" fill="#210049"/>
<path d="M19.5674 23.6879L21.2055 29.117" stroke="#210049" stroke-linecap="round" stroke-linejoin="round"/>
<path fill-rule="evenodd" clip-rule="evenodd" d="M18.575 20.399C18.1483 20.5277 17.9058 20.9782 18.0345 21.4067C18.1641 21.8334 18.6146 22.075 19.0422 21.9463C19.4689 21.8167 19.7114 21.367 19.5827 20.9385C19.454 20.5118 19.0026 20.2703 18.575 20.399Z" fill="#210049"/>
</svg>
