<svg width="48" height="48" viewBox="0 0 48 48" fill="none" xmlns="http://www.w3.org/2000/svg">
<path fill-rule="evenodd" clip-rule="evenodd" d="M21.6218 45.0152L2.98481 26.3782C1.67173 25.0651 1.67173 22.9357 2.98481 21.6227L21.6218 2.98481C22.9349 1.67173 25.0643 1.67173 26.3773 2.98481L45.0152 21.6227C46.3283 22.9357 46.3283 25.0651 45.0152 26.3782L26.3773 45.0152C25.0643 46.3283 22.9349 46.3283 21.6218 45.0152Z" fill="#FFDADB"/>
<path d="M26.6845 17.8424L21.3155 14.4074C21.1019 14.3007 20.8659 14.2465 20.6272 14.2494C20.3885 14.2522 20.1539 14.312 19.943 14.4238L14.6489 17.976C14.5285 18.0398 14.4277 18.1352 14.3574 18.252C14.2871 18.3688 14.25 18.5025 14.25 18.6388V32.5044C14.25 32.6337 14.2834 32.7609 14.3471 32.8735C14.4107 32.9861 14.5024 33.0803 14.6132 33.147C14.724 33.2137 14.8502 33.2507 14.9795 33.2542C15.1088 33.2577 15.2368 33.2278 15.3511 33.1672L19.9364 30.1771C20.1491 30.0644 20.3858 30.0045 20.6264 30.0026C20.8671 30.0006 21.1047 30.0566 21.3192 30.1658L26.5627 33.5877C26.7753 33.696 27.0107 33.7521 27.2493 33.7512C27.4879 33.7503 27.7229 33.6925 27.9347 33.5825L33.3455 30.0228C33.4674 29.9596 33.5696 29.864 33.6409 29.7467C33.7123 29.6293 33.75 29.4946 33.75 29.3572V15.4953C33.75 15.366 33.7166 15.2389 33.6529 15.1262C33.5893 15.0136 33.4976 14.9194 33.3868 14.8527C33.276 14.786 33.1498 14.7491 33.0205 14.7456C32.8912 14.742 32.7632 14.772 32.6489 14.8325L28.0552 17.826C27.8444 17.9374 27.6102 17.997 27.3718 17.9999C27.1335 18.0027 26.8979 17.9487 26.6845 17.8424Z" stroke="#210049" stroke-width="1.5" stroke-linecap="round" stroke-linejoin="round"/>
<path d="M27.375 18V33.75" stroke="#210049" stroke-width="1.5" stroke-linecap="round" stroke-linejoin="round"/>
<path d="M20.625 14.25V30" stroke="#210049" stroke-width="1.5" stroke-linecap="round" stroke-linejoin="round"/>
</svg>
