<?xml version="1.0" encoding="UTF-8" standalone="no"?>
<svg width="209px" height="217px" viewBox="0 0 209 217" version="1.1" xmlns="http://www.w3.org/2000/svg" xmlns:xlink="http://www.w3.org/1999/xlink">
    <!-- Generator: Sketch 3.6.1 (26313) - http://www.bohemiancoding.com/sketch -->
    <title>Fill 1 + Fill 4</title>
    <desc>Created with Sketch.</desc>
    <defs></defs>
    <g id="Bloqueo" stroke="none" stroke-width="1" fill="none" fill-rule="evenodd" opacity="0.898787313">
        <g id="bloqueoCuenta" transform="translate(-57.000000, -107.000000)">
            <g id="Fill-1-+-Fill-4-+-02:13:25-+-desbloqueo-en:" transform="translate(57.000000, 107.000000)">
                <g id="Fill-1-+-Fill-4" transform="translate(0.138889, 0.000000)">
                    <path d="M10.383093,73.8204193 L87.0839194,3.63382834 C91.7123966,-0.600801904 98.6623462,-0.994217822 103.752134,2.68794547 L202.477307,74.1395239 C208.455047,78.4664458 210.369915,86.5472189 206.97103,93.1025993 L147.856862,207.080394 C141.917609,217.287046 128.339512,219.783117 119.156744,212.357306 L11.0397608,118.656479 C-2.51339782,106.909069 -2.82222647,85.9035271 10.383093,73.8204193" id="Fill-1" fill="#80EBE3"></path>
                    <path d="M4.90590465,122.741006 L41.9281014,25.2760713 C44.1613049,19.395537 50.1836417,15.8968356 56.3711248,16.8874901 L176.401999,36.0837097 C183.670782,37.2464259 188.994739,43.6057987 188.894508,51.0032196 L187.153524,179.659936 C186.421763,191.473337 175.425057,199.850089 163.912669,197.366889 L25.5497914,162.529047 C8.20354911,158.160498 -1.4669466,139.52115 4.90590465,122.741006" id="Fill-4" fill="#2F42D7"></path>
                </g>
            </g>
        </g>
    </g>
</svg>