<svg width="88" height="88" viewBox="0 0 88 88" fill="none" xmlns="http://www.w3.org/2000/svg">
<path d="M22.0073 81.0919L2.52126 31.8315C1.00778 27.9549 2.89963 23.5111 6.77791 21.9983L56.1551 2.52102C60.0334 1.00823 64.4792 2.89922 65.9927 6.77576L85.4787 56.2253C86.9922 60.1019 85.1004 64.5457 81.2221 66.0585L31.8449 85.4412C27.872 87.0485 23.5208 85.063 22.0073 81.0919Z" fill="#D5F4F7"/>
<path d="M81.5059 46.0137C73.8439 47.621 65.3306 45.3518 57.8578 48.2829C53.6011 49.9848 50.1958 53.294 46.6013 56.036C42.1554 59.3452 37.2366 60.6689 31.7503 60.858C25.8856 61.0471 19.8317 60.5743 14.0615 61.0471L15.8588 65.68C22.9532 65.2073 30.1422 66.3419 37.1421 65.3964C41.1149 64.8291 44.804 63.4108 48.0202 61.0471C52.1822 58.116 55.7767 54.3341 60.5064 52.6322C67.79 50.1739 75.9249 52.3485 83.3977 50.7412L81.5059 46.0137Z" fill="#ACEAEF"/>
<path d="M36.102 53.6722C44.3315 51.4976 49.3449 43.2718 57.0069 40.2462C63.6283 37.5988 71.2903 39.3007 77.7226 36.4642L76.0199 31.9258C69.0201 35.235 60.0338 32.8713 53.034 36.6533C48.9665 38.8279 45.6558 42.2317 42.0613 45.0682C37.71 48.3774 32.9804 49.7011 27.5887 49.6066C21.4402 49.512 15.0079 47.9047 8.85938 47.3374L10.7512 52.254C19.1699 53.1995 27.8724 55.8469 36.102 53.6722Z" fill="#ACEAEF"/>
<path d="M6.7787 42.2318C12.8326 42.2318 19.0757 42.8937 24.9404 42.0427C28.9133 41.4754 32.6024 40.0572 35.8185 37.6934C39.9806 34.7624 43.5751 30.9804 48.3047 29.2785C56.5343 26.5366 65.8989 29.6567 73.9393 26.442L72.142 21.8091C63.7233 24.9292 53.9803 21.5254 45.6562 24.9292C41.3995 26.6311 37.9942 29.9404 34.3997 32.6823C29.9538 35.9916 25.035 37.3152 19.5487 37.5043C14.6299 37.6934 9.80565 37.3152 4.98145 37.5043L6.7787 42.2318Z" fill="#ACEAEF"/>
<path d="M51.5147 29.4023L50.2744 31.6585" stroke="#210049" stroke-linecap="round" stroke-linejoin="round"/>
<path d="M51.5146 29.4023L53.7824 30.6363" stroke="#210049" stroke-linecap="round" stroke-linejoin="round"/>
<path d="M42.5205 40.3401C43.7027 40.6166 44.9309 40.6174 46.1134 40.3422C47.296 40.067 48.4025 39.523 49.3505 38.7507C50.2985 37.9784 51.0635 36.9977 51.5887 35.8817C52.1138 34.7657 52.3855 33.5431 52.3835 32.305C52.3564 31.4188 52.2051 30.5411 51.9341 29.6987" stroke="#210049" stroke-linecap="round" stroke-linejoin="round"/>
<path d="M44.2561 24.4047C43.0778 24.136 41.8538 24.1353 40.6753 24.4025C39.4967 24.6698 38.3939 25.1982 37.4491 25.9483C36.5043 26.6984 35.7417 27.6509 35.2183 28.735C34.6948 29.819 34.4239 31.0065 34.4258 32.2091C34.4442 33.0571 34.5865 33.8979 34.8481 34.7051" stroke="#210049" stroke-linecap="round" stroke-linejoin="round"/>
<path d="M35.0253 35.0761L32.625 34.1211" stroke="#210049" stroke-linecap="round" stroke-linejoin="round"/>
<path d="M35.0254 35.076L35.9853 32.688" stroke="#210049" stroke-linecap="round" stroke-linejoin="round"/>
<path d="M58.9068 28.554L46.9244 16.6329C44.8697 14.5888 41.5385 14.5888 39.4838 16.6329L27.5014 28.554C25.4467 30.5982 25.4467 33.9124 27.5014 35.9566L39.4838 47.8777C41.5385 49.9218 44.8697 49.9218 46.9244 47.8777L58.9068 35.9566C60.9615 33.9124 60.9615 30.5982 58.9068 28.554Z" stroke="#210049" stroke-width="2" stroke-miterlimit="10" stroke-linecap="round"/>
<path d="M45.4795 49.4248V74.0823H64.2192" stroke="#210049" stroke-width="2" stroke-linecap="round" stroke-linejoin="round"/>
<path d="M51.3974 74.0824L48.4385 68.1646" stroke="#210049" stroke-width="1.6" stroke-miterlimit="10" stroke-linecap="round"/>
<path d="M51.3975 74.0823V67.1782" stroke="#210049" stroke-width="1.6" stroke-miterlimit="10" stroke-linecap="round"/>
<path d="M51.3975 74.0824L54.3564 68.1646" stroke="#210049" stroke-width="1.6" stroke-miterlimit="10" stroke-linecap="round"/>
<path d="M32.6582 74.0823H41.5349V49.4248" stroke="#210049" stroke-width="2" stroke-linecap="round" stroke-linejoin="round"/>
<rect x="8" y="8" width="72" height="72" fill="white" fill-opacity="0.01"/>
</svg>

