<svg width="88" height="88" viewBox="0 0 88 88" fill="none" xmlns="http://www.w3.org/2000/svg">
<path d="M22.0073 81.0919L2.52126 31.8315C1.00778 27.9549 2.89963 23.5111 6.77791 21.9983L56.1551 2.52102C60.0334 1.00823 64.4792 2.89922 65.9927 6.77576L85.4787 56.2253C86.9922 60.1019 85.1004 64.5457 81.2221 66.0585L31.8449 85.4412C27.872 87.0485 23.5208 85.063 22.0073 81.0919Z" fill="#FFDADB"/>
<path d="M81.5059 46.0139C73.8439 47.6213 65.3306 45.3521 57.8578 48.2831C53.6011 49.985 50.1958 53.2943 46.6013 56.0362C42.1554 59.3454 37.2366 60.6691 31.7503 60.8582C25.8856 61.0473 19.8317 60.5746 14.0615 61.0473L15.8588 65.6803C22.9532 65.2075 30.1422 66.3421 37.1421 65.3966C41.1149 64.8293 44.804 63.4111 48.0202 61.0473C52.1822 58.1163 55.7767 54.3343 60.5064 52.6324C67.79 50.1741 75.9249 52.3488 83.3977 50.7414L81.5059 46.0139Z" fill="#FFB3B6"/>
<path d="M36.102 53.6725C44.3315 51.4978 49.3449 43.272 57.0069 40.2464C63.6283 37.599 71.2903 39.3009 77.7226 36.4644L76.0199 31.926C69.0201 35.2353 60.0338 32.8715 53.034 36.6535C48.9665 38.8282 45.6558 42.232 42.0613 45.0684C37.71 48.3777 32.9804 49.7014 27.5887 49.6068C21.4402 49.5123 15.0079 47.9049 8.85938 47.3376L10.7512 52.2542C19.1699 53.1997 27.8724 55.8471 36.102 53.6725Z" fill="#FFB3B6"/>
<path d="M6.7787 42.2318C12.8326 42.2318 19.0757 42.8937 24.9404 42.0427C28.9133 41.4754 32.6024 40.0572 35.8185 37.6934C39.9806 34.7624 43.5751 30.9804 48.3047 29.2785C56.5343 26.5366 65.8989 29.6567 73.9393 26.442L72.142 21.8091C63.7233 24.9292 53.9803 21.5254 45.6562 24.9292C41.3995 26.6311 37.9942 29.9404 34.3997 32.6823C29.9538 35.9916 25.035 37.3152 19.5487 37.5043C14.6299 37.6934 9.80565 37.3152 4.98145 37.5043L6.7787 42.2318Z" fill="#FFB3B6"/>
<path d="M40.527 17.0777C42.0626 14.3904 45.9374 14.3904 47.473 17.0777L53.8919 28.3108C55.2734 30.7284 56 33.4646 56 36.249V64C56 66.2091 54.2091 68 52 68H36C33.7909 68 32 66.2091 32 64V36.249C32 33.4646 32.7266 30.7284 34.1081 28.3108L40.527 17.0777Z" stroke="#210049" stroke-width="2"/>
<path d="M22 66H32V50L20.8906 57.4063C20.3342 57.7772 20 58.4017 20 59.0704V64C20 65.1046 20.8954 66 22 66Z" stroke="#210049" stroke-width="2"/>
<path d="M66 66H56V50L67.1094 57.4063C67.6658 57.7772 68 58.4017 68 59.0704V64C68 65.1046 67.1046 66 66 66Z" stroke="#210049" stroke-width="2"/>
<path d="M36 68H52V70C52 71.1046 51.1046 72 50 72H38C36.8954 72 36 71.1046 36 70V68Z" stroke="#210049" stroke-width="2"/>
<path d="M44 74V77" stroke="#210049" stroke-linecap="round"/>
<path d="M40 74V76" stroke="#210049" stroke-linecap="round"/>
<path d="M48 74V76" stroke="#210049" stroke-linecap="round"/>
<circle cx="44" cy="36" r="6" stroke="#210049" stroke-linecap="round"/>
<path d="M38 22H50" stroke="#210049" stroke-linecap="round"/>
<path d="M46 68V53C46 51.8954 45.1046 51 44 51V51C42.8954 51 42 51.8954 42 53V68" stroke="#210049" stroke-linecap="round"/>
</svg>
