<svg width="141" height="32" viewBox="0 0 141 32" fill="none" xmlns="http://www.w3.org/2000/svg">
  <path d="M141 6.29287C141 6.02509 140.732 5.75731 140.465 5.75731H138.458C138.057 5.75731 137.923 6.02509 137.923 6.29287V25.7071C137.923 25.9749 138.191 26.2427 138.458 26.2427H140.465C140.866 26.2427 141 25.9749 141 25.7071V6.29287Z" fill="#4B4B4B"/>
  <path d="M59.7979 5.75731H57.9251C57.5238 5.75731 57.39 6.02509 57.39 6.29287V19.9498L44.2799 6.02509C44.2799 6.02509 44.0124 5.75731 43.7448 5.75731C43.3435 5.75731 43.0759 5.75731 43.0759 5.75731C42.8084 5.75731 42.5408 6.02509 42.5408 6.29287V24.9038V25.7071C42.5408 25.9749 42.8084 26.2427 43.0759 26.2427H45.0826C45.4839 26.2427 45.6177 25.9749 45.6177 25.7071V11.6485L58.9953 25.9749C58.9953 25.9749 59.2628 26.2427 59.3966 26.2427C59.798 26.2427 59.7979 26.2427 59.7979 26.2427C60.0655 26.2427 60.333 25.9749 60.333 25.7071V25.3054V6.29287C60.333 6.02509 60.0655 5.75731 59.7979 5.75731Z" fill="#4B4B4B"/>
  <path d="M78.6604 26.3766H79.463C79.8644 26.3766 79.9981 26.1088 79.9981 25.841V24.1004C79.9981 23.8326 79.7306 23.5648 79.463 23.5648H74.112H71.8378V17.1381H72.2391H79.463C79.8644 17.1381 79.9981 16.8703 79.9981 16.6025V14.728C79.9981 14.4602 79.7306 14.1925 79.463 14.1925H79.1955H71.8378V8.83681H79.463C79.8644 8.83681 79.9981 8.56902 79.9981 8.30124V6.29287C79.9981 6.02509 79.7306 5.75731 79.463 5.75731H74.112H69.296C68.8947 5.75731 68.7609 6.02509 68.7609 6.29287V25.7071C68.7609 25.9749 69.0285 26.2427 69.296 26.2427L78.6604 26.3766Z" fill="#4B4B4B"/>
  <path d="M129.495 6.29287C129.495 6.02509 129.228 5.75731 128.96 5.75731H127.087C126.686 5.75731 126.552 6.02509 126.552 6.29287V17.9414C126.552 19.682 126.418 20.6192 125.883 21.4226C125.214 22.6276 123.743 23.4309 122.138 23.4309C120.532 23.4309 119.061 22.6276 118.392 21.4226C117.857 20.6192 117.723 19.682 117.723 17.9414V6.29287C117.723 6.02509 117.455 5.75731 117.188 5.75731H115.315C114.914 5.75731 114.78 6.02509 114.78 6.29287V18.7448C114.78 20.7531 115.315 22.2259 116.385 23.5648C117.857 25.3054 119.997 26.3766 122.405 26.3766C124.679 26.3766 126.954 25.3054 128.291 23.5648C129.361 22.2259 129.897 20.7531 129.897 18.7448L129.495 6.29287Z" fill="#4B4B4B"/>
  <path d="M102.74 24.7699C101.135 25.841 99.1281 26.3766 97.2552 26.3766C94.3122 26.3766 91.3691 25.0376 89.3624 22.8954C87.7571 21.1548 86.9545 18.7448 86.9545 16.2008C86.9545 10.4435 91.5029 5.75731 97.2552 5.75731C103.008 5.75731 107.69 10.4435 107.69 16.3347C107.69 19.0125 106.887 21.1548 104.88 23.1632L102.74 24.7699ZM102.74 21.0209C104.078 19.5481 104.613 18.2092 104.613 16.0669C104.613 11.7824 101.402 8.56902 97.2552 8.56902C92.9744 8.56902 89.8975 11.7824 89.8975 16.2008C89.8975 18.3431 90.5664 20.0837 92.038 21.4226C93.3757 22.7615 95.2486 23.5648 97.1215 23.5648C98.3254 23.5648 99.6632 23.2971 100.6 22.6276" fill="#4B4B4B"/>
  <path d="M107.288 25.5732C107.824 26.1088 107.556 26.3766 106.887 26.3766H104.88C104.613 26.3766 104.212 26.2427 104.078 25.9749L97.389 19.2803C96.9877 18.8786 97.2552 18.0753 97.9241 18.0753H99.3956C99.6632 18.0753 100.065 18.2092 100.198 18.477L107.288 25.5732Z" fill="#4B4B4B"/>
  <path fill-rule="evenodd" clip-rule="evenodd" d="M0.802678 14.1925L9.76568 1.87446C10.3008 1.07111 11.371 0.80333 12.1736 1.205L29.1632 8.03345C30.2334 8.43513 30.7685 9.50626 30.501 10.5774L25.5513 28.3849C25.0162 29.9916 23.1433 30.795 21.538 29.9916L2.40799 20.3514C2.11746e-05 19.1464 -0.802635 16.2008 0.802678 14.1925Z" fill="#4B4B4B"/>
  <path d="M16.5883 32C16.4545 32 16.4545 32 16.3207 32C15.3843 32 14.5816 31.4644 14.0465 30.795L1.60535 14.0586C0.802694 12.9874 0.535142 11.6485 0.802694 10.4435C1.07025 9.10459 2.00668 8.03346 3.21066 7.364L17.1234 0.267768C18.0598 -0.267797 19.2638 -1.41561e-05 19.9327 0.803333L31.8387 14.1925C32.6414 15.1297 32.6414 16.4686 31.8387 17.4058L18.9962 31.1966C18.3274 31.7322 17.5247 32 16.5883 32ZM3.47822 7.76568C2.40801 8.43513 1.60535 9.37237 1.3378 10.4435C1.07025 11.5146 1.3378 12.7197 2.00668 13.6569L14.4479 30.3933C14.8492 30.9289 15.6518 31.3305 16.3207 31.3305C17.1234 31.3305 17.7923 31.0627 18.4611 30.5272L31.3036 16.7364C31.9725 16.0669 31.9725 14.9958 31.3036 14.3263L19.3976 0.937224C18.8625 0.401659 17.926 0.133877 17.2572 0.535551L3.47822 7.76568Z" fill="#4B4B4B"/>
  </svg>
