<svg width="88" height="88" viewBox="0 0 88 88" fill="none" xmlns="http://www.w3.org/2000/svg">
<path d="M22.0073 81.0919L2.52126 31.8315C1.00778 27.9549 2.89963 23.5111 6.77791 21.9983L56.1551 2.52102C60.0334 1.00823 64.4792 2.89922 65.9927 6.77576L85.4787 56.2253C86.9922 60.1019 85.1004 64.5457 81.2221 66.0585L31.8449 85.4412C27.872 87.0485 23.5208 85.063 22.0073 81.0919Z" fill="#D9F5EC"/>
<path d="M81.5059 46.0139C73.8439 47.6213 65.3306 45.3521 57.8578 48.2831C53.6011 49.985 50.1958 53.2943 46.6013 56.0362C42.1554 59.3454 37.2366 60.6691 31.7503 60.8582C25.8856 61.0473 19.8317 60.5746 14.0615 61.0473L15.8588 65.6803C22.9532 65.2075 30.1422 66.3421 37.1421 65.3966C41.1149 64.8293 44.804 63.4111 48.0202 61.0473C52.1822 58.1163 55.7767 54.3343 60.5064 52.6324C67.79 50.1741 75.9249 52.3488 83.3977 50.7414L81.5059 46.0139Z" fill="#B4EBDA"/>
<path d="M36.1015 53.6725C44.331 51.4978 49.3444 43.272 57.0064 40.2464C63.6279 37.599 71.2898 39.3009 77.7221 36.4644L76.0194 31.926C69.0196 35.2353 60.0333 32.8715 53.0335 36.6535C48.966 38.8282 45.6553 42.232 42.0608 45.0684C37.7096 48.3777 32.9799 49.7014 27.5882 49.6068C21.4397 49.5123 15.0074 47.9049 8.85889 47.3376L10.7507 52.2542C19.1695 53.1997 27.8719 55.8471 36.1015 53.6725Z" fill="#B4EBDA"/>
<path d="M6.77821 42.2318C12.8321 42.2318 19.0752 42.8937 24.9399 42.0427C28.9128 41.4754 32.6019 40.0572 35.8181 37.6934C39.9801 34.7624 43.5746 30.9804 48.3042 29.2785C56.5338 26.5366 65.8984 29.6567 73.9388 26.442L72.1415 21.8091C63.7228 24.9292 53.9798 21.5254 45.6557 24.9292C41.399 26.6311 37.9937 29.9404 34.3992 32.6823C29.9533 35.9916 25.0345 37.3152 19.5482 37.5043C14.6294 37.6934 9.80517 37.3152 4.98096 37.5043L6.77821 42.2318Z" fill="#B4EBDA"/>
<path d="M70.9795 31.6955L47.4604 20.334C47.0054 20.1143 46.5047 20 45.9973 20C45.4899 20 44.9893 20.1143 44.5342 20.334L21.0151 31.6955C20.1134 32.1279 19.3533 32.7984 18.8205 33.6314C18.2877 34.4644 18.0035 35.4265 18 36.4093V60.7303C18 63.6405 20.4417 66 23.4541 66H68.5459C71.5583 66 74 63.6405 74 60.7303V36.4093C73.996 35.426 73.711 34.4634 73.1772 33.6304C72.6434 32.7974 71.8822 32.1272 70.9795 31.6955V31.6955Z" stroke="#210049" stroke-width="2" stroke-linecap="round" stroke-linejoin="round"/>
<path d="M63.9688 57.2684L47.8393 45.225C47.3136 44.8325 46.6667 44.6194 46.0007 44.6194C45.3347 44.6194 44.6877 44.8325 44.162 45.225L28.0312 57.2684" stroke="#210049" stroke-width="2" stroke-linecap="round" stroke-linejoin="round"/>
<path d="M52.988 48.5231L69.9586 36.1851" stroke="#210049" stroke-width="2" stroke-linecap="round" stroke-linejoin="round"/>
<path d="M22.0417 36.1851L39.3866 48.7627" stroke="#210049" stroke-width="2" stroke-linecap="round" stroke-linejoin="round"/>
<path d="M29 41V36C29 33.7909 30.7909 32 33 32H59C61.2091 32 63 33.7909 63 36V41M31.8333 37.5H60.1667" stroke="#210049" stroke-linecap="round" stroke-linejoin="round"/>
<path d="M35 42H57" stroke="#210049" stroke-linecap="round" stroke-linejoin="round"/>
</svg>
