<svg width="173" height="285" viewBox="0 0 173 285" fill="none" xmlns="http://www.w3.org/2000/svg">
  <path d="M167.298 119.728C170.433 117.863 171.462 113.81 169.598 110.676C167.733 107.541 163.68 106.512 160.545 108.376C157.411 110.241 156.382 114.294 158.246 117.429C160.111 120.563 164.164 121.593 167.298 119.728Z" fill="#F5F5F5"/>
  <path d="M167.298 14.7278C170.433 12.863 171.462 8.81023 169.598 5.67566C167.733 2.54108 163.68 1.51173 160.545 3.37653C157.411 5.24133 156.381 9.29413 158.246 12.4287C160.111 15.5633 164.164 16.5926 167.298 14.7278Z" fill="#F5F5F5"/>
  <path d="M51.2988 257.728C54.4334 255.863 55.4627 251.81 53.5979 248.675C51.7331 245.541 47.6803 244.511 44.5457 246.376C41.4112 248.241 40.3818 252.294 42.2466 255.428C44.1114 258.563 48.1642 259.592 51.2988 257.728Z" fill="#F5F5F5"/>
  <path d="M40.2985 203.728C43.433 201.863 44.4624 197.81 42.5976 194.676C40.7328 191.541 36.68 190.512 33.5454 192.376C30.4108 194.241 29.3815 198.294 31.2463 201.429C33.1111 204.563 37.1639 205.593 40.2985 203.728Z" fill="#F5F5F5"/>
  <path d="M40.2984 98.7278C43.433 96.863 44.4624 92.8102 42.5976 89.6757C40.7328 86.5411 36.68 85.5117 33.5454 87.3765C30.4108 89.2413 29.3815 93.2941 31.2463 96.4287C33.1111 99.5633 37.1639 100.593 40.2984 98.7278Z" fill="#F5F5F5"/>
  <path d="M16.2985 158.728C19.4331 156.863 20.4624 152.81 18.5976 149.676C16.7328 146.541 12.68 145.512 9.54543 147.376C6.41086 149.241 5.3815 153.294 7.24631 156.429C9.11111 159.563 13.1639 160.593 16.2985 158.728Z" fill="#F5F5F5"/>
  <path d="M16.2985 53.7278C19.433 51.863 20.4624 47.8102 18.5976 44.6757C16.7328 41.5411 12.68 40.5117 9.5454 42.3765C6.41083 44.2413 5.38147 48.2941 7.24628 51.4287C9.11108 54.5633 13.1639 55.5926 16.2985 53.7278Z" fill="#F5F5F5"/>
  <path d="M94.2985 147.728C97.433 145.863 98.4624 141.81 96.5976 138.676C94.7328 135.541 90.68 134.512 87.5454 136.376C84.4109 138.241 83.3815 142.294 85.2463 145.429C87.1111 148.563 91.1639 149.593 94.2985 147.728Z" fill="#F5F5F5"/>
  <path d="M94.2984 42.7278C97.433 40.863 98.4624 36.8102 96.5976 33.6757C94.7328 30.5411 90.68 29.5117 87.5454 31.3765C84.4108 33.2413 83.3815 37.2941 85.2463 40.4287C87.1111 43.5633 91.1639 44.5926 94.2984 42.7278Z" fill="#F5F5F5"/>
  <path d="M5.42318 279.844C18.1832 274.715 29.6092 252.598 23.0772 237" stroke="#F5F5F5" stroke-width="10" stroke-linecap="round" stroke-linejoin="round"/>
  <path d="M90.9741 195.002C77.2231 194.776 58.1091 210.725 58.0741 227.634" stroke="#F5F5F5" stroke-width="10" stroke-linecap="round" stroke-linejoin="round"/>
  <path d="M107.9 72.0024C94.149 71.7764 75.035 87.7254 75 104.634" stroke="#F5F5F5" stroke-width="10" stroke-linecap="round" stroke-linejoin="round"/>
  <path d="M128.962 125C123.625 137.675 131.297 161.357 146.974 167.695" stroke="#F5F5F5" stroke-width="10" stroke-linecap="round" stroke-linejoin="round"/>
  <path d="M128.962 20C123.625 32.6751 131.297 56.3572 146.974 62.6952" stroke="#F5F5F5" stroke-width="10" stroke-linecap="round" stroke-linejoin="round"/>
  <path d="M48.1442 116C39.1272 126.385 39.0482 151.279 51.9741 162.181" stroke="#F5F5F5" stroke-width="10" stroke-linecap="round" stroke-linejoin="round"/>
  <path d="M48.1441 11C39.1271 21.3847 39.0481 46.2787 51.9741 57.1807" stroke="#F5F5F5" stroke-width="10" stroke-linecap="round" stroke-linejoin="round"/>
</svg>
