<svg width="88" height="88" viewBox="0 0 88 88" fill="none" xmlns="http://www.w3.org/2000/svg">
<path d="M22.0073 81.0919L2.52126 31.8315C1.00778 27.9549 2.89963 23.5111 6.77791 21.9983L56.1551 2.52102C60.0334 1.00823 64.4792 2.89922 65.9927 6.77576L85.4787 56.2253C86.9922 60.1019 85.1004 64.5457 81.2221 66.0585L31.8449 85.4412C27.872 87.0485 23.5208 85.063 22.0073 81.0919Z" fill="#D9F5EC"/>
<path d="M81.5059 46.0139C73.8439 47.6213 65.3306 45.3521 57.8578 48.2831C53.6011 49.985 50.1958 53.2943 46.6013 56.0362C42.1554 59.3454 37.2366 60.6691 31.7503 60.8582C25.8856 61.0473 19.8317 60.5746 14.0615 61.0473L15.8588 65.6803C22.9532 65.2075 30.1422 66.3421 37.1421 65.3966C41.1149 64.8293 44.804 63.4111 48.0202 61.0473C52.1822 58.1163 55.7767 54.3343 60.5064 52.6324C67.79 50.1741 75.9249 52.3488 83.3977 50.7414L81.5059 46.0139Z" fill="#B4EBDA"/>
<path d="M36.1015 53.6725C44.331 51.4978 49.3444 43.272 57.0064 40.2464C63.6279 37.599 71.2898 39.3009 77.7221 36.4644L76.0194 31.926C69.0196 35.2353 60.0333 32.8715 53.0335 36.6535C48.966 38.8282 45.6553 42.232 42.0608 45.0684C37.7096 48.3777 32.9799 49.7014 27.5882 49.6068C21.4397 49.5123 15.0074 47.9049 8.85889 47.3376L10.7507 52.2542C19.1695 53.1997 27.8719 55.8471 36.1015 53.6725Z" fill="#B4EBDA"/>
<path d="M6.77821 42.2318C12.8321 42.2318 19.0752 42.8937 24.9399 42.0427C28.9128 41.4754 32.6019 40.0572 35.8181 37.6934C39.9801 34.7624 43.5746 30.9804 48.3042 29.2785C56.5338 26.5366 65.8984 29.6567 73.9388 26.442L72.1415 21.8091C63.7228 24.9292 53.9798 21.5254 45.6557 24.9292C41.399 26.6311 37.9937 29.9404 34.3992 32.6823C29.9533 35.9916 25.0345 37.3152 19.5482 37.5043C14.6294 37.6934 9.80517 37.3152 4.98096 37.5043L6.77821 42.2318Z" fill="#B4EBDA"/>
<path d="M27 66.7935C27 63.3571 29.7858 60.5713 33.2222 60.5713H47.7778C51.2142 60.5713 54 63.3571 54 66.7935V66.7935C54 67.2231 53.6518 67.5713 53.2222 67.5713H27.7778C27.3482 67.5713 27 67.2231 27 66.7935V66.7935Z" stroke="#210049" stroke-width="2"/>
<path d="M25.5 45.5C25.5 42.7386 23.7091 40.5 21.5 40.5C19.2909 40.5 17 42.81 17 45.5714C17 48.3328 19 49.3214 21 50.5714C23 51.8214 25 52.81 25 55.5714C25 58.3328 23.2091 60.5714 21 60.5714" stroke="#210049" stroke-width="2" stroke-linecap="round"/>
<path d="M33 38.5713C33 37.3778 33.7902 35.7332 35.1967 34.8893C36.6032 34.0454 38.5109 33.5713 40.5 33.5713C42.4891 33.5713 44.3968 34.0454 45.8033 34.8893C47.2098 35.7332 48 37.3778 48 38.5713" stroke="#210049" stroke-width="2"/>
<rect x="40.8887" y="24.0334" width="5.85714" height="5.85714" rx="1" transform="rotate(45 40.8887 24.0334)" stroke="#210049" stroke-width="2"/>
<path d="M63.5868 27.875C60.5655 25.7322 65.2903 22.2718 62.2691 20.1291" stroke="#210049" stroke-linecap="round"/>
<path d="M67.7476 28.154C65.7561 23.7533 71.5359 20.5122 69.5445 16.1115" stroke="#210049" stroke-linecap="round"/>
<path d="M71.7477 28.8827C69.5438 25.9058 75.1111 24.0884 72.9073 21.1115" stroke="#210049" stroke-linecap="round"/>
<path d="M48.663 38.4804H36.0455C29.9452 38.4804 25 43.4256 25 49.5258C25 55.6261 29.9452 60.5713 36.0455 60.5713H41.7664C50.0193 60.5713 57.6933 56.3309 62.0854 49.3438L69.4374 37.6479C70.5512 35.876 69.2777 33.5713 67.1849 33.5713C66.915 33.5713 66.6468 33.6123 66.3893 33.693L53.4472 37.7484C51.8988 38.2336 50.2856 38.4804 48.663 38.4804Z" stroke="#210049" stroke-width="2"/>
<path d="M38 51C38 51 39 53 42 53C45 53 46 51 46 51" stroke="#210049" stroke-linecap="round"/>
<path d="M35 47C35.5523 47 36 46.5523 36 46C36 45.4477 35.5523 45 35 45C34.4477 45 34 45.4477 34 46C34 46.5523 34.4477 47 35 47Z" fill="#210049"/>
<path d="M49 47C49.5523 47 50 46.5523 50 46C50 45.4477 49.5523 45 49 45C48.4477 45 48 45.4477 48 46C48 46.5523 48.4477 47 49 47Z" fill="#210049"/>
</svg>
