<svg width="240" height="248" viewBox="0 0 240 248" fill="none" xmlns="http://www.w3.org/2000/svg">
<path opacity="0.01" d="M240 0H0V248H240V0Z" fill="white"/>
<path d="M94.7029 221H93.2971C88.7148 221 85 224.381 85 228.552V240.448C85 244.619 88.7148 248 93.2971 248H94.7029C99.2852 248 103 244.619 103 240.448V228.552C103 224.381 99.2852 221 94.7029 221Z" fill="#CACACA"/>
<path d="M120 212C178.542 212 226 164.542 226 106C226 47.4578 178.542 0 120 0C61.4578 0 14 47.4578 14 106C14 164.542 61.4578 212 120 212Z" fill="#D9F5EC"/>
<path d="M99 139V42L159 68.0356V112.964L99 139Z" fill="white"/>
<g filter="url(#filter0_d)">
<rect x="158" y="51" width="4" height="182" rx="2" fill="#00BA70"/>
</g>
<path d="M95.8664 42H92.1336C88.7461 42 86 44.6611 86 47.9438V239.056C86 242.339 88.7461 245 92.1336 245H95.8664C99.2539 245 102 242.339 102 239.056V47.9438C102 44.6611 99.2539 42 95.8664 42Z" fill="#CACACA"/>
<path d="M95.5482 243.045C95.2932 246.321 102 240.38 102 237.1V45.6519C102 44.1529 101.354 42.7153 100.204 41.6554C99.0533 40.5955 97.4932 40 95.8664 40H91.6227C89.9116 40 88.2706 40.6264 87.0606 41.7413C85.8507 42.8562 85.171 44.3684 85.171 45.9451C85.171 45.9451 83.3829 90.4693 91.372 111.56C93.0449 116.057 94.0714 120.737 94.4254 125.48C96.0668 145.802 99.2337 195.651 95.5482 243.045Z" fill="#EAEAEA"/>
<path d="M102 55H102.063C104.237 55 106 55.9411 106 57.1012V73.8654C106 75.0442 104.209 76 102 76" fill="#4D336D"/>
<path d="M102.004 80H102.051C103.68 80 105 80.9859 105 82.2012V99.7638C105 100.999 103.659 102 102 102" fill="#4D336D"/>
<path d="M144 95C142.087 92.5569 141.036 89.5895 141.001 86.5311C140.965 83.4728 141.947 80.4836 143.803 78" stroke="#210049" stroke-width="1.8" stroke-linecap="round" stroke-linejoin="round"/>
<path d="M139 98C136.45 94.8383 135.049 90.9981 135.001 87.0403C134.954 83.0824 136.263 79.214 138.737 76" stroke="#210049" stroke-width="1.8" stroke-linecap="round" stroke-linejoin="round"/>
<path d="M133 100C130.45 96.2634 129.048 91.725 129.001 87.0476C128.954 82.3701 130.263 77.7984 132.737 74" stroke="#210049" stroke-width="1.8" stroke-linecap="round" stroke-linejoin="round"/>
<path d="M167.005 74H189.362C190.061 74 190.733 74.2723 191.227 74.7571C191.722 75.2419 192 75.8994 192 76.585V89.415C192 90.1006 191.722 90.7581 191.227 91.2429C190.733 91.7277 190.061 92 189.362 92H175.126C172.971 92 170.904 91.1611 169.38 89.6679C167.856 88.1747 167 86.1495 167 84.0378V74H167.005Z" fill="#210049"/>
<path d="M173.5 87C174.328 87 175 86.5523 175 86C175 85.4477 174.328 85 173.5 85C172.672 85 172 85.4477 172 86C172 86.5523 172.672 87 173.5 87Z" fill="white"/>
<path d="M180.5 87C181.328 87 182 86.5523 182 86C182 85.4477 181.328 85 180.5 85C179.672 85 179 85.4477 179 86C179 86.5523 179.672 87 180.5 87Z" fill="white"/>
<path d="M187 87C187.552 87 188 86.5523 188 86C188 85.4477 187.552 85 187 85C186.448 85 186 85.4477 186 86C186 86.5523 186.448 87 187 87Z" fill="white"/>
<path d="M66 175C66.5933 175 67.1734 174.824 67.6667 174.494C68.1601 174.165 68.5446 173.696 68.7716 173.148C68.9987 172.6 69.0581 171.997 68.9424 171.415C68.8266 170.833 68.5409 170.298 68.1213 169.879C67.7018 169.459 67.1672 169.173 66.5853 169.058C66.0033 168.942 65.4001 169.001 64.852 169.228C64.3038 169.455 63.8352 169.84 63.5056 170.333C63.1759 170.827 63 171.407 63 172C63.0003 172.796 63.3164 173.558 63.879 174.121C64.4415 174.684 65.2044 175 66 175Z" stroke="#210049" stroke-width="1.8" stroke-linecap="round" stroke-linejoin="round"/>
<path d="M58.5 124C58.9945 124 59.4778 123.853 59.8889 123.579C60.3 123.304 60.6205 122.914 60.8097 122.457C60.9989 122 61.0484 121.497 60.952 121.012C60.8555 120.527 60.6174 120.082 60.2678 119.732C59.9181 119.383 59.4727 119.145 58.9877 119.048C58.5028 118.952 58.0001 119.001 57.5433 119.19C57.0865 119.38 56.696 119.7 56.4213 120.111C56.1466 120.522 56 121.006 56 121.5C56 122.163 56.2634 122.799 56.7322 123.268C57.2011 123.737 57.837 124 58.5 124Z" fill="#210049"/>
<path d="M95.4831 41H91.5169C87.9177 41 85 43.6611 85 46.9438V238.056C85 241.339 87.9177 244 91.5169 244H95.4831C99.0823 244 102 241.339 102 238.056V46.9438C102 43.6611 99.0823 41 95.4831 41Z" stroke="#4D336D" stroke-width="1.5" stroke-miterlimit="10"/>
<path d="M182 171H183" stroke="#210049" stroke-width="1.684" stroke-linecap="round" stroke-linejoin="round"/>
<path d="M186 169L187 168" stroke="#210049" stroke-width="1.684" stroke-linecap="round" stroke-linejoin="round"/>
<path d="M186 172L185 171" stroke="#210049" stroke-width="1.684" stroke-linecap="round" stroke-linejoin="round"/>
<path d="M184 169L183 167" stroke="#210049" stroke-width="1.684" stroke-linecap="round" stroke-linejoin="round"/>
<path d="M59 42L60 41" stroke="#210049" stroke-width="1.684" stroke-linecap="round" stroke-linejoin="round"/>
<path d="M62 39H63" stroke="#210049" stroke-width="1.684" stroke-linecap="round" stroke-linejoin="round"/>
<path d="M63 43L62 42" stroke="#210049" stroke-width="1.684" stroke-linecap="round" stroke-linejoin="round"/>
<path d="M60 39L59 38" stroke="#210049" stroke-width="1.684" stroke-linecap="round" stroke-linejoin="round"/>
<path d="M94 60V86" stroke="#4D336D" stroke-width="2" stroke-linecap="round" stroke-linejoin="round"/>
<path d="M94 95V112" stroke="#4D336D" stroke-width="2" stroke-linecap="round" stroke-linejoin="round"/>
<defs>
<filter id="filter0_d" x="158" y="51" width="4" height="184" filterUnits="userSpaceOnUse" color-interpolation-filters="sRGB">
<feFlood flood-opacity="0" result="BackgroundImageFix"/>
<feColorMatrix in="SourceAlpha" type="matrix" values="0 0 0 0 0 0 0 0 0 0 0 0 0 0 0 0 0 0 127 0"/>
<feOffset dy="2"/>
<feColorMatrix type="matrix" values="0 0 0 0 0 0 0 0 0 0 0 0 0 0 0 0 0 0 0.25 0"/>
<feBlend mode="normal" in2="BackgroundImageFix" result="effect1_dropShadow"/>
<feBlend mode="normal" in="SourceGraphic" in2="effect1_dropShadow" result="shape"/>
</filter>
</defs>
</svg>
