<svg width="88" height="88" viewBox="0 0 88 88" fill="none" xmlns="http://www.w3.org/2000/svg">
<path d="M22.0073 81.0919L2.52126 31.8315C1.00778 27.9549 2.89963 23.5111 6.77791 21.9983L56.1551 2.52102C60.0334 1.00823 64.4792 2.89922 65.9927 6.77576L85.4787 56.2253C86.9922 60.1019 85.1004 64.5457 81.2221 66.0585L31.8449 85.4412C27.872 87.0485 23.5208 85.063 22.0073 81.0919Z" fill="#D9F5EC"/>
<path d="M81.5057 46.0137C73.8438 47.621 65.3304 45.3518 57.8577 48.2829C53.601 49.9848 50.1957 53.294 46.6012 56.036C42.1553 59.3452 37.2365 60.6689 31.7502 60.858C25.8854 61.0471 19.8315 60.5743 14.0614 61.0471L15.8587 65.68C22.9531 65.2073 30.1421 66.3419 37.1419 65.3964C41.1148 64.8291 44.8039 63.4108 48.0201 61.0471C52.1821 58.116 55.7766 54.3341 60.5062 52.6322C67.7899 50.1739 75.9248 52.3485 83.3976 50.7412L81.5057 46.0137Z" fill="#B4EBDA"/>
<path d="M36.1015 53.6722C44.331 51.4976 49.3444 43.2718 57.0064 40.2462C63.6279 37.5988 71.2898 39.3007 77.7221 36.4642L76.0194 31.9258C69.0196 35.235 60.0333 32.8713 53.0335 36.6533C48.966 38.8279 45.6553 42.2317 42.0608 45.0682C37.7096 48.3774 32.9799 49.7011 27.5882 49.6066C21.4397 49.512 15.0074 47.9047 8.85889 47.3374L10.7507 52.254C19.1695 53.1995 27.8719 55.8469 36.1015 53.6722Z" fill="#B4EBDA"/>
<path d="M6.77833 42.2313C12.8322 42.2313 19.0753 42.8932 24.9401 42.0423C28.9129 41.475 32.602 40.0567 35.8182 37.693C39.9802 34.7619 43.5748 30.9799 48.3044 29.278C56.5339 26.5361 65.8985 29.6562 73.9389 26.4415L72.1416 21.8086C63.7229 24.9287 53.9799 21.5249 45.6558 24.9287C41.3991 26.6306 37.9938 29.9399 34.3993 32.6818C29.9535 35.9911 25.0347 37.3148 19.5483 37.5039C14.6295 37.693 9.80529 37.3148 4.98108 37.5039L6.77833 42.2313Z" fill="#B4EBDA"/>
<g opacity="0.01">
<g opacity="0.2">
<rect x="10" y="8" width="3" height="72.0002" stroke="#210049" stroke-width="0.09375"/>
<rect x="13" y="8" width="3" height="72.0003" stroke="#210049" stroke-width="0.09375"/>
<rect x="16" y="8" width="3" height="72.0003" stroke="#210049" stroke-width="0.09375"/>
<rect x="19" y="8" width="3" height="72.0003" stroke="#210049" stroke-width="0.09375"/>
<rect x="22" y="8" width="3" height="72.0003" stroke="#210049" stroke-width="0.09375"/>
<rect x="25" y="8" width="3" height="72.0003" stroke="#210049" stroke-width="0.09375"/>
<rect x="28" y="8" width="3" height="72.0003" stroke="#210049" stroke-width="0.09375"/>
<rect x="31" y="8" width="3" height="72.0003" stroke="#210049" stroke-width="0.09375"/>
<rect x="34" y="8" width="3" height="72.0003" stroke="#210049" stroke-width="0.09375"/>
<rect x="37" y="8" width="3" height="72.0003" stroke="#210049" stroke-width="0.09375"/>
<rect x="40" y="8" width="3" height="72.0003" stroke="#210049" stroke-width="0.09375"/>
<rect x="43" y="8" width="3" height="72.0003" stroke="#210049" stroke-width="0.09375"/>
<rect x="46" y="8" width="2.99999" height="72.0003" stroke="#210049" stroke-width="0.09375"/>
<rect x="49" y="8" width="3" height="72.0003" stroke="#210049" stroke-width="0.09375"/>
<rect x="52" y="8" width="2.99999" height="72.0003" stroke="#210049" stroke-width="0.09375"/>
<rect x="55" y="8" width="3" height="72.0003" stroke="#210049" stroke-width="0.09375"/>
<rect x="57.9999" y="8" width="3" height="72.0003" stroke="#210049" stroke-width="0.09375"/>
<rect x="61" y="8" width="2.99999" height="72.0003" stroke="#210049" stroke-width="0.09375"/>
<rect x="64" y="8" width="3" height="72.0003" stroke="#210049" stroke-width="0.09375"/>
<rect x="66.9999" y="8" width="2.99999" height="72.0003" stroke="#210049" stroke-width="0.09375"/>
<rect x="70" y="8" width="2.99999" height="72.0003" stroke="#210049" stroke-width="0.09375"/>
<rect x="73" y="8" width="3" height="72.0003" stroke="#210049" stroke-width="0.09375"/>
<rect x="75.9999" y="8" width="3" height="72.0003" stroke="#210049" stroke-width="0.09375"/>
<rect x="79" y="8" width="3.00001" height="72.0003" stroke="#210049" stroke-width="0.09375"/>
<rect x="10" y="80.001" width="3.00074" height="72" transform="rotate(-90 10 80.001)" stroke="#210049" stroke-width="0.09375"/>
<rect x="10" y="77" width="3" height="72" transform="rotate(-90 10 77)" stroke="#210049" stroke-width="0.09375"/>
<rect x="10" y="74" width="2.99999" height="72" transform="rotate(-90 10 74)" stroke="#210049" stroke-width="0.09375"/>
<rect x="10" y="71" width="2.99999" height="72" transform="rotate(-90 10 71)" stroke="#210049" stroke-width="0.09375"/>
<rect x="10" y="68" width="2.99999" height="72" transform="rotate(-90 10 68)" stroke="#210049" stroke-width="0.09375"/>
<rect x="10" y="65" width="2.99999" height="72" transform="rotate(-90 10 65)" stroke="#210049" stroke-width="0.09375"/>
<rect x="10" y="62" width="3" height="72" transform="rotate(-90 10 62)" stroke="#210049" stroke-width="0.09375"/>
<rect x="10" y="59" width="2.99999" height="72" transform="rotate(-90 10 59)" stroke="#210049" stroke-width="0.09375"/>
<rect x="10" y="56" width="3" height="72" transform="rotate(-90 10 56)" stroke="#210049" stroke-width="0.09375"/>
<rect x="10" y="53" width="2.99999" height="72" transform="rotate(-90 10 53)" stroke="#210049" stroke-width="0.09375"/>
<rect x="10" y="50" width="2.99999" height="72" transform="rotate(-90 10 50)" stroke="#210049" stroke-width="0.09375"/>
<rect x="10" y="47" width="3" height="72" transform="rotate(-90 10 47)" stroke="#210049" stroke-width="0.09375"/>
<rect x="10" y="44" width="2.99999" height="72" transform="rotate(-90 10 44)" stroke="#210049" stroke-width="0.09375"/>
<rect x="10" y="41" width="3" height="72" transform="rotate(-90 10 41)" stroke="#210049" stroke-width="0.09375"/>
<rect x="10" y="38" width="2.99999" height="72" transform="rotate(-90 10 38)" stroke="#210049" stroke-width="0.09375"/>
<rect x="10" y="35" width="3" height="72" transform="rotate(-90 10 35)" stroke="#210049" stroke-width="0.09375"/>
<rect x="10" y="32" width="3" height="72" transform="rotate(-90 10 32)" stroke="#210049" stroke-width="0.09375"/>
<rect x="10" y="29" width="3" height="72" transform="rotate(-90 10 29)" stroke="#210049" stroke-width="0.09375"/>
<rect x="10" y="26" width="3" height="72" transform="rotate(-90 10 26)" stroke="#210049" stroke-width="0.09375"/>
<rect x="10" y="23" width="3" height="72" transform="rotate(-90 10 23)" stroke="#210049" stroke-width="0.09375"/>
<rect x="10" y="20" width="3" height="72" transform="rotate(-90 10 20)" stroke="#210049" stroke-width="0.09375"/>
<rect x="10" y="17" width="3" height="72" transform="rotate(-90 10 17)" stroke="#210049" stroke-width="0.09375"/>
<rect x="10" y="14" width="3" height="72" transform="rotate(-90 10 14)" stroke="#210049" stroke-width="0.09375"/>
<rect x="10" y="11" width="3" height="72" transform="rotate(-90 10 11)" stroke="#210049" stroke-width="0.09375"/>
</g>
<ellipse cx="46" cy="44" rx="12" ry="12" stroke="#210049" stroke-width="0.09375"/>
<path d="M10 8H82M10 8V80M10 8L82 80M82 8V80M82 8L10 80M82 80H10" stroke="#210049" stroke-width="0.09375"/>
<g style="mix-blend-mode:multiply">
<ellipse cx="45.9999" cy="43.9999" rx="29.9999" ry="29.9999" stroke="#F04925" stroke-width="0.09375"/>
</g>
<g style="mix-blend-mode:multiply">
<rect x="16" y="20" width="59.9999" height="48" rx="1.3125" stroke="#F04925" stroke-width="0.09375"/>
</g>
<g style="mix-blend-mode:multiply">
<rect x="70" y="14" width="59.9998" height="48" rx="1.3125" transform="rotate(90 70 14)" stroke="#F04925" stroke-width="0.09375"/>
</g>
<g style="mix-blend-mode:multiply">
<rect x="73" y="17" width="53.9998" height="53.9999" rx="1.3125" transform="rotate(90 73 17)" stroke="#F04925" stroke-width="0.09375"/>
</g>
</g>
<path d="M40.75 26.5C40.75 24.0147 38.6723 22 36.1094 22H20.6406C18.0777 22 16 24.0147 16 26.5V62.5C16 64.9853 18.0777 67 20.6406 67H36.1094C38.6723 67 40.75 64.9853 40.75 62.5V43.375" stroke="#210049" stroke-width="2" stroke-linecap="round" stroke-linejoin="round"/>
<path d="M54.125 22H67.875C70.1532 22 72 23.7909 72 26V58C72 60.2091 70.1532 62 67.875 62H54.125C51.8468 62 50 60.2091 50 58V49.5V26C50 23.7909 51.8468 22 54.125 22Z" stroke="#210049" stroke-width="2" stroke-linecap="round" stroke-linejoin="round"/>
<path d="M47.5212 31.4981C47.1015 31.987 46.8697 32.6217 46.8697 33.2816C46.8697 33.9415 47.1015 34.5809 47.5212 35.0785M46.1518 30.0535C45.3699 30.9191 44.9349 32.066 44.9349 33.2619C44.9349 34.4579 45.3699 35.6137 46.1518 36.4954M44.6394 28.7666C43.5835 29.9922 43 31.5852 43 33.2421C43 34.899 43.5835 36.504 44.6394 37.7512" stroke="#210049" stroke-width="1.5" stroke-linecap="round" stroke-linejoin="round"/>
<path d="M34.75 34.5651C35.2387 33.9958 35.5086 33.2569 35.5086 32.4885C35.5086 31.72 35.2387 30.9756 34.75 30.3962M36.3445 36.2471C37.255 35.2393 37.7615 33.9039 37.7615 32.5113C37.7615 31.1187 37.255 29.7729 36.3445 28.7464M38.1056 37.7456C39.335 36.3186 40.0144 34.4637 40.0144 32.5345C40.0144 30.6052 39.335 28.7364 38.1056 27.2841" stroke="#210049" stroke-width="1.5" stroke-linecap="round" stroke-linejoin="round"/>
<circle cx="56.125" cy="31.375" r="0.625" fill="#210049" stroke="#210049"/>
<circle cx="56.125" cy="36.625" r="0.625" fill="#210049" stroke="#210049"/>
<circle cx="56.125" cy="26.125" r="0.625" fill="#210049" stroke="#210049"/>
<path fill-rule="evenodd" clip-rule="evenodd" d="M28.7501 28C26.7034 28 25.0442 29.6592 25.0442 31.7059V34.7941C25.0442 36.8408 26.7034 38.5 28.7501 38.5C30.7968 38.5 32.456 36.8408 32.456 34.7941V31.7059C32.456 29.6592 30.7968 28 28.7501 28ZM28.7492 32.3234C29.4314 32.324 29.9849 31.7714 29.9855 31.0891C29.986 30.4069 29.4334 29.8534 28.7512 29.8528C28.0689 29.8523 27.5154 30.4049 27.5149 31.0872C27.5144 31.7694 28.067 32.3229 28.7492 32.3234ZM28.7492 36.0293C29.4314 36.0299 29.9849 35.4772 29.9855 34.795C29.986 34.1128 29.4334 33.5593 28.7512 33.5587C28.0689 33.5582 27.5154 34.1108 27.5149 34.793C27.5144 35.4753 28.067 36.0288 28.7492 36.0293Z" fill="#210049"/>
<path d="M54.4526 58.066C54.1486 58.066 53.8646 58.012 53.6006 57.904C53.3366 57.792 53.1046 57.638 52.9046 57.442C52.7086 57.242 52.5546 57.012 52.4426 56.752C52.3346 56.488 52.2806 56.204 52.2806 55.9C52.2806 55.596 52.3346 55.314 52.4426 55.054C52.5546 54.79 52.7086 54.56 52.9046 54.364C53.1046 54.164 53.3366 54.01 53.6006 53.902C53.8646 53.79 54.1486 53.734 54.4526 53.734C54.7726 53.734 55.0766 53.8 55.3646 53.932C55.6566 54.064 55.8986 54.248 56.0906 54.484L55.6106 54.952C55.4626 54.764 55.2886 54.622 55.0886 54.526C54.8886 54.43 54.6766 54.382 54.4526 54.382C54.1806 54.382 53.9366 54.448 53.7206 54.58C53.5046 54.712 53.3326 54.894 53.2046 55.126C53.0806 55.354 53.0186 55.612 53.0186 55.9C53.0186 56.188 53.0806 56.446 53.2046 56.674C53.3326 56.902 53.5046 57.084 53.7206 57.22C53.9366 57.352 54.1806 57.418 54.4526 57.418C54.6766 57.418 54.8886 57.37 55.0886 57.274C55.2886 57.174 55.4626 57.032 55.6106 56.848L56.0906 57.316C55.8986 57.552 55.6566 57.736 55.3646 57.868C55.0766 58 54.7726 58.066 54.4526 58.066ZM56.7305 58V54.994H57.4085V58H56.7305ZM56.5925 54.448L57.3305 53.65H58.1825L57.1865 54.448H56.5925ZM59.1123 58L57.8883 54.994H58.6263L59.4663 57.178L60.3003 54.994H61.0083L59.7723 58H59.1123ZM61.8302 54.382C61.7142 54.382 61.6142 54.342 61.5302 54.262C61.4502 54.178 61.4102 54.08 61.4102 53.968C61.4102 53.852 61.4502 53.754 61.5302 53.674C61.6142 53.59 61.7142 53.548 61.8302 53.548C61.9462 53.548 62.0442 53.59 62.1242 53.674C62.2082 53.754 62.2502 53.852 62.2502 53.968C62.2502 54.08 62.2082 54.178 62.1242 54.262C62.0442 54.342 61.9462 54.382 61.8302 54.382ZM61.4882 58V54.994H62.1662V58H61.4882ZM64.3859 58.054C64.1019 58.054 63.8439 57.986 63.6119 57.85C63.3839 57.71 63.2019 57.524 63.0659 57.292C62.9339 57.056 62.8679 56.792 62.8679 56.5C62.8679 56.208 62.9339 55.946 63.0659 55.714C63.2019 55.478 63.3839 55.292 63.6119 55.156C63.8439 55.016 64.1019 54.946 64.3859 54.946C64.6219 54.946 64.8439 54.99 65.0519 55.078C65.2599 55.166 65.4379 55.292 65.5859 55.456L65.1659 55.894C64.9539 55.658 64.7019 55.54 64.4099 55.54C64.2499 55.54 64.1039 55.582 63.9719 55.666C63.8399 55.75 63.7359 55.866 63.6599 56.014C63.5839 56.158 63.5459 56.32 63.5459 56.5C63.5459 56.68 63.5839 56.844 63.6599 56.992C63.7359 57.136 63.8399 57.25 63.9719 57.334C64.1039 57.418 64.2499 57.46 64.4099 57.46C64.7019 57.46 64.9539 57.344 65.1659 57.112L65.5859 57.544C65.4379 57.704 65.2599 57.83 65.0519 57.922C64.8439 58.01 64.6219 58.054 64.3859 58.054ZM67.0586 58.054C66.8506 58.054 66.6646 58.016 66.5006 57.94C66.3406 57.86 66.2146 57.752 66.1226 57.616C66.0346 57.476 65.9906 57.316 65.9906 57.136C65.9906 56.864 66.0946 56.65 66.3026 56.494C66.5106 56.334 66.7906 56.254 67.1426 56.254C67.4266 56.254 67.6966 56.318 67.9526 56.446V56.11C67.9526 55.71 67.7226 55.51 67.2626 55.51C67.0146 55.51 66.7226 55.588 66.3866 55.744L66.1466 55.252C66.3706 55.148 66.5846 55.072 66.7886 55.024C66.9926 54.972 67.1946 54.946 67.3946 54.946C67.7866 54.946 68.0886 55.042 68.3006 55.234C68.5166 55.422 68.6246 55.69 68.6246 56.038V58H67.9526V57.688C67.7046 57.932 67.4066 58.054 67.0586 58.054ZM66.6266 57.124C66.6266 57.26 66.6826 57.37 66.7946 57.454C66.9066 57.534 67.0566 57.574 67.2446 57.574C67.5206 57.574 67.7566 57.49 67.9526 57.322V56.836C67.7486 56.74 67.5186 56.692 67.2626 56.692C67.0666 56.692 66.9106 56.73 66.7946 56.806C66.6826 56.882 66.6266 56.988 66.6266 57.124Z" fill="#210049"/>
</svg>
