<svg width="32" height="32" viewBox="0 0 32 32" fill="none" xmlns="http://www.w3.org/2000/svg">
<path d="M23.2 10.6667H26C27.1046 10.6667 28 9.77126 28 8.66669V4.66669C28 3.56212 27.1046 2.66669 26 2.66669H6C4.89543 2.66669 4 3.56212 4 4.66669V8.66669C4 9.77126 4.89543 10.6667 6 10.6667H8.8" stroke="#4376FF" stroke-width="1.5"/>
<path d="M8 7.42857L8 27.2381C8 27.6589 8.44771 28 9 28L23 28C23.5523 28 24 27.6589 24 27.2381L24 7.42857C24 7.00778 23.5523 6.66667 23 6.66667L9 6.66667C8.44771 6.66667 8 7.00778 8 7.42857Z" stroke="#4376FF" stroke-width="1.5" stroke-linejoin="round"/>
<path d="M11 14C11 16.7614 13.2386 19 16 19C18.7614 19 21 16.7614 21 14C21 11.2386 18.7614 9 16 9C13.2386 9 11 11.2386 11 14Z" stroke="#4376FF" stroke-width="1.5" stroke-linecap="round" stroke-linejoin="round"/>
<path d="M13.3331 13.6361L13.3331 14.0729L13.8806 14.0729C13.9263 15.0898 14.4347 15.709 15.2104 15.709C15.8557 15.709 16.1882 15.3244 16.3642 14.4249L16.4229 14.0729L17.4593 14.0729C17.4006 14.4314 17.2507 14.803 17.0095 15.2071L17.694 15.5852C17.9743 15.1354 18.1568 14.6009 18.2089 14.0729L18.7695 14.0729L18.7695 13.6361L18.2285 13.6361C18.2024 12.691 17.707 12.0978 16.9248 12.0978C16.2403 12.0978 15.9079 12.4367 15.7515 13.2841L15.6797 13.6361L14.6303 13.6361C14.6955 13.2059 14.904 12.7953 15.2235 12.4628L14.5912 12C14.1935 12.4237 13.9458 13.0039 13.8937 13.6361L13.3331 13.6361ZM16.475 13.6361L16.4815 13.5514C16.5467 13.0821 16.6771 12.9256 16.9965 12.9256C17.2898 12.9256 17.4789 13.1994 17.4919 13.6361L16.475 13.6361ZM14.5977 14.0729L15.6406 14.0729L15.6211 14.1641C15.5363 14.7117 15.432 14.8486 15.1322 14.8486C14.8323 14.8486 14.6303 14.5422 14.5977 14.0729Z" fill="#4376FF"/>
<path d="M19 28C19 26.6739 19.5268 25.4021 20.4645 24.4645C21.4021 23.5268 22.6739 23 24 23" stroke="#4376FF" stroke-width="1.5" stroke-linecap="round" stroke-linejoin="round"/>
<path d="M13 28C13 26.6739 12.4732 25.4021 11.5355 24.4645C10.5978 23.5268 9.32608 23 8 23" stroke="#4376FF" stroke-width="1.5" stroke-linecap="round" stroke-linejoin="round"/>
</svg>
