<svg width="48" height="48" viewBox="0 0 48 48" fill="none" xmlns="http://www.w3.org/2000/svg">
<path fill-rule="evenodd" clip-rule="evenodd" d="M21.6218 45.0152L2.98481 26.3782C1.67173 25.0651 1.67173 22.9357 2.98481 21.6227L21.6218 2.98481C22.9349 1.67173 25.0643 1.67173 26.3773 2.98481L45.0152 21.6227C46.3283 22.9357 46.3283 25.0651 45.0152 26.3782L26.3773 45.0152C25.0643 46.3283 22.9349 46.3283 21.6218 45.0152" fill="#FDE7D3"/>
<path d="M29.4 20H31C32.1046 20 33 19.1046 33 18V16C33 14.8954 32.1046 14 31 14H17C15.8954 14 15 14.8954 15 16V18C15 19.1046 15.8954 20 17 20H18.6" stroke="#210049" stroke-width="1.5"/>
<path d="M18 17.5714L18 32.4286C18 32.7442 18.3358 33 18.75 33L29.25 33C29.6642 33 30 32.7442 30 32.4286L30 17.5714C30 17.2558 29.6642 17 29.25 17L18.75 17C18.3358 17 18 17.2558 18 17.5714Z" stroke="#210049" stroke-width="1.5" stroke-linejoin="round"/>
<path d="M20.25 22.5C20.25 24.5711 21.9289 26.25 24 26.25C26.0711 26.25 27.75 24.5711 27.75 22.5C27.75 20.4289 26.0711 18.75 24 18.75C21.9289 18.75 20.25 20.4289 20.25 22.5Z" stroke="#210049" stroke-width="1.5" stroke-linecap="round" stroke-linejoin="round"/>
<path d="M21.9998 22.2271L21.9998 22.5547L22.4105 22.5547C22.4447 23.3173 22.826 23.7818 23.4078 23.7818C23.8918 23.7818 24.1411 23.4933 24.2731 22.8187L24.3171 22.5547L25.0945 22.5547C25.0505 22.8236 24.938 23.1022 24.7571 23.4053L25.2705 23.6889C25.4807 23.3516 25.6176 22.9507 25.6567 22.5547L26.0771 22.5547L26.0771 22.2271L25.6714 22.2271C25.6518 21.5182 25.2803 21.0733 24.6936 21.0733C24.1803 21.0733 23.9309 21.3276 23.8136 21.9631L23.7598 22.2271L22.9727 22.2271C23.0216 21.9044 23.178 21.5964 23.4176 21.3471L22.9434 21C22.6451 21.3178 22.4594 21.7529 22.4203 22.2271L21.9998 22.2271ZM24.3563 22.2271L24.3611 22.1636C24.41 21.8116 24.5078 21.6942 24.7474 21.6942C24.9674 21.6942 25.1091 21.8996 25.1189 22.2271L24.3563 22.2271ZM22.9483 22.5547L23.7305 22.5547L23.7158 22.6231C23.6523 23.0338 23.574 23.1364 23.3491 23.1364C23.1243 23.1364 22.9727 22.9067 22.9483 22.5547Z" fill="#210049"/>
<path d="M26.25 33C26.25 32.0054 26.6451 31.0516 27.3483 30.3483C28.0516 29.6451 29.0054 29.25 30 29.25" stroke="#210049" stroke-width="1.5" stroke-linecap="round" stroke-linejoin="round"/>
<path d="M21.75 33C21.75 32.0054 21.3549 31.0516 20.6517 30.3483C19.9484 29.6451 18.9946 29.25 18 29.25" stroke="#210049" stroke-width="1.5" stroke-linecap="round" stroke-linejoin="round"/>
</svg>
