<svg width="48" height="48" viewBox="0 0 48 48" fill="none" xmlns="http://www.w3.org/2000/svg">
<path fill-rule="evenodd" clip-rule="evenodd" d="M21.6218 45.0152L2.98481 26.3782C1.67173 25.0651 1.67173 22.9357 2.98481 21.6227L21.6218 2.98481C22.9349 1.67173 25.0643 1.67173 26.3773 2.98481L45.0152 21.6227C46.3283 22.9357 46.3283 25.0651 45.0152 26.3782L26.3773 45.0152C25.0643 46.3283 22.9349 46.3283 21.6218 45.0152Z" fill="#D9E4FF"/>
<path d="M18 32.4C18 31.0745 19.0745 30 20.4 30H25.6C26.9255 30 28 31.0745 28 32.4V32.4C28 32.7314 27.7314 33 27.4 33H18.6C18.2686 33 18 32.7314 18 32.4V32.4Z" stroke="#210049"/>
<path d="M25.8145 21.8182H21C18.7909 21.8182 17 23.609 17 25.8182V26C17 28.2091 18.7909 30 21 30H24.1585C26.8663 30 29.3903 28.6302 30.8661 26.3599L33.9912 21.5521C34.4256 20.8838 33.9459 20 33.1489 20C33.0502 20 32.952 20.0145 32.8575 20.0432L28.1346 21.4744C27.3823 21.7023 26.6005 21.8182 25.8145 21.8182Z" stroke="#210049"/>
<path d="M17 24.75C17 23.7835 16.3284 23 15.5 23C14.6716 23 14 23.7835 14 24.75C14 25.7165 14.75 26.0625 15.5 26.5C16.25 26.9375 17 27.2835 17 28.25C17 29.2165 16.3284 30 15.5 30" stroke="#210049" stroke-linecap="round"/>
<path d="M20 22C20 21.5226 20.3161 20.8648 20.8787 20.5272C21.4413 20.1896 22.2044 20 23 20C23.7956 20 24.5587 20.1896 25.1213 20.5272C25.6839 20.8648 26 21.5226 26 22" stroke="#210049"/>
<rect x="23.1211" y="16.7071" width="2" height="2" rx="1" transform="rotate(45 23.1211 16.7071)" stroke="#210049"/>
<path d="M31.7876 18.0068C30.6341 17.1886 32.4381 15.8674 31.2845 15.0493" stroke="#210049" stroke-linecap="round"/>
<path d="M33.2856 18.0097C32.4441 16.8731 34.5698 16.1792 33.7283 15.0426" stroke="#210049" stroke-linecap="round"/>
</svg>
