<svg width="48" height="48" viewBox="0 0 48 48" fill="none" xmlns="http://www.w3.org/2000/svg">
<path fill-rule="evenodd" clip-rule="evenodd" d="M21.6218 45.0152L2.98481 26.3782C1.67173 25.0651 1.67173 22.9357 2.98481 21.6227L21.6218 2.98481C22.9349 1.67173 25.0643 1.67173 26.3773 2.98481L45.0152 21.6227C46.3283 22.9357 46.3283 25.0651 45.0152 26.3782L26.3773 45.0152C25.0643 46.3283 22.9349 46.3283 21.6218 45.0152Z" fill="#D9F5EC"/>
<path d="M14.25 27.75L33.75 27.75C34.1642 27.75 34.5 27.4142 34.5 27V16.5C34.5 16.0858 34.1642 15.75 33.75 15.75L14.25 15.75C13.8358 15.75 13.5 16.0858 13.5 16.5V27C13.5 27.4142 13.8358 27.75 14.25 27.75Z" stroke="#210049" stroke-linejoin="round"/>
<path d="M15 30H33" stroke="#210049" stroke-linecap="round" stroke-linejoin="round"/>
<path d="M16.5 32.25H31.5" stroke="#210049" stroke-linecap="round" stroke-linejoin="round"/>
<path d="M24 25.5C26.0711 25.5 27.75 23.8211 27.75 21.75C27.75 19.6789 26.0711 18 24 18C21.9289 18 20.25 19.6789 20.25 21.75C20.25 23.8211 21.9289 25.5 24 25.5Z" stroke="#210049" stroke-linecap="round" stroke-linejoin="round"/>
<path d="M34.5 19.5C33.5054 19.5 32.5516 19.1049 31.8483 18.4017C31.1451 17.6984 30.75 16.7446 30.75 15.75" stroke="#210049" stroke-linecap="round" stroke-linejoin="round"/>
<path d="M13.5 19.5C13.9925 19.5 14.4801 19.403 14.9351 19.2145C15.39 19.0261 15.8034 18.7499 16.1517 18.4017C16.4999 18.0534 16.7761 17.64 16.9645 17.1851C17.153 16.7301 17.25 16.2425 17.25 15.75" stroke="#210049" stroke-linecap="round" stroke-linejoin="round"/>
<path d="M34.5 24C33.5054 24 32.5516 24.3951 31.8483 25.0983C31.1451 25.8016 30.75 26.7554 30.75 27.75" stroke="#210049" stroke-linecap="round" stroke-linejoin="round"/>
<path d="M13.5 24C13.9925 24 14.4801 24.097 14.9351 24.2855C15.39 24.4739 15.8034 24.7501 16.1517 25.0983C16.4999 25.4466 16.7761 25.86 16.9645 26.3149C17.153 26.7699 17.25 27.2575 17.25 27.75" stroke="#210049" stroke-linecap="round" stroke-linejoin="round"/>
</svg>
