<svg width="88" height="88" viewBox="0 0 88 88" fill="none" xmlns="http://www.w3.org/2000/svg">
<path d="M22.0073 81.0919L2.52126 31.8315C1.00778 27.9549 2.89963 23.5111 6.77791 21.9983L56.1551 2.52102C60.0334 1.00823 64.4792 2.89922 65.9927 6.77576L85.4787 56.2253C86.9922 60.1019 85.1004 64.5457 81.2221 66.0585L31.8449 85.4412C27.872 87.0485 23.5208 85.063 22.0073 81.0919Z" fill="#D5F4F7"/>
<path d="M81.5059 46.0137C73.8439 47.621 65.3306 45.3518 57.8578 48.2829C53.6011 49.9848 50.1958 53.294 46.6013 56.036C42.1554 59.3452 37.2366 60.6689 31.7503 60.858C25.8856 61.0471 19.8317 60.5743 14.0615 61.0471L15.8588 65.68C22.9532 65.2073 30.1422 66.3419 37.1421 65.3964C41.1149 64.8291 44.804 63.4108 48.0202 61.0471C52.1822 58.116 55.7767 54.3341 60.5064 52.6322C67.79 50.1739 75.9249 52.3485 83.3977 50.7412L81.5059 46.0137Z" fill="#ACEAEF"/>
<path d="M36.102 53.6722C44.3315 51.4976 49.3449 43.2718 57.0069 40.2462C63.6283 37.5988 71.2903 39.3007 77.7226 36.4642L76.0199 31.9258C69.0201 35.235 60.0338 32.8713 53.034 36.6533C48.9665 38.8279 45.6558 42.2317 42.0613 45.0682C37.71 48.3774 32.9804 49.7011 27.5887 49.6066C21.4402 49.512 15.0079 47.9047 8.85938 47.3374L10.7512 52.254C19.1699 53.1995 27.8724 55.8469 36.102 53.6722Z" fill="#ACEAEF"/>
<path d="M6.7787 42.2318C12.8326 42.2318 19.0757 42.8937 24.9404 42.0427C28.9133 41.4754 32.6024 40.0572 35.8185 37.6934C39.9806 34.7624 43.5751 30.9804 48.3047 29.2785C56.5343 26.5366 65.8989 29.6567 73.9393 26.442L72.142 21.8091C63.7233 24.9292 53.9803 21.5254 45.6562 24.9292C41.3995 26.6311 37.9942 29.9404 34.3997 32.6823C29.9538 35.9916 25.035 37.3152 19.5487 37.5043C14.6299 37.6934 9.80565 37.3152 4.98145 37.5043L6.7787 42.2318Z" fill="#ACEAEF"/>
<path d="M27 66.7935C27 63.3571 29.7858 60.5713 33.2222 60.5713H47.7778C51.2142 60.5713 54 63.3571 54 66.7935V66.7935C54 67.2231 53.6518 67.5713 53.2222 67.5713H27.7778C27.3482 67.5713 27 67.2231 27 66.7935V66.7935Z" stroke="#210049" stroke-width="2"/>
<path d="M48.663 38.4804H36.0455C29.9452 38.4804 25 43.4256 25 49.5258C25 55.6261 29.9452 60.5713 36.0455 60.5713H41.7664C50.0193 60.5713 57.6933 56.3309 62.0854 49.3438L69.4374 37.6479C70.5512 35.876 69.2777 33.5713 67.1849 33.5713C66.915 33.5713 66.6468 33.6123 66.3893 33.693L53.4472 37.7484C51.8988 38.2336 50.2856 38.4804 48.663 38.4804Z" stroke="#210049" stroke-width="2"/>
<path d="M25.5 45.5C25.5 42.7386 23.7091 40.5 21.5 40.5C19.2909 40.5 17 42.81 17 45.5714C17 48.3328 19 49.3214 21 50.5714C23 51.8214 25 52.81 25 55.5714C25 58.3328 23.2091 60.5714 21 60.5714" stroke="#210049" stroke-width="2" stroke-linecap="round"/>
<path d="M33 38.5713C33 37.3778 33.7902 35.7332 35.1967 34.8893C36.6032 34.0454 38.5109 33.5713 40.5 33.5713C42.4891 33.5713 44.3968 34.0454 45.8033 34.8893C47.2098 35.7332 48 37.3778 48 38.5713" stroke="#210049" stroke-width="2"/>
<rect x="40.8887" y="24.0334" width="5.85714" height="5.85714" rx="1" transform="rotate(45 40.8887 24.0334)" stroke="#210049" stroke-width="2"/>
<path d="M63.5863 27.875C60.565 25.7322 65.2898 22.2718 62.2686 20.1291" stroke="#210049" stroke-linecap="round"/>
<path d="M67.7476 28.154C65.7561 23.7533 71.5359 20.5122 69.5445 16.1115" stroke="#210049" stroke-linecap="round"/>
<path d="M71.7472 28.8827C69.5433 25.9058 75.1106 24.0884 72.9068 21.1115" stroke="#210049" stroke-linecap="round"/>
</svg>
