<svg width="32" height="32" viewBox="0 0 32 32" fill="none" xmlns="http://www.w3.org/2000/svg">
<path d="M21 1H11C9.34315 1 8 2.34315 8 4V28C8 29.6569 9.34315 31 11 31H21C22.6569 31 24 29.6569 24 28V4C24 2.34315 22.6569 1 21 1Z" stroke="#4376FF" stroke-width="1.5" stroke-linecap="round" stroke-linejoin="round"/>
<path d="M11 1H12.5C12.6326 1 12.7598 1.05268 12.8536 1.14645C12.9473 1.24021 13 1.36739 13 1.5C13 1.76522 13.1054 2.01957 13.2929 2.20711C13.4804 2.39464 13.7348 2.5 14 2.5H18C18.2652 2.5 18.5196 2.39464 18.7071 2.20711C18.8946 2.01957 19 1.76522 19 1.5C19 1.36739 19.0527 1.24021 19.1464 1.14645C19.2402 1.05268 19.3674 1 19.5 1H21" stroke="#4376FF" stroke-width="1.5" stroke-linecap="round" stroke-linejoin="round"/>
<path d="M21.3333 14.6666C21.3333 11.7222 18.9444 9.33331 16 9.33331C13.0556 9.33331 10.6667 11.7222 10.6667 14.6666C10.6667 17.6111 13.0556 20 16 20C18.9444 20 21.3333 17.6111 21.3333 14.6666Z" stroke="#4376FF" stroke-width="1.5" stroke-miterlimit="10"/>
<path d="M15.8974 17.4677H16.3342V16.9201C17.3511 16.8745 17.9703 16.3661 17.9703 15.5904C17.9703 14.945 17.5857 14.6126 16.6862 14.4366L16.3342 14.3779V13.3415C16.6927 13.4001 17.0642 13.5501 17.4684 13.7913L17.8465 13.1068C17.3967 12.8265 16.8622 12.644 16.3342 12.5918V12.0312H15.8974V12.5723C14.9522 12.5984 14.3591 13.0938 14.3591 13.876C14.3591 14.5604 14.698 14.8929 15.5454 15.0493L15.8974 15.121V16.1705C15.4672 16.1053 15.0565 15.8967 14.7241 15.5773L14.2613 16.2096C14.685 16.6073 15.2651 16.855 15.8974 16.9071V17.4677ZM15.8974 14.3258L15.8127 14.3193C15.3434 14.2541 15.1869 14.1237 15.1869 13.8043C15.1869 13.511 15.4607 13.3219 15.8974 13.3089V14.3258ZM16.3342 16.2031V15.1601L16.4254 15.1797C16.973 15.2644 17.1099 15.3687 17.1099 15.6686C17.1099 15.9684 16.8035 16.1705 16.3342 16.2031Z" fill="#4376FF"/>
</svg>
