<svg width="88" height="88" viewBox="0 0 88 88" fill="none" xmlns="http://www.w3.org/2000/svg">
  <path d="M22.0073 81.0919L2.52126 31.8315C1.00778 27.9549 2.89963 23.5111 6.77791 21.9983L56.1551 2.52102C60.0334 1.00823 64.4792 2.89922 65.9927 6.77576L85.4787 56.2253C86.9922 60.1019 85.1004 64.5457 81.2221 66.0585L31.8449 85.4412C27.872 87.0485 23.5208 85.063 22.0073 81.0919Z" fill="#FFDADB"/>
  <path d="M81.5059 46.0139C73.8439 47.6213 65.3306 45.3521 57.8578 48.2831C53.6011 49.985 50.1958 53.2943 46.6013 56.0362C42.1554 59.3454 37.2366 60.6691 31.7503 60.8582C25.8856 61.0473 19.8317 60.5746 14.0615 61.0473L15.8588 65.6803C22.9532 65.2075 30.1422 66.3421 37.1421 65.3966C41.1149 64.8293 44.804 63.4111 48.0202 61.0473C52.1822 58.1163 55.7767 54.3343 60.5064 52.6324C67.79 50.1741 75.9249 52.3488 83.3977 50.7414L81.5059 46.0139Z" fill="#FFB3B6"/>
  <path d="M36.1015 53.6725C44.331 51.4978 49.3444 43.272 57.0064 40.2464C63.6279 37.599 71.2898 39.3009 77.7221 36.4644L76.0194 31.926C69.0196 35.2353 60.0333 32.8715 53.0335 36.6535C48.966 38.8282 45.6553 42.232 42.0608 45.0684C37.7096 48.3777 32.9799 49.7014 27.5882 49.6068C21.4397 49.5123 15.0074 47.9049 8.85889 47.3376L10.7507 52.2542C19.1695 53.1997 27.8719 55.8471 36.1015 53.6725Z" fill="#FFB3B6"/>
  <path d="M6.77821 42.2318C12.8321 42.2318 19.0752 42.8937 24.9399 42.0427C28.9128 41.4754 32.6019 40.0572 35.8181 37.6934C39.9801 34.7624 43.5746 30.9804 48.3042 29.2785C56.5338 26.5366 65.8984 29.6567 73.9388 26.442L72.1415 21.8091C63.7228 24.9292 53.9798 21.5254 45.6557 24.9292C41.399 26.6311 37.9937 29.9404 34.3992 32.6823C29.9533 35.9916 25.0345 37.3152 19.5482 37.5043C14.6294 37.6934 9.80517 37.3152 4.98096 37.5043L6.77821 42.2318Z" fill="#FFB3B6"/>
  <path d="M52.3561 46.406L59.8974 43.6612C61.8574 42.9478 62.8679 40.7806 62.1546 38.8206C61.4412 36.8607 59.274 35.8501 57.314 36.5635L46.3907 40.5392C43.1186 41.7302 43.4761 38.0835 40.8927 30.9858C38.3094 23.888 34.2325 21.3529 31.5375 22.3338C28.8426 23.3147 29.5625 26.5693 30.6927 29.6745C31.823 32.7798 33.2761 36.7722 33.1962 39.3132V39.3132C33.081 42.9737 30.2423 45.8924 28.8305 49.2717C27.3768 52.7509 26.4765 57.8723 29.4891 63.6345C33.7045 71.6973 40.3894 74.8754 47.8062 72.1759L64.9858 65.923C66.9458 65.2097 67.9563 63.0425 67.243 61.0825C66.5296 59.1225 64.3624 58.112 62.4024 58.8253L57.0792 60.7629L65.0641 57.8566C67.0241 57.1432 68.0346 54.976 67.3213 53.0161C66.6079 51.0561 64.4407 50.0455 62.4807 50.7589L54.4958 53.6652L65.1424 49.7901C67.1023 49.0767 68.1129 46.9096 67.3995 44.9496C66.6862 42.9896 64.519 41.979 62.559 42.6924L52.7997 46.2445" stroke="#210049" stroke-width="2" stroke-linecap="round" stroke-linejoin="round"/>
  <path d="M24.8445 28.789L19.5212 30.7266" stroke="#210049" stroke-linecap="round" stroke-linejoin="round"/>
  <path d="M46.1375 21.0388L40.8142 22.9763" stroke="#210049" stroke-linecap="round" stroke-linejoin="round"/>
  <path d="M27.9856 12.5744L29.9231 17.8977" stroke="#210049" stroke-linecap="round" stroke-linejoin="round"/>
  <path d="M38.8145 13.0472L36.4204 18.1814" stroke="#210049" stroke-linecap="round" stroke-linejoin="round"/>
  <path d="M19.994 19.8974L25.1282 22.2915" stroke="#210049" stroke-linecap="round" stroke-linejoin="round"/>
</svg>  