<svg width="48" height="48" viewBox="0 0 48 48" fill="none" xmlns="http://www.w3.org/2000/svg">
<path fill-rule="evenodd" clip-rule="evenodd" d="M21.6218 45.0152L2.98481 26.3782C1.67173 25.0651 1.67173 22.9357 2.98481 21.6227L21.6218 2.98481C22.9349 1.67173 25.0643 1.67173 26.3773 2.98481L45.0152 21.6227C46.3283 22.9357 46.3283 25.0651 45.0152 26.3782L26.3773 45.0152C25.0643 46.3283 22.9349 46.3283 21.6218 45.0152Z" fill="#D9E4FF"/>
<path d="M30.8438 19.875C30.7064 21.7814 29.2922 23.25 27.75 23.25C26.2079 23.25 24.7913 21.7819 24.6563 19.875C24.5157 17.8917 25.8924 16.5 27.75 16.5C29.6077 16.5 30.9844 17.9278 30.8438 19.875Z" stroke="#210049" stroke-linecap="round" stroke-linejoin="round"/>
<path d="M27.75 26.25C24.6952 26.25 21.7575 27.7673 21.0216 30.7223C20.9241 31.1133 21.1692 31.5 21.5709 31.5H33.9295C34.3312 31.5 34.575 31.1133 34.4789 30.7223C33.743 27.72 30.8053 26.25 27.75 26.25Z" stroke="#210049" stroke-miterlimit="10"/>
<path d="M21.375 20.7159C21.2653 22.2384 20.1225 23.4375 18.8906 23.4375C17.6587 23.4375 16.514 22.2389 16.4062 20.7159C16.2942 19.132 17.4065 18 18.8906 18C20.3746 18 21.487 19.1611 21.375 20.7159Z" stroke="#210049" stroke-linecap="round" stroke-linejoin="round"/>
<path d="M21.6562 26.3439C20.8101 25.9563 19.8783 25.8072 18.8906 25.8072C16.4531 25.8072 14.1047 27.0189 13.5164 29.3791C13.439 29.6913 13.635 30.0002 13.9556 30.0002H19.2187" stroke="#210049" stroke-miterlimit="10" stroke-linecap="round"/>
</svg>
