<svg width="88" height="88" viewBox="0 0 88 88" fill="none" xmlns="http://www.w3.org/2000/svg">
<path d="M22.0073 81.0919L2.52126 31.8315C1.00778 27.9549 2.89963 23.5111 6.77791 21.9983L56.1551 2.52102C60.0334 1.00823 64.4792 2.89922 65.9927 6.77576L85.4787 56.2253C86.9922 60.1019 85.1004 64.5457 81.2221 66.0585L31.8449 85.4412C27.872 87.0485 23.5208 85.063 22.0073 81.0919Z" fill="#FFD5E3"/>
<path d="M81.5049 46.0139C73.8429 47.6213 65.3296 45.3521 57.8568 48.2831C53.6001 49.985 50.1948 53.2943 46.6003 56.0362C42.1545 59.3454 37.2357 60.6691 31.7493 60.8582C25.8846 61.0473 19.8307 60.5746 14.0605 61.0473L15.8578 65.6803C22.9522 65.2075 30.1412 66.3421 37.1411 65.3966C41.114 64.8293 44.8031 63.4111 48.0192 61.0473C52.1813 58.1163 55.7758 54.3343 60.5054 52.6324C67.789 50.1741 75.9239 52.3488 83.3967 50.7414L81.5049 46.0139Z" fill="#FFACC7"/>
<path d="M36.102 53.6725C44.3315 51.4978 49.3449 43.272 57.0069 40.2464C63.6283 37.599 71.2903 39.3009 77.7226 36.4644L76.0199 31.926C69.0201 35.2353 60.0338 32.8715 53.034 36.6535C48.9665 38.8282 45.6558 42.232 42.0613 45.0684C37.71 48.3777 32.9804 49.7014 27.5887 49.6068C21.4402 49.5123 15.0079 47.9049 8.85938 47.3376L10.7512 52.2542C19.1699 53.1997 27.8724 55.8471 36.102 53.6725Z" fill="#FFACC7"/>
<path d="M6.77772 42.2318C12.8316 42.2318 19.0747 42.8937 24.9395 42.0427C28.9123 41.4754 32.6014 40.0572 35.8176 37.6934C39.9796 34.7624 43.5741 30.9804 48.3038 29.2785C56.5333 26.5366 65.8979 29.6567 73.9383 26.442L72.141 21.8091C63.7223 24.9292 53.9793 21.5254 45.6552 24.9292C41.3985 26.6311 37.9932 29.9404 34.3987 32.6823C29.9528 35.9916 25.034 37.3152 19.5477 37.5043C14.6289 37.6934 9.80468 37.3152 4.98047 37.5043L6.77772 42.2318Z" fill="#FFACC7"/>
<path d="M23.5809 52.4599L26.5822 21.424C26.77 19.4819 28.4021 18 30.3533 18C32.4457 18 34.1419 19.6962 34.1419 21.7886V24.303C34.1419 27.7841 36.9639 30.6061 40.4449 30.6061H48.2675C51.7485 30.6061 54.5705 27.7841 54.5705 24.303V21.7561C54.5705 19.6816 56.2521 18 58.3265 18C60.2868 18 61.9175 19.5076 62.0711 21.4618L64.5292 52.7467C65.26 62.0486 57.9089 70 48.5783 70H39.5067C30.0615 70 22.6718 61.8612 23.5809 52.4599Z" stroke="#210049" stroke-width="2"/>
<path d="M24.4043 45.9801L38.3849 30.5" stroke="#210049" stroke-width="2"/>
<path d="M50.3848 30L63.8848 45.5" stroke="#210049" stroke-width="2"/>
<path d="M23.9648 46.8773C27.6287 46.5553 35.9261 50.6777 39.8054 69.7438" stroke="#210049" stroke-width="2"/>
<path d="M64.4447 46.8894C60.4576 46.4768 51.2675 51.174 48.1641 69.7438" stroke="#210049" stroke-width="2"/>
<path d="M57.8848 44V60" stroke="#210049" stroke-linecap="round"/>
<rect x="54.8848" y="60" width="6" height="4" rx="2" stroke="#210049"/>
<path d="M38.8848 38.9391H50.8848" stroke="#210049" stroke-linecap="round"/>
<path d="M62.2461 21.7756C68.2597 27.2031 76.3528 41.5096 64.3843 57" stroke="#210049" stroke-width="2"/>
<path d="M26.6035 22.2166C20.1071 27.577 10.4547 41.2009 23.3841 56.5" stroke="#210049" stroke-width="2"/>
<path d="M20.1414 23.1412L16.5078 19.9457" stroke="#210049" stroke-linecap="round"/>
<path d="M18.5036 25.1883L14 23.5689" stroke="#210049" stroke-linecap="round"/>
<path d="M22.1878 21.5036L19.7207 17" stroke="#210049" stroke-linecap="round"/>
</svg>
