<svg width="88" height="88" viewBox="0 0 88 88" fill="none" xmlns="http://www.w3.org/2000/svg">
<path d="M22.0073 81.0919L2.52126 31.8315C1.00778 27.9549 2.89963 23.5111 6.77791 21.9983L56.1551 2.52102C60.0334 1.00823 64.4792 2.89922 65.9927 6.77576L85.4787 56.2253C86.9922 60.1019 85.1004 64.5457 81.2221 66.0585L31.8449 85.4412C27.872 87.0485 23.5208 85.063 22.0073 81.0919Z" fill="#FFDADB"/>
<path d="M81.5057 46.0139C73.8438 47.6213 65.3304 45.3521 57.8577 48.2831C53.601 49.985 50.1957 53.2943 46.6012 56.0362C42.1553 59.3454 37.2365 60.6691 31.7502 60.8582C25.8854 61.0473 19.8315 60.5746 14.0614 61.0473L15.8587 65.6803C22.9531 65.2075 30.1421 66.3421 37.1419 65.3966C41.1148 64.8293 44.8039 63.4111 48.0201 61.0473C52.1821 58.1163 55.7766 54.3343 60.5062 52.6324C67.7899 50.1741 75.9248 52.3488 83.3976 50.7414L81.5057 46.0139Z" fill="#FFB3B6"/>
<path d="M36.1015 53.6725C44.331 51.4978 49.3444 43.272 57.0064 40.2464C63.6279 37.599 71.2898 39.3009 77.7221 36.4644L76.0194 31.926C69.0196 35.2353 60.0333 32.8715 53.0335 36.6535C48.966 38.8282 45.6553 42.232 42.0608 45.0684C37.7096 48.3777 32.9799 49.7014 27.5882 49.6068C21.4397 49.5123 15.0074 47.9049 8.85889 47.3376L10.7507 52.2542C19.1695 53.1997 27.8719 55.8471 36.1015 53.6725Z" fill="#FFB3B6"/>
<path d="M6.77833 42.2318C12.8322 42.2318 19.0753 42.8937 24.9401 42.0427C28.9129 41.4754 32.602 40.0572 35.8182 37.6934C39.9802 34.7624 43.5748 30.9804 48.3044 29.2785C56.5339 26.5366 65.8985 29.6567 73.9389 26.442L72.1416 21.8091C63.7229 24.9292 53.9799 21.5254 45.6558 24.9292C41.3991 26.6311 37.9938 29.9404 34.3993 32.6823C29.9535 35.9916 25.0347 37.3152 19.5483 37.5043C14.6295 37.6934 9.80529 37.3152 4.98108 37.5043L6.77833 42.2318Z" fill="#FFB3B6"/>
<path d="M44 15C27.9837 15 15 27.9837 15 44C15 44 16.45 40.1333 24.6667 40.1333C32.8833 40.1333 32.4 44 34.3333 44C36.2667 44 35.7833 40.1333 44 40.1333C52.2167 40.1333 51.7333 44 53.6667 44C55.6 44 55.1167 40.1333 63.3333 40.1333C71.55 40.1333 73 44 73 44C73 27.9837 60.0163 15 44 15Z" stroke="#210049" stroke-width="2" stroke-linecap="round" stroke-linejoin="round"/>
<circle cx="44" cy="67" r="3" stroke="#210049" stroke-linecap="round" stroke-linejoin="round"/>
<path d="M53.1765 73C53.1765 72.5075 53.2754 72.0199 53.4676 71.5649C53.6597 71.11 53.9414 70.6966 54.2964 70.3483C54.6514 70.0001 55.0729 69.7239 55.5368 69.5355C56.0007 69.347 56.4979 69.25 57 69.25" stroke="#210049" stroke-linecap="round" stroke-linejoin="round"/>
<path d="M57 64.75C56.4979 64.75 56.0007 64.653 55.5368 64.4645C55.0729 64.2761 54.6514 63.9999 54.2964 63.6517C53.9414 63.3034 53.6597 62.89 53.4676 62.4351C53.2754 61.9801 53.1765 61.4925 53.1765 61" stroke="#210049" stroke-linecap="round" stroke-linejoin="round"/>
<path d="M31 64.75C31.5021 64.75 31.9993 64.653 32.4632 64.4645C32.9271 64.2761 33.3486 63.9999 33.7036 63.6517C34.0587 63.3034 34.3403 62.89 34.5325 62.4351C34.7246 61.9801 34.8235 61.4925 34.8235 61" stroke="#210049" stroke-linecap="round" stroke-linejoin="round"/>
<path d="M34.8235 73C34.8235 72.5075 34.7246 72.0199 34.5325 71.5649C34.3403 71.11 34.0587 70.6966 33.7036 70.3483C33.3486 70.0001 32.9271 69.7239 32.4632 69.5355C31.9993 69.347 31.5021 69.25 31 69.25" stroke="#210049" stroke-linecap="round" stroke-linejoin="round"/>
<path d="M44 61L15 43.5M44 61L34 44M44 61L54 44M44 61L73 44" stroke="#210049" stroke-width="2" stroke-linecap="round" stroke-linejoin="round"/>
<path d="M34.3334 44C34.3334 23.7 44 15 44 15C44 15 53.6667 23.7 53.6667 44" stroke="#210049" stroke-linecap="round" stroke-linejoin="round"/>
<path d="M57 61H31V73H57V61Z" stroke="#210049" stroke-width="2" stroke-linecap="round" stroke-linejoin="round"/>
</svg>
