<?xml version="1.0" encoding="UTF-8" standalone="no"?>
<svg width="91px" height="91px" viewBox="0 0 91 91" version="1.1" xmlns="http://www.w3.org/2000/svg" xmlns:xlink="http://www.w3.org/1999/xlink">
  <!-- Generator: Sketch 49.3 (51167) - http://www.bohemiancoding.com/sketch -->
  <title>Page 1</title>
  <desc>Created with Sketch.</desc>
  <defs>
    <polygon id="path-1" points="0.000303760439 1.00677273 90.9932273 1.00677273 90.9932273 92 0.000303760439 92"></polygon>
  </defs>
  <g id="Page-1" stroke="none" stroke-width="1" fill="none" fill-rule="evenodd">
    <g id="correo-3" transform="translate(-340.000000, -121.000000)">
      <g id="Page-1" transform="translate(340.000000, 120.000000)">
        <g id="Group-3" transform="translate(0.000000, 0.039100)">
          <mask id="mask-2" fill="white">
            <use xlink:href="#path-1"></use>
          </mask>
          <g id="Clip-2"></g>
          <path d="M21.6357864,86.7896636 L0.574059091,33.3021182 C-1.08925909,29.0784818 0.987013636,24.3059818 5.21065,22.6426636 L58.69715,1.57989091 C62.9218318,-0.0834272727 67.6943318,1.99284545 69.35765,6.21648182 L90.4193773,59.7040273 C92.0826955,63.9276636 90.0074682,68.7001636 85.7827864,70.3645273 L32.2962864,91.4262545 C28.0716045,93.0895727 23.2991045,91.0143455 21.6357864,86.7896636" id="Fill-1" fill="#FFE315" mask="url(#mask-2)"></path>
        </g>
        <path d="M86.1456636,48.7728591 C77.8259364,50.5417682 68.5548455,47.9939955 60.5414364,51.25895 C55.9884818,53.1146318 52.3189364,56.6838136 48.3263455,59.6476773 C43.4942545,63.2346318 38.1864818,64.6899045 32.2273909,64.8843591 C25.8030727,65.0924045 19.3547091,64.5153136 13.0903455,65.0098136 L15.0620727,70.0185864 C22.6604364,69.5449955 30.5515273,70.7702682 38.0714818,69.6662682 C42.3735273,69.0348136 46.2918909,67.4896318 49.9049818,64.9805409 C54.3680273,61.8807682 58.2560727,57.6236773 63.3913455,55.9070409 C71.2552545,53.2777227 80.1081636,55.6226773 88.1226182,53.7941773 L86.1456636,48.7728591 Z" id="Fill-4" fill="#F4D314"></path>
        <path d="M36.9021409,57.0547409 C45.7425045,54.6794682 51.2374136,45.7753318 59.6198682,42.5009682 C66.8240955,39.6866045 75.0654136,41.4105591 82.08355,38.4561045 L80.1536409,33.5571045 C72.4852318,37.0677409 62.8220955,34.5638773 55.2237318,38.7017864 C50.8662773,41.0749682 47.2782773,44.8072409 43.2794136,47.8338318 C38.5915955,51.3821045 33.4531864,52.8833773 27.5756409,52.7725591 C20.8585955,52.6460591 14.0181864,50.8802864 7.28441364,50.26765 L9.38682273,55.6067864 C18.6349136,56.6323773 28.0617773,59.4300136 36.9021409,57.0547409" id="Fill-6" fill="#F4D314"></path>
        <path d="M5.09491818,44.7068773 C11.6394636,44.6546045 18.3272364,45.4104682 24.7421455,44.4685136 C29.0462818,43.8370591 32.9636,42.2918773 36.5766909,39.7827864 C41.0386909,36.6830136 44.9277818,32.4259227 50.0630545,30.7092864 C58.9358273,27.7422864 69.0673273,31.10865 77.8324182,27.6628318 L75.8763727,22.6948318 C66.8279636,26.0747864 56.2239182,22.3906045 47.2131455,26.0622409 C42.6601909,27.9168773 38.9896,31.4860591 34.9980545,34.4499227 C30.1659636,38.0368773 24.8581909,39.49215 18.8991,39.6855591 C13.6101455,39.8580591 8.30655455,39.5015591 3.10123636,39.6437409 L5.09491818,44.7068773 Z" id="Fill-8" fill="#F4D314"></path>
        <path d="M58.1971091,56.7985 L30.3462,56.7985 C29.1826091,56.7985 28.2385636,55.8544545 28.2385636,54.6898182 L28.2385636,39.1731818 C28.2385636,38.0095909 29.1826091,37.0655455 30.3462,37.0655455 L58.1971091,37.0655455 C59.3617455,37.0655455 60.3057909,38.0095909 60.3057909,39.1731818 L60.3057909,54.6898182 C60.3057909,55.8544545 59.3617455,56.7985 58.1971091,56.7985 Z" id="Stroke-10" stroke="#210049"></path>
        <path d="M42.0093955,69.2485045 C43.6361227,69.61755 45.3130318,69.8172318 47.0484864,69.8172318 C59.5625773,69.8172318 69.7400773,59.6282318 69.7400773,47.1151864 C69.7400773,44.7702318 69.1462591,42.0604136 68.4771682,39.9350045" id="Stroke-12" stroke="#230049" stroke-width="2" stroke-linecap="round" stroke-linejoin="round"></path>
        <path d="M68.1815136,38.8879818 L64.6813318,45.2872091" id="Stroke-14" stroke="#230049" stroke-width="2" stroke-linecap="round" stroke-linejoin="round"></path>
        <path d="M68.1815136,38.8879818 L74.5807409,42.3881636" id="Stroke-16" stroke="#230049" stroke-width="2" stroke-linecap="round" stroke-linejoin="round"></path>
        <path d="M47.7016864,24.7136045 C46.0749591,24.3445591 44.3990955,24.1448773 42.6625955,24.1448773 C30.1485045,24.1448773 19.9710045,34.3338773 19.9710045,46.8469227 C19.9710045,49.1918773 20.4926864,51.8013318 21.1617773,53.9256955" id="Stroke-18" stroke="#230049" stroke-width="2" stroke-linecap="round" stroke-linejoin="round"></path>
        <path d="M21.6566955,54.9792 L14.8842409,52.2714727" id="Stroke-20" stroke="#230049" stroke-width="2" stroke-linecap="round" stroke-linejoin="round"></path>
        <path d="M21.6566955,54.9792 L24.3644227,48.2067455" id="Stroke-22" stroke="#230049" stroke-width="2" stroke-linecap="round" stroke-linejoin="round"></path>
        <path d="M53.6661091,42.7726818 C53.6661091,44.4192727 52.3310636,45.7553636 50.6844727,45.7553636 C49.0378818,45.7553636 47.7028364,44.4192727 47.7028364,42.7726818 C47.7028364,41.1260909 49.0378818,39.7910455 50.6844727,39.7910455 C52.3310636,39.7910455 53.6661091,41.1260909 53.6661091,42.7726818 Z" id="Stroke-24" stroke="#210049"></path>
        <path d="M56.2604045,54.0731045 C56.2604045,50.23315 54.06495,47.1197864 50.6849955,47.1197864 C47.3039955,47.1197864 44.5638591,50.23315 44.5638591,54.0731045 L56.8050864,54.0731045" id="Stroke-26" stroke="#210049"></path>
        <path d="M60.2711864,34.7250864 C60.0871864,34.7250864 59.9021409,34.6519045 59.7829591,34.5222682 C59.6533227,34.3936773 59.5790955,34.2180409 59.5790955,34.0329955 C59.5790955,33.8500409 59.6533227,33.6744045 59.7829591,33.5447682 C60.0411864,33.2865409 60.5022318,33.2865409 60.7604591,33.5364045 C60.88905,33.6744045 60.9632773,33.8500409 60.9632773,34.0329955 C60.9632773,34.2180409 60.88905,34.3936773 60.7604591,34.5222682 C60.6308227,34.6519045 60.4562318,34.7250864 60.2711864,34.7250864" id="Fill-28" fill="#210049"></path>
        <path d="M60.1670591,32.0291727 L60.1503318,32.0291727 C59.7687409,32.0197636 59.4666045,31.7029909 59.4749682,31.3214 L59.4801955,31.0903545 C59.5167864,29.6267182 60.2433773,28.3240818 61.42265,27.6037636 C62.0603773,27.2159 62.44615,26.5374 62.4534682,25.7919909 C62.4670591,24.6587182 61.5209227,23.6655364 60.3897409,23.6216273 C59.8178773,23.6017636 59.2575136,23.8045818 58.83515,24.2018545 C58.4127864,24.5980818 58.1712864,25.1354455 58.15665,25.7156727 C58.1472409,26.0983091 57.8126955,26.3962636 57.4478318,26.3899909 C57.0662409,26.3805818 56.7641045,26.0627636 56.7735136,25.6811727 C56.7975591,24.7287636 57.1937864,23.8432636 57.8890136,23.1919455 C58.5842409,22.5406273 59.49065,22.2081727 60.4441045,22.2395364 C62.3363773,22.3127182 63.8585591,23.9133091 63.8366045,25.8076727 C63.8240591,27.0329455 63.1905136,28.1474 62.1429682,28.7851273 C61.3787409,29.2524455 60.8873773,30.1484 60.8633318,31.1238091 L60.8581045,31.3538091 C60.8486955,31.7301727 60.5413318,32.0291727 60.1670591,32.0291727" id="Fill-30" fill="#210049"></path>
        <path d="M34.2037182,52.7846864 L35.4331727,52.7846864" id="Stroke-32" stroke="#210049" stroke-linecap="round"></path>
        <path d="M31.9367545,52.7846864 L32.8567545,52.7846864" id="Stroke-34" stroke="#210049" stroke-linecap="round"></path>
        <path d="M36.7555682,52.7846864 L41.8291591,52.7846864" id="Stroke-36" stroke="#210049" stroke-linecap="round"></path>
      </g>
    </g>
  </g>
</svg>