<svg width="48" height="48" viewBox="0 0 48 48" fill="none" xmlns="http://www.w3.org/2000/svg">
<path fill-rule="evenodd" clip-rule="evenodd" d="M21.6218 45.0152L2.98481 26.3782C1.67173 25.0651 1.67173 22.9357 2.98481 21.6227L21.6218 2.98481C22.9349 1.67173 25.0643 1.67173 26.3773 2.98481L45.0152 21.6227C46.3283 22.9357 46.3283 25.0651 45.0152 26.3782L26.3773 45.0152C25.0643 46.3283 22.9349 46.3283 21.6218 45.0152Z" fill="#D9E4FF"/>
<path d="M24 15C19.0312 15 15 19.0312 15 24C15 28.9688 19.0312 33 24 33C28.9688 33 33 28.9688 33 24C33 19.0312 28.9688 15 24 15Z" stroke="#210049" stroke-width="1.5" stroke-miterlimit="10"/>
<path d="M24 18V24.75H28.5" stroke="#210049" stroke-width="1.5" stroke-linecap="round" stroke-linejoin="round"/>
</svg>
