<svg width="48" height="48" viewBox="0 0 48 48" fill="none" xmlns="http://www.w3.org/2000/svg">
<path fill-rule="evenodd" clip-rule="evenodd" d="M21.6218 45.0152L2.98481 26.3782C1.67173 25.0651 1.67173 22.9357 2.98481 21.6227L21.6218 2.98481C22.9349 1.67173 25.0643 1.67173 26.3773 2.98481L45.0152 21.6227C46.3283 22.9357 46.3283 25.0651 45.0152 26.3782L26.3773 45.0152C25.0643 46.3283 22.9349 46.3283 21.6218 45.0152Z" fill="#D9F5EC"/>
<path d="M29.25 14.25H18.75C17.5074 14.25 16.5 15.2574 16.5 16.5V31.5C16.5 32.7426 17.5074 33.75 18.75 33.75H29.25C30.4926 33.75 31.5 32.7426 31.5 31.5V16.5C31.5 15.2574 30.4926 14.25 29.25 14.25Z" stroke="#210049" stroke-width="1.5" stroke-linejoin="round"/>
<path d="M20.25 18H27.75" stroke="#210049" stroke-width="1.5" stroke-linecap="round" stroke-linejoin="round"/>
<path d="M20.25 21.75H27.75" stroke="#210049" stroke-width="1.5" stroke-linecap="round" stroke-linejoin="round"/>
<path d="M20.25 25.5H24" stroke="#210049" stroke-width="1.5" stroke-linecap="round" stroke-linejoin="round"/>
</svg>
