<svg width="48" height="48" viewBox="0 0 48 48" fill="none" xmlns="http://www.w3.org/2000/svg">
<path fill-rule="evenodd" clip-rule="evenodd" d="M21.6218 45.0152L2.98481 26.3782C1.67173 25.0651 1.67173 22.9357 2.98481 21.6227L21.6218 2.98481C22.9349 1.67173 25.0643 1.67173 26.3773 2.98481L45.0152 21.6227C46.3283 22.9357 46.3283 25.0651 45.0152 26.3782L26.3773 45.0152C25.0643 46.3283 22.9349 46.3283 21.6218 45.0152Z" fill="#E4D2FF"/>
<path d="M32.3814 18.4523L25.3802 15.2602C24.6213 14.9133 23.3791 14.9133 22.6202 15.2602L15.6236 18.4523C14.7986 18.8273 14.7986 19.4409 15.6236 19.8159L22.5611 22.98C23.3529 23.3409 24.656 23.3409 25.4477 22.98L32.3852 19.8159C33.2064 19.4409 33.2064 18.8269 32.3814 18.4523Z" stroke="#210049" stroke-width="1.5" stroke-linecap="round" stroke-linejoin="round"/>
<path d="M19.5002 26.4617L15.6236 28.2012C14.7986 28.5762 14.7986 29.1903 15.6236 29.5653L22.5611 32.7293C23.3529 33.0898 24.656 33.0898 25.4477 32.7293L32.3852 29.5653C33.2102 29.1903 33.2102 28.5762 32.3852 28.2012L28.638 26.3979" stroke="#210049" stroke-width="1.5" stroke-linecap="round" stroke-linejoin="round"/>
<path d="M19.5 21.5845L15.6188 23.3264C14.7938 23.7014 14.7938 24.3155 15.6188 24.6905L22.5562 27.8541C23.348 28.215 24.6511 28.215 25.4428 27.8541L32.3803 24.6905C33.21 24.3155 33.21 23.7014 32.385 23.3264L28.5 21.5845" stroke="#210049" stroke-width="1.5" stroke-linecap="round" stroke-linejoin="round"/>
</svg>
