<?xml version="1.0" standalone="no"?>
<!DOCTYPE svg PUBLIC "-//W3C//DTD SVG 1.1//EN" "http://www.w3.org/Graphics/SVG/1.1/DTD/svg11.dtd" >
<svg xmlns="http://www.w3.org/2000/svg">
<metadata>Generated by IcoMoon</metadata>
<defs>
<font id="icomoon" horiz-adv-x="1024">
<font-face units-per-em="1024" ascent="960" descent="-64" />
<missing-glyph horiz-adv-x="1024" />
<glyph unicode="&#x20;" horiz-adv-x="512" d="" />
<glyph unicode="&#x61;" glyph-name="arrow" d="M512-67.043c-135.857 0-265.632 52.721-360.936 150.051-97.331 97.331-150.051 225.077-150.051 362.963 0 135.857 52.721 263.604 150.051 360.936 95.303 97.331 225.077 150.051 360.936 150.051 137.885 0 265.632-52.721 362.963-150.051 95.303-97.331 150.051-225.077 150.051-360.936 0-137.885-54.749-265.632-150.051-362.963-97.331-95.303-225.077-150.051-362.963-150.051zM512 902.211c-121.663 0-237.244-48.665-322.409-133.83-87.192-87.192-133.83-200.745-133.83-322.409 0-123.691 46.638-237.244 133.83-324.437 85.164-85.164 200.745-133.83 322.409-133.83s237.244 48.665 322.409 133.83c87.192 87.192 133.83 200.745 133.83 324.437 0 121.663-46.638 235.216-133.83 322.409-85.164 85.164-200.745 133.83-322.409 133.83zM755.327 435.834h-484.627c-16.222 0-28.388 12.166-28.388 26.36 0 16.222 12.166 28.388 28.388 28.388h484.627c14.194 0 26.36-12.166 26.36-28.388 0-14.194-12.166-26.36-26.36-26.36zM418.725 239.145l-206.828 206.828 206.828 204.8 38.527-38.527-166.273-166.273 166.273-168.301z" />
<glyph unicode="&#x62;" glyph-name="close" d="M512-64c-282 0-512 230-512 512s230 512 512 512c282 0 512-230 512-512s-230-512-512-512zM512 890c-244 0-442-198-442-442s198-442 442-442c244 0 442 198 442 442s-198 442-442 442zM338 240c-10 0-16 4-24 10-14 14-14 36 0 50l342 342c14 14 36 14 50 0s14-36 0-50l-342-342c-4-6-14-10-26-10zM686 240c-12 0-18 4-26 10l-342 342c-14 14-14 36 0 50s36 14 50 0l342-342c14-14 14-36 0-50-8-6-18-10-24-10z" />
<glyph unicode="&#x63;" glyph-name="help" d="M512-64c-282 0-512 230-512 512s230 512 512 512c282 0 512-230 512-512s-230-512-512-512zM512 890c-244 0-442-198-442-442s198-442 442-442c244 0 442 198 442 442s-198 442-442 442zM508 144c-20 0-34 14-34 36v38c0 22 14 36 34 36 22 0 36-14 36-36v-38c0-18-14-36-36-36zM512 278c-22 0-36 14-36 36v52c0 72 32 134 88 170 30 18 46 50 46 86 0 52-46 94-94 94-26 0-50-10-72-28-16-18-28-42-28-70 0-22-14-36-34-36-22 0-36 14-36 36 0 46 18 88 50 120s74 48 120 48c92 0 166-74 166-164 0-62-28-114-78-146-36-20-56-64-56-110v-52c0-18-14-36-36-36z" />
<glyph unicode="&#x64;" glyph-name="turnoff" d="M964.556 663.993c-30.856 66.855-77.141 128.567-133.709 174.852-15.428 15.428-41.141 10.285-56.569-5.143s-10.285-41.141 5.143-56.569c46.284-41.141 87.425-87.425 113.139-143.995s41.141-118.282 41.141-179.993c0-231.421-190.28-421.699-421.699-421.699s-421.699 185.136-421.699 416.556c0 61.712 15.428 123.424 41.141 179.993s66.855 107.996 113.139 143.995c10.285 15.428 15.428 41.141 0 56.569s-36 20.571-51.427 5.143c-56.569-46.284-102.853-107.996-133.709-174.852s-51.427-138.852-51.427-210.849c0-277.704 226.277-503.981 503.981-503.981s503.981 226.277 503.981 503.981c0 71.997-20.571 149.137-51.427 215.993zM512 406.859c20.571 0 41.141 15.428 41.141 41.141v462.84c0 20.571-15.428 41.141-41.141 41.141s-41.141-20.571-41.141-41.141v-462.84c0-20.571 20.571-41.141 41.141-41.141z" />
<glyph unicode="&#x65;" glyph-name="add" d="M512-46c-274 0-494 220-494 494s220 494 494 494c274 0 494-220 494-494s-220-494-494-494zM512 874c-236 0-426-190-426-426s190-426 426-426c236 0 426 190 426 426s-190 426-426 426zM494 174c-20 0-34 14-34 36v460c0 20 14 34 34 34 22 0 36-14 36-34v-460c0-22-14-36-36-36zM740 430h-460c-20 0-34 14-34 36 0 20 14 34 34 34h460c22 0 34-14 34-34 0-22-12-36-34-36z" />
<glyph unicode="&#x66;" glyph-name="askmoney" d="M512 866.133c-230.4 0-418.133-187.733-418.133-418.133s187.733-418.133 418.133-418.133 418.133 187.733 418.133 418.133-187.733 418.133-418.133 418.133zM512 98.133c-192 0-349.867 157.867-349.867 349.867s157.867 349.867 349.867 349.867 349.867-157.867 349.867-349.867-157.867-349.867-349.867-349.867zM576 465.067c-4.267 0-4.267 4.267-4.267 4.267v85.333c0 4.267 0 4.267 4.267 4.267 8.533 0 17.067-4.267 25.6-4.267s12.8 0 17.067 4.267c4.267 4.267 8.533 8.533 8.533 17.067v0c0 8.533-4.267 17.067-8.533 21.333s-12.8 8.533-17.067 12.8c-8.533 0-17.067 4.267-25.6 4.267-4.267 0-4.267 0-4.267 4.267v17.067c0 8.533-4.267 12.8-8.533 17.067s-8.533 8.533-17.067 8.533c-8.533 0-12.8-4.267-17.067-8.533s-8.533-8.533-8.533-17.067v-17.067c0-4.267 0-4.267-4.267-4.267-38.4 0-64-8.533-85.333-21.333-12.8-17.067-25.6-38.4-25.6-64 0-38.4 21.333-68.267 68.267-85.333 4.267 0 4.267-4.267 0-4.267 0-4.267 0-4.267 0-8.533v-81.067c0 0 0 0 0-4.267 0 0 0 0-4.267 0-8.533 4.267-21.333 4.267-29.867 8.533-4.267 4.267-12.8 0-17.067 0-4.267-4.267-8.533-8.533-8.533-12.8v-4.267c0-8.533 4.267-17.067 8.533-21.333 4.267-8.533 12.8-12.8 17.067-12.8 12.8-4.267 21.333-4.267 29.867-8.533 4.267 0 4.267-4.267 4.267-4.267v-21.333c0-8.533 4.267-12.8 8.533-17.067s8.533-8.533 17.067-8.533 12.8 4.267 17.067 8.533c4.267 4.267 8.533 8.533 8.533 17.067v21.333c0 4.267 0 4.267 4.267 4.267 38.4 0 64 8.533 85.333 25.6s29.867 38.4 29.867 68.267c0 21.333-4.267 38.4-17.067 51.2-12.8 4.267-29.867 12.8-51.2 25.6zM520.533 482.133c0 0 0 0 0 0v0c-34.133 8.533-51.2 21.333-51.2 46.933 0 21.333 17.067 34.133 51.2 34.133 4.267 0 4.267 0 4.267-4.267l-4.267-76.8c4.267 0 4.267 0 0 0 4.267 0 0 0 0 0zM524.8 337.067c0 0-4.267 0 0 0l-4.267 85.333c0 4.267 0 4.267 4.267 4.267 17.067-4.267 29.867-12.8 38.4-21.333s12.8-17.067 12.8-29.867c0-25.6-17.067-38.4-51.2-38.4z" />
<glyph unicode="&#x67;" glyph-name="comentario" d="M460 384h-248c-20 0-32 12-32 32s12 32 32 32h248c20 0 32-12 32-32s-12-32-32-32zM778 516h-564c-18 0-32 12-32 32 0 18 14 32 32 32h564c18 0 32-14 32-32 0-20-16-32-32-32zM778 650h-564c-18 0-32 12-32 32 0 18 14 32 32 32h564c18 0 32-14 32-32 0-20-16-32-32-32zM762-32c-10 0-16 4-22 10l-158 172h-466c-62 0-116 52-116 116v546c0 62 52 116 116 116h792c62 0 116-52 116-116v-546c0-62-52-116-116-116h-118v-150c0-12-10-26-18-28-4-4-8-4-10-4zM116 864c-30 0-52-22-52-52v-546c0-30 22-52 52-52h480c8 0 18-2 22-10l108-120v98c0 20 14 32 32 32h150c30 0 52 22 52 52v546c0 30-22 52-52 52z" />
<glyph unicode="&#x68;" glyph-name="edit" d="M68-24c-6 0-6 0-6 0s0 0-6 0c0 0-4 6-4 6s0 0 0 6c0 0 0 4 0 4l56 252c0 4 0 4 6 4l608 610c58 56 160 56 216 0 30-28 46-68 46-108s-16-80-46-108l-608-610c0 0-6 0-6 0l-244-56c-6 0-6 0-12 0zM142 50c0-6 0-12-6-12l-10-10 182 44 4 74-84-10c0 0 0 0-6 0s-18 4-18 16l12 86-74-6-46-182 12 12c6 4 18 4 22 0 12-6 12-12 12-12zM348 152l-6-52 466 468-166 164-466-466 52 6 376 376c4 4 16 4 22 0 6-6 6-6 6-12s0-12-6-12l-376-376-12-78 80 10 376 376c6 6 18 6 22 0 6-6 6-6 6-12 0-4 0-10-6-10zM666 756l164-166 24 22-166 166zM712 800l164-164 22 22-164 166zM762 852l166-166c16 24 22 46 22 70 0 34-12 62-34 84-40 40-108 46-154 12z" />
<glyph unicode="&#x69;" glyph-name="nuevocontacto" d="M792-30c-118 0-214 94-214 214 0 118 96 214 214 214 120 0 216-96 216-214 0-120-96-214-216-214zM792 366c-98 0-180-84-180-182 0-100 82-182 180-182 100 0 182 82 182 182 0 98-82 182-182 182zM792 68c-10 0-16 6-16 16v198c0 10 6 18 16 18s18-8 18-18v-198c0-10-8-16-18-16zM892 168h-198c-10 0-16 6-16 16s6 16 16 16h198c10 0 16-6 16-16s-6-16-16-16zM478 2c-254 0-462 208-462 462s208 462 462 462c256 0 464-208 464-462 0-42-8-82-18-126l-6-18-20 10c-30 16-58 26-92 26-102 0-184-84-184-186 0-40 12-76 36-108l12-16-20-8c-56-26-112-36-172-36zM478 894c-236 0-428-192-428-430s192-428 428-428c50 0 96 6 140 22-20 34-30 72-30 112 0 120 100 218 218 218 30 0 62-6 90-20 6 34 10 64 10 96 2 238-190 430-428 430zM482 2c-108 0-212 40-294 110l-12 12 12 14c6 6 16 12 24 16l132 72c12 8 20 20 20 34v50c-10 12-40 52-54 108-12 14-22 30-22 46v60c0 14 6 30 12 40v78c0 0-6 54 34 100 30 36 78 52 148 52 66 0 116-16 148-52 40-42 34-100 34-100v-78c10-10 14-26 14-40v-60c0-22-14-46-38-56-10-30-26-60-42-86-4-6-6-10-10-12v-50c0-14 6-26 20-34l20-10-4-12c-2-10-2-24-2-34 0-40 12-78 36-108l12-16-20-8c-52-26-108-36-168-36zM224 124c112-86 264-112 398-62-20 32-30 72-30 112 0 6 0 16 0 26-24 14-38 36-38 64v62l4 4c4 2 6 8 14 16 16 26 32 52 42 86l4 6 6 4c14 2 20 12 20 26v60c0 6-4 16-10 20l-6 2v92c0 4 2 44-24 76-22 28-66 40-122 40s-98-12-122-42c-30-34-24-74-24-76v-96l-6-4c-6-6-10-12-10-20v-58c0-10 4-20 14-24l6-4v-6c14-60 50-106 50-106l4-2v-60c0-26-14-50-38-64l-132-72c4 0 0 0 0 0z" />
<glyph unicode="&#x6a;" glyph-name="recurrentes" d="M512 951.981c-277.704 0-503.981-226.277-503.981-503.981s226.277-503.981 503.981-503.981 503.981 226.277 503.981 503.981-226.277 503.981-503.981 503.981zM512 26.301c-231.421 0-421.699 190.28-421.699 421.699s190.28 421.699 421.699 421.699 421.699-190.28 421.699-421.699-190.28-421.699-421.699-421.699zM589.141 468.571c-5.143 0-5.143 5.143-5.143 5.143v102.853c0 5.143 0 5.143 5.143 5.143 10.285 0 20.571-5.143 30.856-5.143s15.428 0 20.571 5.143c5.143 5.143 10.285 10.285 10.285 20.571v0c0 10.285-5.143 20.571-10.285 25.713s-15.428 10.285-20.571 15.428c-10.285 0-20.571 5.143-30.856 5.143-5.143 0-5.143 0-5.143 5.143v20.571c0 10.285-5.143 15.428-10.285 20.571s-10.285 10.285-20.571 10.285c-10.285 0-15.428-5.143-20.571-10.285s-10.285-10.285-10.285-20.571v-20.571c0-5.143 0-5.143-5.143-5.143-46.284 0-77.141-10.285-102.853-25.713-15.428-20.571-30.856-46.284-30.856-77.141 0-46.284 25.713-82.283 82.283-102.853 5.143 0 5.143-5.143 0-5.143 0-5.143 0-5.143 0-10.285v-97.711c0 0 0 0 0-5.143 0 0 0 0-5.143 0-10.285 5.143-25.713 5.143-36 10.285-5.143 5.143-15.428 0-20.571 0-5.143-5.143-10.285-10.285-10.285-15.428v-5.143c0-10.285 5.143-20.571 10.285-25.713 5.143-10.285 15.428-15.428 20.571-15.428 15.428-5.143 25.713-5.143 36-10.285 5.143 0 5.143-5.143 5.143-5.143v-25.713c0-10.285 5.143-15.428 10.285-20.571s10.285-10.285 20.571-10.285 15.428 5.143 20.571 10.285c5.143 5.143 10.285 10.285 10.285 20.571v25.713c0 5.143 0 5.143 5.143 5.143 46.284 0 77.141 10.285 102.853 30.856s36 46.284 36 82.283c0 25.713-5.143 46.284-20.571 61.712-15.428 5.143-36 15.428-61.712 30.856zM522.285 489.141c0 0 0 0 0 0v0c-41.141 10.285-61.712 25.713-61.712 56.569 0 25.713 20.571 41.141 61.712 41.141 5.143 0 5.143 0 5.143-5.143l-5.143-92.568c5.143 0 5.143 0 0 0 5.143 0 0 0 0 0zM527.428 314.291c0 0-5.143 0 0 0l-5.143 102.853c0 5.143 0 5.143 5.143 5.143 20.571-5.143 36-15.428 46.284-25.713s15.428-20.571 15.428-36c0-30.856-20.571-46.284-61.712-46.284z" />
<glyph unicode="&#x6b;" glyph-name="sendmoney" d="M512 951.981c-277.704 0-503.981-226.277-503.981-503.981s226.277-503.981 503.981-503.981 503.981 226.277 503.981 503.981-226.277 503.981-503.981 503.981zM512 26.301c-231.421 0-421.699 190.28-421.699 421.699s190.28 421.699 421.699 421.699 421.699-190.28 421.699-421.699-190.28-421.699-421.699-421.699zM589.141 468.571c-5.143 0-5.143 5.143-5.143 5.143v102.853c0 5.143 0 5.143 5.143 5.143 10.285 0 20.571-5.143 30.856-5.143s15.428 0 20.571 5.143c5.143 5.143 10.285 10.285 10.285 20.571v0c0 10.285-5.143 20.571-10.285 25.713s-15.428 10.285-20.571 15.428c-10.285 0-20.571 5.143-30.856 5.143-5.143 0-5.143 0-5.143 5.143v20.571c0 10.285-5.143 15.428-10.285 20.571s-10.285 10.285-20.571 10.285c-10.285 0-15.428-5.143-20.571-10.285s-10.285-10.285-10.285-20.571v-20.571c0-5.143 0-5.143-5.143-5.143-46.284 0-77.141-10.285-102.853-25.713-15.428-20.571-30.856-46.284-30.856-77.141 0-46.284 25.713-82.283 82.283-102.853 5.143 0 5.143-5.143 0-5.143 0-5.143 0-5.143 0-10.285v-97.711c0 0 0 0 0-5.143 0 0 0 0-5.143 0-10.285 5.143-25.713 5.143-36 10.285-5.143 5.143-15.428 0-20.571 0-5.143-5.143-10.285-10.285-10.285-15.428v-5.143c0-10.285 5.143-20.571 10.285-25.713 5.143-10.285 15.428-15.428 20.571-15.428 15.428-5.143 25.713-5.143 36-10.285 5.143 0 5.143-5.143 5.143-5.143v-25.713c0-10.285 5.143-15.428 10.285-20.571s10.285-10.285 20.571-10.285 15.428 5.143 20.571 10.285c5.143 5.143 10.285 10.285 10.285 20.571v25.713c0 5.143 0 5.143 5.143 5.143 46.284 0 77.141 10.285 102.853 30.856s36 46.284 36 82.283c0 25.713-5.143 46.284-20.571 61.712-15.428 5.143-36 15.428-61.712 30.856zM522.285 489.141c0 0 0 0 0 0v0c-41.141 10.285-61.712 25.713-61.712 56.569 0 25.713 20.571 41.141 61.712 41.141 5.143 0 5.143 0 5.143-5.143l-5.143-92.568c5.143 0 5.143 0 0 0 5.143 0 0 0 0 0zM527.428 314.291c0 0-5.143 0 0 0l-5.143 102.853c0 5.143 0 5.143 5.143 5.143 20.571-5.143 36-15.428 46.284-25.713s15.428-20.571 15.428-36c0-30.856-20.571-46.284-61.712-46.284z" />
<glyph unicode="&#x6c;" glyph-name="share" d="M214 276c-98 0-180 82-180 182s82 182 180 182c100 0 182-82 182-182s-82-182-182-182zM214 574c-62 0-114-54-114-116s52-116 114-116c64 0 116 54 116 116s-52 116-116 116zM792-48c-48 0-96 20-128 54-34 32-52 78-52 128s18 96 52 130c32 32 80 52 128 52 50 0 96-20 130-52 32-34 52-80 52-130s-20-96-52-128c-34-34-80-54-130-54zM792 250c-28 0-58-14-82-34-22-20-32-48-32-82 0-32 12-60 32-82 44-44 120-44 162 0 24 22 34 50 34 82 0 34-14 60-34 82-20 24-50 34-80 34zM792 596c-98 0-180 84-180 182 0 100 82 182 180 182 100 0 182-82 182-182 0-98-82-182-182-182zM792 894c-62 0-114-52-114-116 0-62 52-116 114-116 64 0 116 54 116 116 0 64-52 116-116 116zM346 490c-10 0-22 8-28 18-10 16-4 36 10 46l312 188c18 10 38 4 48-10 8-16 2-36-10-46l-314-188c-4-4-10-8-18-8zM660 168c-6 0-12 0-16 2l-314 188c-16 10-20 30-10 48 10 16 30 18 46 8l314-188c16-10 20-30 10-46-10-6-20-12-30-12z" />
<glyph unicode="&#x6d;" glyph-name="sucess" d="M506 268c-6 0-12 0-18 6l-180 150c-12 12-12 30-6 42 12 12 30 12 42 6l156-126 216 306c12 12 30 18 42 6 14-12 20-30 6-42l-234-336c-6-6-12-12-24-12zM512-34c-266 0-482 216-482 482s216 482 482 482c266 0 482-216 482-482s-216-482-482-482zM512 870c-234 0-422-188-422-422s188-422 422-422c234 0 422 188 422 422s-188 422-422 422z" />
<glyph unicode="&#x6e;" glyph-name="user" d="M948 188l-122 52h46c4 0 50-4 90 14 16 10 28 22 36 42 2 20 0 40-10 56-30 44-100 156-102 272 0 76-50 220-218 220-28 0-54-2-76-10-8 10-14 20-20 30-36 40-96 62-176 62-78 0-138-18-174-62-44-50-40-108-40-122v-82c-10-14-16-34-16-50v-66c0-24 10-44 26-60 16-56 42-98 56-118v-50c0-14-4-24-14-26l-148-84c-52-28-86-86-86-148v-88h1030v82c0 56-32 108-82 136zM726 36h-666v22c0 36 20 72 52 90l148 82c30 16 50 50 50 82v74l-6 10c0 0-40 48-52 112l-4 12-10 8c-4 2-6 6-6 12v66c0 8 2 10 6 14l10 10v116c0 0-4 38 22 72 24 30 66 42 126 42s102-12 126-38c26-30 24-74 24-74v-116l8-8c4-4 8-8 8-14v-66c0-6-8-14-14-16l-16-8-6-16c-14-32-28-66-48-92-6-6-8-14-12-16l-6-10v-76c0-28 12-54 32-74h-4l18-6c2-4 6-4 6-6l158-80c36-20 56-52 56-92zM958 36h-166v18c0 64-36 120-92 150l-106 52c0 4 0 8-2 14-8 16-24 30-44 30h-20c0 2-2 6-2 10v52c2 4 6 10 10 14 18 30 36 62 48 96 8 2 14 10 18 12 16 16 26 36 26 60v66c0 16-6 36-16 50v82c0 4 0 14 0 24 16 2 32 6 48 6 142 0 152-140 152-156 4-126 74-248 116-306-20-8-46-8-60-8h-112c-16 0-30-10-40-22-10-14-10-34-2-46 6-14 16-30 36-40l162-70c30-12 46-42 46-76z" />
<glyph unicode="&#x6f;" glyph-name="list" d="M138 644h-4c-62 0-112 48-112 112v4c0 62 50 110 112 110h4c62 0 112-48 112-110v-4c0-58-54-112-112-112zM130 830c-36 0-68-30-68-66v-4c0-36 32-68 68-68h4c36 0 66 32 66 68v4c0 36-30 66-66 66zM138 20h-4c-62 0-112 50-112 112v4c0 62 50 112 112 112h4c62 0 112-50 112-112v-4c0-58-54-112-112-112zM130 208c-36 0-68-32-68-68v-4c0-36 32-66 68-66h4c36 0 66 30 66 66v4c0 36-30 68-66 68zM138 332h-4c-62 0-112 50-112 112v4c0 62 50 112 112 112h4c62 0 112-50 112-112v-4c0-58-54-112-112-112zM130 520c-36 0-68-32-68-68v-4c0-36 32-66 68-66h4c36 0 66 30 66 66v4c0 36-30 68-66 68zM908 662h-450c-62 0-116 54-116 116s54 116 116 116h450c62 0 116-54 116-116s-54-116-116-116zM458 848c-40 0-70-30-70-70s30-72 70-72h450c40 0 72 32 72 72s-32 70-72 70zM908 332h-450c-62 0-116 54-116 116s54 116 116 116h450c62 0 116-54 116-116s-54-116-116-116zM458 520c-40 0-70-32-70-72s30-72 70-72h450c40 0 72 32 72 72s-32 72-72 72zM908 2h-450c-62 0-116 54-116 116s54 116 116 116h450c62 0 116-54 116-116s-54-116-116-116zM458 190c-40 0-70-32-70-72s30-70 70-70h450c40 0 72 30 72 70s-32 72-72 72z" />
<glyph unicode="&#x70;" glyph-name="arrow-right" d="M512-64c-282 0-512 230-512 512s230 512 512 512c282 0 512-230 512-512s-230-512-512-512zM512 890c-244 0-442-198-442-442s198-442 442-442c244 0 442 198 442 442s-198 442-442 442zM748 396h-476c-22 0-36 14-36 34 0 22 14 36 36 36h476c22 0 36-14 36-36 0-20-14-34-36-34zM610 240l-48 50 158 158-158 158 48 50 210-208z" />
<glyph unicode="&#x71;" glyph-name="reload-nequi" d="M498-18c-232 0-418 186-418 420 0 232 186 418 418 418 28 0 46-18 46-46s-18-46-46-46c-182 0-326-146-326-326 0-182 144-326 326-326s326 144 326 326c0 28 18 46 46 46s46-18 46-46c0-234-190-420-418-420zM460 602c-14 0-28 4-36 18-20 18-14 52 4 70l94 84-84 92c-20 20-20 52 4 70 18 20 52 20 70-4l116-130c10-10 14-24 14-38s-4-22-14-32l-130-116c-14-10-28-14-38-14z" />
<glyph unicode="&#x72;" glyph-name="new-goal" d="M2 812v-90c0-12 8-22 20-22s22 10 22 22v90c0 12-10 24-22 24s-20-12-20-24zM2 632v-90c0-12 8-22 20-22s22 10 22 22v90c0 12-10 22-22 22s-20-8-20-22zM2 454v-90c0-12 8-22 20-22s22 10 22 22v90c0 12-10 22-22 22s-20-10-20-22zM1016 282v90c0 12-8 22-20 22s-22-10-22-22v-90c0-12 10-22 22-22s20 10 20 22zM1016 462v90c0 12-8 22-20 22s-22-10-22-22v-90c0-12 10-22 22-22 10 0 20 10 20 22zM1016 640v90c0 12-8 24-20 24s-22-12-22-24v-90c0-12 10-22 22-22s20 10 20 22zM1014 822c-4 32-28 54-60 56h-28c-12 0-20-10-20-22s8-22 20-22h28c8 0 16-10 18-18 2-12 14-20 26-18s18 12 16 24zM846 878h-82c-12 0-20-10-20-22s8-22 20-22h82c12 0 20 10 20 22s-8 22-20 22zM684 878h-82c-12 0-20-10-20-22s8-22 20-22h82c12 0 20 10 20 22s-8 22-20 22zM522 878h-82c-12 0-20-10-20-22s8-22 20-22h82c12 0 20 10 20 22s-10 22-20 22zM360 878h-82c-12 0-20-10-20-22s8-22 20-22h82c12 0 20 10 20 22s-10 22-20 22zM196 878h-82c-12 0-20-10-20-22s8-22 20-22h82c12 0 22 10 22 22s-10 22-22 22zM24 864c-14-12-22-30-22-52 0-12 8-22 20-22s22 10 22 22c0 6 2 12 6 16 8 10 10 24 4 34s-22 10-30 2zM1014 76v90c0 12-8 22-20 22-14 0-22-10-22-22v-90c0-14 8-24 22-24 12 0 20 10 20 24zM0 246v-90c0-14 8-24 20-24s20 10 20 24v90c0 12-8 22-20 22s-20-10-20-22zM0 62c4-30 28-52 60-54h28c12 0 20 10 20 22s-8 22-20 22h-28c-8 0-16 8-20 18-2 12-12 20-24 18s-18-12-16-26zM168 8h82c12 0 20 10 20 22s-8 22-20 22h-82c-12 0-20-10-20-22s10-22 20-22zM332 8h82c12 0 20 10 20 22s-8 22-20 22h-82c-12 0-20-10-20-22s8-22 20-22zM494 8h82c12 0 20 10 20 22s-8 22-20 22h-82c-12 0-20-10-20-22s8-22 20-22zM656 8h82c12 0 20 10 20 22s-8 22-20 22h-82c-12 0-22-10-22-22s12-22 22-22zM818 8h82c12 0 20 10 20 22s-8 22-20 22h-82c-14 0-22-10-22-22s10-22 22-22zM992 24c14 12 22 30 22 52 0 12-8 22-20 22-14 0-22-10-22-22 0-6-2-14-6-18-8-8-10-22-4-32 8-8 22-10 30-2zM532 304v246c0 12-8 20-20 20s-20-8-20-20v-246c0-12 8-20 20-20s20 8 20 20zM390 408h244c14 0 22 8 22 20s-8 20-22 20h-244c-14 0-22-8-22-20s8-20 22-20z" />
<glyph unicode="&#x73;" glyph-name="new-pocket" d="M2 860v-82c0-12 8-20 20-20s22 8 22 20v82c0 12-10 20-22 20s-20-10-20-20zM2 698v-82c0-12 8-20 20-20s22 8 22 20v82c0 12-10 20-22 20s-20-10-20-20zM2 534v-82c0-12 8-20 20-20s22 8 22 20v82c0 12-10 20-22 20s-20-8-20-20zM2 372v-22c0-2 0-4 0-6-4-18-2-40 4-60 4-10 16-16 26-12 12 4 18 16 14 26-6 14-6 28-6 40 0 4 0 8 0 12v22c0 12-8 20-20 20s-18-8-18-20zM68 214c16-12 38-26 68-44 10-6 22-4 28 6s4 22-6 28c-28 18-52 34-68 46-10 6-22 4-28-4-6-14-4-26 6-32zM204 124c24-14 46-28 70-42 10-6 22-2 30 6 6 10 2 22-8 28-24 14-46 28-68 44-10 6-24 2-30-6-6-12-4-24 6-30zM344 40c12-8 24-14 34-20 0 0 2-2 2-2 10-6 22-12 36-18 10-4 22 0 26 10s0 22-10 26c-12 6-22 10-28 14-2 0-2 2-4 2-10 6-24 16-36 22-10 6-22 2-28-6-6-10-2-22 8-28zM502-24c2 0 4 0 6 0 30 0 58 8 84 22 10 6 14 18 8 28s-18 14-28 8c-22-10-42-16-64-16-2 0-2 0-4 0-12 0-20-8-20-20 0-10 8-18 18-22zM662 46l68 46c10 6 12 18 6 28s-20 12-30 6l-68-44c-10-6-12-20-6-30s22-12 30-6zM796 136l68 46c10 6 12 18 6 28s-18 12-28 6l-68-44c-10-6-12-18-6-30 6-10 18-12 28-6zM932 226l4 2c0 0 2 2 2 2 6 6 14 10 22 18 12 12 26 24 36 40 6 10 2 22-8 28-12 8-24 2-30-8-12-20-28-34-42-42-2-2-4-2-4-2l-4-2c-10-6-14-18-6-30 6-10 20-12 30-6zM1016 378v82c0 12-8 20-20 20s-22-8-22-20v-82c0-12 10-20 22-20 10 0 20 10 20 20zM1016 542v82c0 12-8 20-20 20s-22-8-22-20v-82c0-12 10-20 22-20s20 8 20 20zM1016 704v82c0 12-8 20-20 20s-22-8-22-20v-82c0-12 10-20 22-20 10 0 20 8 20 20zM1014 870c-4 28-28 50-60 50h-28c-12 0-20-10-20-22s8-20 20-20h28c8 0 16-6 18-16s14-18 26-16c12 2 18 12 16 24zM846 920h-82c-12 0-20-10-20-22s8-20 20-20h82c12 0 20 8 20 20s-8 22-20 22zM684 920h-82c-12 0-20-10-20-22s8-20 20-20h82c12 0 20 8 20 20s-8 22-20 22zM522 920h-82c-12 0-20-10-20-22s8-20 20-20h82c12 0 20 8 20 20s-10 22-20 22zM360 920h-82c-12 0-20-10-20-22s8-20 20-20h82c12 0 20 8 20 20s-10 22-20 22zM196 920h-82c-12 0-20-10-20-22s8-20 20-20h82c12 0 22 8 22 20s-10 22-22 22zM24 906c-14-12-22-28-22-46 0-12 8-20 20-20s22 8 22 20c0 6 2 10 6 14 8 6 10 20 4 28-8 8-22 10-30 4zM526 412v246c0 12-8 20-20 20s-20-8-20-20v-246c0-12 8-20 20-20s20 8 20 20zM384 516h246c12 0 20 8 20 20s-8 20-20 20h-246c-12 0-20-8-20-20s8-20 20-20z" />
<glyph unicode="&#x74;" glyph-name="rechazar" d="M908 958h-362c-24 0-60-14-78-32l-388-396c-46-48-46-122 0-166l388-396c18-18 54-32 78-32h362c64 0 116 52 116 116v792c0 62-54 114-116 114zM782 374c10-10 10-26 0-38s-26-10-38 0l-72 72-72-72c-8-10-26-10-36 0s-10 26 0 38l72 72-72 72c-10 10-10 26 0 38 8 8 24 8 36 0l72-74 72 74c10 8 26 8 38 0 12-10 10-26 0-38l-72-72z" />
<glyph unicode="&#x75;" glyph-name="arrow-left" d="M512-64c-134 0-266 52-364 148-96 98-148 230-148 364s52 266 148 364c98 96 230 148 364 148s266-52 364-148c200-202 200-526 0-728-98-96-230-148-364-148zM512 914c-126 0-242-48-330-136s-136-204-136-330c0-126 48-242 136-330s204-136 330-136c126 0 242 48 330 136 182 182 182 478 0 660-88 88-204 136-330 136zM762 402h-488c-28 0-46 18-46 46s18 46 46 46h488c28 0 48-18 48-46s-20-46-48-46zM436 224c-8 0-22 6-32 14l-176 178c-20 18-20 46 0 64l176 178c18 18 46 18 66 0 18-18 18-46 0-66l-144-144 144-144c18-18 18-46 0-66-6-8-20-14-34-14z" />
<glyph unicode="&#xe900;" glyph-name="b-profile" d="M512 960h-1.078c-282.538-0.307-511.461-229.42-511.461-512 0-282.77 229.23-512 512-512 0.189 0 0.379 0 0.568 0h1.102c282.368 1.042 510.868 230.185 510.868 512.697 0 0.115 0 0.23 0 0.344v-0.018c-0.949 282.182-229.737 510.61-511.965 510.976h-0.035zM512.916 11.453h-0.916c-83.902 0.034-162.263 23.733-228.777 64.784l1.881-1.080c1.941 59.112 26.486 112.139 65.22 151.020l-0.007-0.007c41.282 41.514 98.436 67.207 161.591 67.207 0.033 0 0.065 0 0.098 0h0.426c0.152 0 0.332 0.001 0.512 0.001 122.092 0 221.746-96.067 227.497-216.734l0.020-0.516c-64.73-40.376-143.276-64.414-227.419-64.674h-0.071zM808.421 127.057c-29.291 138.658-150.509 241.271-295.743 241.556h-0.678c-145.462-0.292-266.748-103.445-295.007-240.576l-0.336-1.95c-87.514 80.059-142.192 194.762-142.192 322.237 0 240.92 195.304 436.224 436.224 436.224 0.12 0 0.24 0 0.36 0h0.951c0.81 0.005 1.767 0.009 2.725 0.009 240.622 0 435.685-195.063 435.685-435.685 0-127.304-54.599-241.856-141.659-321.516l-0.331-0.298zM512 696.347h-0.431c-88.433 0-160.121-71.689-160.121-160.121s71.689-160.121 160.121-160.121h0.431c44.682 0.015 85.021 18.599 113.722 48.453l0.050 0.052c27.902 28.807 45.1 68.125 45.1 111.461 0 88.026-70.959 159.478-158.796 160.276l-0.076 0.001zM598.232 536.333c0-0.081 0-0.176 0-0.271 0-22.807-9.11-43.486-23.891-58.597l0.015 0.015c-15.586-16.129-37.411-26.143-61.574-26.143-0.275 0-0.55 0.001-0.824 0.004h0.042c-46.88 0-84.884 38.004-84.884 84.884s38.004 84.884 84.884 84.884v0c0.193 0.002 0.422 0.002 0.651 0.002 46.965 0 85.094-37.829 85.58-84.679v-0.046z" />
<glyph unicode="&#xe901;" glyph-name="trash" horiz-adv-x="851" d="M425.407 74.897c-0.176-0.006-0.383-0.010-0.59-0.010-9.749 0-17.689 7.743-18.006 17.415l-0.001 0.029v573.022c0 10.271 8.326 18.597 18.597 18.597v0c10.271 0 18.597-8.326 18.597-18.597v0-572.44c0-9.95-8.066-18.016-18.016-18.016v0zM248.736 74.897c-0.176-0.006-0.383-0.010-0.59-0.010-9.749 0-17.689 7.743-18.006 17.415l-0.001 0.029v573.022c0 10.271 8.326 18.597 18.597 18.597v0 0c10.143-0.312 18.285-8.454 18.596-18.568l0.001-0.029v-572.44c0-0.003 0-0.006 0-0.009 0-9.95-8.066-18.016-18.016-18.016-0.204 0-0.408 0.003-0.611 0.010l0.030-0.001zM602.661 74.897c-0.176-0.006-0.382-0.009-0.59-0.009-10.070 0-18.27 8.003-18.588 17.996l-0.001 0.029v572.44c1.84 9.161 9.821 15.964 19.391 15.964 1.156 0 2.289-0.099 3.391-0.29l-0.118 0.017c7.794-1.623 13.782-7.807 15.094-15.578l0.016-0.113v-572.44c0-0.003 0-0.006 0-0.009 0-9.95-8.066-18.016-18.016-18.016-0.204 0-0.408 0.003-0.611 0.010l0.030-0.001zM832.218 857.716h-246.992c-2.421 29.921-12.952 56.984-29.366 79.481l0.308-0.443c-13.687 14.39-32.978 23.341-54.359 23.341-1.322 0-2.635-0.034-3.94-0.102l0.183 0.008h-174.347c-0.627 0.018-1.364 0.028-2.103 0.028-21.888 0-41.697-8.897-56.010-23.272l-0.003-0.003c-17.646-21.752-29.708-48.706-33.62-78.233l-0.087-0.805h-213.285c-10.271 0-18.597-8.326-18.597-18.597s8.326-18.597 18.597-18.597h33.126l36.032-797.348v-4.068c1.602-46.244 39.475-83.124 85.963-83.124 0.63 0 1.259 0.007 1.885 0.020l-0.094-0.002h503.283c46.683 0.651 84.276 38.646 84.276 85.422 0 0.411-0.003 0.822-0.009 1.232l0.001-0.062 34.288 797.93h34.869c10.271 0 18.597 8.326 18.597 18.597s-8.326 18.597-18.597 18.597v0zM289.417 910.602c7.023 7.537 17.007 12.236 28.088 12.236 0.546 0 1.088-0.011 1.629-0.034l-0.077 0.003h177.253c0.61 0.036 1.322 0.056 2.040 0.056 10.934 0 20.766-4.718 27.571-12.229l0.028-0.031c10.593-14.884 17.844-32.851 20.282-52.315l0.058-0.57h-276.050c2.124 19.936 8.989 37.93 19.438 53.29l-0.26-0.404zM725.866 22.593v-2.906c-0.642-26.783-22.507-48.25-49.385-48.25-0.413 0-0.826 0.005-1.237 0.015l0.061-0.001h-503.283c-26.289 1.245-47.131 22.862-47.131 49.346 0 0.836 0.021 1.667 0.062 2.493l-0.005-0.116-33.707 797.348h668.913z" />
<glyph unicode="&#xe902;" glyph-name="transactional-pending-payment-standard" d="M512 951.981c-277.704 0-503.981-226.277-503.981-503.981s226.277-503.981 503.981-503.981 503.981 226.277 503.981 503.981-226.277 503.981-503.981 503.981zM512 26.301c-231.421 0-421.699 190.28-421.699 421.699s190.28 421.699 421.699 421.699 421.699-190.28 421.699-421.699-190.28-421.699-421.699-421.699zM589.141 468.571c-5.143 0-5.143 5.143-5.143 5.143v102.853c0 5.143 0 5.143 5.143 5.143 10.285 0 20.571-5.143 30.856-5.143s15.428 0 20.571 5.143c5.143 5.143 10.285 10.285 10.285 20.571v0c0 10.285-5.143 20.571-10.285 25.713s-15.428 10.285-20.571 15.428c-10.285 0-20.571 5.143-30.856 5.143-5.143 0-5.143 0-5.143 5.143v20.571c0 10.285-5.143 15.428-10.285 20.571s-10.285 10.285-20.571 10.285c-10.285 0-15.428-5.143-20.571-10.285s-10.285-10.285-10.285-20.571v-20.571c0-5.143 0-5.143-5.143-5.143-46.284 0-77.141-10.285-102.853-25.713-15.428-20.571-30.856-46.284-30.856-77.141 0-46.284 25.713-82.283 82.283-102.853 5.143 0 5.143-5.143 0-5.143 0-5.143 0-5.143 0-10.285v-97.711c0 0 0 0 0-5.143 0 0 0 0-5.143 0-10.285 5.143-25.713 5.143-36 10.285-5.143 5.143-15.428 0-20.571 0-5.143-5.143-10.285-10.285-10.285-15.428v-5.143c0-10.285 5.143-20.571 10.285-25.713 5.143-10.285 15.428-15.428 20.571-15.428 15.428-5.143 25.713-5.143 36-10.285 5.143 0 5.143-5.143 5.143-5.143v-25.713c0-10.285 5.143-15.428 10.285-20.571s10.285-10.285 20.571-10.285 15.428 5.143 20.571 10.285c5.143 5.143 10.285 10.285 10.285 20.571v25.713c0 5.143 0 5.143 5.143 5.143 46.284 0 77.141 10.285 102.853 30.856s36 46.284 36 82.283c0 25.713-5.143 46.284-20.571 61.712-15.428 5.143-36 15.428-61.712 30.856zM522.285 489.141c0 0 0 0 0 0v0c-41.141 10.285-61.712 25.713-61.712 56.569 0 25.713 20.571 41.141 61.712 41.141 5.143 0 5.143 0 5.143-5.143l-5.143-92.568c5.143 0 5.143 0 0 0 5.143 0 0 0 0 0zM527.428 314.291c0 0-5.143 0 0 0l-5.143 102.853c0 5.143 0 5.143 5.143 5.143 20.571-5.143 36-15.428 46.284-25.713s15.428-20.571 15.428-36c0-30.856-20.571-46.284-61.712-46.284z" />
<glyph unicode="&#xe903;" glyph-name="transactional-standard" d="M512 951.981c-277.704 0-503.981-226.277-503.981-503.981s226.277-503.981 503.981-503.981 503.981 226.277 503.981 503.981-226.277 503.981-503.981 503.981zM512 26.301c-231.421 0-421.699 190.28-421.699 421.699s190.28 421.699 421.699 421.699 421.699-190.28 421.699-421.699-190.28-421.699-421.699-421.699zM589.141 468.571c-5.143 0-5.143 5.143-5.143 5.143v102.853c0 5.143 0 5.143 5.143 5.143 10.285 0 20.571-5.143 30.856-5.143s15.428 0 20.571 5.143c5.143 5.143 10.285 10.285 10.285 20.571v0c0 10.285-5.143 20.571-10.285 25.713s-15.428 10.285-20.571 15.428c-10.285 0-20.571 5.143-30.856 5.143-5.143 0-5.143 0-5.143 5.143v20.571c0 10.285-5.143 15.428-10.285 20.571s-10.285 10.285-20.571 10.285c-10.285 0-15.428-5.143-20.571-10.285s-10.285-10.285-10.285-20.571v-20.571c0-5.143 0-5.143-5.143-5.143-46.284 0-77.141-10.285-102.853-25.713-15.428-20.571-30.856-46.284-30.856-77.141 0-46.284 25.713-82.283 82.283-102.853 5.143 0 5.143-5.143 0-5.143 0-5.143 0-5.143 0-10.285v-97.711c0 0 0 0 0-5.143 0 0 0 0-5.143 0-10.285 5.143-25.713 5.143-36 10.285-5.143 5.143-15.428 0-20.571 0-5.143-5.143-10.285-10.285-10.285-15.428v-5.143c0-10.285 5.143-20.571 10.285-25.713 5.143-10.285 15.428-15.428 20.571-15.428 15.428-5.143 25.713-5.143 36-10.285 5.143 0 5.143-5.143 5.143-5.143v-25.713c0-10.285 5.143-15.428 10.285-20.571s10.285-10.285 20.571-10.285 15.428 5.143 20.571 10.285c5.143 5.143 10.285 10.285 10.285 20.571v25.713c0 5.143 0 5.143 5.143 5.143 46.284 0 77.141 10.285 102.853 30.856s36 46.284 36 82.283c0 25.713-5.143 46.284-20.571 61.712-15.428 5.143-36 15.428-61.712 30.856zM522.285 489.141c0 0 0 0 0 0v0c-41.141 10.285-61.712 25.713-61.712 56.569 0 25.713 20.571 41.141 61.712 41.141 5.143 0 5.143 0 5.143-5.143l-5.143-92.568c5.143 0 5.143 0 0 0 5.143 0 0 0 0 0zM527.428 314.291c0 0-5.143 0 0 0l-5.143 102.853c0 5.143 0 5.143 5.143 5.143 20.571-5.143 36-15.428 46.284-25.713s15.428-20.571 15.428-36c0-30.856-20.571-46.284-61.712-46.284z" />
<glyph unicode="&#xe904;" glyph-name="b-store" d="M383.069 519.68h-144.291c-53.983 0-97.745 43.762-97.745 97.745v0 144.291c0 53.983 43.762 97.745 97.745 97.745v0h144.291c53.983 0 97.745-43.762 97.745-97.745v0-144.291c0-53.983-43.762-97.745-97.745-97.745v0zM238.778 798.953c-20.565 0-37.236-16.671-37.236-37.236v0-144.291c0-20.565 16.671-37.236 37.236-37.236v0h144.291c20.565 0 37.236 16.671 37.236 37.236v0 144.291c0 20.565-16.671 37.236-37.236 37.236v0zM801.978 519.68h-144.291c-53.983 0-97.745 43.762-97.745 97.745v0 144.291c0 53.983 43.762 97.745 97.745 97.745h144.291c53.983 0 97.745-43.762 97.745-97.745v0-144.291c0-53.983-43.762-97.745-97.745-97.745v0zM657.687 798.953c-20.565 0-37.236-16.671-37.236-37.236v0-144.291c0-20.565 16.671-37.236 37.236-37.236v0h144.291c20.565 0 37.236 16.671 37.236 37.236v0 144.291c0 20.565-16.671 37.236-37.236 37.236v0zM383.069 100.771h-144.291c-53.983 0-97.745 43.762-97.745 97.745v0 144.291c0 53.983 43.762 97.745 97.745 97.745v0h144.291c53.983 0 97.745-43.762 97.745-97.745v0-144.291c0-53.983-43.762-97.745-97.745-97.745v0zM238.778 380.044c-20.565 0-37.236-16.671-37.236-37.236v0-144.291c0-20.565 16.671-37.236 37.236-37.236v0h144.291c20.565 0 37.236 16.671 37.236 37.236v144.291c0 20.565-16.671 37.236-37.236 37.236v0zM801.978 100.771h-144.291c-53.983 0-97.745 43.762-97.745 97.745v0 144.291c0 53.983 43.762 97.745 97.745 97.745v0h144.291c53.983 0 97.745-43.762 97.745-97.745v0-144.291c0-53.983-43.762-97.745-97.745-97.745v0zM657.687 380.044c-20.565 0-37.236-16.671-37.236-37.236v0-144.291c0-20.565 16.671-37.236 37.236-37.236v0h144.291c20.565 0 37.236 16.671 37.236 37.236v0 144.291c0 20.565-16.671 37.236-37.236 37.236v0z" />
<glyph unicode="&#xe905;" glyph-name="b-movements" d="M837.818-23.971c-0.049 0-0.108 0-0.166 0-5.979 0-11.553 1.735-16.247 4.728l0.122-0.073-93.091 58.182h-399.825c-97.72 6.276-174.601 87.070-174.601 185.821 0 1.6 0.020 3.195 0.060 4.785l-0.005-0.236v614.865c0 16.709 13.545 30.255 30.255 30.255h512c95.362-4.523 170.965-82.938 170.965-179.011 0-2.522-0.052-5.032-0.155-7.528l0.012 0.357v-681.891c-0.024-11.397-6.346-21.312-15.669-26.452l-0.156-0.079c-3.9-2.167-8.52-3.522-13.438-3.722l-0.060-0.002zM330.473 100.771h408.669c0.010 0 0.022 0 0.033 0 6.024 0 11.642-1.734 16.384-4.729l-0.126 0.075 52.131-33.047v625.571c0.124 2.032 0.195 4.407 0.195 6.799 0 62.672-48.574 113.998-110.128 118.387l-0.38 0.022h-480.815v-582.749c-0.138-2.187-0.217-4.743-0.217-7.317 0-64.922 50.158-118.13 113.837-122.984l0.417-0.026zM684.218 598.342h-347.695c-16.709 0-30.255 13.545-30.255 30.255s13.545 30.255 30.255 30.255h347.695c16.709 0 30.255-13.545 30.255-30.255s-13.545-30.255-30.255-30.255v0zM684.218 412.16h-347.695c-16.709 0-30.255 13.545-30.255 30.255s13.545 30.255 30.255 30.255v0h347.695c16.709 0 30.255-13.545 30.255-30.255s-13.545-30.255-30.255-30.255v0zM684.218 225.978h-347.695c-16.709 0-30.255 13.545-30.255 30.255s13.545 30.255 30.255 30.255v0h347.695c16.709 0 30.255-13.545 30.255-30.255s-13.545-30.255-30.255-30.255v0z" />
<glyph unicode="&#xe906;" glyph-name="transactional-new-subscription-standard" horiz-adv-x="937" d="M341.873 696.439h201.451c14.914 0 27.004 12.090 27.004 27.004v0c0 14.914-12.090 27.004-27.004 27.004v0h-201.451c-14.914 0-27.004-12.090-27.004-27.004v0c0-14.914 12.090-27.004 27.004-27.004v0zM903.021 769.89c0.258 1.299 0.405 2.793 0.405 4.321s-0.148 3.022-0.429 4.467l0.024-0.147 29.705 49.688-176.608 111.797-32.945-59.409s-2.7 0-3.241-3.241c-0.109-0.73-0.172-1.573-0.172-2.43s0.062-1.7 0.183-2.524l-0.011 0.094-27.004-48.068v75.612c0 33.109-26.84 59.949-59.949 59.949v0h-573.030c-33.109 0-59.949-26.84-59.949-59.949v0-903.561c-0.002-0.16-0.002-0.35-0.002-0.54 0-33.109 26.84-59.949 59.949-59.949 0.001 0 0.002 0 0.003 0h573.029c33.174 0.306 59.949 27.27 59.949 60.487 0 0.001 0 0.002 0 0.003v0 409.924h-5.941l212.253 355.916s3.781 5.401 3.781 7.561zM646.481 445.84l-79.392 46.447 186.329 331.612 88.574-51.308zM598.414 410.734l-35.646-12.422-2.7 39.966zM632.979-9.992h-573.030c-0.007 0-0.016 0-0.025 0-3.281 0-5.941 2.66-5.941 5.941 0 0.19 0.009 0.378 0.026 0.564l-0.002-0.024v903.561c0 3.281 2.66 5.941 5.941 5.941v0h573.030c3.281 0 5.941-2.66 5.941-5.941v0-172.287l-64.27-111.797h-292.726c-14.914 0-27.004-12.090-27.004-27.004v0c0-14.914 12.090-27.004 27.004-27.004v0h262.481l-31.325-54.008c-3.184-2.020-5.745-4.754-7.505-7.988l-0.057-0.113c-1.467-2.971-2.596-6.417-3.209-10.039l-0.031-0.223 14.042-108.017c2.506-19.882 19.31-35.107 39.67-35.107 0.104 0 0.208 0 0.312 0.001h-0.016c5.114 1.161 9.62 2.833 13.821 5.011l-0.319-0.15 68.591 23.764v-374.278c1.995-1.013 3.338-3.050 3.338-5.401 0-3.335-2.703-6.038-6.038-6.038-0.984 0-1.914 0.236-2.735 0.653l0.034-0.016z" />
<glyph unicode="&#xe907;" glyph-name="informative-request-money" d="M512 951.981c-277.704 0-503.981-226.277-503.981-503.981s226.277-503.981 503.981-503.981 503.981 226.277 503.981 503.981-226.277 503.981-503.981 503.981zM512 26.301c-231.421 0-421.699 190.28-421.699 421.699s190.28 421.699 421.699 421.699 421.699-190.28 421.699-421.699-190.28-421.699-421.699-421.699zM589.141 468.571c-5.143 0-5.143 5.143-5.143 5.143v102.853c0 5.143 0 5.143 5.143 5.143 10.285 0 20.571-5.143 30.856-5.143s15.428 0 20.571 5.143c5.143 5.143 10.285 10.285 10.285 20.571v0c0 10.285-5.143 20.571-10.285 25.713s-15.428 10.285-20.571 15.428c-10.285 0-20.571 5.143-30.856 5.143-5.143 0-5.143 0-5.143 5.143v20.571c0 10.285-5.143 15.428-10.285 20.571s-10.285 10.285-20.571 10.285c-10.285 0-15.428-5.143-20.571-10.285s-10.285-10.285-10.285-20.571v-20.571c0-5.143 0-5.143-5.143-5.143-46.284 0-77.141-10.285-102.853-25.713-15.428-20.571-30.856-46.284-30.856-77.141 0-46.284 25.713-82.283 82.283-102.853 5.143 0 5.143-5.143 0-5.143 0-5.143 0-5.143 0-10.285v-97.711c0 0 0 0 0-5.143 0 0 0 0-5.143 0-10.285 5.143-25.713 5.143-36 10.285-5.143 5.143-15.428 0-20.571 0-5.143-5.143-10.285-10.285-10.285-15.428v-5.143c0-10.285 5.143-20.571 10.285-25.713 5.143-10.285 15.428-15.428 20.571-15.428 15.428-5.143 25.713-5.143 36-10.285 5.143 0 5.143-5.143 5.143-5.143v-25.713c0-10.285 5.143-15.428 10.285-20.571s10.285-10.285 20.571-10.285 15.428 5.143 20.571 10.285c5.143 5.143 10.285 10.285 10.285 20.571v25.713c0 5.143 0 5.143 5.143 5.143 46.284 0 77.141 10.285 102.853 30.856s36 46.284 36 82.283c0 25.713-5.143 46.284-20.571 61.712-15.428 5.143-36 15.428-61.712 30.856zM522.285 489.141c0 0 0 0 0 0v0c-41.141 10.285-61.712 25.713-61.712 56.569 0 25.713 20.571 41.141 61.712 41.141 5.143 0 5.143 0 5.143-5.143l-5.143-92.568c5.143 0 5.143 0 0 0 5.143 0 0 0 0 0zM527.428 314.291c0 0-5.143 0 0 0l-5.143 102.853c0 5.143 0 5.143 5.143 5.143 20.571-5.143 36-15.428 46.284-25.713s15.428-20.571 15.428-36c0-30.856-20.571-46.284-61.712-46.284z" />
<glyph unicode="&#xe908;" glyph-name="ic_other_banks" horiz-adv-x="968" d="M952.674 599.646c8.564 0 15.506 6.942 15.506 15.506v0 104.819s0 0 0 3.101c0.153 0.652 0.24 1.401 0.24 2.171s-0.088 1.518-0.253 2.238l0.013-0.067c-0.699 1.727-1.756 3.183-3.087 4.329l-0.014 0.012s0 0 0 0l-475.717 225.144c-1.199 0.45-2.585 0.711-4.031 0.711s-2.832-0.261-4.113-0.738l0.081 0.027h-5.582l-468.894-222.663s0 0 0 0c-1.345-1.159-2.402-2.614-3.074-4.267l-0.027-0.075c-0.278-0.641-0.439-1.387-0.439-2.171s0.162-1.53 0.453-2.207l-0.014 0.036s0 0 0-3.101v-107.3c0-8.564 6.942-15.506 15.506-15.506v0h62.023v-422.377h-18.607c-8.564 0-15.506-6.942-15.506-15.506v0-89.313h-31.632c-8.564 0-15.506-6.942-15.506-15.506v0-105.439c0.328-8.428 7.078-15.177 15.475-15.505l0.030-0.001h937.168c8.564 0 15.506 6.942 15.506 15.506v0 105.439c0 8.564-6.942 15.506-15.506 15.506v0h-35.353v89.313c0 8.564-6.942 15.506-15.506 15.506v0h-14.265v422.377zM482.539 927.748l398.808-192.271h-798.856zM31.012 704.465h906.156v-73.807h-906.156zM547.663 177.27v422.377h209.018v-422.377zM205.296 177.27v422.377h212.119v-422.377zM448.426 599.646h66.985v-422.377h-66.985zM107.92 599.646h68.225v-422.377h-68.225zM937.168-35.469h-906.156v74.428h906.156zM81.25 72.451v73.807h806.299v-73.807zM856.538 177.27h-68.846v422.377h68.846z" />
<glyph unicode="&#xe909;" glyph-name="mm-irequest-money-standard" d="M512 951.981c-277.704 0-503.981-226.277-503.981-503.981s226.277-503.981 503.981-503.981 503.981 226.277 503.981 503.981-226.277 503.981-503.981 503.981zM512 26.301c-231.421 0-421.699 190.28-421.699 421.699s190.28 421.699 421.699 421.699 421.699-190.28 421.699-421.699-190.28-421.699-421.699-421.699zM589.141 468.571c-5.143 0-5.143 5.143-5.143 5.143v102.853c0 5.143 0 5.143 5.143 5.143 10.285 0 20.571-5.143 30.856-5.143s15.428 0 20.571 5.143c5.143 5.143 10.285 10.285 10.285 20.571v0c0 10.285-5.143 20.571-10.285 25.713s-15.428 10.285-20.571 15.428c-10.285 0-20.571 5.143-30.856 5.143-5.143 0-5.143 0-5.143 5.143v20.571c0 10.285-5.143 15.428-10.285 20.571s-10.285 10.285-20.571 10.285c-10.285 0-15.428-5.143-20.571-10.285s-10.285-10.285-10.285-20.571v-20.571c0-5.143 0-5.143-5.143-5.143-46.284 0-77.141-10.285-102.853-25.713-15.428-20.571-30.856-46.284-30.856-77.141 0-46.284 25.713-82.283 82.283-102.853 5.143 0 5.143-5.143 0-5.143 0-5.143 0-5.143 0-10.285v-97.711c0 0 0 0 0-5.143 0 0 0 0-5.143 0-10.285 5.143-25.713 5.143-36 10.285-5.143 5.143-15.428 0-20.571 0-5.143-5.143-10.285-10.285-10.285-15.428v-5.143c0-10.285 5.143-20.571 10.285-25.713 5.143-10.285 15.428-15.428 20.571-15.428 15.428-5.143 25.713-5.143 36-10.285 5.143 0 5.143-5.143 5.143-5.143v-25.713c0-10.285 5.143-15.428 10.285-20.571s10.285-10.285 20.571-10.285 15.428 5.143 20.571 10.285c5.143 5.143 10.285 10.285 10.285 20.571v25.713c0 5.143 0 5.143 5.143 5.143 46.284 0 77.141 10.285 102.853 30.856s36 46.284 36 82.283c0 25.713-5.143 46.284-20.571 61.712-15.428 5.143-36 15.428-61.712 30.856zM522.285 489.141c0 0 0 0 0 0v0c-41.141 10.285-61.712 25.713-61.712 56.569 0 25.713 20.571 41.141 61.712 41.141 5.143 0 5.143 0 5.143-5.143l-5.143-92.568c5.143 0 5.143 0 0 0 5.143 0 0 0 0 0zM527.428 314.291c0 0-5.143 0 0 0l-5.143 102.853c0 5.143 0 5.143 5.143 5.143 20.571-5.143 36-15.428 46.284-25.713s15.428-20.571 15.428-36c0-30.856-20.571-46.284-61.712-46.284z" />
<glyph unicode="&#xe90a;" glyph-name="mm-grequest-money-standard" d="M512 951.981c-277.704 0-503.981-226.277-503.981-503.981s226.277-503.981 503.981-503.981 503.981 226.277 503.981 503.981-226.277 503.981-503.981 503.981zM512 26.301c-231.421 0-421.699 190.28-421.699 421.699s190.28 421.699 421.699 421.699 421.699-190.28 421.699-421.699-190.28-421.699-421.699-421.699zM589.141 468.571c-5.143 0-5.143 5.143-5.143 5.143v102.853c0 5.143 0 5.143 5.143 5.143 10.285 0 20.571-5.143 30.856-5.143s15.428 0 20.571 5.143c5.143 5.143 10.285 10.285 10.285 20.571v0c0 10.285-5.143 20.571-10.285 25.713s-15.428 10.285-20.571 15.428c-10.285 0-20.571 5.143-30.856 5.143-5.143 0-5.143 0-5.143 5.143v20.571c0 10.285-5.143 15.428-10.285 20.571s-10.285 10.285-20.571 10.285c-10.285 0-15.428-5.143-20.571-10.285s-10.285-10.285-10.285-20.571v-20.571c0-5.143 0-5.143-5.143-5.143-46.284 0-77.141-10.285-102.853-25.713-15.428-20.571-30.856-46.284-30.856-77.141 0-46.284 25.713-82.283 82.283-102.853 5.143 0 5.143-5.143 0-5.143 0-5.143 0-5.143 0-10.285v-97.711c0 0 0 0 0-5.143 0 0 0 0-5.143 0-10.285 5.143-25.713 5.143-36 10.285-5.143 5.143-15.428 0-20.571 0-5.143-5.143-10.285-10.285-10.285-15.428v-5.143c0-10.285 5.143-20.571 10.285-25.713 5.143-10.285 15.428-15.428 20.571-15.428 15.428-5.143 25.713-5.143 36-10.285 5.143 0 5.143-5.143 5.143-5.143v-25.713c0-10.285 5.143-15.428 10.285-20.571s10.285-10.285 20.571-10.285 15.428 5.143 20.571 10.285c5.143 5.143 10.285 10.285 10.285 20.571v25.713c0 5.143 0 5.143 5.143 5.143 46.284 0 77.141 10.285 102.853 30.856s36 46.284 36 82.283c0 25.713-5.143 46.284-20.571 61.712-15.428 5.143-36 15.428-61.712 30.856zM522.285 489.141c0 0 0 0 0 0v0c-41.141 10.285-61.712 25.713-61.712 56.569 0 25.713 20.571 41.141 61.712 41.141 5.143 0 5.143 0 5.143-5.143l-5.143-92.568c5.143 0 5.143 0 0 0 5.143 0 0 0 0 0zM527.428 314.291c0 0-5.143 0 0 0l-5.143 102.853c0 5.143 0 5.143 5.143 5.143 20.571-5.143 36-15.428 46.284-25.713s15.428-20.571 15.428-36c0-30.856-20.571-46.284-61.712-46.284z" />
<glyph unicode="&#xe90b;" glyph-name="b-home" horiz-adv-x="1000" d="M876.469-30.518h-753.7c-0.029 0-0.063 0-0.097 0-12.52 0-22.67 10.15-22.67 22.67 0 0.737 0.035 1.466 0.104 2.184l-0.007-0.092 43.248 471.542c0.706 7.022 4.522 13.028 10.031 16.689l0.083 0.052 322.267 214.147c3.453 2.237 7.675 3.567 12.207 3.567s8.754-1.33 12.296-3.621l-0.089 0.054 329.94-206.474c5.649-3.578 9.569-9.452 10.451-16.279l0.012-0.114 58.245-478.866c0.11-0.838 0.172-1.807 0.172-2.791 0-12.52-10.15-22.67-22.67-22.67-0.061 0-0.121 0-0.182 0.001h0.009zM147.88 14.823h703.128l-54.060 442.943-308.665 192.872-300.643-199.847zM498.747 654.823c-12.52 0-22.67 10.15-22.67 22.67v205.079c0 12.52 10.15 22.67 22.67 22.67s22.67-10.15 22.67-22.67v0-205.079c0-12.52-10.15-22.67-22.67-22.67v0zM558.038 736.087l167.411 69.755c4.212 1.773 7.115 5.866 7.115 10.638s-2.903 8.864-7.039 10.609l-0.076 0.028-167.411 69.755c-1.338 0.589-2.897 0.932-4.536 0.932-6.357 0-11.51-5.153-11.51-11.51 0-0.082 0.001-0.164 0.003-0.246v0.012-139.51c0.065-6.307 5.193-11.394 11.509-11.394 1.639 0 3.198 0.342 4.609 0.96l-0.074-0.029zM576.174-25.635c-12.52 0-22.67 10.15-22.67 22.67v0 202.289c-2.994 30.598-28.588 54.313-59.72 54.313-1.937 0-3.852-0.092-5.742-0.271l0.241 0.019c-1.44 0.123-3.116 0.193-4.809 0.193-31.111 0-56.691-23.683-59.694-54.004l-0.020-0.249v-174.387c0-12.52-10.15-22.67-22.67-22.67s-22.67 10.15-22.67 22.67v0 174.387c3.515 54.928 48.926 98.147 104.431 98.147 1.911 0 3.81-0.051 5.696-0.152l-0.263 0.011c1.6 0.087 3.472 0.137 5.356 0.137 55.995 0 101.716-43.985 104.498-99.289l0.010-0.249v-202.289c-0.737-11.683-10.221-20.925-21.939-21.274l-0.034-0.001z" />
<glyph unicode="&#xe90c;" glyph-name="informative-standard" horiz-adv-x="953" d="M889.55 594.522c-4.441 0-4.441 0-8.879 0v257.526c0 26.64-17.761 48.84-44.401 57.723s-48.84 0-66.601-17.761c-4.441-4.441-173.164-213.123-324.128-213.123h-328.566c-17.761 4.441-35.52-4.441-48.84-17.761s-22.2-31.081-22.2-44.401v-17.761c-13.32-17.761-31.081-44.401-31.081-84.362s17.761-66.601 35.52-84.362v-17.761c0-17.761 8.879-35.52 17.761-48.84 13.32-13.32 31.081-17.761 48.84-17.761h97.682v-315.246c0-13.32 4.441-26.64 13.32-35.52s22.2-13.32 35.52-13.32h111.002c8.879 0 22.2 4.441 31.081 8.879s17.761 13.32 22.2 17.761c4.441 8.879 8.879 17.761 13.32 26.64 0 8.879 0 22.2 0 31.081-4.441 17.761-13.32 31.081-17.761 48.84-13.32 35.52-31.081 75.482-35.52 128.761 17.761 0 35.52 8.879 44.401 17.761 13.32 13.32 17.761 31.081 17.761 48.84v35.52c150.964 0 319.686-208.685 324.128-213.123 8.879-13.32 26.64-22.2 44.401-22.2 8.879 0 13.32 0 22.2 4.441 26.64 8.879 44.401 31.081 44.401 57.723v257.526c4.441 0 4.441 0 8.879 0 22.2 4.441 57.723 26.64 57.723 79.921s-44.401 75.482-62.16 84.362zM148.055 416.919h-35.52v31.081c0 4.441 0 4.441 0 8.879v159.842h35.52v-199.804zM383.379 314.798h-35.52c-17.761 0-35.52-13.32-35.52-35.52 0-84.362 22.2-142.083 44.401-190.925 4.441-13.32 13.32-31.081 17.761-44.401h-93.241v301.926h102.121v-31.081zM445.543 412.48h-230.885v204.245h230.885v-204.245zM814.069 186.035c-35.52 39.962-159.842 177.603-301.926 217.565v222.005c137.644 35.52 266.405 177.603 301.926 217.565v-657.134z" />
<glyph unicode="&#xe90d;" glyph-name="sun" d="M511.999 89.6v0c199.111 0 358.4 159.288 358.4 358.4s-164.977 358.4-358.4 358.4c-193.422 0-358.4-159.288-358.4-358.4s159.288-358.4 358.4-358.4zM511.999 772.265c182.044 0 324.267-147.911 324.267-324.267s-147.911-324.267-324.267-324.267c-176.355 0-324.267 147.911-324.267 324.267s147.911 324.267 324.267 324.267zM511.999 823.465c-11.378 0-17.067 5.689-17.067 17.067v102.4c0 5.689 11.378 17.067 17.067 17.067 11.378 0 17.067-5.689 17.067-17.067v-102.4c0-11.378-5.689-17.067-17.067-17.067zM511.999-63.999c-11.378 0-17.067 5.689-17.067 17.067v102.4c0 11.378 5.689 17.067 17.067 17.067s17.067-5.689 17.067-17.067v-102.4c0-11.378-5.689-17.067-17.067-17.067zM1006.933 430.932h-102.4c-11.378 0-17.067 5.689-17.067 17.067s5.689 17.067 17.067 17.067h102.4c11.378 0 17.067-5.689 17.067-17.067s-5.689-17.067-17.067-17.067zM119.467 430.932h-102.4c-5.689 0-17.067 5.689-17.067 17.067s5.689 17.067 17.067 17.067h102.4c11.378 0 17.067-5.689 17.067-17.067s-5.689-17.067-17.067-17.067zM790.754 703.998c-5.689 0-11.378 0-11.378 5.689-5.689 5.689-5.689 17.067 0 22.755l96.711 96.711c5.689 5.689 17.067 5.689 22.755 0s5.689-17.067 0-22.755l-96.711-96.711c0 0-5.689-5.689-11.378-5.689zM136.533 55.466c-5.689 0-11.378 0-11.378 5.689-5.689 5.689-5.689 17.067 0 22.755l96.711 96.711c5.689 5.689 17.067 5.689 22.755 0s5.689-17.067 0-22.755l-96.711-96.711c0-5.689-5.689-5.689-11.378-5.689zM887.465 55.466c-5.689 0-11.378 0-11.378 5.689l-96.711 96.711c-5.689 5.689-5.689 17.067 0 22.755s17.067 5.689 22.755 0l96.711-96.711c5.689-5.689 5.689-17.067 0-22.755 0-5.689-5.689-5.689-11.378-5.689zM238.933 703.998c-5.689 0-11.378 0-11.378 5.689l-102.4 102.4c-5.689 5.689-5.689 17.067 0 22.755s17.067 5.689 22.755 0l96.711-96.711c5.689-5.689 5.689-17.067 0-22.755 0-5.689-5.689-11.378-5.689-11.378zM876.087 584.532c-5.689 0-11.378 5.689-17.067 11.378-5.689 11.378 0 17.067 11.378 22.755l45.511 22.755c11.378 5.689 17.067 0 22.755-11.378s0-17.067-11.378-22.755l-45.511-22.755c0 0-5.689 0-5.689 0zM108.089 254.577c-5.689 0-11.378 5.689-17.067 11.378-5.689 11.378 0 17.067 11.378 22.755l45.511 22.755c11.378 5.689 17.067 0 22.755-11.378 0-11.378 0-17.067-11.378-22.755l-45.511-22.755h-5.689zM927.288 260.266h-5.689l-45.511 17.067c-11.378 5.689-11.378 11.378-11.378 22.755 5.689 11.378 11.378 11.378 22.755 11.378l45.511-17.067c11.378-5.689 11.378-11.378 11.378-22.755-5.689-5.689-11.378-11.378-17.067-11.378zM147.911 573.154h-5.689l-45.511 17.067c-11.378 5.689-11.378 11.378-11.378 22.755 5.689 11.378 11.378 11.378 22.755 11.378l45.511-17.067c11.378-5.689 11.378-11.378 11.378-22.755 0-5.689-5.689-11.378-17.067-11.378zM688.354 21.332c-5.689 0-11.378 5.689-17.067 11.378l-22.755 45.511c-5.689 11.378 0 17.067 11.378 22.755s17.067 0 22.755-11.378l22.755-45.511c5.689-11.378 0-17.067-11.378-22.755h-5.689zM358.399 789.331c-5.689 0-11.378 5.689-17.067 11.378l-17.067 45.511c-5.689 11.378 0 17.067 11.378 22.755s17.067 0 22.755-11.378l22.755-45.511c5.689-11.378 0-17.067-11.378-22.755h-11.378zM347.022 15.643h-5.689c-11.378 5.689-11.378 11.378-11.378 22.755l17.067 45.511c5.689 11.378 11.378 11.378 22.755 11.378 11.378-5.689 11.378-11.378 11.378-22.755l-17.067-45.511c-5.689-5.689-11.378-11.378-17.067-11.378zM659.91 795.020h-5.689c-11.378 5.689-11.378 11.378-11.378 22.755l17.067 45.511c5.689 11.378 11.378 11.378 22.755 11.378 11.378-5.689 11.378-11.378 11.378-22.755l-17.067-45.511c0-11.378-11.378-11.378-17.067-11.378z" />
<glyph unicode="&#xe90e;" glyph-name="bubble-chat" horiz-adv-x="1164" d="M525.617 270.487c4.309 4.704 10.392 7.392 16.773 7.392h417.278c41.4 0 74.903 33.291 74.903 74.277v416.086c0 41.004-33.5 74.296-74.903 74.296h-755.343c-41.402 0-74.903-33.293-74.903-74.296v-416.086c0-40.991 33.502-74.277 74.903-74.277h140.015c12.556 0 22.735-10.177 22.735-22.735v-157.968l158.538 173.311zM204.332 232.415c-66.448 0-120.37 53.581-120.37 119.743v416.086c0 66.181 53.92 119.765 120.37 119.765h755.343c66.452 0 120.37-53.585 120.37-119.765v-416.086c0-66.162-53.925-119.743-120.37-119.743h-407.264l-191.285-209.107c-13.999-15.308-39.507-5.401-39.507 15.343v193.764h-117.29z" />
<glyph unicode="&#xe90f;" glyph-name="wallet" horiz-adv-x="1229" d="M1047.938 447.997c0 30.633-24.839 55.472-55.472 55.472s-55.472-24.839-55.472-55.472c0-30.633 24.839-55.472 55.472-55.472s55.472 24.839 55.472 55.472zM1070.392 447.997c0-43.033-34.895-77.928-77.928-77.928s-77.928 34.895-77.928 77.928c0 43.033 34.895 77.928 77.928 77.928s77.928-34.895 77.928-77.928zM1081.169 558.941h-110.944c-61.266 0-110.944-49.678-110.944-110.944s49.678-110.944 110.944-110.944h110.944v221.888zM970.226 292.141c-86.073 0-155.856 69.783-155.856 155.856s69.783 155.856 155.856 155.856h155.856v-311.712h-155.856zM986.743 91.833v245.22h139.346v-245.22c0-36.153-26.843-66.492-61.421-66.492h-94.435v44.912c8.47 0 16.511 9.095 16.511 21.581zM1031.655 91.833c0-7.522-1.161-14.787-3.31-21.581h36.323c8.47 0 16.511 9.095 16.511 21.581v200.308h-49.523v-200.308zM1064.661 870.653c34.577 0 61.421-30.338 61.421-66.492v-245.22h-139.346v245.22c0 12.494-8.049 21.581-16.511 21.581v44.912h94.435zM1081.169 804.161c0 12.494-8.049 21.581-16.511 21.581h-36.323c2.148-6.793 3.31-14.066 3.31-21.581v-200.308h49.523v200.308zM980.489 331.255h56.662v-240.372c0-36.117-28.918-65.539-64.798-65.539h-804.644c-35.888 0-64.798 29.418-64.798 65.539v714.236c0 36.117 28.918 65.539 64.798 65.539h804.644c35.888 0 64.798-29.417 64.798-65.539v-240.372h-56.662c-63.068 0-114.362-52.186-114.362-116.742s51.294-116.742 114.362-116.742zM980.489 286.343c-88.044 0-159.274 72.464-159.274 161.654s71.229 161.654 159.274 161.654h11.753v195.46c0 11.492-8.984 20.63-19.892 20.63h-804.644c-10.909 0-19.892-9.14-19.892-20.63v-714.236c0-11.492 8.984-20.63 19.892-20.63h804.644c10.909 0 19.892 9.14 19.892 20.63v195.46h-11.753z" />
<glyph unicode="&#xe910;" glyph-name="b-notification" d="M782.429 224.116h-60.975v313.251c0 95.884-96.349 173.615-214.109 173.615s-213.644-76.8-213.644-173.615v-313.716h-60.509v313.716c0 128.931 123.345 232.727 274.618 232.727s275.084-105.193 275.084-232.727zM835.025 168.727h-654.429c-16.709 0-30.255 13.545-30.255 30.255s13.545 30.255 30.255 30.255v0h654.429c16.709 0 30.255-13.545 30.255-30.255s-13.545-30.255-30.255-30.255v0zM514.793-38.865c-0.139-0.001-0.304-0.001-0.469-0.001-68.823 0-124.677 55.528-125.204 124.227v0.050c0 16.709 13.545 30.255 30.255 30.255s30.255-13.545 30.255-30.255v0c0-35.989 29.175-65.164 65.164-65.164s65.164 29.175 65.164 65.164v0c0 16.709 13.545 30.255 30.255 30.255s30.255-13.545 30.255-30.255v0c-0.527-68.749-56.381-124.277-125.204-124.277-0.165 0-0.33 0-0.494 0.001h0.026zM546.909 789.644c-0.001 0-0.002 0-0.004 0-16.709 0-30.255 13.545-30.255 30.255 0 0.164 0.001 0.327 0.004 0.49v-0.025s0 0 0 0c-0.262-17.022-14.122-30.72-31.182-30.72-0.001 0-0.002 0-0.004 0v0c-0.558-0.037-1.21-0.058-1.866-0.058-16.709 0-30.255 13.545-30.255 30.255 0 0.184 0.002 0.367 0.005 0.551v-0.027c0 34.189 27.716 61.905 61.905 61.905s61.905-27.716 61.905-61.905v0c0.002-0.138 0.004-0.302 0.004-0.465 0-16.709-13.545-30.255-30.255-30.255-0.001 0-0.003 0-0.004 0v0z" />
<glyph unicode="&#xe911;" glyph-name="car" horiz-adv-x="1365" d="M1357.489 660.751c-6.676 8.152-16.643 12.911-27.095 12.911h-132.874c-32.795 86.561-75.517 171.374-124.075 203.388-167.977 110.599-613.523 110.599-781.499 0-48.593-32.049-91.137-116.967-124.103-203.388h-132.878c-10.558 0-20.486-4.759-27.093-12.911-6.642-8.117-9.299-18.859-7.132-29.181l19.682-95.448c3.356-16.27 17.689-27.886 34.225-27.886h39.364c-38-43.876-56.423-99.123-56.668-154.405-0.245-68.297 25.66-130.019 73.029-173.682 0.524-0.457 1.049-0.771 1.538-1.229v-133.55c0-28.931 23.493-52.483 52.438-52.483h122.565c28.946 0 52.438 23.552 52.438 52.483v53.671h686.623v-53.671c0-28.931 23.491-52.483 52.442-52.483h122.566c28.87 0 52.436 23.552 52.436 52.483v130.929c50.272 46.080 74.288 109.48 74.602 172.774 0.212 57.171-19.053 114.448-59.29 159.233h41.984c16.602 0 30.938 11.616 34.222 27.92l19.722 95.414c2.028 10.252-0.526 20.923-7.168 29.11zM349.523 789.404c133.892 88.206 532.386 88.206 666.21 0 26.010-17.074 59.46-86.107 90.126-170.639h-846.389c30.589 84.497 64.045 153.495 90.054 170.639zM192.698 340.675c0 57.031 46.216 103.216 103.163 103.216 57.018 0 103.163-46.185 103.163-103.216s-46.146-103.251-103.163-103.251c-56.947 0-103.163 46.219-103.163 103.251zM1070.824 237.425c-56.948 0-103.158 46.219-103.158 103.251s46.21 103.216 103.158 103.216c57.023 0 103.165-46.185 103.165-103.216s-46.217-103.251-103.165-103.251z" />
<glyph unicode="&#xe912;" glyph-name="table" horiz-adv-x="1170" d="M154.469 820.624v-110.074h861.282v110.074h-861.282zM154.469 854.129h861.282c18.505 0 33.514-15.002 33.514-33.514v-110.074c0-18.505-15.002-33.514-33.514-33.514h-861.282c-18.505 0-33.514 15.002-33.514 33.514v110.074c0 18.505 15.002 33.514 33.514 33.514zM271.932 706.793l-90.242-639.988 41.477-5.85 90.242 639.988zM856.887 701.042l88.447-645.731 41.506 5.683-88.447 645.731z" />
<glyph unicode="&#xe913;" glyph-name="photo" horiz-adv-x="866" d="M587.288 597.45c0 94.261-76.44 170.701-170.701 170.701s-170.701-76.44-170.701-170.701c0-94.261 76.44-170.701 170.701-170.701s170.701 76.44 170.701 170.701zM611.201 597.45c0-107.476-87.132-194.614-194.614-194.614s-194.614 87.132-194.614 194.614c0 107.476 87.132 194.614 194.614 194.614s194.614-87.132 194.614-194.614zM433.215 347.047c171.667 0 310.826-139.162 310.826-310.845v-11.954h-621.689v11.954c0 171.672 139.196 310.845 310.874 310.845zM433.215 323.134c-154.47 0-280.442-122.052-286.705-274.987h573.377c-6.27 152.923-132.21 274.987-286.669 274.987zM94.447 853.161v-810.331h677.481v810.331h-677.481zM94.447 879.729h677.481c14.67 0 26.575-11.9 26.575-26.575v-810.331c0-14.67-11.9-26.575-26.575-26.575h-677.481c-14.67 0-26.575 11.9-26.575 26.575v810.331c0 14.67 11.9 26.575 26.575 26.575z" />
<glyph unicode="&#xe914;" glyph-name="profile-user" horiz-adv-x="860" d="M409.6 427.52c-126.976 0-233.472 106.496-233.472 237.568s106.496 237.568 233.472 237.568 233.472-106.496 233.472-237.568c0-131.072-102.4-237.568-233.472-237.568zM409.6 857.6c-106.496 0-192.512-86.016-192.512-196.608s86.016-192.512 192.512-192.512 192.512 86.016 192.512 196.608-86.016 192.512-192.512 192.512zM798.72-18.944h-737.28v20.48c0 204.8 163.84 372.736 368.64 372.736s368.64-167.936 368.64-372.736v-20.48zM102.4 22.016h655.36c-12.288 172.032-151.552 311.296-327.68 311.296s-315.392-139.264-327.68-311.296z" />
<glyph unicode="&#xe915;" glyph-name="occupation" horiz-adv-x="1106" d="M978.944 779.776h-253.952v61.44c0 24.576-20.48 45.056-45.056 45.056h-258.048c-24.576 0-45.056-20.48-45.056-45.056v-61.44h-249.856c-32.768 0-57.344-24.576-57.344-57.344v-643.072c0-32.768 24.576-57.344 57.344-57.344h856.064c32.768 0 57.344 24.576 57.344 57.344v643.072c-4.096 32.768-28.672 57.344-61.44 57.344zM749.568 738.816v-671.744h-376.832v671.744h376.832zM417.792 841.216c0 4.096 4.096 8.192 8.192 8.192h258.048c4.096 0 8.192-4.096 8.192-8.192v-61.44h-274.432v61.44zM110.592 79.36v643.072c0 8.192 8.192 16.384 16.384 16.384h208.896v-671.744h-208.896c-8.192 0-16.384 4.096-16.384 12.288zM995.328 79.36c0-8.192-8.192-16.384-16.384-16.384h-196.608v675.84h196.608c8.192 0 16.384-8.192 16.384-16.384v-643.072z" />
<glyph unicode="&#xe916;" glyph-name="account" horiz-adv-x="860" d="M638.976 927.232h-417.792c-40.96 0-73.728-32.768-73.728-73.728v-815.104c0-40.96 32.768-73.728 73.728-73.728h417.792c40.96 0 73.728 32.768 73.728 73.728v815.104c0 40.96-32.768 73.728-73.728 73.728zM675.84 42.496c0-20.48-16.384-36.864-36.864-36.864h-417.792c-20.48 0-36.864 16.384-36.864 36.864v81.92h491.52v-81.92zM675.84 140.8h-491.52v667.648h491.52v-667.648zM675.84 828.928h-491.52v24.576c0 20.48 16.384 36.864 36.864 36.864h417.792c20.48 0 36.864-16.384 36.864-36.864v-24.576zM458.752 67.072c0-18.097-14.671-32.768-32.768-32.768s-32.768 14.671-32.768 32.768c0 18.097 14.671 32.768 32.768 32.768s32.768-14.671 32.768-32.768zM442.368 873.984h-126.976c-4.096 0-8.192-4.096-8.192-8.192s4.096-8.192 8.192-8.192h126.976c4.096 0 8.192 4.096 8.192 8.192s-4.096 8.192-8.192 8.192zM544.768 873.984h-73.728c-4.096 0-8.192-4.096-8.192-8.192s4.096-8.192 8.192-8.192h73.728c4.096 0 8.192 4.096 8.192 8.192s0 8.192-8.192 8.192z" />
<glyph unicode="&#xe917;" glyph-name="location" d="M991.232 497.152l-86.016 81.92c0 4.096-4.096 4.096-8.192 4.096l-57.344 53.248v192.512c0 8.192-8.192 20.48-20.48 20.48h-131.072c-8.192 0-20.48-8.192-20.48-20.48v-36.864l-135.168 126.976c-12.288 12.288-32.768 12.288-45.056 0l-454.656-425.984c-8.192-8.192-8.192-20.48 0-28.672 4.096-4.096 8.192-8.192 16.384-8.192 4.096 0 8.192 0 12.288 4.096l53.248 49.152v-524.288c0-12.288 8.192-20.48 20.48-20.48h753.664c12.288 0 20.48 8.192 20.48 20.48v532.48l57.344-53.248c8.192-8.192 20.48-8.192 28.672 0 4.096 12.288 4.096 24.576-4.096 32.768zM708.608 808.448h94.208v-139.264l-94.208 90.112v49.152zM606.208 9.728h-196.608v344.064c0 8.192 4.096 12.288 12.288 12.288h172.032c8.192 0 12.288-4.096 12.288-12.288v-344.064zM868.352 9.728h-221.184v344.064c0 28.672-20.48 49.152-49.152 49.152h-172.032c-28.672 0-49.152-20.48-49.152-49.152v-344.064h-225.28v540.672l356.352 331.776 356.352-327.68v-544.768z" />
<glyph unicode="&#xe918;" glyph-name="moto" horiz-adv-x="819" d="M402.015 277.35c-52.148 0-94.815-38.159-94.815-84.803v-171.73c0-46.638 42.666-84.803 94.815-84.803s94.815 38.164 94.815 84.803v171.73c0 46.643-42.664 84.803-94.815 84.803zM735.852 849.021h-176.988c-20.69 64.368-82.746 110.979-156.302 110.979s-135.614-46.611-156.301-110.979h-174.689c-25.284 0-45.971-19.976-45.971-44.392s20.687-44.391 45.971-44.391h176.988c11.492-37.733 36.776-68.807 71.255-88.783-124.122-35.513-216.063-146.492-216.063-277.45v-233.052c0-39.956 34.478-73.247 75.852-73.247h62.061v126.515c0 86.564 73.553 157.588 163.196 157.588s163.199-71.025 163.199-157.588v-126.515h62.060c41.375 0 75.853 33.29 75.853 73.247v230.835c0 130.956-91.945 244.153-216.067 277.447 34.476 19.976 59.763 51.050 71.252 88.783h176.988c25.288 0 45.972 19.976 45.972 44.391-2.294 26.635-22.984 46.611-48.266 46.611zM402.562 713.626c-50.568 0-91.942 39.952-91.942 88.783s41.374 88.783 91.942 88.783c50.568 0 91.942-39.952 91.942-88.783 2.298-48.831-39.075-88.783-91.942-88.783z" />
<glyph unicode="&#xe919;" glyph-name="agua-listanequi" horiz-adv-x="1060" d="M558.218 937.462c-4.882 4.882-14.644 14.644-19.525 14.644-14.644 9.762-39.047 9.762-53.691 0-9.762-4.882-14.644-9.762-19.525-14.644-102.502-112.264-322.148-395.364-322.148-619.894s141.55-366.079 366.079-366.079c224.528 0 366.079 141.55 366.079 366.079s-219.646 507.628-317.268 619.894zM509.408 24.705c-180.599 0-292.863 112.264-292.863 292.863 0 200.122 214.765 473.463 292.863 561.321 78.096-92.741 292.863-366.079 292.863-561.321 0-180.599-112.264-292.863-292.863-292.863zM709.53 337.092c-19.525 0-39.047-14.644-39.047-39.047 0-34.169-14.644-68.334-39.047-92.741s-58.572-39.047-92.741-39.047c-19.525 0-39.047-14.644-39.047-39.047s14.644-39.047 39.047-39.047c53.691 0 102.502 19.525 141.55 58.572s58.572 87.858 58.572 141.55c9.762 29.286-9.762 48.81-29.286 48.81z" />
<glyph unicode="&#xe91a;" glyph-name="gas-listanequi" horiz-adv-x="1060" d="M402.158 959.976c-9.752 0-24.379-4.876-29.256-14.628-9.752-9.752-9.752-19.504-9.752-29.256 34.132-121.899-34.132-224.295-102.395-331.565-58.512-87.767-117.023-180.411-117.023-282.806 0-97.519 39.007-190.163 107.272-258.426s160.907-107.272 258.426-107.272c97.519 0 190.163 39.007 258.426 107.272s107.272 160.907 107.272 258.426c0 433.96-307.186 658.255-472.969 658.255zM509.43 43.295c-68.263 0-107.272 53.635-107.272 146.279 0 58.512 19.504 102.395 39.007 141.403 14.628 34.132 29.256 63.388 34.132 102.395 68.263-34.132 146.279-146.279 146.279-243.798-4.876-87.767-43.884-146.279-112.147-146.279zM714.22 96.931c-19.504-19.504-39.007-34.132-63.388-48.76 24.379 34.132 39.007 82.891 39.007 146.279 0 151.155-136.527 331.565-253.55 331.565-9.752 0-19.504-4.876-29.256-14.628-4.876-9.752-9.752-19.504-9.752-29.256 4.876-39.007-9.752-68.263-29.256-112.147-19.504-48.76-48.76-102.395-48.76-175.535 0-63.388 14.628-112.147 39.007-146.279-24.379 14.628-43.884 29.256-63.388 48.76-48.76 53.635-78.016 126.775-78.016 204.79 0 82.891 48.76 160.907 107.272 243.798 63.388 97.519 136.527 204.79 121.899 336.441 141.403-39.007 355.946-238.923 355.946-580.239 0-78.016-29.256-151.155-87.767-204.79z" />
<glyph unicode="&#xe91b;" glyph-name="luz-listanequi" horiz-adv-x="1060" d="M511.185 947.519c-44.6 0-89.199-8.919-129.339-26.76-40.14-13.38-75.82-35.68-107.040-66.9s-57.981-71.36-71.36-111.5c-17.84-40.14-26.76-84.74-26.76-129.339 0-98.121 35.68-187.32 102.58-249.76l8.919-4.46c35.68-35.68 89.199-84.74 89.199-124.88v-53.519c0-17.84 13.38-35.68 35.68-35.68s35.68 13.38 35.68 35.68v49.059c0 71.36-62.44 129.339-111.5 173.94l-8.919 8.919c-53.519 49.059-84.74 124.88-84.74 205.159 0 35.68 4.46 71.36 22.3 102.58s31.22 57.981 57.981 84.74c22.3 26.76 53.519 44.6 84.74 57.981s66.9 17.84 102.58 22.3c151.64 0 267.599-115.959 267.599-267.599 0-80.28-26.76-151.64-80.28-200.699l-13.38-13.38c-44.6-44.6-107.040-102.58-107.040-173.94v-49.059c0-17.84 13.38-35.68 35.68-35.68s31.22 17.84 31.22 35.68v49.059c0 40.14 49.059 89.199 89.199 124.88l8.919 8.919c66.9 62.44 102.58 151.64 102.58 249.76 0 191.78-147.18 334.499-334.499 334.499zM578.085 10.922h-133.8c-17.84 0-35.68-13.38-35.68-35.68s13.38-35.68 35.68-35.68h133.8c17.84 0 35.68 13.38 35.68 35.68s-17.84 35.68-35.68 35.68zM609.304 113.501h-196.239c-17.84 0-35.68-13.38-35.68-35.68s13.38-31.22 35.68-31.22h200.699c17.84 0 35.68 13.38 35.68 35.68s-17.84 31.22-40.14 31.22zM511.185 144.721c17.84 0 35.68 13.38 35.68 35.68v240.839c31.22 8.919 57.981 31.22 66.9 35.68 13.38 8.919 17.84 31.22 8.919 44.6s-31.22 17.84-44.6 8.919c-13.38-8.919-44.6-26.76-57.981-26.76s-44.6 17.84-57.981 26.76c-13.38 8.919-35.68 8.919-44.6-8.919s-8.919-35.68 8.919-44.6c4.46-4.46 35.68-26.76 66.9-35.68v-240.839c-17.84-17.84 0-35.68 17.84-35.68z" />
<glyph unicode="&#xe91c;" glyph-name="tres-listanequi" horiz-adv-x="1060" d="M558.219 937.47c-4.882 4.882-14.644 14.644-19.525 14.644-14.644 9.762-39.048 9.762-53.692 0-9.762-4.882-14.644-9.762-19.525-14.644-102.504-112.266-322.154-395.371-322.154-619.904s141.552-366.085 366.085-366.085c224.532 0 366.085 141.552 366.085 366.085s-219.65 507.637-317.273 619.904zM509.408 24.698c-180.602 0-292.868 112.266-292.868 292.868 0 200.126 214.769 473.47 292.868 561.33 78.098-92.742 292.868-366.085 292.868-561.33 0-180.602-112.266-292.868-292.868-292.868zM709.533 337.091c-19.525 0-39.048-14.644-39.048-39.048 0-34.169-14.644-68.335-39.048-92.742s-58.573-39.048-92.742-39.048c-19.525 0-39.048-14.644-39.048-39.048s14.644-39.048 39.048-39.048c53.692 0 102.504 19.525 141.552 58.573s58.573 87.86 58.573 141.552c9.762 29.287-9.762 48.811-29.287 48.811z" />
<glyph unicode="&#xe91d;" glyph-name="pencil" d="M128.848 33.11c-36.917 0.114-66.8 30.067-66.8 67 0 4.753 0.495 9.391 1.436 13.864l-0.077-0.437 80.021 235.588c1.016 2.687 2.592 4.96 4.596 6.768l0.015 0.014 504.54 459.918c32.682 29.008 75.955 46.725 123.365 46.725 3.957 0 7.885-0.123 11.78-0.367l-0.533 0.027c51.051-3.107 96.085-26.549 127.519-62.254l0.176-0.204c29.017-31.737 46.793-74.175 46.793-120.765 0-51.842-22.010-98.542-57.194-131.268l-0.11-0.101-487.926-442.626c-1.989-1.809-4.434-3.153-7.14-3.84l-0.116-0.025-264.070-65.984c-4.884-1.289-10.492-2.031-16.273-2.034h-0.002zM174.283 334.004l-78.394-229.349c-0.228-1.435-0.358-3.090-0.358-4.776 0-9.344 3.995-17.755 10.371-23.618l0.023-0.021c5.943-5.687 14.018-9.188 22.912-9.188 2.845 0 5.606 0.358 8.241 1.032l-0.23-0.050 259.933 64.627 484.806 440.184c28.528 26.629 46.31 64.455 46.31 106.433 0 37.949-14.532 72.504-38.335 98.403l0.095-0.105c-25.85 29.367-62.683 48.535-104.013 51.044l-0.421 0.020c-3.066 0.224-6.642 0.352-10.248 0.352-38.349 0-73.318-14.469-99.747-38.245l0.136 0.12zM893.118 560.301v0zM374.675 104.79c-0.018 0-0.040 0-0.062 0-4.766 0-9.070 1.974-12.14 5.149l-0.005 0.005-200.731 206.97c-3.012 3.058-4.872 7.259-4.872 11.894 0 9.363 7.59 16.954 16.954 16.954 4.821 0 9.171-2.012 12.258-5.242l0.006-0.006 200.46-206.97c2.957-3.048 4.78-7.211 4.78-11.8 0-9.363-7.59-16.954-16.954-16.954-0.012 0-0.023 0-0.035 0h0.002zM892.914 543.415c-0.027 0-0.059 0-0.091 0-4.757 0-9.052 1.975-12.111 5.149l-0.005 0.005-223.313 230.57c-2.903 3.037-4.69 7.163-4.69 11.705 0 9.363 7.59 16.954 16.954 16.954 4.728 0 9.004-1.936 12.079-5.058l0.002-0.002 223.313-230.57c2.957-3.048 4.78-7.211 4.78-11.8 0-9.363-7.59-16.954-16.954-16.954-0.012 0-0.023 0-0.035 0h0.002zM272.343 216.685c-0.004 0-0.009 0-0.014 0-9.363 0-16.954 7.59-16.954 16.954 0 5.073 2.228 9.626 5.76 12.733l0.019 0.016 507.253 443.846c2.965 2.598 6.875 4.183 11.155 4.183 9.37 0 16.966-7.596 16.966-16.966 0-5.090-2.241-9.657-5.791-12.766l-0.020-0.017-507.253-443.846c-2.964-2.57-6.86-4.136-11.122-4.137v0z" />
<glyph unicode="&#xe91e;" glyph-name="removeput" horiz-adv-x="756" d="M550.046 3.612h-344.291c-55.221 0.080-99.97 44.799-100.098 100.001v688.678c0.064 55.262 44.837 100.046 100.090 100.126h344.299c55.25-0.080 100.018-44.847 100.098-100.090v-688.702c-0.128-55.214-44.877-99.934-100.090-100.013h-0.008zM205.755 864.339c-39.766-0.048-71.988-32.28-72.020-72.045v-688.669c0.048-39.756 32.264-71.972 72.015-72.020h344.295c39.756 0.048 71.972 32.264 72.020 72.015v688.671c-0.032 39.768-32.254 72-72.015 72.048h-0.005zM248.601 347.622h-42.538c-12.771 0.016-23.12 10.365-23.136 23.135v42.512c0.016 12.771 10.365 23.12 23.135 23.136h42.54c12.771-0.016 23.12-10.365 23.136-23.135v-42.512c-0.016-12.771-10.365-23.12-23.135-23.136h-0.002zM206.064 427.98c-8.114-0.016-14.685-6.597-14.685-14.713 0 0 0 0 0 0v0-42.51c0 0 0 0 0 0 0-8.116 6.571-14.697 14.683-14.713h42.54c8.114 0.016 14.685 6.597 14.685 14.713 0 0 0 0 0 0v0 42.51c0 0 0 0 0 0 0 8.116-6.571 14.697-14.683 14.713h-0.002zM549.652 351.749h-42.51c-12.771 0.016-23.12 10.365-23.136 23.135v42.512c0.016 12.771 10.365 23.12 23.135 23.136h42.54c12.771-0.016 23.12-10.365 23.136-23.135v-42.512c-0.016-12.781-10.381-23.136-23.164-23.136v0zM507.143 432.136c-8.114-0.016-14.685-6.597-14.685-14.713 0 0 0 0 0 0v0-42.51c0 0 0 0 0 0 0-8.116 6.571-14.697 14.683-14.713h42.54c8.114 0.016 14.685 6.597 14.685 14.713 0 0 0 0 0 0v0 42.482c0 0 0 0 0 0 0 8.116-6.571 14.697-14.683 14.713h-0.002zM413.531 325.44h-71.262c-19.821 0.032-35.88 16.091-35.912 35.909v71.208c0.032 19.821 16.091 35.88 35.909 35.912h71.265c19.833-0.016 35.908-16.081 35.94-35.909v-71.265c-0.064-19.806-16.127-35.84-35.938-35.855h-0.001zM342.269 460.214c-15.175-0.016-27.472-12.313-27.488-27.487v-71.264c0.016-15.175 12.313-27.472 27.487-27.488h71.263c15.168 0.032 27.456 12.32 27.488 27.485v71.096c-0.032 15.168-12.32 27.456-27.485 27.488h-0.003zM377.9 363.626c-2.326 0-4.212 1.886-4.212 4.212v0 52.646c0 2.326 1.886 4.212 4.212 4.212s4.212-1.886 4.212-4.212v0-52.646c0-2.326-1.886-4.212-4.212-4.212v0zM404.321 390.019h-52.73c-2.326 0-4.212 1.886-4.212 4.212s1.886 4.212 4.212 4.212v0h52.73c2.326 0 4.212-1.886 4.212-4.212s-1.886-4.212-4.212-4.212v0z" />
<glyph unicode="&#xe91f;" glyph-name="camara" horiz-adv-x="1287" d="M975.905 88.631h-702.862c-0.279-0.002-0.61-0.004-0.941-0.004-66.342 0-120.207 53.418-120.93 119.589l-0.001 0.069v409.332c0.724 66.239 54.589 119.657 120.931 119.657 0.331 0 0.661-0.001 0.991-0.004h137.522c0.691 69.391 57.104 125.377 126.593 125.377 0.351 0 0.702-0.001 1.052-0.004h173.823c0.297 0.003 0.648 0.004 0.999 0.004 69.448 0 125.836-55.92 126.591-125.189l0.001-0.072 136.171 1.342c0.279 0.002 0.61 0.004 0.94 0.004 66.362 0 120.24-53.451 120.931-119.65l0.001-0.065v-410.732c-0.724-66.239-54.589-119.657-120.931-119.657-0.31 0-0.62 0.001-0.93 0.003h0.048zM273.043 678.902c-0.316 0.006-0.688 0.009-1.061 0.009-34.085 0-61.792-27.305-62.442-61.234l-0.001-0.061v-409.39c0.65-33.99 28.358-61.295 62.443-61.295 0.373 0 0.746 0.003 1.117 0.010l-0.056-0.001h702.862c0.316-0.006 0.688-0.009 1.061-0.009 34.085 0 61.792 27.305 62.442 61.234l0.001 0.061v410.791c-0.651 34.022-28.384 61.352-62.501 61.352-0.353 0-0.705-0.003-1.056-0.009l0.053 0.001h-136.872c-0.087 0-0.19-0.001-0.293-0.001-31.576 0-57.201 25.482-57.432 57.004v0.022c-0.716 37.098-30.959 66.897-68.161 66.897-0.374 0-0.746-0.003-1.119-0.009l0.056 0.001h-173.877c-0.316 0.005-0.688 0.008-1.061 0.008-37.223 0-67.478-29.832-68.161-66.892l-0.001-0.064c0-0.001 0-0.003 0-0.005 0-32.235-26.132-58.368-58.368-58.368-0.267 0-0.533 0.002-0.799 0.005h0.040zM618.112 183.070c-128.942 0-233.47 104.528-233.47 233.47s104.528 233.47 233.47 233.47c128.942 0 233.47-104.528 233.47-233.47v0c0-128.942-104.528-233.47-233.47-233.47v0zM618.112 591.642c-96.706 0-175.103-78.396-175.103-175.103s78.396-175.103 175.103-175.103c96.706 0 175.103 78.396 175.103 175.103v0c0 96.706-78.396 175.103-175.103 175.103v0zM910.884 556.213c-23.772 0.523-42.842 19.917-42.842 43.766 0 24.177 19.599 43.776 43.776 43.776 24.173 0 43.77-19.593 43.776-43.765v-0.001c-0.296-24.241-20.015-43.778-44.298-43.778-0.145 0-0.289 0.001-0.434 0.002h0.022zM910.884 614.581c-7.647-0.505-13.658-6.832-13.658-14.562 0-8.059 6.533-14.592 14.592-14.592 8.048 0 14.575 6.516 14.592 14.56v0.002c-0.288 8.122-6.942 14.598-15.108 14.598-0.147 0-0.293-0.002-0.439-0.006h0.021z" />
<glyph unicode="&#xe920;" glyph-name="servpublicos" d="M919.77 819.524h-815.541c-54.369 0-104.208-45.308-104.208-104.208v-439.486c4.531-54.369 49.838-99.678 104.208-99.678h815.541c54.369 0 104.208 45.308 104.208 104.208v439.486c-4.531 54.369-49.838 99.678-104.208 99.678zM956.016 280.361c0-18.123-13.592-36.246-36.246-36.246h-815.541c-18.123 0-36.246 13.592-36.246 36.246v439.486c0 18.123 13.592 36.246 36.246 36.246h815.541c18.123 0 36.246-13.592 36.246-36.246v-439.486zM783.847 139.907h-543.694c-18.123 0-36.246-13.592-36.246-36.246s13.592-36.246 36.246-36.246h543.694c18.123 0 36.246 13.592 36.246 36.246s-18.123 36.246-36.246 36.246zM407.792 448c-13.592-13.592-13.592-31.716-4.531-49.838 13.592-13.592 31.716-13.592 49.838-4.531 31.716 27.185 86.085 27.185 117.8 0 4.531-4.531 13.592-9.061 22.654-9.061s18.123 4.531 27.185 13.592c13.592 13.592 9.061 36.246-4.531 49.838-58.901 54.369-149.516 54.369-208.416 0zM512 579.392c-63.431 0-122.331-22.654-167.639-67.962-13.592-13.592-13.592-36.246 0-49.838s36.246-13.592 49.838 0c67.962 63.431 176.7 63.431 244.662 0 4.531-4.531 13.592-9.061 22.654-9.061s18.123 4.531 22.654 9.061c13.592 13.592 13.592 36.246 0 49.838-49.838 45.308-108.739 67.962-172.169 67.962zM512 670.009c-81.554 0-163.108-31.716-226.539-86.085-13.592-9.061-13.592-31.716-4.531-45.308 13.592-13.592 31.716-13.592 49.838-4.531 49.838 45.308 113.27 67.962 181.232 67.962s131.392-22.654 181.232-67.962c4.531-4.531 13.592-9.061 22.654-9.061s18.123 4.531 27.185 13.592c9.061 13.592 9.061 36.246-4.531 45.308-63.431 58.901-144.985 86.085-226.539 86.085zM525.592 375.507c-4.531 4.531-13.592 4.531-18.123 0-4.531 0-13.592-4.531-18.123-9.061s-9.061-9.061-9.061-18.123c0-4.531 0-13.592 0-18.123 4.531-4.531 9.061-13.592 13.592-13.592 4.531-4.531 13.592-4.531 18.123-4.531 9.061 0 18.123 4.531 22.654 9.061s9.061 13.592 9.061 22.654c0 4.531 0 13.592-4.531 18.123-4.531 9.061-9.061 13.592-13.592 13.592z" />
<glyph unicode="&#xe921;" glyph-name="torre" horiz-adv-x="819" d="M416.295 947.53c-44.601 0-89.201-8.919-129.342-26.76-40.141-13.381-75.822-35.681-107.042-66.901s-57.982-71.361-71.361-111.502c-17.841-40.141-26.76-84.742-26.76-129.342 0-98.123 35.681-187.324 102.582-249.765l8.919-4.46c35.681-35.681 89.201-84.742 89.201-124.883v-53.521c0-17.841 13.381-35.681 35.681-35.681s35.681 13.381 35.681 35.681v49.060c0 71.361-62.441 129.342-111.502 173.943l-8.919 8.919c-53.521 49.060-84.742 124.883-84.742 205.164 0 35.681 4.46 71.361 22.3 102.582s31.22 57.982 57.982 84.742c22.3 26.76 53.521 44.601 84.742 57.982s66.901 17.841 102.582 22.3c151.643 0 267.605-115.961 267.605-267.605 0-80.282-26.76-151.643-80.282-200.703l-13.381-13.381c-44.601-44.601-107.042-102.582-107.042-173.943v-49.060c0-17.841 13.381-35.681 35.681-35.681s31.22 17.841 31.22 35.681v49.060c0 40.141 49.060 89.201 89.201 124.883l8.919 8.919c66.901 62.441 102.582 151.643 102.582 249.765 0 191.784-147.183 334.506-334.506 334.506zM483.196 10.912h-133.802c-17.841 0-35.681-13.381-35.681-35.681s13.381-35.681 35.681-35.681h133.802c17.841 0 35.681 13.381 35.681 35.681s-17.841 35.681-35.681 35.681zM514.417 113.494h-196.243c-17.841 0-35.681-13.381-35.681-35.681s13.381-31.22 35.681-31.22h200.703c17.841 0 35.681 13.381 35.681 35.681s-17.841 31.22-40.141 31.22zM416.295 144.715c17.841 0 35.681 13.381 35.681 35.681v240.844c31.22 8.919 57.982 31.22 66.901 35.681 13.381 8.919 17.841 31.22 8.919 44.601s-31.22 17.841-44.601 8.919c-13.381-8.919-44.601-26.76-57.982-26.76s-44.601 17.841-57.982 26.76c-13.381 8.919-35.681 8.919-44.601-8.919s-8.919-35.681 8.919-44.601c4.46-4.46 35.681-26.76 66.901-35.681v-240.844c-17.841-17.841 0-35.681 17.841-35.681z" />
<glyph unicode="&#xe922;" glyph-name="cora" horiz-adv-x="1067" d="M781.173 934.898c-124.429 0-205.579-75.74-243.449-129.84-43.28 54.1-124.429 129.84-243.449 129.84-156.889 0-281.32-129.84-286.728-286.728-5.411-302.958 243.449-508.538 481.487-676.247 16.23-10.819 27.049-16.23 43.28-16.23s32.46 5.411 43.28 16.23c238.039 162.299 486.898 367.878 481.487 676.247 5.411 156.889-119.020 286.728-275.909 286.728zM537.724 42.251c-221.809 151.48-449.027 340.828-443.619 605.918 0 113.61 91.969 205.579 200.169 205.579 135.25 0 210.989-140.659 210.989-140.659 5.411-16.23 21.64-21.64 37.87-21.64s27.049 10.819 37.87 21.64c0 0 70.33 140.659 210.989 140.659 108.199 0 200.169-91.969 200.169-205.579-5.411-265.090-232.629-454.438-454.438-605.918z" />
<glyph unicode="&#xe923;" glyph-name="detodo-listasnequi" d="M338.432 148.681c-39.909 0-74.83-34.921-74.83-74.83s34.921-74.83 74.83-74.83 74.83 34.921 74.83 74.83-29.932 74.83-74.83 74.83zM867.227 148.681c-39.909 0-74.83-34.921-74.83-74.83s34.921-74.83 74.83-74.83 74.83 34.921 74.83 74.83-34.921 74.83-74.83 74.83zM1006.91 742.33c0 9.977-4.989 14.966-9.977 24.943-4.989 4.989-9.977 9.977-19.955 14.966s-14.966 4.989-24.943 4.989h-708.387l-14.966 79.819c-4.989 14.966-19.955 29.932-39.909 29.932h-149.659c-19.955 0-34.921-14.966-34.921-39.909s14.966-39.909 39.909-39.909h119.728l104.761-603.626c4.989-19.955 19.955-29.932 34.921-29.932h598.637c19.955 0 39.909 14.966 39.909 39.909s-14.966 39.909-39.909 39.909h-568.705l-14.966 74.83h563.716c14.966 0 24.943 4.989 34.921 14.966s14.966 19.955 19.955 29.932l64.852 334.24c9.977 9.977 9.977 14.966 4.989 24.943zM872.216 408.091h-563.716l-54.874 299.319h673.466l-54.874-299.319z" />
<glyph unicode="&#xe924;" glyph-name="watter-drop" d="M560.81 937.208c-4.882 4.882-14.643 14.643-19.524 14.643-14.643 9.762-39.047 9.762-53.691 0-9.762-4.882-14.643-9.762-19.524-14.643-102.501-112.263-322.145-395.361-322.145-619.887s141.548-366.075 366.075-366.075c224.526 0 366.075 141.548 366.075 366.075s-219.645 507.623-317.265 619.887zM512 24.46c-180.597 0-292.86 112.263-292.86 292.86 0 200.12 214.764 473.458 292.86 561.315 78.096-92.739 292.86-366.075 292.86-561.315 0-180.597-112.263-292.86-292.86-292.86zM712.12 336.844c-19.524 0-39.047-14.643-39.047-39.047 0-34.168-14.643-68.333-39.047-92.739s-58.572-39.047-92.739-39.047c-19.524 0-39.047-14.643-39.047-39.047s14.643-39.047 39.047-39.047c53.691 0 102.501 19.524 141.548 58.572s58.572 87.858 58.572 141.548c9.762 29.286-9.762 48.81-29.286 48.81z" />
<glyph unicode="&#xe925;" glyph-name="transporte-02" d="M946.698 848.888c0 28.98-9.66 57.96-33.81 77.28-19.32 19.32-48.3 33.81-77.28 33.81h-652.048c-28.98 0-57.96-9.66-77.28-33.81s-28.98-48.3-28.98-77.28c0 0 0 0 0 0v-724.497c0-33.81 14.49-62.79 38.639-82.109v-43.47c0-14.49 4.83-28.98 19.32-43.47 9.66-9.66 24.15-19.32 43.47-19.32h62.79c14.49 0 28.98 4.83 43.47 19.32 9.66 9.66 19.32 24.15 19.32 43.47v14.49h434.698v-14.49c0-14.49 4.83-28.98 19.32-43.47s24.15-19.32 43.47-19.32h48.3c14.49 0 28.98 4.83 43.47 19.32s19.32 24.15 19.32 43.47v43.47c24.15 19.32 38.639 48.3 38.639 82.109v724.497c-4.83 0-4.83 0-4.83 0s0 0 0 0zM260.841 85.751h-77.28c-19.32 0-38.639 14.49-38.639 38.639v144.899c0 19.32 14.49 38.639 38.639 38.639h652.048c19.32 0 38.639-14.49 38.639-38.639v-144.899c0-19.32-14.49-38.639-38.639-38.639h-574.767zM840.438 737.799c19.32 0 38.639-14.49 38.639-38.639v-289.799c0-19.32-14.49-38.639-38.639-38.639h-289.799v367.079h289.799zM473.361 375.55h-289.799c-19.32 0-38.639 14.49-38.639 38.639v289.799c4.83 19.32 19.32 33.81 38.639 33.81h289.799v-362.249zM183.562 882.698h652.048c9.66 0 19.32-4.83 24.15-9.66s9.66-14.49 9.66-24.15c0-9.66-4.83-19.32-9.66-24.15s-14.49-9.66-24.15-9.66h-647.217c-9.66 0-19.32 4.83-24.15 9.66-9.66 4.83-14.49 14.49-14.49 19.32 0 9.66 4.83 19.32 9.66 24.15 9.66 9.66 19.32 14.49 24.15 14.49zM763.159 264.461c-38.639 0-72.45-33.81-72.45-72.45s33.81-72.45 72.45-72.45 72.45 33.81 72.45 72.45-28.98 72.45-72.45 72.45zM260.841 264.461c-38.639 0-72.45-33.81-72.45-72.45s33.81-72.45 72.45-72.45 72.45 33.81 72.45 72.45-33.81 72.45-72.45 72.45z" />
<glyph unicode="&#xe926;" glyph-name="transporte-03" d="M660.957 107.109h-297.913c-19.862 0-39.721-14.896-39.721-39.721s19.862-34.757 39.721-34.757h297.913c19.862 0 39.721 14.896 39.721 39.721s-19.862 34.757-39.721 34.757zM919.148 390.127v422.044c0 84.408-64.548 148.957-148.957 148.957h-516.381c-84.408 0-148.957-64.548-148.957-148.957v-422.044c0-94.34 54.617-178.748 139.026-218.469l-94.34-158.886c-9.93-19.862-4.965-39.721 14.896-49.653s39.721-4.965 49.653 14.896l99.304 168.817c14.896 0 24.826-4.965 39.721-4.965h322.738c14.896 0 24.826 0 39.721 4.965l104.27-173.782c9.93-19.862 34.757-24.826 49.653-14.896 19.862 9.93 24.826 34.757 14.896 49.653l-94.34 158.886c74.478 44.687 129.095 129.095 129.095 223.434zM253.808 886.648h521.347c39.721 0 74.478-34.757 74.478-74.478v-332.669h-675.269v332.669c0 44.687 34.757 74.478 79.444 74.478zM670.886 216.344h-317.774c-94.34 0-173.782 79.444-173.782 173.782v9.93h670.304v-9.93c0-94.34-79.444-173.782-178.748-173.782zM328.287 330.543c0-21.938-17.784-39.721-39.721-39.721s-39.721 17.784-39.721 39.721c0 21.938 17.784 39.721 39.721 39.721s39.721-17.784 39.721-39.721zM775.156 330.543c0-21.938-17.784-39.721-39.721-39.721s-39.721 17.784-39.721 39.721c0 21.938 17.784 39.721 39.721 39.721s39.721-17.784 39.721-39.721z" />
<glyph unicode="&#xe927;" glyph-name="alimentos" d="M113.736 914.15c-13.577 13.577-36.205 13.577-49.783 0-27.154-31.68-45.258-76.937-45.258-131.246 0-85.989 45.258-190.080 122.194-262.492l181.029-181.029c18.103-18.103 36.205-27.154 58.835-36.205 22.628-4.526 45.258-4.526 72.412 0 4.526 0 13.577 0 18.103 0s9.051-4.526 13.577-9.051l22.628-22.628c4.526-4.526 4.526-9.051 9.051-9.051 0-4.526 4.526-9.051 4.526-13.577v-13.577c0-27.154 9.051-54.309 27.154-72.412l190.080-194.606c22.628-22.628 49.783-31.68 81.463-31.68s58.835 13.577 81.463 31.68c22.628 22.628 31.68 49.783 31.68 81.463s-13.577 58.835-31.68 81.463l-787.475 782.949zM846.903 22.582c-18.103-18.103-45.258-18.103-63.36 0l-190.080 194.606c-4.526 4.526-9.051 13.577-9.051 22.628v13.577c0 13.577-4.526 27.154-9.051 40.731s-13.577 22.628-22.628 36.205l-22.628 22.628c-13.577 13.577-27.154 18.103-45.258 22.628-9.051 0-18.103 4.526-22.628 4.526-9.051 0-18.103 0-27.154-4.526-13.577-4.526-22.628-4.526-36.205 0s-22.628 9.051-31.68 18.103l-181.029 181.029c-63.36 54.309-99.566 140.298-99.566 208.184 0 13.577 0 36.205 9.051 54.309l751.27-751.27c9.051-9.051 13.577-18.103 13.577-31.68s-4.526-27.154-13.577-31.68zM579.886 547.566c9.051 0 18.103 4.526 22.628 9.051l27.154 27.154c4.526 4.526 9.051 13.577 13.577 22.628s4.526 18.103 4.526 27.154v31.68c0 13.577 4.526 27.154 9.051 40.731s13.577 22.628 22.628 31.68l162.926 162.926c13.577 13.577 13.577 36.205 0 49.783s-36.205 13.577-49.783 0l-162.926-162.926c-18.103-18.103-27.154-36.205-36.205-54.309-9.051-22.628-13.577-40.731-13.577-63.36v-31.68l-22.628-31.68c-13.577-13.577-13.577-36.205 0-49.783 4.526-4.526 13.577-9.051 22.628-9.051zM1009.829 778.378c-13.577 13.577-36.205 13.577-49.783 0l-162.926-162.926c-9.051-9.051-22.628-18.103-31.68-22.628s-22.628-9.051-36.205-9.051h-31.68c-9.051 0-18.103 0-27.154-4.526s-13.577-9.051-22.628-13.577l-22.628-27.154c-13.577-13.577-13.577-36.205 0-49.783 4.526-4.526 13.577-9.051 22.628-9.051s18.103 4.526 22.628 9.051l22.628 22.628h31.68c22.628 0 45.258 4.526 63.36 13.577 22.628 9.051 40.731 22.628 54.309 36.205l167.452 167.452c13.577 13.577 13.577 36.205 0 49.783zM706.606 642.606c4.526-4.526 13.577-9.051 22.628-9.051s18.103 4.526 22.628 9.051l171.977 171.977c13.577 13.577 13.577 36.205 0 49.783s-36.205 13.577-49.783 0l-171.977-171.977c-4.526-13.577-4.526-36.205 4.526-49.783zM367.177 235.291l-212.709-212.709c-18.103-18.103-54.309-18.103-72.412 0-9.051 9.051-13.577 22.628-13.577 36.205s4.526 27.154 13.577 36.205l181.029 176.503c13.577 13.577 13.577 36.205 0 49.783s-36.205 13.577-49.783 0l-181.029-176.503c-22.628-22.628-36.205-54.309-36.205-85.989s13.577-63.36 36.205-85.989c27.154-22.628 58.835-31.68 90.514-31.68s63.36 13.577 85.989 36.205l212.709 212.709c13.577 13.577 13.577 36.205 0 49.783-18.103 9.051-40.731 9.051-54.309-4.526z" />
<glyph unicode="&#xe928;" glyph-name="b-store-xmas" horiz-adv-x="1088" d="M156.682 864c-33.565 0-60.682-27.133-60.682-60.763v-198.474c0-33.548 27.14-60.763 60.682-60.763h198.529c33.507 0 60.788 27.287 60.788 60.763v198.474c0 33.558-27.258 60.763-60.788 60.763h-198.529zM32 803.237c0 68.897 55.692 124.763 124.682 124.763h198.529c68.813 0 124.788-55.794 124.788-124.763v-198.474c0-68.839-55.952-124.763-124.788-124.763h-198.529c-69.014 0-124.682 55.996-124.682 124.763v198.474zM256 896c17.673 0 32-14.327 32-32v-320c0-17.673-14.327-32-32-32s-32 14.327-32 32v320c0 17.673 14.327 32 32 32zM32 704c0 17.673 14.327 32 32 32h384c17.673 0 32-14.327 32-32s-14.327-32-32-32h-384c-17.673 0-32 14.327-32 32zM732.685 864c-33.568 0-60.685-27.133-60.685-60.763v-198.474c0-33.548 27.142-60.763 60.685-60.763h198.528c33.504 0 60.787 27.287 60.787 60.763v198.474c0 33.558-27.258 60.763-60.787 60.763h-198.528zM608 803.237c0 68.897 55.693 124.763 124.685 124.763h198.528c68.813 0 124.787-55.794 124.787-124.763v-198.474c0-68.839-55.955-124.763-124.787-124.763h-198.528c-69.018 0-124.685 55.996-124.685 124.763v198.474zM156.682 352c-33.565 0-60.682-27.133-60.682-60.762v-198.477c0-33.549 27.14-60.762 60.682-60.762h198.529c33.507 0 60.788 27.29 60.788 60.762v198.477c0 33.557-27.258 60.762-60.788 60.762h-198.529zM32 291.238c0 68.896 55.692 124.762 124.682 124.762h198.529c68.813 0 124.788-55.794 124.788-124.762v-198.477c0-68.838-55.952-124.762-124.788-124.762h-198.529c-69.014 0-124.682 55.994-124.682 124.762v198.477zM832 384c17.67 0 32-14.327 32-32v-320c0-17.67-14.33-32-32-32s-32 14.33-32 32v320c0 17.673 14.33 32 32 32zM608 192c0 17.67 14.327 32 32 32h384c17.67 0 32-14.33 32-32s-14.33-32-32-32h-384c-17.673 0-32 14.33-32 32zM732.685 352c-33.568 0-60.685-27.133-60.685-60.762v-198.477c0-33.549 27.142-60.762 60.685-60.762h198.528c33.504 0 60.787 27.29 60.787 60.762v198.477c0 33.557-27.258 60.762-60.787 60.762h-198.528zM608 291.238c0 68.896 55.693 124.762 124.685 124.762h198.528c68.813 0 124.787-55.794 124.787-124.762v-198.477c0-68.838-55.955-124.762-124.787-124.762h-198.528c-69.018 0-124.685 55.994-124.685 124.762v198.477z" />
<glyph unicode="&#xe929;" glyph-name="b-home-xmas" horiz-adv-x="878" d="M438.883 210.286c-28.738 0-54.883-26.196-54.883-62.318v-175.397c0-10.097-8.188-18.286-18.286-18.286s-18.286 8.188-18.286 18.286v175.397c0 52.882 39.245 98.889 91.454 98.889 52.103 0 91.403-46.007 91.403-98.889v-175.397c0-10.097-8.188-18.286-18.286-18.286s-18.286 8.188-18.286 18.286v175.397c0 36.122-26.2 62.318-54.832 62.318zM109.714 393.143c10.099 0 18.286-8.188 18.286-18.286v-384h621.714v384c0 10.097 8.188 18.286 18.286 18.286s18.286-8.188 18.286-18.286v-384c0-20.198-16.373-36.571-36.571-36.571h-621.714c-20.198 0-36.571 16.373-36.571 36.571v384c0 10.097 8.187 18.286 18.286 18.286zM453.497 751.542c6.060-8.079 4.425-19.54-3.653-25.6l-410.939-308.205 76.605-25.534c9.581-3.193 14.759-13.55 11.565-23.128-3.193-9.582-13.549-14.76-23.13-11.568l-76.606 25.538c-27.987 9.326-33.979 46.248-10.378 63.949l410.936 308.205c8.082 6.060 19.544 4.422 25.6-3.657zM424.243 751.542c-6.060-8.079-4.421-19.54 3.657-25.6l73.143-54.857c8.079-6.059 19.54-4.422 25.6 3.657s4.421 19.541-3.657 25.6l-73.143 54.857c-8.079 6.060-19.54 4.422-25.6-3.657zM716.815 532.114c-6.060-8.079-4.421-19.54 3.657-25.6l118.367-88.777-76.606-25.534c-9.582-3.193-14.76-13.55-11.568-23.128 3.196-9.582 13.55-14.76 23.131-11.568l76.606 25.538c27.959 9.318 34.011 46.223 10.39 63.941l-118.378 88.784c-8.079 6.060-19.54 4.421-25.6-3.657zM91.429 649.143c0 20.198 16.374 36.571 36.571 36.571h73.143c20.198 0 36.571-16.374 36.571-36.571v-54.857h-36.571v54.857h-73.143v-164.571h-36.571v164.571zM54.857 758.857c0 20.198 16.374 36.571 36.571 36.571h146.286c20.198 0 36.571-16.374 36.571-36.571v-73.143c0-20.198-16.374-36.571-36.571-36.571h-146.286c-20.198 0-36.571 16.374-36.571 36.571v73.143zM237.714 758.857h-146.286v-73.143h146.286v73.143zM128 941.714c10.099 0 18.286-8.187 18.286-18.286 0-26.782 3.51-38.011 6.037-42.296 0.531-0.901 0.929-1.331 1.108-1.505 0.166-0.161 0.264-0.217 0.335-0.254 0.196-0.101 0.93-0.425 3.197-0.616 1.148-0.097 2.396-0.142 4.101-0.19 0.135-0.004 0.274-0.008 0.417-0.012 1.493-0.042 3.426-0.095 5.342-0.234 4.095-0.297 10.457-1.086 16.667-4.703 14.261-8.307 17.653-24.583 17.653-41.619 0-10.099-8.187-18.286-18.286-18.286s-18.286 8.187-18.286 18.286c0 5.099-0.405 8.153-0.779 9.872-0.964 0.060-2.034 0.090-3.542 0.132l-0.225 0.007c-1.67 0.047-3.85 0.112-6.131 0.304-4.59 0.387-10.713 1.356-16.946 4.583-6.497 3.364-11.948 8.568-16.128 15.657-7.759 13.158-11.106 32.797-11.106 60.872 0 10.099 8.187 18.286 18.286 18.286zM163.173 843.798c0.005 0.008 0.050-0.060 0.122-0.226-0.091 0.136-0.127 0.219-0.122 0.226zM493.714 685.71c0 30.137 34.406 47.339 58.514 29.257l190.171-142.628c8.079-6.060 9.717-17.521 3.657-25.6s-17.521-9.717-25.6-3.657l-190.171 142.628v-237.714c0-10.097 8.188-18.286 18.286-18.286s18.286 8.188 18.286 18.286v73.143c0 10.097 8.188 18.286 18.286 18.286s18.286-8.188 18.286-18.286v-73.143c0-30.296-24.561-54.857-54.857-54.857s-54.857 24.561-54.857 54.857v237.714zM658.286 502.857c-10.097 0-18.286 8.188-18.286 18.286s-8.188 18.286-18.286 18.286c-10.097 0-18.286-8.188-18.286-18.286s-8.188-18.286-18.286-18.286c-10.097 0-18.286 8.188-18.286 18.286 0 30.296 24.561 54.857 54.857 54.857s54.857-24.561 54.857-54.857c0-10.097-8.188-18.286-18.286-18.286zM731.429 576c10.097 0 18.286-8.188 18.286-18.286v-73.143c0-30.296-24.561-54.857-54.857-54.857s-54.857 24.561-54.857 54.857v36.571c0 10.097 8.188 18.286 18.286 18.286s18.286-8.188 18.286-18.286v-36.571c0-10.097 8.188-18.286 18.286-18.286s18.286 8.188 18.286 18.286v73.143c0 10.097 8.188 18.286 18.286 18.286z" />
<glyph unicode="&#xe92a;" glyph-name="megaphone" d="M904.533 588.8c-4.267 0-4.267 0-8.533 0v247.467c0 25.6-17.067 46.933-42.667 55.467s-46.933 0-64-17.067c-4.267-4.267-166.4-204.8-311.467-204.8h-315.733c-17.067 4.267-34.133-4.267-46.933-17.067s-21.333-29.867-21.333-42.667v-17.067c-12.8-17.067-29.867-42.667-29.867-81.067s17.067-64 34.133-81.067v-17.067c0-17.067 8.533-34.133 17.067-46.933 12.8-12.8 29.867-17.067 46.933-17.067h93.867v-302.933c0-12.8 4.267-25.6 12.8-34.133s21.333-12.8 34.133-12.8h106.667c8.533 0 21.333 4.267 29.867 8.533s17.067 12.8 21.333 17.067c4.267 8.533 8.533 17.067 12.8 25.6 0 8.533 0 21.333 0 29.867-4.267 17.067-12.8 29.867-17.067 46.933-12.8 34.133-29.867 72.533-34.133 123.733 17.067 0 34.133 8.533 42.667 17.067 12.8 12.8 17.067 29.867 17.067 46.933v34.133c145.067 0 307.2-200.533 311.467-204.8 8.533-12.8 25.6-21.333 42.667-21.333 8.533 0 12.8 0 21.333 4.267 25.6 8.533 42.667 29.867 42.667 55.467v247.467c4.267 0 4.267 0 8.533 0 21.333 4.267 55.467 25.6 55.467 76.8s-42.667 72.533-59.733 81.067zM192 418.133h-34.133v29.867c0 4.267 0 4.267 0 8.533v153.6h34.133v-192zM418.133 320h-34.133c-17.067 0-34.133-12.8-34.133-34.133 0-81.067 21.333-136.533 42.667-183.467 4.267-12.8 12.8-29.867 17.067-42.667h-89.6v290.133h98.133v-29.867zM477.867 413.867h-221.867v196.267h221.867v-196.267zM832 196.267c-34.133 38.4-153.6 170.667-290.133 209.067v213.333c132.267 34.133 256 170.667 290.133 209.067v-631.467z" />
<glyph unicode="&#xe92b;" glyph-name="cash" d="M512 951.981c-277.704 0-503.981-226.277-503.981-503.981s226.277-503.981 503.981-503.981 503.981 226.277 503.981 503.981-226.277 503.981-503.981 503.981zM512 26.301c-231.421 0-421.699 190.28-421.699 421.699s190.28 421.699 421.699 421.699 421.699-190.28 421.699-421.699-190.28-421.699-421.699-421.699zM589.141 468.571c-5.143 0-5.143 5.143-5.143 5.143v102.853c0 5.143 0 5.143 5.143 5.143 10.285 0 20.571-5.143 30.856-5.143s15.428 0 20.571 5.143c5.143 5.143 10.285 10.285 10.285 20.571v0c0 10.285-5.143 20.571-10.285 25.713s-15.428 10.285-20.571 15.428c-10.285 0-20.571 5.143-30.856 5.143-5.143 0-5.143 0-5.143 5.143v20.571c0 10.285-5.143 15.428-10.285 20.571s-10.285 10.285-20.571 10.285c-10.285 0-15.428-5.143-20.571-10.285s-10.285-10.285-10.285-20.571v-20.571c0-5.143 0-5.143-5.143-5.143-46.284 0-77.141-10.285-102.853-25.713-15.428-20.571-30.856-46.284-30.856-77.141 0-46.284 25.713-82.283 82.283-102.853 5.143 0 5.143-5.143 0-5.143 0-5.143 0-5.143 0-10.285v-97.711c0 0 0 0 0-5.143 0 0 0 0-5.143 0-10.285 5.143-25.713 5.143-36 10.285-5.143 5.143-15.428 0-20.571 0-5.143-5.143-10.285-10.285-10.285-15.428v-5.143c0-10.285 5.143-20.571 10.285-25.713 5.143-10.285 15.428-15.428 20.571-15.428 15.428-5.143 25.713-5.143 36-10.285 5.143 0 5.143-5.143 5.143-5.143v-25.713c0-10.285 5.143-15.428 10.285-20.571s10.285-10.285 20.571-10.285 15.428 5.143 20.571 10.285c5.143 5.143 10.285 10.285 10.285 20.571v25.713c0 5.143 0 5.143 5.143 5.143 46.284 0 77.141 10.285 102.853 30.856s36 46.284 36 82.283c0 25.713-5.143 46.284-20.571 61.712-15.428 5.143-36 15.428-61.712 30.856zM522.285 489.141c0 0 0 0 0 0v0c-41.141 10.285-61.712 25.713-61.712 56.569 0 25.713 20.571 41.141 61.712 41.141 5.143 0 5.143 0 5.143-5.143l-5.143-92.568c5.143 0 5.143 0 0 0 5.143 0 0 0 0 0zM527.428 314.291c0 0-5.143 0 0 0l-5.143 102.853c0 5.143 0 5.143 5.143 5.143 20.571-5.143 36-15.428 46.284-25.713s15.428-20.571 15.428-36c0-30.856-20.571-46.284-61.712-46.284z" />
<glyph unicode="&#xe92c;" glyph-name="transporte-04" d="M1018.354 543.645c0 0 0 5.626 0 5.626s0 0 0 0l-101.271 230.673c-22.504 56.261-78.767 90.020-140.654 90.020h-523.232c-61.887 0-118.149-33.756-140.654-90.020l-101.271-230.673c0 0 0 0 0 0s0-5.626 0-5.626 0-5.626 0-11.252c0 0 0 0 0 0v-466.972c0-22.504 16.878-45.008 45.008-45.008h84.393c22.504 0 45.008 16.878 45.008 45.008v45.008h675.141v-45.008c0-22.504 16.878-45.008 45.008-45.008h84.393c22.504 0 45.008 16.878 45.008 45.008v466.972c0 0 0 0 0 0-16.878 5.626-16.878 5.626-16.878 11.252zM90.039 194.822v292.56h843.924v-292.56h-843.924zM185.682 746.185c11.252 22.504 33.756 39.383 67.515 39.383h523.232c28.13 0 56.261-16.878 67.515-39.383l73.142-174.41h-804.542l73.142 174.41zM219.44 448c-45.008 0-84.393-39.383-84.393-84.393s33.756-84.393 84.393-84.393 84.393 39.383 84.393 84.393-39.383 84.393-84.393 84.393zM804.56 448c-45.008 0-84.393-39.383-84.393-84.393s39.383-84.393 84.393-84.393 84.393 39.383 84.393 84.393-33.756 84.393-84.393 84.393z" />
<glyph unicode="&#xe92d;" glyph-name="vrm" d="M866.118 738.121c-25.599 25.599-63.997 34.132-98.129 21.332v38.398c0 25.599-8.533 51.198-29.866 68.264-25.599 25.599-68.264 34.132-102.396 21.332-4.267 17.066-12.799 29.866-25.599 42.665-34.132 34.132-98.129 34.132-136.527 0-17.066-17.066-29.866-42.665-29.866-68.264v-8.533c-29.866 17.066-68.264 8.533-93.863-17.066-17.066-17.066-29.866-42.665-29.866-68.264v-285.855l-12.799 29.866c-12.799 21.332-29.866 38.398-55.465 42.665-25.599 8.533-55.465 4.267-76.797-8.533-42.665-25.599-59.73-72.53-38.398-127.995l106.663-290.121c34.132-85.329 106.663-196.259 315.72-196.259s337.053 145.061 337.053 383.984v354.118c0 25.599-8.533 51.198-29.866 68.264zM558.931 0.019c-170.66 0-226.123 81.064-255.989 153.594l-106.663 290.121c-8.533 25.599-4.267 38.398 8.533 46.931 8.533 4.267 17.066 4.267 25.599 4.267 4.267 0 12.799-4.267 17.066-12.799l72.53-174.926c0 0 0 0 0 0 0-4.267 4.267-8.533 8.533-8.533 0 0 4.267-4.267 8.533-4.267 0 0 4.267 0 4.267-4.267 4.267 0 8.533-4.267 12.799-4.267 0 0 0 0 0 0 4.267 0 4.267 0 8.533 0 0 0 4.267 0 4.267 0s0 0 0 0c4.267 0 8.533 4.267 8.533 8.533 0 0 4.267 4.267 4.267 4.267s4.267 4.267 4.267 4.267c0 8.533 0 12.799 0 17.066 0 0 0 0 0 0v447.981c0 8.533 4.267 17.066 8.533 21.332 12.799 12.799 34.132 12.799 46.931 0 4.267-4.267 8.533-12.799 8.533-21.332v-290.121c0-17.066 12.799-34.132 34.132-34.132s34.132 12.799 34.132 34.132v0 383.984c0 8.533 4.267 17.066 8.533 21.332 12.799 12.799 34.132 12.799 46.931 0 4.267-4.267 8.533-12.799 8.533-21.332v-383.984c0-17.066 12.799-34.132 34.132-34.132s34.132 12.799 34.132 34.132v319.987c0 8.533 4.267 17.066 8.533 21.332 12.799 12.799 34.132 12.799 46.931 0 4.267-4.267 8.533-12.799 8.533-21.332v-349.852c0-17.066 12.799-34.132 34.132-34.132s21.332 17.066 21.332 34.132v221.858c0 8.533 4.267 17.066 8.533 21.332 12.799 12.799 34.132 12.799 46.931 0 4.267-4.267 8.533-12.799 8.533-21.332v-349.852c0-204.791-98.129-319.987-273.056-319.987z" />
<glyph unicode="&#xe92e;" glyph-name="transporte-05" d="M362.667 106.667c0 17.673 14.327 32 32 32h256c17.673 0 32-14.327 32-32s-14.327-32-32-32h-256c-17.673 0-32 14.327-32 32zM842.667 394.667h-640v64h640v-64zM746.667 810.667c35.345 0 64-28.654 64-64v-362.667c0-82.475-66.859-149.333-149.333-149.333h-277.333c-82.475 0-149.333 66.859-149.333 149.333v362.667c0 35.346 28.654 64 64 64h448zM298.667 874.667c-70.692 0-128-57.308-128-128v-362.667c0-117.82 95.513-213.333 213.333-213.333h277.333c117.82 0 213.333 95.514 213.333 213.333v362.667c0 70.692-57.306 128-128 128h-448zM362.667 330.667c0-17.673-14.327-32-32-32s-32 14.327-32 32c0 17.673 14.327 32 32 32s32-14.327 32-32zM330.667 341.333c5.891 0 10.667-4.774 10.667-10.667s-4.776-10.667-10.667-10.667c-5.891 0-10.667 4.774-10.667 10.667s4.776 10.667 10.667 10.667zM330.667 298.667c17.673 0 32 14.327 32 32s-14.327 32-32 32c-17.673 0-32-14.327-32-32s14.327-32 32-32zM746.667 330.667c0-17.673-14.327-32-32-32s-32 14.327-32 32c0 17.673 14.327 32 32 32s32-14.327 32-32zM714.667 341.333c5.892 0 10.667-4.774 10.667-10.667s-4.774-10.667-10.667-10.667c-5.892 0-10.667 4.774-10.667 10.667s4.774 10.667 10.667 10.667zM714.667 298.667c17.673 0 32 14.327 32 32s-14.327 32-32 32c-17.673 0-32-14.327-32-32s14.327-32 32-32zM838.101 59.166l-96 160-54.878-32.926 96-160c9.092-15.155 28.749-20.070 43.904-10.978 15.151 9.092 20.066 28.749 10.974 43.904zM207.232 59.166l96 160 54.88-32.926-96-160c-9.093-15.155-28.749-20.070-43.904-10.978s-20.069 28.749-10.976 43.904z" />
<glyph unicode="&#xe92f;" glyph-name="music" d="M568.371 751.38c2.765-4.871 5.594-10.502 8.542-16.96 3.955-8.662 7.74-17.913 11.836-27.953l0.243-0.591c3.938-9.655 8.171-20.025 12.745-30.129 17.728-39.143 47.607-90.43 113.088-90.43 17.673 0 32 14.327 32 32s-14.327 32-32 32c-22.955 0-37.521 14.706-54.788 52.833-4.070 8.989-7.91 18.403-12.002 28.429l-0.026 0.063c-4.011 9.832-8.286 20.304-12.877 30.359-8.909 19.517-20.676 41.383-38.554 57.307-9.57 8.523-21.658 13.772-34.982 13.692-12.928-0.078-23.974-5.141-32.209-11.652-15.893-12.565-25.015-33.039-25.015-53.698v-444.282c-39.957 20.937-91.043 23.556-137.266 6.473-78.563-29.047-131.453-110.609-103.578-188.399 28.009-78.161 120.741-106.15 199.389-77.073 86.622 32.021 105.455 117.922 105.455 177.6v510.411zM504.294 234.918c-15.164 32.631-62.118 53.44-114.997 33.89-55.487-20.514-78.305-71.104-65.521-106.778 12.649-35.298 61.546-59.115 116.95-38.635 45.577 16.849 62.332 61.952 63.569 111.522z" />
<glyph unicode="&#xe930;" glyph-name="music-01" d="M629.901 874.664c17.668-0.225 31.812-14.734 31.586-32.405l-7.782-610.818c-0.043-61.85-19.063-145.451-105.455-177.391-78.647-29.073-171.38-1.084-199.389 77.077-27.875 77.786 25.016 159.351 103.577 188.395 46.622 17.233 98.189 14.417 138.295-7.014l6.763 530.567c0.222 17.672 14.733 31.815 32.405 31.59zM589.632 225.591c-15.159 32.64-62.118 53.453-114.999 33.903-55.489-20.514-78.307-71.104-65.524-106.778 12.649-35.302 61.547-59.119 116.95-38.639 45.756 16.917 62.383 60.45 63.573 111.514z" />
<glyph unicode="&#xe931;" glyph-name="recharge" d="M674.133 960h-324.267c-72.533 0-128-55.467-128-128v-768c0-72.533 55.467-128 128-128h320c72.533 0 128 55.467 128 128v768c4.267 72.533-55.467 128-123.733 128zM733.867 64c0-34.133-29.867-64-64-64h-320c-34.133 0-64 29.867-64 64v768c0 34.133 29.867 64 64 64h34.133c4.267-12.8 8.533-21.333 17.067-29.867 12.8-12.8 29.867-17.067 46.933-17.067h128c17.067 0 34.133 8.533 46.933 17.067 8.533 8.533 12.8 17.067 17.067 29.867h34.133c34.133 0 64-29.867 64-64v-768z" />
<glyph unicode="&#xe932;" glyph-name="video-games" d="M853.333 268.8v0c0 4.267 0 8.533 0 8.533 0 25.6-17.067 42.667-42.667 42.667h-85.333c-25.6 0-42.667-17.067-42.667-42.667 0-4.267 0-8.533 4.267-8.533h-55.467v520.533c0 42.667-34.133 76.8-76.8 76.8h-85.333c-42.667 0-76.8-34.133-76.8-76.8v-520.533h-221.867c-64 0-119.467-51.2-119.467-119.467s51.2-119.467 119.467-119.467h682.667c64 0 119.467 51.2 119.467 119.467s-55.467 119.467-119.467 119.467zM460.8 789.333c0 4.267 4.267 8.533 8.533 8.533h85.333c4.267 0 8.533-4.267 8.533-8.533v-520.533h-106.667v520.533zM853.333 98.133h-682.667c-29.867 0-51.2 25.6-51.2 51.2s25.6 51.2 51.2 51.2h682.667c29.867 0 51.2-25.6 51.2-51.2s-21.333-51.2-51.2-51.2z" />
<glyph unicode="&#xe933;" glyph-name="airplane" d="M320 29.867c-98.133 0 102.4 298.667 98.133 328.533l-192 4.267c-29.867-25.6-72.533-115.2-123.733-110.933-17.067 0-51.2-4.267-64 12.8-21.333 17.067 34.133 153.6 34.133 174.933 0 29.867-55.467 153.6-34.133 183.467 81.067 59.733 145.067-38.4 187.733-89.6h192l-128 285.867c-17.067 51.2 55.467 51.2 85.333 42.667 38.4-4.267 268.8-311.467 290.133-324.267 98.133 4.267 337.067 21.333 328.533-93.867 8.533-115.2-234.667-98.133-328.533-93.867l-251.733-302.933c-17.067-21.333-68.267-12.8-93.867-17.067zM217.6 430.933c422.4 8.533 268.8-25.6 157.867-324.267l247.467 298.667c17.067 25.6 132.267 4.267 157.867 8.533 55.467-8.533 162.133 17.067 149.333 29.867 12.8 17.067-93.867 38.4-145.067 29.867-12.8 0-140.8-8.533-149.333 0-4.267 4.267-8.533 8.533-12.8 12.8l-247.467 302.933c0-38.4 196.267-320 85.333-320-8.533 0-260.267-8.533-264.533 0-12.8 8.533-76.8 93.867-89.6 106.667l29.867-106.667c12.8-29.867-25.6-119.467-29.867-149.333 0 0 0 0 0 0 21.333 21.333 76.8 115.2 110.933 110.933zM93.867 285.867v0c0 0 0 0 0 0zM230.4 371.2v0c0 0 0 0 0 0zM230.4 524.8v0c0 0 0 0 0 0zM217.6 533.333c0 0 0 0 0 0v0c0 0 0 0 0 0zM93.867 610.133v0c0 0 0 0 0 0z" />
<glyph unicode="&#xe934;" glyph-name="undertakes" d="M985.6 823.467c0 8.533-4.267 17.067-12.8 21.333-4.267 4.267-12.8 8.533-21.333 12.8s-12.8 4.267-25.6 4.267c-221.867 0-354.133-46.933-413.867-140.8-59.733 98.133-196.267 140.8-413.867 140.8-8.533 0-17.067 0-25.6-4.267-8.533 0-17.067-4.267-21.333-12.8-8.533-4.267-12.8-12.8-12.8-21.333-4.267-8.533-8.533-17.067-4.267-25.6v-571.733c0-38.4 25.6-68.267 64-68.267 260.267 0 341.333-55.467 392.533-115.2 0 0 0 0 0 0 0-4.267 4.267-4.267 8.533-4.267 0 0 0 0 4.267-4.267 4.267 0 8.533-4.267 12.8-4.267s8.533 0 12.8 4.267c0 0 4.267 0 4.267 4.267 4.267 0 4.267 4.267 8.533 4.267 0 0 0 0 0 0 46.933 59.733 128 115.2 392.533 115.2 17.067 0 34.133 8.533 46.933 17.067s17.067 29.867 17.067 46.933v576c-8.533 12.8-8.533 17.067-12.8 25.6zM102.4 221.867c0 0-4.267 0-4.267 0s0 0 0 4.267v571.733c298.667 0 362.667-89.6 384-166.4v-494.933c-81.067 59.733-200.533 85.333-379.733 85.333zM930.133 226.133c-183.467 0-302.933-25.6-384-85.333v494.933c21.333 76.8 85.333 162.133 384 166.4v-576z" />
</font>
</defs>
</svg>
