<svg width="113" height="55" viewBox="0 0 113 55" fill="none" xmlns="http://www.w3.org/2000/svg">
<mask id="mask0" mask-type="alpha" maskUnits="userSpaceOnUse" x="0" y="0" width="113" height="55">
<rect x="0.5" width="112" height="55" fill="#C4C4C4"/>
</mask>
<g mask="url(#mask0)">
<path d="M468.712 50.8031C452.328 50.8031 443.995 47.0593 435.984 43.4363C427.812 39.7327 420.083 36.2707 404.222 36.2707C388.361 36.2707 380.632 39.773 372.46 43.4363C364.409 47.0593 356.116 50.8031 339.732 50.8031C323.348 50.8031 315.015 47.0593 307.004 43.4363C298.832 39.7327 291.103 36.2707 275.242 36.2707C259.381 36.2707 251.652 39.773 243.48 43.4363C235.429 47.0593 227.136 50.8031 210.752 50.8031C194.368 50.8031 186.035 47.0593 178.024 43.4363C169.852 39.7327 162.123 36.2707 146.262 36.2707C130.401 36.2707 122.672 39.773 114.5 43.4363C106.449 47.0593 98.1561 50.8031 81.772 50.8031C65.3878 50.8031 57.0548 47.0593 49.0439 43.4363C40.8719 39.7327 33.1427 36.2707 17.2819 36.2707C16.6378 36.2707 16.0742 35.7474 16.0742 35.063C16.0742 34.4189 16.5975 33.8553 17.2819 33.8553C33.6661 33.8553 41.9991 37.5991 50.01 41.2222C58.182 44.9257 65.9111 48.3877 81.772 48.3877C97.6328 48.3877 105.362 44.8855 113.534 41.2222C121.585 37.5991 129.878 33.8553 146.262 33.8553C162.646 33.8553 170.979 37.5991 178.99 41.2222C187.162 44.9257 194.891 48.3877 210.752 48.3877C226.613 48.3877 234.342 44.8855 242.514 41.2222C250.565 37.5991 258.858 33.8553 275.242 33.8553C291.626 33.8553 299.959 37.5991 307.97 41.2222C316.142 44.9257 323.871 48.3877 339.732 48.3877C355.593 48.3877 363.322 44.8855 371.494 41.2222C379.545 37.5991 387.838 33.8553 404.222 33.8553C420.606 33.8553 428.939 37.5991 436.95 41.2222C445.122 44.9257 452.851 48.3877 468.712 48.3877C484.573 48.3877 492.302 44.8855 500.474 41.2222C508.525 37.5991 516.818 33.8553 533.202 33.8553C533.846 33.8553 534.41 34.3787 534.41 35.063C534.41 35.7071 533.887 36.2707 533.202 36.2707C517.342 36.2707 509.612 39.773 501.44 43.4363C493.43 47.0593 485.096 50.8031 468.712 50.8031Z" fill="#742FE1" stroke="#742FE1"/>
<path d="M475.556 33.8551C459.172 33.8551 450.839 30.1113 442.828 26.4883C434.656 22.7847 426.927 19.3227 411.066 19.3227C395.205 19.3227 387.476 22.825 379.304 26.4883C371.253 30.1113 362.96 33.8551 346.576 33.8551C330.192 33.8551 321.859 30.1113 313.848 26.4883C305.676 22.7847 297.947 19.3227 282.086 19.3227C266.225 19.3227 258.496 22.825 250.324 26.4883C242.273 30.1113 233.98 33.8551 217.596 33.8551C201.212 33.8551 192.879 30.1113 184.868 26.4883C176.696 22.7847 168.967 19.3227 153.106 19.3227C137.245 19.3227 129.516 22.825 121.344 26.4883C113.293 30.1113 105 33.8551 88.6157 33.8551C72.2315 33.8551 63.8985 30.1113 55.8876 26.4883C47.7156 22.7847 39.9865 19.3227 24.1256 19.3227C23.4816 19.3227 22.918 18.7994 22.918 18.115C22.918 17.4709 23.4413 16.9073 24.1256 16.9073C40.5098 16.9073 48.8428 20.6512 56.8537 24.2742C65.0257 27.9777 72.7549 31.4398 88.6157 31.4398C104.477 31.4398 112.206 27.9375 120.378 24.2742C128.429 20.6512 136.722 16.9073 153.106 16.9073C169.49 16.9073 177.823 20.6512 185.834 24.2742C194.006 27.9777 201.735 31.4398 217.596 31.4398C233.457 31.4398 241.186 27.9375 249.358 24.2742C257.409 20.6512 265.702 16.9073 282.086 16.9073C298.47 16.9073 306.803 20.6512 314.814 24.2742C322.986 27.9777 330.715 31.4398 346.576 31.4398C362.437 31.4398 370.166 27.9375 378.338 24.2742C386.389 20.6512 394.682 16.9073 411.066 16.9073C427.45 16.9073 435.783 20.6512 443.794 24.2742C451.966 27.9777 459.695 31.4398 475.556 31.4398C491.417 31.4398 499.146 27.9375 507.318 24.2742C515.369 20.6512 523.662 16.9073 540.046 16.9073C540.69 16.9073 541.254 17.4307 541.254 18.115C541.254 18.7591 540.731 19.3227 540.046 19.3227C524.185 19.3227 516.456 22.825 508.284 26.4883C500.273 30.1113 491.94 33.8551 475.556 33.8551Z" fill="#742FE1" stroke="#742FE1"/>
<path d="M484.138 16.9478C467.754 16.9478 459.421 13.204 451.41 9.58093C443.238 5.87738 435.509 2.41536 419.648 2.41536C403.787 2.41536 396.058 5.91763 387.886 9.58093C379.835 13.204 371.542 16.9478 355.158 16.9478C338.774 16.9478 330.441 13.204 322.43 9.58093C314.258 5.87738 306.529 2.41536 290.668 2.41536C274.807 2.41536 267.078 5.91763 258.906 9.58093C250.855 13.204 242.562 16.9478 226.178 16.9478C209.794 16.9478 201.461 13.204 193.45 9.58093C185.278 5.87738 177.549 2.41536 161.688 2.41536C145.827 2.41536 138.098 5.91763 129.926 9.58093C121.875 13.204 113.582 16.9478 97.1978 16.9478C80.8136 16.9478 72.4806 13.204 64.4696 9.58093C56.2977 5.87738 48.5685 2.41536 32.7077 2.41536C32.0636 2.41536 31.5 1.89203 31.5 1.20768C31.5 0.563584 32.0233 0 32.7077 0C49.0919 0 57.4248 3.74381 65.4358 7.36685C73.6077 11.0704 81.3369 14.5324 97.1978 14.5324C113.059 14.5324 120.788 11.0301 128.96 7.36685C137.011 3.74381 145.304 0 161.688 0C178.072 0 186.405 3.74381 194.416 7.36685C202.588 11.0704 210.317 14.5324 226.178 14.5324C242.039 14.5324 249.768 11.0301 257.94 7.36685C265.991 3.74381 274.284 0 290.668 0C307.052 0 315.385 3.74381 323.396 7.36685C331.568 11.0704 339.297 14.5324 355.158 14.5324C371.019 14.5324 378.748 11.0301 386.92 7.36685C394.971 3.74381 403.264 0 419.648 0C436.032 0 444.365 3.74381 452.376 7.36685C460.548 11.0704 468.277 14.5324 484.138 14.5324C499.999 14.5324 507.728 11.0301 515.9 7.36685C523.951 3.74381 532.244 0 548.628 0C549.272 0 549.836 0.523328 549.836 1.20768C549.836 1.85177 549.313 2.41536 548.628 2.41536C532.767 2.41536 525.038 5.91763 516.866 9.58093C508.815 13.1637 500.522 16.9478 484.138 16.9478Z" fill="#742FE1" stroke="#742FE1"/>
</g>
</svg>
