<svg width="88" height="88" viewBox="0 0 88 88" fill="none" xmlns="http://www.w3.org/2000/svg">
<path d="M22.0073 81.0919L2.52126 31.8315C1.00778 27.9549 2.89963 23.5111 6.77791 21.9983L56.1551 2.52102C60.0334 1.00823 64.4792 2.89922 65.9927 6.77576L85.4787 56.2253C86.9922 60.1019 85.1004 64.5457 81.2221 66.0585L31.8449 85.4412C27.872 87.0485 23.5208 85.063 22.0073 81.0919Z" fill="#D9F5EC"/>
<path d="M81.5059 46.0137C73.8439 47.621 65.3306 45.3518 57.8578 48.2829C53.6011 49.9848 50.1958 53.294 46.6013 56.036C42.1554 59.3452 37.2366 60.6689 31.7503 60.858C25.8856 61.0471 19.8317 60.5743 14.0615 61.0471L15.8588 65.68C22.9532 65.2073 30.1422 66.3419 37.1421 65.3964C41.1149 64.8291 44.804 63.4108 48.0202 61.0471C52.1822 58.116 55.7767 54.3341 60.5064 52.6322C67.79 50.1739 75.9249 52.3485 83.3977 50.7412L81.5059 46.0137Z" fill="#B4EBDA"/>
<path d="M36.1015 53.6722C44.331 51.4976 49.3444 43.2718 57.0064 40.2462C63.6279 37.5988 71.2898 39.3007 77.7221 36.4642L76.0194 31.9258C69.0196 35.235 60.0333 32.8713 53.0335 36.6533C48.966 38.8279 45.6553 42.2317 42.0608 45.0682C37.7096 48.3774 32.9799 49.7011 27.5882 49.6066C21.4397 49.512 15.0074 47.9047 8.85889 47.3374L10.7507 52.254C19.1695 53.1995 27.8719 55.8469 36.1015 53.6722Z" fill="#B4EBDA"/>
<path d="M6.77821 42.2313C12.8321 42.2313 19.0752 42.8932 24.9399 42.0423C28.9128 41.475 32.6019 40.0567 35.8181 37.693C39.9801 34.7619 43.5746 30.9799 48.3042 29.278C56.5338 26.5361 65.8984 29.6562 73.9388 26.4415L72.1415 21.8086C63.7228 24.9287 53.9798 21.5249 45.6557 24.9287C41.399 26.6306 37.9937 29.9399 34.3992 32.6818C29.9533 35.9911 25.0345 37.3148 19.5482 37.5039C14.6294 37.693 9.80517 37.3148 4.98096 37.5039L6.77821 42.2313Z" fill="#B4EBDA"/>
<path d="M43.1191 74H44.8809C46.5516 74 48.1743 73.4862 49.4754 72.4382C54.4751 68.4116 67 57.2058 67 46V24.6778C67 23.3445 65.7166 22.3848 64.4017 22.6059C57.9844 23.6847 50.6062 22.2672 45.2137 18.8325C44.4752 18.3621 43.5235 18.3604 42.7839 18.8289C37.3818 22.2505 30.0161 23.6819 23.5984 22.6054C22.2834 22.3848 21 23.3445 21 24.6779V46C21 57.2058 33.5249 68.4116 38.5246 72.4382C39.8257 73.4862 41.4484 74 43.1191 74Z" stroke="#210049" stroke-width="2" stroke-linecap="round" stroke-linejoin="round"/>
<path d="M46.85 69C46.85 69 63 57.5 63 46C63 38.4168 63 32.2674 63 28.9582C63 27.626 61.7173 26.6642 60.3988 26.8541C55.2907 27.5898 49.5208 26.4625 45.2142 23.8159C44.4717 23.3595 43.527 23.3578 42.7834 23.8124C38.4699 26.4494 32.7092 27.5869 27.6013 26.8536C26.2827 26.6643 25 27.6261 25 28.9582C25 32.2674 25 38.4168 25 46" stroke="#210049" stroke-linecap="round" stroke-linejoin="round"/>
<circle cx="44" cy="44" r="13" stroke="#210049" stroke-width="2" stroke-linecap="round" stroke-linejoin="round"/>
<path d="M47.5691 45.5955C47.2819 45.2022 46.9468 44.8652 46.4681 44.6405C46.0372 44.4157 45.5585 44.2472 45.0797 44.0787L44.9361 39.5281C45.5585 39.809 45.9415 40.0337 46.4202 40.5955L46.4681 41.9438C46.4681 42.2809 46.6595 42.4494 46.8989 42.4494C47.1862 42.4494 47.3298 42.2247 47.3298 41.9438L47.234 38.7416C47.234 38.4045 47.0425 38.236 46.8032 38.236C46.5159 38.236 46.3723 38.4607 46.3723 38.7416V39.3034C46.3723 39.3034 46.2766 39.1348 45.9893 38.9101C45.7021 38.6854 45.4627 38.573 45.1276 38.4607C45.0319 38.4045 44.9361 38.4045 44.8882 38.4045L44.8404 37.5056C44.8404 37.2247 44.6489 37 44.4095 37C44.1701 37 43.9786 37.2247 43.9786 37.5056V38.1798C43.835 38.1798 43.6914 38.1798 43.5957 38.1236V37.5056C43.5957 37.2247 43.4042 37 43.1648 37C42.9254 37 42.7339 37.2247 42.7339 37.5056V38.1798C41.8722 38.2921 41.202 38.6292 40.7711 39.1348C40.2445 39.7528 39.9573 40.5955 40.0052 41.6067C40.0052 42.1685 40.1488 42.618 40.436 43.0112C40.7233 43.4045 41.0584 43.7416 41.5371 43.9663C41.8722 44.1348 42.351 44.3034 42.9254 44.5281L43.0691 49.4719C43.0212 49.4719 42.9733 49.4719 42.9254 49.4157C42.1595 49.0787 41.7765 48.9101 41.2977 48.3483V47.2809C41.2977 46.9438 41.1062 46.7753 40.8669 46.7753C40.5796 46.7753 40.436 47 40.436 47.2809L40.5318 50.4831C40.5318 50.8202 40.7233 50.9888 40.9626 50.9888C41.2499 50.9888 41.3935 50.764 41.3935 50.4831V49.809C42.0158 50.3708 42.4946 50.5393 43.1169 50.6517L43.1648 51.4944C43.1648 51.7753 43.3563 52 43.5957 52C43.835 52 44.0265 51.7753 44.0265 51.4944V50.764C44.1223 50.764 44.2659 50.764 44.4095 50.764V51.4944C44.4095 51.7753 44.601 52 44.8404 52C45.0797 52 45.2712 51.7753 45.2712 51.4944L45.2234 50.7079C45.9893 50.5393 46.6117 50.2584 47.0904 49.7528C47.7128 49.0787 48 48.1798 48 47.1124C47.9521 46.4944 47.8085 45.9888 47.5691 45.5955ZM44.0265 39.2472L44.1701 43.8539C44.0744 43.8539 43.9308 43.7978 43.7393 43.7416L43.5957 39.2472C43.7393 39.191 43.8829 39.2472 44.0265 39.2472ZM41.9201 43.1236C41.6329 42.9551 41.3456 42.7303 41.1062 42.4494C40.9148 42.1685 40.7711 41.8876 40.7711 41.4944C40.7711 40.8764 40.9626 40.3708 41.3456 39.9214C41.6329 39.5843 42.1116 39.3596 42.6861 39.2472L42.8297 43.4045C42.5903 43.4045 42.2552 43.236 41.9201 43.1236ZM43.9308 49.7528L43.7872 44.8652C43.9308 44.9213 44.0744 44.9214 44.218 44.9775L44.3616 49.7528C44.2659 49.7528 44.0744 49.7528 43.9308 49.7528ZM46.4681 48.9663C46.1329 49.3034 45.7021 49.4719 45.2234 49.6404L45.0797 45.2584C45.367 45.3708 45.7021 45.4831 45.9893 45.5955C46.2766 45.764 46.5638 45.9888 46.8032 46.2697C46.9947 46.5506 47.1383 46.8315 47.1383 47.2247C47.1383 47.8989 46.9468 48.4607 46.4681 48.9663Z" fill="#210049"/>
</svg>
