<svg width="88" height="89" viewBox="0 0 88 89" fill="none" xmlns="http://www.w3.org/2000/svg">
<path d="M22.0073 81.5919L2.52126 32.3315C1.00778 28.4549 2.89963 24.0111 6.77791 22.4983L56.1551 3.02102C60.0334 1.50823 64.4792 3.39922 65.9927 7.27576L85.4787 56.7253C86.9922 60.6019 85.1004 65.0457 81.2221 66.5585L31.8449 85.9412C27.872 87.5485 23.5208 85.563 22.0073 81.5919Z" fill="#FFD5E3"/>
<path d="M81.5057 46.5137C73.8438 48.121 65.3304 45.8518 57.8577 48.7829C53.601 50.4848 50.1957 53.794 46.6012 56.536C42.1553 59.8452 37.2365 61.1689 31.7502 61.358C25.8854 61.5471 19.8315 61.0743 14.0614 61.5471L15.8587 66.18C22.9531 65.7073 30.1421 66.8419 37.1419 65.8964C41.1148 65.3291 44.8039 63.9108 48.0201 61.5471C52.1821 58.616 55.7766 54.8341 60.5062 53.1322C67.7899 50.6739 75.9248 52.8485 83.3976 51.2412L81.5057 46.5137Z" fill="#FFACC7"/>
<path d="M36.1015 54.1722C44.331 51.9976 49.3444 43.7718 57.0064 40.7462C63.6279 38.0988 71.2898 39.8007 77.7221 36.9642L76.0194 32.4258C69.0196 35.735 60.0333 33.3713 53.0335 37.1533C48.966 39.3279 45.6553 42.7317 42.0608 45.5682C37.7096 48.8774 32.9799 50.2011 27.5882 50.1066C21.4397 50.012 15.0074 48.4047 8.85889 47.8374L10.7507 52.754C19.1695 53.6995 27.8719 56.3469 36.1015 54.1722Z" fill="#FFACC7"/>
<path d="M6.77833 42.7318C12.8322 42.7318 19.0753 43.3937 24.9401 42.5427C28.9129 41.9754 32.602 40.5572 35.8182 38.1934C39.9802 35.2624 43.5748 31.4804 48.3044 29.7785C56.5339 27.0366 65.8985 30.1567 73.9389 26.942L72.1416 22.3091C63.7229 25.4292 53.9799 22.0254 45.6558 25.4292C41.3991 27.1311 37.9938 30.4404 34.3993 33.1823C29.9535 36.4916 25.0347 37.8152 19.5483 38.0043C14.6295 38.1934 9.80529 37.8152 4.98108 38.0043L6.77833 42.7318Z" fill="#FFACC7"/>
<path d="M51.5144 29.9023L50.2741 32.1585" stroke="#210049" stroke-linecap="round" stroke-linejoin="round"/>
<path d="M51.5145 29.9023L53.7823 31.1363" stroke="#210049" stroke-linecap="round" stroke-linejoin="round"/>
<path d="M42.5205 40.8401C43.7027 41.1166 44.9309 41.1174 46.1134 40.8422C47.296 40.567 48.4025 40.023 49.3505 39.2507C50.2985 38.4784 51.0635 37.4977 51.5887 36.3817C52.1138 35.2657 52.3855 34.0431 52.3835 32.805C52.3564 31.9188 52.2051 31.0411 51.9341 30.1987" stroke="#210049" stroke-linecap="round" stroke-linejoin="round"/>
<path d="M44.2564 24.9047C43.0781 24.636 41.8541 24.6353 40.6756 24.9025C39.497 25.1698 38.3942 25.6982 37.4494 26.4483C36.5046 27.1984 35.742 28.1509 35.2186 29.235C34.6951 30.319 34.4242 31.5065 34.4261 32.7091C34.4445 33.5571 34.5868 34.3979 34.8484 35.2051" stroke="#210049" stroke-linecap="round" stroke-linejoin="round"/>
<path d="M35.0253 35.5761L32.625 34.6211" stroke="#210049" stroke-linecap="round" stroke-linejoin="round"/>
<path d="M35.0253 35.576L35.9853 33.188" stroke="#210049" stroke-linecap="round" stroke-linejoin="round"/>
<path d="M58.9066 29.054L46.9242 17.1329C44.8695 15.0888 41.5382 15.0888 39.4835 17.1329L27.5011 29.054C25.4465 31.0982 25.4465 34.4124 27.5011 36.4566L39.4835 48.3777C41.5382 50.4218 44.8695 50.4218 46.9242 48.3777L58.9066 36.4566C60.9613 34.4124 60.9613 31.0982 58.9066 29.054Z" stroke="#210049" stroke-width="2" stroke-miterlimit="10" stroke-linecap="round"/>
<path d="M45.4794 49.9248V74.5823H64.2191" stroke="#210049" stroke-width="2" stroke-linecap="round" stroke-linejoin="round"/>
<path d="M51.3972 74.5824L48.4383 68.6646" stroke="#210049" stroke-width="1.6" stroke-miterlimit="10" stroke-linecap="round"/>
<path d="M51.3972 74.5823V67.6782" stroke="#210049" stroke-width="1.6" stroke-miterlimit="10" stroke-linecap="round"/>
<path d="M51.3972 74.5824L54.3561 68.6646" stroke="#210049" stroke-width="1.6" stroke-miterlimit="10" stroke-linecap="round"/>
<path d="M32.6575 74.5823H41.5342V49.9248" stroke="#210049" stroke-width="2" stroke-linecap="round" stroke-linejoin="round"/>
<rect x="8" y="8.5" width="72" height="72" fill="white" fill-opacity="0.01"/>
</svg>
