<svg width="230" height="170" viewBox="0 0 230 170" fill="none" xmlns="http://www.w3.org/2000/svg">
<g clip-path="url(#clip0)">
<path d="M159.767 117.673L158.615 126.607C157.207 136.945 156.951 147.282 157.847 157.62L158.743 167.831" stroke="#27A1AB" stroke-width="2.34483" stroke-miterlimit="10" stroke-linecap="round" stroke-linejoin="round"/>
<path d="M197.404 118.566L197.148 121.246C195.356 136.179 194.972 151.111 196.124 166.171L196.38 168.851" stroke="#27A1AB" stroke-width="2.34483" stroke-miterlimit="10" stroke-linecap="round" stroke-linejoin="round"/>
<path opacity="0.25" d="M203.933 115.886L154.134 114.737C151.19 114.61 148.757 112.185 148.885 109.249L151.19 7.91309C151.318 4.97765 153.75 2.55273 156.695 2.68036L206.494 3.829C209.438 3.95663 211.871 6.38156 211.742 9.31699L209.438 110.653C209.438 113.589 207.006 115.886 203.933 115.886Z" fill="#45C2D1"/>
<path d="M181.274 13.2731L173.721 13.1455C172.697 13.1455 171.801 12.2521 171.929 11.2311C171.929 10.21 172.825 9.31665 173.849 9.31665L181.402 9.44428C182.426 9.44428 183.322 10.3377 183.194 11.3587C183.194 12.3797 182.298 13.2731 181.274 13.2731Z" fill="#27A1AB"/>
<path d="M188.827 13.4009H186.907C185.883 13.4009 184.987 12.5075 185.115 11.4864C185.115 10.4654 186.011 9.57202 187.035 9.57202H188.955C189.979 9.57202 190.875 10.4654 190.747 11.4864C190.747 12.5075 189.851 13.4009 188.827 13.4009Z" fill="#27A1AB"/>
<path d="M184.652 107.463C184.715 104.644 182.302 102.304 179.263 102.236C176.223 102.168 173.708 104.398 173.644 107.217C173.581 110.036 175.994 112.376 179.034 112.444C182.073 112.512 184.589 110.281 184.652 107.463Z" fill="#27A1AB"/>
<path d="M211.525 17.659L150.984 16.3096L149.121 99.3786L209.662 100.728L211.525 17.659Z" fill="white"/>
<path d="M156.567 2.55255C156.695 2.55255 156.695 2.55255 156.567 2.55255L206.494 3.7012C209.438 3.82883 211.87 6.25375 211.742 9.18919L209.438 110.526C209.31 113.461 207.006 115.758 204.061 115.758H203.933L154.134 114.61C151.19 114.482 148.757 112.057 148.885 109.122L151.19 7.78529C151.318 4.84985 153.75 2.55255 156.567 2.55255ZM156.567 0C152.214 0 148.757 3.44595 148.629 7.78529L146.325 109.122C146.197 113.461 149.782 117.162 154.134 117.29L203.933 118.438H204.061C208.414 118.438 211.87 114.992 211.999 110.653L214.303 9.31682C214.303 7.14715 213.535 5.23273 212.127 3.7012C210.718 2.16967 208.67 1.27628 206.494 1.27628L156.823 0H156.567Z" fill="#00A0AB"/>
<path d="M191.132 67.8979C189.723 68.4084 188.955 70.0676 189.467 71.4715L189.979 72.8754C188.955 73.003 187.931 72.7478 187.035 72.3649C186.523 72.1096 186.011 72.3649 185.755 72.7478C185.499 73.2583 185.755 73.7688 186.139 74.0241C187.803 74.7898 189.723 74.9175 191.388 74.5346H191.516C191.516 74.5346 191.516 74.5346 191.644 74.5346C193.564 73.8964 195.356 72.6202 196.252 70.5781C196.508 70.0676 196.252 69.5571 195.868 69.3018C195.484 69.1742 195.1 69.1742 194.716 69.5571C194.204 68.0256 192.668 67.3874 191.132 67.8979ZM191.772 69.5571C192.284 69.4295 192.796 69.6847 192.924 70.0676L193.308 71.2163C192.796 71.7268 192.284 71.982 191.772 72.3649L191.26 70.8334C191.004 70.3229 191.26 69.8123 191.772 69.5571Z" fill="#26A1AB"/>
<path d="M164.248 48.8815C163.864 48.8815 163.608 48.6262 163.351 48.2433C163.223 47.7328 163.351 47.0947 163.864 46.967L168.088 45.0526C168.6 44.925 169.24 45.0526 169.368 45.5631C169.496 46.0736 169.368 46.7118 168.856 46.8394L164.632 48.7538C164.504 48.8815 164.376 48.8815 164.248 48.8815Z" fill="#00A1AC"/>
<path d="M197.148 49.1368C197.02 49.1368 196.892 49.1368 196.764 49.0091L192.54 46.9671C192.028 46.7118 191.9 46.2013 192.028 45.6908C192.284 45.1803 192.796 45.0527 193.308 45.1803L197.532 47.2224C198.045 47.4776 198.173 47.9881 198.045 48.4986C197.916 48.8815 197.532 49.1368 197.148 49.1368Z" fill="#00A1AC"/>
<path d="M190.491 58.5811C191.481 58.5811 192.284 57.7812 192.284 56.7944C192.284 55.8075 191.481 55.0076 190.491 55.0076C189.502 55.0076 188.699 55.8075 188.699 56.7944C188.699 57.7812 189.502 58.5811 190.491 58.5811Z" fill="white"/>
<path d="M189.723 59.4744C187.803 59.4744 186.267 57.8152 186.267 55.9008C186.267 53.9864 187.931 52.4548 189.851 52.4548C191.772 52.4548 193.308 54.114 193.308 56.0284C193.308 58.0705 191.772 59.4744 189.723 59.4744ZM189.851 54.4969C189.083 54.4969 188.315 55.135 188.315 56.0284C188.315 56.7942 188.955 57.5599 189.851 57.5599C190.619 57.5599 191.388 56.9218 191.388 56.0284C191.388 55.135 190.747 54.4969 189.851 54.4969Z" fill="#00A1AC"/>
<path d="M168.088 58.0704C169.078 58.0704 169.881 57.2704 169.881 56.2836C169.881 55.2968 169.078 54.4968 168.088 54.4968C167.098 54.4968 166.296 55.2968 166.296 56.2836C166.296 57.2704 167.098 58.0704 168.088 58.0704Z" fill="white"/>
<path d="M171.161 59.0915C169.24 59.0915 167.704 57.4324 167.704 55.518C167.704 53.6036 169.368 52.072 171.289 52.072C173.209 52.072 174.745 53.7312 174.745 55.6456C174.745 57.6876 173.081 59.0915 171.161 59.0915ZM171.289 53.9864C170.521 53.9864 169.752 54.6246 169.752 55.518C169.752 56.2837 170.392 57.0495 171.289 57.0495C172.057 57.0495 172.825 56.4114 172.825 55.518C172.825 54.7522 172.057 53.9864 171.289 53.9864Z" fill="#00A1AC"/>
<path d="M147.605 61.2613C147.605 61.2613 119.057 67.515 115.217 38.7988" stroke="#26A1AB" stroke-width="2.34483" stroke-miterlimit="10" stroke-linecap="round" stroke-linejoin="round"/>
<path d="M211.999 63.4309C211.999 63.4309 251.428 73.5135 208.158 93.9339" stroke="#26A1AB" stroke-width="2.34483" stroke-miterlimit="10" stroke-linecap="round" stroke-linejoin="round"/>
<path d="M70.0261 117.673L71.1783 126.607C72.5865 136.945 72.8425 147.282 71.9464 157.62L71.0503 167.831" stroke="#27A1AB" stroke-width="2.34483" stroke-miterlimit="10" stroke-linecap="round" stroke-linejoin="round"/>
<path d="M32.3886 118.566L32.6447 121.246C34.4369 136.179 34.821 151.111 33.6688 166.171L33.4128 168.851" stroke="#27A1AB" stroke-width="2.34483" stroke-miterlimit="10" stroke-linecap="round" stroke-linejoin="round"/>
<path opacity="0.25" d="M25.8598 115.886L75.5309 114.737C78.4753 114.61 80.9077 112.185 80.7797 109.249L78.6034 7.7854C78.4753 4.84997 76.043 2.42504 73.0986 2.55267L23.2994 3.70132C20.355 3.82895 17.9226 6.25387 18.0506 9.18931L20.355 110.526C20.355 113.589 22.7873 115.886 25.8598 115.886Z" fill="#45C2D1"/>
<path d="M39.9418 13.2731L47.4949 13.1455C48.5191 13.1455 49.4152 12.2521 49.2872 11.2311C49.2872 10.21 48.3911 9.31665 47.3669 9.31665L39.8138 9.44428C38.7897 9.44428 37.8935 10.3377 38.0216 11.3587C38.0216 12.3797 38.9177 13.2731 39.9418 13.2731Z" fill="#27A1AB"/>
<path d="M53.7678 12.8905H55.6881C56.7122 12.8905 57.6084 11.9971 57.4803 10.976C57.3523 9.95502 56.5842 8.93399 55.5601 9.06162H53.6398C52.6156 9.06162 51.7195 9.95502 51.8475 10.976C51.8475 12.1247 52.7437 12.8905 53.7678 12.8905Z" fill="#27A1AB"/>
<path d="M50.6831 112.445C53.7227 112.377 56.1356 110.037 56.0723 107.218C56.0091 104.399 53.4938 102.169 50.4542 102.236C47.4146 102.304 45.0017 104.644 45.065 107.463C45.1282 110.282 47.6435 112.512 50.6831 112.445Z" fill="#27A1AB"/>
<path d="M20.1216 100.748L80.6622 99.3987L78.7993 16.3297L18.2587 17.6791L20.1216 100.748Z" fill="white"/>
<path d="M73.0985 2.55255C76.0429 2.55255 78.4753 4.84985 78.4753 7.78528L80.7796 109.122C80.9076 112.057 78.4753 114.61 75.5308 114.61L25.7317 115.758H25.6036C22.6592 115.758 20.2269 113.461 20.2269 110.526L18.0506 9.18919C17.9225 6.25375 20.3549 3.7012 23.2993 3.7012L73.0985 2.55255ZM73.0985 0H72.9705L23.1713 1.14865C20.995 1.14865 19.0747 2.04204 17.5385 3.57357C16.1303 5.1051 15.3622 7.14715 15.4902 9.18919L17.7945 110.526C17.9225 114.865 21.5071 118.311 25.7317 118.311H25.8597L75.6589 117.162C80.0115 117.035 83.596 113.461 83.468 108.994L81.1637 7.78528C81.0356 3.44595 77.4511 0 73.0985 0Z" fill="#00A0AB"/>
<path d="M63.4971 44.2867C63.8812 44.1591 64.1372 43.9039 64.1372 43.3933C64.1372 42.8828 63.7532 42.3723 63.2411 42.3723L58.6324 41.8618C58.1203 41.8618 57.6083 42.2447 57.6083 42.7552C57.6083 43.2657 57.9923 43.7762 58.5044 43.7762L63.1131 44.2867C63.1131 44.4144 63.3691 44.2867 63.4971 44.2867Z" fill="#00A1AC"/>
<path d="M33.2848 45.6908C33.4128 45.6908 33.5408 45.8184 33.6688 45.6908L38.2775 45.1803C38.7896 45.1803 39.1736 44.6698 39.1736 44.1593C39.1736 43.6487 38.6615 43.2659 38.1495 43.2659L33.5408 43.7764C33.0287 43.7764 32.6447 44.2869 32.6447 44.7974C32.7727 45.3079 32.9007 45.5632 33.2848 45.6908Z" fill="#00A1AC"/>
<path d="M39.3016 58.5811C40.2915 58.5811 41.0939 57.7812 41.0939 56.7944C41.0939 55.8075 40.2915 55.0076 39.3016 55.0076C38.3118 55.0076 37.5094 55.8075 37.5094 56.7944C37.5094 57.7812 38.3118 58.5811 39.3016 58.5811Z" fill="white"/>
<path d="M36.4852 56.0284C36.4852 54.114 38.0215 52.4548 39.9417 52.4548C41.862 52.4548 43.5262 53.9864 43.5262 55.9008C43.5262 57.8152 41.99 59.4744 40.0697 59.4744C38.0214 59.4744 36.4852 58.0705 36.4852 56.0284ZM38.4055 56.0284C38.4055 56.7942 39.1736 57.5599 39.9417 57.5599C40.7098 57.5599 41.4779 56.7942 41.4779 56.0284C41.4779 55.2626 40.7098 54.4969 39.9417 54.4969C39.0456 54.4969 38.4055 55.135 38.4055 56.0284Z" fill="#00A1AC"/>
<path d="M61.7049 58.0704C62.6947 58.0704 63.4971 57.2704 63.4971 56.2836C63.4971 55.2968 62.6947 54.4968 61.7049 54.4968C60.715 54.4968 59.9126 55.2968 59.9126 56.2836C59.9126 57.2704 60.715 58.0704 61.7049 58.0704Z" fill="white"/>
<path d="M54.92 55.6456C54.92 53.7312 56.4562 52.072 58.3765 52.072C60.2968 52.072 61.961 53.6036 61.961 55.518C61.961 57.4324 60.4248 59.0915 58.5045 59.0915C56.7122 59.0915 55.048 57.6876 54.92 55.6456ZM56.9683 55.518C56.9683 56.2837 57.7364 57.0495 58.5045 57.0495C59.2726 57.0495 60.0407 56.2837 60.0407 55.518C60.0407 54.7522 59.2726 53.9864 58.5045 53.9864C57.6084 53.9864 56.9683 54.7522 56.9683 55.518Z" fill="#00A1AC"/>
<path d="M82.1879 61.2613C82.1879 61.2613 110.736 67.515 114.577 38.7988" stroke="#26A1AB" stroke-width="2.34483" stroke-miterlimit="10" stroke-linecap="round" stroke-linejoin="round"/>
<path d="M17.6666 63.4309C17.6666 63.4309 -21.7631 73.5135 21.5071 93.9339" stroke="#26A1AB" stroke-width="2.34483" stroke-miterlimit="10" stroke-linecap="round" stroke-linejoin="round"/>
<path d="M35.2051 70.3227C38.0215 76.7041 43.6543 79.0014 50.0553 76.0659C51.2074 75.5554 50.1833 73.8963 49.0311 74.4068C43.6543 76.9593 39.1737 74.662 36.8694 69.4293C36.3573 68.2807 34.693 69.3017 35.2051 70.3227Z" fill="#00A1AC"/>
</g>
<defs>
<clipPath id="clip0">
<rect width="229.793" height="170" fill="white"/>
</clipPath>
</defs>
</svg>
