<svg width="88" height="88" viewBox="0 0 88 88" fill="none" xmlns="http://www.w3.org/2000/svg">
<path d="M22.0073 81.0919L2.52126 31.8315C1.00778 27.9549 2.89963 23.5111 6.77791 21.9983L56.1551 2.52102C60.0334 1.00823 64.4792 2.89922 65.9927 6.77576L85.4787 56.2253C86.9922 60.1019 85.1004 64.5457 81.2221 66.0585L31.8449 85.4412C27.872 87.0485 23.5208 85.063 22.0073 81.0919Z" fill="#D5F4F7"/>
<path d="M81.5057 46.0139C73.8438 47.6213 65.3304 45.3521 57.8577 48.2831C53.601 49.985 50.1957 53.2943 46.6012 56.0362C42.1553 59.3454 37.2365 60.6691 31.7502 60.8582C25.8854 61.0473 19.8315 60.5746 14.0614 61.0473L15.8587 65.6803C22.9531 65.2075 30.1421 66.3421 37.1419 65.3966C41.1148 64.8293 44.8039 63.4111 48.0201 61.0473C52.1821 58.1163 55.7766 54.3343 60.5062 52.6324C67.7899 50.1741 75.9248 52.3488 83.3976 50.7414L81.5057 46.0139Z" fill="#ACEAEF"/>
<path d="M36.1015 53.6725C44.331 51.4978 49.3444 43.272 57.0064 40.2464C63.6279 37.599 71.2898 39.3009 77.7221 36.4644L76.0194 31.926C69.0196 35.2353 60.0333 32.8715 53.0335 36.6535C48.966 38.8282 45.6553 42.232 42.0608 45.0684C37.7096 48.3777 32.9799 49.7014 27.5882 49.6068C21.4397 49.5123 15.0074 47.9049 8.85889 47.3376L10.7507 52.2542C19.1695 53.1997 27.8719 55.8471 36.1015 53.6725Z" fill="#ACEAEF"/>
<path d="M6.77833 42.2318C12.8322 42.2318 19.0753 42.8937 24.9401 42.0427C28.9129 41.4754 32.602 40.0572 35.8182 37.6934C39.9802 34.7624 43.5748 30.9804 48.3044 29.2785C56.5339 26.5366 65.8985 29.6567 73.9389 26.442L72.1416 21.8091C63.7229 24.9292 53.9799 21.5254 45.6558 24.9292C41.3991 26.6311 37.9938 29.9404 34.3993 32.6823C29.9535 35.9916 25.0347 37.3152 19.5483 37.5043C14.6295 37.6934 9.80529 37.3152 4.98108 37.5043L6.77833 42.2318Z" fill="#ACEAEF"/>
<path d="M37.525 67.6024C36.425 67.6024 35.325 67.2024 34.525 66.4024L33.025 65.0024C31.225 63.3024 28.325 63.4024 26.725 65.2024L25.825 66.1024C25.025 67.0024 23.825 67.5024 22.625 67.5024C21.425 67.6024 20.325 67.1024 19.425 66.2024L18.225 65.0024C17.925 64.7024 17.925 64.1024 18.225 63.7024C18.525 63.4024 19.125 63.4024 19.525 63.7024L20.725 64.9024C21.225 65.4024 21.925 65.7024 22.725 65.7024C23.425 65.7024 24.125 65.4024 24.625 64.8024L25.425 63.9024C27.725 61.4024 31.725 61.2024 34.225 63.6024L35.725 65.0024C36.225 65.5024 36.925 65.7024 37.725 65.7024C38.425 65.7024 39.125 65.3024 39.625 64.8024L39.925 64.5024C41.125 63.0024 42.925 62.2024 44.925 62.1024C46.825 62.0024 48.725 62.7024 50.125 64.1024L50.725 64.7024C52.025 66.0024 54.125 66.0024 55.425 64.7024L55.925 64.2024C58.225 62.0024 61.825 61.8024 64.325 63.8024L65.825 65.0024C66.425 65.5024 67.225 65.4024 67.825 65.0024C68.225 64.7024 68.725 64.7024 69.125 65.1024C69.425 65.5024 69.425 66.0024 69.025 66.4024C67.825 67.4024 66.025 67.5024 64.825 66.5024L63.325 65.3024C61.525 63.9024 58.925 64.0024 57.225 65.6024L56.725 66.1024C54.725 68.0024 51.525 68.0024 49.525 66.1024L48.925 65.5024C47.925 64.5024 46.525 64.0024 45.125 64.0024C43.725 64.1024 42.425 64.7024 41.425 65.8024L41.125 66.1024C40.325 67.0024 39.225 67.6024 38.025 67.7024C37.725 67.6024 37.625 67.6024 37.525 67.6024Z" fill="#21154A"/>
<path d="M56.1248 28.9023L53.9248 34.5023C53.9248 34.5023 47.9248 34.3023 45.9248 37.8023C43.9248 41.3023 34.9248 64.2023 34.9248 64.2023" stroke="black" stroke-width="2" stroke-miterlimit="10" stroke-linecap="round" stroke-linejoin="round"/>
<path d="M66.4902 29.2124L55.8193 24.6641L54.5646 27.6077L65.2355 32.1561L66.4902 29.2124Z" stroke="black" stroke-width="2" stroke-miterlimit="10" stroke-linecap="round" stroke-linejoin="round"/>
<path d="M63.6247 27.6008L58.9247 25.6008C58.2247 25.3008 57.8247 24.4008 58.1247 23.7008L59.3247 20.9008C59.6247 20.2008 60.5247 19.8008 61.2247 20.1008L65.9247 22.1008C66.6247 22.4008 67.0247 23.3008 66.7247 24.0008L65.5247 26.8008C65.2247 27.6008 64.3247 27.9008 63.6247 27.6008Z" stroke="black" stroke-width="2" stroke-miterlimit="10" stroke-linecap="round" stroke-linejoin="round"/>
<path d="M63.3249 32.4023L61.0249 38.0023C61.0249 38.0023 65.5249 42.0023 64.5249 45.9023C63.5249 49.8023 57.0249 63.8023 57.0249 63.8023" stroke="black" stroke-width="2" stroke-miterlimit="10" stroke-linecap="round" stroke-linejoin="round"/>
<path d="M53.1246 37.9023C53.1246 37.9023 48.5246 38.2023 45.7246 45.6023" stroke="black" stroke-width="0.8" stroke-miterlimit="10" stroke-linecap="round" stroke-linejoin="round"/>
</svg>
