<svg width="20" height="20" viewBox="0 0 20 20" fill="none" xmlns="http://www.w3.org/2000/svg">
<path d="M19.566 8.63206C19.9596 8.25068 20.0986 7.69094 19.9288 7.17062C19.7586 6.6503 19.3153 6.27887 18.7706 6.20005L13.9281 5.50058C13.7218 5.47073 13.5436 5.34214 13.4515 5.15623L11.2865 0.794613C11.0434 0.304549 10.5501 0 10.0002 0C9.45075 0 8.95736 0.304549 8.71427 0.794613L6.5489 5.15662C6.45679 5.34254 6.27818 5.47112 6.07193 5.50098L1.22938 6.20045C0.685131 6.27887 0.241404 6.6507 0.0712016 7.17102C-0.0986002 7.69134 0.040365 8.25108 0.434033 8.63246L3.9378 12.0275C4.08717 12.1724 4.15566 12.381 4.12041 12.5848L3.29383 17.3788C3.22054 17.8008 3.33188 18.2112 3.6066 18.5349C4.03351 19.0393 4.7788 19.1929 5.3747 18.8816L9.70545 16.618C9.88646 16.5236 10.1143 16.5244 10.2949 16.618L14.6261 18.8816C14.8367 18.9919 15.0614 19.0476 15.2933 19.0476C15.7166 19.0476 16.1179 18.8605 16.3938 18.5349C16.6689 18.2112 16.7799 17.8 16.7066 17.3788L15.8796 12.5848C15.8443 12.3806 15.9128 12.1724 16.0622 12.0275L19.566 8.63206Z" fill="#2FCAD7"/>
</svg>
