<svg width="88" height="89" viewBox="0 0 88 89" fill="none" xmlns="http://www.w3.org/2000/svg">
<path d="M22.0073 81.5919L2.52126 32.3315C1.00778 28.4549 2.89963 24.0111 6.77791 22.4983L56.1551 3.02102C60.0334 1.50823 64.4792 3.39922 65.9927 7.27576L85.4787 56.7253C86.9922 60.6019 85.1004 65.0457 81.2221 66.5585L31.8449 85.9412C27.872 87.5485 23.5208 85.563 22.0073 81.5919Z" fill="#D9F5EC"/>
<path d="M81.5057 46.5139C73.8438 48.1213 65.3304 45.8521 57.8577 48.7831C53.601 50.485 50.1957 53.7943 46.6012 56.5362C42.1553 59.8454 37.2365 61.1691 31.7502 61.3582C25.8854 61.5473 19.8315 61.0746 14.0614 61.5473L15.8587 66.1803C22.9531 65.7075 30.1421 66.8421 37.1419 65.8966C41.1148 65.3293 44.8039 63.9111 48.0201 61.5473C52.1821 58.6163 55.7766 54.8343 60.5062 53.1324C67.7899 50.6741 75.9248 52.8488 83.3976 51.2414L81.5057 46.5139Z" fill="#B4EBDA"/>
<path d="M36.1015 54.1725C44.331 51.9978 49.3444 43.772 57.0064 40.7464C63.6279 38.099 71.2898 39.8009 77.7221 36.9644L76.0194 32.426C69.0196 35.7353 60.0333 33.3715 53.0335 37.1535C48.966 39.3282 45.6553 42.732 42.0608 45.5684C37.7096 48.8777 32.9799 50.2014 27.5882 50.1068C21.4397 50.0123 15.0074 48.4049 8.85889 47.8376L10.7507 52.7542C19.1695 53.6997 27.8719 56.3471 36.1015 54.1725Z" fill="#B4EBDA"/>
<path d="M6.77833 42.7318C12.8322 42.7318 19.0753 43.3937 24.9401 42.5427C28.9129 41.9754 32.602 40.5572 35.8182 38.1934C39.9802 35.2624 43.5748 31.4804 48.3044 29.7785C56.5339 27.0366 65.8985 30.1567 73.9389 26.942L72.1416 22.3091C63.7229 25.4292 53.9799 22.0254 45.6558 25.4292C41.3991 27.1311 37.9938 30.4404 34.3993 33.1823C29.9535 36.4916 25.0347 37.8152 19.5483 38.0043C14.6295 38.1934 9.80529 37.8152 4.98108 38.0043L6.77833 42.7318Z" fill="#B4EBDA"/>
<path d="M27 67.2935C27 63.8571 29.7858 61.0713 33.2222 61.0713H47.7778C51.2142 61.0713 54 63.8571 54 67.2935V67.2935C54 67.7231 53.6518 68.0713 53.2222 68.0713H27.7778C27.3482 68.0713 27 67.7231 27 67.2935V67.2935Z" stroke="#210049" stroke-width="2"/>
<path d="M25.5 46C25.5 43.2386 23.7091 41 21.5 41C19.2909 41 17 43.31 17 46.0714C17 48.8328 19 49.8214 21 51.0714C23 52.3214 25 53.31 25 56.0714C25 58.8328 23.2091 61.0714 21 61.0714" stroke="#210049" stroke-width="2" stroke-linecap="round"/>
<path d="M33 39.0713C33 37.8778 33.7902 36.2332 35.1967 35.3893C36.6032 34.5454 38.5109 34.0713 40.5 34.0713C42.4891 34.0713 44.3968 34.5454 45.8033 35.3893C47.2098 36.2332 48 37.8778 48 39.0713" stroke="#210049" stroke-width="2"/>
<rect x="40.8886" y="24.5334" width="5.85714" height="5.85714" rx="1" transform="rotate(45 40.8886 24.5334)" stroke="#210049" stroke-width="2"/>
<path d="M48.663 38.9804H36.0455C29.9452 38.9804 25 43.9256 25 50.0258C25 56.1261 29.9452 61.0713 36.0455 61.0713H41.7664C50.0193 61.0713 57.6933 56.8309 62.0854 49.8438L69.4374 38.1479C70.5512 36.376 69.2777 34.0713 67.1849 34.0713C66.915 34.0713 66.6468 34.1123 66.3893 34.193L53.4472 38.2484C51.8988 38.7336 50.2856 38.9804 48.663 38.9804Z" stroke="#210049" stroke-width="2"/>
<path d="M46 53.5C46 53.5 45 51.5 42 51.5C39 51.5 38 53.5 38 53.5" stroke="#210049" stroke-linecap="round"/>
<path d="M35 47.5C35.5523 47.5 36 47.0523 36 46.5C36 45.9477 35.5523 45.5 35 45.5C34.4477 45.5 34 45.9477 34 46.5C34 47.0523 34.4477 47.5 35 47.5Z" fill="#210049"/>
<path d="M49 47.5C49.5523 47.5 50 47.0523 50 46.5C50 45.9477 49.5523 45.5 49 45.5C48.4477 45.5 48 45.9477 48 46.5C48 47.0523 48.4477 47.5 49 47.5Z" fill="#210049"/>
</svg>
