<svg width="94" height="95" viewBox="0 0 94 95" fill="none" xmlns="http://www.w3.org/2000/svg">
<path fill-rule="evenodd" clip-rule="evenodd" d="M22.3416 88.507L0.593045 33.321C-1.12559 28.9632 1.01839 24.0392 5.38083 22.3231L60.6115 0.592554C64.9728 -1.12466 69.902 1.01754 71.6185 5.37637L93.3681 60.5613C95.0857 64.919 92.9417 69.8442 88.5803 71.5603L33.3486 93.2908C28.9873 95.0069 24.0591 92.8658 22.3416 88.507Z" fill="#FFE812"/>
<mask id="mask0" mask-type="alpha" maskUnits="userSpaceOnUse" x="0" y="1" width="94" height="94">
<path fill-rule="evenodd" clip-rule="evenodd" d="M0.000393659 1.07911H93.9604V94.9617H0V1.07911L93.9605 1.07874V94.9616H0.000393659V1.07911Z" fill="white"/>
</mask>
<g mask="url(#mask0)">
<path fill-rule="evenodd" clip-rule="evenodd" d="M22.3415 89.5857L0.592967 34.3997C-1.12459 30.042 1.01831 25.1179 5.38075 23.4018L60.6114 1.67129C64.9738 -0.0459237 69.9019 2.09628 71.6195 6.45511L93.368 61.64C95.0856 65.9978 92.9416 70.9229 88.5802 72.639L33.3496 94.3695C28.9872 96.0857 24.059 93.9445 22.3415 89.5857Z" fill="#FFE812"/>
</g>
<path fill-rule="evenodd" clip-rule="evenodd" d="M88.8379 50.2028C80.2469 52.0278 70.6735 49.3992 62.3988 52.7689C57.6985 54.6824 53.9082 58.3649 49.7865 61.4229C44.7968 65.1237 39.3149 66.6252 33.1615 66.8259C26.5277 67.0405 19.869 66.4451 13.4004 66.9564L15.4364 72.1231C23.2825 71.6345 31.432 72.8997 39.1961 71.7607C43.6395 71.1081 47.6846 69.5139 51.4155 66.9251C56.0241 63.7269 60.0389 59.3346 65.3416 57.5635C73.4631 54.8507 82.6036 57.2701 90.8804 55.3846L88.8379 50.2028Z" fill="#EFD40F"/>
<path fill-rule="evenodd" clip-rule="evenodd" d="M37.9887 58.7482C47.1173 56.2975 52.7914 47.1096 61.4483 43.7312C68.8863 40.8286 77.3964 42.6073 84.6434 39.559L82.6516 34.5045C74.7332 38.1266 64.7549 35.5432 56.9077 39.8125C52.4082 42.26 48.7042 46.1118 44.575 49.2345C39.7343 52.8955 34.4273 54.4444 28.358 54.3301C21.422 54.1985 14.3585 52.3777 7.40515 51.7456L9.57612 57.2532C19.1269 58.3125 28.8611 61.1989 37.9887 58.7482Z" fill="#EFD40F"/>
<path fill-rule="evenodd" clip-rule="evenodd" d="M5.14426 46.0078C11.9022 45.9538 18.8081 46.7337 25.4322 45.7629C29.8766 45.1103 33.9228 43.5161 37.6526 40.9284C42.2612 37.7291 46.276 33.3368 51.5788 31.5657C60.7419 28.5045 71.2027 31.9777 80.2547 28.4225L78.2349 23.2968C68.8903 26.7851 57.9416 22.9829 48.6359 26.7711C43.9356 28.6846 40.1442 32.3671 36.0236 35.4251C31.0328 39.126 25.552 40.6275 19.3986 40.8281C13.9382 41.005 8.46063 40.6372 3.08557 40.7839L5.14426 46.0078Z" fill="#EFD40F"/>
<path fill-rule="evenodd" clip-rule="evenodd" d="M49.4709 49.9573C49.4709 50.8505 50.1964 51.5753 51.0903 51.5753C51.9852 51.5753 52.7096 50.8505 52.7096 49.9573C52.7096 49.0631 51.9852 48.3394 51.0903 48.3394C50.1964 48.3394 49.4709 49.0631 49.4709 49.9573Z" fill="#37195B"/>
<path fill-rule="evenodd" clip-rule="evenodd" d="M61.4002 51.4195C61.8741 51.3515 62.2844 51.0527 62.497 50.6245L62.7334 50.1445L62.9699 50.6245C63.1825 51.0527 63.5928 51.3515 64.0667 51.4195L64.5957 51.496L64.2135 51.8693C63.8713 52.2036 63.7148 52.6847 63.7946 53.1561L63.8853 53.6846L63.4103 53.4365C63.1987 53.3244 62.9655 53.2683 62.7334 53.2683C62.5013 53.2683 62.2682 53.3244 62.0566 53.4365L61.5816 53.6846L61.6733 53.1561C61.7532 52.6847 61.5978 52.2036 61.2534 51.8693L60.8712 51.496L61.4002 51.4195ZM58.8773 49.7842C58.4703 49.8435 58.1324 50.1272 58.005 50.5188C57.8777 50.9082 57.9834 51.3364 58.2782 51.6233L59.7226 53.031L59.3815 55.0168C59.3124 55.4213 59.4797 55.8301 59.8111 56.0717C60.1447 56.3144 60.5852 56.3457 60.949 56.1537L62.7334 55.2163L64.5201 56.1537C64.6777 56.2367 64.8504 56.2777 65.0221 56.2777C65.2455 56.2777 65.469 56.2087 65.6569 56.0717C65.9883 55.8301 66.1556 55.4213 66.0865 55.0168L65.7454 53.031L67.1887 51.6233C67.4834 51.3364 67.5892 50.9082 67.4629 50.5177C67.3355 50.1272 66.9977 49.8435 66.5907 49.7842L64.5946 49.4941L63.7018 47.6873C63.338 46.9495 62.1289 46.9495 61.7651 47.6873L60.8734 49.4941L58.8773 49.7842Z" fill="#37195B"/>
<path fill-rule="evenodd" clip-rule="evenodd" d="M57.5681 35.395C58.4609 35.395 59.1874 36.121 59.1874 37.013C59.1874 37.9051 58.4609 38.631 57.5681 38.631C56.6753 38.631 55.9488 37.9051 55.9488 37.013C55.9488 36.121 56.6753 35.395 57.5681 35.395ZM57.5681 40.7883C59.6516 40.7883 61.3465 39.0948 61.3465 37.013C61.3465 34.9312 59.6516 33.2377 57.5681 33.2377C55.4846 33.2377 53.7897 34.9312 53.7897 37.013C53.7897 39.0948 55.4846 40.7883 57.5681 40.7883Z" fill="#37195B"/>
<path fill-rule="evenodd" clip-rule="evenodd" d="M56.488 42.9461C55.5941 42.9461 54.8687 43.6699 54.8687 44.5641C54.8687 45.4572 55.5941 46.1821 56.488 46.1821C57.3829 46.1821 58.1073 45.4572 58.1073 44.5641C58.1073 43.6699 57.3829 42.9461 56.488 42.9461Z" fill="#37195B"/>
<path fill-rule="evenodd" clip-rule="evenodd" d="M20.4229 89.1116C19.7913 89.7427 19.7913 90.7674 20.4229 91.3995C21.0555 92.0316 22.0811 92.0316 22.7137 91.3995C23.3463 90.7674 23.3463 89.7427 22.7137 89.1116C22.0811 88.4796 21.0555 88.4796 20.4229 89.1116Z" fill="#37195B"/>
<path fill-rule="evenodd" clip-rule="evenodd" d="M32.8271 83.9923C32.3197 84.1497 31.9224 84.5467 31.7648 85.0537L31.5899 85.6189L31.2466 85.1356C30.9443 84.7074 30.4521 84.4539 29.9296 84.4539H29.909L29.3153 84.4615L29.6694 83.988C29.9868 83.563 30.0753 83.0064 29.9036 82.5048L29.7136 81.9428L30.2772 82.1327C30.7792 82.302 31.334 82.2157 31.7594 81.8986L32.2355 81.5426L32.2268 82.1359C32.2204 82.6666 32.4751 83.166 32.9091 83.4734L33.3949 83.8164L32.8271 83.9923ZM35.7526 83.2394L34.1052 82.0755L34.1311 80.0595C34.1365 79.6496 33.9077 79.2721 33.5417 79.0855C33.1758 78.8978 32.7364 78.9366 32.406 79.1815L30.7889 80.3863L28.8781 79.7402C28.4894 79.6108 28.0587 79.7089 27.7683 79.9991C27.4779 80.2893 27.3775 80.7196 27.5103 81.108L28.158 83.0172L26.9511 84.6308C26.706 84.9598 26.6672 85.3999 26.8539 85.7666C27.0385 86.1269 27.4099 86.3545 27.8158 86.3545H27.8298L29.8475 86.3297L31.0123 87.9746C31.2164 88.2637 31.5467 88.4309 31.8932 88.4309C31.9494 88.4309 32.0055 88.4266 32.0627 88.418C32.4676 88.3533 32.8022 88.0642 32.9242 87.6726L33.5234 85.7483L35.4493 85.1497C35.8411 85.0278 36.1315 84.6934 36.1952 84.2878C36.26 83.8822 36.0884 83.4756 35.7526 83.2394Z" fill="#37195B"/>
<path fill-rule="evenodd" clip-rule="evenodd" d="M67.5154 72.7223H48.0858V71.6436V65.1717V64.0931H56.1824C57.0751 64.0931 57.8017 64.819 57.8017 65.7111C57.8017 67.7929 59.4966 69.4863 61.5801 69.4863H67.5154V72.7223ZM28.044 69.4863C19.344 69.4863 12.8829 65.025 11.582 58.1206C11.1308 55.7238 11.4417 53.2278 12.4575 51.0889C14.0099 47.8216 16.8901 45.4853 20.3598 44.6817C21.1133 44.5069 21.8766 44.4206 22.6312 44.4206C23.9946 44.4206 25.33 44.7022 26.5273 45.2587C29.2455 46.5197 31.1877 48.8852 31.8537 51.7512C32.2704 53.5417 32.0804 55.3916 31.3172 56.9589C30.5086 58.6211 29.2218 59.9014 27.5938 60.6651C27.3412 60.7849 27.1156 60.7061 27.0033 60.6489C26.7874 60.5389 26.6384 60.3405 26.5942 60.1053L26.4236 59.2111C26.3837 59.0051 26.483 58.8023 26.6644 58.7171C28.3042 57.9491 29.4658 56.4454 29.8501 54.5956C29.9332 54.1997 29.958 53.7844 29.9257 53.3637C29.7098 50.6488 28.0948 48.3491 25.6064 47.2122C24.1425 46.5423 22.412 46.401 20.7344 46.8098C17.336 47.6426 14.7386 50.2216 13.7854 53.71C13.523 54.6743 13.4475 55.6969 13.5608 56.7496C14.4018 64.5591 21.8884 67.329 28.044 67.329H45.9267V69.4863H28.044ZM68.595 67.329H61.5801C60.6873 67.329 59.9608 66.6031 59.9608 65.7111C59.9608 63.6293 58.2659 61.9358 56.1824 61.9358H47.0062C46.4103 61.9358 45.9267 62.4179 45.9267 63.0144V65.1717H28.044C22.5308 65.1717 16.3946 62.899 15.708 56.5188C15.6238 55.7454 15.68 54.9698 15.8689 54.2774C16.6127 51.557 18.6228 49.5485 21.2483 48.9057C22.4552 48.609 23.6837 48.704 24.7082 49.1732C26.4744 49.9811 27.6198 51.6109 27.773 53.5331C27.7892 53.7467 27.7774 53.9613 27.7363 54.1555C27.4913 55.3355 26.7658 56.2869 25.7478 56.7636C24.6737 57.2674 24.0788 58.4399 24.3023 59.6145L24.4729 60.5087C24.6434 61.404 25.208 62.1547 26.022 62.57C26.8144 62.9756 27.7212 62.9907 28.5115 62.6186C30.5907 61.6435 32.2327 60.0125 33.2593 57.9027C34.2374 55.891 34.4857 53.5331 33.9578 51.2614C33.1384 47.7461 30.7623 44.8435 27.4373 43.3021C25.1422 42.2374 22.4563 41.9807 19.8719 42.5805C15.7566 43.5329 12.3442 46.2986 10.5068 50.1645C9.29663 52.7112 8.92526 55.6785 9.45964 58.5186C10.9624 66.492 18.2569 71.6436 28.044 71.6436H45.9267V73.8009C45.9267 74.3974 46.4103 74.8796 47.0062 74.8796H68.595C69.1909 74.8796 69.6745 74.3974 69.6745 73.8009V68.4077C69.6745 67.8112 69.1909 67.329 68.595 67.329Z" fill="#37195B"/>
<path fill-rule="evenodd" clip-rule="evenodd" d="M15.8426 89.1117C15.2316 89.7233 14.164 89.7211 13.5529 89.1117C13.2474 88.8064 13.079 88.3998 13.079 87.9672C13.079 87.5347 13.2474 87.1291 13.5529 86.8239C13.8595 86.5186 14.2654 86.3493 14.6983 86.3493C15.1301 86.3493 15.5371 86.5186 15.8426 86.8239H15.8437C16.1492 87.1291 16.3176 87.5358 16.3176 87.9672C16.3176 88.3998 16.1492 88.8064 15.8426 89.1117ZM17.3702 85.2986H17.3691C15.942 83.8716 13.4525 83.8727 12.0265 85.2986C11.3129 86.0106 10.9199 86.9587 10.9199 87.9672C10.9199 88.9758 11.3129 89.9239 12.0265 90.6369C12.74 91.3499 13.689 91.7425 14.6983 91.7425C15.7077 91.7425 16.6566 91.3499 17.3702 90.6369C18.0838 89.9239 18.4767 88.9758 18.4767 87.9672C18.4767 86.9587 18.0838 86.0116 17.3702 85.2986Z" fill="#37195B"/>
<path fill-rule="evenodd" clip-rule="evenodd" d="M47.8521 41.8669C48.7449 41.8669 49.4715 42.5928 49.4715 43.4849C49.4715 44.3769 48.7449 45.1029 47.8521 45.1029C46.9594 45.1029 46.2328 44.3769 46.2328 43.4849C46.2328 42.5928 46.9594 41.8669 47.8521 41.8669ZM47.8521 47.2602C49.9357 47.2602 51.6305 45.5667 51.6305 43.4849C51.6305 41.4031 49.9357 39.7096 47.8521 39.7096C45.7686 39.7096 44.0737 41.4031 44.0737 43.4849C44.0737 45.5667 45.7686 47.2602 47.8521 47.2602Z" fill="#37195B"/>
<path fill-rule="evenodd" clip-rule="evenodd" d="M20.4229 81.4842C19.7913 82.1163 19.7913 83.141 20.4229 83.7731C21.0555 84.4041 22.0811 84.4041 22.7137 83.7731C23.3463 83.141 23.3463 82.1163 22.7137 81.4842C22.0811 80.8521 21.0555 80.8521 20.4229 81.4842Z" fill="#37195B"/>
</svg>
