<svg width="48" height="48" viewBox="0 0 48 48" fill="none" xmlns="http://www.w3.org/2000/svg">
<path fill-rule="evenodd" clip-rule="evenodd" d="M21.6218 45.0152L2.98481 26.3782C1.67173 25.0651 1.67173 22.9357 2.98481 21.6227L21.6218 2.98481C22.9349 1.67173 25.0643 1.67173 26.3773 2.98481L45.0152 21.6227C46.3283 22.9357 46.3283 25.0651 45.0152 26.3782L26.3773 45.0152C25.0643 46.3283 22.9349 46.3283 21.6218 45.0152Z" fill="#D2FFE9"/>
<path d="M27.75 21.75V17.2969C27.75 16.3023 27.3549 15.3485 26.6517 14.6452C25.9484 13.942 24.9946 13.5469 24 13.5469C23.0054 13.5469 22.0516 13.942 21.3483 14.6452C20.6451 15.3485 20.25 16.3023 20.25 17.2969V21.75" stroke="#210049" stroke-width="1.5" stroke-linecap="round" stroke-linejoin="round"/>
<path d="M29.25 21.75H18.75C17.5074 21.75 16.5 22.7574 16.5 24V32.25C16.5 33.4926 17.5074 34.5 18.75 34.5H29.25C30.4926 34.5 31.5 33.4926 31.5 32.25V24C31.5 22.7574 30.4926 21.75 29.25 21.75Z" stroke="#210049" stroke-width="1.5" stroke-linecap="round" stroke-linejoin="round"/>
</svg>
