<svg width="88" height="89" viewBox="0 0 88 89" fill="none" xmlns="http://www.w3.org/2000/svg">
<path d="M22.0073 81.5919L2.52126 32.3315C1.00778 28.4549 2.89963 24.0111 6.77791 22.4983L56.1551 3.02102C60.0334 1.50823 64.4792 3.39922 65.9927 7.27576L85.4787 56.7253C86.9922 60.6019 85.1004 65.0457 81.2221 66.5585L31.8449 85.9412C27.872 87.5485 23.5208 85.563 22.0073 81.5919Z" fill="#D5F4F7"/>
<path d="M81.5059 46.5139C73.8439 48.1213 65.3306 45.8521 57.8578 48.7831C53.6011 50.485 50.1958 53.7943 46.6013 56.5362C42.1554 59.8454 37.2366 61.1691 31.7503 61.3582C25.8856 61.5473 19.8317 61.0746 14.0615 61.5473L15.8588 66.1803C22.9532 65.7075 30.1422 66.8421 37.1421 65.8966C41.1149 65.3293 44.804 63.9111 48.0202 61.5473C52.1822 58.6163 55.7767 54.8343 60.5064 53.1324C67.79 50.6741 75.9249 52.8488 83.3977 51.2414L81.5059 46.5139Z" fill="#ACEAEF"/>
<path d="M36.1015 54.1725C44.331 51.9978 49.3444 43.772 57.0064 40.7464C63.6279 38.099 71.2898 39.8009 77.7221 36.9644L76.0194 32.426C69.0196 35.7353 60.0333 33.3715 53.0335 37.1535C48.966 39.3282 45.6553 42.732 42.0608 45.5684C37.7096 48.8777 32.9799 50.2014 27.5882 50.1068C21.4397 50.0123 15.0074 48.4049 8.85889 47.8376L10.7507 52.7542C19.1695 53.6997 27.8719 56.3471 36.1015 54.1725Z" fill="#ACEAEF"/>
<path d="M6.77821 42.7318C12.8321 42.7318 19.0752 43.3937 24.9399 42.5427C28.9128 41.9754 32.6019 40.5572 35.8181 38.1934C39.9801 35.2624 43.5746 31.4804 48.3042 29.7785C56.5338 27.0366 65.8984 30.1567 73.9388 26.942L72.1415 22.3091C63.7228 25.4292 53.9798 22.0254 45.6557 25.4292C41.399 27.1311 37.9937 30.4404 34.3992 33.1823C29.9533 36.4916 25.0345 37.8152 19.5482 38.0043C14.6294 38.1934 9.80517 37.8152 4.98096 38.0043L6.77821 42.7318Z" fill="#ACEAEF"/>
<circle cx="44" cy="44.5" r="29" stroke="#210049" stroke-width="2"/>
<path d="M35.5 72L35.8703 66.0745C35.9516 64.7741 35.3944 63.5155 34.3769 62.7015L30.0012 59.201C29.0524 58.4419 28.5 57.2926 28.5 56.0775V51.614C28.5 50.2913 27.8462 49.0542 26.7533 48.3091L18.8225 42.9017C17.9735 42.3229 17.3799 41.4396 17.1646 40.4349L16 35M42 73L46.189 69.5726C47.0188 68.8937 47.5 67.8782 47.5 66.8062V66.8062C47.5 65.6704 48.0397 64.6023 48.9541 63.9286L55.2836 59.2647C56.3221 58.4995 56.7958 57.183 56.4829 55.9316V55.9316C56.1875 54.75 55.2435 53.8407 54.0517 53.5898L47.3497 52.1789C46.7898 52.061 46.2616 51.8243 45.8009 51.4849L39.0689 46.5244C37.8085 45.5957 36.1158 45.4912 34.7472 46.2516V46.2516C33.3815 47.0103 31.6927 46.908 30.4328 45.9841L26.0603 42.7775C25.3716 42.2725 24.8626 41.5602 24.6078 40.745L22.8116 34.997C22.62 34.3841 22.7845 33.7155 23.2386 33.2614V33.2614C24.0909 32.4091 25.532 32.6705 26.0308 33.7677L26.9873 35.8721C27.2561 36.4633 27.9905 36.673 28.5309 36.3128V36.3128C28.824 36.1174 29 35.7884 29 35.4362V33.0292C29 31.3562 30.3562 30 32.0292 30V30C32.6606 30 33.2762 29.8027 33.7899 29.4358L39.013 25.705C39.5814 25.299 39.7699 24.5399 39.4576 23.9151V23.9151C39.1843 23.3686 39.2914 22.7086 39.7235 22.2765L46.5 15.5M54 16.5L51.86 20.78C51.6285 21.2431 51.5789 21.7762 51.7211 22.274V22.274C52.1063 23.6221 53.6923 24.2051 54.8589 23.4274L60 20M66.5 25L58.6155 27.4898C57.5829 27.8159 56.7266 28.5467 56.2423 29.5153L54.982 32.036C54.3704 33.2593 54.4243 34.71 55.1456 35.8719C56.2416 37.6375 57.5285 39.6573 58.5018 41.1749C59.4009 42.5768 61.0767 43.2627 62.7093 42.9334C62.8027 42.9146 62.8973 42.8955 62.9931 42.8764C65.5328 42.3683 67.7184 44.4779 67.426 47.0513L65.5 64" stroke="#210049"/>
<path d="M38.732 57.5571C38.4874 57.429 38.1852 57.5234 38.0571 57.768L35.9689 61.7541C35.8408 61.9987 35.9352 62.3009 36.1798 62.4291C36.4244 62.5572 36.7266 62.4628 36.8547 62.2182L38.7109 58.6749L42.2541 60.5311C42.4987 60.6592 42.8009 60.5648 42.9291 60.3202C43.0572 60.0756 42.9628 59.7734 42.7182 59.6453L38.732 57.5571ZM55.8066 75.5389C53.375 76.5586 51.1486 76.0424 49.1211 74.6344C47.0728 73.212 45.2571 70.8937 43.74 68.392C42.2277 65.8979 41.036 63.2618 40.2214 61.2445C39.8146 60.237 39.5029 59.3864 39.2931 58.7885C39.1882 58.4896 39.1089 58.254 39.056 58.0937C39.0295 58.0136 39.0096 57.9523 38.9965 57.9113C38.9899 57.8908 38.985 57.8754 38.9818 57.8653C38.9802 57.8602 38.979 57.8565 38.9782 57.8541C38.9779 57.8529 38.9776 57.852 38.9774 57.8515C38.9773 57.8512 38.9773 57.851 38.9773 57.8509C38.9772 57.8509 38.9772 57.8509 38.5 58C38.0228 58.1491 38.0228 58.1493 38.0229 58.1496C38.023 58.1498 38.0231 58.1502 38.0232 58.1506C38.0235 58.1514 38.0238 58.1526 38.0243 58.1541C38.0253 58.1571 38.0266 58.1615 38.0284 58.1672C38.032 58.1785 38.0373 58.1952 38.0443 58.217C38.0583 58.2605 38.079 58.3244 38.1064 58.4073C38.1611 58.573 38.2424 58.8145 38.3495 59.1196C38.5635 59.7297 38.8807 60.5949 39.2942 61.6189C40.1202 63.6646 41.3348 66.3541 42.885 68.9105C44.4304 71.4591 46.3335 73.916 48.5507 75.4558C50.7889 77.0101 53.375 77.643 56.1934 76.4611L55.8066 75.5389ZM56.1934 76.4611C61.5226 74.2262 63.6589 71.6422 64.409 69.5151C64.7819 68.4576 64.801 67.5421 64.7231 66.8845C64.6842 66.5563 64.6212 66.2926 64.5663 66.1072C64.5389 66.0144 64.5134 65.941 64.4938 65.8886C64.484 65.8625 64.4757 65.8415 64.4693 65.826C64.4661 65.8183 64.4634 65.8119 64.4613 65.8069C64.4602 65.8044 64.4592 65.8022 64.4585 65.8004C64.4581 65.7995 64.4577 65.7987 64.4574 65.798C64.4572 65.7976 64.457 65.7972 64.4569 65.797C64.4567 65.7965 64.4565 65.7961 64 66C63.5435 66.2039 63.5433 66.2035 63.5431 66.2032C63.5431 66.2031 63.5429 66.2027 63.5428 66.2025C63.5427 66.2021 63.5425 66.2018 63.5424 66.2016C63.5423 66.2012 63.5422 66.201 63.5423 66.2012C63.5425 66.2017 63.5432 66.2034 63.5444 66.2063C63.5469 66.2123 63.5513 66.2233 63.5572 66.2392C63.5691 66.271 63.5871 66.3222 63.6075 66.391C63.6483 66.5289 63.6986 66.7368 63.73 67.0021C63.7928 67.5315 63.7806 68.2903 63.466 69.1825C62.8411 70.9545 60.9774 73.3705 55.8066 75.5389L56.1934 76.4611Z" fill="#210049"/>
<path d="M22.4178 24.4932C22.6902 24.5386 22.9478 24.3546 22.9932 24.0822C23.0386 23.8098 22.8546 23.5522 22.5822 23.5068L22.4178 24.4932ZM26.8904 53.3123C27.0629 53.0967 27.028 52.7821 26.8123 52.6096L23.2984 49.7984C23.0828 49.6259 22.7682 49.6609 22.5957 49.8765C22.4232 50.0922 22.4581 50.4068 22.6737 50.5793L25.7972 53.0781L23.2984 56.2016C23.1259 56.4172 23.1609 56.7318 23.3765 56.9043C23.5922 57.0768 23.9068 57.0419 24.0793 56.8263L26.8904 53.3123ZM22.5 24C22.5822 23.5068 22.5819 23.5067 22.5815 23.5067C22.5813 23.5066 22.5808 23.5066 22.5804 23.5065C22.5796 23.5064 22.5786 23.5062 22.5774 23.506C22.5751 23.5056 22.572 23.5052 22.5682 23.5046C22.5607 23.5034 22.5502 23.5018 22.537 23.4999C22.5105 23.4961 22.4729 23.491 22.4249 23.4852C22.3287 23.4736 22.1907 23.4593 22.0164 23.4474C21.6681 23.4237 21.1736 23.4096 20.5787 23.4463C19.3906 23.5195 17.7895 23.7962 16.1514 24.6153C12.8349 26.2735 9.50939 30.0802 9.00093 38.4697L9.9991 38.5302C10.4906 30.4198 13.6651 26.9764 16.5986 25.5097C18.0855 24.7663 19.547 24.5118 20.6402 24.4444C21.1859 24.4107 21.6367 24.4239 21.9485 24.4451C22.1043 24.4557 22.2251 24.4683 22.3052 24.478C22.3453 24.4828 22.3752 24.4869 22.3942 24.4896C22.4037 24.491 22.4105 24.4921 22.4144 24.4927C22.4164 24.493 22.4177 24.4932 22.4183 24.4933C22.4186 24.4933 22.4187 24.4933 22.4186 24.4933C22.4186 24.4933 22.4184 24.4933 22.4184 24.4933C22.4181 24.4932 22.4178 24.4932 22.5 24ZM9.00093 38.4697C8.74522 42.689 9.70319 45.7776 11.3296 48.0201C12.9521 50.2571 15.2046 51.604 17.4568 52.4084C19.7075 53.2122 21.9801 53.4827 23.6821 53.5542C24.5349 53.5901 25.249 53.5762 25.7514 53.5532C26.0027 53.5417 26.2014 53.5279 26.3383 53.5168C26.4068 53.5113 26.4599 53.5064 26.4964 53.5029C26.5146 53.5012 26.5288 53.4997 26.5386 53.4987C26.5435 53.4982 26.5474 53.4978 26.5502 53.4975C26.5516 53.4973 26.5527 53.4972 26.5535 53.4971C26.5539 53.4971 26.5544 53.497 26.5546 53.497C26.5549 53.497 26.5552 53.4969 26.5 53C26.4448 52.5031 26.4449 52.503 26.445 52.503C26.445 52.503 26.445 52.503 26.4448 52.5031C26.4446 52.5031 26.4441 52.5031 26.4433 52.5032C26.4417 52.5034 26.439 52.5037 26.4353 52.5041C26.4279 52.5048 26.4162 52.506 26.4004 52.5075C26.3689 52.5106 26.321 52.515 26.2579 52.5201C26.1316 52.5302 25.9445 52.5433 25.7056 52.5542C25.2276 52.5761 24.5432 52.5896 23.7241 52.5551C22.0824 52.4861 19.9175 52.2253 17.7932 51.4666C15.6704 50.7085 13.6105 49.4616 12.1391 47.433C10.6718 45.4099 9.75481 42.561 9.9991 38.5302L9.00093 38.4697Z" fill="#210049"/>
<path d="M34.2999 48.64H33.7599V49.32C32.6899 49.39 31.6699 50.11 31.6699 51.3C31.6699 52.58 32.5899 53.04 33.7599 53.36V55.58C33.2499 55.57 32.6499 55.26 32.2899 54.84L31.4099 55.68C32.0399 56.29 32.8799 56.58 33.7599 56.61V57.33H34.2999V56.61C35.4099 56.58 36.4299 55.87 36.4299 54.48C36.4299 53.13 35.3199 52.66 34.2999 52.34V50.32C34.7599 50.32 35.2599 50.51 35.5699 50.85L36.3799 50.01C35.8399 49.54 35.0299 49.31 34.2999 49.3V48.64ZM33.7599 52.2C33.2499 52.05 32.8699 51.79 32.8699 51.24C32.8699 50.66 33.2899 50.37 33.7599 50.32V52.2ZM34.2999 53.52C34.8299 53.7 35.2299 53.96 35.2299 54.55C35.2299 55.14 34.8599 55.55 34.2999 55.58V53.52Z" fill="#210049"/>
<path d="M72.7382 39.8662C72.5811 40.0933 72.6379 40.4048 72.865 40.5619C73.0921 40.7189 73.4035 40.6622 73.5606 40.4351L72.7382 39.8662ZM34.7038 42.8775C34.829 43.1236 35.13 43.2217 35.3762 43.0965L39.3872 41.0565C39.6333 40.9313 39.7314 40.6303 39.6062 40.3841C39.481 40.138 39.18 40.04 38.9339 40.1651L35.3685 41.9785L33.5552 38.4131C33.43 38.167 33.129 38.0689 32.8828 38.1941C32.6367 38.3193 32.5387 38.6203 32.6638 38.8664L34.7038 42.8775ZM73.1494 40.1506C73.5606 40.4351 73.5608 40.4348 73.561 40.4345C73.5612 40.4343 73.5614 40.4339 73.5617 40.4335C73.5622 40.4327 73.5629 40.4317 73.5638 40.4304C73.5655 40.4279 73.5679 40.4244 73.571 40.42C73.577 40.411 73.5857 40.3982 73.5968 40.3816C73.6189 40.3484 73.6507 40.3001 73.6909 40.2374C73.7714 40.1119 73.8856 39.9287 74.0234 39.6935C74.299 39.2232 74.6699 38.5437 75.0549 37.701C75.8235 36.0188 76.6563 33.6696 76.891 31.0252C77.1261 28.376 76.7612 25.4218 75.1231 22.5554C73.485 19.6891 70.5984 16.9536 65.8644 14.6993L65.4345 15.6022C70.0251 17.7882 72.7383 20.3979 74.2549 23.0516C75.7714 25.7053 76.1159 28.446 75.8949 30.9367C75.6734 33.4322 74.8844 35.6679 74.1453 37.2855C73.7765 38.0927 73.422 38.742 73.1607 39.1879C73.0301 39.4107 72.9229 39.5825 72.8492 39.6975C72.8123 39.755 72.7838 39.7983 72.7649 39.8267C72.7554 39.8408 72.7484 39.8513 72.7439 39.8579C72.7416 39.8612 72.74 39.8636 72.739 39.865C72.7386 39.8657 72.7383 39.8661 72.7381 39.8663C72.738 39.8664 72.7381 39.8664 72.738 39.8664C72.7381 39.8664 72.7382 39.8662 73.1494 40.1506ZM65.8644 14.6993C61.0345 12.3993 56.6228 13.035 52.7656 15.2684C48.935 17.4864 45.6539 21.2749 42.9892 25.2942C40.3198 29.3208 38.2421 33.6204 36.833 36.9081C36.1279 38.5532 35.589 39.9477 35.226 40.9319C35.0445 41.4241 34.907 41.8138 34.8146 42.0811C34.7684 42.2147 34.7335 42.3178 34.71 42.3877C34.6983 42.4227 34.6894 42.4494 34.6834 42.4676C34.6804 42.4767 34.6781 42.4836 34.6766 42.4883C34.6758 42.4907 34.6752 42.4925 34.6748 42.4938C34.6746 42.4944 34.6744 42.495 34.6743 42.4953C34.6742 42.4957 34.6741 42.4959 35.1495 42.6508C35.6249 42.8057 35.6249 42.8056 35.625 42.8055C35.625 42.8053 35.6251 42.805 35.6253 42.8045C35.6256 42.8036 35.6261 42.8021 35.6268 42.8C35.6281 42.796 35.6301 42.7897 35.6329 42.7813C35.6385 42.7646 35.6469 42.7392 35.6581 42.7057C35.6806 42.6385 35.7146 42.5384 35.7597 42.4077C35.85 42.1464 35.9853 41.7632 36.1642 41.2779C36.5222 40.3072 37.0548 38.9289 37.7521 37.302C39.1478 34.0458 41.1983 29.8053 43.8227 25.8468C46.4519 21.881 49.6301 18.2394 53.2667 16.1338C56.8766 14.0435 60.9397 13.4618 65.4345 15.6022L65.8644 14.6993Z" fill="#210049"/>
</svg>
