<svg width="32" height="32" viewBox="0 0 32 32" fill="none" xmlns="http://www.w3.org/2000/svg">
<path d="M25 19L28 22L25 25" stroke="#4376FF" stroke-width="1.5" stroke-linecap="round" stroke-linejoin="round"/>
<path d="M25 7L28 10L25 13" stroke="#4376FF" stroke-width="1.5" stroke-linecap="round" stroke-linejoin="round"/>
<path d="M4 22H9.32438C10.1474 22 10.9578 21.7968 11.6835 21.4084C12.4092 21.0201 13.0278 20.4586 13.4844 19.7738L16 16" stroke="#4376FF" stroke-width="1.5" stroke-linecap="round" stroke-linejoin="round"/>
<path d="M4 10H9.32438C10.1474 10 10.9578 10.2032 11.6835 10.5916C12.4092 10.9799 13.0278 11.5414 13.4844 12.2262L18.5156 19.7738C18.9722 20.4586 19.5908 21.0201 20.3165 21.4084C21.0422 21.7968 21.8526 22 22.6756 22H26" stroke="#4376FF" stroke-width="1.5" stroke-linecap="round" stroke-linejoin="round"/>
<path d="M26 10H22.6756C21.8526 10 21.0422 10.2032 20.3165 10.5916C19.5908 10.9799 18.9722 11.5414 18.5156 12.2262L18 13" stroke="#4376FF" stroke-width="1.5" stroke-linecap="round" stroke-linejoin="round"/>
</svg>
