<svg width="84" height="84" viewBox="0 0 84 84" fill="none" xmlns="http://www.w3.org/2000/svg">
<path d="M20.0073 79.0919L0.521257 29.8315C-0.99222 25.9549 0.899626 21.5111 4.77791 19.9983L54.1551 0.521023C58.0334 -0.991774 62.4792 0.899222 63.9927 4.77576L83.4787 54.2253C84.9922 58.1019 83.1004 62.5457 79.2221 64.0585L29.8449 83.4412C25.872 85.0485 21.5208 83.063 20.0073 79.0919Z" fill="#FFF69F"/>
<path d="M79.5059 44.0139C71.8439 45.6213 63.3306 43.3521 55.8578 46.2831C51.6011 47.985 48.1958 51.2943 44.6013 54.0362C40.1554 57.3454 35.2366 58.6691 29.7503 58.8582C23.8856 59.0473 17.8317 58.5746 12.0615 59.0473L13.8588 63.6803C20.9532 63.2075 28.1422 64.3421 35.1421 63.3966C39.1149 62.8293 42.804 61.4111 46.0202 59.0473C50.1822 56.1163 53.7767 52.3343 58.5064 50.6324C65.79 48.1741 73.9249 50.3488 81.3977 48.7414L79.5059 44.0139Z" fill="#FFEF57"/>
<path d="M34.1015 51.6725C42.331 49.4978 47.3444 41.272 55.0064 38.2464C61.6279 35.599 69.2898 37.3009 75.7221 34.4644L74.0194 29.926C67.0196 33.2353 58.0333 30.8715 51.0335 34.6535C46.966 36.8282 43.6553 40.232 40.0608 43.0684C35.7096 46.3777 30.9799 47.7014 25.5882 47.6068C19.4397 47.5123 13.0074 45.9049 6.85889 45.3376L8.75073 50.2542C17.1695 51.1997 25.8719 53.8471 34.1015 51.6725Z" fill="#FFEF57"/>
<path d="M4.77821 40.2318C10.8321 40.2318 17.0752 40.8937 22.9399 40.0427C26.9128 39.4754 30.6019 38.0572 33.8181 35.6934C37.9801 32.7624 41.5746 28.9804 46.3042 27.2785C54.5338 24.5366 63.8984 27.6567 71.9388 24.442L70.1415 19.8091C61.7228 22.9292 51.9798 19.5254 43.6557 22.9292C39.399 24.6311 35.9937 27.9404 32.3992 30.6823C27.9533 33.9916 23.0345 35.3152 17.5482 35.5043C12.6294 35.6934 7.80517 35.3152 2.98096 35.5043L4.77821 40.2318Z" fill="#FFEF57"/>
<circle cx="39" cy="44" r="29" stroke="#210049" stroke-width="2"/>
<circle cx="39" cy="44" r="23.5" stroke="#210049" stroke-linecap="round" stroke-linejoin="bevel" stroke-dasharray="8 4"/>
<path d="M49 55C49 55 46.5 50 39 50C31.5 50 29 55 29 55" stroke="#210049" stroke-width="2" stroke-linecap="round"/>
<circle cx="33" cy="42" r="2" fill="#210049"/>
<circle cx="45" cy="42" r="2" fill="#210049"/>
</svg>
