<svg width="49" height="46" viewBox="0 0 49 46" fill="none" xmlns="http://www.w3.org/2000/svg">
<g id="Group Copy + +">
<g id="Group Copy">
<path id="Imported Layers" fill-rule="evenodd" clip-rule="evenodd" d="M0.823562 3.13192V28.0343C0.823562 28.1927 0.813833 28.351 0.792213 28.5083C0.705735 29.1561 0.580342 31.4009 2.61906 33.0653C4.71939 34.7807 13.7596 40.3122 18.7699 43.31C18.824 43.3421 18.8791 43.3764 18.9342 43.413C19.2001 43.5913 21.6464 45.1649 24.5683 45.166C26.3162 45.166 27.915 44.6012 29.3191 43.4883C29.3937 43.4285 29.4759 43.3687 29.5591 43.3133L44.8971 33.0664C44.9576 33.0265 45.0149 32.9911 45.0733 32.9557C45.3954 32.7685 48.2027 31.0288 48.3378 27.5659L48.3367 3.13192C48.3367 2.07324 47.4676 1.21167 46.3996 1.21167H2.75959C1.69158 1.21167 0.823562 2.07324 0.823562 3.13192Z" stroke="#979797" stroke-linecap="round" stroke-linejoin="round" stroke-dasharray="3.96 3.96"/>
</g>
<path id="+" fill-rule="evenodd" clip-rule="evenodd" d="M25.9354 15H24.0646V20.0646H19V21.9354H24.0646V27H25.9354V21.9354H31V20.0646H25.9354V15Z" fill="#9B9B9B"/>
</g>
</svg>
