<svg width="88" height="88" viewBox="0 0 88 88" fill="none" xmlns="http://www.w3.org/2000/svg">
<path d="M22.0073 81.0919L2.52126 31.8315C1.00778 27.9549 2.89963 23.5111 6.77791 21.9983L56.1551 2.52102C60.0334 1.00823 64.4792 2.89922 65.9927 6.77576L85.4787 56.2253C86.9922 60.1019 85.1004 64.5457 81.2221 66.0585L31.8449 85.4412C27.872 87.0485 23.5208 85.063 22.0073 81.0919Z" fill="#E4D2FF"/>
<path d="M81.5057 46.0139C73.8438 47.6213 65.3304 45.3521 57.8577 48.2831C53.601 49.985 50.1957 53.2943 46.6012 56.0362C42.1553 59.3454 37.2365 60.6691 31.7502 60.8582C25.8854 61.0473 19.8315 60.5746 14.0614 61.0473L15.8587 65.6803C22.9531 65.2075 30.1421 66.3421 37.1419 65.3966C41.1148 64.8293 44.8039 63.4111 48.0201 61.0473C52.1821 58.1163 55.7766 54.3343 60.5062 52.6324C67.7899 50.1741 75.9248 52.3488 83.3976 50.7414L81.5057 46.0139Z" fill="#C7B1EB"/>
<path d="M36.1015 53.6725C44.331 51.4978 49.3444 43.272 57.0064 40.2464C63.6279 37.599 71.2898 39.3009 77.7221 36.4644L76.0194 31.926C69.0196 35.2353 60.0333 32.8715 53.0335 36.6535C48.966 38.8282 45.6553 42.232 42.0608 45.0684C37.7096 48.3777 32.9799 49.7014 27.5882 49.6068C21.4397 49.5123 15.0074 47.9049 8.85889 47.3376L10.7507 52.2542C19.1695 53.1997 27.8719 55.8471 36.1015 53.6725Z" fill="#C7B1EB"/>
<path d="M6.77833 42.2318C12.8322 42.2318 19.0753 42.8937 24.9401 42.0427C28.9129 41.4754 32.602 40.0572 35.8182 37.6934C39.9802 34.7624 43.5748 30.9804 48.3044 29.2785C56.5339 26.5366 65.8985 29.6567 73.9389 26.442L72.1416 21.8091C63.7229 24.9292 53.9799 21.5254 45.6558 24.9292C41.3991 26.6311 37.9938 29.9404 34.3993 32.6823C29.9535 35.9916 25.0347 37.3152 19.5483 37.5043C14.6295 37.6934 9.80529 37.3152 4.98108 37.5043L6.77833 42.2318Z" fill="#C7B1EB"/>
<path d="M23 25C23 20.5817 26.5817 17 31 17H57C61.4183 17 65 20.5817 65 25V71H31C26.5817 71 23 67.4183 23 63V25Z" stroke="#210049" stroke-width="2" stroke-linejoin="round"/>
<path d="M65 44C63.6787 45.3213 59.4478 45.4787 55.1265 45.2412C49.6455 44.9399 44.8755 49.6515 45.1872 55.1319C45.4948 60.5389 45.4115 66.7656 44 71" stroke="#210049" stroke-width="2" stroke-linejoin="round"/>
<path d="M65 47C63.8876 48.1536 60.369 48.3091 56.7343 48.1142C51.9375 47.8569 47.7385 51.9488 48.0093 56.7448C48.2826 61.5855 48.2225 67.1968 47 71" stroke="#210049" stroke-linejoin="round"/>
<path d="M31 24L34 27M36 29L39 32M34 29L31 32M39 24L36 27" stroke="#210049" stroke-linecap="round"/>
<path d="M31 40L34 43M36 45L39 48M34 45L31 48M39 40L36 43" stroke="#210049" stroke-linecap="round"/>
<path d="M31 56L34 59M36 61L39 64M34 61L31 64M39 56L36 59" stroke="#210049" stroke-linecap="round"/>
<path d="M49 24L52 27M54 29L57 32M52 29L49 32M57 24L54 27" stroke="#210049" stroke-linecap="round"/>
<path d="M49 40L52 43M57 40L54 43" stroke="#210049" stroke-linecap="round"/>
<path d="M62 52.5V65.3414C60.6445 65.8205 59.5125 66.7729 58.8027 68H50.5" stroke="#210049" stroke-linecap="round"/>
<path fill-rule="evenodd" clip-rule="evenodd" d="M56.0417 62.1317C56.3677 62.3389 56.7476 62.4806 57.11 62.5921V65.4621C56.69 65.4521 55.93 65.1821 55.57 64.5821L55 64.9821C55.48 65.5921 56.21 66.0221 57.11 66.0421V66.7621H57.59V66.0421C58.74 66.0221 59.62 65.2621 59.62 64.1521C59.62 62.8521 58.6 62.3821 57.59 62.0321V60.0226C57.4668 60.1964 57.3428 60.3697 57.2182 60.5425C57.1822 60.5924 57.1461 60.6423 57.11 60.6921V61.8621C56.8589 61.7942 56.6354 61.7056 56.4497 61.59C56.3143 61.7715 56.1783 61.9521 56.0417 62.1317ZM58.0566 59.3578C58.3785 59.4571 58.6801 59.6542 58.89 59.9521L59.44 59.5321C59.1717 59.2161 58.7933 58.9961 58.3957 58.8657C58.2834 59.0299 58.1704 59.194 58.0566 59.3578ZM58.9 64.1021C58.9 63.4221 58.35 62.9521 57.59 62.7121V65.4621C58.18 65.4421 58.9 65.0921 58.9 64.1021Z" fill="#210049"/>
<path d="M44 71C50 73 66.5 48 65 44" stroke="#210049" stroke-linecap="round"/>
</svg>
