<svg width="88" height="88" viewBox="0 0 88 88" fill="none" xmlns="http://www.w3.org/2000/svg">
<path d="M22.0073 81.0919L2.52126 31.8315C1.00778 27.9549 2.89963 23.5111 6.77791 21.9983L56.1551 2.52102C60.0334 1.00823 64.4792 2.89922 65.9927 6.77576L85.4787 56.2253C86.9922 60.1019 85.1004 64.5457 81.2221 66.0585L31.8449 85.4412C27.872 87.0485 23.5208 85.063 22.0073 81.0919Z" fill="#FFDADB"/>
<path d="M81.5057 46.0137C73.8438 47.621 65.3304 45.3518 57.8577 48.2829C53.601 49.9848 50.1957 53.294 46.6012 56.036C42.1553 59.3452 37.2365 60.6689 31.7502 60.858C25.8854 61.0471 19.8315 60.5743 14.0614 61.0471L15.8587 65.68C22.9531 65.2073 30.1421 66.3419 37.1419 65.3964C41.1148 64.8291 44.8039 63.4108 48.0201 61.0471C52.1821 58.116 55.7766 54.3341 60.5062 52.6322C67.7899 50.1739 75.9248 52.3485 83.3976 50.7412L81.5057 46.0137Z" fill="#FFB3B6"/>
<path d="M36.1015 53.6722C44.331 51.4976 49.3444 43.2718 57.0064 40.2462C63.6279 37.5988 71.2898 39.3007 77.7221 36.4642L76.0194 31.9258C69.0196 35.235 60.0333 32.8713 53.0335 36.6533C48.966 38.8279 45.6553 42.2317 42.0608 45.0682C37.7096 48.3774 32.9799 49.7011 27.5882 49.6066C21.4397 49.512 15.0074 47.9047 8.85889 47.3374L10.7507 52.254C19.1695 53.1995 27.8719 55.8469 36.1015 53.6722Z" fill="#FFB3B6"/>
<path d="M6.77833 42.2318C12.8322 42.2318 19.0753 42.8937 24.9401 42.0427C28.9129 41.4754 32.602 40.0572 35.8182 37.6934C39.9802 34.7624 43.5748 30.9804 48.3044 29.2785C56.5339 26.5366 65.8985 29.6567 73.9389 26.442L72.1416 21.8091C63.7229 24.9292 53.9799 21.5254 45.6558 24.9292C41.3991 26.6311 37.9938 29.9404 34.3993 32.6823C29.9535 35.9916 25.0347 37.3152 19.5483 37.5043C14.6295 37.6934 9.80529 37.3152 4.98108 37.5043L6.77833 42.2318Z" fill="#FFB3B6"/>
<circle cx="44" cy="44" r="29" stroke="#210049" stroke-width="2"/>
<circle cx="44" cy="44" r="23.5" stroke="#210049" stroke-linecap="round" stroke-linejoin="bevel" stroke-dasharray="8 4"/>
<path d="M38 47L34 43" stroke="#210049" stroke-width="2" stroke-linecap="round"/>
<path d="M34 47L38 43" stroke="#210049" stroke-width="2" stroke-linecap="round"/>
<path d="M54 47L50 43" stroke="#210049" stroke-width="2" stroke-linecap="round"/>
<path d="M50 47L54 43" stroke="#210049" stroke-width="2" stroke-linecap="round"/>
<path d="M52 57C52 57 50 53 44 53C38 53 36 57 36 57" stroke="#210049" stroke-width="2" stroke-linecap="round"/>
</svg>
