<svg width="32" height="32" viewBox="0 0 32 32" fill="none" xmlns="http://www.w3.org/2000/svg">
<rect y="16" width="22.6274" height="22.6274" rx="3" transform="rotate(-45 0 16)" fill="#FFA3A6"/>
<path d="M14.3185 22.9237V14.9077H12.7345V22.9237H14.3185ZM14.6065 12.5557C14.6065 11.9957 14.1425 11.4997 13.5345 11.4997C12.9425 11.4997 12.4625 11.9797 12.4625 12.5397C12.4625 13.1157 12.9265 13.5957 13.5345 13.5957C14.1425 13.5957 14.6065 13.1317 14.6065 12.5557ZM19.6622 8.0597H18.0782V16.0757H19.6622V8.0597ZM19.9502 18.4277C19.9502 17.8517 19.4862 17.3877 18.8782 17.3877C18.2702 17.3877 17.8062 17.8677 17.8062 18.4437C17.8062 19.0037 18.2862 19.4837 18.8782 19.4837C19.4862 19.4837 19.9502 18.9877 19.9502 18.4277Z" fill="white"/>
</svg>
