<svg width="32" height="32" viewBox="0 0 32 32" fill="none" xmlns="http://www.w3.org/2000/svg">
<rect y="16" width="22.6274" height="22.6274" rx="3" transform="rotate(-45 0 16)" fill="#8EADFF"/>
<path d="M16 8C11.5822 8 8 11.5822 8 16C8 20.4178 11.5822 24 16 24C20.4178 24 24 20.4178 24 16C24 11.5822 20.4178 8 16 8Z" stroke="#ECF1FF" stroke-width="1.5" stroke-miterlimit="10"/>
<path d="M14.7826 14.7826H16.1739V19.8261" stroke="#ECF1FF" stroke-width="1.5" stroke-linecap="round" stroke-linejoin="round"/>
<path d="M14.2609 20H18.087" stroke="#ECF1FF" stroke-width="1.5" stroke-miterlimit="10" stroke-linecap="round"/>
<path d="M16 10.8696C15.7764 10.8696 15.5579 10.9359 15.372 11.0601C15.1861 11.1843 15.0412 11.3608 14.9556 11.5674C14.8701 11.774 14.8477 12.0013 14.8913 12.2205C14.9349 12.4398 15.0426 12.6412 15.2007 12.7993C15.3588 12.9574 15.5602 13.0651 15.7795 13.1087C15.9987 13.1523 16.226 13.1299 16.4326 13.0444C16.6392 12.9588 16.8157 12.8139 16.9399 12.628C17.0641 12.4421 17.1304 12.2236 17.1304 12C17.1304 11.7002 17.0113 11.4127 16.7993 11.2007C16.5873 10.9887 16.2998 10.8696 16 10.8696Z" fill="#ECF1FF"/>
</svg>
