<svg width="89" height="88" viewBox="0 0 89 88" fill="none" xmlns="http://www.w3.org/2000/svg">
<path d="M22.5073 81.0919L3.02126 31.8315C1.50778 27.9549 3.39963 23.5111 7.27791 21.9983L56.6551 2.52102C60.5334 1.00823 64.9792 2.89922 66.4927 6.77576L85.9787 56.2253C87.4922 60.1019 85.6004 64.5457 81.7221 66.0585L32.3449 85.4412C28.372 87.0485 24.0208 85.063 22.5073 81.0919Z" fill="#FFD5E3"/>
<path d="M82.0057 46.0137C74.3438 47.621 65.8304 45.3518 58.3577 48.2829C54.101 49.9848 50.6957 53.294 47.1012 56.036C42.6553 59.3452 37.7365 60.6689 32.2502 60.858C26.3854 61.0471 20.3315 60.5743 14.5614 61.0471L16.3587 65.68C23.4531 65.2073 30.6421 66.3419 37.6419 65.3964C41.6148 64.8291 45.3039 63.4108 48.5201 61.0471C52.6821 58.116 56.2766 54.3341 61.0062 52.6322C68.2899 50.1739 76.4248 52.3485 83.8976 50.7412L82.0057 46.0137Z" fill="#FFACC7"/>
<path d="M36.6015 53.6722C44.831 51.4976 49.8444 43.2718 57.5064 40.2462C64.1279 37.5988 71.7898 39.3007 78.2221 36.4642L76.5194 31.9258C69.5196 35.235 60.5333 32.8713 53.5335 36.6533C49.466 38.8279 46.1553 42.2317 42.5608 45.0682C38.2096 48.3774 33.4799 49.7011 28.0882 49.6066C21.9397 49.512 15.5074 47.9047 9.35889 47.3374L11.2507 52.254C19.6695 53.1995 28.3719 55.8469 36.6015 53.6722Z" fill="#FFACC7"/>
<path d="M7.27833 42.2318C13.3322 42.2318 19.5753 42.8937 25.4401 42.0427C29.4129 41.4754 33.102 40.0572 36.3182 37.6934C40.4802 34.7624 44.0748 30.9804 48.8044 29.2785C57.0339 26.5366 66.3985 29.6567 74.4389 26.442L72.6416 21.8091C64.2229 24.9292 54.4799 21.5254 46.1558 24.9292C41.8991 26.6311 38.4938 29.9404 34.8993 32.6823C30.4535 35.9916 25.5347 37.3152 20.0483 37.5043C15.1295 37.6934 10.3053 37.3152 5.48108 37.5043L7.27833 42.2318Z" fill="#FFACC7"/>
<path d="M28.5 62V62C25.1863 62 22.5 64.6863 22.5 68V70H66.5V68C66.5 64.6863 63.8137 62 60.5 62V62" stroke="#210049" stroke-width="2" stroke-linecap="round" stroke-linejoin="round"/>
<path d="M60.5 62H44.5H28.5" stroke="#210049" stroke-width="2" stroke-linecap="round" stroke-linejoin="round"/>
<path d="M60.5 62V38C60.5 29.1634 53.3366 22 44.5 22V22C35.6634 22 28.5 29.1634 28.5 38V62" stroke="#210049" stroke-width="2" stroke-linecap="round" stroke-linejoin="round"/>
<path d="M20.5 38H16.5" stroke="#210049" stroke-linecap="round"/>
<path d="M68.5 38H72.5" stroke="#210049" stroke-linecap="round"/>
<path d="M23.9641 26L20.5 24" stroke="#210049" stroke-linecap="round"/>
<path d="M65.0359 26L68.5 24" stroke="#210049" stroke-linecap="round"/>
<path d="M32.5 17.4641L30.5 14" stroke="#210049" stroke-linecap="round"/>
<path d="M56.5 17.4641L58.5 14" stroke="#210049" stroke-linecap="round"/>
<path d="M44.5 16L44.5 12" stroke="#210049" stroke-linecap="round"/>
<circle cx="44.5" cy="43" r="3" stroke="#210049"/>
<path d="M44.5 46V62" stroke="#210049"/>
</svg>
