<svg width="48" height="48" viewBox="0 0 48 48" fill="none" xmlns="http://www.w3.org/2000/svg">
<path fill-rule="evenodd" clip-rule="evenodd" d="M21.6218 45.0152L2.98481 26.3782C1.67173 25.0651 1.67173 22.9357 2.98481 21.6227L21.6218 2.98481C22.9349 1.67173 25.0643 1.67173 26.3773 2.98481L45.0152 21.6227C46.3283 22.9357 46.3283 25.0651 45.0152 26.3782L26.3773 45.0152C25.0643 46.3283 22.9349 46.3283 21.6218 45.0152Z" fill="#E4D2FF"/>
<path d="M30.75 20.3906V15H28.5V18.2344" stroke="#210049" stroke-width="1.5" stroke-linecap="round" stroke-linejoin="round"/>
<path d="M15.75 21.9375V33C15.75 33.1989 15.829 33.3897 15.9697 33.5303C16.1103 33.671 16.3011 33.75 16.5 33.75H21V27.375C21 27.0766 21.1185 26.7905 21.3295 26.5795C21.5405 26.3685 21.8266 26.25 22.125 26.25H25.875C26.1734 26.25 26.4595 26.3685 26.6705 26.5795C26.8815 26.7905 27 27.0766 27 27.375V33.75H31.5C31.6989 33.75 31.8897 33.671 32.0303 33.5303C32.171 33.3897 32.25 33.1989 32.25 33V21.9375" stroke="#210049" stroke-width="1.5" stroke-linecap="round" stroke-linejoin="round"/>
<path d="M34.5 23.9999L24.5105 14.4374C24.2761 14.1899 23.7281 14.1871 23.4895 14.4374L13.5 23.9999" stroke="#210049" stroke-width="1.5" stroke-linecap="round" stroke-linejoin="round"/>
</svg>
