<svg width="25" height="24" viewBox="0 0 25 24" fill="none" xmlns="http://www.w3.org/2000/svg">
<path d="M10.2501 9.75V22.125C10.2484 22.2732 10.2763 22.4203 10.3323 22.5575C10.3882 22.6948 10.471 22.8195 10.5758 22.9243C10.6806 23.0291 10.8053 23.1119 10.9426 23.1678C11.0798 23.2238 11.2269 23.2517 11.3751 23.25V23.25C11.5233 23.2517 11.6703 23.2238 11.8076 23.1678C11.9448 23.1119 12.0695 23.0291 12.1743 22.9243C12.2791 22.8195 12.362 22.6948 12.4179 22.5575C12.4738 22.4203 12.5018 22.2732 12.5001 22.125" stroke="#210049" stroke-width="1.5" stroke-miterlimit="10" stroke-linecap="round"/>
<path d="M12.5001 15.75V22.125C12.4984 22.2732 12.5263 22.4203 12.5823 22.5575C12.6382 22.6948 12.721 22.8195 12.8258 22.9243C12.9306 23.0291 13.0553 23.1119 13.1926 23.1678C13.3298 23.2238 13.4769 23.2517 13.6251 23.25C13.7733 23.2517 13.9203 23.2238 14.0576 23.1678C14.1948 23.1119 14.3195 23.0291 14.4243 22.9243C14.5292 22.8195 14.612 22.6948 14.6679 22.5575C14.7238 22.4203 14.7518 22.2732 14.7501 22.125V9.75" stroke="#210049" stroke-width="1.5" stroke-miterlimit="10" stroke-linecap="round"/>
<path d="M10.2501 9V13.125C10.2518 13.2732 10.2239 13.4203 10.168 13.5576C10.1121 13.6949 10.0293 13.8196 9.92449 13.9244C9.81967 14.0292 9.69495 14.112 9.55767 14.1679C9.42038 14.2239 9.2733 14.2518 9.12508 14.25V14.25C8.97685 14.2518 8.82977 14.2239 8.69248 14.1679C8.5552 14.112 8.43048 14.0292 8.32566 13.9244C8.22084 13.8196 8.13804 13.6949 8.08213 13.5576C8.02621 13.4203 7.99832 13.2732 8.00008 13.125V9C8.00008 8.40326 8.23713 7.83097 8.65909 7.40901C9.08104 6.98705 9.65334 6.75 10.2501 6.75H14.7501C15.3468 6.75 15.9191 6.98705 16.3411 7.40901C16.763 7.83097 17.0001 8.40326 17.0001 9V13.125C17.0018 13.2732 16.9739 13.4203 16.918 13.5576C16.8621 13.6949 16.7793 13.8196 16.6745 13.9244C16.5697 14.0292 16.4449 14.112 16.3077 14.1679C16.1704 14.2239 16.0233 14.2518 15.8751 14.25V14.25C15.7268 14.2518 15.5798 14.2239 15.4425 14.1679C15.3052 14.112 15.1805 14.0292 15.0756 13.9244C14.9708 13.8196 14.888 13.6949 14.8321 13.5576C14.7762 13.4203 14.7483 13.2732 14.7501 13.125V9" stroke="#210049" stroke-width="1.5" stroke-miterlimit="10" stroke-linecap="round"/>
<path d="M12.5 4.5C13.5355 4.5 14.375 3.66053 14.375 2.625C14.375 1.58947 13.5355 0.75 12.5 0.75C11.4645 0.75 10.625 1.58947 10.625 2.625C10.625 3.66053 11.4645 4.5 12.5 4.5Z" stroke="#FF2F73" stroke-width="1.5" stroke-miterlimit="10" stroke-linecap="round"/>
</svg>
