<svg width="48" height="48" viewBox="0 0 48 48" fill="none" xmlns="http://www.w3.org/2000/svg">
<path fill-rule="evenodd" clip-rule="evenodd" d="M21.6218 45.0152L2.98481 26.3782C1.67173 25.0651 1.67173 22.9357 2.98481 21.6227L21.6218 2.98481C22.9349 1.67173 25.0643 1.67173 26.3773 2.98481L45.0152 21.6227C46.3283 22.9357 46.3283 25.0651 45.0152 26.3782L26.3773 45.0152C25.0643 46.3283 22.9349 46.3283 21.6218 45.0152Z" fill="#E4D2FF"/>
<path d="M32.2032 27.0281C32.1564 26.8594 32.2595 26.625 32.3579 26.4562C32.388 26.406 32.4209 26.3575 32.4564 26.3109C33.2984 25.0598 33.7487 23.5862 33.7501 22.0781C33.7642 17.7563 30.1173 14.25 25.6079 14.25C21.6751 14.25 18.3938 16.9266 17.6251 20.4797C17.5101 21.0063 17.4519 21.5438 17.4517 22.0828C17.4517 26.4094 20.9579 30.0094 25.4673 30.0094C26.1845 30.0094 27.1501 29.7937 27.6798 29.6484C28.2095 29.5031 28.7345 29.3109 28.8704 29.2594C29.0098 29.2068 29.1574 29.1798 29.3064 29.1797C29.4688 29.1791 29.6298 29.2109 29.7798 29.2734L32.4376 30.2156C32.4959 30.2403 32.5575 30.2561 32.6204 30.2625C32.7199 30.2625 32.8153 30.223 32.8856 30.1527C32.9559 30.0823 32.9954 29.987 32.9954 29.8875C32.9922 29.8446 32.9843 29.8022 32.972 29.7609L32.2032 27.0281Z" stroke="#210049" stroke-width="1.5" stroke-miterlimit="10" stroke-linecap="round"/>
<path d="M15.1153 22.875C14.5005 23.9795 14.2031 25.2325 14.256 26.4954C14.3089 27.7584 14.7099 28.9821 15.4149 30.0314C15.5232 30.195 15.5841 30.3216 15.5653 30.4064C15.5466 30.4912 15.0061 33.3065 15.0061 33.3065C14.9931 33.3724 14.9981 33.4406 15.0204 33.5039C15.0427 33.5673 15.0817 33.6234 15.1332 33.6665C15.2018 33.7213 15.2872 33.7507 15.375 33.75C15.4219 33.7501 15.4684 33.7405 15.5114 33.7219L18.1463 32.6906C18.3276 32.6191 18.5299 32.6225 18.7088 32.7C19.5966 33.0459 20.5782 33.2625 21.5602 33.2625C22.878 33.2639 24.1726 32.9163 25.3125 32.2551" stroke="#210049" stroke-width="1.5" stroke-miterlimit="10" stroke-linecap="round"/>
</svg>
