<svg width="33" height="32" viewBox="0 0 33 32" fill="none" xmlns="http://www.w3.org/2000/svg">
<path d="M20.5 28.635C20.5 28.635 19.5 29 16.5 29C13.5 29 11.875 28 10.5 27H6.5C5.43913 27 4.42172 26.5786 3.67157 25.8284C2.92143 25.0783 2.5 24.0609 2.5 23V20C2.5 18.9391 2.92143 17.9217 3.67157 17.1716C4.42172 16.4214 5.43913 16 6.5 16H8.375C8.71842 15.9981 9.05569 15.9087 9.35499 15.7403C9.65429 15.5719 9.90574 15.33 10.0856 15.0375C10.0856 15.0375 10.625 13.8631 12.25 11.0487C13.875 8.23438 17 4 17.5 3C19.3125 3 20.1875 4.375 19.625 5.98187C18.9825 7.81875 18.1431 9.38063 17.9088 11.425C17.875 11.7238 18.105 12.175 18.4056 12.175L26.5 12.8125" stroke="#4376FF" stroke-width="1.5" stroke-linecap="round" stroke-linejoin="round"/>
<path d="M26.5 16.9375L21.5 16.8125C20.25 16.6975 19.5 16.0375 19.5 14.9375C19.5 13.8375 20.375 13.135 21.5 13.0625L26.5 12.8125C27.6 12.8125 28.5 13.8375 28.5 14.9375V14.9481C28.4972 15.4767 28.2852 15.9827 27.9105 16.3555C27.5357 16.7283 27.0286 16.9375 26.5 16.9375Z" stroke="#4376FF" stroke-width="1.5" stroke-miterlimit="10"/>
<path d="M28.5 21L21.5 20.875C20.375 20.8225 19.5 20.0994 19.5 19C19.5 17.8994 20.375 17.1962 21.5 17.125L28.5 17C29.0299 17.0016 29.5377 17.2129 29.9124 17.5876C30.2871 17.9623 30.4984 18.4701 30.5 19V19C30.4984 19.5299 30.2871 20.0377 29.9124 20.4124C29.5377 20.7871 29.0299 20.9984 28.5 21V21Z" stroke="#4376FF" stroke-width="1.5" stroke-miterlimit="10"/>
<path d="M25.5 29L21.5 28.8125C20.1875 28.6975 19.5 28.1 19.5 27C19.5 25.9 20.4 25.125 21.5 25.125L25.5 25C26.03 25.0015 26.5378 25.2127 26.9126 25.5874C27.2873 25.9622 27.4985 26.47 27.5 27V27C27.4985 27.53 27.2873 28.0378 26.9126 28.4126C26.5378 28.7873 26.03 28.9985 25.5 29V29Z" stroke="#4376FF" stroke-width="1.5" stroke-miterlimit="10"/>
<path d="M27.5 25L21.5 24.875C20.3125 24.8225 19.5 24.1 19.5 23C19.5 21.9 20.3125 21.1975 21.5 21.125L27.5 21C28.03 21.0015 28.5378 21.2127 28.9126 21.5874C29.2873 21.9622 29.4985 22.47 29.5 23V23C29.4985 23.53 29.2873 24.0378 28.9126 24.4126C28.5378 24.7873 28.03 24.9985 27.5 25Z" stroke="#4376FF" stroke-width="1.5" stroke-miterlimit="10"/>
</svg>
