<svg width="33" height="32" viewBox="0 0 33 32" fill="none" xmlns="http://www.w3.org/2000/svg">
<path d="M21.5 13V7.0625C21.5 5.73642 20.9732 4.46465 20.0355 3.52697C19.0979 2.58928 17.8261 2.0625 16.5 2.0625C15.1739 2.0625 13.9021 2.58928 12.9645 3.52697C12.0268 4.46465 11.5 5.73642 11.5 7.0625V13" stroke="#4376FF" stroke-width="1.5" stroke-linecap="round" stroke-linejoin="round"/>
<path d="M23.5 13H9.5C7.84315 13 6.5 14.3431 6.5 16V27C6.5 28.6569 7.84315 30 9.5 30H23.5C25.1569 30 26.5 28.6569 26.5 27V16C26.5 14.3431 25.1569 13 23.5 13Z" stroke="#4376FF" stroke-width="1.5" stroke-linecap="round" stroke-linejoin="round"/>
</svg>
