<svg width="88" height="88" viewBox="0 0 88 88" fill="none" xmlns="http://www.w3.org/2000/svg">
<path d="M22.0073 81.0919L2.52126 31.8315C1.00778 27.9549 2.89963 23.5111 6.77791 21.9983L56.1551 2.52102C60.0334 1.00823 64.4792 2.89922 65.9927 6.77576L85.4787 56.2253C86.9922 60.1019 85.1004 64.5457 81.2221 66.0585L31.8449 85.4412C27.872 87.0485 23.5208 85.063 22.0073 81.0919Z" fill="#FDE7D3"/>
<path d="M81.5057 46.0139C73.8438 47.6213 65.3304 45.3521 57.8577 48.2831C53.601 49.985 50.1957 53.2943 46.6012 56.0362C42.1553 59.3454 37.2365 60.6691 31.7502 60.8582C25.8854 61.0473 19.8315 60.5746 14.0614 61.0473L15.8587 65.6803C22.9531 65.2075 30.1421 66.3421 37.1419 65.3966C41.1148 64.8293 44.8039 63.4111 48.0201 61.0473C52.1821 58.1163 55.7766 54.3343 60.5062 52.6324C67.7899 50.1741 75.9248 52.3488 83.3976 50.7414L81.5057 46.0139Z" fill="#F3C9A1"/>
<path d="M36.1015 53.6725C44.331 51.4978 49.3444 43.272 57.0064 40.2464C63.6279 37.599 71.2898 39.3009 77.7221 36.4644L76.0194 31.926C69.0196 35.2353 60.0333 32.8715 53.0335 36.6535C48.966 38.8282 45.6553 42.232 42.0608 45.0684C37.7096 48.3777 32.9799 49.7014 27.5882 49.6068C21.4397 49.5123 15.0074 47.9049 8.85889 47.3376L10.7507 52.2542C19.1695 53.1997 27.8719 55.8471 36.1015 53.6725Z" fill="#F3C9A1"/>
<path d="M6.77833 42.2318C12.8322 42.2318 19.0753 42.8937 24.9401 42.0427C28.9129 41.4754 32.602 40.0572 35.8182 37.6934C39.9802 34.7624 43.5748 30.9804 48.3044 29.2785C56.5339 26.5366 65.8985 29.6567 73.9389 26.442L72.1416 21.8091C63.7229 24.9292 53.9799 21.5254 45.6558 24.9292C41.3991 26.6311 37.9938 29.9404 34.3993 32.6823C29.9535 35.9916 25.0347 37.3152 19.5483 37.5043C14.6295 37.6934 9.80529 37.3152 4.98108 37.5043L6.77833 42.2318Z" fill="#F3C9A1"/>
<rect x="28" y="39" width="16" height="8" stroke="#210049"/>
<rect x="44" y="39" width="16" height="8" stroke="#210049"/>
<path d="M14 51H28V35L13.1056 42.4472C12.428 42.786 12 43.4785 12 44.2361V49C12 50.1046 12.8954 51 14 51Z" stroke="#210049" stroke-width="2"/>
<path d="M74 51H60V35L74.8944 42.4472C75.572 42.786 76 43.4785 76 44.2361V49C76 50.1046 75.1046 51 74 51Z" stroke="#210049" stroke-width="2"/>
<path d="M28 25C28 20.5817 31.5817 17 36 17V17C40.4183 17 44 20.5817 44 25V57H30C28.8954 57 28 56.1046 28 55V25Z" stroke="#210049" stroke-width="2"/>
<path d="M44 25C44 20.5817 47.5817 17 52 17V17C56.4183 17 60 20.5817 60 25V55C60 56.1046 59.1046 57 58 57H44V25Z" stroke="#210049" stroke-width="2"/>
<path d="M32 57H40V59C40 60.1046 39.1046 61 38 61H34C32.8954 61 32 60.1046 32 59V57Z" stroke="#210049" stroke-width="2"/>
<path d="M36 63V69" stroke="#210049" stroke-linecap="round"/>
<path d="M33 63V67" stroke="#210049" stroke-linecap="round"/>
<path d="M39 63V67" stroke="#210049" stroke-linecap="round"/>
<path d="M52 63V69" stroke="#210049" stroke-linecap="round"/>
<path d="M49 63V67" stroke="#210049" stroke-linecap="round"/>
<path d="M55 63V67" stroke="#210049" stroke-linecap="round"/>
<path d="M48 57H56V59C56 60.1046 55.1046 61 54 61H50C48.8954 61 48 60.1046 48 59V57Z" stroke="#210049" stroke-width="2"/>
</svg>
