<svg width="48" height="48" viewBox="0 0 48 48" fill="none" xmlns="http://www.w3.org/2000/svg">
<path fill-rule="evenodd" clip-rule="evenodd" d="M21.6218 45.0152L2.98481 26.3782C1.67173 25.0651 1.67173 22.9357 2.98481 21.6227L21.6218 2.98481C22.9349 1.67173 25.0643 1.67173 26.3773 2.98481L45.0152 21.6227C46.3283 22.9357 46.3283 25.0651 45.0152 26.3782L26.3773 45.0152C25.0643 46.3283 22.9349 46.3283 21.6218 45.0152Z" fill="#E4D2FF"/>
<path d="M32.25 18H15.75C14.5074 18 13.5 19.0074 13.5 20.25V30.75C13.5 31.9926 14.5074 33 15.75 33H32.25C33.4926 33 34.5 31.9926 34.5 30.75V20.25C34.5 19.0074 33.4926 18 32.25 18Z" stroke="#210049" stroke-width="1.5" stroke-linejoin="round"/>
<path d="M18.75 18V16.5C18.75 16.1022 18.908 15.7206 19.1893 15.4393C19.4706 15.158 19.8522 15 20.25 15H27.75C28.1478 15 28.5294 15.158 28.8107 15.4393C29.092 15.7206 29.25 16.1022 29.25 16.5V18" stroke="#210049" stroke-width="1.5" stroke-linecap="round" stroke-linejoin="round"/>
<path d="M34.5 23.25H13.5" stroke="#210049" stroke-width="1.5" stroke-linecap="round" stroke-linejoin="round"/>
<path d="M27 23.25V24.375C27 24.4745 26.9605 24.5698 26.8902 24.6402C26.8198 24.7105 26.7245 24.75 26.625 24.75H21.375C21.2755 24.75 21.1802 24.7105 21.1098 24.6402C21.0395 24.5698 21 24.4745 21 24.375V23.25" stroke="#210049" stroke-width="1.5" stroke-linecap="round" stroke-linejoin="round"/>
</svg>
