<svg width="16" height="16" viewBox="0 0 16 16" fill="none" xmlns="http://www.w3.org/2000/svg">
<path d="M14.4316 1.68191C14.4263 1.65626 14.4138 1.63267 14.3955 1.6139C14.3773 1.59514 14.354 1.58198 14.3285 1.57597C12.6291 1.16035 8.70352 2.64129 6.57446 4.76879C6.19501 5.14512 5.84902 5.55374 5.5404 5.99004C4.88415 5.93066 4.2279 5.98066 3.66915 6.22441C2.09133 6.91816 1.63227 8.73004 1.50415 9.50785C1.4972 9.55047 1.50017 9.59411 1.51281 9.6354C1.52545 9.67669 1.54743 9.71452 1.57705 9.74594C1.60666 9.77737 1.64311 9.80156 1.68358 9.81663C1.72405 9.8317 1.76744 9.83725 1.8104 9.83285L4.34383 9.55472C4.34559 9.74581 4.35706 9.93668 4.37821 10.1266C4.39143 10.2579 4.45 10.3804 4.54383 10.4732L5.52477 11.4541C5.61759 11.548 5.74027 11.6066 5.87165 11.6197C6.06042 11.6408 6.25015 11.6522 6.44008 11.6541L6.16227 14.1853C6.15793 14.2283 6.16352 14.2716 6.1786 14.312C6.19367 14.3524 6.21784 14.3888 6.24922 14.4183C6.2806 14.4479 6.31837 14.4699 6.35959 14.4825C6.40081 14.4952 6.44439 14.4982 6.48696 14.4913C7.26508 14.3663 9.08071 13.9072 9.7704 12.3297C10.0141 11.7703 10.0641 11.1175 10.0079 10.4644C10.4455 10.1561 10.8553 9.81007 11.2326 9.43035C13.3695 7.30535 14.841 3.46597 14.4316 1.68191ZM9.33321 6.67754C9.14656 6.49093 9.01945 6.25317 8.96793 5.99432C8.91642 5.73547 8.94283 5.46715 9.04382 5.22331C9.1448 4.97947 9.31583 4.77105 9.53528 4.62441C9.75472 4.47777 10.0127 4.39951 10.2766 4.39951C10.5406 4.39951 10.7986 4.47777 11.018 4.62441C11.2375 4.77105 11.4085 4.97947 11.5095 5.22331C11.6105 5.46715 11.6369 5.73547 11.5854 5.99432C11.5338 6.25317 11.4067 6.49093 11.2201 6.67754C11.0963 6.8016 10.9492 6.90002 10.7873 6.96718C10.6255 7.03434 10.4519 7.06891 10.2766 7.06891C10.1014 7.06891 9.92784 7.03434 9.76595 6.96718C9.60406 6.90002 9.45701 6.8016 9.33321 6.67754V6.67754Z" stroke="#43CEA2" stroke-linecap="round" stroke-linejoin="round"/>
<path d="M3.42625 11C3.11472 11.0382 2.8249 11.1795 2.60281 11.4012C2.05219 11.9537 2 14 2 14C2 14 4.0475 13.9478 4.59844 13.3966C4.82112 13.1748 4.96258 12.8845 5 12.5725" stroke="#43CEA2" stroke-linecap="round" stroke-linejoin="round"/>
</svg>
