<svg width="32" height="32" viewBox="0 0 32 32" fill="none" xmlns="http://www.w3.org/2000/svg">
<path d="M16 17V27C16 27.5304 15.7893 28.0391 15.4142 28.4142C15.0391 28.7893 14.5304 29 14 29C13.4696 29 12.9609 28.7893 12.5858 28.4142C12.2107 28.0391 12 27.5304 12 27" stroke="#4376FF" stroke-width="1.5" stroke-linecap="round" stroke-linejoin="round"/>
<path d="M29 17C29 9.82 23.18 4 16 4C8.82 4 3 9.82 3 17C3.39396 16.606 3.86166 16.2935 4.3764 16.0803C4.89114 15.867 5.44284 15.7573 6 15.7573C6.55716 15.7573 7.10886 15.867 7.6236 16.0803C8.13834 16.2935 8.60604 16.606 9 17C9.83274 16.1674 10.9378 15.6631 12.1124 15.5797C13.287 15.4962 14.4523 15.8392 15.3944 16.5456L16 17L16.6056 16.5456C17.5477 15.8392 18.713 15.4962 19.8876 15.5797C21.0622 15.6631 22.1673 16.1674 23 17C23.394 16.606 23.8617 16.2935 24.3764 16.0803C24.8911 15.867 25.4428 15.7573 26 15.7573C26.5572 15.7573 27.1089 15.867 27.6236 16.0803C28.1383 16.2935 28.606 16.606 29 17Z" stroke="#4376FF" stroke-width="1.5" stroke-linecap="round" stroke-linejoin="round"/>
<path d="M16 4V3" stroke="#4376FF" stroke-width="1.5" stroke-linecap="round" stroke-linejoin="round"/>
</svg>
