<svg width="32" height="32" viewBox="0 0 32 32" fill="none" xmlns="http://www.w3.org/2000/svg">
<path d="M5.34815 27.8906H26.6519C26.9979 27.8906 27.338 27.8007 27.6389 27.6299C27.9398 27.4591 28.1912 27.2131 28.3686 26.9161C28.5461 26.619 28.6434 26.281 28.6511 25.9351C28.6587 25.5892 28.5766 25.2472 28.4125 24.9425L17.7613 5.16125C17.0057 3.75875 14.9944 3.75875 14.2388 5.16125L3.58753 24.9425C3.4235 25.2472 3.34131 25.5892 3.34901 25.9351C3.3567 26.281 3.454 26.619 3.63141 26.9161C3.80882 27.2131 4.06026 27.4591 4.36117 27.6299C4.66207 27.8007 5.00214 27.8906 5.34815 27.8906V27.8906Z" stroke="#4376FF" stroke-width="1.5" stroke-linecap="round" stroke-linejoin="round"/>
<path d="M15.641 12.2122L15.9997 19.8372L16.3579 12.2153C16.3601 12.1666 16.3523 12.118 16.3351 12.0723C16.3179 12.0267 16.2915 11.9851 16.2576 11.95C16.2238 11.9149 16.1831 11.887 16.1381 11.8682C16.0931 11.8493 16.0448 11.8399 15.996 11.8403V11.8403C15.9481 11.8408 15.9007 11.8509 15.8568 11.87C15.8128 11.889 15.7731 11.9167 15.74 11.9514C15.7069 11.986 15.6811 12.027 15.6641 12.0718C15.6471 12.1166 15.6392 12.1643 15.641 12.2122V12.2122Z" stroke="#4376FF" stroke-width="1.5" stroke-linecap="round" stroke-linejoin="round"/>
<path d="M16 24.8281C15.7527 24.8281 15.5111 24.7548 15.3055 24.6175C15.0999 24.4801 14.9397 24.2849 14.8451 24.0565C14.7505 23.8281 14.7258 23.5767 14.774 23.3343C14.8222 23.0918 14.9413 22.8691 15.1161 22.6942C15.2909 22.5194 15.5136 22.4004 15.7561 22.3521C15.9986 22.3039 16.2499 22.3287 16.4783 22.4233C16.7067 22.5179 16.902 22.6781 17.0393 22.8837C17.1767 23.0892 17.25 23.3309 17.25 23.5781C17.25 23.9096 17.1183 24.2276 16.8839 24.462C16.6494 24.6964 16.3315 24.8281 16 24.8281Z" fill="#4376FF"/>
</svg>
