<svg width="25" height="24" viewBox="0 0 25 24" fill="none" xmlns="http://www.w3.org/2000/svg">
<path d="M10.2501 17.25V22.125C10.2484 22.2732 10.2763 22.4203 10.3323 22.5575C10.3882 22.6948 10.471 22.8195 10.5758 22.9243C10.6806 23.0291 10.8053 23.1119 10.9426 23.1678C11.0798 23.2238 11.2269 23.2517 11.3751 23.25V23.25C11.5233 23.2517 11.6703 23.2238 11.8076 23.1678C11.9448 23.1119 12.0695 23.0291 12.1743 22.9243C12.2791 22.8195 12.362 22.6948 12.4179 22.5575C12.4738 22.4203 12.5018 22.2732 12.5001 22.125" stroke="#210049" stroke-width="1.5" stroke-miterlimit="10" stroke-linecap="round"/>
<path d="M12.5001 17.25V22.125C12.4984 22.2732 12.5263 22.4203 12.5823 22.5575C12.6382 22.6948 12.721 22.8195 12.8258 22.9243C12.9306 23.0291 13.0553 23.1119 13.1926 23.1678C13.3298 23.2238 13.4769 23.2517 13.6251 23.25C13.7733 23.2517 13.9203 23.2238 14.0576 23.1678C14.1948 23.1119 14.3195 23.0291 14.4243 22.9243C14.5292 22.8195 14.612 22.6948 14.6679 22.5575C14.7238 22.4203 14.7518 22.2732 14.7501 22.125V17.25" stroke="#210049" stroke-width="1.5" stroke-miterlimit="10" stroke-linecap="round"/>
<path d="M9.07768 12.8438C9.03714 12.9863 8.96851 13.1194 8.87582 13.2351C8.78314 13.3507 8.66826 13.4467 8.53795 13.5174C8.40764 13.5881 8.26452 13.632 8.117 13.6465C7.96948 13.6611 7.82054 13.646 7.67893 13.6022C7.53635 13.5617 7.40332 13.493 7.28765 13.4003C7.17198 13.3076 7.07602 13.1927 7.0054 13.0624C6.93478 12.9321 6.89093 12.789 6.87643 12.6415C6.86193 12.4939 6.87707 12.345 6.92096 12.2034L8.09284 8.25281C8.22205 7.8185 8.48813 7.43757 8.85143 7.16676C9.21473 6.89595 9.6558 6.74977 10.1089 6.75H14.8902C15.3433 6.74994 15.7844 6.8963 16.1476 7.16728C16.5108 7.43826 16.7768 7.81934 16.9058 8.25375L18.0777 12.2044C18.1216 12.346 18.1367 12.4949 18.1222 12.6424C18.1077 12.7899 18.0639 12.933 17.9932 13.0634C17.9226 13.1937 17.8266 13.3086 17.711 13.4013C17.5953 13.494 17.4623 13.5626 17.3197 13.6031V13.6031C17.1782 13.6465 17.0295 13.6612 16.8822 13.6464C16.735 13.6315 16.5922 13.5875 16.4622 13.5167C16.3322 13.446 16.2176 13.3501 16.1251 13.2345C16.0327 13.119 15.9642 12.9861 15.9238 12.8438" stroke="#210049" stroke-width="1.5" stroke-miterlimit="10" stroke-linecap="round"/>
<path d="M12.5 4.5C13.5355 4.5 14.375 3.66053 14.375 2.625C14.375 1.58947 13.5355 0.75 12.5 0.75C11.4645 0.75 10.625 1.58947 10.625 2.625C10.625 3.66053 11.4645 4.5 12.5 4.5Z" stroke="#FF2F73" stroke-width="1.5" stroke-miterlimit="10" stroke-linecap="round"/>
<path d="M10.25 9L8 16.5H17L14.75 9" stroke="#210049" stroke-width="1.5" stroke-linecap="round" stroke-linejoin="round"/>
</svg>
