<svg width="88" height="88" viewBox="0 0 88 88" fill="none" xmlns="http://www.w3.org/2000/svg">
<path d="M22.0073 81.0919L2.52126 31.8315C1.00778 27.9549 2.89963 23.5111 6.77791 21.9983L56.1551 2.52102C60.0334 1.00823 64.4792 2.89922 65.9927 6.77576L85.4787 56.2253C86.9922 60.1019 85.1004 64.5457 81.2221 66.0585L31.8449 85.4412C27.872 87.0485 23.5208 85.063 22.0073 81.0919Z" fill="#FFDADB"/>
<path d="M81.5057 46.0139C73.8438 47.6213 65.3304 45.3521 57.8577 48.2831C53.601 49.985 50.1957 53.2943 46.6012 56.0362C42.1553 59.3454 37.2365 60.6691 31.7502 60.8582C25.8854 61.0473 19.8315 60.5746 14.0614 61.0473L15.8587 65.6803C22.9531 65.2075 30.1421 66.3421 37.1419 65.3966C41.1148 64.8293 44.8039 63.4111 48.0201 61.0473C52.1821 58.1163 55.7766 54.3343 60.5062 52.6324C67.7899 50.1741 75.9248 52.3488 83.3976 50.7414L81.5057 46.0139Z" fill="#FFB3B6"/>
<path d="M36.1015 53.6725C44.331 51.4978 49.3444 43.272 57.0064 40.2464C63.6279 37.599 71.2898 39.3009 77.7221 36.4644L76.0194 31.926C69.0196 35.2353 60.0333 32.8715 53.0335 36.6535C48.966 38.8282 45.6553 42.232 42.0608 45.0684C37.7096 48.3777 32.9799 49.7014 27.5882 49.6068C21.4397 49.5123 15.0074 47.9049 8.85889 47.3376L10.7507 52.2542C19.1695 53.1997 27.8719 55.8471 36.1015 53.6725Z" fill="#FFB3B6"/>
<path d="M6.77833 42.2318C12.8322 42.2318 19.0753 42.8937 24.9401 42.0427C28.9129 41.4754 32.602 40.0572 35.8182 37.6934C39.9802 34.7624 43.5748 30.9804 48.3044 29.2785C56.5339 26.5366 65.8985 29.6567 73.9389 26.442L72.1416 21.8091C63.7229 24.9292 53.9799 21.5254 45.6558 24.9292C41.3991 26.6311 37.9938 29.9404 34.3993 32.6823C29.9535 35.9916 25.0347 37.3152 19.5483 37.5043C14.6295 37.6934 9.80529 37.3152 4.98108 37.5043L6.77833 42.2318Z" fill="#FFB3B6"/>
<path d="M25.5 62L33 51" stroke="#210049"/>
<path d="M51 17L42 32" stroke="#210049"/>
<path d="M63.5 24L56 38" stroke="#210049"/>
<path d="M37.5 70L45.5 57" stroke="#210049"/>
<path d="M63.5 25L68.6142 28.3306C69.5013 28.9083 69.7846 30.0772 69.2604 30.9969L45.896 71.9912C45.3608 72.9301 44.1766 73.2741 43.2217 72.7679L38 70" stroke="#210049" stroke-width="2" stroke-miterlimit="10" stroke-linecap="round" stroke-linejoin="round"/>
<path d="M25 62L19.9439 59.3489C18.9413 58.8232 18.5745 57.5708 19.1351 56.5873L42.3604 15.8371C42.9139 14.866 44.1559 14.537 45.1176 15.1068L50 18" stroke="#210049" stroke-width="2" stroke-miterlimit="10" stroke-linecap="round" stroke-linejoin="round"/>
<path d="M38 70L37.3639 70.9738C36.7856 71.8593 35.6179 72.1414 34.6991 71.6178L24.9465 66.0594C23.9707 65.5032 23.6441 64.2527 24.2233 63.2904L25 62" stroke="#210049" stroke-width="2" stroke-miterlimit="10" stroke-linecap="round" stroke-linejoin="round"/>
<path d="M50 18L50.1057 17.8229C50.6638 16.8879 51.8673 16.5712 52.8134 17.1103L62.8664 22.84C63.6245 23.2721 63.9046 24.2268 63.5 25" stroke="#210049" stroke-width="2" stroke-miterlimit="10" stroke-linecap="round" stroke-linejoin="round"/>
<path d="M40.0855 30.8157L35.4573 28.1778L37.1375 25.2299L43.7211 28.9823" stroke="#210049" stroke-miterlimit="10" stroke-linecap="round" stroke-linejoin="round"/>
<path d="M56.869 36.4758L63.8654 40.4634L62.1853 43.4113L57.6356 40.8183" stroke="#210049" stroke-miterlimit="10" stroke-linecap="round" stroke-linejoin="round"/>
<path d="M48.2611 56.9007C48.0212 56.764 47.7158 56.8476 47.5791 57.0875C47.4423 57.3274 47.526 57.6328 47.7659 57.7695L48.2611 56.9007ZM52.7203 60.0177L53.1547 60.2653C53.2915 60.0254 53.2078 59.7201 52.9679 59.5833L52.7203 60.0177ZM51.0402 62.9657L50.7948 63.4013C51.0345 63.5363 51.3383 63.4523 51.4746 63.2132L51.0402 62.9657ZM47.7659 57.7695L52.4727 60.4521L52.9679 59.5833L48.2611 56.9007L47.7659 57.7695ZM52.2859 59.7702L50.6058 62.7181L51.4746 63.2132L53.1547 60.2653L52.2859 59.7702ZM51.2856 62.53L44.2454 58.5643L43.7546 59.4356L50.7948 63.4013L51.2856 62.53Z" fill="#210049"/>
<path d="M32 52L24.3124 47.7325L25.9926 44.7845L30.6404 47.4336" stroke="#210049" stroke-miterlimit="10" stroke-linecap="round" stroke-linejoin="round"/>
<path d="M55.2857 50.4145C51.7702 56.5827 43.9199 58.7331 37.7517 55.2176C31.5835 51.702 29.4331 43.8518 32.9486 37.6836C36.4642 31.5154 44.3144 29.3649 50.4826 32.8805C56.6508 36.396 58.8012 44.2462 55.2857 50.4145Z" stroke="#210049" stroke-width="2" stroke-miterlimit="10" stroke-linecap="round" stroke-linejoin="round"/>
<path d="M53.6913 49.3107C50.7505 54.4706 44.1835 56.2695 39.0235 53.3286C33.8636 50.3878 32.0647 43.8208 35.0056 38.6608C37.9464 33.5009 44.5134 31.702 49.6734 34.6429C54.8333 37.5837 56.6322 44.1507 53.6913 49.3107Z" stroke="#210049" stroke-miterlimit="10" stroke-linecap="round" stroke-linejoin="round"/>
<path d="M47.6449 37.6757L43.9262 44.2005L47.9353 46.4855" stroke="#210049" stroke-miterlimit="10" stroke-linecap="round" stroke-linejoin="round"/>
</svg>
