<svg width="160" height="69" viewBox="0 0 160 69" fill="none" xmlns="http://www.w3.org/2000/svg">
<path opacity="0.5" d="M0 8C0 3.58173 3.58172 0 8 0H152C156.418 0 160 3.58172 160 8V68.2667H0V8Z" fill="#FF2F73"/>
<mask id="mask0" mask-type="alpha" maskUnits="userSpaceOnUse" x="0" y="0" width="160" height="69">
<path d="M0 8C0 3.58173 3.58172 0 8 0H152C156.418 0 160 3.58172 160 8V68.2667H0V8Z" fill="white"/>
</mask>
<g mask="url(#mask0)">
<mask id="mask1" mask-type="alpha" maskUnits="userSpaceOnUse" x="0" y="-1" width="161" height="70">
<path fill-rule="evenodd" clip-rule="evenodd" d="M0.0864868 68.0928H160.086V-0.173828H0.0864868V68.0928Z" fill="white"/>
</mask>
<g mask="url(#mask1)">
</g>
<g clip-path="url(#clip0)">
<path d="M189.004 -4.54869C179.707 -1.44851 174.363 -1.98543 169.113 -2.55399C163.769 -3.09092 158.741 -3.62789 149.823 -0.654241C140.906 2.3194 137.112 5.79839 133.254 9.40386C129.397 13.0093 125.444 16.6464 116.148 19.7466C106.851 22.8468 101.507 22.3099 96.2572 21.7413C90.9129 21.2044 85.8849 20.6674 76.9676 23.6411C67.9555 26.6464 64.256 30.0937 60.3985 33.6992C56.541 37.3047 52.5886 40.9418 43.2919 44.0419C33.9952 47.1421 28.6508 46.6052 23.4014 46.0366C18.0571 45.4997 13.029 44.9628 4.11173 47.9364C-4.90039 50.9417 -8.59983 54.389 -12.4574 57.9945C-16.3149 61.6 -20.2673 65.2371 -29.564 68.3373C-38.8607 71.4374 -44.205 70.9005 -49.4545 70.332C-54.7988 69.795 -59.8269 69.2581 -68.7441 72.2317C-69.1236 72.3583 -69.5031 72.1686 -69.6296 71.7891C-69.7562 71.4097 -69.5665 71.0302 -69.187 70.9036C-59.8903 67.8034 -54.546 68.3404 -49.2965 68.9089C-43.9522 69.4458 -38.9241 69.9828 -30.0069 67.0092C-21.0896 64.0355 -17.2953 60.5565 -13.4378 56.9511C-9.58027 53.3456 -5.62787 49.7085 3.66884 46.6083C12.9656 43.5081 18.3099 44.045 23.5593 44.6136C28.9036 45.1505 33.9317 45.6875 42.849 42.7138C51.8611 39.7086 55.5605 36.2612 59.4181 32.6557C63.2756 29.0503 67.228 25.4132 76.5247 22.313C85.8214 19.2128 91.1657 19.7497 96.4152 20.3183C101.76 20.8552 106.788 21.3922 115.705 18.4185C124.717 15.4132 128.416 11.9659 132.274 8.36042C136.131 4.75495 140.084 1.11784 149.381 -1.98234C158.677 -5.08252 164.022 -4.5456 169.271 -3.97704C174.615 -3.44012 179.643 -2.90315 188.561 -5.87679C197.573 -8.88207 201.272 -12.3294 205.13 -15.9349C208.987 -19.5404 212.94 -23.1775 222.236 -26.2777C222.616 -26.4042 222.995 -26.2145 223.122 -25.835C223.248 -25.4556 223.059 -25.0761 222.679 -24.9496C213.667 -21.9443 209.968 -18.4969 206.11 -14.8915C202.221 -11.3808 198.205 -7.61724 189.004 -4.54869Z" fill="#FF2F73" stroke="#FF2F73" stroke-width="2"/>
<path d="M183.752 -20.2962C174.456 -17.196 169.111 -17.7329 163.862 -18.3015C158.517 -18.8384 153.489 -19.3754 144.572 -16.4017C135.655 -13.4281 131.861 -9.94911 128.003 -6.34364C124.146 -2.73816 120.193 0.898946 110.896 3.99913C101.6 7.09931 96.2554 6.56239 91.0059 5.99383C85.6616 5.4569 80.6335 4.91994 71.7163 7.89358C62.7042 10.8989 59.0047 14.3462 55.1472 17.9517C51.2897 21.5572 47.3373 25.1943 38.0406 28.2944C28.7438 31.3946 23.3995 30.8577 18.1501 30.2891C12.8058 29.7522 7.77767 29.2153 -1.13959 32.1889C-10.1517 35.1942 -13.8511 38.6415 -17.7087 42.247C-21.5662 45.8525 -25.5186 49.4896 -34.8153 52.5898C-44.112 55.69 -49.4563 55.153 -54.7058 54.5845C-60.0501 54.0475 -65.0782 53.5106 -73.9955 56.4842C-74.3749 56.6108 -74.7544 56.4211 -74.8809 56.0416C-75.0075 55.6622 -74.8178 55.2827 -74.4383 55.1561C-65.1416 52.0559 -59.7973 52.5929 -54.5479 53.1614C-49.2035 53.6983 -44.1755 54.2353 -35.2582 51.2617C-26.3409 48.288 -22.5466 44.809 -18.6891 41.2036C-14.8316 37.5981 -10.8792 33.961 -1.58247 30.8608C7.71424 27.7606 13.0586 28.2975 18.308 28.8661C23.6523 29.403 28.6804 29.94 37.5977 26.9663C46.6098 23.9611 50.3092 20.5137 54.1668 16.9082C58.0243 13.3028 61.9767 9.66567 71.2734 6.56548C80.5701 3.4653 85.9144 4.00222 91.1639 4.57078C96.5082 5.10771 101.536 5.64467 110.454 2.67103C119.466 -0.334253 123.165 -3.7816 127.023 -7.38707C130.88 -10.9925 134.833 -14.6297 144.129 -17.7298C153.426 -20.83 158.77 -20.2931 164.02 -19.7245C169.364 -19.1876 174.392 -18.6506 183.309 -21.6243C192.322 -24.6296 196.021 -28.0769 199.878 -31.6824C203.736 -35.2879 207.688 -38.925 216.985 -42.0252C217.365 -42.1517 217.744 -41.962 217.871 -41.5825C217.997 -41.2031 217.807 -40.8236 217.428 -40.6971C208.416 -37.6918 204.716 -34.2444 200.859 -30.639C197.001 -27.0335 192.954 -23.3647 183.752 -20.2962Z" fill="#FF2F73" stroke="#FF2F73" stroke-width="2"/>
<path d="M178.659 -35.5694C169.362 -32.4692 164.018 -33.0061 158.769 -33.5747C153.424 -34.1116 148.396 -34.6486 139.479 -31.6749C130.562 -28.7013 126.767 -25.2223 122.91 -21.6168C119.052 -18.0113 115.1 -14.3742 105.803 -11.274C96.5065 -8.17385 91.1622 -8.71078 85.9128 -9.27934C80.5684 -9.81626 75.5404 -10.3532 66.6231 -7.37958C57.611 -4.3743 53.9116 -0.926965 50.054 2.67851C46.1965 6.28398 42.2441 9.9211 32.9474 13.0213C23.6507 16.1215 18.3064 15.5845 13.0569 15.016C7.61772 14.5107 2.58963 13.9737 -6.32762 16.9474C-15.3397 19.9527 -19.0392 23.4 -22.8967 27.0055C-26.7542 30.6109 -30.7066 34.248 -40.0033 37.3482C-49.3001 40.4484 -54.6444 39.9115 -59.8938 39.3429C-65.2381 38.806 -70.2662 38.269 -79.1835 41.2427C-79.6578 41.4009 -80.0373 41.2112 -80.1638 40.8317C-80.2904 40.4523 -80.1007 40.0728 -79.7212 39.9462C-70.4245 36.846 -65.0802 37.383 -59.8308 37.9515C-54.4864 38.4884 -49.4584 39.0254 -40.5411 36.0518C-31.6238 33.0781 -27.8295 29.5991 -23.972 25.9937C-20.1145 22.3882 -16.0672 18.7195 -6.7705 15.6193C2.52621 12.5191 7.87052 13.056 13.12 13.6246C18.4643 14.1615 23.4924 14.6985 32.4096 11.7248C41.4218 8.71953 45.1212 5.27219 48.9787 1.66672C52.8363 -1.93876 56.7886 -5.57587 66.0854 -8.67605C75.3821 -11.7762 80.7264 -11.2393 85.9758 -10.6707C91.3202 -10.1338 96.3483 -9.59686 105.266 -12.5705C114.278 -15.5758 117.977 -19.0231 121.835 -22.6286C125.692 -26.2341 129.645 -29.8712 138.941 -32.9714C148.238 -36.0716 153.582 -35.5346 158.832 -34.9661C164.176 -34.4291 169.204 -33.8922 178.121 -36.8658C187.133 -39.8711 190.833 -43.3184 194.69 -46.9239C198.548 -50.5294 202.5 -54.1665 211.797 -57.2667C212.177 -57.3932 212.556 -57.2035 212.683 -56.8241C212.809 -56.4446 212.619 -56.0651 212.24 -55.9386C203.228 -52.9333 199.528 -49.486 195.671 -45.8805C191.908 -42.3067 187.861 -38.6379 178.659 -35.5694Z" fill="#FF2F73" stroke="#FF2F73" stroke-width="2"/>
<path d="M204.093 40.7016C194.797 43.8018 189.452 43.2649 184.203 42.6963C178.858 42.1594 173.83 41.6224 164.913 44.5961C155.996 47.5697 152.202 51.0487 148.344 54.6542C144.487 58.2596 140.534 61.8967 131.237 64.9969C121.941 68.0971 116.596 67.5602 111.347 66.9916C106.003 66.4547 100.975 65.9177 92.0573 68.8914C83.0452 71.8967 79.3457 75.344 75.4882 78.9495C71.6307 82.555 67.6783 86.1921 58.3816 89.2922C49.0848 92.3924 43.7405 91.8555 38.4911 91.2869C33.1468 90.75 28.1187 90.2131 19.2014 93.1867C10.1893 96.192 6.48986 99.6393 2.63233 103.245C-1.22521 106.85 -5.1776 110.487 -14.4743 113.588C-23.771 116.688 -29.1153 116.151 -34.3648 115.582C-39.7091 115.045 -44.7372 114.508 -53.6544 117.482C-54.0339 117.609 -54.4134 117.419 -54.5399 117.039C-54.6665 116.66 -54.4768 116.28 -54.0973 116.154C-44.8006 113.054 -39.4563 113.591 -34.2069 114.159C-28.8625 114.696 -23.8345 115.233 -14.9172 112.259C-5.99994 109.286 -2.39537 105.87 1.46217 102.265C5.3197 98.6592 9.2721 95.0221 18.5688 91.9219C27.8655 88.8217 33.2098 89.3586 38.4593 89.9272C43.8036 90.4641 48.8317 91.0011 57.7489 88.0274C66.7611 85.0221 70.4605 81.5748 74.318 77.9693C78.1756 74.3638 82.128 70.7267 91.4247 67.6266C100.721 64.5264 106.066 65.0633 111.315 65.6319C116.659 66.1688 121.688 66.7057 130.605 63.7321C139.617 60.7268 143.316 57.2795 147.174 53.674C151.031 50.0685 154.984 46.4314 164.281 43.3312C173.577 40.231 178.922 40.768 184.171 41.3365C189.515 41.8735 194.543 42.4104 203.461 39.4368C212.473 36.4315 216.172 32.9842 220.03 29.3787C223.887 25.7732 227.84 22.1361 237.136 19.0359C237.516 18.9094 237.895 19.0991 238.022 19.4785C238.148 19.858 237.959 20.2375 237.579 20.364C228.567 23.3693 224.868 26.8166 221.01 30.4221C217.342 33.9643 213.295 37.6331 204.093 40.7016Z" fill="#FF2F73" stroke="#FF2F73" stroke-width="2"/>
<path d="M198.842 24.9541C189.545 28.0543 184.201 27.5174 178.951 26.9488C173.607 26.4119 168.579 25.8749 159.662 28.8486C150.745 31.8222 146.95 35.3012 143.093 38.9067C139.235 42.5122 135.283 46.1493 125.986 49.2494C116.689 52.3496 111.345 51.8127 106.096 51.2441C100.751 50.7072 95.7232 50.1702 86.806 53.1439C77.7938 56.1492 74.0944 59.5965 70.2369 63.202C66.3793 66.8075 62.4269 70.4446 53.1302 73.5448C43.8335 76.6449 38.4892 76.108 33.2397 75.5395C27.8954 75.0025 22.8673 74.4656 13.9501 77.4392C4.93797 80.4445 1.23853 83.8918 -2.619 87.4973C-6.47653 91.1028 -10.4289 94.7399 -19.7256 97.8401C-29.0224 100.94 -34.3667 100.403 -39.6161 99.8348C-44.9604 99.2979 -49.9885 98.7609 -58.9058 101.735C-59.4433 102.019 -59.8228 101.83 -59.9494 101.45C-60.0759 101.071 -59.8862 100.691 -59.5068 100.565C-50.21 97.4644 -44.8657 98.0013 -39.6163 98.5699C-34.272 99.1068 -29.2439 99.6438 -20.3266 96.6701C-11.4094 93.6965 -7.61506 90.2175 -3.75753 86.612C0.100003 83.0065 4.0524 79.3694 13.3491 76.2692C22.6458 73.1691 27.9901 73.706 33.2396 74.2746C38.5839 74.8115 43.612 75.3484 52.5292 72.3748C61.5414 69.3695 65.2408 65.9222 69.0983 62.3167C72.9559 58.7112 76.9083 55.0741 86.205 51.9739C95.5017 48.8737 100.846 49.4107 106.095 49.9792C111.44 50.5162 116.468 51.0531 125.385 48.0795C134.397 45.0742 138.097 41.6269 141.954 38.0214C145.812 34.4159 149.764 30.7788 159.061 27.6786C168.358 24.5784 173.702 25.1154 178.951 25.6839C184.296 26.2208 189.324 26.7578 198.241 23.7842C207.253 20.7789 210.953 17.3315 214.81 13.7261C218.668 10.1206 222.62 6.48348 231.917 3.38329C232.296 3.25676 232.676 3.44644 232.802 3.8259C232.929 4.20535 232.739 4.58486 232.36 4.7114C223.347 7.71668 219.648 11.164 215.791 14.7695C212.091 18.2168 208.044 21.8856 198.842 24.9541Z" fill="#FF2F73" stroke="#FF2F73" stroke-width="2"/>
<path d="M193.749 9.68098C184.452 12.7812 179.108 12.2442 173.858 11.6757C168.514 11.1388 163.486 10.6018 154.569 13.5754C145.651 16.5491 141.857 20.0281 138 23.6335C134.142 27.239 130.19 30.8761 120.893 33.9763C111.596 37.0765 106.252 36.5396 101.002 35.971C95.6581 35.4341 90.63 34.8971 81.7128 37.8708C72.7007 40.876 69.0012 44.3234 65.1437 47.9289C61.2862 51.5343 57.3338 55.1714 48.037 58.2716C38.7403 61.3718 33.396 60.8349 28.1466 60.2663C22.8022 59.7294 17.7742 59.1924 8.8569 62.1661C-0.155214 65.1714 -3.85465 68.6187 -7.71218 72.2242C-11.5697 75.8296 -15.5221 79.4668 -24.8188 82.5669C-34.1155 85.6671 -39.4599 85.1302 -44.7093 84.5616C-50.0536 84.0247 -55.0817 83.4877 -63.999 86.4614C-64.3784 86.5879 -64.7579 86.3982 -64.8845 86.0188C-65.011 85.6393 -64.8213 85.2598 -64.4418 85.1333C-55.1451 82.0331 -49.8008 82.57 -44.5514 83.1386C-39.2071 83.6755 -34.179 84.2125 -25.2617 81.2388C-16.3445 78.2652 -12.5502 74.7862 -8.69262 71.1807C-4.83509 67.5753 -0.88269 63.9382 8.41402 60.838C17.7107 57.7378 23.055 58.2747 28.3045 58.8433C33.6488 59.3802 38.6769 59.9172 47.5942 56.9435C56.6063 53.9382 60.3057 50.4909 64.1633 46.8854C68.0208 43.2799 71.9732 39.6428 81.2699 36.5427C90.5666 33.4425 95.9109 33.9794 101.16 34.548C106.505 35.0849 111.533 35.6218 120.45 32.6482C129.462 29.6429 133.162 26.1956 137.019 22.5901C140.877 18.9846 144.829 15.3475 154.126 12.2473C163.422 9.14715 168.767 9.68407 174.016 10.2526C179.361 10.7896 184.389 11.3265 193.306 8.35288C202.318 5.3476 206.017 1.90026 209.875 -1.70522C213.733 -5.31069 217.685 -8.9478 226.982 -12.048C227.361 -12.1745 227.741 -11.9848 227.867 -11.6054C227.994 -11.2259 227.804 -10.8464 227.424 -10.7199C218.412 -7.7146 214.713 -4.26726 210.855 -0.661784C206.998 2.94369 202.951 6.61243 193.749 9.68098Z" fill="#FF2F73" stroke="#FF2F73" stroke-width="2"/>
</g>
</g>
<defs>
<clipPath id="clip0">
<rect width="308.8" height="90.5" fill="white" transform="translate(-80.3853 40.1677) rotate(-18.442)"/>
</clipPath>
</defs>
</svg>
