<svg width="32" height="32" viewBox="0 0 32 32" fill="none" xmlns="http://www.w3.org/2000/svg">
<path d="M28 16C28 9.375 22.625 4 16 4C9.375 4 4 9.375 4 16C4 22.625 9.375 28 16 28C22.625 28 28 22.625 28 16Z" stroke="#4376FF" stroke-width="1.5" stroke-miterlimit="10"/>
<path d="M15.641 10.3782L15.9998 18.0001L16.3579 10.3782C16.3601 10.3295 16.3523 10.2808 16.3351 10.2352C16.3179 10.1895 16.2915 10.1479 16.2577 10.1128C16.2238 10.0777 16.1831 10.0499 16.1381 10.031C16.0931 10.0122 16.0448 10.0027 15.996 10.0032V10.0032C15.9478 10.0036 15.9002 10.0138 15.856 10.0331C15.8118 10.0523 15.772 10.0803 15.7389 10.1153C15.7057 10.1503 15.68 10.1916 15.6632 10.2368C15.6463 10.282 15.6388 10.33 15.641 10.3782V10.3782Z" stroke="#4376FF" stroke-width="1.5" stroke-linecap="round" stroke-linejoin="round"/>
<path d="M16 22.9945C15.7528 22.9945 15.5111 22.9212 15.3055 22.7838C15.1 22.6465 14.9398 22.4513 14.8452 22.2229C14.7505 21.9944 14.7258 21.7431 14.774 21.5006C14.8223 21.2582 14.9413 21.0354 15.1161 20.8606C15.2909 20.6858 15.5137 20.5668 15.7561 20.5185C15.9986 20.4703 16.25 20.495 16.4784 20.5897C16.7068 20.6843 16.902 20.8445 17.0393 21.05C17.1767 21.2556 17.25 21.4973 17.25 21.7445C17.25 22.076 17.1183 22.394 16.8839 22.6284C16.6495 22.8628 16.3315 22.9945 16 22.9945Z" fill="#4376FF"/>
</svg>
