<svg width="32" height="32" viewBox="0 0 32 32" fill="none" xmlns="http://www.w3.org/2000/svg">
<path d="M28.2731 3.72687C27.7985 3.25232 27.1549 2.98572 26.4837 2.98572C25.8126 2.98572 25.169 3.25232 24.6944 3.72687L11.5 18.4212C12.9425 18.715 14.3825 20.1269 14.5787 21.5L28.2731 7.30562C28.7477 6.83104 29.0143 6.18739 29.0143 5.51625C29.0143 4.84511 28.7477 4.20145 28.2731 3.72687V3.72687Z" stroke="#4376FF" stroke-width="1.5" stroke-linecap="round" stroke-linejoin="round"/>
<path d="M8.625 21C6.7575 21 5.25 22.5312 5.25 24.4287C5.25 25.9256 3.945 26.7144 3 26.7144C4.035 28.1087 5.80125 29 7.5 29C9.98625 29 12 26.9544 12 24.4287C12 22.5312 10.4925 21 8.625 21Z" stroke="#4376FF" stroke-width="1.5" stroke-linecap="round" stroke-linejoin="round"/>
</svg>
