<svg width="32" height="32" viewBox="0 0 32 32" fill="none" xmlns="http://www.w3.org/2000/svg">
<path d="M27.6 10.7253L16.6794 5.33534C16.4681 5.2311 16.2356 5.17688 16 5.17688C15.7644 5.17688 15.5319 5.2311 15.3206 5.33534L4.4 10.7253C3.98134 10.9305 3.62838 11.2486 3.38099 11.6437C3.1336 12.0389 3.00163 12.4954 3 12.9616V24.4997C3 25.8803 4.13375 26.9997 5.5325 26.9997H26.47C27.8687 26.9997 29.0025 25.8803 29.0025 24.4997V12.9616C29.0006 12.4951 28.8683 12.0385 28.6205 11.6433C28.3726 11.2481 28.0191 10.9301 27.6 10.7253V10.7253Z" stroke="#4376FF" stroke-width="1.5" stroke-linecap="round" stroke-linejoin="round"/>
<path d="M24.8333 22.9998L16.7545 16.716C16.4912 16.5112 16.1671 16.4 15.8336 16.4C15.5 16.4 15.1759 16.5112 14.9126 16.716L6.83325 22.9998" stroke="#4376FF" stroke-width="1.5" stroke-linecap="round" stroke-linejoin="round"/>
<path d="M19.333 18.4375L27.833 12" stroke="#4376FF" stroke-width="1.5" stroke-linecap="round" stroke-linejoin="round"/>
<path d="M3.83325 12L12.5208 18.5625" stroke="#4376FF" stroke-width="1.5" stroke-linecap="round" stroke-linejoin="round"/>
</svg>
