<svg width="32" height="32" viewBox="0 0 32 32" fill="none" xmlns="http://www.w3.org/2000/svg">
<path d="M27.1669 17.8492V15.9867C27.1669 9.81607 22.1519 4.81233 15.9669 4.81233C14.2844 4.81026 12.623 5.18772 11.1066 5.91663C9.59009 6.64554 8.25756 7.70712 7.20817 9.02233M4.80005 14.1473V16.0098C4.80005 22.1873 9.81255 27.1873 16 27.1873C17.6778 27.1849 19.3339 26.8082 20.8476 26.0846C22.3613 25.3611 23.6945 24.3089 24.75 23.0048" stroke="#4376FF" stroke-width="1.5" stroke-linecap="round" stroke-linejoin="round"/>
<path d="M2 16L4.75 13.25L7.625 16" stroke="#4376FF" stroke-width="1.5" stroke-linecap="round" stroke-linejoin="round"/>
<path d="M30 16L27.25 18.75L24.375 16" fill="#4376FF"/>
<path d="M30 16L27.25 18.75L24.375 16" stroke="#4376FF" stroke-width="1.5" stroke-linecap="round" stroke-linejoin="round"/>
</svg>
