<svg width="32" height="32" viewBox="0 0 32 32" fill="none" xmlns="http://www.w3.org/2000/svg">
<path d="M19.6383 30.145L16.0901 22.9737L13.2845 19.3869C12.87 18.6856 12.6514 17.8859 12.6514 17.0712V9H13.6307C13.9609 8.99992 14.2879 9.06488 14.5929 9.19117C14.898 9.31746 15.1752 9.50261 15.4086 9.73604C15.6421 9.96947 15.8274 10.2466 15.9537 10.5516C16.0801 10.8567 16.1451 11.1836 16.1451 11.5137V22.9737" stroke="#4376FF" stroke-width="1.5" stroke-linecap="round" stroke-linejoin="round"/>
<path d="M7.99365 18.3156V13.6581C7.99365 13.6581 10.3224 9 12.6512 9" stroke="#4376FF" stroke-width="1.5" stroke-linecap="round" stroke-linejoin="round"/>
<path d="M23.1313 17.1513L19 14.4375" stroke="#4376FF" stroke-width="1.5" stroke-linecap="round" stroke-linejoin="round"/>
<path d="M10.6582 29.8975L14.0001 25" stroke="#4376FF" stroke-width="1.5" stroke-linecap="round" stroke-linejoin="round"/>
<path d="M16.1452 6.67032C17.4313 6.67032 18.4739 5.6277 18.4739 4.34157C18.4739 3.05543 17.4313 2.01282 16.1452 2.01282C14.859 2.01282 13.8164 3.05543 13.8164 4.34157C13.8164 5.6277 14.859 6.67032 16.1452 6.67032Z" stroke="#4376FF" stroke-width="1.5" stroke-linecap="round" stroke-linejoin="round"/>
</svg>
