<svg width="360" height="640" viewBox="0 0 360 640" fill="none" xmlns="http://www.w3.org/2000/svg">
<rect width="360" height="640" fill="#F7BE69"/>
<mask id="mask0" mask-type="alpha" maskUnits="userSpaceOnUse" x="0" y="0" width="360" height="640">
<rect width="360" height="640" fill="#C8F7F3"/>
</mask>
<g mask="url(#mask0)">
<g style="mix-blend-mode:color-burn" opacity="0.3">
<mask id="mask1" mask-type="alpha" maskUnits="userSpaceOnUse" x="-62" y="69" width="521" height="559">
<path fill-rule="evenodd" clip-rule="evenodd" d="M5.3865 495.12L385.096 364.58C395.147 361.125 400.503 350.172 397.058 340.117L338.581 169.443L133.289 69.0611L-39.7123 422.868L-19.0506 483.171C-17.3283 488.198 -13.7319 492.05 -9.30945 494.213C-4.88802 496.375 0.36063 496.847 5.3865 495.12Z" fill="white"/>
</mask>
<g mask="url(#mask1)">
<path fill-rule="evenodd" clip-rule="evenodd" d="M236.775 502.355L203.315 514.435C202.956 514.565 202.766 514.966 202.897 515.325L208.124 529.853C208.254 530.212 208.654 530.399 209.013 530.271L242.474 518.189C242.833 518.06 243.021 517.659 242.893 517.299L237.664 502.773C237.534 502.413 237.135 502.225 236.775 502.355Z" fill="#976110"/>
</g>
<mask id="mask2" mask-type="alpha" maskUnits="userSpaceOnUse" x="-62" y="69" width="521" height="559">
<path fill-rule="evenodd" clip-rule="evenodd" d="M5.3865 495.12L385.096 364.58C395.147 361.125 400.503 350.172 397.058 340.117L338.581 169.443L133.289 69.0611L-39.7123 422.868L-19.0506 483.171C-17.3283 488.198 -13.7319 492.05 -9.30945 494.213C-4.88802 496.375 0.36063 496.847 5.3865 495.12Z" fill="white"/>
</mask>
<g mask="url(#mask2)">
<path fill-rule="evenodd" clip-rule="evenodd" d="M68.4397 395.592L36.2619 380.466C35.9166 380.304 35.5011 380.454 35.3382 380.801L28.7654 394.78C28.6029 395.125 28.7529 395.542 29.0981 395.705L61.276 410.831C61.6223 410.994 62.0383 410.843 62.2007 410.497L68.7725 396.517C68.9354 396.171 68.7849 395.755 68.4397 395.592Z" fill="#976110"/>
</g>
<mask id="mask3" mask-type="alpha" maskUnits="userSpaceOnUse" x="-62" y="69" width="521" height="559">
<path fill-rule="evenodd" clip-rule="evenodd" d="M5.3865 495.12L385.096 364.58C395.147 361.125 400.503 350.172 397.058 340.117L338.581 169.443L133.289 69.0611L-39.7123 422.868L-19.0506 483.171C-17.3283 488.198 -13.7319 492.05 -9.30945 494.213C-4.88802 496.375 0.36063 496.847 5.3865 495.12Z" fill="white"/>
</mask>
<g mask="url(#mask3)">
<path fill-rule="evenodd" clip-rule="evenodd" d="M328.635 280.298L313.492 312.509C313.329 312.855 313.479 313.271 313.825 313.433L327.79 319.998C328.135 320.161 328.552 320.011 328.715 319.665L343.857 287.454C344.02 287.108 343.87 286.691 343.525 286.529L329.559 279.965C329.213 279.802 328.797 279.953 328.635 280.298Z" fill="#976110"/>
</g>
<mask id="mask4" mask-type="alpha" maskUnits="userSpaceOnUse" x="-62" y="69" width="521" height="559">
<path fill-rule="evenodd" clip-rule="evenodd" d="M5.3865 495.12L385.096 364.58C395.147 361.125 400.503 350.172 397.058 340.117L338.581 169.443L133.289 69.0611L-39.7123 422.868L-19.0506 483.171C-17.3283 488.198 -13.7319 492.05 -9.30945 494.213C-4.88802 496.375 0.36063 496.847 5.3865 495.12Z" fill="white"/>
</mask>
<g mask="url(#mask4)">
<path fill-rule="evenodd" clip-rule="evenodd" d="M132.721 430.734L106.747 428.892C102.039 428.558 97.917 432.134 97.5871 436.837L97.4114 439.337C97.0821 444.041 100.665 448.164 105.373 448.498L131.347 450.34C136.054 450.674 140.178 447.098 140.507 442.394L140.682 439.895C141.012 435.191 137.43 431.068 132.721 430.734Z" fill="#976110"/>
</g>
<mask id="mask5" mask-type="alpha" maskUnits="userSpaceOnUse" x="-62" y="69" width="521" height="559">
<path fill-rule="evenodd" clip-rule="evenodd" d="M5.3865 495.12L385.096 364.58C395.147 361.125 400.503 350.172 397.058 340.117L338.581 169.443L133.289 69.0611L-39.7123 422.868L-19.0506 483.171C-17.3283 488.198 -13.7319 492.05 -9.30945 494.213C-4.88802 496.375 0.36063 496.847 5.3865 495.12Z" fill="white"/>
</mask>
<g mask="url(#mask5)">
<path fill-rule="evenodd" clip-rule="evenodd" d="M374.566 226.599L372.745 252.555C372.416 257.259 375.999 261.382 380.707 261.716L383.207 261.894C387.914 262.228 392.036 258.652 392.367 253.947L394.186 227.991C394.517 223.287 390.934 219.164 386.225 218.83L383.726 218.654C379.018 218.32 374.896 221.895 374.566 226.599Z" fill="#976110"/>
</g>
<mask id="mask6" mask-type="alpha" maskUnits="userSpaceOnUse" x="-62" y="69" width="521" height="559">
<path fill-rule="evenodd" clip-rule="evenodd" d="M5.3865 495.12L385.096 364.58C395.147 361.125 400.503 350.172 397.058 340.117L338.581 169.443L133.289 69.0611L-39.7123 422.868L-19.0506 483.171C-17.3283 488.198 -13.7319 492.05 -9.30945 494.213C-4.88802 496.375 0.36063 496.847 5.3865 495.12Z" fill="white"/>
</mask>
<g mask="url(#mask6)">
<path fill-rule="evenodd" clip-rule="evenodd" d="M262.236 388.394L242.582 405.445C239.019 408.535 238.638 413.978 241.733 417.541L243.377 419.432C246.473 422.995 251.922 423.382 255.484 420.292L275.139 403.241C278.701 400.151 279.082 394.706 275.987 391.144L274.343 389.253C271.247 385.69 265.798 385.303 262.236 388.394Z" fill="#976110"/>
</g>
<mask id="mask7" mask-type="alpha" maskUnits="userSpaceOnUse" x="-62" y="69" width="521" height="559">
<path fill-rule="evenodd" clip-rule="evenodd" d="M5.3865 495.12L385.096 364.58C395.147 361.125 400.503 350.172 397.058 340.117L338.581 169.443L133.289 69.0611L-39.7123 422.868L-19.0506 483.171C-17.3283 488.198 -13.7319 492.05 -9.30945 494.213C-4.88802 496.375 0.36063 496.847 5.3865 495.12Z" fill="white"/>
</mask>
<g mask="url(#mask7)">
<path fill-rule="evenodd" clip-rule="evenodd" d="M130.018 382.492L102.969 382.896C102.678 382.9 102.444 383.141 102.448 383.432L102.614 395.179C102.618 395.47 102.859 395.704 103.149 395.7L130.199 395.296C130.49 395.292 130.724 395.051 130.72 394.76L130.554 383.013C130.55 382.722 130.309 382.488 130.018 382.492Z" fill="#976110"/>
</g>
<mask id="mask8" mask-type="alpha" maskUnits="userSpaceOnUse" x="-62" y="69" width="521" height="559">
<path fill-rule="evenodd" clip-rule="evenodd" d="M5.3865 495.12L385.096 364.58C395.147 361.125 400.503 350.172 397.058 340.117L338.581 169.443L133.289 69.0611L-39.7123 422.868L-19.0506 483.171C-17.3283 488.198 -13.7319 492.05 -9.30945 494.213C-4.88802 496.375 0.36063 496.847 5.3865 495.12Z" fill="white"/>
</mask>
<g mask="url(#mask8)">
<path fill-rule="evenodd" clip-rule="evenodd" d="M283.793 197.291L284.174 224.357C284.178 224.648 284.419 224.882 284.709 224.878L296.449 224.702C296.739 224.698 296.974 224.457 296.97 224.166L296.589 197.1C296.585 196.809 296.344 196.575 296.053 196.579L284.314 196.754C284.023 196.759 283.789 197 283.793 197.291Z" fill="#976110"/>
</g>
<mask id="mask9" mask-type="alpha" maskUnits="userSpaceOnUse" x="-62" y="69" width="521" height="559">
<path fill-rule="evenodd" clip-rule="evenodd" d="M5.3865 495.12L385.096 364.58C395.147 361.125 400.503 350.172 397.058 340.117L338.581 169.443L133.289 69.0611L-39.7123 422.868L-19.0506 483.171C-17.3283 488.198 -13.7319 492.05 -9.30945 494.213C-4.88802 496.375 0.36063 496.847 5.3865 495.12Z" fill="white"/>
</mask>
<g mask="url(#mask9)">
<path fill-rule="evenodd" clip-rule="evenodd" d="M158.61 71.8117L131.562 71.384C131.272 71.3793 131.037 71.1378 131.042 70.8473L131.238 59.1009C131.243 58.8094 131.484 58.5755 131.775 58.5801L158.823 59.0078C159.113 59.0125 159.348 59.2541 159.343 59.5446L159.147 71.2909C159.143 71.5819 158.9 71.8164 158.61 71.8117Z" fill="#976110"/>
</g>
<mask id="mask10" mask-type="alpha" maskUnits="userSpaceOnUse" x="-62" y="69" width="521" height="559">
<path fill-rule="evenodd" clip-rule="evenodd" d="M5.3865 495.12L385.096 364.58C395.147 361.125 400.503 350.172 397.058 340.117L338.581 169.443L133.289 69.0611L-39.7123 422.868L-19.0506 483.171C-17.3283 488.198 -13.7319 492.05 -9.30945 494.213C-4.88802 496.375 0.36063 496.847 5.3865 495.12Z" fill="white"/>
</mask>
<g mask="url(#mask10)">
<path fill-rule="evenodd" clip-rule="evenodd" d="M19.3302 337.019L-0.0654474 318.165C-0.273457 317.963 -0.610425 317.968 -0.812866 318.177L-8.99737 326.606C-9.19981 326.815 -9.19487 327.152 -8.98686 327.354L10.4088 346.207C10.6178 346.41 10.9537 346.405 11.1562 346.196L19.3407 337.766C19.5436 337.557 19.5382 337.221 19.3302 337.019Z" fill="#976110"/>
</g>
<mask id="mask11" mask-type="alpha" maskUnits="userSpaceOnUse" x="-62" y="69" width="521" height="559">
<path fill-rule="evenodd" clip-rule="evenodd" d="M5.3865 495.12L385.096 364.58C395.147 361.125 400.503 350.172 397.058 340.117L338.581 169.443L133.289 69.0611L-39.7123 422.868L-19.0506 483.171C-17.3283 488.198 -13.7319 492.05 -9.30945 494.213C-4.88802 496.375 0.36063 496.847 5.3865 495.12Z" fill="white"/>
</mask>
<g mask="url(#mask11)">
<path fill-rule="evenodd" clip-rule="evenodd" d="M258.85 314.759L239.993 334.182C239.79 334.39 239.795 334.728 240.003 334.93L248.421 343.113C248.629 343.315 248.966 343.31 249.168 343.102L268.026 323.677C268.228 323.469 268.223 323.133 268.015 322.93L259.597 314.748C259.389 314.545 259.052 314.55 258.85 314.759Z" fill="#976110"/>
</g>
<mask id="mask12" mask-type="alpha" maskUnits="userSpaceOnUse" x="-62" y="69" width="521" height="559">
<path fill-rule="evenodd" clip-rule="evenodd" d="M5.3865 495.12L385.096 364.58C395.147 361.125 400.503 350.172 397.058 340.117L338.581 169.443L133.289 69.0611L-39.7123 422.868L-19.0506 483.171C-17.3283 488.198 -13.7319 492.05 -9.30945 494.213C-4.88802 496.375 0.36063 496.847 5.3865 495.12Z" fill="white"/>
</mask>
<g mask="url(#mask12)">
<path fill-rule="evenodd" clip-rule="evenodd" d="M259.076 137.384L240.268 117.944C240.066 117.735 240.072 117.398 240.28 117.197L248.719 109.022C248.928 108.819 249.264 108.824 249.466 109.033L268.274 128.474C268.476 128.682 268.471 129.02 268.261 129.222L259.822 137.396C259.613 137.599 259.278 137.593 259.076 137.384Z" fill="#976110"/>
</g>
<mask id="mask13" mask-type="alpha" maskUnits="userSpaceOnUse" x="-62" y="69" width="521" height="559">
<path fill-rule="evenodd" clip-rule="evenodd" d="M5.3865 495.12L385.096 364.58C395.147 361.125 400.503 350.172 397.058 340.117L338.581 169.443L133.289 69.0611L-39.7123 422.868L-19.0506 483.171C-17.3283 488.198 -13.7319 492.05 -9.30945 494.213C-4.88802 496.375 0.36063 496.847 5.3865 495.12Z" fill="white"/>
</mask>
<g mask="url(#mask13)">
<path fill-rule="evenodd" clip-rule="evenodd" d="M93.0874 317.959L77.1762 311.89C77.005 311.826 76.8126 311.912 76.7474 312.083L74.1096 318.995C74.0439 319.167 74.1311 319.36 74.3017 319.425L90.2119 325.493C90.3836 325.559 90.5765 325.471 90.6418 325.3L93.2795 318.389C93.3452 318.217 93.258 318.024 93.0874 317.959Z" fill="#976110"/>
</g>
<mask id="mask14" mask-type="alpha" maskUnits="userSpaceOnUse" x="-62" y="69" width="521" height="559">
<path fill-rule="evenodd" clip-rule="evenodd" d="M5.3865 495.12L385.096 364.58C395.147 361.125 400.503 350.172 397.058 340.117L338.581 169.443L133.289 69.0611L-39.7123 422.868L-19.0506 483.171C-17.3283 488.198 -13.7319 492.05 -9.30945 494.213C-4.88802 496.375 0.36063 496.847 5.3865 495.12Z" fill="white"/>
</mask>
<g mask="url(#mask14)">
<path fill-rule="evenodd" clip-rule="evenodd" d="M182.119 142.828L166.402 136.274C166.233 136.203 166.152 136.008 166.223 135.839L169.072 129.012C169.141 128.842 169.338 128.761 169.507 128.832L185.224 135.386C185.392 135.456 185.473 135.652 185.403 135.822L182.554 142.649C182.483 142.818 182.288 142.899 182.119 142.828Z" fill="#976110"/>
</g>
<mask id="mask15" mask-type="alpha" maskUnits="userSpaceOnUse" x="-62" y="69" width="521" height="559">
<path fill-rule="evenodd" clip-rule="evenodd" d="M5.3865 495.12L385.096 364.58C395.147 361.125 400.503 350.172 397.058 340.117L338.581 169.443L133.289 69.0611L-39.7123 422.868L-19.0506 483.171C-17.3283 488.198 -13.7319 492.05 -9.30945 494.213C-4.88802 496.375 0.36063 496.847 5.3865 495.12Z" fill="white"/>
</mask>
<g mask="url(#mask15)">
<path fill-rule="evenodd" clip-rule="evenodd" d="M184.189 308.349L168.641 315.32C168.474 315.395 168.398 315.592 168.473 315.76L171.491 322.509C171.566 322.677 171.763 322.752 171.931 322.677L187.479 315.706C187.645 315.632 187.721 315.434 187.647 315.266L184.628 308.517C184.553 308.349 184.356 308.274 184.189 308.349Z" fill="#976110"/>
</g>
<mask id="mask16" mask-type="alpha" maskUnits="userSpaceOnUse" x="-62" y="69" width="521" height="559">
<path fill-rule="evenodd" clip-rule="evenodd" d="M5.3865 495.12L385.096 364.58C395.147 361.125 400.503 350.172 397.058 340.117L338.581 169.443L133.289 69.0611L-39.7123 422.868L-19.0506 483.171C-17.3283 488.198 -13.7319 492.05 -9.30945 494.213C-4.88802 496.375 0.36063 496.847 5.3865 495.12Z" fill="white"/>
</mask>
<g mask="url(#mask16)">
<path fill-rule="evenodd" clip-rule="evenodd" d="M38.9452 265.554L31.9912 250.002C31.9163 249.834 31.7188 249.76 31.552 249.834L24.8042 252.86C24.6369 252.935 24.5614 253.132 24.6363 253.299L31.5903 268.851C31.6641 269.018 31.8622 269.094 32.0295 269.019L38.7772 265.993C38.9446 265.918 39.0201 265.721 38.9452 265.554Z" fill="#976110"/>
</g>
<mask id="mask17" mask-type="alpha" maskUnits="userSpaceOnUse" x="-62" y="69" width="521" height="559">
<path fill-rule="evenodd" clip-rule="evenodd" d="M5.3865 495.12L385.096 364.58C395.147 361.125 400.503 350.172 397.058 340.117L338.581 169.443L133.289 69.0611L-39.7123 422.868L-19.0506 483.171C-17.3283 488.198 -13.7319 492.05 -9.30945 494.213C-4.88802 496.375 0.36063 496.847 5.3865 495.12Z" fill="white"/>
</mask>
<g mask="url(#mask17)">
<path fill-rule="evenodd" clip-rule="evenodd" d="M225.606 204.612L219.133 188.853C219.063 188.684 219.144 188.488 219.314 188.418L226.152 185.601C226.32 185.532 226.515 185.613 226.586 185.782L233.058 201.541C233.128 201.711 233.046 201.906 232.877 201.976L226.04 204.792C225.871 204.863 225.676 204.781 225.606 204.612Z" fill="#976110"/>
</g>
<mask id="mask18" mask-type="alpha" maskUnits="userSpaceOnUse" x="-62" y="69" width="521" height="559">
<path fill-rule="evenodd" clip-rule="evenodd" d="M5.3865 495.12L385.096 364.58C395.147 361.125 400.503 350.172 397.058 340.117L338.581 169.443L133.289 69.0611L-39.7123 422.868L-19.0506 483.171C-17.3283 488.198 -13.7319 492.05 -9.30945 494.213C-4.88802 496.375 0.36063 496.847 5.3865 495.12Z" fill="white"/>
</mask>
<g mask="url(#mask18)">
<path fill-rule="evenodd" clip-rule="evenodd" d="M86.4809 536.935L66.2977 544.222C65.9517 544.347 65.7702 544.732 65.8954 545.077L68.9574 553.585C69.081 553.931 69.4657 554.111 69.8117 553.986L89.9949 546.699C90.3403 546.575 90.5208 546.19 90.3971 545.844L87.3347 537.336C87.211 536.991 86.8268 536.81 86.4809 536.935Z" fill="#B67B24"/>
</g>
<mask id="mask19" mask-type="alpha" maskUnits="userSpaceOnUse" x="-62" y="69" width="521" height="559">
<path fill-rule="evenodd" clip-rule="evenodd" d="M5.3865 495.12L385.096 364.58C395.147 361.125 400.503 350.172 397.058 340.117L338.581 169.443L133.289 69.0611L-39.7123 422.868L-19.0506 483.171C-17.3283 488.198 -13.7319 492.05 -9.30945 494.213C-4.88802 496.375 0.36063 496.847 5.3865 495.12Z" fill="white"/>
</mask>
<g mask="url(#mask19)">
<path fill-rule="evenodd" clip-rule="evenodd" d="M189.185 304.745L196.451 324.935C196.576 325.281 196.96 325.462 197.305 325.337L205.811 322.266C206.156 322.142 206.337 321.757 206.212 321.411L198.946 301.22C198.822 300.875 198.437 300.695 198.092 300.819L189.587 303.89C189.242 304.014 189.06 304.399 189.185 304.745Z" fill="#B67B24"/>
</g>
<mask id="mask20" mask-type="alpha" maskUnits="userSpaceOnUse" x="-62" y="69" width="521" height="559">
<path fill-rule="evenodd" clip-rule="evenodd" d="M5.3865 495.12L385.096 364.58C395.147 361.125 400.503 350.172 397.058 340.117L338.581 169.443L133.289 69.0611L-39.7123 422.868L-19.0506 483.171C-17.3283 488.198 -13.7319 492.05 -9.30945 494.213C-4.88802 496.375 0.36063 496.847 5.3865 495.12Z" fill="white"/>
</mask>
<g mask="url(#mask20)">
<path fill-rule="evenodd" clip-rule="evenodd" d="M143.251 400.135L134.117 419.564C133.96 419.897 134.104 420.297 134.436 420.453L142.615 424.298C142.947 424.454 143.347 424.309 143.503 423.976L152.638 404.547C152.794 404.214 152.65 403.814 152.318 403.658L144.139 399.813C143.807 399.657 143.407 399.802 143.251 400.135Z" fill="#B67B24"/>
</g>
<mask id="mask21" mask-type="alpha" maskUnits="userSpaceOnUse" x="-62" y="69" width="521" height="559">
<path fill-rule="evenodd" clip-rule="evenodd" d="M5.3865 495.12L385.096 364.58C395.147 361.125 400.503 350.172 397.058 340.117L338.581 169.443L133.289 69.0611L-39.7123 422.868L-19.0506 483.171C-17.3283 488.198 -13.7319 492.05 -9.30945 494.213C-4.88802 496.375 0.36063 496.847 5.3865 495.12Z" fill="white"/>
</mask>
<g mask="url(#mask21)">
<path fill-rule="evenodd" clip-rule="evenodd" d="M83.3078 278.467L64.1878 268.75C63.8599 268.584 63.7284 268.18 63.8952 267.852L67.993 259.787C68.1598 259.459 68.5639 259.328 68.8913 259.494L88.0118 269.21C88.3392 269.376 88.4707 269.781 88.304 270.108L84.2062 278.174C84.0394 278.501 83.6352 278.633 83.3078 278.467Z" fill="#B67B24"/>
</g>
<mask id="mask22" mask-type="alpha" maskUnits="userSpaceOnUse" x="-62" y="69" width="521" height="559">
<path fill-rule="evenodd" clip-rule="evenodd" d="M5.3865 495.12L385.096 364.58C395.147 361.125 400.503 350.172 397.058 340.117L338.581 169.443L133.289 69.0611L-39.7123 422.868L-19.0506 483.171C-17.3283 488.198 -13.7319 492.05 -9.30945 494.213C-4.88802 496.375 0.36063 496.847 5.3865 495.12Z" fill="white"/>
</mask>
<g mask="url(#mask22)">
<path fill-rule="evenodd" clip-rule="evenodd" d="M22.5391 492.687L6.52149 491.551C3.61895 491.345 1.0764 493.55 0.87307 496.451L0.764825 497.992C0.562038 500.894 2.7704 503.436 5.67452 503.641L21.6916 504.777C24.5957 504.983 27.1367 502.778 27.3405 499.877L27.4488 498.336C27.6521 495.435 25.4427 492.893 22.5391 492.687Z" fill="#B67B24"/>
</g>
<mask id="mask23" mask-type="alpha" maskUnits="userSpaceOnUse" x="-62" y="69" width="521" height="559">
<path fill-rule="evenodd" clip-rule="evenodd" d="M5.3865 495.12L385.096 364.58C395.147 361.125 400.503 350.172 397.058 340.117L338.581 169.443L133.289 69.0611L-39.7123 422.868L-19.0506 483.171C-17.3283 488.198 -13.7319 492.05 -9.30945 494.213C-4.88802 496.375 0.36063 496.847 5.3865 495.12Z" fill="white"/>
</mask>
<g mask="url(#mask23)">
<path fill-rule="evenodd" clip-rule="evenodd" d="M171.677 366.803L170.555 382.809C170.351 385.71 172.56 388.253 175.464 388.459L177.006 388.568C179.909 388.774 182.451 386.569 182.654 383.668L183.776 367.663C183.98 364.761 181.771 362.219 178.867 362.013L177.326 361.903C174.422 361.697 171.881 363.903 171.677 366.803Z" fill="#B67B24"/>
</g>
<mask id="mask24" mask-type="alpha" maskUnits="userSpaceOnUse" x="-62" y="69" width="521" height="559">
<path fill-rule="evenodd" clip-rule="evenodd" d="M5.3865 495.12L385.096 364.58C395.147 361.125 400.503 350.172 397.058 340.117L338.581 169.443L133.289 69.0611L-39.7123 422.868L-19.0506 483.171C-17.3283 488.198 -13.7319 492.05 -9.30945 494.213C-4.88802 496.375 0.36063 496.847 5.3865 495.12Z" fill="white"/>
</mask>
<g mask="url(#mask24)">
<path fill-rule="evenodd" clip-rule="evenodd" d="M102.407 466.577L90.2859 477.091C88.0894 478.998 87.8547 482.355 89.7631 484.551L90.7771 485.718C92.6865 487.914 96.046 488.153 98.2436 486.247L110.363 475.732C112.56 473.826 112.795 470.47 110.886 468.273L109.873 467.107C107.964 464.91 104.603 464.671 102.407 466.577Z" fill="#B67B24"/>
</g>
<mask id="mask25" mask-type="alpha" maskUnits="userSpaceOnUse" x="-62" y="69" width="521" height="559">
<path fill-rule="evenodd" clip-rule="evenodd" d="M5.3865 495.12L385.096 364.58C395.147 361.125 400.503 350.172 397.058 340.117L338.581 169.443L133.289 69.0611L-39.7123 422.868L-19.0506 483.171C-17.3283 488.198 -13.7319 492.05 -9.30945 494.213C-4.88802 496.375 0.36063 496.847 5.3865 495.12Z" fill="white"/>
</mask>
<g mask="url(#mask25)">
<path fill-rule="evenodd" clip-rule="evenodd" d="M150.402 299.813L140.246 287.375C138.406 285.12 138.744 281.773 140.998 279.936L142.195 278.96C144.45 277.122 147.801 277.463 149.643 279.718L159.798 292.156C161.639 294.411 161.3 297.759 159.046 299.596L157.848 300.571C155.593 302.409 152.242 302.067 150.402 299.813Z" fill="#B67B24"/>
</g>
<mask id="mask26" mask-type="alpha" maskUnits="userSpaceOnUse" x="-62" y="69" width="521" height="559">
<path fill-rule="evenodd" clip-rule="evenodd" d="M5.3865 495.12L385.096 364.58C395.147 361.125 400.503 350.172 397.058 340.117L338.581 169.443L133.289 69.0611L-39.7123 422.868L-19.0506 483.171C-17.3283 488.198 -13.7319 492.05 -9.30945 494.213C-4.88802 496.375 0.36063 496.847 5.3865 495.12Z" fill="white"/>
</mask>
<g mask="url(#mask26)">
<path fill-rule="evenodd" clip-rule="evenodd" d="M20.6897 462.94L4.37409 463.184C4.09381 463.188 3.869 463.421 3.87241 463.699L3.96989 470.58C3.97329 470.858 4.20564 471.083 4.48435 471.08L20.8011 470.837C21.0803 470.832 21.3062 470.6 21.3017 470.321L21.2053 463.441C21.2008 463.162 20.969 462.936 20.6897 462.94Z" fill="#B67B24"/>
</g>
<mask id="mask27" mask-type="alpha" maskUnits="userSpaceOnUse" x="-62" y="69" width="521" height="559">
<path fill-rule="evenodd" clip-rule="evenodd" d="M5.3865 495.12L385.096 364.58C395.147 361.125 400.503 350.172 397.058 340.117L338.581 169.443L133.289 69.0611L-39.7123 422.868L-19.0506 483.171C-17.3283 488.198 -13.7319 492.05 -9.30945 494.213C-4.88802 496.375 0.36063 496.847 5.3865 495.12Z" fill="white"/>
</mask>
<g mask="url(#mask27)">
<path fill-rule="evenodd" clip-rule="evenodd" d="M115.703 348.912L115.933 365.238C115.937 365.518 116.169 365.743 116.448 365.739L123.323 365.636C123.602 365.633 123.827 365.4 123.824 365.121L123.594 348.794C123.59 348.515 123.358 348.289 123.079 348.294L116.203 348.396C115.924 348.4 115.698 348.633 115.703 348.912Z" fill="#B67B24"/>
</g>
<mask id="mask28" mask-type="alpha" maskUnits="userSpaceOnUse" x="-62" y="69" width="521" height="559">
<path fill-rule="evenodd" clip-rule="evenodd" d="M5.3865 495.12L385.096 364.58C395.147 361.125 400.503 350.172 397.058 340.117L338.581 169.443L133.289 69.0611L-39.7123 422.868L-19.0506 483.171C-17.3283 488.198 -13.7319 492.05 -9.30945 494.213C-4.88802 496.375 0.36063 496.847 5.3865 495.12Z" fill="white"/>
</mask>
<g mask="url(#mask28)">
<path fill-rule="evenodd" clip-rule="evenodd" d="M38.3218 271.348L22.0055 271.09C21.7268 271.086 21.5022 270.853 21.5067 270.574L21.6208 263.694C21.6257 263.414 21.8585 263.189 22.1373 263.193L38.453 263.452C38.7318 263.457 38.9568 263.688 38.9518 263.968L38.8383 270.847C38.8333 271.127 38.6005 271.352 38.3218 271.348Z" fill="#B67B24"/>
</g>
<mask id="mask29" mask-type="alpha" maskUnits="userSpaceOnUse" x="-62" y="69" width="521" height="559">
<path fill-rule="evenodd" clip-rule="evenodd" d="M5.3865 495.12L385.096 364.58C395.147 361.125 400.503 350.172 397.058 340.117L338.581 169.443L133.289 69.0611L-39.7123 422.868L-19.0506 483.171C-17.3283 488.198 -13.7319 492.05 -9.30945 494.213C-4.88802 496.375 0.36063 496.847 5.3865 495.12Z" fill="white"/>
</mask>
<g mask="url(#mask29)">
<path fill-rule="evenodd" clip-rule="evenodd" d="M100.192 421.299L88.8177 433.015C88.6226 433.217 88.6279 433.54 88.828 433.734L93.7583 438.526C93.9584 438.721 94.2806 438.716 94.4753 438.516L105.85 426.799C106.045 426.598 106.041 426.275 105.841 426.08L100.911 421.288C100.711 421.094 100.387 421.099 100.192 421.299Z" fill="#B67B24"/>
</g>
<mask id="mask30" mask-type="alpha" maskUnits="userSpaceOnUse" x="-62" y="69" width="521" height="559">
<path fill-rule="evenodd" clip-rule="evenodd" d="M5.3865 495.12L385.096 364.58C395.147 361.125 400.503 350.172 397.058 340.117L338.581 169.443L133.289 69.0611L-39.7123 422.868L-19.0506 483.171C-17.3283 488.198 -13.7319 492.05 -9.30945 494.213C-4.88802 496.375 0.36063 496.847 5.3865 495.12Z" fill="white"/>
</mask>
<g mask="url(#mask30)">
<path fill-rule="evenodd" clip-rule="evenodd" d="M100.331 311.656L88.9871 299.929C88.7922 299.73 88.7979 299.405 88.9989 299.211L93.9406 294.423C94.1416 294.229 94.4645 294.234 94.6588 294.435L106.003 306.161C106.197 306.362 106.192 306.686 105.991 306.88L101.05 311.668C100.849 311.862 100.526 311.857 100.331 311.656Z" fill="#B67B24"/>
</g>
<mask id="mask31" mask-type="alpha" maskUnits="userSpaceOnUse" x="-62" y="69" width="521" height="559">
<path fill-rule="evenodd" clip-rule="evenodd" d="M5.3865 495.12L385.096 364.58C395.147 361.125 400.503 350.172 397.058 340.117L338.581 169.443L133.289 69.0611L-39.7123 422.868L-19.0506 483.171C-17.3283 488.198 -13.7319 492.05 -9.30945 494.213C-4.88802 496.375 0.36063 496.847 5.3865 495.12Z" fill="white"/>
</mask>
<g mask="url(#mask31)">
<path fill-rule="evenodd" clip-rule="evenodd" d="M52.8956 315.1L43.4144 311.147C43.2527 311.079 43.175 310.891 43.2429 310.728L44.911 306.729C44.9784 306.567 45.1677 306.49 45.3295 306.557L54.8107 310.511C54.9724 310.578 55.0501 310.766 54.9822 310.929L53.3141 314.928C53.2467 315.09 53.0584 315.168 52.8956 315.1Z" fill="#B67B24"/>
</g>
<mask id="mask32" mask-type="alpha" maskUnits="userSpaceOnUse" x="-62" y="69" width="521" height="559">
<path fill-rule="evenodd" clip-rule="evenodd" d="M5.3865 495.12L385.096 364.58C395.147 361.125 400.503 350.172 397.058 340.117L338.581 169.443L133.289 69.0611L-39.7123 422.868L-19.0506 483.171C-17.3283 488.198 -13.7319 492.05 -9.30945 494.213C-4.88802 496.375 0.36063 496.847 5.3865 495.12Z" fill="white"/>
</mask>
<g mask="url(#mask32)">
<path fill-rule="evenodd" clip-rule="evenodd" d="M54.1732 417.263L44.794 421.468C44.6334 421.54 44.5615 421.73 44.6332 421.89L46.401 425.843C46.4727 426.004 46.6628 426.077 46.8234 426.005L56.2016 421.8C56.3621 421.728 56.4356 421.537 56.3628 421.376L54.5961 417.424C54.5244 417.263 54.3338 417.191 54.1732 417.263Z" fill="#B67B24"/>
</g>
<mask id="mask33" mask-type="alpha" maskUnits="userSpaceOnUse" x="-62" y="69" width="521" height="559">
<path fill-rule="evenodd" clip-rule="evenodd" d="M5.3865 495.12L385.096 364.58C395.147 361.125 400.503 350.172 397.058 340.117L338.581 169.443L133.289 69.0611L-39.7123 422.868L-19.0506 483.171C-17.3283 488.198 -13.7319 492.05 -9.30945 494.213C-4.88802 496.375 0.36063 496.847 5.3865 495.12Z" fill="white"/>
</mask>
<g mask="url(#mask33)">
<path fill-rule="evenodd" clip-rule="evenodd" d="M79.7744 353.138L75.87 343.633C75.8035 343.47 75.8812 343.281 76.0444 343.215L80.0489 341.565C80.211 341.498 80.3986 341.576 80.4656 341.739L84.3711 351.244C84.4375 351.408 84.3588 351.595 84.1967 351.663L80.1922 353.312C80.029 353.379 79.8414 353.3 79.7744 353.138Z" fill="#B67B24"/>
</g>
</g>
<path fill-rule="evenodd" clip-rule="evenodd" d="M378.527 26.1231L305.839 343.227C302.67 357.056 288.888 365.697 275.059 362.528L-42.0452 289.839C-55.8749 286.669 -64.5153 272.889 -61.3447 259.059L11.3425 -58.0442C14.5131 -71.8739 28.2942 -80.5143 42.1223 -77.3452L359.228 -4.65657C373.056 -1.48597 381.698 12.2935 378.527 26.1231Z" fill="#F79661"/>
</g>
</svg>
