<svg width="34" height="32" viewBox="0 0 34 32" fill="none" xmlns="http://www.w3.org/2000/svg">
<path d="M5.35535 19.1264H4.55393C2.95628 19.1264 1.66113 17.8313 1.66113 16.2336V16.2336C1.66113 14.636 2.95628 13.3408 4.55393 13.3408H10.3638H26.4017H28.5122C30.6424 13.3408 32.3693 15.0677 32.3693 17.1979V17.1979C32.3693 18.263 31.5058 19.1264 30.4408 19.1264H29.2523" stroke="#4376FF" stroke-width="1.5" stroke-linecap="round"/>
<path d="M10.7852 18.6826L23.6915 18.6826" stroke="#4376FF" stroke-width="1.5"/>
<circle cx="8.11448" cy="18.9045" r="2.1428" stroke="#4376FF" stroke-width="1.5"/>
<path d="M28.5043 18.9045C28.5043 20.088 27.545 21.0473 26.3615 21.0473C25.1781 21.0473 24.2188 20.088 24.2188 18.9045C24.2188 17.7211 25.1781 16.7617 26.3615 16.7617C27.545 16.7617 28.5043 17.7211 28.5043 18.9045Z" stroke="#4376FF" stroke-width="1.5"/>
<path d="M1.72949 15.9414H3.15212" stroke="#4376FF" stroke-width="1.5" stroke-linecap="round"/>
<line x1="28.8213" y1="15.1943" x2="31.1549" y2="15.1943" stroke="#4376FF" stroke-width="1.5" stroke-linecap="round"/>
<line x1="12.6465" y1="16.1504" x2="21.3825" y2="16.1504" stroke="#4376FF" stroke-width="1.5" stroke-linecap="round"/>
<path d="M14.123 8V13.3405H25.2492L21.3833 10.6703L18.5436 8.70881C17.8754 8.24723 17.0825 8 16.2703 8H14.123Z" stroke="#4376FF" stroke-width="1.5" stroke-linecap="round" stroke-linejoin="round"/>
<path d="M14.123 8V13.3405H4.77709L8.02441 10.6703L10.1646 8.91042C10.8804 8.3218 11.7784 8 12.7051 8H14.123Z" stroke="#4376FF" stroke-width="1.5" stroke-linecap="round" stroke-linejoin="round"/>
</svg>
