<svg width="32" height="32" viewBox="0 0 32 32" fill="none" xmlns="http://www.w3.org/2000/svg">
<path d="M17.3392 15.438C17.2704 15.3128 17.1846 15.1977 17.0842 15.0961L15.9379 13.9655C15.8202 13.8456 15.6811 13.7488 15.5279 13.6799C15.2868 13.5723 15.0188 13.5402 14.7591 13.5879C14.4994 13.6355 14.2602 13.7606 14.0729 13.9467C13.6754 14.338 12.9479 15.0517 11.6354 16.3486C9.1254 18.8317 4.46478 22.9936 2.35728 24.7686C2.2511 24.8574 2.16452 24.9674 2.10304 25.0914C2.04155 25.2155 2.0065 25.3509 2.00009 25.4892C1.99369 25.6276 2.01608 25.7657 2.06583 25.8949C2.11559 26.0241 2.19164 26.1415 2.28915 26.2398L4.72665 28.7042C4.82481 28.8027 4.94228 28.8798 5.07166 28.9307C5.20105 28.9815 5.33957 29.0051 5.4785 28.9999C5.61744 28.9947 5.7538 28.9608 5.879 28.9003C6.0042 28.8398 6.11554 28.7541 6.20603 28.6486C8.03353 26.5005 12.2248 21.8361 14.706 19.3842C15.9804 18.1305 16.6948 17.4105 17.0992 17.013C17.2997 16.809 17.4308 16.5471 17.4739 16.2643C17.517 15.9815 17.4699 15.6924 17.3392 15.438V15.438Z" stroke="#4376FF" stroke-width="1.5" stroke-linecap="round" stroke-linejoin="round"/>
<path d="M29.9013 12.5616L27.757 10.4366C27.7242 10.4039 27.6852 10.3783 27.6422 10.3612C27.5992 10.3441 27.5532 10.336 27.507 10.3373C27.4608 10.3365 27.4149 10.3449 27.372 10.3619C27.3291 10.379 27.29 10.4044 27.257 10.4366C27.1798 10.5142 27.0858 10.573 26.9823 10.6084C26.8788 10.6439 26.7686 10.655 26.6601 10.641C26.3801 10.6104 26.082 10.5235 25.8895 10.3373C25.452 9.90852 25.9576 9.06477 25.5726 8.52477C25.1329 7.93384 24.6508 7.3757 24.1301 6.85477C23.6888 6.41727 21.9545 4.76289 19.0332 3.57164C18.101 3.18973 17.1031 2.99356 16.0957 2.99414C14.4488 2.99414 13.1826 3.72914 12.7207 4.15102C12.3532 4.48352 11.9707 5.01164 11.9707 5.01164C12.1916 4.93112 12.4172 4.86433 12.6463 4.81164C13.1241 4.70925 13.6144 4.67787 14.1013 4.71852C15.0738 4.79914 16.2457 5.25539 16.8745 5.74914C17.8876 6.56164 18.3232 7.64852 18.3913 9.05102C18.4413 10.0941 17.4395 11.411 16.4888 12.4848C16.4052 12.5792 16.3611 12.7022 16.3658 12.8282C16.3704 12.9543 16.4235 13.0737 16.5138 13.1616L17.8413 14.4885C17.9338 14.5799 18.0582 14.6316 18.1882 14.6327C18.3182 14.6339 18.4435 14.5844 18.5376 14.4948C19.4082 13.6504 20.4807 12.7154 21.0888 12.341C21.697 11.9666 22.1876 11.861 22.4232 11.8354C22.8862 11.7906 23.3516 11.8915 23.7545 12.1241C23.8254 12.1643 23.8902 12.2144 23.947 12.2729C24.3507 12.6829 24.3263 13.3529 23.9157 13.7566L23.7907 13.8748C23.7582 13.9068 23.7324 13.9449 23.7148 13.987C23.6971 14.029 23.6881 14.0742 23.6881 14.1198C23.6881 14.1654 23.6971 14.2105 23.7148 14.2526C23.7324 14.2946 23.7582 14.3328 23.7907 14.3648L25.9351 16.4898C25.968 16.5222 26.0071 16.5476 26.05 16.5646C26.093 16.5816 26.1389 16.5897 26.1851 16.5885C26.2782 16.5898 26.368 16.5544 26.4351 16.4898L29.9013 13.0616C29.9652 12.9941 30.0009 12.9046 30.0009 12.8116C30.0009 12.7187 29.9652 12.6292 29.9013 12.5616V12.5616Z" stroke="#4376FF" stroke-width="1.5" stroke-linecap="round" stroke-linejoin="round"/>
</svg>
