<svg width="32" height="32" viewBox="0 0 32 32" fill="none" xmlns="http://www.w3.org/2000/svg">
<path d="M13.0001 13V29.5C12.9978 29.6976 13.0351 29.8937 13.1097 30.0767C13.1843 30.2597 13.2947 30.426 13.4344 30.5657C13.5741 30.7054 13.7404 30.8158 13.9234 30.8904C14.1064 30.965 14.3025 31.0023 14.5001 31V31C14.6977 31.0023 14.8938 30.965 15.0768 30.8904C15.2598 30.8158 15.4261 30.7054 15.5658 30.5657C15.7055 30.426 15.8159 30.2597 15.8905 30.0767C15.9651 29.8937 16.0024 29.6976 16.0001 29.5" stroke="#4376FF" stroke-width="1.5" stroke-miterlimit="10" stroke-linecap="round"/>
<path d="M16.0001 21V29.5C15.9978 29.6976 16.0351 29.8937 16.1097 30.0767C16.1843 30.2597 16.2947 30.426 16.4344 30.5657C16.5741 30.7054 16.7404 30.8158 16.9234 30.8904C17.1064 30.965 17.3025 31.0023 17.5001 31C17.6977 31.0023 17.8938 30.965 18.0768 30.8904C18.2598 30.8158 18.4261 30.7054 18.5658 30.5657C18.7055 30.426 18.8159 30.2597 18.8905 30.0767C18.9651 29.8937 19.0024 29.6976 19.0001 29.5V13" stroke="#4376FF" stroke-width="1.5" stroke-miterlimit="10" stroke-linecap="round"/>
<path d="M13.0001 12V17.5C13.0024 17.6976 12.9653 17.8937 12.8907 18.0768C12.8161 18.2598 12.7057 18.4261 12.566 18.5659C12.4262 18.7056 12.2599 18.816 12.0769 18.8906C11.8938 18.9652 11.6977 19.0023 11.5001 19V19C11.3025 19.0023 11.1064 18.9652 10.9233 18.8906C10.7403 18.816 10.574 18.7056 10.4342 18.5659C10.2945 18.4261 10.1841 18.2598 10.1095 18.0768C10.035 17.8937 9.99776 17.6976 10.0001 17.5V12C10.0001 11.2044 10.3162 10.4413 10.8788 9.87868C11.4414 9.31607 12.2045 9 13.0001 9H19.0001C19.7957 9 20.5588 9.31607 21.1214 9.87868C21.684 10.4413 22.0001 11.2044 22.0001 12V17.5C22.0024 17.6976 21.9652 17.8937 21.8907 18.0768C21.8161 18.2598 21.7057 18.4261 21.566 18.5659C21.4262 18.7056 21.2599 18.816 21.0769 18.8906C20.8938 18.9652 20.6977 19.0023 20.5001 19V19C20.3025 19.0023 20.1063 18.9652 19.9233 18.8906C19.7402 18.816 19.574 18.7056 19.4342 18.5659C19.2944 18.4261 19.184 18.2598 19.1095 18.0768C19.0349 17.8937 18.9977 17.6976 19.0001 17.5V12" stroke="#4376FF" stroke-width="1.5" stroke-miterlimit="10" stroke-linecap="round"/>
<path d="M16 6C17.3807 6 18.5 4.88071 18.5 3.5C18.5 2.11929 17.3807 1 16 1C14.6193 1 13.5 2.11929 13.5 3.5C13.5 4.88071 14.6193 6 16 6Z" stroke="#4376FF" stroke-width="1.5" stroke-miterlimit="10" stroke-linecap="round"/>
</svg>
