<svg width="33" height="32" viewBox="0 0 33 32" fill="none" xmlns="http://www.w3.org/2000/svg">
<g opacity="0.01" clip-path="url(#clip0_2261_28801)">
<line y1="-0.065" x2="32" y2="-0.065" transform="matrix(1.309e-06 1 -1 2.32711e-06 1.33301 0)" stroke="black" stroke-opacity="0.1" stroke-width="0.13"/>
<line x1="0.065" y1="-1.13446e-07" x2="0.0650558" y2="32" stroke="black" stroke-opacity="0.1" stroke-width="0.13"/>
<line y1="-0.065" x2="32" y2="-0.065" transform="matrix(1.309e-06 1 -1 2.32711e-06 2.66699 0)" stroke="black" stroke-opacity="0.1" stroke-width="0.13"/>
<line y1="-0.065" x2="32" y2="-0.065" transform="matrix(1.309e-06 1 -1 2.32711e-06 4 0)" stroke="black" stroke-opacity="0.1" stroke-width="0.13"/>
<line y1="-0.065" x2="32" y2="-0.065" transform="matrix(1.309e-06 1 -1 2.32711e-06 5.33301 0)" stroke="black" stroke-opacity="0.1" stroke-width="0.13"/>
<line y1="-0.065" x2="32" y2="-0.065" transform="matrix(1.309e-06 1 -1 2.32711e-06 6.66699 0)" stroke="black" stroke-opacity="0.1" stroke-width="0.13"/>
<line y1="-0.065" x2="32" y2="-0.065" transform="matrix(1.309e-06 1 -1 2.32711e-06 8 0)" stroke="black" stroke-opacity="0.1" stroke-width="0.13"/>
<line y1="-0.065" x2="32" y2="-0.065" transform="matrix(1.309e-06 1 -1 2.32711e-06 9.33301 0)" stroke="black" stroke-opacity="0.1" stroke-width="0.13"/>
<line y1="-0.065" x2="32" y2="-0.065" transform="matrix(1.309e-06 1 -1 2.32711e-06 10.667 0)" stroke="black" stroke-opacity="0.1" stroke-width="0.13"/>
<line y1="-0.065" x2="32" y2="-0.065" transform="matrix(1.309e-06 1 -1 2.32711e-06 12 0)" stroke="black" stroke-opacity="0.1" stroke-width="0.13"/>
<line y1="-0.065" x2="32" y2="-0.065" transform="matrix(1.309e-06 1 -1 2.32711e-06 13.333 0)" stroke="black" stroke-opacity="0.1" stroke-width="0.13"/>
<line y1="-0.065" x2="32" y2="-0.065" transform="matrix(1.309e-06 1 -1 2.32711e-06 14.667 0)" stroke="black" stroke-opacity="0.1" stroke-width="0.13"/>
<line y1="-0.065" x2="32" y2="-0.065" transform="matrix(1.309e-06 1 -1 2.32711e-06 16 0)" stroke="black" stroke-opacity="0.1" stroke-width="0.13"/>
<line y1="-0.065" x2="32" y2="-0.065" transform="matrix(1.309e-06 1 -1 2.32711e-06 17.333 0)" stroke="black" stroke-opacity="0.1" stroke-width="0.13"/>
<line y1="-0.065" x2="32" y2="-0.065" transform="matrix(1.309e-06 1 -1 2.32711e-06 18.667 0)" stroke="black" stroke-opacity="0.1" stroke-width="0.13"/>
<line y1="-0.065" x2="32" y2="-0.065" transform="matrix(1.309e-06 1 -1 2.32711e-06 20 0)" stroke="black" stroke-opacity="0.1" stroke-width="0.13"/>
<line y1="-0.065" x2="32" y2="-0.065" transform="matrix(1.309e-06 1 -1 2.32711e-06 21.333 0)" stroke="black" stroke-opacity="0.1" stroke-width="0.13"/>
<line y1="-0.065" x2="32" y2="-0.065" transform="matrix(1.309e-06 1 -1 2.32711e-06 22.667 0)" stroke="black" stroke-opacity="0.1" stroke-width="0.13"/>
<line y1="-0.065" x2="32" y2="-0.065" transform="matrix(1.309e-06 1 -1 2.32711e-06 24 0)" stroke="black" stroke-opacity="0.1" stroke-width="0.13"/>
<line y1="-0.065" x2="32" y2="-0.065" transform="matrix(1.309e-06 1 -1 2.32711e-06 25.333 0)" stroke="black" stroke-opacity="0.1" stroke-width="0.13"/>
<line y1="-0.065" x2="32" y2="-0.065" transform="matrix(1.309e-06 1 -1 2.32711e-06 26.667 0)" stroke="black" stroke-opacity="0.1" stroke-width="0.13"/>
<line y1="-0.065" x2="32" y2="-0.065" transform="matrix(1.309e-06 1 -1 2.32711e-06 28 0)" stroke="black" stroke-opacity="0.1" stroke-width="0.13"/>
<line y1="-0.065" x2="32" y2="-0.065" transform="matrix(1.309e-06 1 -1 2.32711e-06 29.333 0)" stroke="black" stroke-opacity="0.1" stroke-width="0.13"/>
<line y1="-0.065" x2="32" y2="-0.065" transform="matrix(1.309e-06 1 -1 2.32711e-06 30.667 0)" stroke="black" stroke-opacity="0.1" stroke-width="0.13"/>
<line x1="32" y1="1.39801" x2="1.13448e-06" y2="1.39857" stroke="black" stroke-opacity="0.1" stroke-width="0.13"/>
<line x1="32" y1="0.065" x2="1.13446e-06" y2="0.0655585" stroke="black" stroke-opacity="0.1" stroke-width="0.13"/>
<line x1="32" y1="2.73199" x2="1.13473e-06" y2="2.73255" stroke="black" stroke-opacity="0.1" stroke-width="0.13"/>
<line x1="32" y1="4.065" x2="1.13473e-06" y2="4.06556" stroke="black" stroke-opacity="0.1" stroke-width="0.13"/>
<line x1="32" y1="5.39801" x2="1.13376e-06" y2="5.39857" stroke="black" stroke-opacity="0.1" stroke-width="0.13"/>
<line x1="32" y1="6.73199" x2="1.13473e-06" y2="6.73255" stroke="black" stroke-opacity="0.1" stroke-width="0.13"/>
<line x1="32" y1="8.065" x2="1.13473e-06" y2="8.06556" stroke="black" stroke-opacity="0.1" stroke-width="0.13"/>
<line x1="32" y1="9.39801" x2="1.13183e-06" y2="9.39857" stroke="black" stroke-opacity="0.1" stroke-width="0.13"/>
<line x1="32" y1="10.732" x2="1.13376e-06" y2="10.7326" stroke="black" stroke-opacity="0.1" stroke-width="0.13"/>
<line x1="32" y1="12.065" x2="1.13376e-06" y2="12.0656" stroke="black" stroke-opacity="0.1" stroke-width="0.13"/>
<line x1="32" y1="13.398" x2="1.13183e-06" y2="13.3986" stroke="black" stroke-opacity="0.1" stroke-width="0.13"/>
<line x1="32" y1="14.732" x2="1.13376e-06" y2="14.7326" stroke="black" stroke-opacity="0.1" stroke-width="0.13"/>
<line x1="32" y1="16.065" x2="1.13376e-06" y2="16.0656" stroke="black" stroke-opacity="0.1" stroke-width="0.13"/>
<line x1="32" y1="17.398" x2="1.13376e-06" y2="17.3986" stroke="black" stroke-opacity="0.1" stroke-width="0.13"/>
<line x1="32" y1="18.732" x2="1.13376e-06" y2="18.7326" stroke="black" stroke-opacity="0.1" stroke-width="0.13"/>
<line x1="32" y1="20.065" x2="1.13376e-06" y2="20.0656" stroke="black" stroke-opacity="0.1" stroke-width="0.13"/>
<line x1="32" y1="21.398" x2="1.13376e-06" y2="21.3986" stroke="black" stroke-opacity="0.1" stroke-width="0.13"/>
<line x1="32" y1="22.732" x2="1.13376e-06" y2="22.7326" stroke="black" stroke-opacity="0.1" stroke-width="0.13"/>
<line x1="32" y1="24.065" x2="1.13376e-06" y2="24.0656" stroke="black" stroke-opacity="0.1" stroke-width="0.13"/>
<line x1="32" y1="25.398" x2="1.13376e-06" y2="25.3986" stroke="black" stroke-opacity="0.1" stroke-width="0.13"/>
<line x1="32" y1="26.732" x2="1.13376e-06" y2="26.7326" stroke="black" stroke-opacity="0.1" stroke-width="0.13"/>
<line x1="32" y1="28.065" x2="1.13376e-06" y2="28.0656" stroke="black" stroke-opacity="0.1" stroke-width="0.13"/>
<line x1="32" y1="29.398" x2="1.13376e-06" y2="29.3986" stroke="black" stroke-opacity="0.1" stroke-width="0.13"/>
<line x1="32" y1="30.732" x2="1.13376e-06" y2="30.7326" stroke="black" stroke-opacity="0.1" stroke-width="0.13"/>
<path fill-rule="evenodd" clip-rule="evenodd" d="M32 0H0V32H32V0ZM29.3333 2.66667H2.66667V29.3333H29.3333V2.66667Z" fill="#00BCD4" fill-opacity="0.1"/>
<path d="M8 0L8 24" stroke="#4376FF" stroke-width="0.25"/>
<path d="M16 0L16 24" stroke="#4376FF" stroke-width="0.25"/>
<path d="M24 8L0 8" stroke="#4376FF" stroke-width="0.25"/>
<path d="M24 16L0 16" stroke="#4376FF" stroke-width="0.25"/>
<path d="M0 0L32 32" stroke="#4376FF" stroke-width="0.25"/>
<path d="M0 32L32 1.04077e-06" stroke="#4376FF" stroke-width="0.25"/>
<rect x="4.125" y="4.125" width="23.75" height="23.75" rx="1.875" stroke="#4376FF" stroke-width="0.25"/>
<rect x="5.45801" y="2.79199" width="21.0833" height="26.4167" rx="1.875" stroke="#4376FF" stroke-width="0.25"/>
<rect x="2.79199" y="5.45801" width="26.4167" height="21.0833" rx="1.875" stroke="#4376FF" stroke-width="0.25"/>
<rect x="2.79199" y="2.79199" width="26.4167" height="26.4167" rx="13.2083" stroke="#4376FF" stroke-width="0.25"/>
<rect x="10.792" y="10.792" width="10.4167" height="10.4167" rx="5.20833" stroke="#4376FF" stroke-width="0.25"/>
<rect x="0.125" y="0.125" width="31.75" height="31.75" stroke="#4376FF" stroke-width="0.25"/>
</g>
<path d="M12.4346 12.8165C12.4346 10.9428 13.9535 9.42383 15.8273 9.42383H20.3842C22.0292 9.42383 23.3626 10.7573 23.3626 12.4022C23.3626 12.6744 23.142 12.8951 22.8698 12.8951H12.5131C12.4697 12.8951 12.4346 12.8599 12.4346 12.8165Z" stroke="#4376FF" stroke-width="1.5"/>
<path d="M12.8467 12.8165C12.8467 10.9428 11.3277 9.42383 9.45399 9.42383H4.89703C3.2521 9.42383 1.91861 10.7573 1.91861 12.4022C1.91861 12.6744 2.13925 12.8951 2.41142 12.8951H12.7681C12.8115 12.8951 12.8467 12.8599 12.8467 12.8165Z" stroke="#4376FF" stroke-width="1.5"/>
<path d="M25.5312 9.17887C25.5312 8.33471 26.2156 7.65039 27.0597 7.65039H27.8192C28.2439 7.65039 28.5882 7.99468 28.5882 8.41938V9.93836C28.5882 10.3631 28.2439 10.7073 27.8192 10.7073H27.0597C26.2156 10.7073 25.5312 10.023 25.5312 9.17887Z" stroke="#4376FF" stroke-width="1.5"/>
<path d="M21.0537 4V4C23.1715 4 24.8884 5.71683 24.8884 7.83464V12.5334C24.8884 12.7802 24.934 13.0248 25.0231 13.255L27.4584 19.5502" stroke="#4376FF" stroke-width="1.5" stroke-linecap="round" stroke-linejoin="round"/>
<path d="M8.17897 13.124L5.25781 19.19" stroke="#4376FF" stroke-width="1.5" stroke-linecap="round"/>
<path d="M10.3652 20.5696H16.8987C18.204 20.5696 19.4271 19.9327 20.1757 18.8634L24.7811 12.2842" stroke="#4376FF" stroke-width="1.5" stroke-linecap="round"/>
<path d="M14.6152 13.1973L9.93162 17.8809" stroke="#4376FF" stroke-width="1.5" stroke-linecap="round"/>
<line x1="22.3897" y1="15.5313" x2="18.9012" y2="15.5222" stroke="#4376FF" stroke-width="1.5" stroke-linecap="round"/>
<line x1="20.2822" y1="17.6035" x2="15.9399" y2="17.6035" stroke="#4376FF" stroke-width="1.5" stroke-linecap="round"/>
<circle cx="27.4592" cy="19.551" r="4.50808" stroke="#4376FF" stroke-width="1.5"/>
<circle cx="5.25808" cy="19.551" r="4.50808" stroke="#4376FF" stroke-width="1.5"/>
<defs>
<clipPath id="clip0_2261_28801">
<rect width="32" height="32" fill="white"/>
</clipPath>
</defs>
</svg>
