<svg width="32" height="32" viewBox="0 0 32 32" fill="none" xmlns="http://www.w3.org/2000/svg">
<path d="M5.34828 27.8906H26.652C26.998 27.8906 27.3381 27.8007 27.639 27.6299C27.9399 27.4591 28.1914 27.2131 28.3688 26.9161C28.5462 26.619 28.6435 26.281 28.6512 25.9351C28.6589 25.5892 28.5767 25.2472 28.4126 24.9425L17.7614 5.16125C17.0058 3.75875 14.9945 3.75875 14.2389 5.16125L3.58765 24.9425C3.42362 25.2472 3.34144 25.5892 3.34913 25.9351C3.35682 26.281 3.45412 26.619 3.63153 26.9161C3.80894 27.2131 4.06038 27.4591 4.36129 27.6299C4.66219 27.8007 5.00227 27.8906 5.34828 27.8906V27.8906Z" stroke="#FF2F73" stroke-width="1.5" stroke-linecap="round" stroke-linejoin="round"/>
<path d="M15.6409 12.2117L15.9996 19.8367L16.3578 12.2149C16.36 12.1661 16.3522 12.1175 16.335 12.0718C16.3177 12.0262 16.2914 11.9846 16.2575 11.9495C16.2236 11.9144 16.183 11.8866 16.138 11.8677C16.093 11.8489 16.0446 11.8394 15.9959 11.8399V11.8399C15.9479 11.8403 15.9006 11.8504 15.8566 11.8695C15.8127 11.8885 15.773 11.9162 15.7399 11.9509C15.7068 11.9855 15.681 12.0265 15.664 12.0713C15.647 12.1161 15.6391 12.1638 15.6409 12.2117V12.2117Z" stroke="#FF2F73" stroke-width="1.5" stroke-linecap="round" stroke-linejoin="round"/>
<path d="M16 24.3281C15.8517 24.3281 15.7067 24.2841 15.5833 24.2017C15.46 24.1193 15.3639 24.0022 15.3071 23.8651C15.2503 23.7281 15.2355 23.5773 15.2644 23.4318C15.2934 23.2863 15.3648 23.1527 15.4697 23.0478C15.5746 22.9429 15.7082 22.8715 15.8537 22.8425C15.9992 22.8136 16.15 22.8284 16.287 22.8852C16.4241 22.942 16.5412 23.0381 16.6236 23.1614C16.706 23.2848 16.75 23.4298 16.75 23.5781C16.75 23.777 16.671 23.9678 16.5303 24.1085C16.3897 24.2491 16.1989 24.3281 16 24.3281Z" fill="#210049" stroke="#FF2F73"/>
</svg>
