<svg width="312" height="96" viewBox="0 0 312 96" fill="none" xmlns="http://www.w3.org/2000/svg">
<mask id="mask0" mask-type="alpha" maskUnits="userSpaceOnUse" x="0" y="0" width="312" height="96">
<path fill-rule="evenodd" clip-rule="evenodd" d="M0 8C0 3.58172 3.58172 0 8 0H304C308.418 0 312 3.58172 312 8V96H0V8Z" fill="#E7E9EA"/>
</mask>
<g mask="url(#mask0)">
<rect x="-24" y="-320" width="360" height="640" fill="#32BF90"/>
<mask id="mask1" mask-type="alpha" maskUnits="userSpaceOnUse" x="-24" y="-320" width="360" height="640">
<rect x="-24" y="-320" width="360" height="640" fill="#C8F7F3"/>
</mask>
<g mask="url(#mask1)">
<g style="mix-blend-mode:color-burn" opacity="0.3">
<mask id="mask2" mask-type="alpha" maskUnits="userSpaceOnUse" x="-86" y="-251" width="521" height="559">
<path fill-rule="evenodd" clip-rule="evenodd" d="M-18.6135 175.12L361.096 44.5801C371.147 41.1246 376.503 30.1724 373.058 20.1165L314.581 -150.557L109.289 -250.939L-63.7123 102.868L-43.0506 163.171C-41.3283 168.198 -37.7319 172.05 -33.3094 174.213C-28.888 176.375 -23.6394 176.847 -18.6135 175.12Z" fill="white"/>
</mask>
<g mask="url(#mask2)">
<path fill-rule="evenodd" clip-rule="evenodd" d="M44.4397 75.5924L12.2618 60.4663C11.9166 60.3041 11.501 60.454 11.3381 60.8006L4.76531 74.7796C4.60287 75.1252 4.75285 75.5424 5.09805 75.7047L37.2759 90.8307C37.6222 90.9935 38.0382 90.8425 38.2007 90.497L44.7724 76.5174C44.9354 76.1708 44.7849 75.7546 44.4397 75.5924Z" fill="#6E61BA"/>
</g>
<mask id="mask3" mask-type="alpha" maskUnits="userSpaceOnUse" x="-86" y="-251" width="521" height="559">
<path fill-rule="evenodd" clip-rule="evenodd" d="M-18.6135 175.12L361.096 44.5801C371.147 41.1246 376.503 30.1724 373.058 20.1165L314.581 -150.557L109.289 -250.939L-63.7123 102.868L-43.0506 163.171C-41.3283 168.198 -37.7319 172.05 -33.3094 174.213C-28.888 176.375 -23.6394 176.847 -18.6135 175.12Z" fill="white"/>
</mask>
<g mask="url(#mask3)">
<path fill-rule="evenodd" clip-rule="evenodd" d="M304.635 -39.7015L289.492 -7.4907C289.329 -7.14514 289.479 -6.72946 289.825 -6.56669L303.79 -0.00221982C304.135 0.161093 304.552 0.0106727 304.715 -0.334886L319.857 -32.5457C320.02 -32.8923 319.87 -33.3085 319.525 -33.4708L305.559 -40.0353C305.213 -40.198 304.797 -40.0471 304.635 -39.7015Z" fill="#6E61BA"/>
</g>
<mask id="mask4" mask-type="alpha" maskUnits="userSpaceOnUse" x="-86" y="-251" width="521" height="559">
<path fill-rule="evenodd" clip-rule="evenodd" d="M-18.6135 175.12L361.096 44.5801C371.147 41.1246 376.503 30.1724 373.058 20.1165L314.581 -150.557L109.289 -250.939L-63.7123 102.868L-43.0506 163.171C-41.3283 168.198 -37.7319 172.05 -33.3094 174.213C-28.888 176.375 -23.6394 176.847 -18.6135 175.12Z" fill="white"/>
</mask>
<g mask="url(#mask4)">
<path fill-rule="evenodd" clip-rule="evenodd" d="M108.721 110.734L82.7467 108.892C78.0389 108.558 73.9168 112.134 73.587 116.837L73.4113 119.337C73.082 124.041 76.6649 128.164 81.3727 128.498L107.346 130.34C112.054 130.674 116.177 127.098 116.507 122.394L116.682 119.895C117.012 115.191 113.429 111.068 108.721 110.734Z" fill="#6E61BA"/>
</g>
<mask id="mask5" mask-type="alpha" maskUnits="userSpaceOnUse" x="-86" y="-251" width="521" height="559">
<path fill-rule="evenodd" clip-rule="evenodd" d="M-18.6135 175.12L361.096 44.5801C371.147 41.1246 376.503 30.1724 373.058 20.1165L314.581 -150.557L109.289 -250.939L-63.7123 102.868L-43.0506 163.171C-41.3283 168.198 -37.7319 172.05 -33.3094 174.213C-28.888 176.375 -23.6394 176.847 -18.6135 175.12Z" fill="white"/>
</mask>
<g mask="url(#mask5)">
<path fill-rule="evenodd" clip-rule="evenodd" d="M238.236 68.3941L218.582 85.4455C215.019 88.5351 214.638 93.9783 217.733 97.5408L219.377 99.4323C222.473 102.995 227.922 103.382 231.484 100.292L251.139 83.2409C254.701 80.1508 255.082 74.7065 251.987 71.1439L250.343 69.2535C247.247 65.6904 241.798 65.3029 238.236 68.3941Z" fill="#6E61BA"/>
</g>
<mask id="mask6" mask-type="alpha" maskUnits="userSpaceOnUse" x="-86" y="-251" width="521" height="559">
<path fill-rule="evenodd" clip-rule="evenodd" d="M-18.6135 175.12L361.096 44.5801C371.147 41.1246 376.503 30.1724 373.058 20.1165L314.581 -150.557L109.289 -250.939L-63.7123 102.868L-43.0506 163.171C-41.3283 168.198 -37.7319 172.05 -33.3094 174.213C-28.888 176.375 -23.6394 176.847 -18.6135 175.12Z" fill="white"/>
</mask>
<g mask="url(#mask6)">
<path fill-rule="evenodd" clip-rule="evenodd" d="M106.018 62.4925L78.969 62.8957C78.6782 62.9 78.4441 63.1412 78.4481 63.4321L78.614 75.1788C78.618 75.4697 78.8588 75.7039 79.1496 75.6996L106.199 75.2963C106.49 75.2921 106.724 75.0509 106.72 74.7599L106.554 63.0133C106.55 62.7223 106.309 62.4882 106.018 62.4925Z" fill="#6E61BA"/>
</g>
<mask id="mask7" mask-type="alpha" maskUnits="userSpaceOnUse" x="-86" y="-251" width="521" height="559">
<path fill-rule="evenodd" clip-rule="evenodd" d="M-18.6135 175.12L361.096 44.5801C371.147 41.1246 376.503 30.1724 373.058 20.1165L314.581 -150.557L109.289 -250.939L-63.7123 102.868L-43.0506 163.171C-41.3283 168.198 -37.7319 172.05 -33.3094 174.213C-28.888 176.375 -23.6394 176.847 -18.6135 175.12Z" fill="white"/>
</mask>
<g mask="url(#mask7)">
<path fill-rule="evenodd" clip-rule="evenodd" d="M234.85 -5.24131L215.993 14.1821C215.79 14.3904 215.795 14.7276 216.003 14.93L224.421 23.1128C224.629 23.3152 224.966 23.31 225.169 23.1017L244.026 3.6772C244.229 3.46889 244.223 3.13277 244.015 2.93037L235.597 -5.25245C235.389 -5.45485 235.052 -5.44963 234.85 -5.24131Z" fill="#6E61BA"/>
</g>
<mask id="mask8" mask-type="alpha" maskUnits="userSpaceOnUse" x="-86" y="-251" width="521" height="559">
<path fill-rule="evenodd" clip-rule="evenodd" d="M-18.6135 175.12L361.096 44.5801C371.147 41.1246 376.503 30.1724 373.058 20.1165L314.581 -150.557L109.289 -250.939L-63.7123 102.868L-43.0506 163.171C-41.3283 168.198 -37.7319 172.05 -33.3094 174.213C-28.888 176.375 -23.6394 176.847 -18.6135 175.12Z" fill="white"/>
</mask>
<g mask="url(#mask8)">
<path fill-rule="evenodd" clip-rule="evenodd" d="M69.0875 -2.04147L53.1763 -8.10989C53.0051 -8.17396 52.8127 -8.08761 52.7475 -7.91681L50.1098 -1.00501C50.044 -0.833158 50.1312 -0.640143 50.3019 -0.575017L66.212 5.49289C66.3837 5.55853 66.5767 5.47112 66.6419 5.30033L69.2796 -1.61148C69.3453 -1.78333 69.2581 -1.97634 69.0875 -2.04147Z" fill="#6E61BA"/>
</g>
<mask id="mask9" mask-type="alpha" maskUnits="userSpaceOnUse" x="-86" y="-251" width="521" height="559">
<path fill-rule="evenodd" clip-rule="evenodd" d="M-18.6135 175.12L361.096 44.5801C371.147 41.1246 376.503 30.1724 373.058 20.1165L314.581 -150.557L109.289 -250.939L-63.7123 102.868L-43.0506 163.171C-41.3283 168.198 -37.7319 172.05 -33.3094 174.213C-28.888 176.375 -23.6394 176.847 -18.6135 175.12Z" fill="white"/>
</mask>
<g mask="url(#mask9)">
<path fill-rule="evenodd" clip-rule="evenodd" d="M160.189 -11.6511L144.641 -4.67991C144.474 -4.60482 144.398 -4.40767 144.473 -4.24027L147.491 2.50928C147.566 2.67667 147.763 2.75206 147.93 2.67697L163.478 -4.29421C163.645 -4.36825 163.721 -4.56645 163.646 -4.73384L160.628 -11.4834C160.553 -11.6508 160.356 -11.7262 160.189 -11.6511Z" fill="#6E61BA"/>
</g>
<mask id="mask10" mask-type="alpha" maskUnits="userSpaceOnUse" x="-86" y="-251" width="521" height="559">
<path fill-rule="evenodd" clip-rule="evenodd" d="M-18.6135 175.12L361.096 44.5801C371.147 41.1246 376.503 30.1724 373.058 20.1165L314.581 -150.557L109.289 -250.939L-63.7123 102.868L-43.0506 163.171C-41.3283 168.198 -37.7319 172.05 -33.3094 174.213C-28.888 176.375 -23.6394 176.847 -18.6135 175.12Z" fill="white"/>
</mask>
<g mask="url(#mask10)">
<path fill-rule="evenodd" clip-rule="evenodd" d="M165.185 -15.2553L172.451 4.93487C172.576 5.28092 172.96 5.46225 173.305 5.33666L181.811 2.26581C182.156 2.14179 182.337 1.75667 182.212 1.41062L174.946 -18.7795C174.822 -19.125 174.437 -19.3053 174.092 -19.1813L165.587 -16.1099C165.242 -15.9859 165.06 -15.6013 165.185 -15.2553Z" fill="#00A5B6"/>
</g>
<mask id="mask11" mask-type="alpha" maskUnits="userSpaceOnUse" x="-86" y="-251" width="521" height="559">
<path fill-rule="evenodd" clip-rule="evenodd" d="M-18.6135 175.12L361.096 44.5801C371.147 41.1246 376.503 30.1724 373.058 20.1165L314.581 -150.557L109.289 -250.939L-63.7123 102.868L-43.0506 163.171C-41.3283 168.198 -37.7319 172.05 -33.3094 174.213C-28.888 176.375 -23.6394 176.847 -18.6135 175.12Z" fill="white"/>
</mask>
<g mask="url(#mask11)">
<path fill-rule="evenodd" clip-rule="evenodd" d="M119.251 80.1346L110.117 99.5645C109.96 99.8968 110.104 100.297 110.436 100.453L118.615 104.298C118.947 104.454 119.347 104.309 119.503 103.976L128.638 84.5469C128.794 84.214 128.65 83.8141 128.318 83.658L120.139 79.8133C119.807 79.6572 119.407 79.8017 119.251 80.1346Z" fill="#00A5B6"/>
</g>
<mask id="mask12" mask-type="alpha" maskUnits="userSpaceOnUse" x="-86" y="-251" width="521" height="559">
<path fill-rule="evenodd" clip-rule="evenodd" d="M-18.6135 175.12L361.096 44.5801C371.147 41.1246 376.503 30.1724 373.058 20.1165L314.581 -150.557L109.289 -250.939L-63.7123 102.868L-43.0506 163.171C-41.3283 168.198 -37.7319 172.05 -33.3094 174.213C-28.888 176.375 -23.6394 176.847 -18.6135 175.12Z" fill="white"/>
</mask>
<g mask="url(#mask12)">
<path fill-rule="evenodd" clip-rule="evenodd" d="M147.677 46.803L146.555 62.809C146.351 65.7104 148.56 68.2526 151.464 68.4589L153.006 68.5681C155.909 68.7743 158.451 66.5688 158.654 63.6685L159.776 47.6625C159.98 44.7612 157.771 42.2189 154.867 42.0126L153.326 41.9035C150.422 41.6972 147.881 43.9027 147.677 46.803Z" fill="#00A5B6"/>
</g>
<mask id="mask13" mask-type="alpha" maskUnits="userSpaceOnUse" x="-86" y="-251" width="521" height="559">
<path fill-rule="evenodd" clip-rule="evenodd" d="M-18.6135 175.12L361.096 44.5801C371.147 41.1246 376.503 30.1724 373.058 20.1165L314.581 -150.557L109.289 -250.939L-63.7123 102.868L-43.0506 163.171C-41.3283 168.198 -37.7319 172.05 -33.3094 174.213C-28.888 176.375 -23.6394 176.847 -18.6135 175.12Z" fill="white"/>
</mask>
<g mask="url(#mask13)">
<path fill-rule="evenodd" clip-rule="evenodd" d="M91.7028 28.912L91.9326 45.2378C91.9365 45.5183 92.1689 45.7431 92.4476 45.7394L99.3234 45.6362C99.6021 45.6326 99.8269 45.3999 99.8235 45.121L99.5943 28.7941C99.5898 28.5147 99.358 28.2889 99.0788 28.2936L92.2035 28.3957C91.9242 28.4004 91.6984 28.6326 91.7028 28.912Z" fill="#00A5B6"/>
</g>
<mask id="mask14" mask-type="alpha" maskUnits="userSpaceOnUse" x="-86" y="-251" width="521" height="559">
<path fill-rule="evenodd" clip-rule="evenodd" d="M-18.6135 175.12L361.096 44.5801C371.147 41.1246 376.503 30.1724 373.058 20.1165L314.581 -150.557L109.289 -250.939L-63.7123 102.868L-43.0506 163.171C-41.3283 168.198 -37.7319 172.05 -33.3094 174.213C-28.888 176.375 -23.6394 176.847 -18.6135 175.12Z" fill="white"/>
</mask>
<g mask="url(#mask14)">
<path fill-rule="evenodd" clip-rule="evenodd" d="M30.1733 97.2628L20.794 101.468C20.6335 101.54 20.5616 101.73 20.6333 101.89L22.4011 105.843C22.4728 106.004 22.6629 106.077 22.8234 106.005L32.2016 101.8C32.3622 101.728 32.4356 101.537 32.3629 101.376L30.5962 97.4238C30.5245 97.2632 30.3338 97.1909 30.1733 97.2628Z" fill="#00A5B6"/>
</g>
<mask id="mask15" mask-type="alpha" maskUnits="userSpaceOnUse" x="-86" y="-251" width="521" height="559">
<path fill-rule="evenodd" clip-rule="evenodd" d="M-18.6135 175.12L361.096 44.5801C371.147 41.1246 376.503 30.1724 373.058 20.1165L314.581 -150.557L109.289 -250.939L-63.7123 102.868L-43.0506 163.171C-41.3283 168.198 -37.7319 172.05 -33.3094 174.213C-28.888 176.375 -23.6394 176.847 -18.6135 175.12Z" fill="white"/>
</mask>
<g mask="url(#mask15)">
<path fill-rule="evenodd" clip-rule="evenodd" d="M55.7743 33.1381L51.8699 23.6328C51.8034 23.4696 51.8811 23.2813 52.0443 23.2147L56.0487 21.565C56.2109 21.4978 56.3985 21.5764 56.4654 21.7386L60.371 31.2444C60.4374 31.4077 60.3587 31.5954 60.1965 31.6626L56.1921 33.3123C56.0288 33.379 55.8413 33.3004 55.7743 33.1381Z" fill="#00A5B6"/>
</g>
</g>
<path fill-rule="evenodd" clip-rule="evenodd" d="M354.527 -293.877L281.839 23.2268C278.67 37.0565 264.888 45.6968 251.059 42.5278L-66.0452 -30.1608C-79.8749 -33.3315 -88.5153 -47.1109 -85.3447 -60.9406L-12.6575 -378.044C-9.48689 -391.874 4.29417 -400.514 18.1223 -397.345L335.228 -324.657C349.056 -321.486 357.698 -307.706 354.527 -293.877Z" fill="#21B684"/>
</g>
</g>
</svg>
