<svg width="312" height="97" viewBox="0 0 312 97" fill="none" xmlns="http://www.w3.org/2000/svg">
  <mask id="mask0_4242_4317" style="mask-type:alpha" maskUnits="userSpaceOnUse" x="0" y="0" width="312" height="97">
    <path fill-rule="evenodd" clip-rule="evenodd" d="M0 8.36047C0 3.94219 3.58172 0.360474 8 0.360474H304C308.418 0.360474 312 3.9422 312 8.36047V96.3605H0V8.36047Z" fill="#E7E9EA"/>
  </mask>
  <g mask="url(#mask0_4242_4317)">
    <rect x="-24" y="-319.64" width="360" height="640" fill="#FFACC7"/>
    <mask id="mask1_4242_4317" style="mask-type:alpha" maskUnits="userSpaceOnUse" x="-24" y="-320" width="360" height="641">
      <rect x="-24" y="-319.64" width="360" height="640" fill="#C8F7F3"/>
    </mask>
    <g mask="url(#mask1_4242_4317)"></g>
    <mask id="mask2_4242_4317" style="mask-type:alpha" maskUnits="userSpaceOnUse" x="-64" y="-251" width="439" height="428">
      <path fill-rule="evenodd" clip-rule="evenodd" d="M-18.6135 175.481L361.096 44.9406C371.147 41.485 376.503 30.5328 373.058 20.477V20.477L314.581 -150.197L109.289 -250.578L-63.7123 103.228L-43.0506 163.532C-41.3283 168.558 -37.732 172.411 -33.3095 174.573V174.573C-28.888 176.735 -23.6394 177.208 -18.6135 175.481" fill="white"/>
    </mask>
    <g mask="url(#mask2_4242_4317)"></g>
    <mask id="mask3_4242_4317" style="mask-type:alpha" maskUnits="userSpaceOnUse" x="-64" y="-251" width="439" height="428">
      <path fill-rule="evenodd" clip-rule="evenodd" d="M-18.6135 175.481L361.096 44.9406C371.147 41.485 376.503 30.5328 373.058 20.477V20.477L314.581 -150.197L109.289 -250.578L-63.7123 103.228L-43.0506 163.532C-41.3283 168.558 -37.732 172.411 -33.3095 174.573V174.573C-28.888 176.735 -23.6394 177.208 -18.6135 175.481" fill="white"/>
    </mask>
    <g mask="url(#mask3_4242_4317)">
      <path fill-rule="evenodd" clip-rule="evenodd" d="M44.4397 75.9529L12.2618 60.8268C11.9166 60.6646 11.5011 60.8145 11.3381 61.1611L4.76531 75.1401C4.60287 75.4857 4.75285 75.9029 5.09806 76.0652L37.2759 91.1912C37.6222 91.354 38.0382 91.203 38.2007 90.8575L44.7724 76.8779C44.9354 76.5313 44.7849 76.1151 44.4397 75.9529" fill="#FF82AB"/>
    </g>
    <mask id="mask4_4242_4317" style="mask-type:alpha" maskUnits="userSpaceOnUse" x="-64" y="-251" width="439" height="428">
      <path fill-rule="evenodd" clip-rule="evenodd" d="M-18.6135 175.481L361.096 44.9406C371.147 41.485 376.503 30.5328 373.058 20.477V20.477L314.581 -150.197L109.289 -250.578L-63.7123 103.228L-43.0506 163.532C-41.3283 168.558 -37.732 172.411 -33.3095 174.573V174.573C-28.888 176.735 -23.6394 177.208 -18.6135 175.481" fill="white"/>
    </mask>
    <g mask="url(#mask4_4242_4317)">
      <path fill-rule="evenodd" clip-rule="evenodd" d="M304.634 -39.3411L289.492 -7.13023C289.329 -6.78467 289.479 -6.36899 289.825 -6.20622L303.79 0.358254C304.135 0.521566 304.552 0.371146 304.714 0.0255877L319.857 -32.1852C320.02 -32.5319 319.87 -32.9481 319.524 -33.1103L305.559 -39.6748C305.213 -39.8376 304.797 -39.6866 304.634 -39.3411" fill="#FF82AB"/>
    </g>
    <mask id="mask5_4242_4317" style="mask-type:alpha" maskUnits="userSpaceOnUse" x="-64" y="-251" width="439" height="428">
      <path fill-rule="evenodd" clip-rule="evenodd" d="M-18.6135 175.481L361.096 44.9406C371.147 41.485 376.503 30.5328 373.058 20.477V20.477L314.581 -150.197L109.289 -250.578L-63.7123 103.228L-43.0506 163.532C-41.3283 168.558 -37.732 172.411 -33.3095 174.573V174.573C-28.888 176.735 -23.6394 177.208 -18.6135 175.481" fill="white"/>
    </mask>
    <g mask="url(#mask5_4242_4317)">
      <path fill-rule="evenodd" clip-rule="evenodd" d="M108.721 111.094L82.7467 109.253C78.0389 108.919 73.9168 112.495 73.587 117.198L73.4113 119.697C73.082 124.402 76.6649 128.524 81.3727 128.858L107.346 130.7C112.054 131.034 116.177 127.459 116.507 122.754L116.682 120.256C117.012 115.552 113.429 111.429 108.721 111.094" fill="#FF82AB"/>
    </g>
    <mask id="mask6_4242_4317" style="mask-type:alpha" maskUnits="userSpaceOnUse" x="-64" y="-251" width="439" height="428">
      <path fill-rule="evenodd" clip-rule="evenodd" d="M-18.6135 175.481L361.096 44.9406C371.147 41.485 376.503 30.5328 373.058 20.477V20.477L314.581 -150.197L109.289 -250.578L-63.7123 103.228L-43.0506 163.532C-41.3283 168.558 -37.732 172.411 -33.3095 174.573V174.573C-28.888 176.735 -23.6394 177.208 -18.6135 175.481" fill="white"/>
    </mask>
    <g mask="url(#mask6_4242_4317)"></g>
    <mask id="mask7_4242_4317" style="mask-type:alpha" maskUnits="userSpaceOnUse" x="-64" y="-251" width="439" height="428">
      <path fill-rule="evenodd" clip-rule="evenodd" d="M-18.6135 175.481L361.096 44.9406C371.147 41.485 376.503 30.5328 373.058 20.477V20.477L314.581 -150.197L109.289 -250.578L-63.7123 103.228L-43.0506 163.532C-41.3283 168.558 -37.732 172.411 -33.3095 174.573V174.573C-28.888 176.735 -23.6394 177.208 -18.6135 175.481" fill="white"/>
    </mask>
    <g mask="url(#mask7_4242_4317)">
      <path fill-rule="evenodd" clip-rule="evenodd" d="M238.236 68.7545L218.582 85.8059C215.019 88.8955 214.638 94.3388 217.733 97.9013L219.377 99.7928C222.473 103.356 227.922 103.742 231.484 100.652L251.139 83.6013C254.701 80.5112 255.082 75.0669 251.987 71.5044L250.343 69.614C247.247 66.0509 241.798 65.6634 238.236 68.7545" fill="#FF82AB"/>
    </g>
    <mask id="mask8_4242_4317" style="mask-type:alpha" maskUnits="userSpaceOnUse" x="-64" y="-251" width="439" height="428">
      <path fill-rule="evenodd" clip-rule="evenodd" d="M-18.6135 175.481L361.096 44.9406C371.147 41.485 376.503 30.5328 373.058 20.477V20.477L314.581 -150.197L109.289 -250.578L-63.7123 103.228L-43.0506 163.532C-41.3283 168.558 -37.732 172.411 -33.3095 174.573V174.573C-28.888 176.735 -23.6394 177.208 -18.6135 175.481" fill="white"/>
    </mask>
    <g mask="url(#mask8_4242_4317)">
      <path fill-rule="evenodd" clip-rule="evenodd" d="M106.018 62.8529L78.9689 63.2562C78.6781 63.2605 78.4439 63.5016 78.448 63.7926L78.6139 75.5392C78.6179 75.8302 78.8587 76.0643 79.1495 76.0601L106.199 75.6568C106.49 75.6525 106.724 75.4113 106.72 75.1204L106.554 63.3737C106.55 63.0828 106.309 62.8486 106.018 62.8529" fill="#FF82AB"/>
    </g>
    <mask id="mask9_4242_4317" style="mask-type:alpha" maskUnits="userSpaceOnUse" x="-64" y="-251" width="439" height="428">
      <path fill-rule="evenodd" clip-rule="evenodd" d="M-18.6135 175.481L361.096 44.9406C371.147 41.485 376.503 30.5328 373.058 20.477V20.477L314.581 -150.197L109.289 -250.578L-63.7123 103.228L-43.0506 163.532C-41.3283 168.558 -37.732 172.411 -33.3095 174.573V174.573C-28.888 176.735 -23.6394 177.208 -18.6135 175.481" fill="white"/>
    </mask>
    <g mask="url(#mask9_4242_4317)"></g>
    <mask id="mask10_4242_4317" style="mask-type:alpha" maskUnits="userSpaceOnUse" x="-64" y="-251" width="439" height="428">
      <path fill-rule="evenodd" clip-rule="evenodd" d="M-18.6135 175.481L361.096 44.9406C371.147 41.485 376.503 30.5328 373.058 20.477V20.477L314.581 -150.197L109.289 -250.578L-63.7123 103.228L-43.0506 163.532C-41.3283 168.558 -37.732 172.411 -33.3095 174.573V174.573C-28.888 176.735 -23.6394 177.208 -18.6135 175.481" fill="white"/>
    </mask>
    <g mask="url(#mask10_4242_4317)"></g>
    <mask id="mask11_4242_4317" style="mask-type:alpha" maskUnits="userSpaceOnUse" x="-64" y="-251" width="439" height="428">
      <path fill-rule="evenodd" clip-rule="evenodd" d="M-18.6135 175.481L361.096 44.9406C371.147 41.485 376.503 30.5328 373.058 20.477V20.477L314.581 -150.197L109.289 -250.578L-63.7123 103.228L-43.0506 163.532C-41.3283 168.558 -37.732 172.411 -33.3095 174.573V174.573C-28.888 176.735 -23.6394 177.208 -18.6135 175.481" fill="white"/>
    </mask>
    <g mask="url(#mask11_4242_4317)"></g>
    <mask id="mask12_4242_4317" style="mask-type:alpha" maskUnits="userSpaceOnUse" x="-64" y="-251" width="439" height="428">
      <path fill-rule="evenodd" clip-rule="evenodd" d="M-18.6135 175.481L361.096 44.9406C371.147 41.485 376.503 30.5328 373.058 20.477V20.477L314.581 -150.197L109.289 -250.578L-63.7123 103.228L-43.0506 163.532C-41.3283 168.558 -37.732 172.411 -33.3095 174.573V174.573C-28.888 176.735 -23.6394 177.208 -18.6135 175.481" fill="white"/>
    </mask>
    <g mask="url(#mask12_4242_4317)">
      <path fill-rule="evenodd" clip-rule="evenodd" d="M234.85 -4.88087L215.993 14.5426C215.79 14.7509 215.795 15.0881 216.003 15.2905L224.421 23.4733C224.629 23.6757 224.966 23.6705 225.168 23.4622L244.026 4.03764C244.228 3.82933 244.223 3.49321 244.015 3.29081L235.597 -4.89201C235.389 -5.09441 235.052 -5.08918 234.85 -4.88087" fill="#F8BBD0"/>
    </g>
    <mask id="mask13_4242_4317" style="mask-type:alpha" maskUnits="userSpaceOnUse" x="-64" y="-251" width="439" height="428">
      <path fill-rule="evenodd" clip-rule="evenodd" d="M-18.6135 175.481L361.096 44.9406C371.147 41.485 376.503 30.5328 373.058 20.477V20.477L314.581 -150.197L109.289 -250.578L-63.7123 103.228L-43.0506 163.532C-41.3283 168.558 -37.732 172.411 -33.3095 174.573V174.573C-28.888 176.735 -23.6394 177.208 -18.6135 175.481" fill="white"/>
    </mask>
    <g mask="url(#mask13_4242_4317)">
      <path fill-rule="evenodd" clip-rule="evenodd" d="M69.0874 -1.68099L53.1762 -7.74942C53.005 -7.81349 52.8126 -7.72713 52.7474 -7.55634L50.1097 -0.644532C50.0439 -0.472685 50.1311 -0.279669 50.3017 -0.214543L66.2119 5.85336C66.3836 5.91901 66.5765 5.8316 66.6418 5.6608L69.2795 -1.251C69.3452 -1.42285 69.258 -1.61587 69.0874 -1.68099" fill="#FF82AB"/>
    </g>
    <mask id="mask14_4242_4317" style="mask-type:alpha" maskUnits="userSpaceOnUse" x="-64" y="-251" width="439" height="428">
      <path fill-rule="evenodd" clip-rule="evenodd" d="M-18.6135 175.481L361.096 44.9406C371.147 41.485 376.503 30.5328 373.058 20.477V20.477L314.581 -150.197L109.289 -250.578L-63.7123 103.228L-43.0506 163.532C-41.3283 168.558 -37.732 172.411 -33.3095 174.573V174.573C-28.888 176.735 -23.6394 177.208 -18.6135 175.481" fill="white"/>
    </mask>
    <g mask="url(#mask14_4242_4317)"></g>
    <mask id="mask15_4242_4317" style="mask-type:alpha" maskUnits="userSpaceOnUse" x="-64" y="-251" width="439" height="428">
      <path fill-rule="evenodd" clip-rule="evenodd" d="M-18.6135 175.481L361.096 44.9406C371.147 41.485 376.503 30.5328 373.058 20.477V20.477L314.581 -150.197L109.289 -250.578L-63.7123 103.228L-43.0506 163.532C-41.3283 168.558 -37.732 172.411 -33.3095 174.573V174.573C-28.888 176.735 -23.6394 177.208 -18.6135 175.481" fill="white"/>
    </mask>
    <g mask="url(#mask15_4242_4317)">
      <path fill-rule="evenodd" clip-rule="evenodd" d="M160.189 -11.2906L144.641 -4.31943C144.474 -4.24434 144.398 -4.04719 144.473 -3.8798L147.491 2.86975C147.566 3.03714 147.763 3.11253 147.93 3.03744L163.478 -3.93374C163.645 -4.00777 163.721 -4.20598 163.646 -4.37337L160.628 -11.1229C160.553 -11.2903 160.356 -11.3657 160.189 -11.2906" fill="#FF82AB"/>
    </g>
    <mask id="mask16_4242_4317" style="mask-type:alpha" maskUnits="userSpaceOnUse" x="-64" y="-251" width="439" height="428">
      <path fill-rule="evenodd" clip-rule="evenodd" d="M-18.6135 175.481L361.096 44.9406C371.147 41.485 376.503 30.5328 373.058 20.477V20.477L314.581 -150.197L109.289 -250.578L-63.7123 103.228L-43.0506 163.532C-41.3283 168.558 -37.732 172.411 -33.3095 174.573V174.573C-28.888 176.735 -23.6394 177.208 -18.6135 175.481" fill="white"/>
    </mask>
    <g mask="url(#mask16_4242_4317)"></g>
    <mask id="mask17_4242_4317" style="mask-type:alpha" maskUnits="userSpaceOnUse" x="-64" y="-251" width="439" height="428">
      <path fill-rule="evenodd" clip-rule="evenodd" d="M-18.6135 175.481L361.096 44.9406C371.147 41.485 376.503 30.5328 373.058 20.477V20.477L314.581 -150.197L109.289 -250.578L-63.7123 103.228L-43.0506 163.532C-41.3283 168.558 -37.732 172.411 -33.3095 174.573V174.573C-28.888 176.735 -23.6394 177.208 -18.6135 175.481" fill="white"/>
    </mask>
    <g mask="url(#mask17_4242_4317)"></g>
    <mask id="mask18_4242_4317" style="mask-type:alpha" maskUnits="userSpaceOnUse" x="-64" y="-251" width="439" height="428">
      <path fill-rule="evenodd" clip-rule="evenodd" d="M-18.6135 175.481L361.096 44.9406C371.147 41.485 376.503 30.5328 373.058 20.477V20.477L314.581 -150.197L109.289 -250.578L-63.7123 103.228L-43.0506 163.532C-41.3283 168.558 -37.732 172.411 -33.3095 174.573V174.573C-28.888 176.735 -23.6394 177.208 -18.6135 175.481" fill="white"/>
    </mask>
    <g mask="url(#mask18_4242_4317)"></g>
    <mask id="mask19_4242_4317" style="mask-type:alpha" maskUnits="userSpaceOnUse" x="-64" y="-251" width="439" height="428">
      <path fill-rule="evenodd" clip-rule="evenodd" d="M-18.6135 175.481L361.096 44.9406C371.147 41.485 376.503 30.5328 373.058 20.477V20.477L314.581 -150.197L109.289 -250.578L-63.7123 103.228L-43.0506 163.532C-41.3283 168.558 -37.732 172.411 -33.3095 174.573V174.573C-28.888 176.735 -23.6394 177.208 -18.6135 175.481" fill="white"/>
    </mask>
    <g mask="url(#mask19_4242_4317)">
      <path fill-rule="evenodd" clip-rule="evenodd" d="M165.185 -14.8948L172.451 5.29531C172.576 5.64136 172.96 5.82269 173.305 5.6971L181.811 2.62625C182.156 2.50223 182.337 2.11711 182.212 1.77107L174.946 -18.4191C174.822 -18.7646 174.437 -18.9449 174.092 -18.8209L165.587 -15.7495C165.242 -15.6255 165.06 -15.2409 165.185 -14.8948" fill="#FF82AB"/>
    </g>
    <mask id="mask20_4242_4317" style="mask-type:alpha" maskUnits="userSpaceOnUse" x="-64" y="-251" width="439" height="428">
      <path fill-rule="evenodd" clip-rule="evenodd" d="M-18.6135 175.481L361.096 44.9406C371.147 41.485 376.503 30.5328 373.058 20.477V20.477L314.581 -150.197L109.289 -250.578L-63.7123 103.228L-43.0506 163.532C-41.3283 168.558 -37.732 172.411 -33.3095 174.573V174.573C-28.888 176.735 -23.6394 177.208 -18.6135 175.481" fill="white"/>
    </mask>
    <g mask="url(#mask20_4242_4317)"></g>
    <mask id="mask21_4242_4317" style="mask-type:alpha" maskUnits="userSpaceOnUse" x="-64" y="-251" width="439" height="428">
      <path fill-rule="evenodd" clip-rule="evenodd" d="M-18.6135 175.481L361.096 44.9406C371.147 41.485 376.503 30.5328 373.058 20.477V20.477L314.581 -150.197L109.289 -250.578L-63.7123 103.228L-43.0506 163.532C-41.3283 168.558 -37.732 172.411 -33.3095 174.573V174.573C-28.888 176.735 -23.6394 177.208 -18.6135 175.481" fill="white"/>
    </mask>
    <g mask="url(#mask21_4242_4317)">
      <path fill-rule="evenodd" clip-rule="evenodd" d="M119.25 80.4951L110.117 99.925C109.96 100.257 110.104 100.657 110.436 100.813L118.615 104.658C118.947 104.814 119.347 104.67 119.503 104.337L128.638 84.9074C128.794 84.5745 128.65 84.1746 128.318 84.0185L120.139 80.1738C119.807 80.0177 119.407 80.1622 119.25 80.4951" fill="#FF82AB"/>
    </g>
    <mask id="mask22_4242_4317" style="mask-type:alpha" maskUnits="userSpaceOnUse" x="-64" y="-251" width="439" height="428">
      <path fill-rule="evenodd" clip-rule="evenodd" d="M-18.6135 175.481L361.096 44.9406C371.147 41.485 376.503 30.5328 373.058 20.477V20.477L314.581 -150.197L109.289 -250.578L-63.7123 103.228L-43.0506 163.532C-41.3283 168.558 -37.732 172.411 -33.3095 174.573V174.573C-28.888 176.735 -23.6394 177.208 -18.6135 175.481" fill="white"/>
    </mask>
    <g mask="url(#mask22_4242_4317)"></g>
    <mask id="mask23_4242_4317" style="mask-type:alpha" maskUnits="userSpaceOnUse" x="-64" y="-251" width="439" height="428">
      <path fill-rule="evenodd" clip-rule="evenodd" d="M-18.6135 175.481L361.096 44.9406C371.147 41.485 376.503 30.5328 373.058 20.477V20.477L314.581 -150.197L109.289 -250.578L-63.7123 103.228L-43.0506 163.532C-41.3283 168.558 -37.732 172.411 -33.3095 174.573V174.573C-28.888 176.735 -23.6394 177.208 -18.6135 175.481" fill="white"/>
    </mask>
    <g mask="url(#mask23_4242_4317)"></g>
    <mask id="mask24_4242_4317" style="mask-type:alpha" maskUnits="userSpaceOnUse" x="-64" y="-251" width="439" height="428">
      <path fill-rule="evenodd" clip-rule="evenodd" d="M-18.6135 175.481L361.096 44.9406C371.147 41.485 376.503 30.5328 373.058 20.477V20.477L314.581 -150.197L109.289 -250.578L-63.7123 103.228L-43.0506 163.532C-41.3283 168.558 -37.732 172.411 -33.3095 174.573V174.573C-28.888 176.735 -23.6394 177.208 -18.6135 175.481" fill="white"/>
    </mask>
    <g mask="url(#mask24_4242_4317)">
      <path fill-rule="evenodd" clip-rule="evenodd" d="M147.677 47.1635L146.555 63.1694C146.351 66.0708 148.56 68.6131 151.464 68.8194L153.006 68.9285C155.909 69.1348 158.451 66.9293 158.654 64.0289L159.776 48.023C159.98 45.1216 157.771 42.5793 154.867 42.3731L153.326 42.2639C150.422 42.0576 147.881 44.2632 147.677 47.1635" fill="#FF82AB"/>
    </g>
    <mask id="mask25_4242_4317" style="mask-type:alpha" maskUnits="userSpaceOnUse" x="-64" y="-251" width="439" height="428">
      <path fill-rule="evenodd" clip-rule="evenodd" d="M-18.6135 175.481L361.096 44.9406C371.147 41.485 376.503 30.5328 373.058 20.477V20.477L314.581 -150.197L109.289 -250.578L-63.7123 103.228L-43.0506 163.532C-41.3283 168.558 -37.732 172.411 -33.3095 174.573V174.573C-28.888 176.735 -23.6394 177.208 -18.6135 175.481" fill="white"/>
    </mask>
    <g mask="url(#mask25_4242_4317)"></g>
    <mask id="mask26_4242_4317" style="mask-type:alpha" maskUnits="userSpaceOnUse" x="-64" y="-251" width="439" height="428">
      <path fill-rule="evenodd" clip-rule="evenodd" d="M-18.6135 175.481L361.096 44.9406C371.147 41.485 376.503 30.5328 373.058 20.477V20.477L314.581 -150.197L109.289 -250.578L-63.7123 103.228L-43.0506 163.532C-41.3283 168.558 -37.732 172.411 -33.3095 174.573V174.573C-28.888 176.735 -23.6394 177.208 -18.6135 175.481" fill="white"/>
    </mask>
    <g mask="url(#mask26_4242_4317)"></g>
    <mask id="mask27_4242_4317" style="mask-type:alpha" maskUnits="userSpaceOnUse" x="-64" y="-251" width="439" height="428">
      <path fill-rule="evenodd" clip-rule="evenodd" d="M-18.6135 175.481L361.096 44.9406C371.147 41.485 376.503 30.5328 373.058 20.477V20.477L314.581 -150.197L109.289 -250.578L-63.7123 103.228L-43.0506 163.532C-41.3283 168.558 -37.732 172.411 -33.3095 174.573V174.573C-28.888 176.735 -23.6394 177.208 -18.6135 175.481" fill="white"/>
    </mask>
    <g mask="url(#mask27_4242_4317)"></g>
    <mask id="mask28_4242_4317" style="mask-type:alpha" maskUnits="userSpaceOnUse" x="-64" y="-251" width="439" height="428">
      <path fill-rule="evenodd" clip-rule="evenodd" d="M-18.6135 175.481L361.096 44.9406C371.147 41.485 376.503 30.5328 373.058 20.477V20.477L314.581 -150.197L109.289 -250.578L-63.7123 103.228L-43.0506 163.532C-41.3283 168.558 -37.732 172.411 -33.3095 174.573V174.573C-28.888 176.735 -23.6394 177.208 -18.6135 175.481" fill="white"/>
    </mask>
    <g mask="url(#mask28_4242_4317)">
      <path fill-rule="evenodd" clip-rule="evenodd" d="M91.7027 29.2724L91.9325 45.5983C91.9364 45.8787 92.1688 46.1035 92.4475 46.0999L99.3233 45.9967C99.602 45.993 99.8268 45.7604 99.8234 45.4815L99.5942 29.1545C99.5897 28.8751 99.3579 28.6493 99.0786 28.654L92.2033 28.7561C91.9241 28.7608 91.6983 28.993 91.7027 29.2724" fill="#FF82AB"/>
    </g>
    <mask id="mask29_4242_4317" style="mask-type:alpha" maskUnits="userSpaceOnUse" x="-64" y="-251" width="439" height="428">
      <path fill-rule="evenodd" clip-rule="evenodd" d="M-18.6135 175.481L361.096 44.9406C371.147 41.485 376.503 30.5328 373.058 20.477V20.477L314.581 -150.197L109.289 -250.578L-63.7123 103.228L-43.0506 163.532C-41.3283 168.558 -37.732 172.411 -33.3095 174.573V174.573C-28.888 176.735 -23.6394 177.208 -18.6135 175.481" fill="white"/>
    </mask>
    <g mask="url(#mask29_4242_4317)"></g>
    <mask id="mask30_4242_4317" style="mask-type:alpha" maskUnits="userSpaceOnUse" x="-64" y="-251" width="439" height="428">
      <path fill-rule="evenodd" clip-rule="evenodd" d="M-18.6135 175.481L361.096 44.9406C371.147 41.485 376.503 30.5328 373.058 20.477V20.477L314.581 -150.197L109.289 -250.578L-63.7123 103.228L-43.0506 163.532C-41.3283 168.558 -37.732 172.411 -33.3095 174.573V174.573C-28.888 176.735 -23.6394 177.208 -18.6135 175.481" fill="white"/>
    </mask>
    <g mask="url(#mask30_4242_4317)"></g>
    <mask id="mask31_4242_4317" style="mask-type:alpha" maskUnits="userSpaceOnUse" x="-64" y="-251" width="439" height="428">
      <path fill-rule="evenodd" clip-rule="evenodd" d="M-18.6135 175.481L361.096 44.9406C371.147 41.485 376.503 30.5328 373.058 20.477V20.477L314.581 -150.197L109.289 -250.578L-63.7123 103.228L-43.0506 163.532C-41.3283 168.558 -37.732 172.411 -33.3095 174.573V174.573C-28.888 176.735 -23.6394 177.208 -18.6135 175.481" fill="white"/>
    </mask>
    <g mask="url(#mask31_4242_4317)"></g>
    <mask id="mask32_4242_4317" style="mask-type:alpha" maskUnits="userSpaceOnUse" x="-64" y="-251" width="439" height="428">
      <path fill-rule="evenodd" clip-rule="evenodd" d="M-18.6135 175.481L361.096 44.9406C371.147 41.485 376.503 30.5328 373.058 20.477V20.477L314.581 -150.197L109.289 -250.578L-63.7123 103.228L-43.0506 163.532C-41.3283 168.558 -37.732 172.411 -33.3095 174.573V174.573C-28.888 176.735 -23.6394 177.208 -18.6135 175.481" fill="white"/>
    </mask>
    <g mask="url(#mask32_4242_4317)"></g>
    <mask id="mask33_4242_4317" style="mask-type:alpha" maskUnits="userSpaceOnUse" x="-64" y="-251" width="439" height="428">
      <path fill-rule="evenodd" clip-rule="evenodd" d="M-18.6135 175.481L361.096 44.9406C371.147 41.485 376.503 30.5328 373.058 20.477V20.477L314.581 -150.197L109.289 -250.578L-63.7123 103.228L-43.0506 163.532C-41.3283 168.558 -37.732 172.411 -33.3095 174.573V174.573C-28.888 176.735 -23.6394 177.208 -18.6135 175.481" fill="white"/>
    </mask>
    <g mask="url(#mask33_4242_4317)"></g>
    <mask id="mask34_4242_4317" style="mask-type:alpha" maskUnits="userSpaceOnUse" x="-64" y="-251" width="439" height="428">
      <path fill-rule="evenodd" clip-rule="evenodd" d="M-18.6135 175.481L361.096 44.9406C371.147 41.485 376.503 30.5328 373.058 20.477V20.477L314.581 -150.197L109.289 -250.578L-63.7123 103.228L-43.0506 163.532C-41.3283 168.558 -37.732 172.411 -33.3095 174.573V174.573C-28.888 176.735 -23.6394 177.208 -18.6135 175.481" fill="white"/>
    </mask>
    <g mask="url(#mask34_4242_4317)">
      <path fill-rule="evenodd" clip-rule="evenodd" d="M30.1732 97.6232L20.7939 101.828C20.6334 101.9 20.5615 102.09 20.6332 102.251L22.401 106.204C22.4726 106.364 22.6628 106.438 22.8233 106.366L32.2015 102.16C32.3621 102.088 32.4355 101.898 32.3628 101.737L30.596 97.7842C30.5243 97.6237 30.3337 97.5514 30.1732 97.6232" fill="#FF82AB"/>
    </g>
    <mask id="mask35_4242_4317" style="mask-type:alpha" maskUnits="userSpaceOnUse" x="-64" y="-251" width="439" height="428">
      <path fill-rule="evenodd" clip-rule="evenodd" d="M-18.6135 175.481L361.096 44.9406C371.147 41.4851 376.503 30.5328 373.058 20.477L314.581 -150.197L109.289 -250.578L-63.7123 103.228L-43.0506 163.532C-41.3283 168.558 -37.7319 172.411 -33.3094 174.573C-28.888 176.735 -23.6394 177.208 -18.6135 175.481Z" fill="white"/>
    </mask>
    <g mask="url(#mask35_4242_4317)">
      <path fill-rule="evenodd" clip-rule="evenodd" d="M55.7743 33.4986L51.8699 23.9933C51.8034 23.83 51.8811 23.6418 52.0443 23.5752L56.0487 21.9254C56.2109 21.8583 56.3985 21.9369 56.4654 22.0991L60.371 31.6049C60.4374 31.7682 60.3587 31.9559 60.1965 32.0231L56.1921 33.6728C56.0288 33.7395 55.8413 33.6608 55.7743 33.4986" fill="#FF82AB"/>
      <path fill-rule="evenodd" clip-rule="evenodd" d="M354.527 -293.516L281.839 23.5873C278.67 37.4169 264.888 46.0573 251.059 42.8883L-66.0452 -29.8004C-79.8749 -32.971 -88.5153 -46.7505 -85.3447 -60.5801L-12.6575 -377.684C-9.48688 -391.513 4.29418 -400.154 18.1223 -396.985L335.228 -324.296C349.056 -321.125 357.698 -307.346 354.527 -293.516" fill="#F8BBD0"/>
    </g>
  </g>
</svg>
