<svg width="48" height="48" viewBox="0 0 48 48" fill="none" xmlns="http://www.w3.org/2000/svg">
<path fill-rule="evenodd" clip-rule="evenodd" d="M21.6218 45.0152L2.98481 26.3782C1.67173 25.0651 1.67173 22.9357 2.98481 21.6227L21.6218 2.98481C22.9349 1.67173 25.0643 1.67173 26.3773 2.98481L45.0152 21.6227C46.3283 22.9357 46.3283 25.0651 45.0152 26.3782L26.3773 45.0152C25.0643 46.3283 22.9349 46.3283 21.6218 45.0152Z" fill="#EAEAEA"/>
<path d="M28.0639 32H19.9361C19.4189 32 19 31.5684 19 31.0355V15.9645C19 15.4316 19.4189 15 19.9361 15H28.0639C28.5811 15 29 15.4316 29 15.9645V31.0355C29 31.5684 28.5811 32 28.0639 32Z" stroke="#8E8E8E" stroke-miterlimit="10"/>
<path d="M23.4623 18.0317C23.0932 18.0884 22.7388 18.1947 22.4136 18.3541C22.3295 18.3931 22.2528 18.4427 22.2345 18.4604C22.187 18.5065 22.1834 18.6093 22.2199 18.6695C22.2455 18.712 22.3222 18.7546 22.3697 18.7546C22.3843 18.7546 22.4757 18.7156 22.578 18.666C23.0494 18.4392 23.4404 18.3506 23.9446 18.3506C24.4672 18.3506 24.8984 18.4534 25.3625 18.6872C25.4757 18.7475 25.5086 18.7546 25.5488 18.7475C25.6146 18.7333 25.6804 18.6802 25.6986 18.6235C25.7059 18.5986 25.7059 18.5738 25.7059 18.5632C25.7023 18.5561 25.7023 18.5384 25.7023 18.5242C25.7023 18.4746 25.6182 18.4144 25.4136 18.3187C25.0738 18.1628 24.7266 18.0636 24.3429 18.0104C24.1274 17.9927 23.6925 17.9962 23.4623 18.0317Z" fill="#8E8E8E"/>
<path d="M23.1331 18.8573C22.9467 18.9175 22.6288 19.0664 22.585 19.1124C22.5192 19.1798 22.5338 19.3144 22.6069 19.3676C22.6909 19.4243 22.7202 19.4172 22.9248 19.325C23.2244 19.1798 23.4291 19.1231 23.758 19.0947C24.1526 19.0557 24.5582 19.1337 24.9346 19.3109C25.0223 19.3534 25.11 19.3924 25.1319 19.3995C25.2123 19.4243 25.3183 19.3605 25.3439 19.279C25.3841 19.155 25.2854 19.0664 24.9821 18.9423C24.3865 18.6943 23.7397 18.6695 23.1331 18.8573Z" fill="#8E8E8E"/>
<path d="M22.8921 19.8885C22.8921 19.9452 22.8994 19.9594 22.9396 20.0019C23.02 20.0834 23.0565 20.0834 23.2612 19.9842C23.7216 19.7609 24.1747 19.768 24.6461 19.9912C24.774 20.0515 24.8142 20.0621 24.8471 20.0586C24.9055 20.0444 24.9603 20.0019 24.9823 19.9523C24.9896 19.931 25.0005 19.8885 24.9969 19.8672C24.9823 19.7857 24.9384 19.7467 24.774 19.6652C24.478 19.5235 24.2661 19.4739 23.9481 19.4739C23.6412 19.4739 23.4 19.5235 23.1223 19.6581C22.9396 19.7432 22.8921 19.7963 22.8921 19.8885Z" fill="#8E8E8E"/>
<path d="M23.2207 20.5405C23.239 20.6397 23.3486 20.7071 23.4363 20.6823C23.4583 20.6787 23.5094 20.6468 23.5606 20.622C23.6958 20.5405 23.7689 20.5228 23.9443 20.5228C24.1197 20.5228 24.1891 20.5405 24.3279 20.622C24.4339 20.6858 24.4778 20.7 24.5289 20.6823C24.5764 20.6681 24.6349 20.622 24.6532 20.5795C24.6934 20.4909 24.6495 20.4059 24.5253 20.3279C24.1781 20.1117 23.714 20.1117 23.3669 20.3279C23.2427 20.4059 23.2098 20.459 23.2207 20.5405Z" fill="#8E8E8E"/>
<path d="M25 24C25.732 24.3084 26 25.0547 26 25.924C26 27.0704 25.1044 28 24 28C22.8956 28 22 27.0704 22 25.924C22 25.0637 22.2809 24.3151 23 24" stroke="#8E8E8E" stroke-miterlimit="10" stroke-linecap="round"/>
<path d="M24.0005 23.1057V25.1437" stroke="#8E8E8E" stroke-width="0.5" stroke-miterlimit="10" stroke-linecap="round"/>
</svg>
