<svg width="48" height="48" viewBox="0 0 48 48" fill="none" xmlns="http://www.w3.org/2000/svg">
<path fill-rule="evenodd" clip-rule="evenodd" d="M21.6218 45.0152L2.98481 26.3782C1.67173 25.0651 1.67173 22.9357 2.98481 21.6227L21.6218 2.98481C22.9349 1.67173 25.0643 1.67173 26.3773 2.98481L45.0152 21.6227C46.3283 22.9357 46.3283 25.0651 45.0152 26.3782L26.3773 45.0152C25.0643 46.3283 22.9349 46.3283 21.6218 45.0152Z" fill="#EAEAEA"/>
<path d="M22.5 24C22.5 24.8255 23.1748 25.5 23.9996 25.5C24.8342 25.5 25.529 24.8404 25.4991 23.9895C25.4934 23.1688 24.8208 22.5 23.9996 22.5C23.1717 22.5 22.5 23.1752 22.5 24Z" stroke="#8E8E8E"/>
<path d="M23 30L22.5 30L22.5 33.1111C22.5 33.9295 23.2322 34.5 24 34.5C24.7709 34.5 25.5 33.9288 25.5 33.1111L25.5 30L25 30C25.5 30 25.5 29.9995 25.5 29.999L25.5 29.998L25.5 29.996L25.4999 29.9917L25.4997 29.9824C25.4995 29.976 25.4992 29.9688 25.4986 29.9611C25.4976 29.9457 25.4959 29.9278 25.493 29.9078C25.4873 29.8679 25.477 29.8188 25.4587 29.7638C25.4215 29.652 25.3521 29.52 25.2286 29.3964C24.9767 29.1446 24.5771 29 24 29C23.4229 29 23.0233 29.1446 22.7714 29.3964C22.6479 29.52 22.5785 29.652 22.5413 29.7638C22.523 29.8188 22.5127 29.8679 22.507 29.9078C22.5041 29.9278 22.5024 29.9457 22.5014 29.9611C22.5008 29.9688 22.5005 29.976 22.5003 29.9824L22.5001 29.9917L22.5 29.996L22.5 29.998L22.5 29.999C22.5 29.9995 22.5 30 23 30Z" stroke="#8E8E8E"/>
<path d="M23.9984 21C23.1997 21 22.4726 21.3157 21.9345 21.828C21.3217 22.4113 20.6068 23 19.7608 23H17.999C17.4472 23 17 23.4472 17 23.999C17 24.5507 17.4472 24.9979 17.999 24.9979H19.8537C20.6441 24.9979 21.4121 25.4717 22 26L22.0004 26.5745C22.0004 27.0092 21.7151 27.3855 21.3215 27.57C20.4708 27.9688 19.7603 28.5711 19.3015 29.3588C19.0654 29.7642 19.0004 30.2401 19.0004 30.7092V32C19.0004 33.2127 21.3215 33.3839 21.3215 32C21.3215 30.8954 21.3239 29 24.0004 29C26.677 29 26.677 30.8954 26.677 32C26.677 33.2898 29.0004 33.2896 29.0004 32V30.7117C29.0004 30.241 28.935 29.7634 28.6972 29.357C28.2373 28.571 27.5263 27.9696 26.677 27.5711C26.2823 27.3859 25.9968 27.0078 25.9984 26.5719L26 26C26.6105 25.4793 27.4044 24.9979 28.2068 24.9979H30.001C30.5528 24.9979 31 24.5507 31 23.999C31 23.4472 30.5528 23 30.001 23H28.2334C27.3882 23 26.6736 22.4128 26.0616 21.8299C25.5225 21.3165 24.7947 21 23.9984 21Z" stroke="#8E8E8E"/>
<path d="M27.9974 22.85V14.4477C27.9974 13.6463 27.3805 13 26.6219 13H21.3755C20.6141 13 20 13.6493 20 14.4477V22.8471" stroke="#8E8E8E" stroke-miterlimit="10"/>
<path d="M27.1602 27.7111C27.652 27.4918 27.9994 26.9771 27.9994 26.3775V25.0293" stroke="#8E8E8E" stroke-miterlimit="10"/>
<path d="M20 25V26.3775C20 26.9712 20.3418 27.483 20.8281 27.7052" stroke="#8E8E8E" stroke-miterlimit="10"/>
<path d="M23.6111 15.0239C23.331 15.0685 23.0631 15.1496 22.8195 15.2753C22.7546 15.3037 22.6977 15.3442 22.6815 15.3564C22.645 15.3929 22.6409 15.474 22.6734 15.5186C22.6937 15.551 22.7505 15.5834 22.787 15.5834C22.7952 15.5834 22.8682 15.5551 22.9413 15.5145C23.2985 15.3402 23.5908 15.2672 23.9724 15.2672C24.3662 15.2672 24.6909 15.3483 25.0441 15.5307C25.1293 15.5753 25.1537 15.5834 25.1821 15.5753C25.2308 15.5672 25.2836 15.5226 25.2958 15.478C25.3039 15.4578 25.3039 15.4375 25.3039 15.4334C25.2998 15.4253 25.2998 15.4132 25.2998 15.405C25.2998 15.3645 25.2349 15.3199 25.0806 15.2469C24.8249 15.1253 24.561 15.0483 24.2687 15.0077C24.1104 14.9956 23.7816 14.9956 23.6111 15.0239Z" fill="#8E8E8E"/>
<path d="M23.3635 15.6687C23.2255 15.7133 22.9819 15.8309 22.9495 15.8673C22.9008 15.9201 22.9089 16.0214 22.9657 16.066C23.0307 16.1106 23.051 16.1066 23.2052 16.0336C23.4325 15.9201 23.5868 15.8795 23.8344 15.8552C24.1348 15.8268 24.4393 15.8836 24.7234 16.0255C24.7884 16.0579 24.8574 16.0903 24.8736 16.0944C24.9345 16.1147 25.0116 16.066 25.0319 16.0011C25.0604 15.9038 24.9873 15.8349 24.76 15.7376C24.3094 15.543 23.8182 15.5227 23.3635 15.6687Z" fill="#8E8E8E"/>
<path d="M23.1812 16.4714C23.1812 16.516 23.1893 16.5281 23.2177 16.5606C23.2786 16.6254 23.307 16.6254 23.4613 16.5484C23.8104 16.3741 24.1514 16.3781 24.5086 16.5565C24.606 16.6011 24.6344 16.6133 24.6628 16.6092C24.7075 16.6011 24.7481 16.5646 24.7643 16.5281C24.7724 16.5119 24.7765 16.4795 24.7724 16.4633C24.7643 16.3984 24.7278 16.37 24.6019 16.3092C24.3787 16.1997 24.2163 16.1592 23.9768 16.1592C23.7454 16.1592 23.5627 16.1997 23.3516 16.3011C23.2177 16.3578 23.1812 16.3984 23.1812 16.4714Z" fill="#8E8E8E"/>
<path d="M23.4292 16.9783C23.4414 17.0553 23.5266 17.108 23.5916 17.0877C23.6078 17.0837 23.6484 17.0594 23.6849 17.0431C23.7864 16.9783 23.8392 16.9661 23.9732 16.9661C24.1071 16.9661 24.1599 16.9783 24.2614 17.0431C24.3426 17.0918 24.375 17.1039 24.4156 17.0877C24.4522 17.0796 24.4968 17.0431 24.509 17.0066C24.5374 16.9377 24.5049 16.8688 24.4116 16.812C24.1477 16.6418 23.7986 16.6418 23.5347 16.812C23.4454 16.8729 23.4211 16.9134 23.4292 16.9783Z" fill="#8E8E8E"/>
</svg>
