<svg width="48" height="48" viewBox="0 0 48 48" fill="none" xmlns="http://www.w3.org/2000/svg">
<path fill-rule="evenodd" clip-rule="evenodd" d="M21.6218 45.0152L2.98481 26.3782C1.67173 25.0651 1.67173 22.9357 2.98481 21.6227L21.6218 2.98481C22.9349 1.67173 25.0643 1.67173 26.3773 2.98481L45.0152 21.6227C46.3283 22.9357 46.3283 25.0651 45.0152 26.3782L26.3773 45.0152C25.0643 46.3283 22.9349 46.3283 21.6218 45.0152Z" fill="#EAEAEA"/>
<path d="M19.2696 18.6416L16.9776 20.4674C16.37 20.8453 16 21.5127 16 22.227L16.0414 23.1648" stroke="#8E8E8E" stroke-miterlimit="10" stroke-linecap="round" stroke-linejoin="round"/>
<path d="M25.4582 15.9967L24.9363 15.5968C24.3591 15.2272 23.6384 15.2327 23.0695 15.6161L22.5918 15.9967" stroke="#8E8E8E" stroke-miterlimit="10" stroke-linecap="round" stroke-linejoin="round"/>
<path d="M31.9994 23.1151V22.0174C31.9994 21.3776 31.7067 20.7818 31.2124 20.3902L28.7271 18.4927" stroke="#8E8E8E" stroke-miterlimit="10" stroke-linecap="round" stroke-linejoin="round"/>
<path d="M23.5852 19.1269C23.2091 19.1872 22.847 19.2985 22.5174 19.4654C22.4338 19.5071 22.3503 19.5582 22.3317 19.5767C22.2806 19.6277 22.276 19.7343 22.3178 19.7946C22.3456 19.841 22.4199 19.8827 22.471 19.8827C22.4849 19.8827 22.5777 19.841 22.6799 19.79C23.1581 19.5535 23.5573 19.4608 24.0727 19.4608C24.6066 19.4608 25.043 19.5674 25.5165 19.8132C25.6326 19.8735 25.6651 19.8827 25.7022 19.8735C25.7672 19.8595 25.8368 19.8039 25.8554 19.7436C25.8647 19.7158 25.8647 19.688 25.8647 19.6833C25.8601 19.6741 25.8601 19.6555 25.8601 19.6416C25.8601 19.586 25.7765 19.5257 25.5629 19.4283C25.2194 19.2614 24.8665 19.1594 24.4719 19.1084C24.2584 19.0898 23.8173 19.0945 23.5852 19.1269Z" fill="#8E8E8E"/>
<path d="M23.2496 19.994C23.0639 20.0543 22.7342 20.2119 22.6925 20.2629C22.6275 20.3325 22.6368 20.4716 22.7157 20.5318C22.7992 20.5921 22.8317 20.5875 23.036 20.4855C23.3424 20.3325 23.5513 20.2768 23.8856 20.2444C24.2895 20.2026 24.6981 20.2861 25.0834 20.4716C25.1716 20.5179 25.2645 20.555 25.283 20.5643C25.362 20.5921 25.4687 20.5226 25.4966 20.4391C25.5384 20.3093 25.4362 20.2165 25.1298 20.0867C24.5216 19.8271 23.867 19.7992 23.2496 19.994Z" fill="#8E8E8E"/>
<path d="M23.0039 21.0744C23.0039 21.1347 23.0132 21.1486 23.055 21.195C23.1339 21.2784 23.1757 21.2784 23.38 21.1764C23.8489 20.9446 24.3085 20.9492 24.7913 21.1857C24.9213 21.246 24.9631 21.2599 24.9956 21.2552C25.0559 21.2413 25.1117 21.195 25.1349 21.144C25.1442 21.1208 25.1534 21.079 25.1488 21.0559C25.1349 20.9724 25.0884 20.9307 24.9213 20.8472C24.6195 20.6988 24.4013 20.6478 24.081 20.6478C23.7699 20.6478 23.5239 20.7035 23.2407 20.8379C23.0503 20.926 23.0039 20.977 23.0039 21.0744Z" fill="#8E8E8E"/>
<path d="M30.3845 22.307H32V30.6583C32 31.2209 31.5444 31.676 30.981 31.676H17.1239C16.5026 31.676 16 31.1741 16 30.5535V22.307H18.0656C18.3528 22.307 18.6289 22.4063 18.836 22.5828L23.3842 26.4661C23.7404 26.7722 24.2651 26.7805 24.6351 26.4909L29.6472 22.5525C29.8488 22.398 30.1111 22.307 30.3845 22.307Z" stroke="#8E8E8E" stroke-miterlimit="10" stroke-linecap="round" stroke-linejoin="round"/>
<path d="M28.7274 23.2778V16.8792C28.7274 16.3911 28.3298 15.9939 27.841 15.9939H20.153C19.6643 15.9939 19.2666 16.3911 19.2666 16.8792V22.9552" stroke="#8E8E8E" stroke-miterlimit="10" stroke-linecap="round" stroke-linejoin="round"/>
</svg>
