<svg width="48" height="48" viewBox="0 0 48 48" fill="none" xmlns="http://www.w3.org/2000/svg">
<path fill-rule="evenodd" clip-rule="evenodd" d="M21.6218 45.0152L2.98481 26.3782C1.67173 25.0651 1.67173 22.9357 2.98481 21.6227L21.6218 2.98481C22.9349 1.67173 25.0643 1.67173 26.3773 2.98481L45.0152 21.6227C46.3283 22.9357 46.3283 25.0651 45.0152 26.3782L26.3773 45.0152C25.0643 46.3283 22.9349 46.3283 21.6218 45.0152Z" fill="#E4D2FF"/>
<path d="M29.3091 18.3488V16.0214C29.3091 15.4577 28.8508 15 28.2864 15H19.4065C18.842 15 18.3838 15.4577 18.3838 16.0214V18.3488H29.3091Z" stroke="#210049" stroke-miterlimit="10"/>
<path d="M29.3091 25.3256V31.9786C29.3091 32.5423 28.8508 33 28.2864 33H19.4065C18.842 33 18.3838 32.5423 18.3838 31.9786V25.3256" stroke="#210049" stroke-miterlimit="10"/>
<path d="M24.2538 30.7483C24.7067 30.6794 25.1496 30.5418 25.5483 30.3353C25.6517 30.2862 25.7501 30.2223 25.7698 30.1977C25.8289 30.1387 25.8338 30.006 25.7846 29.9322C25.7501 29.8782 25.6615 29.8241 25.6025 29.8241C25.5877 29.8241 25.4745 29.8733 25.3465 29.9372C24.7657 30.2223 24.2834 30.3353 23.6632 30.3353C23.0184 30.3353 22.4869 30.2075 21.9159 29.9077C21.7732 29.8339 21.7387 29.8192 21.6895 29.8339C21.6058 29.8487 21.5271 29.9224 21.5074 29.9912C21.4976 30.0256 21.4976 30.0551 21.4976 30.065C21.5025 30.0748 21.5025 30.0994 21.5025 30.1141C21.5025 30.178 21.6058 30.2567 21.8618 30.3747C22.2801 30.5762 22.7084 30.6991 23.1809 30.763C23.4319 30.7974 23.9684 30.7925 24.2538 30.7483Z" fill="#210049"/>
<path d="M24.6578 29.6962C24.8842 29.6225 25.2828 29.4308 25.337 29.3718C25.4207 29.2833 25.401 29.1162 25.3075 29.0473C25.2041 28.9785 25.1647 28.9834 24.9186 29.1014C24.5495 29.2833 24.2935 29.357 23.8899 29.3914C23.4027 29.4406 22.9055 29.3423 22.438 29.1162C22.3297 29.0621 22.2214 29.0129 22.1919 29.0031C22.0934 28.9687 21.9655 29.0523 21.931 29.1555C21.8818 29.3128 21.9999 29.4259 22.374 29.5832C23.1123 29.9027 23.9096 29.9371 24.6578 29.6962Z" fill="#210049"/>
<path d="M24.957 28.3886C24.957 28.3198 24.9471 28.2952 24.8979 28.2411C24.7995 28.1379 24.7503 28.1379 24.5042 28.2608C23.9332 28.541 23.377 28.5361 22.7963 28.2509C22.6388 28.1772 22.5895 28.1575 22.5452 28.1625C22.4763 28.1772 22.4025 28.2313 22.3779 28.3001C22.368 28.3296 22.3582 28.3837 22.3631 28.4082C22.3779 28.5115 22.432 28.5606 22.6388 28.6639C23.003 28.8408 23.2688 28.9097 23.6576 28.9097C24.0366 28.9097 24.3368 28.8458 24.6764 28.6786C24.893 28.5754 24.957 28.5066 24.957 28.3886Z" fill="#210049"/>
<path d="M24.5488 27.5627C24.5291 27.4398 24.3913 27.3513 24.283 27.3858C24.2535 27.3907 24.1895 27.43 24.1304 27.4595C23.9631 27.5627 23.8745 27.5824 23.6579 27.5824C23.4413 27.5824 23.3528 27.5627 23.1854 27.4595C23.0574 27.3759 23.0033 27.3612 22.9344 27.3858C22.8753 27.4005 22.8064 27.4595 22.7818 27.5136C22.7326 27.6266 22.7867 27.7348 22.9393 27.8331C23.3675 28.1084 23.9434 28.1084 24.3667 27.8331C24.5242 27.7348 24.5635 27.6659 24.5488 27.5627Z" fill="#210049"/>
<path d="M17.0005 19.1274V24.5469C17.0005 24.9767 17.3498 25.3255 17.7801 25.3255H18.3976V22.5348H29.2949V25.3255H29.9124C30.3427 25.3255 30.692 24.9767 30.692 24.5469V19.1274C30.692 18.6976 30.3427 18.3488 29.9124 18.3488H17.7801C17.3498 18.3488 17.0005 18.6976 17.0005 19.1274Z" stroke="#210049" stroke-miterlimit="10" stroke-linecap="round" stroke-linejoin="round"/>
<path d="M18.6694 20.3024H20.0665" stroke="#210049" stroke-miterlimit="10" stroke-linecap="round" stroke-linejoin="round"/>
<path d="M28.7362 21.1395C29.1992 21.1395 29.5745 20.7647 29.5745 20.3023C29.5745 19.8399 29.1992 19.4651 28.7362 19.4651C28.2732 19.4651 27.8979 19.8399 27.8979 20.3023C27.8979 20.7647 28.2732 21.1395 28.7362 21.1395Z" fill="#210049"/>
</svg>

