<svg width="40" height="40" viewBox="0 0 40 40" fill="none" xmlns="http://www.w3.org/2000/svg">
<mask id="mask0" mask-type="alpha" maskUnits="userSpaceOnUse" x="0" y="0" width="40" height="40">
<rect x="19.8137" y="6.10352e-05" width="28.0208" height="28.0208" rx="3" transform="rotate(45 19.8137 6.10352e-05)" fill="#FF2F73"/>
</mask>
<g mask="url(#mask0)">
<rect x="19.8137" y="6.10352e-05" width="28.0208" height="28.0208" rx="3" transform="rotate(45 19.8137 6.10352e-05)" fill="#FF82AB"/>
<path d="M100.791 -9.20537C95.2077 -7.34344 91.998 -7.66591 88.8452 -8.00738C85.6355 -8.32985 82.6157 -8.65234 77.2601 -6.86641C71.9046 -5.08048 69.6258 -2.99106 67.309 -0.825661C64.9922 1.33974 62.6184 3.52413 57.035 5.38606C51.4515 7.24799 48.2418 6.92552 45.089 6.58405C41.8793 6.26158 38.8595 5.93908 33.5039 7.72501C28.0914 9.52994 25.8695 11.6004 23.5528 13.7658C21.236 15.9312 18.8622 18.1156 13.2788 19.9775C7.69528 21.8394 4.48556 21.5169 1.33281 21.1755C-1.87691 20.853 -4.89671 20.5305 -10.2523 22.3164C-15.6648 24.1214 -17.8867 26.1918 -20.2034 28.3572C-22.5202 30.5226 -24.894 32.707 -30.4775 34.5689C-36.0609 36.4308 -39.2706 36.1084 -42.4234 35.7669C-45.6331 35.4444 -48.6529 35.1219 -54.0085 36.9079C-54.2364 36.9839 -54.4643 36.8699 -54.5403 36.642C-54.6163 36.4141 -54.5024 36.1862 -54.2745 36.1102C-48.691 34.2483 -45.4813 34.5708 -42.3285 34.9122C-39.1188 35.2347 -36.099 35.5572 -30.7434 33.7713C-25.3879 31.9853 -23.1091 29.8959 -20.7923 27.7305C-18.4755 25.5651 -16.1017 23.3807 -10.5183 21.5188C-4.9348 19.6569 -1.72508 19.9793 1.42767 20.3208C4.63739 20.6433 7.65719 20.9658 13.0128 19.1798C18.4253 17.3749 20.6471 15.3045 22.9639 13.1391C25.2807 10.9737 27.6545 8.7893 33.2379 6.92738C38.8214 5.06545 42.0311 5.38792 45.1839 5.72939C48.3936 6.05185 51.4134 6.37435 56.769 4.58842C62.1815 2.78349 64.4034 0.713064 66.7201 -1.45233C69.0369 -3.61773 71.4107 -5.80213 76.9941 -7.66405C82.5776 -9.52598 85.7873 -9.20351 88.9401 -8.86204C92.1498 -8.53957 95.1696 -8.21708 100.525 -10.003C105.938 -11.8079 108.16 -13.8784 110.476 -16.0438C112.793 -18.2092 115.167 -20.3936 120.75 -22.2555C120.978 -22.3315 121.206 -22.2175 121.282 -21.9896C121.358 -21.7618 121.244 -21.5338 121.016 -21.4578C115.604 -19.6529 113.382 -17.5825 111.065 -15.4171C108.729 -13.3087 106.318 -11.0483 100.791 -9.20537Z" fill="#FF2F73" stroke="#FF2F73" stroke-width="0.8625"/>
<path d="M97.6373 -18.6631C92.0538 -16.8011 88.8441 -17.1236 85.6914 -17.4651C82.4816 -17.7876 79.4618 -18.11 74.1063 -16.3241C68.7507 -14.5382 66.4719 -12.4488 64.1551 -10.2834C61.8383 -8.11797 59.4646 -5.93357 53.8811 -4.07164C48.2976 -2.20972 45.0879 -2.53219 41.9351 -2.87365C38.7254 -3.19612 35.7056 -3.51862 30.3501 -1.73269C24.9375 0.0722409 22.7157 2.14266 20.3989 4.30806C18.0821 6.47346 15.7084 8.65786 10.1249 10.5198C4.54141 12.3817 1.33169 12.0592 -1.82106 11.7178C-5.03078 11.3953 -8.05058 11.0728 -13.4062 12.8587C-18.8187 14.6637 -21.0405 16.7341 -23.3573 18.8995C-25.6741 21.0649 -28.0479 23.2493 -33.6313 25.1112C-39.2148 26.9731 -42.4245 26.6507 -45.5773 26.3092C-48.787 25.9867 -51.8068 25.6642 -57.1624 27.4502C-57.3903 27.5262 -57.6182 27.4122 -57.6942 27.1843C-57.7702 26.9564 -57.6563 26.7285 -57.4284 26.6525C-51.8449 24.7906 -48.6352 25.1131 -45.4824 25.4545C-42.2727 25.777 -39.2529 26.0995 -33.8973 24.3136C-28.5417 22.5276 -26.2629 20.4382 -23.9462 18.2728C-21.6294 16.1074 -19.2556 13.923 -13.6721 12.0611C-8.08867 10.1992 -4.87895 10.5216 -1.7262 10.8631C1.48352 11.1856 4.50332 11.5081 9.85889 9.72214C15.2714 7.91721 17.4933 5.84679 19.8101 3.68139C22.1268 1.516 24.5006 -0.6684 30.0841 -2.53033C35.6675 -4.39225 38.8773 -4.06978 42.03 -3.72832C45.2397 -3.40585 48.2595 -3.08335 53.6151 -4.86928C59.0277 -6.67421 61.2495 -8.74464 63.5663 -10.91C65.883 -13.0754 68.2568 -15.2598 73.8403 -17.1218C79.4238 -18.9837 82.6335 -18.6612 85.7862 -18.3197C88.9959 -17.9973 92.0157 -17.6748 97.3713 -19.4607C102.784 -21.2656 105.006 -23.3361 107.322 -25.5015C109.639 -27.6669 112.013 -29.8513 117.596 -31.7132C117.824 -31.7892 118.052 -31.6752 118.128 -31.4474C118.204 -31.2195 118.09 -30.9915 117.862 -30.9155C112.45 -29.1106 110.228 -27.0402 107.911 -24.8748C105.595 -22.7094 103.164 -20.506 97.6373 -18.6631Z" fill="#FF2F73" stroke="#FF2F73" stroke-width="0.8625"/>
<path d="M94.5784 -27.8359C88.9949 -25.974 85.7852 -26.2964 82.6324 -26.6379C79.4227 -26.9604 76.4029 -27.2829 71.0474 -25.4969C65.6918 -23.711 63.413 -21.6216 61.0962 -19.4562C58.7794 -17.2908 56.4057 -15.1064 50.8222 -13.2445C45.2387 -11.3825 42.029 -11.705 38.8762 -12.0465C35.6665 -12.3689 32.6467 -12.6914 27.2912 -10.9055C21.8786 -9.10058 19.6568 -7.03016 17.34 -4.86476C15.0232 -2.69936 12.6495 -0.514963 7.06599 1.34696C1.48251 3.20889 -1.72721 2.88642 -4.87995 2.54495C-8.14665 2.24148 -11.1664 1.91899 -16.522 3.70492C-21.9346 5.50985 -24.1564 7.58027 -26.4732 9.74567C-28.79 11.9111 -31.1637 14.0955 -36.7472 15.9574C-42.3307 17.8193 -45.5404 17.4968 -48.6931 17.1554C-51.9028 16.8329 -54.9226 16.5104 -60.2782 18.2963C-60.5631 18.3913 -60.791 18.2774 -60.867 18.0495C-60.943 17.8216 -60.8291 17.5937 -60.6012 17.5177C-55.0177 15.6558 -51.808 15.9782 -48.6552 16.3197C-45.4455 16.6422 -42.4257 16.9647 -37.0701 15.1787C-31.7146 13.3928 -29.4358 11.3034 -27.119 9.138C-24.8022 6.9726 -22.3715 4.7692 -16.788 2.90728C-11.2045 1.04535 -7.99482 1.36782 -4.84207 1.70929C-1.63235 2.03176 1.38745 2.35425 6.74303 0.568323C12.1556 -1.23661 14.3774 -3.30703 16.6942 -5.47243C19.011 -7.63782 21.3847 -9.82222 26.9682 -11.6841C32.5517 -13.5461 35.7614 -13.2236 38.9141 -12.8821C42.1238 -12.5597 45.1437 -12.2372 50.4992 -14.0231C55.9118 -15.828 58.1336 -17.8985 60.4504 -20.0639C62.7672 -22.2292 65.1409 -24.4136 70.7244 -26.2756C76.3079 -28.1375 79.5176 -27.815 82.6703 -27.4736C85.88 -27.1511 88.8999 -26.8286 94.2554 -28.6145C99.668 -30.4195 101.89 -32.4899 104.207 -34.6553C106.523 -36.8207 108.897 -39.0051 114.481 -40.867C114.708 -40.943 114.936 -40.8291 115.012 -40.6012C115.088 -40.3733 114.974 -40.1454 114.747 -40.0694C109.334 -38.2644 107.112 -36.194 104.795 -34.0286C102.536 -31.8822 100.105 -29.6788 94.5784 -27.8359Z" fill="#FF2F73" stroke="#FF2F73" stroke-width="0.8625"/>
<path d="M109.854 17.9714C104.27 19.8333 101.061 19.5109 97.9079 19.1694C94.6981 18.8469 91.6783 18.5244 86.3228 20.3104C80.9672 22.0963 78.6884 24.1857 76.3716 26.3511C74.0548 28.5165 71.6811 30.7009 66.0976 32.5628C60.5141 34.4248 57.3044 34.1023 54.1517 33.7608C50.9419 33.4383 47.9221 33.1158 42.5666 34.9018C37.154 36.7067 34.9322 38.7771 32.6154 40.9425C30.2986 43.1079 27.9249 45.2923 22.3414 47.1543C16.7579 49.0162 13.5482 48.6937 10.3955 48.3522C7.18573 48.0298 4.16593 47.7073 -1.18964 49.4932C-6.60219 51.2981 -8.82402 53.3686 -11.1408 55.534C-13.4576 57.6994 -15.8313 59.8837 -21.4148 61.7457C-26.9983 63.6076 -30.208 63.2851 -33.3608 62.9437C-36.5705 62.6212 -39.5903 62.2987 -44.9458 64.0846C-45.1737 64.1606 -45.4017 64.0467 -45.4777 63.8188C-45.5537 63.5909 -45.4397 63.363 -45.2118 63.287C-39.6284 61.4251 -36.4186 61.7475 -33.2659 62.089C-30.0562 62.4115 -27.0364 62.734 -21.6808 60.948C-16.3252 59.1621 -14.1604 57.1107 -11.8436 54.9453C-9.52681 52.7799 -7.15305 50.5955 -1.56958 48.7336C4.0139 46.8716 7.22362 47.1941 10.3764 47.5356C13.5861 47.858 16.6059 48.1805 21.9615 46.3946C27.374 44.5897 29.5958 42.5193 31.9126 40.3539C34.2294 38.1885 36.6032 36.0041 42.1866 34.1421C47.7701 32.2802 50.9798 32.6027 54.1326 32.9441C57.3423 33.2666 60.3621 33.5891 65.7177 31.8032C71.1302 29.9983 73.352 27.9278 75.6688 25.7624C77.9856 23.597 80.3594 21.4126 85.9428 19.5507C91.5263 17.6888 94.736 18.0113 97.8888 18.3527C101.098 18.6752 104.118 18.9977 109.474 17.2118C114.886 15.4068 117.108 13.3364 119.425 11.171C121.742 9.00561 124.116 6.82121 129.699 4.95929C129.927 4.88329 130.155 4.99721 130.231 5.22511C130.307 5.45301 130.193 5.68093 129.965 5.75693C124.552 7.56186 122.331 9.63228 120.014 11.7977C117.811 13.9251 115.38 16.1285 109.854 17.9714Z" fill="#FF2F73" stroke="#FF2F73" stroke-width="0.8625"/>
<path d="M106.7 8.51362C101.116 10.3755 97.9067 10.0531 94.754 9.71161C91.5443 9.38914 88.5245 9.06665 83.1689 10.8526C77.8133 12.6385 75.5345 14.7279 73.2177 16.8933C70.901 19.0587 68.5272 21.2431 62.9437 23.1051C57.3603 24.967 54.1505 24.6445 50.9978 24.303C47.7881 23.9806 44.7683 23.6581 39.4127 25.444C34.0001 27.2489 31.7783 29.3194 29.4615 31.4848C27.1448 33.6502 24.771 35.8346 19.1875 37.6965C13.604 39.5584 10.3943 39.2359 7.24158 38.8945C4.03186 38.572 1.01206 38.2495 -4.34352 40.0354C-9.75607 41.8404 -11.9779 43.9108 -14.2947 46.0762C-16.6115 48.2416 -18.9852 50.426 -24.5687 52.2879C-30.1522 54.1498 -33.3619 53.8274 -36.5146 53.4859C-39.7243 53.1634 -42.7441 52.8409 -48.0997 54.6269C-48.4226 54.7978 -48.6505 54.6839 -48.7265 54.456C-48.8025 54.2281 -48.6886 54.0002 -48.4607 53.9242C-42.8772 52.0623 -39.6675 52.3847 -36.5147 52.7262C-33.305 53.0487 -30.2852 53.3712 -24.9296 51.5852C-19.574 49.7993 -17.2952 47.7099 -14.9785 45.5445C-12.6617 43.3791 -10.2879 41.1947 -4.70445 39.3328C0.879022 37.4708 4.08874 37.7933 7.24149 38.1348C10.4512 38.4573 13.471 38.7797 18.8266 36.9938C24.2391 35.1889 26.461 33.1185 28.7778 30.9531C31.0945 28.7877 33.4683 26.6033 39.0518 24.7413C44.6352 22.8794 47.845 23.2019 50.9977 23.5434C54.2074 23.8658 57.2272 24.1883 62.5828 22.4024C67.9953 20.5975 70.2172 18.527 72.534 16.3616C74.8507 14.1962 77.2245 12.0118 82.808 10.1499C88.3914 8.28799 91.6012 8.61046 94.7539 8.95192C97.9636 9.27439 100.983 9.59689 106.339 7.81096C111.752 6.00603 113.973 3.93561 116.29 1.77021C118.607 -0.395188 120.981 -2.57959 126.564 -4.44151C126.792 -4.51751 127.02 -4.40359 127.096 -4.17569C127.172 -3.94779 127.058 -3.71987 126.83 -3.64387C121.418 -1.83894 119.196 0.231478 116.879 2.39687C114.657 4.4673 112.226 6.67069 106.7 8.51362Z" fill="#FF2F73" stroke="#FF2F73" stroke-width="0.8625"/>
<path d="M103.641 -0.659221C98.0576 1.20271 94.8479 0.880236 91.6951 0.538767C88.4854 0.216296 85.4656 -0.106201 80.11 1.67973C74.7544 3.46566 72.4756 5.55509 70.1589 7.72049C67.8421 9.88588 65.4683 12.0703 59.8849 13.9322C54.3014 15.7941 51.0917 15.4717 47.9389 15.1302C44.7292 14.8077 41.7094 14.4852 36.3538 16.2712C30.9413 18.0761 28.7194 20.1465 26.4027 22.3119C24.0859 24.4773 21.7121 26.6617 16.1286 28.5236C10.5452 30.3856 7.33545 30.0631 4.1827 29.7216C0.972983 29.3991 -2.04682 29.0767 -7.4024 30.8626C-12.8149 32.6675 -15.0368 34.7379 -17.3536 36.9033C-19.6703 39.0687 -22.0441 41.2531 -27.6276 43.1151C-33.211 44.977 -36.4208 44.6545 -39.5735 44.313C-42.7832 43.9906 -45.803 43.6681 -51.1586 45.454C-51.3865 45.53 -51.6144 45.4161 -51.6904 45.1882C-51.7664 44.9603 -51.6525 44.7324 -51.4246 44.6564C-45.8411 42.7944 -42.6314 43.1169 -39.4787 43.4584C-36.2689 43.7809 -33.2491 44.1034 -27.8936 42.3174C-22.538 40.5315 -20.2592 38.4421 -17.9424 36.2767C-15.6256 34.1113 -13.2519 31.9269 -7.66839 30.0649C-2.08491 28.203 1.12481 28.5255 4.27756 28.867C7.48728 29.1894 10.5071 29.5119 15.8627 27.726C21.2752 25.9211 23.497 23.8506 25.8138 21.6852C28.1306 19.5198 30.5044 17.3354 36.0878 15.4735C41.6713 13.6116 44.881 13.9341 48.0338 14.2755C51.2435 14.598 54.2633 14.9205 59.6189 13.1346C65.0314 11.3296 67.2532 9.25921 69.57 7.09381C71.8868 4.92841 74.2606 2.74402 79.844 0.88209C85.4275 -0.979837 88.6372 -0.657367 91.79 -0.315897C94.9997 0.00657318 98.0195 0.32907 103.375 -1.45686C108.788 -3.26179 111.009 -5.33221 113.326 -7.49761C115.643 -9.66301 118.017 -11.8474 123.6 -13.7093C123.828 -13.7853 124.056 -13.6714 124.132 -13.4435C124.208 -13.2156 124.094 -12.9877 123.866 -12.9117C118.454 -11.1068 116.232 -9.03634 113.915 -6.87094C111.598 -4.70554 109.168 -2.50215 103.641 -0.659221Z" fill="#FF2F73" stroke="#FF2F73" stroke-width="0.8625"/>
</g>
</svg>
