<svg width="32" height="32" viewBox="0 0 32 32" fill="none" xmlns="http://www.w3.org/2000/svg">
<path d="M14 12.25C13.5858 12.25 13.25 12.5858 13.25 13C13.25 13.4142 13.5858 13.75 14 13.75V12.25ZM18 13.75C18.4142 13.75 18.75 13.4142 18.75 13C18.75 12.5858 18.4142 12.25 18 12.25V13.75ZM14 13.75H18V12.25H14V13.75Z" fill="#742FE1"/>
<path d="M14 25C14 24.4477 14.4477 24 15 24H17C17.5523 24 18 24.4477 18 25V29H14V25Z" stroke="#742FE1" stroke-width="1.5"/>
<path d="M10 19H8" stroke="#742FE1" stroke-width="1.5" stroke-linecap="round"/>
<path d="M24 19H22" stroke="#742FE1" stroke-width="1.5" stroke-linecap="round"/>
<path d="M10 4C10 2.89543 10.8954 2 12 2H20C21.1046 2 22 2.89543 22 4V29H10L10 4Z" stroke="#210049" stroke-width="1.5"/>
<path d="M14 6.25C13.5858 6.25 13.25 6.58579 13.25 7C13.25 7.41421 13.5858 7.75 14 7.75V6.25ZM18 7.75C18.4142 7.75 18.75 7.41421 18.75 7C18.75 6.58579 18.4142 6.25 18 6.25V7.75ZM14 7.75H18V6.25H14V7.75Z" fill="#210049"/>
<path d="M14 18.25C13.5858 18.25 13.25 18.5858 13.25 19C13.25 19.4142 13.5858 19.75 14 19.75V18.25ZM18 19.75C18.4142 19.75 18.75 19.4142 18.75 19C18.75 18.5858 18.4142 18.25 18 18.25V19.75ZM14 19.75H18V18.25H14V19.75Z" fill="#210049"/>
<path d="M22 9H27C27.5523 9 28 9.44772 28 10L28 29H22" stroke="#210049" stroke-width="1.5" stroke-linejoin="round"/>
<path d="M10 9H5C4.44771 9 4 9.44772 4 10V29H10" stroke="#210049" stroke-width="1.5" stroke-linejoin="round"/>
<path d="M10 23H8" stroke="#210049" stroke-width="1.5" stroke-linecap="round"/>
<path d="M24 23H22" stroke="#210049" stroke-width="1.5" stroke-linecap="round"/>
</svg>
