<svg width="56" height="56" viewBox="0 0 56 56" fill="none" xmlns="http://www.w3.org/2000/svg">
<path d="M28 11.375V17.5H34.125C35.3364 17.5 36.5206 17.1407 37.5279 16.4677C38.5351 15.7947 39.3202 14.8381 39.7837 13.7189C40.2473 12.5997 40.3686 11.3682 40.1323 10.18C39.896 8.99191 39.3126 7.90054 38.456 7.04394C37.5994 6.18735 36.508 5.604 35.3199 5.36766C34.1318 5.13133 32.9003 5.25262 31.7811 5.71621C30.6619 6.1798 29.7053 6.96485 29.0322 7.9721C28.3592 8.97935 28 10.1636 28 11.375V11.375Z" stroke="#742FE1" stroke-miterlimit="10" stroke-linecap="round"/>
<path d="M28 11.375C28 13.0659 28 17.5 28 17.5H21.875C20.6636 17.5 19.4794 17.1407 18.4721 16.4677C17.4649 15.7947 16.6798 14.8381 16.2162 13.7189C15.7527 12.5997 15.6314 11.3682 15.8677 10.18C16.104 8.99191 16.6874 7.90054 17.544 7.04394C18.4006 6.18735 19.4919 5.604 20.6801 5.36766C21.8682 5.13133 23.0997 5.25262 24.2189 5.71621C25.3381 6.1798 26.2947 6.96485 26.9678 7.9721C27.6408 8.97935 28 10.1636 28 11.375V11.375Z" stroke="#742FE1" stroke-miterlimit="10" stroke-linecap="round"/>
<path d="M45.5 17.5H10.5C8.567 17.5 7 19.067 7 21V26.25C7 28.183 8.567 29.75 10.5 29.75H45.5C47.433 29.75 49 28.183 49 26.25V21C49 19.067 47.433 17.5 45.5 17.5Z" stroke="#210049" stroke-width="2" stroke-linecap="round" stroke-linejoin="round"/>
<path d="M45.5 29.75V45.5C45.5 46.8924 44.9469 48.2277 43.9623 49.2123C42.9777 50.1969 41.6424 50.75 40.25 50.75H15.75C14.3576 50.75 13.0223 50.1969 12.0377 49.2123C11.0531 48.2277 10.5 46.8924 10.5 45.5V29.75" stroke="#210049" stroke-width="2" stroke-linecap="round" stroke-linejoin="round"/>
<path d="M28 17.5V50.75" stroke="#210049" stroke-linecap="round" stroke-linejoin="round"/>
</svg>
