<svg width="32" height="32" viewBox="0 0 32 32" fill="none" xmlns="http://www.w3.org/2000/svg">
<path d="M15.9964 21.447L14.6216 25.1133" stroke="#742FE1" stroke-width="1.5"/>
<circle cx="24.704" cy="7.23997" r="1.37486" stroke="#742FE1" stroke-width="1.5"/>
<path d="M20.5793 11.3646L23.3291 8.61487" stroke="#210049" stroke-width="1.5" stroke-linecap="round" stroke-linejoin="round"/>
<path d="M27.1559 20.6612L27.5117 21.3214L27.1559 20.6612ZM27.3382 19.1714L26.8079 19.7017L27.3382 19.1714ZM11.7782 3.6114L11.2479 4.14173L11.7782 3.6114ZM12.8872 18.0624C9.1627 14.3379 8.51611 8.66313 10.9487 4.14952L9.62823 3.43788C6.89861 8.50268 7.6082 14.9047 11.8266 19.1231L12.8872 18.0624ZM26.8001 20.0009C22.2865 22.4335 16.6117 21.7869 12.8872 18.0624L11.8266 19.1231C16.0449 23.3414 22.4469 24.051 27.5117 21.3214L26.8001 20.0009ZM27.8685 18.6411L12.3085 3.08107L11.2479 4.14173L26.8079 19.7017L27.8685 18.6411ZM27.5117 21.3214C28.5553 20.759 28.6316 19.4041 27.8685 18.6411L26.8079 19.7017C26.8656 19.7594 26.8838 19.8289 26.8773 19.8861C26.8713 19.9383 26.8472 19.9755 26.8001 20.0009L27.5117 21.3214ZM10.9487 4.14952C10.9741 4.10239 11.0113 4.07828 11.0635 4.07232C11.1207 4.06579 11.1902 4.08406 11.2479 4.14173L12.3085 3.08107C11.5455 2.31804 10.1906 2.39437 9.62823 3.43788L10.9487 4.14952Z" fill="#210049"/>
<path d="M19.6628 25.2798H10.497C9.5766 25.2798 8.83044 26.026 8.83044 26.9464C8.83044 27.8668 9.57659 28.613 10.497 28.613H19.6628C20.5832 28.613 21.3293 27.8668 21.3293 26.9464C21.3293 26.026 20.5832 25.2798 19.6628 25.2798Z" stroke="#210049" stroke-width="1.5" stroke-linecap="round"/>
</svg>
