<svg width="32" height="32" viewBox="0 0 32 32" fill="none" xmlns="http://www.w3.org/2000/svg">
<path d="M22.0575 5C18 5 16 9 16 9C16 9 14 5 9.94253 5C6.64503 5 4.03378 7.75875 4.00003 11.0506C3.93128 17.8837 9.42065 22.7431 15.4375 26.8269C15.6034 26.9397 15.7994 27.0001 16 27.0001C16.2007 27.0001 16.3966 26.9397 16.5625 26.8269C22.5788 22.7431 28.0682 17.8837 28 11.0506C27.9663 7.75875 25.355 5 22.0575 5Z" stroke="#210049" stroke-width="1.5" stroke-linecap="round" stroke-linejoin="round"/>
<path d="M11.5 8.10962C10.1667 7.77629 7.4 8.00962 7 11.6096" stroke="#742FE1" stroke-width="1.5" stroke-linecap="round"/>
</svg>
