<svg width="32" height="32" viewBox="0 0 32 32" fill="none" xmlns="http://www.w3.org/2000/svg">
<path d="M11.5729 7.33676C6.75295 8.60468 4 12.3606 4 16.7803C4 20.5249 5.89903 23.1005 8.65584 24.6407V27.25C8.65584 27.6642 9.01265 28 9.45216 28H12.5314C12.9714 28 13.3277 27.6642 13.3277 27.25V26.1951C15.307 26.51 17.4026 26.4881 19.4011 26.1568V27.25C19.4011 27.6642 19.7574 28 20.1974 28H23.2766C23.7162 28 24.073 27.6642 24.073 27.25V24.6989C26.8521 23.3355 28.9979 20.7373 29.7289 18.0238C30.0162 16.9572 29.1046 16.0481 28 16.0481H27.1739C27.1739 12.9583 26.2094 11.1037 23.8576 9.45633C23.8576 9.45633 24.913 7.9444 23.8576 7.19489C22.8022 6.44537 21.4952 8.09942 21.4952 8.09942C21.4952 8.09942 20.1974 7.33676 19.1327 7.33676" stroke="#210049" stroke-width="1.5" stroke-linejoin="round"/>
<path d="M21 15C21 13.8955 21.6713 13 22.4996 13C23.328 13 24 13.8955 24 15" stroke="#210049" stroke-linecap="round"/>
<path d="M4.65079 11.914C4.65079 11.914 3.56169 11.3702 3.45345 10" stroke="#210049" stroke-linecap="round"/>
<circle cx="15" cy="7" r="4" stroke="#FF2F73" stroke-width="1.5"/>
<path d="M17 7C17 5.89543 16.1046 5 15 5C13.8954 5 13 5.89543 13 7" stroke="#210049" stroke-linecap="round" stroke-linejoin="round"/>
</svg>
