<svg width="32" height="32" viewBox="0 0 32 32" fill="none" xmlns="http://www.w3.org/2000/svg">
<path d="M11.3676 11.1428L26.2248 8.57141" stroke="#742FE1" stroke-width="1.5" stroke-miterlimit="10"/>
<path d="M11.1608 23.1131C11.1608 24.6229 10.6956 26.3229 8.91624 26.9705C7.13689 27.6182 5.25693 26.9411 4.71724 25.4583C4.17755 23.9755 5.18249 22.2485 6.96184 21.6009C8.74119 20.9532 10.6212 21.6303 11.1608 23.1131ZM11.1608 23.1131L11.3461 8.80428C11.3586 7.84116 12.0558 7.02374 13.0049 6.85947L23.8521 4.98206C25.0854 4.76861 26.2095 5.7276 26.193 6.97913L26.018 20.2559M26.018 20.2559C26 22 25.5527 23.4658 23.7734 24.1134C21.994 24.761 20.1141 24.084 19.5744 22.6012C19.0347 21.1184 20.0396 19.3914 21.819 18.7437C23.5983 18.0961 25.4783 18.7731 26.018 20.2559Z" stroke="#210049" stroke-width="1.5" stroke-miterlimit="10"/>
</svg>
