<svg width="32" height="32" viewBox="0 0 32 32" fill="none" xmlns="http://www.w3.org/2000/svg">
<rect x="7.75" y="2.75" width="16.5" height="26.5" rx="1.25" stroke="#210049" stroke-width="1.5"/>
<path d="M11 26.5L11 15.5" stroke="#FF2F73" stroke-width="1.5" stroke-linecap="round" stroke-linejoin="round"/>
<path d="M17.25 7L17.25 9C17.25 9.13807 17.1381 9.25 17 9.25C16.8619 9.25 16.75 9.13807 16.75 9L16.75 7C16.75 6.86193 16.8619 6.75 17 6.75C17.1381 6.75 17.25 6.86193 17.25 7Z" stroke="#210049" stroke-width="1.5" stroke-linecap="round" stroke-linejoin="round"/>
<path d="M21.7252 8C21.7252 8.57597 21.5678 9.13623 21.2765 9.6162C21.1388 9.84323 20.8344 9.87432 20.6229 9.7138L18.9984 8.48123C18.743 8.28742 18.7334 7.90668 18.9788 7.70028L20.6191 6.32052C20.8297 6.14328 21.1482 6.16822 21.2891 6.40473C21.5723 6.88002 21.7252 7.43238 21.7252 8Z" fill="#FF2F73"/>
</svg>
