<svg width="32" height="32" viewBox="0 0 32 32" fill="none" xmlns="http://www.w3.org/2000/svg">
<path d="M4.4527 13.7499H28.25V26C28.25 26.6904 27.6904 27.25 27 27.25H5.7027C5.01234 27.25 4.4527 26.6904 4.4527 26V13.7499Z" stroke="#210049" stroke-width="1.5"/>
<path d="M10.7297 11.4999L12.8378 6.99988" stroke="#742FE1" stroke-width="1.5"/>
<path d="M18.4595 10.7499L21.2703 5.49988" stroke="#742FE1" stroke-width="1.5"/>
<mask id="path-4-inside-1_2245_2581" fill="white">
<path d="M3.23192 9.32501C3.10383 8.22789 3.88762 7.22046 4.98254 7.07484L26.1206 4.26366C27.2156 4.11804 28.207 4.88938 28.3351 5.9865L28.7113 9.20904C28.7593 9.62046 28.4654 9.99825 28.0548 10.0529L3.6951 13.2925L3.23192 9.32501Z"/>
</mask>
<path d="M3.6951 13.2925L2.20819 13.4902L2.38213 14.9801L3.86904 14.7824L3.6951 13.2925ZM5.15648 8.56472L26.2946 5.75354L25.9467 2.77377L4.80861 5.58496L5.15648 8.56472ZM26.8482 6.18425L27.2244 9.40679L30.1982 9.0113L29.822 5.78876L26.8482 6.18425ZM27.8809 8.56298L3.52116 11.8026L3.86904 14.7824L28.2288 11.5427L27.8809 8.56298ZM5.18201 13.0947L4.71882 9.12726L1.74501 9.52275L2.20819 13.4902L5.18201 13.0947ZM27.2244 9.40679C27.1764 8.99537 27.4703 8.61758 27.8809 8.56298L28.2288 11.5427C29.4605 11.3789 30.3423 10.2456 30.1982 9.0113L27.2244 9.40679ZM26.2946 5.75354C26.5683 5.71713 26.8162 5.90997 26.8482 6.18425L29.822 5.78876C29.5978 3.8688 27.8628 2.51895 25.9467 2.77377L26.2946 5.75354ZM4.80861 5.58496C2.89248 5.83979 1.52086 7.6028 1.74501 9.52275L4.71882 9.12726C4.6868 8.85298 4.88275 8.60112 5.15648 8.56472L4.80861 5.58496Z" fill="#210049" mask="url(#path-4-inside-1_2245_2581)"/>
</svg>
