<svg width="32" height="32" viewBox="0 0 32 32" fill="none" xmlns="http://www.w3.org/2000/svg">
<path d="M16 10V28" stroke="#742FE1" stroke-width="1.5" stroke-linecap="round" stroke-linejoin="round"/>
<path d="M16 9.99989C17 6.05239 20.7769 4.03676 29 3.99989C29.1315 3.99939 29.2617 4.02492 29.3833 4.075C29.5048 4.12508 29.6153 4.19872 29.7082 4.29167C29.8012 4.38463 29.8748 4.49507 29.9249 4.61662C29.975 4.73817 30.0005 4.86842 30 4.99988V22.9999C30 23.2651 29.8947 23.5195 29.7071 23.707C29.5196 23.8945 29.2652 23.9999 29 23.9999C21 23.9999 17.9094 25.613 16 27.9999C14.1019 25.6249 11 23.9999 3.00001 23.9999C2.38251 23.9999 2.00001 23.4968 2.00001 22.8793V4.99988C1.99951 4.86842 2.02504 4.73817 2.07512 4.61662C2.1252 4.49507 2.19884 4.38463 2.29179 4.29167C2.38475 4.19872 2.49519 4.12508 2.61674 4.075C2.73829 4.02492 2.86855 3.99939 3.00001 3.99989C11.2231 4.03676 15 6.05239 16 9.99989Z" stroke="#210049" stroke-width="1.5" stroke-linecap="round" stroke-linejoin="round"/>
</svg>
