<svg width="32" height="32" viewBox="0 0 32 32" fill="none" xmlns="http://www.w3.org/2000/svg">
<path d="M21.9472 16C21.9472 16 22.9242 2 16.4714 2C10.0186 2 10 16 10 16" stroke="#FF2F73" stroke-width="1.5"/>
<path d="M4 15L12 26" stroke="#210049" stroke-width="1.5" stroke-linecap="round"/>
<path d="M28 15L20 26" stroke="#210049" stroke-width="1.5" stroke-linecap="round"/>
<path d="M14 23.5L10 16M18 23.5L22 16" stroke="#210049" stroke-width="1.5"/>
<path d="M14 23.3333C14 22.597 14.597 22 15.3333 22H16.6667C17.403 22 18 22.597 18 23.3333V24C18 25.1046 17.1046 26 16 26V26C14.8954 26 14 25.1046 14 24V23.3333Z" stroke="#210049" stroke-width="1.5"/>
<path d="M12 27.3333C12 26.597 12.597 26 13.3333 26H18.6667C19.403 26 20 26.597 20 27.3333V27.3333C20 28.8061 18.8061 30 17.3333 30H14.6667C13.1939 30 12 28.8061 12 27.3333V27.3333Z" stroke="#210049" stroke-width="1.5"/>
<path d="M16 2C8.8203 2 3 8.26801 3 16C5.16667 13.8462 7.83333 13.8462 10 16C13.25 12.7692 18.75 12.7692 22 16C24.1667 13.8462 26.8333 13.8462 29 16C29 8.26801 23.1797 2 16 2Z" stroke="#210049" stroke-width="1.5" stroke-linejoin="round"/>
</svg>
