<svg width="32" height="32" viewBox="0 0 32 32" fill="none" xmlns="http://www.w3.org/2000/svg">
<path d="M6.75 15C6.75 14.3096 7.30964 13.75 8 13.75H24C24.6904 13.75 25.25 14.3096 25.25 15V23C25.25 27.0041 22.0041 30.25 18 30.25H14C9.99594 30.25 6.75 27.0041 6.75 23V15Z" stroke="#210049" stroke-width="1.5"/>
<path d="M7 17.5H25" stroke="#210049" stroke-linecap="round" stroke-dasharray="2 4"/>
<path d="M22 14L22 3C22 2.44772 21.5523 2 21 2L11 2C10.4477 2 10 2.44771 10 3L10 14" stroke="#210049" stroke-width="1.5"/>
<path d="M16.3028 4H15.8725V4.54776C15.0199 4.60414 14.2072 5.18412 14.2072 6.14269C14.2072 7.17376 14.9402 7.5443 15.8725 7.80207V9.59033C15.4661 9.58228 14.988 9.33257 14.7012 8.99425L14 9.67089C14.502 10.1623 15.1713 10.3959 15.8725 10.42V11H16.3028V10.42C17.1873 10.3959 18 9.82394 18 8.70426C18 7.6168 17.1155 7.2382 16.3028 6.98044V5.35328C16.6693 5.35328 17.0677 5.50633 17.3147 5.78021L17.9602 5.10357C17.5299 4.72497 16.8845 4.5397 16.3028 4.53165V4ZM15.8725 6.86766C15.4661 6.74684 15.1633 6.5374 15.1633 6.09436C15.1633 5.62716 15.498 5.39356 15.8725 5.35328V6.86766ZM16.3028 7.93096C16.7251 8.07595 17.0438 8.28539 17.0438 8.76064C17.0438 9.2359 16.749 9.56617 16.3028 9.59033V7.93096Z" fill="#FF2F73"/>
</svg>
