<svg width="32" height="32" viewBox="0 0 32 32" fill="none" xmlns="http://www.w3.org/2000/svg">
<path d="M13 24V26C13 27.6569 14.3431 29 16 29V29C17.6569 29 19 27.6569 19 26V24" stroke="#210049" stroke-width="1.5"/>
<path d="M20.0685 21.3319L19.7739 20.6422C19.5908 20.7204 19.4463 20.8682 19.3723 21.053L20.0685 21.3319ZM11.9315 21.3319L12.6278 21.0531C12.5537 20.8682 12.4092 20.7204 12.2261 20.6422L11.9315 21.3319ZM13 24L12.3038 24.2788C12.4177 24.5634 12.6934 24.75 13 24.75V24ZM19 24V24.75C19.3066 24.75 19.5823 24.5634 19.6963 24.2788L19 24ZM25.25 12.5789C25.25 16.1563 23.0165 19.2571 19.7739 20.6422L20.3631 22.0216C24.1109 20.4207 26.75 16.8067 26.75 12.5789H25.25ZM16 3.75C21.1394 3.75 25.25 7.73293 25.25 12.5789H26.75C26.75 6.84435 21.9063 2.25 16 2.25V3.75ZM6.75 12.5789C6.75 7.73293 10.8606 3.75 16 3.75V2.25C10.0937 2.25 5.25 6.84435 5.25 12.5789H6.75ZM12.2261 20.6422C8.98354 19.2571 6.75 16.1563 6.75 12.5789H5.25C5.25 16.8067 7.88911 20.4208 11.6369 22.0216L12.2261 20.6422ZM11.2353 21.6107L12.3038 24.2788L13.6963 23.7212L12.6278 21.0531L11.2353 21.6107ZM13 24.75H19V23.25H13V24.75ZM19.6963 24.2788L20.7648 21.6107L19.3723 21.053L18.3038 23.7212L19.6963 24.2788Z" fill="#210049"/>
<path d="M15.1429 18L19 12.5H13L16.8571 7" stroke="#742FE1" stroke-width="1.5" stroke-linecap="round" stroke-linejoin="round"/>
</svg>
