<svg width="32" height="32" viewBox="0 0 32 32" fill="none" xmlns="http://www.w3.org/2000/svg">
<path d="M4 21H8V14L2.99226 16.9212C2.37782 17.2796 2 17.9374 2 18.6487V19C2 20.1046 2.89543 21 4 21Z" stroke="#210049" stroke-width="1.5"/>
<path d="M28 21H24V14L29.0077 16.9212C29.6222 17.2796 30 17.9374 30 18.6487V19C30 20.1046 29.1046 21 28 21Z" stroke="#210049" stroke-width="1.5"/>
<path d="M16 23.9091V7.18182C16 4.87226 14.2091 3 12 3C9.79086 3 8 4.87227 8 7.18182V22.733C8 23.3825 8.50368 23.9091 9.125 23.9091H10V24.8239C10 25.4734 10.5037 26 11.125 26H12.875C13.4963 26 14 25.4734 14 24.8239V23.9091H16Z" stroke="#210049" stroke-width="1.5"/>
<path d="M16 23.9091V7.18182C16 4.87226 17.7909 3 20 3C22.2091 3 24 4.87227 24 7.18182V22.733C24 23.3825 23.4963 23.9091 22.875 23.9091H22V24.8239C22 25.4734 21.4963 26 20.875 26H19.125C18.5037 26 18 25.4734 18 24.8239V23.9091H16Z" stroke="#210049" stroke-width="1.5"/>
<path d="M12 28V30" stroke="#FF2F73" stroke-width="1.5" stroke-linecap="round"/>
<path d="M20 28V30" stroke="#FF2F73" stroke-width="1.5" stroke-linecap="round"/>
</svg>
