<svg width="32" height="32" viewBox="0 0 32 32" fill="none" xmlns="http://www.w3.org/2000/svg">
<path d="M12 27L20 27" stroke="#742FE1" stroke-width="1.5" stroke-linecap="round"/>
<path d="M6 17H26" stroke="#742FE1" stroke-width="1.5"/>
<path d="M5.75 6C5.75 4.75736 6.75736 3.75 8 3.75H24C25.2426 3.75 26.25 4.75736 26.25 6V20C26.25 22.3472 24.3472 24.25 22 24.25H10C7.65279 24.25 5.75 22.3472 5.75 20V6Z" stroke="#210049" stroke-width="1.5"/>
<circle cx="10" cy="20" r="0.5" fill="#210049" stroke="#210049"/>
<circle cx="22" cy="20" r="0.5" fill="#210049" stroke="#210049"/>
<path d="M25.6431 28.6141C25.8562 28.9693 25.7411 29.43 25.3859 29.6431C25.0307 29.8562 24.57 29.7411 24.3569 29.3859L25.6431 28.6141ZM22.6431 23.6141L25.6431 28.6141L24.3569 29.3859L21.3569 24.3859L22.6431 23.6141Z" fill="#210049"/>
<path d="M6.35688 28.6141C6.14377 28.9693 6.25894 29.43 6.61413 29.6431C6.96931 29.8562 7.43001 29.7411 7.64312 29.3859L6.35688 28.6141ZM9.35688 23.6141L6.35688 28.6141L7.64312 29.3859L10.6431 24.3859L9.35688 23.6141Z" fill="#210049"/>
</svg>
