<svg width="32" height="32" viewBox="0 0 32 32" fill="none" xmlns="http://www.w3.org/2000/svg">
<path d="M16 3C8.8203 3 3 8.8203 3 16C3 23.1797 8.8203 29 16 29C23.1797 29 29 23.1797 29 16C29 14.6044 28.7801 13.2601 28.373 12" stroke="#210049" stroke-width="1.5" stroke-linecap="round" stroke-linejoin="round"/>
<path d="M8.37101 13.5849C8.13 14.3469 8 15.1583 8 16C8 18.2385 8.91939 20.2623 10.4012 21.7143C10.686 21.9934 10.9916 22.2514 11.3154 22.4857M8.37101 13.5849C8.77095 12.3204 9.47658 11.1917 10.4012 10.2857C11.8441 8.87179 13.8202 8 16 8V14.2222M8.37101 13.5849L13.8624 15.3233M11.3154 22.4857C12.6321 23.4384 14.2505 24 16 24C17.7495 24 19.3679 23.4384 20.6846 22.4857M11.3154 22.4857L14.6667 17.846M20.6846 22.4857C21.0084 22.2514 21.314 21.9934 21.5988 21.7143C23.0806 20.2623 24 18.2385 24 16C24 15.1583 23.87 14.3469 23.629 13.5849L18.0715 15.3442M20.6846 22.4857L17.2841 17.7778" stroke="#210049" stroke-width="1.5" stroke-linejoin="round"/>
<circle cx="16" cy="16" r="2.25" stroke="#210049" stroke-width="1.5"/>
<path d="M22.9159 2.82643C22.9703 2.80701 23.0297 2.80701 23.0841 2.82643L26.0841 3.89786C26.1836 3.93339 26.25 4.02764 26.25 4.13329V8.62824C26.25 8.70898 26.211 8.78475 26.1453 8.83167L23.1453 10.9745C23.0584 11.0366 22.9416 11.0366 22.8547 10.9745L19.8547 8.83167L19.4188 9.44197L19.8547 8.83167C19.789 8.78475 19.75 8.70898 19.75 8.62824V4.13329C19.75 4.02764 19.8164 3.93339 19.9159 3.89786L22.9159 2.82643Z" stroke="#742FE1" stroke-width="1.5" stroke-linecap="round" stroke-linejoin="round"/>
</svg>
