<svg width="32" height="32" viewBox="0 0 32 32" fill="none" xmlns="http://www.w3.org/2000/svg">
<path d="M28.2751 15.5832C27.2072 10.7559 25.6234 7.67656 23.085 6.92617C22.5933 6.78275 22.0835 6.71121 21.5714 6.71376C20.0108 6.71376 18.7793 7.64232 16 7.64232C13.2206 7.64232 11.9868 6.71376 10.4285 6.71376C9.89503 6.711 9.36375 6.78249 8.84996 6.92617C6.30799 7.67656 4.73755 10.7588 3.6575 15.5832C2.55482 20.5109 2.75447 24.4045 4.90991 25.152C6.41884 25.6743 7.76817 24.5943 9.04612 23.0047C10.497 21.194 12.2839 20.6369 16 20.6369C19.716 20.6369 21.4333 21.194 22.8865 23.0047C24.1633 24.5954 25.5625 25.6621 27.0314 25.1613C29.412 24.3482 29.3783 20.569 28.2751 15.5832Z" stroke="#210049" stroke-width="1.5" stroke-miterlimit="10"/>
<path d="M18.0893 15.3033C18.7303 15.3033 19.25 14.7837 19.25 14.1426C19.25 13.5016 18.7303 12.9819 18.0893 12.9819C17.4483 12.9819 16.9286 13.5016 16.9286 14.1426C16.9286 14.7837 17.4483 15.3033 18.0893 15.3033Z" fill="#210049"/>
<path d="M20.6428 17.8569C20.4131 17.8569 20.1886 17.7887 19.9977 17.661C19.8067 17.5334 19.658 17.3519 19.5702 17.1397C19.4824 16.9274 19.4596 16.6939 19.5046 16.4687C19.5497 16.2434 19.6605 16.0366 19.8231 15.8744C19.9857 15.7122 20.1928 15.6019 20.4182 15.5574C20.6435 15.513 20.877 15.5364 21.089 15.6247C21.3011 15.7129 21.4822 15.8622 21.6093 16.0534C21.7365 16.2447 21.8041 16.4694 21.8036 16.6991C21.8028 17.0064 21.6802 17.3009 21.4626 17.5179C21.245 17.735 20.9502 17.8569 20.6428 17.8569Z" fill="#210049"/>
<path d="M20.6428 12.7498C21.2839 12.7498 21.8035 12.2301 21.8035 11.5891C21.8035 10.9481 21.2839 10.4284 20.6428 10.4284C20.0018 10.4284 19.4821 10.9481 19.4821 11.5891C19.4821 12.2301 20.0018 12.7498 20.6428 12.7498Z" fill="#210049"/>
<path d="M23.1964 15.3033C23.8375 15.3033 24.3571 14.7837 24.3571 14.1426C24.3571 13.5016 23.8375 12.9819 23.1964 12.9819C22.5554 12.9819 22.0357 13.5016 22.0357 14.1426C22.0357 14.7837 22.5554 15.3033 23.1964 15.3033Z" fill="#210049"/>
<path d="M10.4286 11.3569V16.9283" stroke="#742FE1" stroke-width="1.5" stroke-linecap="round" stroke-linejoin="round"/>
<path d="M13.2143 14.1426H7.64288" stroke="#742FE1" stroke-width="1.5" stroke-linecap="round" stroke-linejoin="round"/>
</svg>
