<svg width="32" height="32" viewBox="0 0 32 32" fill="none" xmlns="http://www.w3.org/2000/svg">
<path d="M27.9912 6H4.00875C2.89935 6 2 6.89935 2 8.00875V20.9912C2 22.1007 2.89935 23 4.00875 23H27.9912C29.1007 23 30 22.1007 30 20.9912V8.00875C30 6.89935 29.1007 6 27.9912 6Z" stroke="#210049" stroke-width="1.5" stroke-linejoin="round"/>
<path d="M8 26H24" stroke="#210049" stroke-width="1.5" stroke-miterlimit="10" stroke-linecap="round"/>
<path d="M18.3877 16.7066C17.7299 16.1219 16.8804 15.799 16.0002 15.799C15.1201 15.799 14.2706 16.1219 13.6127 16.7066" stroke="#742FE1" stroke-width="1.5" stroke-linecap="round" stroke-linejoin="round"/>
<path d="M20.2956 14.7974C19.1305 13.708 17.595 13.1019 16 13.1019C14.4049 13.1019 12.8694 13.708 11.7043 14.7974" stroke="#742FE1" stroke-width="1.5" stroke-linecap="round" stroke-linejoin="round"/>
<path d="M21.9912 12.6905C20.3423 11.2195 18.2097 10.4066 16 10.4066C13.7902 10.4066 11.6577 11.2195 10.0087 12.6905" stroke="#742FE1" stroke-width="1.5" stroke-linecap="round" stroke-linejoin="round"/>
<path d="M16 20C15.8022 20 15.6089 19.9414 15.4444 19.8315C15.28 19.7216 15.1518 19.5654 15.0761 19.3827C15.0004 19.2 14.9806 18.9989 15.0192 18.8049C15.0578 18.6109 15.153 18.4327 15.2929 18.2929C15.4327 18.153 15.6109 18.0578 15.8049 18.0192C15.9989 17.9806 16.2 18.0004 16.3827 18.0761C16.5654 18.1518 16.7216 18.28 16.8315 18.4444C16.9414 18.6089 17 18.8022 17 19C17 19.2652 16.8947 19.5196 16.7071 19.7071C16.5196 19.8947 16.2652 20 16 20Z" fill="#742FE1"/>
</svg>
