<svg width="32" height="32" viewBox="0 0 32 32" fill="none" xmlns="http://www.w3.org/2000/svg">
<rect x="7.42859" y="11.4286" width="17.1429" height="17.1429" rx="1" stroke="#210049" stroke-width="1.5" stroke-linecap="round" stroke-linejoin="round"/>
<path d="M13 5V6.125V11M19 5V6.125V11" stroke="#210049" stroke-width="1.5" stroke-linecap="round" stroke-linejoin="round"/>
<path d="M19 5H13C12.4477 5 12 4.55228 12 4C12 3.44772 12.4477 3 13 3H19C19.5523 3 20 3.44772 20 4C20 4.55228 19.5523 5 19 5Z" stroke="#742FE1" stroke-width="1.5" stroke-linecap="round" stroke-linejoin="round"/>
<path d="M11.4286 13.7143V26.2857" stroke="#742FE1" stroke-width="1.5" stroke-linecap="round" stroke-linejoin="round"/>
<path d="M16 13.7143V26.2857" stroke="#742FE1" stroke-width="1.5" stroke-linecap="round" stroke-linejoin="round"/>
<path d="M20.5715 13.7143V26.2857" stroke="#742FE1" stroke-width="1.5" stroke-linecap="round" stroke-linejoin="round"/>
<rect x="10" y="29" width="3" height="2" rx="1" stroke="#210049" stroke-width="1.5" stroke-linecap="round" stroke-linejoin="round"/>
<rect x="19" y="29" width="3" height="2" rx="1" stroke="#210049" stroke-width="1.5" stroke-linecap="round" stroke-linejoin="round"/>
</svg>
