<svg width="32" height="32" viewBox="0 0 32 32" fill="none" xmlns="http://www.w3.org/2000/svg">
<path d="M9.25939 18.4H14.0742C14.4573 18.4 14.8247 18.5301 15.0956 18.7615C15.3665 18.993 15.5186 19.307 15.5186 19.6343V24.16H7.81494V19.6343C7.81494 19.307 7.96712 18.993 8.23801 18.7615C8.5089 18.5301 8.8763 18.4 9.25939 18.4Z" stroke="#742FE1" stroke-width="1.5" stroke-linecap="round" stroke-linejoin="round"/>
<path d="M18.4075 28V19.7091C18.4075 19.3619 18.5379 19.029 18.7701 18.7834C19.0023 18.5379 19.3172 18.4 19.6456 18.4H22.9472C23.2755 18.4 23.5904 18.5379 23.8226 18.7834C24.0548 19.029 24.1852 19.3619 24.1852 19.7091V28" stroke="#742FE1" stroke-width="1.5" stroke-linecap="round" stroke-linejoin="round"/>
<path d="M27.074 27.04V15.52" stroke="#210049" stroke-width="1.5" stroke-linecap="round" stroke-linejoin="round"/>
<path d="M4.92603 15.52V27.04" stroke="#210049" stroke-width="1.5" stroke-linecap="round" stroke-linejoin="round"/>
<path d="M23.3399 4H8.66012C7.3955 4 6.25335 4.71258 5.76236 5.80876L3.24938 11.4227C2.4032 13.3116 3.80827 15.4517 5.98812 15.52C6.02681 15.52 6.0655 15.52 6.10419 15.52C7.92654 15.52 9.40357 14.0248 9.40357 12.4185C9.40357 14.0218 10.8812 15.52 12.7035 15.52C14.5259 15.52 16 14.1317 16 12.4185C16 14.0218 17.477 15.52 19.2994 15.52C21.1217 15.52 22.5993 14.1317 22.5993 12.4185C22.5993 14.1317 24.0764 15.52 25.8987 15.52C25.9374 15.52 25.9751 15.52 26.0119 15.52C28.1917 15.4505 29.5968 13.3104 28.7506 11.4227L26.2376 5.80876C25.7467 4.71258 24.6045 4 23.3399 4Z" stroke="#210049" stroke-width="1.5" stroke-linecap="round" stroke-linejoin="round"/>
<path d="M3 28H29" stroke="#210049" stroke-width="1.5" stroke-linecap="round" stroke-linejoin="round"/>
</svg>
