<svg width="32" height="32" viewBox="0 0 32 32" fill="none" xmlns="http://www.w3.org/2000/svg">
<path d="M28.275 15.5832C27.2072 10.7559 25.6234 7.67656 23.0849 6.92617C22.5932 6.78275 22.0834 6.71121 21.5713 6.71376C20.0107 6.71376 18.7792 7.64232 15.9999 7.64232C13.2206 7.64232 11.9867 6.71376 10.4285 6.71376C9.89497 6.711 9.36369 6.78249 8.84989 6.92617C6.30793 7.67656 4.73748 10.7588 3.65744 15.5832C2.55476 20.5109 2.7544 24.4045 4.90985 25.152C6.41878 25.6743 7.76811 24.5943 9.04606 23.0047C10.4969 21.194 12.2839 20.6369 15.9999 20.6369C19.7159 20.6369 21.4332 21.194 22.8864 23.0047C24.1632 24.5954 25.5624 25.6621 27.0313 25.1613C29.4119 24.3482 29.3783 20.569 28.275 15.5832Z" stroke="#210049" stroke-width="1.5" stroke-miterlimit="10"/>
<path d="M18.0892 15.3033C18.7302 15.3033 19.2499 14.7837 19.2499 14.1426C19.2499 13.5016 18.7302 12.9819 18.0892 12.9819C17.4481 12.9819 16.9285 13.5016 16.9285 14.1426C16.9285 14.7837 17.4481 15.3033 18.0892 15.3033Z" fill="#210049"/>
<path d="M20.6429 17.8569C20.4132 17.8569 20.1887 17.7887 19.9977 17.661C19.8068 17.5334 19.658 17.3519 19.5703 17.1397C19.4825 16.9274 19.4597 16.6939 19.5047 16.4687C19.5497 16.2434 19.6606 16.0366 19.8232 15.8744C19.9858 15.7122 20.1929 15.6019 20.4182 15.5574C20.6436 15.513 20.8771 15.5364 21.0891 15.6247C21.3011 15.7129 21.4822 15.8622 21.6094 16.0534C21.7366 16.2447 21.8042 16.4694 21.8036 16.6991C21.8028 17.0064 21.6802 17.3009 21.4626 17.5179C21.245 17.735 20.9502 17.8569 20.6429 17.8569Z" fill="#210049"/>
<path d="M20.6429 12.7498C21.2839 12.7498 21.8036 12.2301 21.8036 11.5891C21.8036 10.9481 21.2839 10.4284 20.6429 10.4284C20.0018 10.4284 19.4822 10.9481 19.4822 11.5891C19.4822 12.2301 20.0018 12.7498 20.6429 12.7498Z" fill="#210049"/>
<path d="M23.1964 15.3033C23.8374 15.3033 24.3571 14.7837 24.3571 14.1426C24.3571 13.5016 23.8374 12.9819 23.1964 12.9819C22.5553 12.9819 22.0356 13.5016 22.0356 14.1426C22.0356 14.7837 22.5553 15.3033 23.1964 15.3033Z" fill="#210049"/>
<path d="M10.4285 11.357V16.9283" stroke="#742FE1" stroke-width="1.5" stroke-linecap="round" stroke-linejoin="round"/>
<path d="M13.2143 14.1426H7.64282" stroke="#742FE1" stroke-width="1.5" stroke-linecap="round" stroke-linejoin="round"/>
</svg>
