<svg width="46" height="46" viewBox="0 0 46 46" fill="none" xmlns="http://www.w3.org/2000/svg">
<path d="M19.799 2.82843C21.3611 1.26633 23.8938 1.26633 25.4559 2.82843L42.4264 19.799C43.9885 21.3611 43.9885 23.8937 42.4264 25.4558L25.4559 42.4264C23.8938 43.9885 21.3611 43.9885 19.799 42.4264L2.82845 25.4558C1.26635 23.8937 1.26635 21.3611 2.82845 19.799L19.799 2.82843Z" fill="#C8F7F3"/>
<mask id="mask0" style="mask-type:alpha" maskUnits="userSpaceOnUse" x="0" y="0" width="46" height="46">
<path d="M19.799 2.82843C21.3611 1.26633 23.8938 1.26633 25.4559 2.82843L42.4264 19.799C43.9885 21.3611 43.9885 23.8937 42.4264 25.4558L25.4559 42.4264C23.8938 43.9885 21.3611 43.9885 19.799 42.4264L2.82845 25.4558C1.26635 23.8937 1.26635 21.3611 2.82845 19.799L19.799 2.82843Z" fill="#C8F7F3"/>
</mask>
<g mask="url(#mask0)">
<g style="mix-blend-mode:color-burn" opacity="0.4">
<mask id="mask1" style="mask-type:alpha" maskUnits="userSpaceOnUse" x="0" y="-10" width="66" height="72">
<path fill-rule="evenodd" clip-rule="evenodd" d="M8.60871 44.4592L56.6513 27.9427C57.923 27.5055 58.6006 26.1197 58.1647 24.8474L50.7659 3.25303L24.7915 -9.44769L2.90261 35.3175L5.51683 42.9474C5.73473 43.5833 6.18976 44.0707 6.74932 44.3443C7.30873 44.6179 7.97282 44.6777 8.60871 44.4592Z" fill="white"/>
</mask>
<g mask="url(#mask1)">
<path fill-rule="evenodd" clip-rule="evenodd" d="M37.8849 45.3745L33.6513 46.9029C33.6059 46.9194 33.582 46.9701 33.5984 47.0155L34.2599 48.8536C34.2763 48.8991 34.3269 48.9228 34.3723 48.9065L38.606 47.3779C38.6513 47.3616 38.6751 47.3108 38.6589 47.2653L37.9974 45.4273C37.9809 45.3819 37.9304 45.3581 37.8849 45.3745Z" fill="#6E61BA"/>
</g>
<mask id="mask2" style="mask-type:alpha" maskUnits="userSpaceOnUse" x="0" y="-10" width="66" height="72">
<path fill-rule="evenodd" clip-rule="evenodd" d="M8.60871 44.4592L56.6513 27.9427C57.923 27.5055 58.6006 26.1197 58.1647 24.8474L50.7659 3.25303L24.7915 -9.44769L2.90261 35.3175L5.51683 42.9474C5.73473 43.5833 6.18976 44.0707 6.74932 44.3443C7.30873 44.6179 7.97282 44.6777 8.60871 44.4592Z" fill="white"/>
</mask>
<g mask="url(#mask2)">
<path fill-rule="evenodd" clip-rule="evenodd" d="M16.5863 31.8665L12.515 29.9527C12.4713 29.9322 12.4187 29.9511 12.3981 29.995L11.5665 31.7637C11.5459 31.8074 11.5649 31.8602 11.6086 31.8807L15.6799 33.7945C15.7237 33.8151 15.7763 33.796 15.7969 33.7523L16.6284 31.9835C16.649 31.9397 16.6299 31.887 16.5863 31.8665Z" fill="#6E61BA"/>
</g>
<mask id="mask3" style="mask-type:alpha" maskUnits="userSpaceOnUse" x="0" y="-10" width="66" height="72">
<path fill-rule="evenodd" clip-rule="evenodd" d="M8.60871 44.4592L56.6513 27.9427C57.923 27.5055 58.6006 26.1197 58.1647 24.8474L50.7659 3.25303L24.7915 -9.44769L2.90261 35.3175L5.51683 42.9474C5.73473 43.5833 6.18976 44.0707 6.74932 44.3443C7.30873 44.6179 7.97282 44.6777 8.60871 44.4592Z" fill="white"/>
</mask>
<g mask="url(#mask3)">
<path fill-rule="evenodd" clip-rule="evenodd" d="M24.7194 36.3127L21.4331 36.0797C20.8374 36.0374 20.3159 36.4899 20.2741 37.085L20.2519 37.4012C20.2102 37.9964 20.6636 38.5181 21.2592 38.5603L24.5455 38.7933C25.1412 38.8356 25.6629 38.3832 25.7045 37.788L25.7267 37.4719C25.7685 36.8767 25.3152 36.355 24.7194 36.3127Z" fill="#6E61BA"/>
</g>
<mask id="mask4" style="mask-type:alpha" maskUnits="userSpaceOnUse" x="0" y="-10" width="66" height="72">
<path fill-rule="evenodd" clip-rule="evenodd" d="M8.60871 44.4592L56.6513 27.9427C57.923 27.5055 58.6006 26.1197 58.1647 24.8474L50.7659 3.25303L24.7915 -9.44769L2.90261 35.3175L5.51683 42.9474C5.73473 43.5833 6.18976 44.0707 6.74932 44.3443C7.30873 44.6179 7.97282 44.6777 8.60871 44.4592Z" fill="white"/>
</mask>
<g mask="url(#mask4)">
<path fill-rule="evenodd" clip-rule="evenodd" d="M41.1064 30.9557L38.6197 33.1131C38.1689 33.504 38.1207 34.1927 38.5124 34.6434L38.7203 34.8828C39.112 35.3336 39.8015 35.3825 40.2521 34.9915L42.739 32.8342C43.1896 32.4432 43.2379 31.7543 42.8463 31.3036L42.6383 31.0644C42.2465 30.6136 41.5572 30.5646 41.1064 30.9557Z" fill="#6E61BA"/>
</g>
<mask id="mask5" style="mask-type:alpha" maskUnits="userSpaceOnUse" x="0" y="-10" width="66" height="72">
<path fill-rule="evenodd" clip-rule="evenodd" d="M8.60871 44.4592L56.6513 27.9427C57.923 27.5055 58.6006 26.1197 58.1647 24.8474L50.7659 3.25303L24.7915 -9.44769L2.90261 35.3175L5.51683 42.9474C5.73473 43.5833 6.18976 44.0707 6.74932 44.3443C7.30873 44.6179 7.97282 44.6777 8.60871 44.4592Z" fill="white"/>
</mask>
<g mask="url(#mask5)">
<path fill-rule="evenodd" clip-rule="evenodd" d="M24.3773 30.209L20.955 30.26C20.9182 30.2606 20.8885 30.2911 20.889 30.3279L20.91 31.8142C20.9105 31.851 20.941 31.8806 20.9778 31.88L24.4002 31.829C24.437 31.8285 24.4666 31.798 24.4661 31.7612L24.4451 30.2749C24.4446 30.2381 24.4141 30.2085 24.3773 30.209Z" fill="#6E61BA"/>
</g>
<mask id="mask6" style="mask-type:alpha" maskUnits="userSpaceOnUse" x="0" y="-10" width="66" height="72">
<path fill-rule="evenodd" clip-rule="evenodd" d="M8.60871 44.4592L56.6513 27.9427C57.923 27.5055 58.6006 26.1197 58.1647 24.8474L50.7659 3.25303L24.7915 -9.44769L2.90261 35.3175L5.51683 42.9474C5.73473 43.5833 6.18976 44.0707 6.74932 44.3443C7.30873 44.6179 7.97282 44.6777 8.60871 44.4592Z" fill="white"/>
</mask>
<g mask="url(#mask6)">
<path fill-rule="evenodd" clip-rule="evenodd" d="M43.8338 6.77652L43.882 10.2011C43.8825 10.2379 43.913 10.2675 43.9498 10.267L45.4351 10.2447C45.4719 10.2442 45.5015 10.2137 45.501 10.1769L45.4528 6.75233C45.4523 6.71551 45.4218 6.68589 45.3851 6.68643L43.8997 6.70865C43.863 6.70919 43.8333 6.73971 43.8338 6.77652Z" fill="#6E61BA"/>
</g>
<mask id="mask7" style="mask-type:alpha" maskUnits="userSpaceOnUse" x="0" y="-10" width="66" height="72">
<path fill-rule="evenodd" clip-rule="evenodd" d="M8.60871 44.4592L56.6513 27.9427C57.923 27.5055 58.6006 26.1197 58.1647 24.8474L50.7659 3.25303L24.7915 -9.44769L2.90261 35.3175L5.51683 42.9474C5.73473 43.5833 6.18976 44.0707 6.74932 44.3443C7.30873 44.6179 7.97282 44.6777 8.60871 44.4592Z" fill="white"/>
</mask>
<g mask="url(#mask7)">
<path fill-rule="evenodd" clip-rule="evenodd" d="M10.3729 24.4555L7.91886 22.0701C7.89254 22.0445 7.84991 22.0452 7.82429 22.0715L6.78875 23.1381C6.76314 23.1645 6.76377 23.2071 6.79008 23.2327L9.2441 25.6181C9.27055 25.6438 9.31305 25.6431 9.33867 25.6167L10.3742 24.5501C10.3999 24.5237 10.3992 24.4811 10.3729 24.4555Z" fill="#6E61BA"/>
</g>
<mask id="mask8" style="mask-type:alpha" maskUnits="userSpaceOnUse" x="0" y="-10" width="66" height="72">
<path fill-rule="evenodd" clip-rule="evenodd" d="M8.60871 44.4592L56.6513 27.9427C57.923 27.5055 58.6006 26.1197 58.1647 24.8474L50.7659 3.25303L24.7915 -9.44769L2.90261 35.3175L5.51683 42.9474C5.73473 43.5833 6.18976 44.0707 6.74932 44.3443C7.30873 44.6179 7.97282 44.6777 8.60871 44.4592Z" fill="white"/>
</mask>
<g mask="url(#mask8)">
<path fill-rule="evenodd" clip-rule="evenodd" d="M40.678 21.6391L38.2921 24.0966C38.2665 24.123 38.2671 24.1656 38.2934 24.1913L39.3585 25.2266C39.3848 25.2522 39.4274 25.2515 39.4531 25.2252L41.839 22.7675C41.8646 22.7411 41.8639 22.6986 41.8376 22.673L40.7726 21.6377C40.7462 21.6121 40.7036 21.6127 40.678 21.6391Z" fill="#6E61BA"/>
</g>
<mask id="mask9" style="mask-type:alpha" maskUnits="userSpaceOnUse" x="0" y="-10" width="66" height="72">
<path fill-rule="evenodd" clip-rule="evenodd" d="M8.60871 44.4592L56.6513 27.9427C57.923 27.5055 58.6006 26.1197 58.1647 24.8474L50.7659 3.25303L24.7915 -9.44769L2.90261 35.3175L5.51683 42.9474C5.73473 43.5833 6.18976 44.0707 6.74932 44.3443C7.30873 44.6179 7.97282 44.6777 8.60871 44.4592Z" fill="white"/>
</mask>
<g mask="url(#mask9)">
<path fill-rule="evenodd" clip-rule="evenodd" d="M19.7051 22.0439L17.6919 21.2761C17.6703 21.268 17.6459 21.2789 17.6377 21.3005L17.3039 22.175C17.2956 22.1968 17.3067 22.2212 17.3282 22.2295L19.3413 22.9972C19.363 23.0055 19.3874 22.9944 19.3957 22.9728L19.7294 22.0983C19.7377 22.0766 19.7267 22.0521 19.7051 22.0439Z" fill="#6E61BA"/>
</g>
<mask id="mask10" style="mask-type:alpha" maskUnits="userSpaceOnUse" x="0" y="-10" width="66" height="72">
<path fill-rule="evenodd" clip-rule="evenodd" d="M8.60871 44.4592L56.6513 27.9427C57.923 27.5055 58.6006 26.1197 58.1647 24.8474L50.7659 3.25303L24.7915 -9.44769L2.90261 35.3175L5.51683 42.9474C5.73473 43.5833 6.18976 44.0707 6.74932 44.3443C7.30873 44.6179 7.97282 44.6777 8.60871 44.4592Z" fill="white"/>
</mask>
<g mask="url(#mask10)">
<path fill-rule="evenodd" clip-rule="evenodd" d="M30.9696 -0.114388L28.981 -0.943629C28.9596 -0.952602 28.9494 -0.977296 28.9584 -0.998713L29.3187 -1.86251C29.3276 -1.88399 29.3524 -1.89419 29.3738 -1.88522L31.3624 -1.05597C31.3837 -1.0472 31.3939 -1.02237 31.385 -1.00089L31.0246 -0.137097C31.0157 -0.11568 30.991 -0.105415 30.9696 -0.114388Z" fill="#6E61BA"/>
</g>
<mask id="mask11" style="mask-type:alpha" maskUnits="userSpaceOnUse" x="0" y="-10" width="66" height="72">
<path fill-rule="evenodd" clip-rule="evenodd" d="M8.60871 44.4592L56.6513 27.9427C57.923 27.5055 58.6006 26.1197 58.1647 24.8474L50.7659 3.25303L24.7915 -9.44769L2.90261 35.3175L5.51683 42.9474C5.73473 43.5833 6.18976 44.0707 6.74932 44.3443C7.30873 44.6179 7.97282 44.6777 8.60871 44.4592Z" fill="white"/>
</mask>
<g mask="url(#mask11)">
<path fill-rule="evenodd" clip-rule="evenodd" d="M31.2317 20.8281L29.2645 21.7101C29.2433 21.7196 29.2338 21.7446 29.2432 21.7657L29.6251 22.6197C29.6346 22.6409 29.6595 22.6504 29.6807 22.6409L31.6479 21.7589C31.669 21.7495 31.6786 21.7245 31.6691 21.7033L31.2873 20.8493C31.2778 20.8281 31.2529 20.8186 31.2317 20.8281Z" fill="#6E61BA"/>
</g>
<mask id="mask12" style="mask-type:alpha" maskUnits="userSpaceOnUse" x="0" y="-10" width="66" height="72">
<path fill-rule="evenodd" clip-rule="evenodd" d="M8.60871 44.4592L56.6513 27.9427C57.923 27.5055 58.6006 26.1197 58.1647 24.8474L50.7659 3.25303L24.7915 -9.44769L2.90261 35.3175L5.51683 42.9474C5.73473 43.5833 6.18976 44.0707 6.74932 44.3443C7.30873 44.6179 7.97282 44.6777 8.60871 44.4592Z" fill="white"/>
</mask>
<g mask="url(#mask12)">
<path fill-rule="evenodd" clip-rule="evenodd" d="M12.8547 15.4135L11.9749 13.4457C11.9654 13.4246 11.9404 13.4151 11.9193 13.4245L11.0655 13.8073C11.0444 13.8168 11.0348 13.8418 11.0443 13.863L11.9241 15.8307C11.9335 15.8518 11.9585 15.8614 11.9797 15.8519L12.8335 15.4691C12.8546 15.4596 12.8642 15.4347 12.8547 15.4135Z" fill="#6E61BA"/>
</g>
<mask id="mask13" style="mask-type:alpha" maskUnits="userSpaceOnUse" x="0" y="-10" width="66" height="72">
<path fill-rule="evenodd" clip-rule="evenodd" d="M8.60871 44.4592L56.6513 27.9427C57.923 27.5055 58.6006 26.1197 58.1647 24.8474L50.7659 3.25303L24.7915 -9.44769L2.90261 35.3175L5.51683 42.9474C5.73473 43.5833 6.18976 44.0707 6.74932 44.3443C7.30873 44.6179 7.97282 44.6777 8.60871 44.4592Z" fill="white"/>
</mask>
<g mask="url(#mask13)">
<path fill-rule="evenodd" clip-rule="evenodd" d="M36.4718 7.70268L35.6528 5.70878C35.6439 5.6874 35.6542 5.66265 35.6757 5.65381L36.5409 5.2974C36.5622 5.28863 36.5869 5.2989 36.5958 5.32029L37.4148 7.31418C37.4236 7.3357 37.4131 7.36038 37.3918 7.36915L36.5267 7.72556C36.5053 7.73447 36.4807 7.72406 36.4718 7.70268Z" fill="#6E61BA"/>
</g>
<mask id="mask14" style="mask-type:alpha" maskUnits="userSpaceOnUse" x="0" y="-10" width="66" height="72">
<path fill-rule="evenodd" clip-rule="evenodd" d="M8.60871 44.4592L56.6513 27.9427C57.923 27.5055 58.6006 26.1197 58.1647 24.8474L50.7659 3.25303L24.7915 -9.44769L2.90261 35.3175L5.51683 42.9474C5.73473 43.5833 6.18976 44.0707 6.74932 44.3443C7.30873 44.6179 7.97282 44.6777 8.60871 44.4592Z" fill="white"/>
</mask>
<g mask="url(#mask14)">
<path fill-rule="evenodd" clip-rule="evenodd" d="M31.8637 20.372L32.783 22.9265C32.7988 22.9703 32.8474 22.9932 32.8911 22.9773L33.9673 22.5888C34.011 22.5731 34.0338 22.5244 34.018 22.4806L33.0987 19.9261C33.083 19.8823 33.0344 19.8595 32.9907 19.8752L31.9146 20.2638C31.8709 20.2795 31.8479 20.3282 31.8637 20.372Z" fill="#00A5B6"/>
</g>
<mask id="mask15" style="mask-type:alpha" maskUnits="userSpaceOnUse" x="0" y="-10" width="66" height="72">
<path fill-rule="evenodd" clip-rule="evenodd" d="M8.60871 44.4592L56.6513 27.9427C57.923 27.5055 58.6006 26.1197 58.1647 24.8474L50.7659 3.25303L24.7915 -9.44769L2.90261 35.3175L5.51683 42.9474C5.73473 43.5833 6.18976 44.0707 6.74932 44.3443C7.30873 44.6179 7.97282 44.6777 8.60871 44.4592Z" fill="white"/>
</mask>
<g mask="url(#mask15)">
<path fill-rule="evenodd" clip-rule="evenodd" d="M5.73599 41.3965L3.28015 40.2422C3.23814 40.2223 3.18755 40.2406 3.16778 40.2827L2.68079 41.3185C2.66102 41.3607 2.67925 41.4113 2.72133 41.431L5.1771 42.5855C5.21918 42.6052 5.26977 42.587 5.28953 42.5448L5.77653 41.509C5.79629 41.4669 5.77807 41.4163 5.73599 41.3965Z" fill="#00A5B6"/>
</g>
<mask id="mask16" style="mask-type:alpha" maskUnits="userSpaceOnUse" x="0" y="-10" width="66" height="72">
<path fill-rule="evenodd" clip-rule="evenodd" d="M8.60871 44.4592L56.6513 27.9427C57.923 27.5055 58.6006 26.1197 58.1647 24.8474L50.7659 3.25303L24.7915 -9.44769L2.90261 35.3175L5.51683 42.9474C5.73473 43.5833 6.18976 44.0707 6.74932 44.3443C7.30873 44.6179 7.97282 44.6777 8.60871 44.4592Z" fill="white"/>
</mask>
<g mask="url(#mask16)">
<path fill-rule="evenodd" clip-rule="evenodd" d="M26.0517 32.4411L24.896 34.8995C24.8761 34.9416 24.8944 34.9922 24.9364 35.0119L25.9712 35.4984C26.0133 35.5181 26.0639 35.4998 26.0836 35.4577L27.2394 32.9994C27.2592 32.9573 27.2409 32.9067 27.1989 32.8869L26.1641 32.4005C26.122 32.3807 26.0714 32.399 26.0517 32.4411Z" fill="#00A5B6"/>
</g>
<mask id="mask17" style="mask-type:alpha" maskUnits="userSpaceOnUse" x="0" y="-10" width="66" height="72">
<path fill-rule="evenodd" clip-rule="evenodd" d="M8.60871 44.4592L56.6513 27.9427C57.923 27.5055 58.6006 26.1197 58.1647 24.8474L50.7659 3.25303L24.7915 -9.44769L2.90261 35.3175L5.51683 42.9474C5.73473 43.5833 6.18976 44.0707 6.74932 44.3443C7.30873 44.6179 7.97282 44.6777 8.60871 44.4592Z" fill="white"/>
</mask>
<g mask="url(#mask17)">
<path fill-rule="evenodd" clip-rule="evenodd" d="M18.4675 17.0472L16.0483 15.8179C16.0068 15.7969 15.9902 15.7458 16.0113 15.7043L16.5298 14.6838C16.5509 14.6424 16.602 14.6257 16.6434 14.6468L19.0626 15.876C19.1041 15.8971 19.1207 15.9483 19.0996 15.9897L18.5811 17.0102C18.56 17.0516 18.5089 17.0683 18.4675 17.0472Z" fill="#00A5B6"/>
</g>
<mask id="mask18" style="mask-type:alpha" maskUnits="userSpaceOnUse" x="0" y="-10" width="66" height="72">
<path fill-rule="evenodd" clip-rule="evenodd" d="M8.60871 44.4592L56.6513 27.9427C57.923 27.5055 58.6006 26.1197 58.1647 24.8474L50.7659 3.25303L24.7915 -9.44769L2.90261 35.3175L5.51683 42.9474C5.73473 43.5833 6.18976 44.0707 6.74932 44.3443C7.30873 44.6179 7.97282 44.6777 8.60871 44.4592Z" fill="white"/>
</mask>
<g mask="url(#mask18)">
<path fill-rule="evenodd" clip-rule="evenodd" d="M10.779 44.1513L8.75235 44.0076C8.38511 43.9816 8.06341 44.2606 8.03769 44.6275L8.02399 44.8225C7.99834 45.1897 8.27775 45.5113 8.64519 45.5372L10.6717 45.6811C11.0392 45.707 11.3607 45.4281 11.3865 45.061L11.4002 44.866C11.4259 44.4991 11.1463 44.1774 10.779 44.1513Z" fill="#00A5B6"/>
</g>
<mask id="mask19" style="mask-type:alpha" maskUnits="userSpaceOnUse" x="0" y="-10" width="66" height="72">
<path fill-rule="evenodd" clip-rule="evenodd" d="M8.60871 44.4592L56.6513 27.9427C57.923 27.5055 58.6006 26.1197 58.1647 24.8474L50.7659 3.25303L24.7915 -9.44769L2.90261 35.3175L5.51683 42.9474C5.73473 43.5833 6.18976 44.0707 6.74932 44.3443C7.30873 44.6179 7.97282 44.6777 8.60871 44.4592Z" fill="white"/>
</mask>
<g mask="url(#mask19)">
<path fill-rule="evenodd" clip-rule="evenodd" d="M29.6485 28.2239L29.5064 30.249C29.4806 30.6161 29.7602 30.9378 30.1276 30.9639L30.3226 30.9777C30.69 31.0038 31.0115 30.7247 31.0373 30.3578L31.1793 28.3326C31.2051 27.9655 30.9256 27.6439 30.5582 27.6178L30.3631 27.604C29.9957 27.5779 29.6742 27.8569 29.6485 28.2239Z" fill="#00A5B6"/>
</g>
<mask id="mask20" style="mask-type:alpha" maskUnits="userSpaceOnUse" x="0" y="-10" width="66" height="72">
<path fill-rule="evenodd" clip-rule="evenodd" d="M8.60871 44.4592L56.6513 27.9427C57.923 27.5055 58.6006 26.1197 58.1647 24.8474L50.7659 3.25303L24.7915 -9.44769L2.90261 35.3175L5.51683 42.9474C5.73473 43.5833 6.18976 44.0707 6.74932 44.3443C7.30873 44.6179 7.97282 44.6777 8.60871 44.4592Z" fill="white"/>
</mask>
<g mask="url(#mask20)">
<path fill-rule="evenodd" clip-rule="evenodd" d="M20.884 40.8477L19.3504 42.178C19.0725 42.4192 19.0428 42.844 19.2843 43.1219L19.4126 43.2695C19.6541 43.5474 20.0792 43.5776 20.3573 43.3365L21.8907 42.0061C22.1686 41.7649 22.1984 41.3402 21.9568 41.0623L21.8287 40.9147C21.5871 40.6368 21.1619 40.6066 20.884 40.8477Z" fill="#00A5B6"/>
</g>
<mask id="mask21" style="mask-type:alpha" maskUnits="userSpaceOnUse" x="0" y="-10" width="66" height="72">
<path fill-rule="evenodd" clip-rule="evenodd" d="M8.60871 44.4592L56.6513 27.9427C57.923 27.5055 58.6006 26.1197 58.1647 24.8474L50.7659 3.25303L24.7915 -9.44769L2.90261 35.3175L5.51683 42.9474C5.73473 43.5833 6.18976 44.0707 6.74932 44.3443C7.30873 44.6179 7.97282 44.6777 8.60871 44.4592Z" fill="white"/>
</mask>
<g mask="url(#mask21)">
<path fill-rule="evenodd" clip-rule="evenodd" d="M26.9567 19.748L25.6718 18.1743C25.4389 17.889 25.4817 17.4656 25.7669 17.2331L25.9183 17.1096C26.2036 16.877 26.6276 16.9202 26.8606 17.2055L28.1455 18.7792C28.3784 19.0645 28.3356 19.4881 28.0503 19.7206L27.8988 19.844C27.6135 20.0765 27.1896 20.0333 26.9567 19.748Z" fill="#00A5B6"/>
</g>
<mask id="mask22" style="mask-type:alpha" maskUnits="userSpaceOnUse" x="0" y="-10" width="66" height="72">
<path fill-rule="evenodd" clip-rule="evenodd" d="M8.60871 44.4592L56.6513 27.9427C57.923 27.5055 58.6006 26.1197 58.1647 24.8474L50.7659 3.25303L24.7915 -9.44769L2.90261 35.3175L5.51683 42.9474C5.73473 43.5833 6.18976 44.0707 6.74932 44.3443C7.30873 44.6179 7.97282 44.6777 8.60871 44.4592Z" fill="white"/>
</mask>
<g mask="url(#mask22)">
<path fill-rule="evenodd" clip-rule="evenodd" d="M10.5448 40.3876L8.48051 40.4184C8.44505 40.4189 8.41661 40.4484 8.41704 40.4837L8.42937 41.3542C8.4298 41.3895 8.4592 41.4179 8.49447 41.4174L10.5589 41.3867C10.5943 41.3861 10.6228 41.3568 10.6223 41.3214L10.6101 40.451C10.6095 40.4156 10.5802 40.387 10.5448 40.3876Z" fill="#00A5B6"/>
</g>
<mask id="mask23" style="mask-type:alpha" maskUnits="userSpaceOnUse" x="0" y="-10" width="66" height="72">
<path fill-rule="evenodd" clip-rule="evenodd" d="M8.60871 44.4592L56.6513 27.9427C57.923 27.5055 58.6006 26.1197 58.1647 24.8474L50.7659 3.25303L24.7915 -9.44769L2.90261 35.3175L5.51683 42.9474C5.73473 43.5833 6.18976 44.0707 6.74932 44.3443C7.30873 44.6179 7.97282 44.6777 8.60871 44.4592Z" fill="white"/>
</mask>
<g mask="url(#mask23)">
<path fill-rule="evenodd" clip-rule="evenodd" d="M22.5664 25.9602L22.5955 28.0258C22.596 28.0613 22.6254 28.0898 22.6607 28.0893L23.5306 28.0762C23.5659 28.0758 23.5943 28.0463 23.5939 28.0111L23.5649 25.9453C23.5643 25.9099 23.535 25.8814 23.4997 25.882L22.6298 25.8949C22.5945 25.8955 22.5659 25.9249 22.5664 25.9602Z" fill="#00A5B6"/>
</g>
<mask id="mask24" style="mask-type:alpha" maskUnits="userSpaceOnUse" x="0" y="-10" width="66" height="72">
<path fill-rule="evenodd" clip-rule="evenodd" d="M8.60871 44.4592L56.6513 27.9427C57.923 27.5055 58.6006 26.1197 58.1647 24.8474L50.7659 3.25303L24.7915 -9.44769L2.90261 35.3175L5.51683 42.9474C5.73473 43.5833 6.18976 44.0707 6.74932 44.3443C7.30873 44.6179 7.97282 44.6777 8.60871 44.4592Z" fill="white"/>
</mask>
<g mask="url(#mask24)">
<path fill-rule="evenodd" clip-rule="evenodd" d="M12.7759 16.1465L10.7115 16.1138C10.6762 16.1133 10.6478 16.0839 10.6483 16.0486L10.6628 15.1781C10.6634 15.1426 10.6929 15.1142 10.7281 15.1147L12.7925 15.1475C12.8277 15.148 12.8562 15.1773 12.8556 15.2128L12.8412 16.0831C12.8406 16.1185 12.8111 16.147 12.7759 16.1465Z" fill="#00A5B6"/>
</g>
<mask id="mask25" style="mask-type:alpha" maskUnits="userSpaceOnUse" x="0" y="-10" width="66" height="72">
<path fill-rule="evenodd" clip-rule="evenodd" d="M8.60871 44.4592L56.6513 27.9427C57.923 27.5055 58.6006 26.1197 58.1647 24.8474L50.7659 3.25303L24.7915 -9.44769L2.90261 35.3175L5.51683 42.9474C5.73473 43.5833 6.18976 44.0707 6.74932 44.3443C7.30873 44.6179 7.97282 44.6777 8.60871 44.4592Z" fill="white"/>
</mask>
<g mask="url(#mask25)">
<path fill-rule="evenodd" clip-rule="evenodd" d="M20.604 35.119L19.1648 36.6014C19.1401 36.6269 19.1408 36.6677 19.1661 36.6924L19.7899 37.2987C19.8152 37.3233 19.856 37.3227 19.8806 37.2974L21.3199 35.8149C21.3445 35.7895 21.344 35.7486 21.3187 35.724L20.6949 35.1176C20.6696 35.093 20.6286 35.0937 20.604 35.119Z" fill="#00A5B6"/>
</g>
<mask id="mask26" style="mask-type:alpha" maskUnits="userSpaceOnUse" x="0" y="-10" width="66" height="72">
<path fill-rule="evenodd" clip-rule="evenodd" d="M8.60871 44.4592L56.6513 27.9427C57.923 27.5055 58.6006 26.1197 58.1647 24.8474L50.7659 3.25303L24.7915 -9.44769L2.90261 35.3175L5.51683 42.9474C5.73473 43.5833 6.18976 44.0707 6.74932 44.3443C7.30873 44.6179 7.97282 44.6777 8.60871 44.4592Z" fill="white"/>
</mask>
<g mask="url(#mask26)">
<path fill-rule="evenodd" clip-rule="evenodd" d="M20.6214 21.2465L19.1861 19.7628C19.1614 19.7375 19.1622 19.6965 19.1876 19.6718L19.8128 19.0661C19.8383 19.0415 19.8791 19.0421 19.9037 19.0675L21.339 20.5513C21.3636 20.5767 21.363 20.6176 21.3376 20.6422L20.7123 21.2479C20.6869 21.2725 20.646 21.2719 20.6214 21.2465Z" fill="#00A5B6"/>
</g>
<mask id="mask27" style="mask-type:alpha" maskUnits="userSpaceOnUse" x="0" y="-10" width="66" height="72">
<path fill-rule="evenodd" clip-rule="evenodd" d="M8.60871 44.4592L56.6513 27.9427C57.923 27.5055 58.6006 26.1197 58.1647 24.8474L50.7659 3.25303L24.7915 -9.44769L2.90261 35.3175L5.51683 42.9474C5.73473 43.5833 6.18976 44.0707 6.74932 44.3443C7.30873 44.6179 7.97282 44.6777 8.60871 44.4592Z" fill="white"/>
</mask>
<g mask="url(#mask27)">
<path fill-rule="evenodd" clip-rule="evenodd" d="M7.67305 35.347L6.45874 34.8839C6.43789 34.8759 6.41433 34.8865 6.40647 34.9073L6.21108 35.4195C6.20308 35.4402 6.21358 35.4637 6.23443 35.4718L7.44874 35.9348C7.46953 35.9427 7.49302 35.9322 7.50101 35.9114L7.6964 35.3993C7.70426 35.3785 7.69383 35.3548 7.67305 35.347Z" fill="#00A5B6"/>
</g>
<mask id="mask28" style="mask-type:alpha" maskUnits="userSpaceOnUse" x="0" y="-10" width="66" height="72">
<path fill-rule="evenodd" clip-rule="evenodd" d="M8.60871 44.4592L56.6513 27.9427C57.923 27.5055 58.6006 26.1197 58.1647 24.8474L50.7659 3.25303L24.7915 -9.44769L2.90261 35.3175L5.51683 42.9474C5.73473 43.5833 6.18976 44.0707 6.74932 44.3443C7.30873 44.6179 7.97282 44.6777 8.60871 44.4592Z" fill="white"/>
</mask>
<g mask="url(#mask28)">
<path fill-rule="evenodd" clip-rule="evenodd" d="M14.6199 21.6822L13.4203 21.182C13.3998 21.1735 13.39 21.1496 13.3986 21.129L13.6096 20.623C13.6182 20.6025 13.6421 20.5927 13.6626 20.6013L14.8622 21.1015C14.8827 21.11 14.8925 21.1338 14.8839 21.1544L14.6728 21.6604C14.6643 21.6809 14.6405 21.6908 14.6199 21.6822Z" fill="#00A5B6"/>
</g>
<mask id="mask29" style="mask-type:alpha" maskUnits="userSpaceOnUse" x="0" y="-10" width="66" height="72">
<path fill-rule="evenodd" clip-rule="evenodd" d="M8.60871 44.4592L56.6513 27.9427C57.923 27.5055 58.6006 26.1197 58.1647 24.8474L50.7659 3.25303L24.7915 -9.44769L2.90261 35.3175L5.51683 42.9474C5.73473 43.5833 6.18976 44.0707 6.74932 44.3443C7.30873 44.6179 7.97282 44.6777 8.60871 44.4592Z" fill="white"/>
</mask>
<g mask="url(#mask29)">
<path fill-rule="evenodd" clip-rule="evenodd" d="M14.7814 34.6084L13.5947 35.1404C13.5744 35.1495 13.5653 35.1735 13.5744 35.1938L13.7981 35.694C13.8071 35.7143 13.8312 35.7236 13.8515 35.7145L15.0381 35.1824C15.0584 35.1733 15.0677 35.1492 15.0585 35.1288L14.8349 34.6287C14.8259 34.6084 14.8017 34.5993 14.7814 34.6084Z" fill="#00A5B6"/>
</g>
<mask id="mask30" style="mask-type:alpha" maskUnits="userSpaceOnUse" x="0" y="-10" width="66" height="72">
<path fill-rule="evenodd" clip-rule="evenodd" d="M8.60871 44.4592L56.6513 27.9427C57.923 27.5055 58.6006 26.1197 58.1647 24.8474L50.7659 3.25303L24.7915 -9.44769L2.90261 35.3175L5.51683 42.9474C5.73473 43.5833 6.18976 44.0707 6.74932 44.3443C7.30873 44.6179 7.97282 44.6777 8.60871 44.4592Z" fill="white"/>
</mask>
<g mask="url(#mask30)">
<path fill-rule="evenodd" clip-rule="evenodd" d="M18.0206 26.4949L17.5265 25.2923C17.5181 25.2716 17.528 25.2478 17.5486 25.2394L18.0553 25.0306C18.0758 25.0221 18.0995 25.0321 18.108 25.0526L18.6021 26.2553C18.6106 26.276 18.6006 26.2997 18.5801 26.3082L18.0734 26.517C18.0528 26.5254 18.029 26.5155 18.0206 26.4949Z" fill="#00A5B6"/>
</g>
</g>
<path d="M25.5446 2.07276C24.1142 0.642412 21.8793 0.642412 20.449 2.07276L4 18.5218L15.1746 29.607C16.6049 31.0374 18.8398 31.0374 20.2702 29.607L36.7191 13.158L25.5446 2.07276Z" fill="#ACEDE7"/>
<path opacity="0.45" d="M45.5484 47.2455C43.1795 45.3717 40.8107 43.4979 38.4772 41.6594C37.0276 40.4927 35.5427 42.9675 36.9923 44.1343C39.3611 46.0081 41.7299 47.8819 44.0634 49.7204C45.5484 50.8518 47.0333 48.3769 45.5484 47.2455Z" fill="#ACEDE7"/>
<g opacity="0.45">
<path opacity="0.45" d="M26.2798 38.3007C27.2344 36.7097 24.7595 35.2248 23.8049 36.8157C22.8503 38.4067 25.3251 39.8917 26.2798 38.3007Z" fill="#ACEDE7"/>
</g>
<path opacity="0.45" d="M44.7352 24.3707C44.6645 24.3 44.5584 24.2646 44.4877 24.1939C43.816 23.805 42.8614 23.9817 42.5078 24.6889C42.1189 25.3606 42.2957 26.2445 43.0028 26.6688C43.0735 26.7395 43.1796 26.7748 43.2503 26.8455C43.922 27.2344 44.8766 27.0577 45.2301 26.3506C45.619 25.6788 45.4422 24.7949 44.7352 24.3707Z" fill="#ACEDE7"/>
</g>
</svg>
