<svg width="46" height="46" viewBox="0 0 46 46" fill="none" xmlns="http://www.w3.org/2000/svg">
  <path d="M19.799 2.82843C21.3611 1.26633 23.8938 1.26633 25.4559 2.82843L42.4264 19.799C43.9885 21.3611 43.9885 23.8937 42.4264 25.4558L25.4559 42.4264C23.8938 43.9885 21.3611 43.9885 19.799 42.4264L2.82845 25.4558C1.26635 23.8937 1.26635 21.3611 2.82845 19.799L19.799 2.82843Z" fill="#FFACC7"/>
  <mask id="mask0_7280_10343" style="mask-type:alpha" maskUnits="userSpaceOnUse" x="1" y="1" width="43" height="43">
    <path d="M19.799 2.82843C21.3611 1.26633 23.8938 1.26633 25.4559 2.82843L42.4264 19.799C43.9885 21.3611 43.9885 23.8937 42.4264 25.4558L25.4559 42.4264C23.8938 43.9885 21.3611 43.9885 19.799 42.4264L2.82845 25.4558C1.26635 23.8937 1.26635 21.3611 2.82845 19.799L19.799 2.82843Z" fill="#C8F7F3"/>
  </mask>
  <g mask="url(#mask0_7280_10343)">
    <mask id="mask1_7280_10343" style="mask-type:alpha" maskUnits="userSpaceOnUse" x="2" y="-10" width="57" height="55">
      <path fill-rule="evenodd" clip-rule="evenodd" d="M8.60871 44.4592L56.6513 27.9427C57.923 27.5055 58.6006 26.1197 58.1647 24.8474V24.8474L50.7659 3.25303L24.7915 -9.4477L2.90261 35.3175L5.51683 42.9474C5.73474 43.5833 6.18976 44.0707 6.74932 44.3443V44.3443C7.30874 44.6179 7.97282 44.6777 8.60871 44.4592" fill="white"/>
    </mask>
    <g mask="url(#mask1_7280_10343)">
      <path fill-rule="evenodd" clip-rule="evenodd" d="M16.5863 31.8665L12.515 29.9527C12.4714 29.9322 12.4188 29.9511 12.3982 29.995L11.5666 31.7637C11.546 31.8074 11.565 31.8602 11.6087 31.8807L15.6799 33.7945C15.7238 33.8151 15.7764 33.796 15.7969 33.7523L16.6284 31.9835C16.6491 31.9397 16.63 31.887 16.5863 31.8665" fill="#FF82AB"/>
    </g>
    <mask id="mask2_7280_10343" style="mask-type:alpha" maskUnits="userSpaceOnUse" x="2" y="-10" width="57" height="55">
      <path fill-rule="evenodd" clip-rule="evenodd" d="M8.60871 44.4592L56.6513 27.9427C57.923 27.5055 58.6006 26.1197 58.1647 24.8474V24.8474L50.7659 3.25303L24.7915 -9.4477L2.90261 35.3175L5.51683 42.9474C5.73474 43.5833 6.18976 44.0707 6.74932 44.3443V44.3443C7.30874 44.6179 7.97282 44.6777 8.60871 44.4592" fill="white"/>
    </mask>
    <g mask="url(#mask2_7280_10343)">
      <path fill-rule="evenodd" clip-rule="evenodd" d="M24.7194 36.3127L21.4331 36.0797C20.8374 36.0374 20.3159 36.4899 20.2741 37.085L20.2519 37.4012C20.2102 37.9964 20.6636 38.5181 21.2592 38.5603L24.5455 38.7933C25.1412 38.8356 25.6629 38.3832 25.7045 37.788L25.7267 37.4719C25.7685 36.8767 25.3152 36.355 24.7194 36.3127" fill="#FF82AB"/>
    </g>
    <mask id="mask3_7280_10343" style="mask-type:alpha" maskUnits="userSpaceOnUse" x="2" y="-10" width="57" height="55">
      <path fill-rule="evenodd" clip-rule="evenodd" d="M8.60871 44.4592L56.6513 27.9427C57.923 27.5055 58.6006 26.1197 58.1647 24.8474V24.8474L50.7659 3.25303L24.7915 -9.4477L2.90261 35.3175L5.51683 42.9474C5.73474 43.5833 6.18976 44.0707 6.74932 44.3443V44.3443C7.30874 44.6179 7.97282 44.6777 8.60871 44.4592" fill="white"/>
    </mask>
    <g mask="url(#mask3_7280_10343)">
      <path fill-rule="evenodd" clip-rule="evenodd" d="M41.1064 30.9557L38.6197 33.1131C38.1689 33.5041 38.1207 34.1928 38.5124 34.6435L38.7203 34.8828C39.112 35.3336 39.8015 35.3825 40.2521 34.9916L42.739 32.8342C43.1896 32.4432 43.2379 31.7544 42.8463 31.3037L42.6383 31.0645C42.2465 30.6137 41.5572 30.5646 41.1064 30.9557" fill="#FF82AB"/>
    </g>
    <mask id="mask4_7280_10343" style="mask-type:alpha" maskUnits="userSpaceOnUse" x="2" y="-10" width="57" height="55">
      <path fill-rule="evenodd" clip-rule="evenodd" d="M8.60871 44.4592L56.6513 27.9427C57.923 27.5055 58.6006 26.1197 58.1647 24.8474V24.8474L50.7659 3.25303L24.7915 -9.4477L2.90261 35.3175L5.51683 42.9474C5.73474 43.5833 6.18976 44.0707 6.74932 44.3443V44.3443C7.30874 44.6179 7.97282 44.6777 8.60871 44.4592" fill="white"/>
    </mask>
    <g mask="url(#mask4_7280_10343)">
      <path fill-rule="evenodd" clip-rule="evenodd" d="M24.3774 30.209L20.955 30.26C20.9182 30.2606 20.8886 30.2911 20.8891 30.3279L20.9101 31.8142C20.9106 31.851 20.9411 31.8806 20.9778 31.88L24.4002 31.829C24.437 31.8285 24.4667 31.798 24.4662 31.7612L24.4452 30.2749C24.4447 30.2381 24.4142 30.2085 24.3774 30.209" fill="#FF82AB"/>
    </g>
    <mask id="mask5_7280_10343" style="mask-type:alpha" maskUnits="userSpaceOnUse" x="2" y="-10" width="57" height="55">
      <path fill-rule="evenodd" clip-rule="evenodd" d="M8.60871 44.4592L56.6513 27.9427C57.923 27.5055 58.6006 26.1197 58.1647 24.8474V24.8474L50.7659 3.25303L24.7915 -9.4477L2.90261 35.3175L5.51683 42.9474C5.73474 43.5833 6.18976 44.0707 6.74932 44.3443V44.3443C7.30874 44.6179 7.97282 44.6777 8.60871 44.4592" fill="white"/>
    </mask>
    <g mask="url(#mask5_7280_10343)">
      <path fill-rule="evenodd" clip-rule="evenodd" d="M43.8339 6.77652L43.8821 10.2011C43.8826 10.2379 43.913 10.2675 43.9498 10.267L45.4351 10.2447C45.4719 10.2442 45.5015 10.2137 45.501 10.1769L45.4529 6.75233C45.4523 6.71551 45.4219 6.68589 45.3851 6.68643L43.8998 6.70865C43.863 6.70919 43.8334 6.73971 43.8339 6.77652" fill="#FF82AB"/>
    </g>
    <mask id="mask6_7280_10343" style="mask-type:alpha" maskUnits="userSpaceOnUse" x="2" y="-10" width="57" height="55">
      <path fill-rule="evenodd" clip-rule="evenodd" d="M8.60871 44.4592L56.6513 27.9427C57.923 27.5055 58.6006 26.1197 58.1647 24.8474V24.8474L50.7659 3.25303L24.7915 -9.4477L2.90261 35.3175L5.51683 42.9474C5.73474 43.5833 6.18976 44.0707 6.74932 44.3443V44.3443C7.30874 44.6179 7.97282 44.6777 8.60871 44.4592" fill="white"/>
    </mask>
    <g mask="url(#mask6_7280_10343)">
      <path fill-rule="evenodd" clip-rule="evenodd" d="M10.3728 24.4555L7.91883 22.0701C7.89251 22.0445 7.84988 22.0451 7.82426 22.0715L6.78872 23.1381C6.76311 23.1644 6.76373 23.2071 6.79005 23.2327L9.24407 25.6181C9.27052 25.6437 9.31302 25.643 9.33864 25.6167L10.3742 24.5501C10.3999 24.5236 10.3992 24.4811 10.3728 24.4555" fill="#FF82AB"/>
    </g>
    <mask id="mask7_7280_10343" style="mask-type:alpha" maskUnits="userSpaceOnUse" x="2" y="-10" width="57" height="55">
      <path fill-rule="evenodd" clip-rule="evenodd" d="M8.60871 44.4592L56.6513 27.9427C57.923 27.5055 58.6006 26.1197 58.1647 24.8474V24.8474L50.7659 3.25303L24.7915 -9.4477L2.90261 35.3175L5.51683 42.9474C5.73474 43.5833 6.18976 44.0707 6.74932 44.3443V44.3443C7.30874 44.6179 7.97282 44.6777 8.60871 44.4592" fill="white"/>
    </mask>
    <g mask="url(#mask7_7280_10343)">
      <path fill-rule="evenodd" clip-rule="evenodd" d="M40.678 21.639L38.2921 24.0966C38.2665 24.1229 38.2671 24.1656 38.2934 24.1912L39.3585 25.2265C39.3848 25.2521 39.4274 25.2515 39.4531 25.2251L41.839 22.7674C41.8646 22.7411 41.8639 22.6986 41.8376 22.6729L40.7726 21.6376C40.7462 21.612 40.7036 21.6127 40.678 21.639" fill="#FF82AB"/>
    </g>
    <mask id="mask8_7280_10343" style="mask-type:alpha" maskUnits="userSpaceOnUse" x="2" y="-10" width="57" height="55">
      <path fill-rule="evenodd" clip-rule="evenodd" d="M8.60871 44.4592L56.6513 27.9427C57.923 27.5055 58.6006 26.1197 58.1647 24.8474V24.8474L50.7659 3.25303L24.7915 -9.4477L2.90261 35.3175L5.51683 42.9474C5.73474 43.5833 6.18976 44.0707 6.74932 44.3443V44.3443C7.30874 44.6179 7.97282 44.6777 8.60871 44.4592" fill="white"/>
    </mask>
    <g mask="url(#mask8_7280_10343)">
      <path fill-rule="evenodd" clip-rule="evenodd" d="M19.705 22.0439L17.6919 21.2761C17.6702 21.268 17.6459 21.2789 17.6376 21.3005L17.3039 22.175C17.2956 22.1968 17.3066 22.2212 17.3282 22.2295L19.3412 22.9972C19.3629 23.0055 19.3873 22.9944 19.3956 22.9728L19.7293 22.0983C19.7376 22.0766 19.7266 22.0521 19.705 22.0439" fill="#FF82AB"/>
    </g>
    <mask id="mask9_7280_10343" style="mask-type:alpha" maskUnits="userSpaceOnUse" x="2" y="-10" width="57" height="55">
      <path fill-rule="evenodd" clip-rule="evenodd" d="M8.60871 44.4592L56.6513 27.9427C57.923 27.5055 58.6006 26.1197 58.1647 24.8474V24.8474L50.7659 3.25303L24.7915 -9.4477L2.90261 35.3175L5.51683 42.9474C5.73474 43.5833 6.18976 44.0707 6.74932 44.3443V44.3443C7.30874 44.6179 7.97282 44.6777 8.60871 44.4592" fill="white"/>
    </mask>
    <g mask="url(#mask9_7280_10343)">
      <path fill-rule="evenodd" clip-rule="evenodd" d="M31.2316 20.828L29.2644 21.71C29.2433 21.7195 29.2337 21.7445 29.2432 21.7657L29.6251 22.6197C29.6345 22.6408 29.6595 22.6504 29.6806 22.6409L31.6478 21.7588C31.6689 21.7495 31.6786 21.7244 31.6691 21.7032L31.2872 20.8492C31.2777 20.8281 31.2528 20.8185 31.2316 20.828" fill="#FF82AB"/>
    </g>
    <mask id="mask10_7280_10343" style="mask-type:alpha" maskUnits="userSpaceOnUse" x="2" y="-10" width="57" height="55">
      <path fill-rule="evenodd" clip-rule="evenodd" d="M8.60871 44.4592L56.6513 27.9427C57.923 27.5055 58.6006 26.1197 58.1647 24.8474V24.8474L50.7659 3.25303L24.7915 -9.4477L2.90261 35.3175L5.51683 42.9474C5.73474 43.5833 6.18976 44.0707 6.74932 44.3443V44.3443C7.30874 44.6179 7.97282 44.6777 8.60871 44.4592" fill="white"/>
    </mask>
    <g mask="url(#mask10_7280_10343)">
      <path fill-rule="evenodd" clip-rule="evenodd" d="M12.8547 15.4134L11.9748 13.4457C11.9654 13.4245 11.9404 13.4151 11.9193 13.4245L11.0655 13.8073C11.0443 13.8168 11.0348 13.8417 11.0443 13.8629L11.9241 15.8306C11.9335 15.8518 11.9585 15.8614 11.9797 15.8519L12.8334 15.469C12.8546 15.4595 12.8642 15.4346 12.8547 15.4134" fill="#FF82AB"/>
    </g>
    <mask id="mask11_7280_10343" style="mask-type:alpha" maskUnits="userSpaceOnUse" x="2" y="-10" width="57" height="55">
      <path fill-rule="evenodd" clip-rule="evenodd" d="M8.60871 44.4592L56.6513 27.9427C57.923 27.5055 58.6006 26.1197 58.1647 24.8474V24.8474L50.7659 3.25303L24.7915 -9.4477L2.90261 35.3175L5.51683 42.9474C5.73474 43.5833 6.18976 44.0707 6.74932 44.3443V44.3443C7.30874 44.6179 7.97282 44.6777 8.60871 44.4592" fill="white"/>
    </mask>
    <g mask="url(#mask11_7280_10343)">
      <path fill-rule="evenodd" clip-rule="evenodd" d="M36.4718 7.70274L35.6528 5.70884C35.644 5.68746 35.6543 5.66271 35.6758 5.65387L36.5409 5.29746C36.5622 5.28869 36.5869 5.29896 36.5958 5.32035L37.4148 7.31424C37.4236 7.33576 37.4132 7.36044 37.3919 7.36922L36.5267 7.72562C36.5054 7.73453 36.4807 7.72412 36.4718 7.70274" fill="#FF82AB"/>
    </g>
    <mask id="mask12_7280_10343" style="mask-type:alpha" maskUnits="userSpaceOnUse" x="2" y="-10" width="57" height="55">
      <path fill-rule="evenodd" clip-rule="evenodd" d="M8.60871 44.4592L56.6513 27.9427C57.923 27.5055 58.6006 26.1197 58.1647 24.8474V24.8474L50.7659 3.25303L24.7915 -9.4477L2.90261 35.3175L5.51683 42.9474C5.73474 43.5833 6.18976 44.0707 6.74932 44.3443V44.3443C7.30874 44.6179 7.97282 44.6777 8.60871 44.4592" fill="white"/>
    </mask>
    <g mask="url(#mask12_7280_10343)">
      <path fill-rule="evenodd" clip-rule="evenodd" d="M31.8637 20.372L32.7831 22.9266C32.7988 22.9704 32.8475 22.9933 32.8911 22.9774L33.9673 22.5889C34.011 22.5732 34.0338 22.5245 34.018 22.4807L33.0987 19.9261C33.0831 19.8824 33.0344 19.8596 32.9907 19.8753L31.9146 20.2639C31.8709 20.2796 31.8479 20.3282 31.8637 20.372" fill="#FF82AB"/>
    </g>
    <mask id="mask13_7280_10343" style="mask-type:alpha" maskUnits="userSpaceOnUse" x="2" y="-10" width="57" height="55">
      <path fill-rule="evenodd" clip-rule="evenodd" d="M8.60871 44.4592L56.6513 27.9427C57.923 27.5055 58.6006 26.1197 58.1647 24.8474V24.8474L50.7659 3.25303L24.7915 -9.4477L2.90261 35.3175L5.51683 42.9474C5.73474 43.5833 6.18976 44.0707 6.74932 44.3443V44.3443C7.30874 44.6179 7.97282 44.6777 8.60871 44.4592" fill="white"/>
    </mask>
    <g mask="url(#mask13_7280_10343)">
      <path fill-rule="evenodd" clip-rule="evenodd" d="M5.73602 41.3965L3.28018 40.2422C3.23817 40.2223 3.18758 40.2406 3.16781 40.2827L2.68082 41.3185C2.66105 41.3607 2.67928 41.4113 2.72136 41.431L5.17713 42.5855C5.21921 42.6052 5.2698 42.587 5.28956 42.5448L5.77656 41.509C5.79632 41.4669 5.7781 41.4163 5.73602 41.3965" fill="#FF82AB"/>
    </g>
    <mask id="mask14_7280_10343" style="mask-type:alpha" maskUnits="userSpaceOnUse" x="2" y="-10" width="57" height="55">
      <path fill-rule="evenodd" clip-rule="evenodd" d="M8.60871 44.4592L56.6513 27.9427C57.923 27.5055 58.6006 26.1197 58.1647 24.8474V24.8474L50.7659 3.25303L24.7915 -9.4477L2.90261 35.3175L5.51683 42.9474C5.73474 43.5833 6.18976 44.0707 6.74932 44.3443V44.3443C7.30874 44.6179 7.97282 44.6777 8.60871 44.4592" fill="white"/>
    </mask>
    <g mask="url(#mask14_7280_10343)">
      <path fill-rule="evenodd" clip-rule="evenodd" d="M26.0517 32.4412L24.8961 34.8996C24.8762 34.9416 24.8944 34.9922 24.9365 35.012L25.9713 35.4984C26.0133 35.5182 26.0639 35.4999 26.0837 35.4578L27.2394 32.9995C27.2592 32.9574 27.241 32.9068 27.1989 32.887L26.1641 32.4006C26.1221 32.3808 26.0715 32.3991 26.0517 32.4412" fill="#FF82AB"/>
    </g>
    <mask id="mask15_7280_10343" style="mask-type:alpha" maskUnits="userSpaceOnUse" x="2" y="-10" width="57" height="55">
      <path fill-rule="evenodd" clip-rule="evenodd" d="M8.60871 44.4592L56.6513 27.9427C57.923 27.5055 58.6006 26.1197 58.1647 24.8474V24.8474L50.7659 3.25303L24.7915 -9.4477L2.90261 35.3175L5.51683 42.9474C5.73474 43.5833 6.18976 44.0707 6.74932 44.3443V44.3443C7.30874 44.6179 7.97282 44.6777 8.60871 44.4592" fill="white"/>
    </mask>
    <g mask="url(#mask15_7280_10343)">
      <path fill-rule="evenodd" clip-rule="evenodd" d="M18.4675 17.0472L16.0483 15.8178C16.0069 15.7968 15.9902 15.7457 16.0113 15.7042L16.5298 14.6838C16.5509 14.6423 16.602 14.6256 16.6434 14.6467L19.0627 15.876C19.1041 15.897 19.1207 15.9482 19.0996 15.9897L18.5812 17.0101C18.56 17.0516 18.5089 17.0683 18.4675 17.0472" fill="#FF82AB"/>
    </g>
    <mask id="mask16_7280_10343" style="mask-type:alpha" maskUnits="userSpaceOnUse" x="2" y="-10" width="57" height="55">
      <path fill-rule="evenodd" clip-rule="evenodd" d="M8.60871 44.4592L56.6513 27.9427C57.923 27.5055 58.6006 26.1197 58.1647 24.8474V24.8474L50.7659 3.25303L24.7915 -9.4477L2.90261 35.3175L5.51683 42.9474C5.73474 43.5833 6.18976 44.0707 6.74932 44.3443V44.3443C7.30874 44.6179 7.97282 44.6777 8.60871 44.4592" fill="white"/>
    </mask>
    <g mask="url(#mask16_7280_10343)">
      <path fill-rule="evenodd" clip-rule="evenodd" d="M10.779 44.1513L8.75237 44.0076C8.38512 43.9816 8.06343 44.2606 8.0377 44.6275L8.02401 44.8225C7.99835 45.1897 8.27776 45.5113 8.6452 45.5372L10.6718 45.6811C11.0392 45.707 11.3607 45.4281 11.3865 45.061L11.4002 44.866C11.4259 44.4991 11.1464 44.1774 10.779 44.1513" fill="#FF82AB"/>
    </g>
    <mask id="mask17_7280_10343" style="mask-type:alpha" maskUnits="userSpaceOnUse" x="2" y="-10" width="57" height="55">
      <path fill-rule="evenodd" clip-rule="evenodd" d="M8.60871 44.4592L56.6513 27.9427C57.923 27.5055 58.6006 26.1197 58.1647 24.8474V24.8474L50.7659 3.25303L24.7915 -9.4477L2.90261 35.3175L5.51683 42.9474C5.73474 43.5833 6.18976 44.0707 6.74932 44.3443V44.3443C7.30874 44.6179 7.97282 44.6777 8.60871 44.4592" fill="white"/>
    </mask>
    <g mask="url(#mask17_7280_10343)">
      <path fill-rule="evenodd" clip-rule="evenodd" d="M29.6485 28.2239L29.5064 30.2491C29.4806 30.6162 29.7602 30.9378 30.1276 30.9639L30.3226 30.9777C30.69 31.0038 31.0115 30.7248 31.0373 30.3578L31.1793 28.3327C31.2051 27.9656 30.9256 27.6439 30.5582 27.6178L30.3631 27.604C29.9957 27.5779 29.6742 27.857 29.6485 28.2239" fill="#FF82AB"/>
    </g>
    <mask id="mask18_7280_10343" style="mask-type:alpha" maskUnits="userSpaceOnUse" x="2" y="-10" width="57" height="55">
      <path fill-rule="evenodd" clip-rule="evenodd" d="M8.60871 44.4592L56.6513 27.9427C57.923 27.5055 58.6006 26.1197 58.1647 24.8474V24.8474L50.7659 3.25303L24.7915 -9.4477L2.90261 35.3175L5.51683 42.9474C5.73474 43.5833 6.18976 44.0707 6.74932 44.3443V44.3443C7.30874 44.6179 7.97282 44.6777 8.60871 44.4592" fill="white"/>
    </mask>
    <g mask="url(#mask18_7280_10343)">
      <path fill-rule="evenodd" clip-rule="evenodd" d="M20.884 40.8478L19.3504 42.1781C19.0725 42.4193 19.0428 42.844 19.2842 43.1219L19.4125 43.2695C19.6541 43.5475 20.0792 43.5776 20.3572 43.3365L21.8907 42.0061C22.1686 41.765 22.1984 41.3403 21.9568 41.0623L21.8287 40.9148C21.5871 40.6368 21.1619 40.6066 20.884 40.8478" fill="#FF82AB"/>
    </g>
    <mask id="mask19_7280_10343" style="mask-type:alpha" maskUnits="userSpaceOnUse" x="2" y="-10" width="57" height="55">
      <path fill-rule="evenodd" clip-rule="evenodd" d="M8.60871 44.4592L56.6513 27.9427C57.923 27.5055 58.6006 26.1197 58.1647 24.8474V24.8474L50.7659 3.25303L24.7915 -9.4477L2.90261 35.3175L5.51683 42.9474C5.73474 43.5833 6.18976 44.0707 6.74932 44.3443V44.3443C7.30874 44.6179 7.97282 44.6777 8.60871 44.4592" fill="white"/>
    </mask>
    <g mask="url(#mask19_7280_10343)">
      <path fill-rule="evenodd" clip-rule="evenodd" d="M26.9567 19.748L25.6718 18.1743C25.4389 17.889 25.4817 17.4656 25.7669 17.2331L25.9183 17.1096C26.2036 16.877 26.6276 16.9202 26.8606 17.2055L28.1455 18.7792C28.3784 19.0645 28.3356 19.4881 28.0503 19.7206L27.8988 19.844C27.6135 20.0765 27.1896 20.0333 26.9567 19.748" fill="#FF82AB"/>
    </g>
    <mask id="mask20_7280_10343" style="mask-type:alpha" maskUnits="userSpaceOnUse" x="2" y="-10" width="57" height="55">
      <path fill-rule="evenodd" clip-rule="evenodd" d="M8.60871 44.4592L56.6513 27.9427C57.923 27.5055 58.6006 26.1197 58.1647 24.8474V24.8474L50.7659 3.25303L24.7915 -9.4477L2.90261 35.3175L5.51683 42.9474C5.73474 43.5833 6.18976 44.0707 6.74932 44.3443V44.3443C7.30874 44.6179 7.97282 44.6777 8.60871 44.4592" fill="white"/>
    </mask>
    <g mask="url(#mask20_7280_10343)">
      <path fill-rule="evenodd" clip-rule="evenodd" d="M10.5448 40.3876L8.4805 40.4184C8.44504 40.4189 8.41659 40.4484 8.41702 40.4837L8.42936 41.3542C8.42979 41.3895 8.45919 41.4179 8.49445 41.4174L10.5589 41.3867C10.5942 41.3861 10.6228 41.3568 10.6223 41.3214L10.6101 40.451C10.6095 40.4156 10.5802 40.387 10.5448 40.3876" fill="#FF82AB"/>
    </g>
    <mask id="mask21_7280_10343" style="mask-type:alpha" maskUnits="userSpaceOnUse" x="2" y="-10" width="57" height="55">
      <path fill-rule="evenodd" clip-rule="evenodd" d="M8.60871 44.4592L56.6513 27.9427C57.923 27.5055 58.6006 26.1197 58.1647 24.8474V24.8474L50.7659 3.25303L24.7915 -9.4477L2.90261 35.3175L5.51683 42.9474C5.73474 43.5833 6.18976 44.0707 6.74932 44.3443V44.3443C7.30874 44.6179 7.97282 44.6777 8.60871 44.4592" fill="white"/>
    </mask>
    <g mask="url(#mask21_7280_10343)">
      <path fill-rule="evenodd" clip-rule="evenodd" d="M22.5665 25.9603L22.5955 28.0259C22.596 28.0614 22.6254 28.0898 22.6607 28.0894L23.5307 28.0763C23.5659 28.0758 23.5944 28.0464 23.5939 28.0111L23.5649 25.9454C23.5644 25.91 23.535 25.8814 23.4997 25.882L22.6298 25.895C22.5945 25.8955 22.5659 25.9249 22.5665 25.9603" fill="#FF82AB"/>
    </g>
    <mask id="mask22_7280_10343" style="mask-type:alpha" maskUnits="userSpaceOnUse" x="2" y="-10" width="57" height="55">
      <path fill-rule="evenodd" clip-rule="evenodd" d="M8.60871 44.4592L56.6513 27.9427C57.923 27.5055 58.6006 26.1197 58.1647 24.8474V24.8474L50.7659 3.25303L24.7915 -9.4477L2.90261 35.3175L5.51683 42.9474C5.73474 43.5833 6.18976 44.0707 6.74932 44.3443V44.3443C7.30874 44.6179 7.97282 44.6777 8.60871 44.4592" fill="white"/>
    </mask>
    <g mask="url(#mask22_7280_10343)">
      <path fill-rule="evenodd" clip-rule="evenodd" d="M12.7759 16.1465L10.7115 16.1139C10.6762 16.1134 10.6478 16.0839 10.6484 16.0486L10.6628 15.1781C10.6634 15.1427 10.6929 15.1143 10.7282 15.1148L12.7925 15.1475C12.8278 15.1481 12.8562 15.1774 12.8556 15.2128L12.8412 16.0832C12.8406 16.1186 12.8112 16.147 12.7759 16.1465" fill="#FF82AB"/>
    </g>
    <mask id="mask23_7280_10343" style="mask-type:alpha" maskUnits="userSpaceOnUse" x="2" y="-10" width="57" height="55">
      <path fill-rule="evenodd" clip-rule="evenodd" d="M8.60871 44.4592L56.6513 27.9427C57.923 27.5055 58.6006 26.1197 58.1647 24.8474V24.8474L50.7659 3.25303L24.7915 -9.4477L2.90261 35.3175L5.51683 42.9474C5.73474 43.5833 6.18976 44.0707 6.74932 44.3443V44.3443C7.30874 44.6179 7.97282 44.6777 8.60871 44.4592" fill="white"/>
    </mask>
    <g mask="url(#mask23_7280_10343)">
      <path fill-rule="evenodd" clip-rule="evenodd" d="M20.6039 35.119L19.1648 36.6014C19.1401 36.6269 19.1408 36.6677 19.1661 36.6924L19.7899 37.2987C19.8152 37.3233 19.856 37.3227 19.8806 37.2974L21.3198 35.8149C21.3444 35.7895 21.344 35.7486 21.3187 35.724L20.6949 35.1176C20.6695 35.093 20.6286 35.0937 20.6039 35.119" fill="#FF82AB"/>
    </g>
    <mask id="mask24_7280_10343" style="mask-type:alpha" maskUnits="userSpaceOnUse" x="2" y="-10" width="57" height="55">
      <path fill-rule="evenodd" clip-rule="evenodd" d="M8.60871 44.4592L56.6513 27.9427C57.923 27.5055 58.6006 26.1197 58.1647 24.8474V24.8474L50.7659 3.25303L24.7915 -9.4477L2.90261 35.3175L5.51683 42.9474C5.73474 43.5833 6.18976 44.0707 6.74932 44.3443V44.3443C7.30874 44.6179 7.97282 44.6777 8.60871 44.4592" fill="white"/>
    </mask>
    <g mask="url(#mask24_7280_10343)">
      <path fill-rule="evenodd" clip-rule="evenodd" d="M20.6215 21.2465L19.1861 19.7628C19.1615 19.7375 19.1622 19.6965 19.1876 19.6718L19.8129 19.0661C19.8383 19.0415 19.8792 19.0421 19.9038 19.0675L21.3391 20.5513C21.3637 20.5767 21.363 20.6176 21.3376 20.6422L20.7123 21.2479C20.6869 21.2725 20.6461 21.2719 20.6215 21.2465" fill="#FF82AB"/>
    </g>
    <mask id="mask25_7280_10343" style="mask-type:alpha" maskUnits="userSpaceOnUse" x="2" y="-10" width="57" height="55">
      <path fill-rule="evenodd" clip-rule="evenodd" d="M8.60871 44.4592L56.6513 27.9427C57.923 27.5055 58.6006 26.1197 58.1647 24.8474V24.8474L50.7659 3.25303L24.7915 -9.4477L2.90261 35.3175L5.51683 42.9474C5.73474 43.5833 6.18976 44.0707 6.74932 44.3443V44.3443C7.30874 44.6179 7.97282 44.6777 8.60871 44.4592" fill="white"/>
    </mask>
    <g mask="url(#mask25_7280_10343)">
      <path fill-rule="evenodd" clip-rule="evenodd" d="M7.673 35.347L6.4587 34.8839C6.43784 34.8759 6.41428 34.8865 6.40642 34.9073L6.21103 35.4195C6.20304 35.4402 6.21353 35.4637 6.23439 35.4718L7.44869 35.9348C7.46948 35.9427 7.49297 35.9322 7.50096 35.9114L7.69636 35.3993C7.70422 35.3785 7.69379 35.3548 7.673 35.347" fill="#FF82AB"/>
    </g>
    <mask id="mask26_7280_10343" style="mask-type:alpha" maskUnits="userSpaceOnUse" x="2" y="-10" width="57" height="55">
      <path fill-rule="evenodd" clip-rule="evenodd" d="M8.60871 44.4592L56.6513 27.9427C57.923 27.5055 58.6006 26.1197 58.1647 24.8474V24.8474L50.7659 3.25303L24.7915 -9.4477L2.90261 35.3175L5.51683 42.9474C5.73474 43.5833 6.18976 44.0707 6.74932 44.3443V44.3443C7.30874 44.6179 7.97282 44.6777 8.60871 44.4592" fill="white"/>
    </mask>
    <g mask="url(#mask26_7280_10343)">
      <path fill-rule="evenodd" clip-rule="evenodd" d="M14.6199 21.6822L13.4203 21.182C13.3998 21.1735 13.39 21.1497 13.3986 21.1291L13.6096 20.6231C13.6182 20.6026 13.6421 20.5928 13.6626 20.6013L14.8622 21.1015C14.8827 21.11 14.8925 21.1339 14.8839 21.1545L14.6728 21.6605C14.6643 21.681 14.6405 21.6908 14.6199 21.6822" fill="#FF82AB"/>
    </g>
    <mask id="mask27_7280_10343" style="mask-type:alpha" maskUnits="userSpaceOnUse" x="2" y="-10" width="57" height="55">
      <path fill-rule="evenodd" clip-rule="evenodd" d="M8.60871 44.4592L56.6513 27.9427C57.923 27.5055 58.6006 26.1197 58.1647 24.8474V24.8474L50.7659 3.25303L24.7915 -9.4477L2.90261 35.3175L5.51683 42.9474C5.73474 43.5833 6.18976 44.0707 6.74932 44.3443V44.3443C7.30874 44.6179 7.97282 44.6777 8.60871 44.4592" fill="white"/>
    </mask>
    <g mask="url(#mask27_7280_10343)">
      <path fill-rule="evenodd" clip-rule="evenodd" d="M14.7814 34.6083L13.5947 35.1404C13.5744 35.1495 13.5653 35.1735 13.5744 35.1938L13.798 35.6939C13.8071 35.7143 13.8312 35.7235 13.8515 35.7144L15.0381 35.1823C15.0584 35.1732 15.0677 35.1492 15.0585 35.1288L14.8349 34.6287C14.8258 34.6084 14.8017 34.5992 14.7814 34.6083" fill="#FF82AB"/>
    </g>
    <mask id="mask28_7280_10343" style="mask-type:alpha" maskUnits="userSpaceOnUse" x="2" y="-10" width="57" height="55">
      <path fill-rule="evenodd" clip-rule="evenodd" d="M8.60871 44.4592L56.6513 27.9427C57.923 27.5055 58.6006 26.1197 58.1647 24.8474L50.7659 3.25303L24.7915 -9.4477L2.90261 35.3175L5.51683 42.9474C5.73474 43.5833 6.18976 44.0707 6.74932 44.3443C7.30874 44.6179 7.97282 44.6777 8.60871 44.4592Z" fill="white"/>
    </mask>
    <g mask="url(#mask28_7280_10343)">
      <path fill-rule="evenodd" clip-rule="evenodd" d="M18.0205 26.495L17.5265 25.2923C17.5181 25.2717 17.5279 25.2479 17.5486 25.2394L18.0552 25.0307C18.0758 25.0222 18.0995 25.0321 18.108 25.0527L18.6021 26.2554C18.6105 26.276 18.6006 26.2998 18.58 26.3083L18.0734 26.517C18.0527 26.5255 18.029 26.5155 18.0205 26.495" fill="#FFACC7"/>
    </g>
    <path d="M25.5446 2.07276C24.1142 0.642412 21.8793 0.642412 20.449 2.07276L4 18.5218L15.1746 29.607C16.6049 31.0374 18.8398 31.0374 20.2702 29.607L36.7191 13.158L25.5446 2.07276Z" fill="#F8BBD0"/>
    <path opacity="0.45" d="M45.5485 47.2457C43.1796 45.3719 40.8108 43.498 38.4774 41.6596C37.0278 40.4928 35.5429 42.9677 36.9925 44.1344C39.3613 46.0083 41.7301 47.8821 44.0635 49.7206C45.5485 50.852 47.0334 48.3771 45.5485 47.2457Z" fill="#F8BBD0"/>
    <path opacity="0.45" d="M44.7353 24.3707C44.6646 24.3 44.5585 24.2646 44.4878 24.1939C43.8161 23.805 42.8615 23.9818 42.5079 24.6889C42.119 25.3606 42.2958 26.2445 43.0029 26.6688C43.0736 26.7395 43.1797 26.7748 43.2504 26.8455C43.9221 27.2345 44.8767 27.0577 45.2303 26.3506C45.6192 25.6788 45.4424 24.795 44.7353 24.3707Z" fill="#F8BBD0"/>
  </g>
</svg>
