<svg width="42" height="42" viewBox="0 0 42 42" fill="none" xmlns="http://www.w3.org/2000/svg">
  <path d="M21 0C9.40215 0 0 9.40215 0 21C0 32.5979 9.40215 42 21 42C32.5979 42 42 32.5979 42 21C41.987 9.40762 32.5924 0.0129883 21 0ZM21 40.6C10.1753 40.6 1.4 31.8247 1.4 21C1.4 10.1753 10.1753 1.4 21 1.4C31.8247 1.4 40.6 10.1753 40.6 21C40.5877 31.8196 31.8196 40.5877 21 40.6Z" fill="#80EBE3"/>
  <path d="M19.8511 10.7234H11.4255C11.0378 10.7234 10.7234 11.0378 10.7234 11.4255V19.851C10.7234 20.2388 11.0378 20.5532 11.4255 20.5532H19.8511C20.2388 20.5532 20.5532 20.2388 20.5532 19.851V11.4255C20.5532 11.0378 20.2388 10.7234 19.8511 10.7234ZM19.149 19.1489H12.1277V12.1276H19.149V19.1489Z" fill="#80EBE3"/>
  <path d="M14.1489 17.8723H17.1276C17.5389 17.8723 17.8723 17.5389 17.8723 17.1276V14.1489C17.8723 13.7377 17.5389 13.4042 17.1276 13.4042H14.1489C13.7377 13.4042 13.4042 13.7377 13.4042 14.1489V17.1276C13.4042 17.5389 13.7377 17.8723 14.1489 17.8723ZM14.8936 14.8936H16.383V16.383H14.8936V14.8936Z" fill="#80EBE3"/>
  <path d="M19.8511 21.4468H11.4255C11.0378 21.4468 10.7234 21.7612 10.7234 22.149V30.5745C10.7234 30.9622 11.0378 31.2766 11.4255 31.2766H19.8511C20.2388 31.2766 20.5532 30.9622 20.5532 30.5745V22.149C20.5532 21.7612 20.2388 21.4468 19.8511 21.4468ZM19.149 29.8724H12.1277V22.8511H19.149V29.8724Z" fill="#80EBE3"/>
  <path d="M14.1489 28.5957H17.1276C17.5389 28.5957 17.8723 28.2623 17.8723 27.851V24.8723C17.8723 24.4611 17.5389 24.1276 17.1276 24.1276H14.1489C13.7377 24.1276 13.4042 24.4611 13.4042 24.8723V27.851C13.4042 28.2623 13.7377 28.5957 14.1489 28.5957ZM14.8936 25.617H16.383V27.1063H14.8936V25.617Z" fill="#80EBE3"/>
  <path d="M30.5745 10.7234H22.1489C21.7612 10.7234 21.4468 11.0378 21.4468 11.4255V17.0425H22.8511V12.1276H29.8723V19.1489H22.8511V18.4468H21.4468V19.851C21.4468 20.2388 21.7612 20.5532 22.1489 20.5532H30.5745C30.9622 20.5532 31.2766 20.2388 31.2766 19.851V11.4255C31.2766 11.0378 30.9622 10.7234 30.5745 10.7234Z" fill="#80EBE3"/>
  <path d="M27.851 17.8723C28.2623 17.8723 28.5957 17.5389 28.5957 17.1276V14.1489C28.5957 13.7377 28.2623 13.4042 27.851 13.4042H24.8723C24.4611 13.4042 24.1276 13.7377 24.1276 14.1489V17.1276C24.1276 17.5389 24.4611 17.8723 24.8723 17.8723H27.851ZM25.617 14.8936H27.1063V16.383H25.617V14.8936Z" fill="#80EBE3"/>
  <path d="M22.8766 22.8766H25.0213V21.4468H22.1617C21.7669 21.4468 21.4468 21.7669 21.4468 22.1617V25.0213H22.8766V22.8766Z" fill="#80EBE3"/>
  <path d="M26.9202 25.9149H22.2287C21.7969 25.9149 21.4468 26.2149 21.4468 26.5851V30.6063C21.4468 30.9765 21.7969 31.2766 22.2287 31.2766H26.9202C27.352 31.2766 27.7021 30.9765 27.7021 30.6063V26.5851C27.7021 26.2149 27.352 25.9149 26.9202 25.9149ZM26.1383 29.9361H23.0106V27.2553H26.1383V29.9361Z" fill="#80EBE3"/>
  <path d="M30.6383 21.4468H26.8085V22.7873H30V24.1277H31.2766V22.1171C31.2766 21.7469 30.9908 21.4468 30.6383 21.4468Z" fill="#80EBE3"/>
  <path d="M30.5617 25.0213H28.417V26.4114H29.8468V29.8865H27.7021V31.2766H30.5617C30.9565 31.2766 31.2766 30.9654 31.2766 30.5816V25.7163C31.2766 25.3325 30.9565 25.0213 30.5617 25.0213Z" fill="#80EBE3"/>
  <path d="M24.1276 24.1276H27.7021V25.0212H24.1276V24.1276Z" fill="#80EBE3"/>
</svg>