<svg width="24" height="24" viewBox="0 0 24 24" fill="none" xmlns="http://www.w3.org/2000/svg">
<path fill-rule="evenodd" clip-rule="evenodd" d="M12 24C18.6274 24 24 18.6274 24 12C24 5.37258 18.6274 0 12 0C5.37258 0 0 5.37258 0 12C0 18.6274 5.37258 24 12 24Z" fill="#B3B3B3"/>
<path d="M15.5625 13.875H14.0625C13.9589 13.875 13.875 13.9589 13.875 14.0625V15.5625C13.875 15.6661 13.9589 15.75 14.0625 15.75H15.5625C15.6661 15.75 15.75 15.6661 15.75 15.5625V14.0625C15.75 13.9589 15.6661 13.875 15.5625 13.875Z" fill="#F5F5F5"/>
<path d="M13.6875 12.375H12.5625C12.4589 12.375 12.375 12.4589 12.375 12.5625V13.6875C12.375 13.7911 12.4589 13.875 12.5625 13.875H13.6875C13.7911 13.875 13.875 13.7911 13.875 13.6875V12.5625C13.875 12.4589 13.7911 12.375 13.6875 12.375Z" fill="#F5F5F5"/>
<path d="M17.0625 15.75H15.9375C15.8339 15.75 15.75 15.8339 15.75 15.9375V17.0625C15.75 17.1661 15.8339 17.25 15.9375 17.25H17.0625C17.1661 17.25 17.25 17.1661 17.25 17.0625V15.9375C17.25 15.8339 17.1661 15.75 17.0625 15.75Z" fill="#F5F5F5"/>
<path d="M17.0625 12.375H16.3125C16.2089 12.375 16.125 12.4589 16.125 12.5625V13.3125C16.125 13.4161 16.2089 13.5 16.3125 13.5H17.0625C17.1661 13.5 17.25 13.4161 17.25 13.3125V12.5625C17.25 12.4589 17.1661 12.375 17.0625 12.375Z" fill="#F5F5F5"/>
<path d="M13.3125 16.125H12.5625C12.4589 16.125 12.375 16.2089 12.375 16.3125V17.0625C12.375 17.1661 12.4589 17.25 12.5625 17.25H13.3125C13.4161 17.25 13.5 17.1661 13.5 17.0625V16.3125C13.5 16.2089 13.4161 16.125 13.3125 16.125Z" fill="#F5F5F5"/>
<path d="M15.5625 8.25H14.0625C13.9589 8.25 13.875 8.33395 13.875 8.4375V9.9375C13.875 10.0411 13.9589 10.125 14.0625 10.125H15.5625C15.6661 10.125 15.75 10.0411 15.75 9.9375V8.4375C15.75 8.33395 15.6661 8.25 15.5625 8.25Z" fill="#F5F5F5"/>
<path d="M16.5 7.125H13.125C12.9179 7.125 12.75 7.29289 12.75 7.5V10.875C12.75 11.0821 12.9179 11.25 13.125 11.25H16.5C16.7071 11.25 16.875 11.0821 16.875 10.875V7.5C16.875 7.29289 16.7071 7.125 16.5 7.125Z" stroke="#F5F5F5" stroke-width="0.75" stroke-linecap="round" stroke-linejoin="round"/>
<path d="M9.9375 8.25H8.4375C8.33395 8.25 8.25 8.33395 8.25 8.4375V9.9375C8.25 10.0411 8.33395 10.125 8.4375 10.125H9.9375C10.0411 10.125 10.125 10.0411 10.125 9.9375V8.4375C10.125 8.33395 10.0411 8.25 9.9375 8.25Z" fill="#F5F5F5"/>
<path d="M10.875 7.125H7.5C7.29289 7.125 7.125 7.29289 7.125 7.5V10.875C7.125 11.0821 7.29289 11.25 7.5 11.25H10.875C11.0821 11.25 11.25 11.0821 11.25 10.875V7.5C11.25 7.29289 11.0821 7.125 10.875 7.125Z" stroke="#F5F5F5" stroke-width="0.75" stroke-linecap="round" stroke-linejoin="round"/>
<path d="M9.9375 13.875H8.4375C8.33395 13.875 8.25 13.9589 8.25 14.0625V15.5625C8.25 15.6661 8.33395 15.75 8.4375 15.75H9.9375C10.0411 15.75 10.125 15.6661 10.125 15.5625V14.0625C10.125 13.9589 10.0411 13.875 9.9375 13.875Z" fill="#F5F5F5"/>
<path d="M10.875 12.75H7.5C7.29289 12.75 7.125 12.9179 7.125 13.125V16.5C7.125 16.7071 7.29289 16.875 7.5 16.875H10.875C11.0821 16.875 11.25 16.7071 11.25 16.5V13.125C11.25 12.9179 11.0821 12.75 10.875 12.75Z" stroke="#F5F5F5" stroke-width="0.75" stroke-linecap="round" stroke-linejoin="round"/>
</svg>
