<svg width="48" height="48" viewBox="0 0 48 48" fill="none" xmlns="http://www.w3.org/2000/svg">
<path fill-rule="evenodd" clip-rule="evenodd" d="M21.6218 45.0152L2.98481 26.3782C1.67173 25.0651 1.67173 22.9357 2.98481 21.6227L21.6218 2.98481C22.9349 1.67173 25.0643 1.67173 26.3773 2.98481L45.0152 21.6227C46.3283 22.9357 46.3283 25.0651 45.0152 26.3782L26.3773 45.0152C25.0643 46.3283 22.9349 46.3283 21.6218 45.0152Z" fill="#D5F4F7"/>
<path d="M16.5 19.5V16.5H19.5V19.5H16.5Z" stroke="#210049"/>
<path d="M16.5 31.5V28.5H19.5V31.5H16.5Z" stroke="#210049"/>
<path d="M28.5 19.5V16.5H31.5V19.5H28.5Z" stroke="#210049"/>
<path d="M21.2727 14H14.7273C14.3256 14 14 14.3256 14 14.7273V21.2727C14 21.6744 14.3256 22 14.7273 22H21.2727C21.6744 22 22 21.6744 22 21.2727V14.7273C22 14.3256 21.6744 14 21.2727 14Z" stroke="#210049" stroke-width="1.5" stroke-linecap="round" stroke-linejoin="round"/>
<path d="M21.2727 26H14.7273C14.3256 26 14 26.3256 14 26.7273V33.2727C14 33.6744 14.3256 34 14.7273 34H21.2727C21.6744 34 22 33.6744 22 33.2727V26.7273C22 26.3256 21.6744 26 21.2727 26Z" stroke="#210049" stroke-width="1.5" stroke-linecap="round" stroke-linejoin="round"/>
<path d="M33.2727 14H26.7273C26.3256 14 26 14.3256 26 14.7273V21.2727C26 21.6744 26.3256 22 26.7273 22H33.2727C33.6744 22 34 21.6744 34 21.2727V14.7273C34 14.3256 33.6744 14 33.2727 14Z" stroke="#210049" stroke-width="1.5" stroke-linecap="round" stroke-linejoin="round"/>
<path d="M26.5 27.5V26.5H27.5V27.5H26.5Z" stroke="#210049"/>
<path d="M32.5 33.5V32.5H33.5V33.5H32.5Z" stroke="#210049"/>
<path d="M32.5 27.5V26.5H33.5V27.5H32.5Z" stroke="#210049"/>
<path d="M26.5 33.5V32.5H27.5V33.5H26.5Z" stroke="#210049"/>
<path d="M28.5 31.5V28.5H31.5V31.5H28.5Z" stroke="#210049"/>
</svg>
