<svg width="48" height="48" viewBox="0 0 48 48" fill="none" xmlns="http://www.w3.org/2000/svg">
<path fill-rule="evenodd" clip-rule="evenodd" d="M21.6218 45.0152L2.98481 26.3782C1.67173 25.0651 1.67173 22.9357 2.98481 21.6227L21.6218 2.98481C22.9349 1.67173 25.0643 1.67173 26.3773 2.98481L45.0152 21.6227C46.3283 22.9357 46.3283 25.0651 45.0152 26.3782L26.3773 45.0152C25.0643 46.3283 22.9349 46.3283 21.6218 45.0152Z" fill="#E4D2FF"/>
<path d="M27.75 33H30.375C31.0712 33 31.7389 32.7234 32.2312 32.2312C32.7234 31.7389 33 31.0712 33 30.375V27.75" stroke="#210049" stroke-width="1.5" stroke-linecap="round" stroke-linejoin="round"/>
<path d="M33 20.25V17.625C33 16.9288 32.7234 16.2611 32.2312 15.7688C31.7389 15.2766 31.0712 15 30.375 15H27.75" stroke="#210049" stroke-width="1.5" stroke-linecap="round" stroke-linejoin="round"/>
<path d="M20.25 33H17.625C16.9288 33 16.2611 32.7234 15.7688 32.2312C15.2766 31.7389 15 31.0712 15 30.375V27.75" stroke="#210049" stroke-width="1.5" stroke-linecap="round" stroke-linejoin="round"/>
<path d="M15 20.25V17.625C15 16.9288 15.2766 16.2611 15.7688 15.7688C16.2611 15.2766 16.9288 15 17.625 15H20.25" stroke="#210049" stroke-width="1.5" stroke-linecap="round" stroke-linejoin="round"/>
</svg>
