<svg width="240" height="248" viewBox="0 0 240 248" fill="none" xmlns="http://www.w3.org/2000/svg">
<path d="M133.985 81.0321C136.535 81.0321 138.603 78.9754 138.603 76.4384C138.603 73.9014 136.535 71.8447 133.985 71.8447C131.435 71.8447 129.367 73.9014 129.367 76.4384C129.367 78.9754 131.435 81.0321 133.985 81.0321Z" stroke="#26A1AB" stroke-width="2" stroke-miterlimit="10"/>
<path d="M164.853 125.784C166.745 128.912 168.968 131.831 171.485 134.489C181.294 145.022 201.705 158.862 230.514 137.195" stroke="#26A1AB" stroke-width="2" stroke-miterlimit="10" stroke-linecap="round"/>
<path d="M70.897 125.74C70.897 125.74 51.7793 162.475 44.7793 199.971" stroke="#26A1AB" stroke-width="2" stroke-miterlimit="10" stroke-linecap="round"/>
<path d="M163.956 89.9712V186.527C163.956 186.911 163.88 187.291 163.732 187.646C163.584 188.001 163.367 188.324 163.094 188.596C162.821 188.867 162.497 189.083 162.14 189.23C161.783 189.377 161.401 189.453 161.014 189.453H74.2498C73.4697 189.453 72.7216 189.144 72.17 188.596C71.6185 188.047 71.3086 187.303 71.3086 186.527V89.9712" stroke="#26A1AB" stroke-width="2" stroke-miterlimit="10"/>
<path opacity="0.25" d="M151.735 72.8395C150.082 73.2818 148.336 73.2412 146.706 72.7225C145.282 72.2784 143.988 71.4983 142.933 70.4488C141.878 69.3992 141.094 68.1114 140.647 66.6951C140.129 65.0771 140.093 63.3442 140.544 61.7064C140.617 61.4362 140.626 61.153 140.57 60.879C140.514 60.6049 140.396 60.3473 140.223 60.1263C140.051 59.9054 139.83 59.727 139.577 59.6052C139.324 59.4834 139.046 59.4215 138.765 59.4242H95.7355C95.4563 59.4214 95.1802 59.4829 94.9289 59.604C94.6777 59.725 94.4579 59.9023 94.287 60.1219C94.1161 60.3416 93.9986 60.5976 93.9437 60.8699C93.8889 61.1423 93.8981 61.4236 93.9708 61.6918C94.4252 63.3605 94.3792 65.1251 93.8384 66.7682C93.3884 68.1673 92.6072 69.4384 91.5605 70.4745C90.5138 71.5107 89.2323 72.2816 87.8237 72.7225C86.1882 73.2408 84.4376 73.2814 82.7796 72.8395C82.5091 72.7645 82.2247 72.7533 81.949 72.8066C81.6733 72.8599 81.4139 72.9763 81.1913 73.1467C80.9687 73.317 80.789 73.5366 80.6665 73.788C80.544 74.0394 80.482 74.3157 80.4855 74.5951V166.425C80.4856 166.702 80.5494 166.975 80.672 167.223C80.7946 167.472 80.9727 167.689 81.1927 167.859C81.4127 168.028 81.6688 168.145 81.9413 168.201C82.2138 168.257 82.4955 168.25 82.7649 168.181C84.4464 167.72 86.2272 167.766 87.8825 168.312C89.2856 168.763 90.5598 169.542 91.5985 170.583C92.6372 171.624 93.4103 172.897 93.8531 174.296C94.3745 175.918 94.4154 177.655 93.9708 179.299C93.8982 179.569 93.8894 179.852 93.9451 180.127C94.0007 180.401 94.1193 180.658 94.2916 180.879C94.4639 181.1 94.6852 181.279 94.9382 181.4C95.1912 181.522 95.4691 181.584 95.7502 181.581H138.78C139.058 181.581 139.332 181.518 139.582 181.396C139.832 181.274 140.05 181.097 140.221 180.878C140.391 180.659 140.509 180.404 140.565 180.133C140.621 179.862 140.614 179.582 140.544 179.314C140.09 177.645 140.136 175.88 140.677 174.237C141.127 172.838 141.908 171.567 142.955 170.531C144.001 169.495 145.283 168.724 146.691 168.283C148.328 167.769 150.079 167.733 151.735 168.181C152.006 168.25 152.289 168.257 152.563 168.2C152.836 168.144 153.093 168.025 153.313 167.854C153.534 167.683 153.712 167.464 153.833 167.214C153.955 166.963 154.017 166.688 154.015 166.41V74.5951C154.018 74.3173 153.956 74.0427 153.834 73.7927C153.712 73.5427 153.534 73.3241 153.313 73.1541C153.093 72.9841 152.835 72.8672 152.562 72.8126C152.288 72.758 152.005 72.7672 151.735 72.8395Z" fill="#26A1AB"/>
<path opacity="0.25" d="M85.0148 68.4215C87.5163 68.4215 89.5442 66.4041 89.5442 63.9156C89.5442 61.427 87.5163 59.4097 85.0148 59.4097C82.5132 59.4097 80.4854 61.427 80.4854 63.9156C80.4854 66.4041 82.5132 68.4215 85.0148 68.4215Z" fill="#26A1AB"/>
<path opacity="0.25" d="M149.5 68.4215C152.002 68.4215 154.03 66.4041 154.03 63.9156C154.03 61.427 152.002 59.4097 149.5 59.4097C146.999 59.4097 144.971 61.427 144.971 63.9156C144.971 66.4041 146.999 68.4215 149.5 68.4215Z" fill="#26A1AB"/>
<path opacity="0.25" d="M85.0148 181.581C87.5163 181.581 89.5442 179.564 89.5442 177.075C89.5442 174.587 87.5163 172.57 85.0148 172.57C82.5132 172.57 80.4854 174.587 80.4854 177.075C80.4854 179.564 82.5132 181.581 85.0148 181.581Z" fill="#26A1AB"/>
<path opacity="0.25" d="M149.898 181.581C152.399 181.581 154.427 179.564 154.427 177.075C154.427 174.587 152.399 172.57 149.898 172.57C147.396 172.57 145.368 174.587 145.368 177.075C145.368 179.564 147.396 181.581 149.898 181.581Z" fill="#26A1AB"/>
<path d="M126.83 141.062L108.975 141.39C108.716 141.485 108.449 141.428 108.195 141.222C107.94 141.016 107.703 140.666 107.502 140.199C107.329 139.479 107.65 138.749 108.238 138.396C114.498 135.083 120.991 134.963 127.369 138.044C127.984 138.376 128.317 139.093 128.185 139.819C128.008 140.262 127.796 140.601 127.563 140.814C127.329 141.028 127.08 141.112 126.83 141.062Z" fill="#26A1AB"/>
<path d="M103.53 124.599C104.748 124.599 105.736 123.617 105.736 122.405C105.736 121.193 104.748 120.21 103.53 120.21C102.312 120.21 101.324 121.193 101.324 122.405C101.324 123.617 102.312 124.599 103.53 124.599Z" fill="white"/>
<path d="M103.53 127.525C102.512 127.525 101.517 127.225 100.67 126.662C99.8239 126.1 99.1642 125.3 98.7746 124.365C98.385 123.429 98.2831 122.399 98.4817 121.406C98.6803 120.413 99.1705 119.5 99.8904 118.784C100.61 118.068 101.527 117.581 102.526 117.383C103.524 117.185 104.559 117.287 105.5 117.674C106.44 118.062 107.244 118.718 107.809 119.56C108.375 120.402 108.677 121.392 108.677 122.405C108.677 123.763 108.135 125.065 107.169 126.026C106.204 126.986 104.895 127.525 103.53 127.525ZM103.53 120.211C103.094 120.211 102.667 120.339 102.304 120.58C101.942 120.822 101.659 121.164 101.492 121.565C101.325 121.966 101.281 122.407 101.366 122.833C101.451 123.259 101.662 123.65 101.97 123.957C102.279 124.264 102.672 124.473 103.1 124.557C103.527 124.642 103.971 124.599 104.374 124.432C104.777 124.266 105.122 123.985 105.364 123.624C105.606 123.263 105.736 122.839 105.736 122.405C105.736 121.823 105.503 121.265 105.09 120.853C104.676 120.442 104.115 120.211 103.53 120.211Z" fill="#26A1AB"/>
<path d="M130.677 124.599C131.895 124.599 132.882 123.617 132.882 122.405C132.882 121.193 131.895 120.21 130.677 120.21C129.458 120.21 128.471 121.193 128.471 122.405C128.471 123.617 129.458 124.599 130.677 124.599Z" fill="white"/>
<path d="M130.676 127.525C129.658 127.525 128.663 127.225 127.817 126.662C126.97 126.1 126.311 125.3 125.921 124.365C125.532 123.429 125.43 122.399 125.628 121.406C125.827 120.413 126.317 119.5 127.037 118.784C127.757 118.068 128.674 117.581 129.672 117.383C130.671 117.185 131.706 117.287 132.646 117.674C133.587 118.062 134.39 118.718 134.956 119.56C135.522 120.402 135.823 121.392 135.823 122.405C135.823 123.077 135.69 123.743 135.432 124.365C135.173 124.986 134.794 125.55 134.316 126.026C133.838 126.501 133.271 126.878 132.646 127.136C132.022 127.393 131.352 127.525 130.676 127.525ZM130.676 120.211C130.24 120.211 129.814 120.339 129.451 120.58C129.088 120.822 128.805 121.164 128.638 121.565C128.471 121.966 128.428 122.407 128.513 122.833C128.598 123.259 128.808 123.65 129.117 123.957C129.425 124.264 129.818 124.473 130.246 124.557C130.674 124.642 131.117 124.599 131.521 124.432C131.924 124.266 132.268 123.985 132.51 123.624C132.753 123.263 132.882 122.839 132.882 122.405C132.882 121.823 132.65 121.265 132.236 120.853C131.822 120.442 131.261 120.211 130.676 120.211Z" fill="#26A1AB"/>
<path d="M68.4712 83.6074C68.3584 77.1185 69.5456 70.6722 71.9637 64.6447C74.3818 58.6171 77.9823 53.129 82.5552 48.5004C87.128 43.8719 92.5817 40.1956 98.5979 37.6862C104.614 35.1767 111.073 33.8843 117.596 33.8843C124.12 33.8843 130.578 35.1767 136.595 37.6862C142.611 40.1956 148.064 43.8719 152.637 48.5004C157.21 53.129 160.811 58.6171 163.229 64.6447C165.647 70.6722 166.834 77.1185 166.721 83.6074" fill="#C8F7F3"/>
<path d="M68.4712 83.6074C68.3584 77.1185 69.5456 70.6722 71.9637 64.6447C74.3818 58.6171 77.9823 53.129 82.5552 48.5004C87.128 43.8719 92.5817 40.1956 98.5979 37.6862C104.614 35.1767 111.073 33.8843 117.596 33.8843C124.12 33.8843 130.578 35.1767 136.595 37.6862C142.611 40.1956 148.064 43.8719 152.637 48.5004C157.21 53.129 160.811 58.6171 163.229 64.6447C165.647 70.6722 166.834 77.1185 166.721 83.6074" stroke="#26A1AB" stroke-width="2" stroke-miterlimit="10" stroke-linecap="round"/>
<path d="M128.426 84.1337V40.2449C128.426 37.3853 127.285 34.6429 125.252 32.6209C123.219 30.5988 120.463 29.4629 117.588 29.4629C114.716 29.4668 111.963 30.6044 109.934 32.626C107.905 34.6476 106.765 37.3879 106.765 40.2449V84.1337H67.8236C67.3209 84.1318 66.8228 84.2289 66.3581 84.4193C65.8933 84.6098 65.471 84.8899 65.1156 85.2435C64.7601 85.5971 64.4786 86.0172 64.2871 86.4795C64.0957 86.9419 63.9981 87.4374 64 87.9374V101.601C64 102.61 64.4029 103.578 65.1199 104.291C65.837 105.004 66.8095 105.405 67.8236 105.405H167.353C168.368 105.405 169.342 105.005 170.062 104.292C170.781 103.579 171.187 102.612 171.191 101.601V87.9374C171.191 87.4367 171.092 86.9409 170.899 86.4784C170.706 86.016 170.423 85.596 170.066 85.2426C169.709 84.8892 169.286 84.6093 168.821 84.419C168.355 84.2288 167.856 84.1318 167.353 84.1337H128.426Z" fill="#C8F7F3" stroke="#26A1AB" stroke-width="2" stroke-miterlimit="10" stroke-linecap="round"/>
<path d="M117 99.0414C119.551 99.0414 121.618 96.9847 121.618 94.4477C121.618 91.9107 119.551 89.854 117 89.854C114.45 89.854 112.383 91.9107 112.383 94.4477C112.383 96.9847 114.45 99.0414 117 99.0414Z" stroke="#26A1AB" stroke-width="2" stroke-miterlimit="10"/>
<path d="M117 77.5504C119.551 77.5504 121.618 75.4938 121.618 72.9567C121.618 70.4197 119.551 68.363 117 68.363C114.45 68.363 112.383 70.4197 112.383 72.9567C112.383 75.4938 114.45 77.5504 117 77.5504Z" stroke="#26A1AB" stroke-width="2" stroke-miterlimit="10"/>
<path d="M152.514 99.0414C155.064 99.0414 157.132 96.9847 157.132 94.4477C157.132 91.9107 155.064 89.854 152.514 89.854C149.964 89.854 147.896 91.9107 147.896 94.4477C147.896 96.9847 149.964 99.0414 152.514 99.0414Z" stroke="#26A1AB" stroke-width="2" stroke-miterlimit="10"/>
<path d="M79.6616 99.0414C82.2119 99.0414 84.2793 96.9847 84.2793 94.4477C84.2793 91.9107 82.2119 89.854 79.6616 89.854C77.1113 89.854 75.0439 91.9107 75.0439 94.4477C75.0439 96.9847 77.1113 99.0414 79.6616 99.0414Z" stroke="#26A1AB" stroke-width="2" stroke-miterlimit="10"/>
<path d="M45.3089 233.604C65.1018 233.604 81.1472 217.642 81.1472 197.952C81.1472 178.262 65.1018 162.3 45.3089 162.3C25.516 162.3 9.4707 178.262 9.4707 197.952C9.4707 217.642 25.516 233.604 45.3089 233.604Z" fill="#C8F7F3" stroke="#26A1AB" stroke-width="2" stroke-miterlimit="10" stroke-linecap="round"/>
<mask id="mask0" mask-type="alpha" maskUnits="userSpaceOnUse" x="8" y="161" width="75" height="74">
<path d="M45.308 233.605C65.1009 233.605 81.1462 217.643 81.1462 197.953C81.1462 178.262 65.1009 162.3 45.308 162.3C25.515 162.3 9.46973 178.262 9.46973 197.953C9.46973 217.643 25.515 233.605 45.308 233.605Z" fill="#C8F7F3" stroke="#26A1AB" stroke-width="2" stroke-miterlimit="10" stroke-linecap="round"/>
</mask>
<g mask="url(#mask0)">
<path opacity="0.25" d="M22.501 170.682H67.648" stroke="#2FCAD7" stroke-miterlimit="10"/>
<path opacity="0.25" d="M8.10352 177.514H82.6918" stroke="#2FCAD7" stroke-miterlimit="10"/>
<path opacity="0.25" d="M8.10352 184.346H82.6918" stroke="#2FCAD7" stroke-miterlimit="10"/>
<path opacity="0.25" d="M8.10352 191.178H82.6918" stroke="#2FCAD7" stroke-miterlimit="10"/>
<path opacity="0.25" d="M8.10352 198.01H82.6918" stroke="#2FCAD7" stroke-miterlimit="10"/>
<path opacity="0.25" d="M8.10352 204.842H82.6918" stroke="#2FCAD7" stroke-miterlimit="10"/>
<path opacity="0.25" d="M8.10352 211.689H82.6918" stroke="#2FCAD7" stroke-miterlimit="10"/>
<path opacity="0.25" d="M8.10352 218.521H82.6918" stroke="#2FCAD7" stroke-miterlimit="10"/>
<path opacity="0.25" d="M22.501 225.353H67.648" stroke="#2FCAD7" stroke-miterlimit="10"/>
</g>
<path opacity="0.25" d="M45.3088 215.654C55.1362 215.654 63.1029 207.729 63.1029 197.952C63.1029 188.176 55.1362 180.25 45.3088 180.25C35.4813 180.25 27.5146 188.176 27.5146 197.952C27.5146 207.729 35.4813 215.654 45.3088 215.654Z" fill="#2FCAD7"/>
<path d="M87.3966 188.955L86.2643 199.195C84.9433 211.022 84.9088 222.955 86.1614 234.789L87.3966 246.493" stroke="#26A1AB" stroke-width="2" stroke-linecap="round" stroke-linejoin="round"/>
<path d="M146.927 188.955L148.074 199.195C149.382 211.023 149.412 222.956 148.162 234.789L146.927 246.493" stroke="#26A1AB" stroke-width="2" stroke-linecap="round" stroke-linejoin="round"/>
<path d="M100.426 110.116C100.338 109.945 100.216 109.793 100.068 109.668C99.9205 109.544 99.7494 109.45 99.565 109.391C99.3805 109.333 99.1863 109.311 98.9934 109.328C98.8006 109.344 98.6128 109.398 98.441 109.487L92.4263 112.632C92.1352 112.788 91.9055 113.037 91.7742 113.339C91.6429 113.641 91.6177 113.978 91.7027 114.296C91.7877 114.614 91.9779 114.894 92.2426 115.091C92.5073 115.288 92.8311 115.391 93.1616 115.383C93.3824 115.381 93.5995 115.326 93.794 115.222L99.8087 112.091C100.154 111.91 100.413 111.601 100.529 111.231C100.644 110.86 100.608 110.459 100.426 110.116Z" fill="#26A1AB"/>
<path d="M140.176 112.413L133.97 109.692C133.614 109.535 133.209 109.525 132.844 109.665C132.48 109.805 132.187 110.083 132.029 110.438C131.871 110.793 131.862 111.196 132.002 111.558C132.143 111.92 132.422 112.212 132.779 112.369L138.956 115.09C139.16 115.177 139.381 115.217 139.603 115.207C139.878 115.198 140.145 115.113 140.374 114.96C140.603 114.807 140.784 114.594 140.897 114.344C141.057 113.993 141.071 113.592 140.936 113.231C140.801 112.869 140.528 112.575 140.176 112.413Z" fill="#26A1AB"/>
</svg>
