<svg width="84" height="85" viewBox="0 0 84 85" fill="none" xmlns="http://www.w3.org/2000/svg">
<path d="M20.0073 79.5919L0.521257 30.3315C-0.99222 26.4549 0.899626 22.0111 4.77791 20.4983L54.1551 1.02102C58.0334 -0.491774 62.4792 1.39922 63.9927 5.27576L83.4787 54.7253C84.9922 58.6019 83.1004 63.0457 79.2221 64.5585L29.8449 83.9412C25.872 85.5485 21.5208 83.563 20.0073 79.5919Z" fill="#D5F4F7"/>
<path d="M79.5059 44.5139C71.8439 46.1213 63.3306 43.8521 55.8578 46.7831C51.6011 48.485 48.1958 51.7943 44.6013 54.5362C40.1554 57.8454 35.2366 59.1691 29.7503 59.3582C23.8856 59.5473 17.8317 59.0746 12.0615 59.5473L13.8588 64.1803C20.9532 63.7075 28.1422 64.8421 35.1421 63.8966C39.1149 63.3293 42.804 61.9111 46.0202 59.5473C50.1822 56.6163 53.7767 52.8343 58.5064 51.1324C65.79 48.6741 73.9249 50.8488 81.3977 49.2414L79.5059 44.5139Z" fill="#ACEAEF"/>
<path d="M34.102 52.1725C42.3315 49.9978 47.3449 41.772 55.0069 38.7464C61.6283 36.099 69.2903 37.8009 75.7226 34.9644L74.0199 30.426C67.0201 33.7353 58.0338 31.3715 51.034 35.1535C46.9665 37.3282 43.6558 40.732 40.0613 43.5684C35.71 46.8777 30.9804 48.2014 25.5887 48.1068C19.4402 48.0123 13.0079 46.4049 6.85938 45.8376L8.75122 50.7542C17.1699 51.6997 25.8724 54.3471 34.102 52.1725Z" fill="#ACEAEF"/>
<path d="M4.7787 40.7318C10.8326 40.7318 17.0757 41.3937 22.9404 40.5427C26.9133 39.9754 30.6024 38.5572 33.8185 36.1934C37.9806 33.2624 41.5751 29.4804 46.3047 27.7785C54.5343 25.0366 63.8989 28.1567 71.9393 24.942L70.142 20.3091C61.7233 23.4292 51.9803 20.0254 43.6562 23.4292C39.3995 25.1311 35.9942 28.4404 32.3997 31.1823C27.9538 34.4916 23.035 35.8152 17.5487 36.0043C12.6299 36.1934 7.80565 35.8152 2.98145 36.0043L4.7787 40.7318Z" fill="#ACEAEF"/>
<path d="M61.5628 59.9633H20.3583C18.5358 59.9633 17.0303 58.4483 17.0303 56.6142V28.3858C17.0303 26.5517 18.5358 25.0366 20.3583 25.0366H61.5628C63.3853 25.0366 64.8908 26.5517 64.8908 28.3858V56.5345C64.9701 58.4483 63.4645 59.9633 61.5628 59.9633Z" stroke="#210049" stroke-width="1.5"/>
<path d="M22.8145 38.3535H29.3913" stroke="#210049" stroke-width="1.5" stroke-linecap="round" stroke-linejoin="round"/>
<path d="M32.7197 38.3535H39.2966" stroke="#210049" stroke-width="1.5" stroke-linecap="round" stroke-linejoin="round"/>
<path d="M22.8145 42.5H23.6068" stroke="#210049" stroke-width="1.5" stroke-linecap="round" stroke-linejoin="round"/>
<path d="M26.9355 42.5H28.5996" stroke="#210049" stroke-width="1.5" stroke-linecap="round" stroke-linejoin="round"/>
<path d="M31.9277 42.5H32.7201" stroke="#210049" stroke-width="1.5" stroke-linecap="round" stroke-linejoin="round"/>
<path d="M36.0479 42.5H37.7119" stroke="#210049" stroke-width="1.5" stroke-linecap="round" stroke-linejoin="round"/>
<path d="M57.6797 35.9612C57.6797 39.0711 55.1441 41.6228 52.0537 41.6228C48.9634 41.6228 46.4277 39.1509 46.4277 35.9612C46.4277 32.7715 48.9634 30.2996 52.0537 30.2996C55.1441 30.2996 57.6797 32.8513 57.6797 35.9612Z" stroke="#210049" stroke-width="1.5" stroke-linecap="round" stroke-linejoin="round"/>
<path d="M51.9748 44.7327C46.9035 44.7327 42.8623 48.7995 42.8623 53.9029H61.0873C61.0873 48.7995 57.0461 44.7327 51.9748 44.7327Z" stroke="#210049" stroke-width="1.5" stroke-linecap="round" stroke-linejoin="round"/>
</svg>
