<svg width="88" height="88" viewBox="0 0 88 88" fill="none" xmlns="http://www.w3.org/2000/svg">
<path d="M22.0073 81.0919L2.52126 31.8315C1.00778 27.9549 2.89963 23.5111 6.77791 21.9983L56.1551 2.52102C60.0334 1.00823 64.4792 2.89922 65.9927 6.77576L85.4787 56.2253C86.9922 60.1019 85.1004 64.5457 81.2221 66.0585L31.8449 85.4412C27.872 87.0485 23.5208 85.063 22.0073 81.0919Z" fill="#D9F5EC"/>
<path d="M81.5059 46.0139C73.8439 47.6213 65.3306 45.3521 57.8578 48.2831C53.6011 49.985 50.1958 53.2943 46.6013 56.0362C42.1554 59.3454 37.2366 60.6691 31.7503 60.8582C25.8856 61.0473 19.8317 60.5746 14.0615 61.0473L15.8588 65.6803C22.9532 65.2075 30.1422 66.3421 37.1421 65.3966C41.1149 64.8293 44.804 63.4111 48.0202 61.0473C52.1822 58.1163 55.7767 54.3343 60.5064 52.6324C67.79 50.1741 75.9249 52.3488 83.3977 50.7414L81.5059 46.0139Z" fill="#B4EBDA"/>
<path d="M36.102 53.6725C44.3315 51.4978 49.3449 43.272 57.0069 40.2464C63.6283 37.599 71.2903 39.3009 77.7226 36.4644L76.0199 31.926C69.0201 35.2353 60.0338 32.8715 53.034 36.6535C48.9665 38.8282 45.6558 42.232 42.0613 45.0684C37.71 48.3777 32.9804 49.7014 27.5887 49.6068C21.4402 49.5123 15.0079 47.9049 8.85938 47.3376L10.7512 52.2542C19.1699 53.1997 27.8724 55.8471 36.102 53.6725Z" fill="#B4EBDA"/>
<path d="M6.7787 42.2318C12.8326 42.2318 19.0757 42.8937 24.9404 42.0427C28.9133 41.4754 32.6024 40.0572 35.8185 37.6934C39.9806 34.7624 43.5751 30.9804 48.3047 29.2785C56.5343 26.5366 65.8989 29.6567 73.9393 26.442L72.142 21.8091C63.7233 24.9292 53.9803 21.5254 45.6562 24.9292C41.3995 26.6311 37.9942 29.9404 34.3997 32.6823C29.9538 35.9916 25.035 37.3152 19.5487 37.5043C14.6299 37.6934 9.80565 37.3152 4.98145 37.5043L6.7787 42.2318Z" fill="#B4EBDA"/>
<path d="M34.1479 25.1218L42.1864 33.6538L54.1736 22.7949L34.1479 25.1218ZM43.103 34.641L50.1543 42.1154L54.9492 23.9231L43.103 34.641ZM33.0902 25.9679L28.6479 45.7821L41.1287 34.5L33.0902 25.9679ZM42.1159 35.5577L29.7761 46.6282L49.1671 43.0321L42.1159 35.5577ZM44.0902 73C43.8787 73 43.6671 72.9295 43.5261 72.7179C43.3146 72.4359 43.3851 72.0128 43.7377 71.8013C43.8082 71.7308 51.9877 66.2308 52.4107 60.8718C52.5518 59.25 51.9171 57.8397 50.5774 56.5705C46.9812 53.2564 40.5646 56.0769 34.853 58.6154C29.4236 61.0128 24.7697 63.0577 22.9364 59.7436C19.6928 53.891 25.8274 48.3205 26.9556 47.3333L31.7505 25.6859L30.1287 26.391C29.7761 26.5321 29.4236 26.391 29.2825 26.0385C29.1415 25.6859 29.2825 25.3333 29.6351 25.1923L31.1159 24.5577L29.4941 23.7821C29.1415 23.641 29.0005 23.2179 29.212 22.8654C29.353 22.5128 29.7761 22.3718 30.1287 22.5833L31.962 23.4295L31.68 21.4551C31.6095 21.1026 31.8915 20.75 32.2441 20.6795C32.5966 20.609 32.9492 20.891 33.0197 21.2436L33.3723 23.8526L55.5838 21.3141L55.7248 18.6346C55.7248 18.2821 56.0774 18 56.43 18C56.7825 18 57.0646 18.3526 57.0646 18.7051L56.9941 19.9038L57.9107 18.7756C58.1223 18.4936 58.5453 18.4231 58.8274 18.7051C59.1095 18.9167 59.18 19.3397 58.8979 19.6218L57.9812 20.75L59.18 20.4679C59.5325 20.3974 59.8851 20.609 60.0261 20.9615C60.0966 21.3141 59.8851 21.6667 59.5325 21.8077L56.712 22.5128L51.353 42.891L53.3979 42.9615C53.7505 42.9615 54.0325 43.3141 54.0325 43.6667C54.0325 44.0192 53.68 44.3013 53.3274 44.3013L51.9877 44.2308L53.1864 45.641C53.3979 45.9231 53.3979 46.3462 53.1159 46.5577C52.8338 46.7692 52.4107 46.7692 52.1992 46.4872L51.6351 45.8526L51.8466 46.9808C51.9171 47.3333 51.7056 47.6859 51.353 47.7564C51.0005 47.8269 50.6479 47.6154 50.5774 47.2628L49.8723 44.3013L27.8018 48.391C26.8851 49.1667 21.2441 54.1026 23.9941 59.109C25.2633 61.3654 29.6351 59.391 34.2184 57.4167C40.2825 54.7372 47.1223 51.7051 51.353 55.6538C53.0454 57.2051 53.7505 58.9679 53.6095 61.0128C53.1159 66.9359 44.7248 72.6474 44.3723 72.9295C44.3723 72.9295 44.2312 73 44.0902 73Z" fill="#210049"/>
</svg>
