<svg width="340" height="555" viewBox="0 0 340 555" fill="none" xmlns="http://www.w3.org/2000/svg">
<rect width="340" height="555" fill="#210049"/>
<rect opacity="0.497712" x="18" y="58" width="304" height="463" rx="4" fill="white"/>
<rect opacity="0.0798549" x="23" y="211" width="295" height="34" rx="4" fill="#210049"/>
<path d="M138.028 224.664C137.813 224.403 137.547 224.202 137.23 224.062C136.922 223.922 136.563 223.852 136.152 223.852C135.741 223.852 135.359 223.931 135.004 224.09C134.659 224.249 134.355 224.473 134.094 224.762C133.842 225.042 133.641 225.378 133.492 225.77C133.352 226.162 133.282 226.587 133.282 227.044C133.282 227.511 133.352 227.94 133.492 228.332C133.641 228.715 133.842 229.051 134.094 229.34C134.346 229.62 134.64 229.839 134.976 229.998C135.321 230.157 135.69 230.236 136.082 230.236C136.53 230.236 136.927 230.143 137.272 229.956C137.617 229.769 137.902 229.508 138.126 229.172L139.946 230.53C139.526 231.118 138.994 231.552 138.35 231.832C137.706 232.112 137.043 232.252 136.362 232.252C135.587 232.252 134.873 232.131 134.22 231.888C133.567 231.645 133.002 231.3 132.526 230.852C132.05 230.395 131.677 229.844 131.406 229.2C131.145 228.556 131.014 227.837 131.014 227.044C131.014 226.251 131.145 225.532 131.406 224.888C131.677 224.244 132.05 223.698 132.526 223.25C133.002 222.793 133.567 222.443 134.22 222.2C134.873 221.957 135.587 221.836 136.362 221.836C136.642 221.836 136.931 221.864 137.23 221.92C137.538 221.967 137.837 222.046 138.126 222.158C138.425 222.27 138.709 222.419 138.98 222.606C139.251 222.793 139.493 223.021 139.708 223.292L138.028 224.664ZM140.892 221.416H142.992V232H140.892V221.416ZM148.771 231.146H148.743C148.509 231.51 148.197 231.771 147.805 231.93C147.422 232.089 147.016 232.168 146.587 232.168C146.269 232.168 145.961 232.121 145.663 232.028C145.373 231.944 145.117 231.813 144.893 231.636C144.669 231.459 144.491 231.239 144.361 230.978C144.23 230.717 144.165 230.413 144.165 230.068C144.165 229.676 144.235 229.345 144.375 229.074C144.524 228.803 144.72 228.579 144.963 228.402C145.215 228.225 145.499 228.089 145.817 227.996C146.134 227.893 146.461 227.819 146.797 227.772C147.142 227.725 147.483 227.697 147.819 227.688C148.164 227.679 148.481 227.674 148.771 227.674C148.771 227.301 148.635 227.007 148.365 226.792C148.103 226.568 147.791 226.456 147.427 226.456C147.081 226.456 146.764 226.531 146.475 226.68C146.195 226.82 145.943 227.016 145.719 227.268L144.599 226.12C144.991 225.756 145.448 225.485 145.971 225.308C146.493 225.121 147.035 225.028 147.595 225.028C148.211 225.028 148.715 225.107 149.107 225.266C149.508 225.415 149.825 225.639 150.059 225.938C150.301 226.237 150.469 226.605 150.563 227.044C150.656 227.473 150.703 227.973 150.703 228.542V232H148.771V231.146ZM148.253 229.018C148.094 229.018 147.893 229.027 147.651 229.046C147.417 229.055 147.189 229.093 146.965 229.158C146.75 229.223 146.563 229.321 146.405 229.452C146.255 229.583 146.181 229.765 146.181 229.998C146.181 230.25 146.288 230.437 146.503 230.558C146.717 230.679 146.941 230.74 147.175 230.74C147.38 230.74 147.576 230.712 147.763 230.656C147.959 230.6 148.131 230.521 148.281 230.418C148.43 230.315 148.547 230.185 148.631 230.026C148.724 229.867 148.771 229.681 148.771 229.466V229.018H148.253ZM155.87 227.198C155.562 226.815 155.156 226.624 154.652 226.624C154.475 226.624 154.302 226.666 154.134 226.75C153.966 226.834 153.882 226.979 153.882 227.184C153.882 227.352 153.966 227.478 154.134 227.562C154.312 227.637 154.531 227.707 154.792 227.772C155.063 227.828 155.348 227.893 155.646 227.968C155.954 228.033 156.239 228.141 156.5 228.29C156.771 228.439 156.99 228.645 157.158 228.906C157.336 229.158 157.424 229.499 157.424 229.928C157.424 230.367 157.326 230.731 157.13 231.02C156.944 231.3 156.701 231.529 156.402 231.706C156.104 231.874 155.768 231.991 155.394 232.056C155.021 232.131 154.652 232.168 154.288 232.168C153.812 232.168 153.332 232.103 152.846 231.972C152.361 231.832 151.95 231.589 151.614 231.244L152.888 229.83C153.084 230.073 153.299 230.259 153.532 230.39C153.775 230.511 154.055 230.572 154.372 230.572C154.615 230.572 154.834 230.539 155.03 230.474C155.226 230.399 155.324 230.269 155.324 230.082C155.324 229.905 155.236 229.774 155.058 229.69C154.89 229.597 154.671 229.522 154.4 229.466C154.139 229.401 153.854 229.335 153.546 229.27C153.248 229.195 152.963 229.088 152.692 228.948C152.431 228.808 152.212 228.612 152.034 228.36C151.866 228.099 151.782 227.753 151.782 227.324C151.782 226.923 151.862 226.577 152.02 226.288C152.188 225.999 152.403 225.761 152.664 225.574C152.935 225.387 153.243 225.252 153.588 225.168C153.934 225.075 154.284 225.028 154.638 225.028C155.086 225.028 155.539 225.093 155.996 225.224C156.454 225.355 156.841 225.588 157.158 225.924L155.87 227.198ZM158.529 225.196H160.629V232H158.529V225.196ZM158.361 223.054C158.361 222.718 158.477 222.433 158.711 222.2C158.953 221.957 159.243 221.836 159.579 221.836C159.915 221.836 160.199 221.957 160.433 222.2C160.675 222.433 160.797 222.718 160.797 223.054C160.797 223.39 160.675 223.679 160.433 223.922C160.199 224.155 159.915 224.272 159.579 224.272C159.243 224.272 158.953 224.155 158.711 223.922C158.477 223.679 158.361 223.39 158.361 223.054ZM167.346 225.196H169.446V232H167.346V225.196ZM167.178 223.054C167.178 222.718 167.294 222.433 167.528 222.2C167.77 221.957 168.06 221.836 168.396 221.836C168.732 221.836 169.016 221.957 169.25 222.2C169.492 222.433 169.614 222.718 169.614 223.054C169.614 223.39 169.492 223.679 169.25 223.922C169.016 224.155 168.732 224.272 168.396 224.272C168.06 224.272 167.77 224.155 167.528 223.922C167.294 223.679 167.178 223.39 167.178 223.054ZM162.866 226.876H161.48V225.196H162.866V223.992C162.866 223.619 162.898 223.269 162.964 222.942C163.029 222.606 163.155 222.312 163.342 222.06C163.528 221.808 163.794 221.612 164.14 221.472C164.494 221.323 164.956 221.248 165.526 221.248C165.74 221.248 165.95 221.257 166.156 221.276C166.361 221.295 166.562 221.327 166.758 221.374L166.66 223.152C166.538 223.105 166.426 223.073 166.324 223.054C166.221 223.026 166.104 223.012 165.974 223.012C165.638 223.012 165.386 223.087 165.218 223.236C165.05 223.376 164.966 223.67 164.966 224.118V225.196H166.52V226.876H164.966V232H162.866V226.876ZM175.562 227.394C175.459 227.245 175.315 227.123 175.128 227.03C174.941 226.927 174.741 226.876 174.526 226.876C173.994 226.876 173.579 227.035 173.28 227.352C172.991 227.669 172.846 228.085 172.846 228.598C172.846 229.111 172.991 229.527 173.28 229.844C173.579 230.161 173.994 230.32 174.526 230.32C174.759 230.32 174.96 230.269 175.128 230.166C175.296 230.063 175.441 229.942 175.562 229.802L176.948 231.258C176.621 231.594 176.234 231.832 175.786 231.972C175.347 232.103 174.927 232.168 174.526 232.168C174.003 232.168 173.509 232.084 173.042 231.916C172.585 231.748 172.183 231.51 171.838 231.202C171.502 230.885 171.236 230.507 171.04 230.068C170.844 229.629 170.746 229.139 170.746 228.598C170.746 228.057 170.844 227.567 171.04 227.128C171.236 226.689 171.502 226.316 171.838 226.008C172.183 225.691 172.585 225.448 173.042 225.28C173.509 225.112 174.003 225.028 174.526 225.028C174.927 225.028 175.347 225.098 175.786 225.238C176.234 225.369 176.621 225.602 176.948 225.938L175.562 227.394ZM181.98 231.146H181.952C181.718 231.51 181.406 231.771 181.014 231.93C180.631 232.089 180.225 232.168 179.796 232.168C179.478 232.168 179.17 232.121 178.872 232.028C178.582 231.944 178.326 231.813 178.102 231.636C177.878 231.459 177.7 231.239 177.57 230.978C177.439 230.717 177.374 230.413 177.374 230.068C177.374 229.676 177.444 229.345 177.584 229.074C177.733 228.803 177.929 228.579 178.172 228.402C178.424 228.225 178.708 228.089 179.026 227.996C179.343 227.893 179.67 227.819 180.006 227.772C180.351 227.725 180.692 227.697 181.028 227.688C181.373 227.679 181.69 227.674 181.98 227.674C181.98 227.301 181.844 227.007 181.574 226.792C181.312 226.568 181 226.456 180.636 226.456C180.29 226.456 179.973 226.531 179.684 226.68C179.404 226.82 179.152 227.016 178.928 227.268L177.808 226.12C178.2 225.756 178.657 225.485 179.18 225.308C179.702 225.121 180.244 225.028 180.804 225.028C181.42 225.028 181.924 225.107 182.316 225.266C182.717 225.415 183.034 225.639 183.268 225.938C183.51 226.237 183.678 226.605 183.772 227.044C183.865 227.473 183.912 227.973 183.912 228.542V232H181.98V231.146ZM181.462 229.018C181.303 229.018 181.102 229.027 180.86 229.046C180.626 229.055 180.398 229.093 180.174 229.158C179.959 229.223 179.772 229.321 179.614 229.452C179.464 229.583 179.39 229.765 179.39 229.998C179.39 230.25 179.497 230.437 179.712 230.558C179.926 230.679 180.15 230.74 180.384 230.74C180.589 230.74 180.785 230.712 180.972 230.656C181.168 230.6 181.34 230.521 181.49 230.418C181.639 230.315 181.756 230.185 181.84 230.026C181.933 229.867 181.98 229.681 181.98 229.466V229.018H181.462ZM189.835 227.394C189.733 227.245 189.588 227.123 189.401 227.03C189.215 226.927 189.014 226.876 188.799 226.876C188.267 226.876 187.852 227.035 187.553 227.352C187.264 227.669 187.119 228.085 187.119 228.598C187.119 229.111 187.264 229.527 187.553 229.844C187.852 230.161 188.267 230.32 188.799 230.32C189.033 230.32 189.233 230.269 189.401 230.166C189.569 230.063 189.714 229.942 189.835 229.802L191.221 231.258C190.895 231.594 190.507 231.832 190.059 231.972C189.621 232.103 189.201 232.168 188.799 232.168C188.277 232.168 187.782 232.084 187.315 231.916C186.858 231.748 186.457 231.51 186.111 231.202C185.775 230.885 185.509 230.507 185.313 230.068C185.117 229.629 185.019 229.139 185.019 228.598C185.019 228.057 185.117 227.567 185.313 227.128C185.509 226.689 185.775 226.316 186.111 226.008C186.457 225.691 186.858 225.448 187.315 225.28C187.782 225.112 188.277 225.028 188.799 225.028C189.201 225.028 189.621 225.098 190.059 225.238C190.507 225.369 190.895 225.602 191.221 225.938L189.835 227.394ZM192.011 225.196H194.111V232H192.011V225.196ZM191.843 223.054C191.843 222.718 191.96 222.433 192.193 222.2C192.436 221.957 192.725 221.836 193.061 221.836C193.397 221.836 193.682 221.957 193.915 222.2C194.158 222.433 194.279 222.718 194.279 223.054C194.279 223.39 194.158 223.679 193.915 223.922C193.682 224.155 193.397 224.272 193.061 224.272C192.725 224.272 192.436 224.155 192.193 223.922C191.96 223.679 191.843 223.39 191.843 223.054ZM195.368 228.598C195.368 228.057 195.466 227.567 195.662 227.128C195.858 226.689 196.124 226.316 196.46 226.008C196.805 225.691 197.207 225.448 197.664 225.28C198.131 225.112 198.625 225.028 199.148 225.028C199.671 225.028 200.161 225.112 200.618 225.28C201.085 225.448 201.486 225.691 201.822 226.008C202.167 226.316 202.438 226.689 202.634 227.128C202.83 227.567 202.928 228.057 202.928 228.598C202.928 229.139 202.83 229.629 202.634 230.068C202.438 230.507 202.167 230.885 201.822 231.202C201.486 231.51 201.085 231.748 200.618 231.916C200.161 232.084 199.671 232.168 199.148 232.168C198.625 232.168 198.131 232.084 197.664 231.916C197.207 231.748 196.805 231.51 196.46 231.202C196.124 230.885 195.858 230.507 195.662 230.068C195.466 229.629 195.368 229.139 195.368 228.598ZM197.468 228.598C197.468 229.111 197.613 229.527 197.902 229.844C198.201 230.161 198.616 230.32 199.148 230.32C199.68 230.32 200.091 230.161 200.38 229.844C200.679 229.527 200.828 229.111 200.828 228.598C200.828 228.085 200.679 227.669 200.38 227.352C200.091 227.035 199.68 226.876 199.148 226.876C198.616 226.876 198.201 227.035 197.902 227.352C197.613 227.669 197.468 228.085 197.468 228.598ZM199.162 222.088H202.018L199.596 224.104H197.748L199.162 222.088ZM204.165 225.196H206.181V226.12H206.209C206.274 225.989 206.368 225.859 206.489 225.728C206.61 225.597 206.755 225.481 206.923 225.378C207.091 225.275 207.282 225.191 207.497 225.126C207.712 225.061 207.945 225.028 208.197 225.028C208.729 225.028 209.158 225.112 209.485 225.28C209.812 225.439 210.064 225.663 210.241 225.952C210.428 226.241 210.554 226.582 210.619 226.974C210.684 227.366 210.717 227.791 210.717 228.248V232H208.617V228.668C208.617 228.472 208.608 228.271 208.589 228.066C208.58 227.851 208.538 227.655 208.463 227.478C208.398 227.301 208.29 227.156 208.141 227.044C208.001 226.932 207.796 226.876 207.525 226.876C207.254 226.876 207.035 226.927 206.867 227.03C206.699 227.123 206.568 227.254 206.475 227.422C206.391 227.581 206.335 227.763 206.307 227.968C206.279 228.173 206.265 228.388 206.265 228.612V232H204.165V225.196Z" fill="white"/>
<path d="M17.5 102.5H323.5" stroke="#210049" stroke-linecap="square"/>
<rect opacity="0.0724888" x="27" y="425" width="286" height="6" rx="3" fill="#210049"/>
<rect opacity="0.0724888" x="27" y="367" width="286" height="6" rx="3" fill="#210049"/>
<rect opacity="0.0781808" x="27.5" y="163.5" width="285" height="5" rx="2.5" fill="#210049" stroke="#210049"/>
<rect opacity="0.0781808" x="27.5" y="189.5" width="285" height="5" rx="2.5" fill="#210049" stroke="#210049"/>
<rect opacity="0.0963728" x="37" y="120" width="107" height="30" rx="4" fill="#210049"/>
<rect opacity="0.0963728" x="37" y="384" width="107" height="30" rx="4" fill="#210049"/>
<rect opacity="0.0963728" x="193" y="120" width="107" height="30" rx="4" fill="#210049"/>
<rect opacity="0.100391" x="107" y="66" width="65" height="30" rx="4" fill="#210049"/>
<rect opacity="0.100391" x="183" y="66" width="65" height="30" rx="4" fill="#210049"/>
<rect opacity="0.100391" x="259" y="66" width="54" height="30" rx="4" fill="#210049"/>
<rect opacity="0.0963728" x="193" y="384" width="107" height="30" rx="4" fill="#210049"/>
<path d="M97.25 67.5V94.5" stroke="#210049" stroke-linecap="square"/>
<path d="M170.25 120.5V147.5" stroke="#210049" stroke-linecap="square"/>
<path d="M232.25 289.5V316.5" stroke="#210049" stroke-linecap="square"/>
<path d="M44.0946 84H47.4966C50.0306 84 52.8446 82.432 52.8446 79.044C52.8446 75.53 50.0306 74.088 47.4966 74.088H44.0946V84ZM45.4806 75.292H47.2166C49.6106 75.292 51.3606 76.594 51.3606 79.044C51.3606 81.41 49.6106 82.782 47.2166 82.782H45.4806V75.292ZM56.131 74.088H54.745V84H56.131V74.088ZM59.9458 81.564H64.6498L65.6578 84H67.2258L62.9698 74.088H61.7098L57.4118 84H58.9518L59.9458 81.564ZM62.2978 75.698L64.1458 80.346H60.4358L62.2978 75.698ZM70.3049 74.088H68.4989V84H69.8849V75.908H69.9129L75.1489 84H76.8989V74.088H75.5129V82.012H75.4849L70.3049 74.088Z" fill="#210049"/>
<path opacity="0.45865" d="M82 359C115.689 359 143 331.689 143 298C143 264.311 115.689 237 82 237C48.3106 237 21 264.311 21 298C21 331.689 48.3106 359 82 359Z" fill="#50E3C2"/>
<path d="M63.3202 333.628L61.6542 332.06C61.2342 332.648 60.4922 333.068 59.5542 333.068C57.9022 333.068 56.7402 331.836 56.7402 330.03C56.7402 328.28 57.9302 326.992 59.5962 326.992C60.3522 326.992 61.1502 327.286 61.5982 327.902L63.2222 326.278C62.3962 325.326 60.8982 324.822 59.5122 324.822C56.4882 324.822 54.1362 326.852 54.1362 330.03C54.1362 333.138 56.4182 335.266 59.4702 335.266C61.1362 335.266 62.4522 334.636 63.3202 333.628ZM71.4482 331.486C71.4482 329.204 69.6842 327.804 67.5702 327.804C65.4702 327.804 63.7062 329.204 63.7062 331.486C63.7062 333.768 65.4702 335.224 67.5702 335.224C69.6842 335.224 71.4482 333.768 71.4482 331.486ZM69.2362 331.486C69.2362 332.382 68.6622 333.292 67.5842 333.292C66.5062 333.292 65.9322 332.382 65.9322 331.486C65.9322 330.59 66.4922 329.708 67.5702 329.708C68.6482 329.708 69.2362 330.59 69.2362 331.486ZM70.1602 324.976H67.8362L66.3802 326.992H68.1162L70.1602 324.976ZM80.2939 335V324.416H77.9979V328.77H77.9699C77.5779 328.308 76.8639 327.832 75.8419 327.832C73.8119 327.832 72.5519 329.54 72.5519 331.486C72.5519 333.432 73.7699 335.196 75.8699 335.196C76.7939 335.196 77.7039 334.79 78.1519 334.09H78.1799V335H80.2939ZM78.0959 331.5C78.0959 332.41 77.4519 333.292 76.4159 333.292C75.3239 333.292 74.7639 332.396 74.7639 331.486C74.7639 330.59 75.3239 329.708 76.4159 329.708C77.4519 329.708 78.0959 330.618 78.0959 331.5ZM84.6087 325.802C84.6087 325.102 84.0207 324.542 83.2927 324.542C82.5507 324.542 81.9767 325.13 81.9767 325.802C81.9767 326.488 82.5507 327.062 83.2927 327.062C84.0207 327.062 84.6087 326.516 84.6087 325.802ZM84.4407 335V328.028H82.1447V335H84.4407ZM93.6513 334.342V328.028H91.4813V328.924H91.4533C90.9633 328.182 90.0953 327.832 89.2273 327.832C87.1273 327.832 85.9093 329.554 85.9093 331.486C85.9093 333.418 87.1273 335.07 89.2413 335.07C90.1653 335.07 90.9213 334.706 91.3553 334.146H91.3973V334.566C91.3973 335.728 90.7673 336.512 89.4233 336.512C88.6393 336.512 87.7853 336.218 87.1133 335.63L85.9653 337.268C86.9033 337.968 88.3313 338.36 89.5493 338.36C92.0273 338.36 93.6513 337.072 93.6513 334.342ZM91.4673 331.472C91.4673 332.424 90.8233 333.25 89.7733 333.25C88.7373 333.25 88.1353 332.396 88.1353 331.472C88.1353 330.506 88.7373 329.708 89.7733 329.708C90.8093 329.708 91.4673 330.52 91.4673 331.472ZM102.866 331.486C102.866 329.204 101.102 327.804 98.9881 327.804C96.8881 327.804 95.1241 329.204 95.1241 331.486C95.1241 333.768 96.8881 335.224 98.9881 335.224C101.102 335.224 102.866 333.768 102.866 331.486ZM100.654 331.486C100.654 332.382 100.08 333.292 99.0021 333.292C97.9241 333.292 97.3501 332.382 97.3501 331.486C97.3501 330.59 97.9101 329.708 98.9881 329.708C100.066 329.708 100.654 330.59 100.654 331.486Z" fill="#FCF29F"/>
<path d="M35.8262 282L32.2982 273.504H30.3062L26.7422 282H28.9742L29.5982 280.332H32.8862L33.5462 282H35.8262ZM32.3222 278.688H30.1862L31.2662 275.772L32.3222 278.688ZM41.6763 276.636C41.2083 276.156 40.3083 275.832 39.4563 275.832C37.5963 275.832 36.1203 277.068 36.1203 279.012C36.1203 280.992 37.5843 282.192 39.4683 282.192C40.3443 282.192 41.1843 281.904 41.6763 281.424L40.5843 280.092C40.3443 280.38 39.9123 280.536 39.5163 280.536C38.6523 280.536 38.1123 279.84 38.1123 279.012C38.1123 278.184 38.6643 277.476 39.4923 277.476C39.8883 277.476 40.3203 277.668 40.5363 277.956L41.6763 276.636ZM45.9955 277.5V276.024H44.5915V274.452H42.6595V276.024H41.7115V277.5H42.6715V280.02C42.6715 281.292 43.1995 282.144 44.7955 282.144C45.2155 282.144 45.6715 282.06 45.9355 281.964L45.9115 280.524C45.7675 280.584 45.5275 280.62 45.3355 280.62C44.7715 280.62 44.5915 280.332 44.5915 279.78V277.5H45.9955ZM49.0563 274.116C49.0563 273.516 48.5523 273.036 47.9283 273.036C47.2923 273.036 46.8003 273.54 46.8003 274.116C46.8003 274.704 47.2923 275.196 47.9283 275.196C48.5523 275.196 49.0563 274.728 49.0563 274.116ZM48.9123 282V276.024H46.9443V282H48.9123ZM56.5191 276.024H54.4191L53.1591 279.9H53.1231L51.8631 276.024H49.6911L52.0431 282H54.1671L56.5191 276.024ZM59.4157 274.116C59.4157 273.516 58.9117 273.036 58.2877 273.036C57.6517 273.036 57.1597 273.54 57.1597 274.116C57.1597 274.704 57.6517 275.196 58.2877 275.196C58.9117 275.196 59.4157 274.728 59.4157 274.116ZM59.2717 282V276.024H57.3037V282H59.2717ZM67.1665 282V272.928H65.1985V276.66H65.1745C64.8385 276.264 64.2265 275.856 63.3505 275.856C61.6105 275.856 60.5305 277.32 60.5305 278.988C60.5305 280.656 61.5745 282.168 63.3745 282.168C64.1665 282.168 64.9465 281.82 65.3305 281.22H65.3545V282H67.1665ZM65.2825 279C65.2825 279.78 64.7305 280.536 63.8425 280.536C62.9065 280.536 62.4265 279.768 62.4265 278.988C62.4265 278.22 62.9065 277.464 63.8425 277.464C64.7305 277.464 65.2825 278.244 65.2825 279ZM72.2569 279.6C72.2569 280.344 71.8129 280.824 71.0209 280.824C70.6249 280.824 70.1689 280.668 70.1689 280.212C70.1689 279.504 71.1409 279.396 72.0049 279.396H72.2569V279.6ZM69.6409 277.908C70.0009 277.572 70.5529 277.296 71.1169 277.296C71.7289 277.296 72.1969 277.572 72.1969 278.16V278.256C70.4569 278.256 68.3569 278.544 68.3569 280.272C68.3569 281.676 69.5809 282.144 70.5289 282.144C71.2369 282.144 71.9209 281.856 72.2209 281.364H72.2569V282H74.0569V278.988C74.0569 276.816 73.3129 275.832 71.3089 275.832C70.3369 275.832 69.3409 276.18 68.6449 276.84L69.6409 277.908ZM81.8618 282V272.928H79.8938V276.66H79.8698C79.5338 276.264 78.9218 275.856 78.0458 275.856C76.3058 275.856 75.2258 277.32 75.2258 278.988C75.2258 280.656 76.2698 282.168 78.0698 282.168C78.8618 282.168 79.6418 281.82 80.0258 281.22H80.0498V282H81.8618ZM79.9778 279C79.9778 279.78 79.4258 280.536 78.5378 280.536C77.6018 280.536 77.1218 279.768 77.1218 278.988C77.1218 278.22 77.6018 277.464 78.5378 277.464C79.4258 277.464 79.9778 278.244 79.9778 279ZM93.0723 278.988C93.0723 277.32 91.9803 275.856 90.2403 275.856C89.3643 275.856 88.6923 276.276 88.3323 276.756H88.2963V276.024H86.4243V284.88H88.3923V281.34H88.4163C88.7883 281.856 89.4963 282.168 90.2283 282.168C92.0283 282.168 93.0723 280.656 93.0723 278.988ZM91.1643 278.988C91.1643 279.768 90.6963 280.536 89.7603 280.536C88.8723 280.536 88.3203 279.78 88.3203 279C88.3203 278.244 88.8723 277.464 89.7603 277.464C90.6963 277.464 91.1643 278.22 91.1643 278.988ZM98.271 275.904C98.175 275.868 98.007 275.856 97.851 275.856C97.119 275.856 96.531 276.288 96.231 276.888H96.207V276.024H94.311V282H96.279V278.928C96.279 278.436 96.627 277.572 97.683 277.572C97.839 277.572 98.007 277.584 98.187 277.632L98.271 275.904ZM101.205 274.116C101.205 273.516 100.701 273.036 100.077 273.036C99.4408 273.036 98.9488 273.54 98.9488 274.116C98.9488 274.704 99.4408 275.196 100.077 275.196C100.701 275.196 101.205 274.728 101.205 274.116ZM101.061 282V276.024H99.0928V282H101.061ZM108.524 282V278.304C108.524 277.104 107.948 275.856 106.34 275.856C105.512 275.856 104.828 276.324 104.552 276.852H104.528V276.024H102.62V282H104.6V278.76C104.6 278.076 104.96 277.476 105.656 277.476C106.364 277.476 106.544 278.076 106.544 278.736V282H108.524ZM115.27 276.636C114.802 276.156 113.902 275.832 113.05 275.832C111.19 275.832 109.714 277.068 109.714 279.012C109.714 280.992 111.178 282.192 113.062 282.192C113.938 282.192 114.778 281.904 115.27 281.424L114.178 280.092C113.938 280.38 113.506 280.536 113.11 280.536C112.246 280.536 111.706 279.84 111.706 279.012C111.706 278.184 112.258 277.476 113.086 277.476C113.482 277.476 113.914 277.668 114.13 277.956L115.27 276.636ZM118.185 274.116C118.185 273.516 117.681 273.036 117.057 273.036C116.421 273.036 115.929 273.54 115.929 274.116C115.929 274.704 116.421 275.196 117.057 275.196C117.681 275.196 118.185 274.728 118.185 274.116ZM118.041 282V276.024H116.073V282H118.041ZM126.248 278.988C126.248 277.32 125.156 275.856 123.416 275.856C122.54 275.856 121.868 276.276 121.508 276.756H121.472V276.024H119.6V284.88H121.568V281.34H121.592C121.964 281.856 122.672 282.168 123.404 282.168C125.204 282.168 126.248 280.656 126.248 278.988ZM124.34 278.988C124.34 279.768 123.872 280.536 122.936 280.536C122.048 280.536 121.496 279.78 121.496 279C121.496 278.244 122.048 277.464 122.936 277.464C123.872 277.464 124.34 278.22 124.34 278.988ZM131.015 279.6C131.015 280.344 130.571 280.824 129.779 280.824C129.383 280.824 128.927 280.668 128.927 280.212C128.927 279.504 129.899 279.396 130.763 279.396H131.015V279.6ZM128.399 277.908C128.759 277.572 129.311 277.296 129.875 277.296C130.487 277.296 130.955 277.572 130.955 278.16V278.256C129.215 278.256 127.115 278.544 127.115 280.272C127.115 281.676 128.339 282.144 129.287 282.144C129.995 282.144 130.679 281.856 130.979 281.364H131.015V282H132.815V278.988C132.815 276.816 132.071 275.832 130.067 275.832C129.095 275.832 128.099 276.18 127.403 276.84L128.399 277.908ZM136.3 282V272.928H134.308V282H136.3Z" fill="white"/>
<path d="M178.179 271.241C178.179 271.241 180.927 312.067 125.43 327.089" stroke="#E3DFE8" stroke-width="1.05797"/>
<path d="M128.253 327.486L125.43 327.089C125.43 327.089 126.031 325.743 126.789 324.823" stroke="white" stroke-width="1.05797" stroke-linecap="round" stroke-linejoin="round"/>
<rect x="47" y="296" width="16" height="16" rx="4" fill="white"/>
<rect x="65" y="296" width="16" height="16" rx="4" fill="white"/>
<rect x="83" y="296" width="16" height="16" rx="4" fill="white"/>
<rect x="101" y="296" width="16" height="16" rx="4" fill="white"/>
<path d="M55.4194 303.052V301.504H54.4594V303.052L52.9354 302.56L52.6114 303.472L54.1354 303.964L53.1634 305.272L53.9314 305.848L54.9394 304.492L55.9474 305.848L56.7154 305.272L55.7434 303.964L57.2674 303.472L56.9434 302.56L55.4194 303.052Z" fill="#FF2F73"/>
<path d="M73.4194 303.052V301.504H72.4594V303.052L70.9354 302.56L70.6114 303.472L72.1354 303.964L71.1634 305.272L71.9314 305.848L72.9394 304.492L73.9474 305.848L74.7154 305.272L73.7434 303.964L75.2674 303.472L74.9434 302.56L73.4194 303.052Z" fill="#FF2F73"/>
<path d="M91.4194 303.052V301.504H90.4594V303.052L88.9354 302.56L88.6114 303.472L90.1354 303.964L89.1634 305.272L89.9314 305.848L90.9394 304.492L91.9474 305.848L92.7154 305.272L91.7434 303.964L93.2674 303.472L92.9434 302.56L91.4194 303.052Z" fill="#FF2F73"/>
<path d="M109.419 303.052V301.504H108.459V303.052L106.935 302.56L106.611 303.472L108.135 303.964L107.163 305.272L107.931 305.848L108.939 304.492L109.947 305.848L110.715 305.272L109.743 303.964L111.267 303.472L110.943 302.56L109.419 303.052Z" fill="#FF2F73"/>
<path d="M116.157 258L115.497 256.332H112.209L111.585 258H109.353L112.917 249.504H114.909L118.437 258H116.157ZM113.877 251.772L112.797 254.688H114.933L113.877 251.772ZM123.148 253.956C123.036 253.812 122.884 253.696 122.692 253.608C122.5 253.52 122.304 253.476 122.104 253.476C121.896 253.476 121.708 253.52 121.54 253.608C121.372 253.688 121.228 253.8 121.108 253.944C120.988 254.08 120.892 254.24 120.82 254.424C120.756 254.608 120.724 254.804 120.724 255.012C120.724 255.22 120.756 255.416 120.82 255.6C120.884 255.784 120.976 255.948 121.096 256.092C121.224 256.228 121.372 256.336 121.54 256.416C121.716 256.496 121.912 256.536 122.128 256.536C122.328 256.536 122.524 256.5 122.716 256.428C122.916 256.348 123.076 256.236 123.196 256.092L124.288 257.424C124.04 257.664 123.72 257.852 123.328 257.988C122.936 258.124 122.52 258.192 122.08 258.192C121.608 258.192 121.168 258.12 120.76 257.976C120.352 257.832 119.996 257.624 119.692 257.352C119.396 257.072 119.16 256.736 118.984 256.344C118.816 255.952 118.732 255.508 118.732 255.012C118.732 254.524 118.816 254.084 118.984 253.692C119.16 253.3 119.396 252.968 119.692 252.696C119.996 252.416 120.352 252.204 120.76 252.06C121.168 251.908 121.604 251.832 122.068 251.832C122.284 251.832 122.496 251.852 122.704 251.892C122.92 251.932 123.124 251.988 123.316 252.06C123.516 252.124 123.696 252.208 123.856 252.312C124.024 252.408 124.168 252.516 124.288 252.636L123.148 253.956ZM127.203 253.5V255.78C127.203 256.06 127.255 256.272 127.359 256.416C127.471 256.552 127.667 256.62 127.947 256.62C128.043 256.62 128.143 256.612 128.247 256.596C128.359 256.58 128.451 256.556 128.523 256.524L128.547 257.964C128.411 258.012 128.239 258.052 128.031 258.084C127.823 258.124 127.615 258.144 127.407 258.144C127.007 258.144 126.671 258.096 126.399 258C126.127 257.896 125.907 257.752 125.739 257.568C125.579 257.376 125.463 257.152 125.391 256.896C125.319 256.632 125.283 256.34 125.283 256.02V253.5H124.323V252.024H125.271V250.452H127.203V252.024H128.607V253.5H127.203ZM131.668 250.116C131.668 250.268 131.636 250.412 131.572 250.548C131.516 250.676 131.436 250.788 131.332 250.884C131.236 250.98 131.116 251.056 130.972 251.112C130.836 251.168 130.692 251.196 130.54 251.196C130.22 251.196 129.952 251.092 129.736 250.884C129.52 250.668 129.412 250.412 129.412 250.116C129.412 249.972 129.44 249.836 129.496 249.708C129.552 249.572 129.632 249.456 129.736 249.36C129.84 249.264 129.96 249.188 130.096 249.132C130.232 249.068 130.38 249.036 130.54 249.036C130.692 249.036 130.836 249.064 130.972 249.12C131.116 249.176 131.236 249.252 131.332 249.348C131.436 249.444 131.516 249.56 131.572 249.696C131.636 249.824 131.668 249.964 131.668 250.116ZM129.556 258V252.024H131.524V258H129.556ZM136.778 258H134.654L132.302 252.024H134.474L135.734 255.9H135.77L137.03 252.024H139.13L136.778 258ZM142.027 250.116C142.027 250.268 141.995 250.412 141.931 250.548C141.875 250.676 141.795 250.788 141.691 250.884C141.595 250.98 141.475 251.056 141.331 251.112C141.195 251.168 141.051 251.196 140.899 251.196C140.579 251.196 140.311 251.092 140.095 250.884C139.879 250.668 139.771 250.412 139.771 250.116C139.771 249.972 139.799 249.836 139.855 249.708C139.911 249.572 139.991 249.456 140.095 249.36C140.199 249.264 140.319 249.188 140.455 249.132C140.591 249.068 140.739 249.036 140.899 249.036C141.051 249.036 141.195 249.064 141.331 249.12C141.475 249.176 141.595 249.252 141.691 249.348C141.795 249.444 141.875 249.56 141.931 249.696C141.995 249.824 142.027 249.964 142.027 250.116ZM139.915 258V252.024H141.883V258H139.915ZM147.966 258V257.22H147.942C147.75 257.524 147.474 257.76 147.114 257.928C146.762 258.088 146.386 258.168 145.986 258.168C145.538 258.168 145.138 258.08 144.786 257.904C144.434 257.728 144.134 257.496 143.886 257.208C143.646 256.912 143.462 256.572 143.334 256.188C143.206 255.804 143.142 255.404 143.142 254.988C143.142 254.572 143.206 254.176 143.334 253.8C143.47 253.416 143.658 253.08 143.898 252.792C144.146 252.504 144.442 252.276 144.786 252.108C145.138 251.94 145.53 251.856 145.962 251.856C146.402 251.856 146.774 251.94 147.078 252.108C147.382 252.276 147.618 252.46 147.786 252.66H147.81V248.928H149.778V258H147.966ZM147.894 255C147.894 254.808 147.858 254.62 147.786 254.436C147.722 254.252 147.626 254.088 147.498 253.944C147.378 253.8 147.23 253.684 147.054 253.596C146.878 253.508 146.678 253.464 146.454 253.464C146.222 253.464 146.018 253.508 145.842 253.596C145.666 253.684 145.518 253.8 145.398 253.944C145.278 254.08 145.186 254.24 145.122 254.424C145.066 254.608 145.038 254.796 145.038 254.988C145.038 255.18 145.066 255.372 145.122 255.564C145.186 255.748 145.278 255.912 145.398 256.056C145.518 256.2 145.666 256.316 145.842 256.404C146.018 256.492 146.222 256.536 146.454 256.536C146.678 256.536 146.878 256.492 147.054 256.404C147.23 256.316 147.378 256.2 147.498 256.056C147.626 255.912 147.722 255.748 147.786 255.564C147.858 255.38 147.894 255.192 147.894 255ZM154.868 255.396H154.616C154.4 255.396 154.18 255.408 153.956 255.432C153.74 255.448 153.544 255.484 153.368 255.54C153.2 255.596 153.06 255.68 152.948 255.792C152.836 255.896 152.78 256.036 152.78 256.212C152.78 256.324 152.804 256.42 152.852 256.5C152.908 256.58 152.976 256.644 153.056 256.692C153.136 256.74 153.228 256.776 153.332 256.8C153.436 256.816 153.536 256.824 153.632 256.824C154.032 256.824 154.336 256.716 154.544 256.5C154.76 256.276 154.868 255.976 154.868 255.6V255.396ZM151.256 252.84C151.608 252.504 152.016 252.252 152.48 252.084C152.952 251.916 153.432 251.832 153.92 251.832C154.424 251.832 154.848 251.896 155.192 252.024C155.544 252.144 155.828 252.336 156.044 252.6C156.26 252.856 156.416 253.184 156.512 253.584C156.616 253.976 156.668 254.444 156.668 254.988V258H154.868V257.364H154.832C154.68 257.612 154.448 257.804 154.136 257.94C153.832 258.076 153.5 258.144 153.14 258.144C152.9 258.144 152.652 258.112 152.396 258.048C152.14 257.984 151.904 257.88 151.688 257.736C151.48 257.592 151.308 257.4 151.172 257.16C151.036 256.92 150.968 256.624 150.968 256.272C150.968 255.84 151.084 255.492 151.316 255.228C151.556 254.964 151.86 254.76 152.228 254.616C152.604 254.472 153.02 254.376 153.476 254.328C153.932 254.28 154.376 254.256 154.808 254.256V254.16C154.808 253.864 154.704 253.648 154.496 253.512C154.288 253.368 154.032 253.296 153.728 253.296C153.448 253.296 153.176 253.356 152.912 253.476C152.656 253.596 152.436 253.74 152.252 253.908L151.256 252.84ZM162.661 258V257.22H162.637C162.445 257.524 162.169 257.76 161.809 257.928C161.457 258.088 161.081 258.168 160.681 258.168C160.233 258.168 159.833 258.08 159.481 257.904C159.129 257.728 158.829 257.496 158.581 257.208C158.341 256.912 158.157 256.572 158.029 256.188C157.901 255.804 157.837 255.404 157.837 254.988C157.837 254.572 157.901 254.176 158.029 253.8C158.165 253.416 158.353 253.08 158.593 252.792C158.841 252.504 159.137 252.276 159.481 252.108C159.833 251.94 160.225 251.856 160.657 251.856C161.097 251.856 161.469 251.94 161.773 252.108C162.077 252.276 162.313 252.46 162.481 252.66H162.505V248.928H164.473V258H162.661ZM162.589 255C162.589 254.808 162.553 254.62 162.481 254.436C162.417 254.252 162.321 254.088 162.193 253.944C162.073 253.8 161.925 253.684 161.749 253.596C161.573 253.508 161.373 253.464 161.149 253.464C160.917 253.464 160.713 253.508 160.537 253.596C160.361 253.684 160.213 253.8 160.093 253.944C159.973 254.08 159.881 254.24 159.817 254.424C159.761 254.608 159.733 254.796 159.733 254.988C159.733 255.18 159.761 255.372 159.817 255.564C159.881 255.748 159.973 255.912 160.093 256.056C160.213 256.2 160.361 256.316 160.537 256.404C160.713 256.492 160.917 256.536 161.149 256.536C161.373 256.536 161.573 256.492 161.749 256.404C161.925 256.316 162.073 256.2 162.193 256.056C162.321 255.912 162.417 255.748 162.481 255.564C162.553 255.38 162.589 255.192 162.589 255ZM173.152 254.328C173.152 254.016 173.052 253.748 172.852 253.524C172.66 253.3 172.368 253.188 171.976 253.188C171.784 253.188 171.608 253.22 171.448 253.284C171.288 253.34 171.148 253.42 171.028 253.524C170.908 253.628 170.812 253.752 170.74 253.896C170.668 254.032 170.628 254.176 170.62 254.328H173.152ZM174.964 255.084C174.964 255.164 174.964 255.244 174.964 255.324C174.964 255.404 174.96 255.48 174.952 255.552H170.62C170.636 255.72 170.684 255.872 170.764 256.008C170.852 256.144 170.96 256.264 171.088 256.368C171.224 256.464 171.372 256.54 171.532 256.596C171.7 256.652 171.872 256.68 172.048 256.68C172.36 256.68 172.624 256.624 172.84 256.512C173.056 256.392 173.232 256.24 173.368 256.056L174.736 256.92C174.456 257.328 174.084 257.644 173.62 257.868C173.164 258.084 172.632 258.192 172.024 258.192C171.576 258.192 171.152 258.124 170.752 257.988C170.352 257.844 170 257.64 169.696 257.376C169.4 257.104 169.164 256.772 168.988 256.38C168.82 255.988 168.736 255.54 168.736 255.036C168.736 254.548 168.82 254.108 168.988 253.716C169.156 253.316 169.384 252.98 169.672 252.708C169.96 252.428 170.3 252.212 170.692 252.06C171.084 251.908 171.508 251.832 171.964 251.832C172.404 251.832 172.808 251.908 173.176 252.06C173.544 252.204 173.86 252.416 174.124 252.696C174.388 252.976 174.592 253.316 174.736 253.716C174.888 254.116 174.964 254.572 174.964 255.084ZM180.3 253.956C180.188 253.812 180.036 253.696 179.844 253.608C179.652 253.52 179.456 253.476 179.256 253.476C179.048 253.476 178.86 253.52 178.692 253.608C178.524 253.688 178.38 253.8 178.26 253.944C178.14 254.08 178.044 254.24 177.972 254.424C177.908 254.608 177.876 254.804 177.876 255.012C177.876 255.22 177.908 255.416 177.972 255.6C178.036 255.784 178.128 255.948 178.248 256.092C178.376 256.228 178.524 256.336 178.692 256.416C178.868 256.496 179.064 256.536 179.28 256.536C179.48 256.536 179.676 256.5 179.868 256.428C180.068 256.348 180.228 256.236 180.348 256.092L181.44 257.424C181.192 257.664 180.872 257.852 180.48 257.988C180.088 258.124 179.672 258.192 179.232 258.192C178.76 258.192 178.32 258.12 177.912 257.976C177.504 257.832 177.148 257.624 176.844 257.352C176.548 257.072 176.312 256.736 176.136 256.344C175.968 255.952 175.884 255.508 175.884 255.012C175.884 254.524 175.968 254.084 176.136 253.692C176.312 253.3 176.548 252.968 176.844 252.696C177.148 252.416 177.504 252.204 177.912 252.06C178.32 251.908 178.756 251.832 179.22 251.832C179.436 251.832 179.648 251.852 179.856 251.892C180.072 251.932 180.276 251.988 180.468 252.06C180.668 252.124 180.848 252.208 181.008 252.312C181.176 252.408 181.32 252.516 181.44 252.636L180.3 253.956ZM188.555 254.988C188.555 255.476 188.467 255.92 188.291 256.32C188.115 256.712 187.875 257.048 187.571 257.328C187.267 257.6 186.915 257.812 186.515 257.964C186.115 258.116 185.687 258.192 185.231 258.192C184.783 258.192 184.355 258.116 183.947 257.964C183.547 257.812 183.195 257.6 182.891 257.328C182.595 257.048 182.359 256.712 182.183 256.32C182.007 255.92 181.919 255.476 181.919 254.988C181.919 254.5 182.007 254.06 182.183 253.668C182.359 253.276 182.595 252.944 182.891 252.672C183.195 252.4 183.547 252.192 183.947 252.048C184.355 251.904 184.783 251.832 185.231 251.832C185.687 251.832 186.115 251.904 186.515 252.048C186.915 252.192 187.267 252.4 187.571 252.672C187.875 252.944 188.115 253.276 188.291 253.668C188.467 254.06 188.555 254.5 188.555 254.988ZM186.659 254.988C186.659 254.796 186.627 254.608 186.563 254.424C186.499 254.24 186.407 254.08 186.287 253.944C186.167 253.8 186.019 253.684 185.843 253.596C185.667 253.508 185.463 253.464 185.231 253.464C184.999 253.464 184.795 253.508 184.619 253.596C184.443 253.684 184.295 253.8 184.175 253.944C184.063 254.08 183.975 254.24 183.911 254.424C183.855 254.608 183.827 254.796 183.827 254.988C183.827 255.18 183.855 255.368 183.911 255.552C183.975 255.736 184.067 255.904 184.187 256.056C184.307 256.2 184.455 256.316 184.631 256.404C184.807 256.492 185.011 256.536 185.243 256.536C185.475 256.536 185.679 256.492 185.855 256.404C186.031 256.316 186.179 256.2 186.299 256.056C186.419 255.904 186.507 255.736 186.563 255.552C186.627 255.368 186.659 255.18 186.659 254.988ZM193.725 258V254.736C193.725 254.568 193.709 254.408 193.677 254.256C193.653 254.104 193.609 253.972 193.545 253.86C193.481 253.74 193.389 253.648 193.269 253.584C193.157 253.512 193.013 253.476 192.837 253.476C192.661 253.476 192.505 253.512 192.369 253.584C192.241 253.648 192.133 253.74 192.045 253.86C191.957 253.98 191.889 254.12 191.841 254.28C191.801 254.432 191.781 254.592 191.781 254.76V258H189.801V252.024H191.709V252.852H191.733C191.805 252.724 191.897 252.6 192.009 252.48C192.129 252.352 192.265 252.244 192.417 252.156C192.577 252.068 192.749 251.996 192.933 251.94C193.117 251.884 193.313 251.856 193.521 251.856C193.921 251.856 194.261 251.928 194.541 252.072C194.821 252.216 195.045 252.404 195.213 252.636C195.389 252.86 195.513 253.12 195.585 253.416C195.665 253.712 195.705 254.008 195.705 254.304V258H193.725ZM203.532 254.988C203.532 255.476 203.444 255.92 203.268 256.32C203.092 256.712 202.852 257.048 202.548 257.328C202.244 257.6 201.892 257.812 201.492 257.964C201.092 258.116 200.664 258.192 200.208 258.192C199.76 258.192 199.332 258.116 198.924 257.964C198.524 257.812 198.172 257.6 197.868 257.328C197.572 257.048 197.336 256.712 197.16 256.32C196.984 255.92 196.896 255.476 196.896 254.988C196.896 254.5 196.984 254.06 197.16 253.668C197.336 253.276 197.572 252.944 197.868 252.672C198.172 252.4 198.524 252.192 198.924 252.048C199.332 251.904 199.76 251.832 200.208 251.832C200.664 251.832 201.092 251.904 201.492 252.048C201.892 252.192 202.244 252.4 202.548 252.672C202.852 252.944 203.092 253.276 203.268 253.668C203.444 254.06 203.532 254.5 203.532 254.988ZM201.636 254.988C201.636 254.796 201.604 254.608 201.54 254.424C201.476 254.24 201.384 254.08 201.264 253.944C201.144 253.8 200.996 253.684 200.82 253.596C200.644 253.508 200.44 253.464 200.208 253.464C199.976 253.464 199.772 253.508 199.596 253.596C199.42 253.684 199.272 253.8 199.152 253.944C199.04 254.08 198.952 254.24 198.888 254.424C198.832 254.608 198.804 254.796 198.804 254.988C198.804 255.18 198.832 255.368 198.888 255.552C198.952 255.736 199.044 255.904 199.164 256.056C199.284 256.2 199.432 256.316 199.608 256.404C199.784 256.492 199.988 256.536 200.22 256.536C200.452 256.536 200.656 256.492 200.832 256.404C201.008 256.316 201.156 256.2 201.276 256.056C201.396 255.904 201.484 255.736 201.54 255.552C201.604 255.368 201.636 255.18 201.636 254.988ZM200.676 251.136H199.188L200.436 249.408H202.428L200.676 251.136ZM212.41 258V254.736C212.41 254.568 212.398 254.408 212.374 254.256C212.35 254.096 212.306 253.96 212.242 253.848C212.178 253.736 212.09 253.648 211.978 253.584C211.874 253.512 211.734 253.476 211.558 253.476C211.39 253.476 211.242 253.512 211.114 253.584C210.994 253.656 210.89 253.752 210.802 253.872C210.722 253.992 210.662 254.132 210.622 254.292C210.582 254.444 210.562 254.604 210.562 254.772V258H208.594V254.592C208.594 254.248 208.526 253.976 208.39 253.776C208.254 253.576 208.038 253.476 207.742 253.476C207.43 253.476 207.186 253.6 207.01 253.848C206.842 254.096 206.758 254.4 206.758 254.76V258H204.778V252.024H206.686V252.852H206.71C206.782 252.724 206.87 252.6 206.974 252.48C207.086 252.36 207.218 252.256 207.37 252.168C207.522 252.072 207.69 251.996 207.874 251.94C208.066 251.884 208.274 251.856 208.498 251.856C208.93 251.856 209.294 251.944 209.59 252.12C209.894 252.296 210.13 252.548 210.298 252.876C210.498 252.564 210.754 252.316 211.066 252.132C211.378 251.948 211.758 251.856 212.206 251.856C212.614 251.856 212.954 251.932 213.226 252.084C213.506 252.228 213.73 252.42 213.898 252.66C214.066 252.892 214.186 253.156 214.258 253.452C214.338 253.74 214.378 254.024 214.378 254.304V258H212.41ZM218 250.116C218 250.268 217.968 250.412 217.904 250.548C217.848 250.676 217.768 250.788 217.664 250.884C217.568 250.98 217.448 251.056 217.304 251.112C217.168 251.168 217.024 251.196 216.872 251.196C216.552 251.196 216.284 251.092 216.068 250.884C215.852 250.668 215.744 250.412 215.744 250.116C215.744 249.972 215.772 249.836 215.828 249.708C215.884 249.572 215.964 249.456 216.068 249.36C216.172 249.264 216.292 249.188 216.428 249.132C216.564 249.068 216.712 249.036 216.872 249.036C217.024 249.036 217.168 249.064 217.304 249.12C217.448 249.176 217.568 249.252 217.664 249.348C217.768 249.444 217.848 249.56 217.904 249.696C217.968 249.824 218 249.964 218 250.116ZM215.888 258V252.024H217.856V258H215.888ZM223.53 253.956C223.418 253.812 223.266 253.696 223.074 253.608C222.882 253.52 222.686 253.476 222.486 253.476C222.278 253.476 222.09 253.52 221.922 253.608C221.754 253.688 221.61 253.8 221.49 253.944C221.37 254.08 221.274 254.24 221.202 254.424C221.138 254.608 221.106 254.804 221.106 255.012C221.106 255.22 221.138 255.416 221.202 255.6C221.266 255.784 221.358 255.948 221.478 256.092C221.606 256.228 221.754 256.336 221.922 256.416C222.098 256.496 222.294 256.536 222.51 256.536C222.71 256.536 222.906 256.5 223.098 256.428C223.298 256.348 223.458 256.236 223.578 256.092L224.67 257.424C224.422 257.664 224.102 257.852 223.71 257.988C223.318 258.124 222.902 258.192 222.462 258.192C221.99 258.192 221.55 258.12 221.142 257.976C220.734 257.832 220.378 257.624 220.074 257.352C219.778 257.072 219.542 256.736 219.366 256.344C219.198 255.952 219.114 255.508 219.114 255.012C219.114 254.524 219.198 254.084 219.366 253.692C219.542 253.3 219.778 252.968 220.074 252.696C220.378 252.416 220.734 252.204 221.142 252.06C221.55 251.908 221.986 251.832 222.45 251.832C222.666 251.832 222.878 251.852 223.086 251.892C223.302 251.932 223.506 251.988 223.698 252.06C223.898 252.124 224.078 252.208 224.238 252.312C224.406 252.408 224.55 252.516 224.67 252.636L223.53 253.956ZM228.978 255.396H228.726C228.51 255.396 228.29 255.408 228.066 255.432C227.85 255.448 227.654 255.484 227.478 255.54C227.31 255.596 227.17 255.68 227.058 255.792C226.946 255.896 226.89 256.036 226.89 256.212C226.89 256.324 226.914 256.42 226.962 256.5C227.018 256.58 227.086 256.644 227.166 256.692C227.246 256.74 227.338 256.776 227.442 256.8C227.546 256.816 227.646 256.824 227.742 256.824C228.142 256.824 228.446 256.716 228.654 256.5C228.87 256.276 228.978 255.976 228.978 255.6V255.396ZM225.366 252.84C225.718 252.504 226.126 252.252 226.59 252.084C227.062 251.916 227.542 251.832 228.03 251.832C228.534 251.832 228.958 251.896 229.302 252.024C229.654 252.144 229.938 252.336 230.154 252.6C230.37 252.856 230.526 253.184 230.622 253.584C230.726 253.976 230.778 254.444 230.778 254.988V258H228.978V257.364H228.942C228.79 257.612 228.558 257.804 228.246 257.94C227.942 258.076 227.61 258.144 227.25 258.144C227.01 258.144 226.762 258.112 226.506 258.048C226.25 257.984 226.014 257.88 225.798 257.736C225.59 257.592 225.418 257.4 225.282 257.16C225.146 256.92 225.078 256.624 225.078 256.272C225.078 255.84 225.194 255.492 225.426 255.228C225.666 254.964 225.97 254.76 226.338 254.616C226.714 254.472 227.13 254.376 227.586 254.328C228.042 254.28 228.486 254.256 228.918 254.256V254.16C228.918 253.864 228.814 253.648 228.606 253.512C228.398 253.368 228.142 253.296 227.838 253.296C227.558 253.296 227.286 253.356 227.022 253.476C226.766 253.596 226.546 253.74 226.362 253.908L225.366 252.84Z" fill="white"/>
</svg>
