<svg width="80" height="150" viewBox="0 0 80 150" fill="none" xmlns="http://www.w3.org/2000/svg">
<rect width="80" height="80" rx="16" fill="white"/>
<rect x="31.3995" y="11.1406" width="16.7778" height="30.1111" rx="3.5" stroke="#210049"/>
<rect x="39.3007" y="13.6097" width="2.95062" height="3.93827" rx="1.47531" stroke="#210049"/>
<path d="M33.6773 25.085V38.4183" stroke="#FF2F73" stroke-linecap="round"/>
<path d="M43.739 16.2079C43.8765 16.0532 43.9525 15.8534 43.9525 15.6464C43.9525 15.4395 43.8765 15.2397 43.739 15.085" stroke="#FF2F73" stroke-linecap="round" stroke-linejoin="round"/>
<path d="M44.4463 16.6115C44.7025 16.3375 44.845 15.9764 44.845 15.6013C44.845 15.2262 44.7025 14.8651 44.4463 14.5912" stroke="#FF2F73" stroke-linecap="round" stroke-linejoin="round"/>
<path d="M45.3388 16.9151C45.6847 16.5274 45.8759 16.0259 45.8759 15.5062C45.8759 14.9866 45.6847 14.4851 45.3388 14.0974" stroke="#FF2F73" stroke-linecap="round" stroke-linejoin="round"/>
<path d="M25.5158 48.548H28.2398V47.504H21.6038V48.548H24.3278V56H25.5158V48.548ZM31.7034 52.472C29.7834 52.472 27.7434 52.676 27.7434 54.392C27.7434 55.7 28.9074 56.144 29.8074 56.144C30.6594 56.144 31.3074 55.796 31.7154 55.184H31.7514C31.7514 55.448 31.7874 55.748 31.8474 56H32.8674C32.8074 55.724 32.7834 55.256 32.7834 54.872V52.388C32.7834 51.128 32.0394 50.156 30.4074 50.156C29.4834 50.156 28.6314 50.48 28.0794 51.008L28.6794 51.728C29.0634 51.344 29.6634 51.068 30.2994 51.068C31.1394 51.068 31.7034 51.476 31.7034 52.316V52.472ZM31.7034 53.288V53.588C31.7034 54.548 31.1154 55.256 30.0594 55.256C29.4954 55.256 28.8954 55.04 28.8954 54.368C28.8954 53.408 30.3114 53.288 31.4274 53.288H31.7034ZM34.6673 51.536V56H35.7953V53.012C35.7953 52.064 36.3113 51.188 37.3913 51.188C37.5713 51.188 37.7633 51.212 37.9073 51.248L37.9553 50.204C37.8233 50.168 37.6673 50.156 37.5113 50.156C36.7433 50.156 36.0833 50.612 35.7713 51.272H35.7353C35.7353 51.032 35.7113 50.6 35.6873 50.312H34.6193C34.6553 50.684 34.6673 51.236 34.6673 51.536ZM37.671 58.808C37.851 58.844 38.115 58.88 38.319 58.88C39.819 58.88 40.167 57.872 40.167 56.732V50.312H39.039V56.696C39.039 57.38 38.931 57.908 38.247 57.908C38.115 57.908 37.935 57.884 37.791 57.848L37.671 58.808ZM40.359 48.26C40.359 47.84 40.011 47.528 39.603 47.528C39.183 47.528 38.847 47.852 38.847 48.26C38.847 48.656 39.183 48.98 39.603 48.98C40.011 48.98 40.359 48.668 40.359 48.26ZM42.9122 52.652C42.9842 51.764 43.7282 51.044 44.7002 51.044C45.7442 51.044 46.2722 51.752 46.2962 52.652H42.9122ZM47.4362 53.108C47.4362 51.296 46.3802 50.156 44.7002 50.156C43.0322 50.156 41.7602 51.392 41.7602 53.168C41.7602 54.956 43.0322 56.156 44.7602 56.156C45.7682 56.156 46.5962 55.784 47.2082 54.992L46.4162 54.356C46.0922 54.836 45.5282 55.22 44.7602 55.22C43.7642 55.22 42.9482 54.464 42.9122 53.492H47.4242C47.4362 53.36 47.4362 53.228 47.4362 53.108ZM51.7951 50.312H50.2831V48.68H49.1671V50.312H48.0751V51.236H49.1671V54.32C49.1671 55.496 49.7551 56.096 50.8231 56.096C51.1711 56.096 51.5191 56.036 51.7831 55.94L51.7471 55.016C51.5551 55.112 51.2911 55.16 51.0871 55.16C50.5231 55.16 50.2831 54.884 50.2831 54.2V51.236H51.7951V50.312ZM56.5003 52.472C54.5803 52.472 52.5403 52.676 52.5403 54.392C52.5403 55.7 53.7043 56.144 54.6043 56.144C55.4563 56.144 56.1043 55.796 56.5123 55.184H56.5483C56.5483 55.448 56.5843 55.748 56.6443 56H57.6643C57.6043 55.724 57.5803 55.256 57.5803 54.872V52.388C57.5803 51.128 56.8363 50.156 55.2043 50.156C54.2803 50.156 53.4283 50.48 52.8763 51.008L53.4763 51.728C53.8603 51.344 54.4603 51.068 55.0963 51.068C55.9363 51.068 56.5003 51.476 56.5003 52.316V52.472ZM56.5003 53.288V53.588C56.5003 54.548 55.9123 55.256 54.8563 55.256C54.2923 55.256 53.6923 55.04 53.6923 54.368C53.6923 53.408 55.1083 53.288 56.2243 53.288H56.5003ZM25.664 61.504H24.116V70H25.304V63.064H25.328L29.816 70H31.316V61.504H30.128V68.296H30.104L25.664 61.504ZM34.1055 66.652C34.1775 65.764 34.9215 65.044 35.8935 65.044C36.9375 65.044 37.4655 65.752 37.4895 66.652H34.1055ZM38.6295 67.108C38.6295 65.296 37.5735 64.156 35.8935 64.156C34.2255 64.156 32.9535 65.392 32.9535 67.168C32.9535 68.956 34.2255 70.156 35.9535 70.156C36.9615 70.156 37.7895 69.784 38.4015 68.992L37.6095 68.356C37.2855 68.836 36.7215 69.22 35.9535 69.22C34.9575 69.22 34.1415 68.464 34.1055 67.492H38.6175C38.6295 67.36 38.6295 67.228 38.6295 67.108ZM44.7284 69.148V72.88H45.8564V64.312H44.7644V65.2H44.7284C44.3444 64.6 43.6004 64.156 42.6764 64.156C40.9724 64.156 39.8204 65.464 39.8204 67.144C39.8204 68.812 40.9364 70.156 42.6884 70.156C43.4924 70.156 44.2844 69.784 44.7044 69.148H44.7284ZM40.9964 67.144C40.9964 66.076 41.6444 65.092 42.8804 65.092C44.0324 65.092 44.8004 66.064 44.8004 67.156C44.8004 68.248 44.0324 69.208 42.8804 69.208C41.6444 69.208 40.9964 68.212 40.9964 67.144ZM52.8742 70C52.8382 69.628 52.8262 69.076 52.8262 68.776V64.312H51.6982V67.336C51.6982 68.464 51.0742 69.208 50.1742 69.208C49.1302 69.208 48.8782 68.392 48.8782 67.456V64.312H47.7502V67.84C47.7502 69.112 48.4102 70.156 49.8742 70.156C50.7022 70.156 51.4462 69.664 51.7342 69.064H51.7582C51.7582 69.304 51.7822 69.712 51.8062 70H52.8742ZM55.9225 64.312H54.7945V70H55.9225V64.312ZM56.1145 62.26C56.1145 61.84 55.7665 61.528 55.3585 61.528C54.9505 61.528 54.6145 61.852 54.6145 62.26C54.6145 62.656 54.9505 62.98 55.3585 62.98C55.7665 62.98 56.1145 62.668 56.1145 62.26Z" fill="#210049"/>
<path d="M39.5 102.571C45.6146 102.571 50.5714 97.6146 50.5714 91.5C50.5714 85.3854 45.6146 80.4286 39.5 80.4286C33.3854 80.4286 28.4286 85.3854 28.4286 91.5C28.4286 97.6146 33.3854 102.571 39.5 102.571Z" fill="white" fill-opacity="0.457541"/>
<path opacity="0.635268" d="M39.5 107C48.0604 107 55 100.06 55 91.5C55 82.9396 48.0604 76 39.5 76C30.9396 76 24 82.9396 24 91.5C24 100.06 30.9396 107 39.5 107Z" fill="#4376FF"/>
<circle cx="39.5" cy="92.5" r="8.5" fill="white"/>
<path d="M35.7966 126.1V93.9V94C35.7966 91.8 37.5966 90 39.6966 90C41.7966 90 43.5966 91.8 43.5966 94V93.9V120.4" stroke="white" stroke-width="2" stroke-miterlimit="10" stroke-linecap="round" stroke-linejoin="round"/>
<path d="M43.6966 111.1C43.6966 108.9 45.4966 107.1 47.5966 107.1C49.6966 107.1 51.4966 108.9 51.4966 111.1V121.3" stroke="white" stroke-width="2" stroke-miterlimit="10" stroke-linecap="round" stroke-linejoin="round"/>
<path d="M51.4966 113.7C51.4966 111.5 53.2966 109.8 55.4966 109.8C57.6966 109.8 59.4966 111.6 59.4966 113.7V121.3" stroke="white" stroke-width="2" stroke-miterlimit="10" stroke-linecap="round" stroke-linejoin="round"/>
<path d="M59.5966 116.3C59.5966 114.3 61.1966 112.7 63.2966 112.7C65.3966 112.7 66.9966 114.3 66.9966 116.3V115.9V129.5C66.6966 135.3 63.9966 140.4 62.6966 142.6C62.2966 143.4 61.9966 144.2 61.9966 145.1V146.7C61.9966 148 60.9966 149 59.6966 149H40.8966C39.3966 149 38.1966 147.8 38.1966 146.3V145.2C38.1966 144.3 37.7966 143.5 37.1966 142.8C32.2966 137.6 29.3966 130.7 28.3966 126.7C27.9966 125.4 27.7966 122.9 28.2966 121.6L28.5966 121.2C29.2966 119.5 30.3966 118.1 31.8966 117L35.5966 114.4" stroke="white" stroke-width="2" stroke-miterlimit="10" stroke-linecap="round" stroke-linejoin="round"/>
</svg>
