<svg width="145px" height="145px" viewBox="0 0 145 145" version="1.1" xmlns="http://www.w3.org/2000/svg" xmlns:xlink="http://www.w3.org/1999/xlink">
  <g id="Page-1" stroke="none" stroke-width="1" fill="none" fill-rule="evenodd">
    <g id="Rewards:menor-Copy-2" transform="translate(-87.000000, -48.000000)">
      <g id="Page-1" transform="translate(87.000000, 48.000000)">
        <path d="M40.1849764,126.190583 L11.0552858,52.213951 C8.7548124,46.3723969 11.624982,39.7717299 17.467982,37.4712564 L91.4431682,8.34011989 C97.2861683,6.03964646 103.886835,8.91126195 106.187309,14.7528161 L135.316999,88.7294482 C137.617473,94.5710024 134.747303,101.173115 128.904303,103.473589 L54.929117,132.603279 C49.0861169,134.903753 42.4854499,132.032137 40.1849764,126.190583" id="Fill-3" fill="#FFE814"></path>
        <path d="M129.405751,73.557168 C117.899046,76.0036803 105.076546,72.4799507 93.9934982,76.9970337 C87.6964763,79.5621122 82.6198188,84.4985146 77.0992609,88.597724 C70.4161759,93.5587073 63.0751931,95.5714408 54.8333964,95.8389377 C45.9481612,96.1281236 37.0296696,95.3299706 28.3656616,96.0138952 L31.0926841,102.941342 C41.6016979,102.286336 52.5155719,103.980965 62.9161409,102.454064 C68.8675857,101.580723 74.2854826,99.4436393 79.2826141,95.9734091 C85.455286,91.6862289 90.8326969,85.798405 97.9351013,83.4241892 C108.812827,79.7862312 121.05551,83.0308964 132.140004,80.5019662 L129.405751,73.557168 Z" id="Fill-5" fill="#EFD411"></path>
        <path d="M61.2987245,85.0118195 C73.5255022,81.7266683 81.1253063,69.4116889 92.7202129,64.8815925 C102.682665,60.9905969 114.080926,63.3749343 123.787449,59.2887382 L121.118263,52.5131138 C110.512372,57.3685442 97.1490942,53.9055436 86.6386345,59.6285316 C80.6120014,62.9093451 75.6510182,68.0727584 70.1203388,72.2587236 C63.6367921,77.1662074 56.5286039,79.2425618 48.3995897,79.0892933 C39.1094943,78.91289 29.6487792,76.4721614 20.3355489,75.6248468 L23.2433126,83.0077616 C36.0354487,84.4276641 49.0733927,88.2969708 61.2987245,85.0118195" id="Fill-7" fill="#EFD411"></path>
        <path d="M17.3073393,67.9333708 C26.3588564,67.8610744 35.6084658,68.9064812 44.4806876,67.6051449 C50.4335783,66.7318036 55.8514752,64.5932743 60.8486067,61.1230441 C67.0212786,56.8358639 72.3986895,50.94804 79.501094,48.5738241 C91.7741414,44.4702769 105.785196,49.1261691 117.909313,44.3603863 L115.202533,37.4893305 C102.688015,42.1654657 88.021955,37.0685651 75.5594908,42.1466686 C69.262469,44.7117471 64.1858114,49.6481496 58.6652535,53.747359 C51.9821686,58.7083422 44.6411858,60.7210757 36.3993891,60.9900186 C29.084433,61.227151 21.7492339,60.7340891 14.5499522,60.9307355 L17.3073393,67.9333708 Z" id="Fill-9" fill="#EFD411"></path>
        <path d="M67.2743163,57.6045198 L54.7453393,88.6327155 C54.4503698,89.3744772 53.6102849,89.7374055 52.8685232,89.4424359 C52.1253156,89.1474663 51.7638332,88.3059355 52.0588028,87.5641738 L64.5863338,56.5374241 C64.8813034,55.7942164 65.7213883,55.4312882 66.4645959,55.7262577 C67.2063576,56.0226732 67.5692858,56.8627581 67.2743163,57.6045198" id="Fill-11" fill="#210049"></path>
        <path d="M77.6361344,62.9065978 L65.1071575,93.9347935 C64.8121879,94.6765552 63.9721031,95.0394834 63.2303414,94.7445139 C62.4871337,94.4495443 62.1256514,93.6080135 62.420621,92.8662518 L74.948152,61.839502 C75.2431215,61.0962944 76.0832064,60.7333661 76.8264141,61.0283357 C77.5696217,61.3247512 77.931104,62.1648361 77.6361344,62.9065978" id="Fill-13" fill="#210049"></path>
        <path d="M87.6033585,69.1692065 L75.6093754,98.852688 C75.3144058,99.5944497 74.4743209,99.957378 73.7311133,99.6624084 C72.9879057,99.3674389 72.6264234,98.525908 72.9213929,97.7841463 L84.915376,68.1021108 C85.2103456,67.3589031 86.0504305,66.9959749 86.7936381,67.2909445 C87.5353998,67.5873599 87.8983281,68.4274448 87.6033585,69.1692065" id="Fill-15" fill="#210049"></path>
        <path d="M28.0036009,104.968824 L29.9512676,105.411279 C26.9914504,101.128436 26.2525806,97.6842326 18.2522541,94.5060801 C15.7435668,93.508389 11.6920731,91.4392642 12.7476014,88.7816462 L12.8748432,88.459204 C14.0662889,85.4617927 19.540577,83.9392292 23.1857647,84.7952193 C25.1652418,85.2608085 27.510539,86.6055227 32.701425,90.0714151 L39.1950933,94.4077569 C39.5421163,94.6391056 40.0134892,94.4916208 40.1682036,94.1041118 L57.1144944,51.9523824 C58.0933885,49.4899649 61.0893539,48.4185313 63.4534482,49.8789199 C65.2782109,51.0052988 65.8768256,53.3968657 65.0844564,55.3893562 L63.6081627,59.1082863 C63.5908115,59.1516641 63.6038249,59.1979339 63.6486487,59.215285 C64.0231444,59.3642157 65.766935,60.0568158 66.1775789,60.2202058 C66.2296324,60.2404489 66.278794,60.2187599 66.299037,60.1667065 C66.7877611,58.9448962 67.8432894,56.4492224 68.5807133,55.1796965 C70.4401784,51.9711795 72.0494976,51.7123582 73.8713685,52.3876071 C76.1935308,53.247935 77.3358149,55.8824181 76.4219876,58.1843375 L74.8979782,62.0174959 C74.8777352,62.0709953 74.9037619,62.1302784 74.9558154,62.1519673 L77.4601648,63.1453207 C77.5093264,63.1655637 77.5642717,63.1409829 77.5859607,63.0918213 C78.5995571,60.6930247 81.5506987,59.6635231 83.8873203,61.1065605 C85.7120831,62.2329394 86.3092518,64.6245063 85.5183285,66.6184428 L84.0478185,70.3200216 C84.0261296,70.3720751 84.0521563,70.4328041 84.1056557,70.4530471 L86.6085592,71.4478464 C86.6591667,71.4666435 86.7126661,71.4420627 86.734355,71.3929011 C87.7493974,68.9941045 90.699093,67.9660488 93.0357147,69.4076403 C94.8604774,70.5354651 95.4590921,72.9255861 94.6667229,74.9195226 C94.6667229,74.9195226 81.8543438,106.621521 76.6996061,116.018615 L80.1785118,116.808093 C84.7360808,107.983587 97.4183262,77.6653422 97.320003,76.0733741 C98.6806225,72.6465218 97.4964064,68.576231 94.276322,66.7832787 C92.4891534,65.7870334 90.51546,65.6279812 88.7470885,66.1340565 C88.7138322,66.144178 88.6849136,66.1167053 88.6921432,66.0834489 C89.3008794,62.7621495 87.5035894,59.3569861 84.2488027,58.0628794 C82.708888,57.4526973 81.0836635,57.4078735 79.603032,57.8315307 C79.5668838,57.8416522 79.5365192,57.8141796 79.5437489,57.7780313 C80.1495932,54.4581778 78.3537491,51.0544604 75.0989624,49.7617996 C71.7791088,48.4431121 69.4887569,49.631666 68.0066794,51.1065138 C67.9835446,51.1282027 67.9502882,51.1195272 67.9401667,51.0906086 C67.1550271,48.9332821 65.3577371,47.1562351 62.8765225,46.5330396 C59.4887102,45.6813873 55.590485,47.955834 54.302162,51.2019451 L38.7757738,89.7749996 C38.6340727,90.1306982 38.2002939,90.2666156 37.8821895,90.054064 L34.3078524,87.6668348 C28.7135522,83.9305536 25.9460436,82.4730569 23.8480002,81.9799951 C18.8783414,80.8131302 11.9812589,82.8793631 10.1883067,87.3921082 L10.059619,87.7131045 C9.20796663,89.8588635 8.99975282,93.9421677 17.1851583,97.1926167 C25.9012198,100.655617 25.5758857,103.913296 27.572714,106.867329 L28.0036009,104.968824 Z" id="Fill-17" fill="#210049"></path>
        <path d="M80.1614499,116.741435 C80.1614499,116.741435 74.1218034,132.251919 62.0396186,134.643485 C62.0396186,134.643485 34.6435972,141.047506 27.5730032,106.867185 L28.374048,102.919798 L29.9515568,105.411134 C29.9515568,105.411134 34.0695633,134.707106 60.6385132,132.02057 C60.6385132,132.02057 69.4962757,131.696682 76.724476,115.96208 L80.1614499,116.741435 Z" id="Fill-19" fill="#210049"></path>
        <path d="M34.0827212,62.1337486 C33.0778004,65.6791671 32.8131954,68.5912686 33.9019801,72.1482546 C34.5815668,74.36631 38.07204,73.4192264 37.3881155,71.1867116 C36.4800719,68.2240026 36.7302177,66.0507709 37.5688566,63.0952916 C38.2036196,60.8526553 34.7174842,59.8954501 34.0827212,62.1337486" id="Fill-21" fill="#210049"></path>
        <path d="M28.9921827,55.6951703 C26.1885259,61.9502602 25.53352,69.8493717 26.9577603,76.5411322 C27.4407006,78.8155789 30.9268361,77.85259 30.4424498,75.5810352 C29.2336529,69.8999792 29.7281607,62.8423985 32.113944,57.519933 C33.0566898,55.41466 29.9436042,53.5739921 28.9921827,55.6951703" id="Fill-23" fill="#210049"></path>
        <path d="M110.521482,78.8551974 C110.520036,71.6790505 109.81153,65.9112388 104.54401,60.65384 C102.894205,59.0083725 100.337802,61.5633295 101.987607,63.208797 C106.562527,67.7764875 106.905213,72.6724039 106.906659,78.8551974 C106.906659,81.1816975 110.521482,81.1845894 110.521482,78.8551974" id="Fill-25" fill="#210049"></path>
        <path d="M119.881271,85.3354185 C121.402388,74.2957487 119.305791,61.0076589 111.917093,52.2699085 C110.41188,50.4914155 107.867045,53.0593858 109.36069,54.8263114 C115.799413,62.4405748 117.718161,74.7757972 116.395135,84.3738755 C116.081369,86.6497682 119.564612,87.6330001 119.881271,85.3354185" id="Fill-27" fill="#210049"></path>
        <polygon id="Fill-1" fill="#FFFFFF" opacity="0.01" points="0 144.592925 144.592925 144.592925 144.592925 0 0 0"></polygon>
      </g>
    </g>
  </g>
</svg>