<svg width="88" height="89" viewBox="0 0 88 89" fill="none" xmlns="http://www.w3.org/2000/svg">
<path d="M22.0073 81.5919L2.52126 32.3315C1.00778 28.4549 2.89963 24.0111 6.77791 22.4983L56.1551 3.02102C60.0334 1.50823 64.4792 3.39922 65.9927 7.27576L85.4787 56.7253C86.9922 60.6019 85.1004 65.0457 81.2221 66.5585L31.8449 85.9412C27.872 87.5485 23.5208 85.563 22.0073 81.5919Z" fill="#FDE7D3"/>
<path d="M81.5057 46.5139C73.8438 48.1213 65.3304 45.8521 57.8577 48.7831C53.601 50.485 50.1957 53.7943 46.6012 56.5362C42.1553 59.8454 37.2365 61.1691 31.7502 61.3582C25.8854 61.5473 19.8315 61.0746 14.0614 61.5473L15.8587 66.1803C22.9531 65.7075 30.1421 66.8421 37.1419 65.8966C41.1148 65.3293 44.8039 63.9111 48.0201 61.5473C52.1821 58.6163 55.7766 54.8343 60.5062 53.1324C67.7899 50.6741 75.9248 52.8488 83.3976 51.2414L81.5057 46.5139Z" fill="#F3C9A1"/>
<path d="M36.1015 54.1725C44.331 51.9978 49.3444 43.772 57.0064 40.7464C63.6279 38.099 71.2898 39.8009 77.7221 36.9644L76.0194 32.426C69.0196 35.7353 60.0333 33.3715 53.0335 37.1535C48.966 39.3282 45.6553 42.732 42.0608 45.5684C37.7096 48.8777 32.9799 50.2014 27.5882 50.1068C21.4397 50.0123 15.0074 48.4049 8.85889 47.8376L10.7507 52.7542C19.1695 53.6997 27.8719 56.3471 36.1015 54.1725Z" fill="#F3C9A1"/>
<path d="M6.77833 42.7318C12.8322 42.7318 19.0753 43.3937 24.9401 42.5427C28.9129 41.9754 32.602 40.5572 35.8182 38.1934C39.9802 35.2624 43.5748 31.4804 48.3044 29.7785C56.5339 27.0366 65.8985 30.1567 73.9389 26.942L72.1416 22.3091C63.7229 25.4292 53.9799 22.0254 45.6558 25.4292C41.3991 27.1311 37.9938 30.4404 34.3993 33.1823C29.9535 36.4916 25.0347 37.8152 19.5483 38.0043C14.6295 38.1934 9.80529 37.8152 4.98108 38.0043L6.77833 42.7318Z" fill="#F3C9A1"/>
<path d="M71 67.5H15C15 61.969 19.8508 57.5 25.8062 57.5H60.1458C66.1493 57.5 71 61.969 71 67.5Z" stroke="#210049" stroke-width="2" stroke-miterlimit="10" stroke-linecap="round" stroke-linejoin="round"/>
<path d="M64 57.5H24V36.4053C24 27.0901 31.8563 19.5 41.6124 19.5H46.3877C56.0925 19.5 64 27.0901 64 36.4053V57.5Z" stroke="#210049" stroke-width="2" stroke-miterlimit="10" stroke-linecap="round" stroke-linejoin="round"/>
<path d="M70.4276 41.5C72.0845 41.5 73.4276 40.1569 73.4276 38.5C73.4276 36.8431 72.0845 35.5 70.4276 35.5C68.7708 35.5 67.4276 36.8431 67.4276 38.5C67.4276 40.1569 68.7708 41.5 70.4276 41.5Z" stroke="#210049" stroke-width="2" stroke-miterlimit="10" stroke-linecap="round" stroke-linejoin="round"/>
<path d="M18 35.5C16.3431 35.5 15 36.8431 15 38.5C15 40.1569 16.3431 41.5 18 41.5C19.6569 41.5 21 40.1569 21 38.5C21 36.8431 19.6569 35.5 18 35.5Z" stroke="#210049" stroke-width="2" stroke-miterlimit="10" stroke-linecap="round" stroke-linejoin="round"/>
<path d="M65 38.501H67" stroke="#210049" stroke-miterlimit="10" stroke-linecap="round" stroke-linejoin="round"/>
<path d="M23.4276 38.499L21.4276 38.499" stroke="#210049" stroke-miterlimit="10" stroke-linecap="round" stroke-linejoin="round"/>
<path d="M49 48.5C47.9418 50.2778 46.0899 51.5 43.9206 51.5C41.8571 51.5 40.0582 50.1111 39 48.5" stroke="#210049" stroke-miterlimit="10" stroke-linecap="round" stroke-linejoin="round"/>
<path d="M54.5242 41.5H33.4759C31.5931 41.5 30 39.9444 30 38C30 36.1042 31.5449 34.5 33.4759 34.5H54.5242C56.4069 34.5 58 36.0556 58 38C57.9518 39.8958 56.4069 41.5 54.5242 41.5Z" stroke="#210049" stroke-width="2" stroke-miterlimit="10" stroke-linecap="round" stroke-linejoin="round"/>
</svg>
