<svg width="88" height="88" viewBox="0 0 88 88" fill="none" xmlns="http://www.w3.org/2000/svg">
<path d="M22.0073 81.0919L2.52126 31.8315C1.00778 27.9549 2.89963 23.5111 6.77791 21.9983L56.1551 2.52102C60.0334 1.00823 64.4792 2.89922 65.9927 6.77576L85.4787 56.2253C86.9922 60.1019 85.1004 64.5457 81.2221 66.0585L31.8449 85.4412C27.872 87.0485 23.5208 85.063 22.0073 81.0919Z" fill="#FFD5E3"/>
<path d="M81.5049 46.0137C73.8429 47.621 65.3296 45.3518 57.8568 48.2829C53.6001 49.9848 50.1948 53.294 46.6003 56.036C42.1545 59.3452 37.2357 60.6689 31.7493 60.858C25.8846 61.0471 19.8307 60.5743 14.0605 61.0471L15.8578 65.68C22.9522 65.2073 30.1412 66.3419 37.1411 65.3964C41.114 64.8291 44.8031 63.4108 48.0192 61.0471C52.1813 58.116 55.7758 54.3341 60.5054 52.6322C67.789 50.1739 75.9239 52.3485 83.3967 50.7412L81.5049 46.0137Z" fill="#FFACC7"/>
<path d="M36.102 53.6722C44.3315 51.4976 49.3449 43.2718 57.0069 40.2462C63.6283 37.5988 71.2903 39.3007 77.7226 36.4642L76.0199 31.9258C69.0201 35.235 60.0338 32.8713 53.034 36.6533C48.9665 38.8279 45.6558 42.2317 42.0613 45.0682C37.71 48.3774 32.9804 49.7011 27.5887 49.6066C21.4402 49.512 15.0079 47.9047 8.85938 47.3374L10.7512 52.254C19.1699 53.1995 27.8724 55.8469 36.102 53.6722Z" fill="#FFACC7"/>
<path d="M6.77772 42.2318C12.8316 42.2318 19.0747 42.8937 24.9395 42.0427C28.9123 41.4754 32.6014 40.0572 35.8176 37.6934C39.9796 34.7624 43.5741 30.9804 48.3038 29.2785C56.5333 26.5366 65.8979 29.6567 73.9383 26.442L72.141 21.8091C63.7223 24.9292 53.9793 21.5254 45.6552 24.9292C41.3985 26.6311 37.9932 29.9404 34.3987 32.6823C29.9528 35.9916 25.034 37.3152 19.5477 37.5043C14.6289 37.6934 9.80468 37.3152 4.98047 37.5043L6.77772 42.2318Z" fill="#FFACC7"/>
<path d="M39.8339 43.6753L32.0821 41.5982C30.0674 41.0583 27.9965 42.2539 27.4567 44.2686C26.9169 46.2833 28.1125 48.3542 30.1272 48.894L41.3554 51.9026C44.7189 52.8038 42.3344 55.586 40.3795 62.8819C38.4245 70.1777 40.31 74.5928 43.0802 75.3351C45.8504 76.0773 47.1274 72.9984 47.9827 69.8065C48.838 66.6145 49.9376 62.5106 51.4605 60.475V60.475C53.6544 57.5425 57.6539 56.7798 60.7487 54.8215C63.935 52.8053 67.61 49.1265 68.4473 42.6784C69.6189 33.6559 65.9658 27.2183 58.342 25.1755L40.6828 20.4437C38.6681 19.9039 36.5972 21.0995 36.0574 23.1142C35.5176 25.1289 36.7132 27.1997 38.7279 27.7395L44.1997 29.2057L35.9919 27.0065C33.9772 26.4666 31.9064 27.6622 31.3665 29.6769C30.8267 31.6916 32.0223 33.7625 34.037 34.3023L42.2448 36.5016L31.3011 33.5692C29.2864 33.0294 27.2155 34.225 26.6757 36.2397C26.1358 38.2544 27.3314 40.3252 29.3461 40.8651L39.3779 43.5531" stroke="#210049" stroke-width="2" stroke-linecap="round" stroke-linejoin="round"/>
<path d="M25.4004 23.6724V18" stroke="#210049" stroke-linecap="round" stroke-linejoin="round"/>
<path fill-rule="evenodd" clip-rule="evenodd" d="M25.4003 27.1076C25.8464 27.1076 26.2087 26.7462 26.2087 26.2992C26.2087 25.8531 25.8464 25.4907 25.4003 25.4907C24.9541 25.4907 24.5918 25.8531 24.5918 26.2992C24.5918 26.7462 24.9541 27.1076 25.4003 27.1076Z" fill="#210049"/>
<path d="M19.5664 23.688L21.2045 29.1171" stroke="#210049" stroke-linecap="round" stroke-linejoin="round"/>
<path fill-rule="evenodd" clip-rule="evenodd" d="M18.575 20.3989C18.1483 20.5276 17.9058 20.9781 18.0345 21.4066C18.1641 21.8333 18.6146 22.0748 19.0422 21.9461C19.4689 21.8165 19.7114 21.3669 19.5827 20.9384C19.454 20.5117 19.0026 20.2701 18.575 20.3989Z" fill="#210049"/>
</svg>
