<svg width="48" height="48" viewBox="0 0 48 48" fill="none" xmlns="http://www.w3.org/2000/svg">
<path fill-rule="evenodd" clip-rule="evenodd" d="M21.6218 45.0152L2.98481 26.3782C1.67173 25.0651 1.67173 22.9357 2.98481 21.6227L21.6218 2.98481C22.9349 1.67173 25.0643 1.67173 26.3773 2.98481L45.0152 21.6227C46.3283 22.9357 46.3283 25.0651 45.0152 26.3782L26.3773 45.0152C25.0643 46.3283 22.9349 46.3283 21.6218 45.0152Z" fill="#EAEAEA"/>
<rect x="18" y="14.25" width="12" height="19.5" rx="1.25" stroke="#8E8E8E" stroke-width="1.5"/>
<path d="M20.25 31.875L20.25 23.625" stroke="#8E8E8E" stroke-width="1.5" stroke-linecap="round" stroke-linejoin="round"/>
<mask id="path-4-inside-1_4633_2144" fill="white">
<path d="M25.5 18.75L25.5 17.25C25.5 16.8358 25.1642 16.5 24.75 16.5C24.3358 16.5 24 16.8358 24 17.25L24 18.75C24 19.1642 24.3358 19.5 24.75 19.5C25.1642 19.5 25.5 19.1642 25.5 18.75Z"/>
</mask>
<path d="M24 18.75L25.5 18.75L25.5 18.75L24 18.75ZM24 17.25L22.5 17.25L22.5 17.25L24 17.25ZM24.75 19.5L24.75 21L24.75 21L24.75 19.5ZM24 17.25L24 18.75L27 18.75L27 17.25L24 17.25ZM25.5 18.75L25.5 17.25L22.5 17.25L22.5 18.75L25.5 18.75ZM25.5 17.25C25.5 17.6642 25.1642 18 24.75 18L24.75 15C23.5074 15 22.5 16.0074 22.5 17.25L25.5 17.25ZM24.75 18C25.1642 18 25.5 18.3358 25.5 18.75L22.5 18.75C22.5 19.9926 23.5074 21 24.75 21L24.75 18ZM24 18.75C24 18.3358 24.3358 18 24.75 18L24.75 21C25.9926 21 27 19.9926 27 18.75L24 18.75ZM27 17.25C27 16.0074 25.9926 15 24.75 15L24.75 18C24.3358 18 24 17.6642 24 17.25L27 17.25Z" fill="#8E8E8E" mask="url(#path-4-inside-1_4633_2144)"/>
<path d="M28.2939 18C28.2939 18.3915 28.197 18.7733 28.0162 19.1094C27.8904 19.3433 27.5845 19.3743 27.3729 19.2138L26.3735 18.4555C26.1181 18.2617 26.1085 17.8809 26.3539 17.6745L27.3691 16.8205C27.5798 16.6433 27.8999 16.6683 28.0277 16.9122C28.2011 17.243 28.2939 17.6169 28.2939 18Z" fill="#8E8E8E"/>
</svg>
