<svg width="48" height="48" viewBox="0 0 48 48" fill="none" xmlns="http://www.w3.org/2000/svg">
<path fill-rule="evenodd" clip-rule="evenodd" d="M21.6218 45.0152L2.98481 26.3782C1.67173 25.0651 1.67173 22.9357 2.98481 21.6227L21.6218 2.98481C22.9349 1.67173 25.0643 1.67173 26.3773 2.98481L45.0152 21.6227C46.3283 22.9357 46.3283 25.0651 45.0152 26.3782L26.3773 45.0152C25.0643 46.3283 22.9349 46.3283 21.6218 45.0152Z" fill="#EAEAEA"/>
<path d="M20.6797 17.5026C17.0647 18.4535 15 21.2704 15 24.5852C15 27.3936 16.4243 29.3254 18.4919 30.4806V32.4375C18.4919 32.7482 18.7595 33 19.0891 33H21.3985C21.7286 33 21.9958 32.7482 21.9958 32.4375V31.6464C23.4802 31.8825 25.052 31.8661 26.5508 31.6176V32.4375C26.5508 32.7482 26.8181 33 27.1481 33H29.4575C29.7871 33 30.0547 32.7482 30.0547 32.4375V30.5242C31.9754 29.5819 33.4928 27.8532 34.1482 25.9952C34.5157 24.9535 33.6046 24.0361 32.5 24.0361H32.3804C32.3804 21.7187 31.6571 20.3278 29.8932 19.0922C29.8932 19.0922 30.6848 17.9583 29.8932 17.3962C29.1017 16.834 28.1214 18.0746 28.1214 18.0746C28.1214 18.0746 27.1481 17.5026 26.3496 17.5026" stroke="#8E8E8E" stroke-width="1.5" stroke-linejoin="round"/>
<path d="M27.75 23.25C27.75 22.4216 28.2534 21.75 28.8747 21.75C29.496 21.75 30 22.4216 30 23.25" stroke="#8E8E8E" stroke-linecap="round"/>
<path d="M15.4881 20.9353C15.4881 20.9353 14.6713 20.5274 14.5901 19.4998" stroke="#8E8E8E" stroke-linecap="round"/>
<ellipse cx="23.25" cy="17.25" rx="3" ry="3" stroke="#8E8E8E" stroke-width="1.5"/>
<path d="M24.75 17.25C24.75 16.4216 24.0784 15.75 23.25 15.75C22.4216 15.75 21.75 16.4216 21.75 17.25" stroke="#8E8E8E" stroke-linecap="round" stroke-linejoin="round"/>
</svg>
