<svg width="48" height="48" viewBox="0 0 48 48" fill="none" xmlns="http://www.w3.org/2000/svg">
<path fill-rule="evenodd" clip-rule="evenodd" d="M21.6218 45.0152L2.98481 26.3782C1.67173 25.0651 1.67173 22.9357 2.98481 21.6227L21.6218 2.98481C22.9349 1.67173 25.0643 1.67173 26.3773 2.98481L45.0152 21.6227C46.3283 22.9357 46.3283 25.0651 45.0152 26.3782L26.3773 45.0152C25.0643 46.3283 22.9349 46.3283 21.6218 45.0152Z" fill="#FFD5E3"/>
<rect x="17.25" y="13.5" width="13.5" height="21" rx="1.25" stroke="#210049" stroke-width="1.5"/>
<path d="M26.25 18L27.75 16.5" stroke="#210049" stroke-linecap="round"/>
<path d="M26.25 16.5L27.75 18" stroke="#210049" stroke-linecap="round"/>
<path d="M20.25 31.5L21.75 30" stroke="#210049" stroke-linecap="round"/>
<path d="M20.25 30L21.75 31.5" stroke="#210049" stroke-linecap="round"/>
<path d="M20.25 18L21.75 16.5" stroke="#210049" stroke-linecap="round"/>
<path d="M20.25 16.5L21.75 18" stroke="#210049" stroke-linecap="round"/>
<path d="M26.25 31.5L27.75 30" stroke="#210049" stroke-linecap="round"/>
<path d="M26.25 30L27.75 31.5" stroke="#210049" stroke-linecap="round"/>
<path d="M20.25 24.75L21.75 23.25" stroke="#210049" stroke-linecap="round"/>
<path d="M20.25 23.25L21.75 24.75" stroke="#210049" stroke-linecap="round"/>
<path d="M26.25 24.75L27.75 23.25" stroke="#210049" stroke-linecap="round"/>
<path d="M26.25 23.25L27.75 24.75" stroke="#210049" stroke-linecap="round"/>
</svg>
