<svg width="48" height="48" viewBox="0 0 48 48" fill="none" xmlns="http://www.w3.org/2000/svg">
<path fill-rule="evenodd" clip-rule="evenodd" d="M21.6218 45.0152L2.98481 26.3782C1.67173 25.0651 1.67173 22.9357 2.98481 21.6227L21.6218 2.98481C22.9349 1.67173 25.0643 1.67173 26.3773 2.98481L45.0152 21.6227C46.3283 22.9357 46.3283 25.0651 45.0152 26.3782L26.3773 45.0152C25.0643 46.3283 22.9349 46.3283 21.6218 45.0152Z" fill="#E4D2FF"/>
<path d="M17.25 23.75C17.25 23.0596 17.8096 22.5 18.5 22.5H29.5C30.1904 22.5 30.75 23.0596 30.75 23.75V27.75C30.75 31.4779 27.7279 34.5 24 34.5C20.2721 34.5 17.25 31.4779 17.25 27.75V23.75Z" stroke="#210049" stroke-width="1.5"/>
<path d="M17.25 25.125H30.75" stroke="#210049" stroke-linecap="round" stroke-dasharray="2 4"/>
<path d="M28.5 22.5L28.5 14.5C28.5 13.9477 28.0523 13.5 27.5 13.5L20.5 13.5C19.9477 13.5 19.5 13.9477 19.5 14.5L19.5 22.5" stroke="#210049" stroke-width="1.5"/>
<path d="M24.2271 15H23.9044V15.4108C23.2649 15.4531 22.6554 15.8881 22.6554 16.607C22.6554 17.3803 23.2052 17.6582 23.9044 17.8516V19.1928C23.5996 19.1867 23.241 18.9994 23.0259 18.7457L22.5 19.2532C22.8765 19.6217 23.3785 19.7969 23.9044 19.815V20.25H24.2271V19.815C24.8904 19.7969 25.5 19.368 25.5 18.5282C25.5 17.7126 24.8367 17.4287 24.2271 17.2353V16.015C24.502 16.015 24.8008 16.1297 24.9861 16.3352L25.4701 15.8277C25.1474 15.5437 24.6633 15.4048 24.2271 15.3987V15ZM23.9044 17.1507C23.5996 17.0601 23.3725 16.9031 23.3725 16.5708C23.3725 16.2204 23.6235 16.0452 23.9044 16.015V17.1507ZM24.2271 17.9482C24.5438 18.057 24.7829 18.214 24.7829 18.5705C24.7829 18.9269 24.5618 19.1746 24.2271 19.1928V17.9482Z" fill="#210049"/>
</svg>
