<svg width="193" height="210" viewBox="0 0 193 210" fill="none" xmlns="http://www.w3.org/2000/svg">
<circle cx="15.7916" cy="46.1959" r="6.60408" transform="rotate(-120.749 15.7916 46.1959)" fill="white" fill-opacity="0.1"/>
<circle cx="153.697" cy="161.753" r="6.60408" transform="rotate(-120.749 153.697 161.753)" fill="white" fill-opacity="0.1"/>
<circle cx="99.9381" cy="172.877" r="6.60408" transform="rotate(-120.749 99.9381 172.877)" fill="white" fill-opacity="0.1"/>
<circle cx="55.0522" cy="197.052" r="6.60408" transform="rotate(-120.749 55.0522 197.052)" fill="white" fill-opacity="0.1"/>
<circle cx="43.5116" cy="118.624" r="6.60408" transform="rotate(-120.749 43.5116 118.624)" fill="white" fill-opacity="0.1"/>
<path d="M181.361 204.574C176.232 191.814 154.115 180.389 138.517 186.92" stroke="white" stroke-opacity="0.1" stroke-width="10" stroke-linecap="round" stroke-linejoin="round"/>
<path d="M96.9707 118.799C96.7449 132.55 112.694 151.664 129.604 151.699" stroke="white" stroke-opacity="0.1" stroke-width="10" stroke-linecap="round" stroke-linejoin="round"/>
<path d="M27 81.3537C39.6752 86.6906 63.3577 79.0188 69.6953 63.3416" stroke="white" stroke-opacity="0.1" stroke-width="10" stroke-linecap="round" stroke-linejoin="round"/>
<path d="M17.1656 162.188C27.5503 171.205 52.4443 171.285 63.3462 158.358" stroke="white" stroke-opacity="0.1" stroke-width="10" stroke-linecap="round" stroke-linejoin="round"/>
</svg>
