<svg width="241" height="248" viewBox="0 0 241 248" fill="none" xmlns="http://www.w3.org/2000/svg">
<g clip-path="url(#clip0)">
<path d="M164.1 75.8L228.8 236.9H18.9H0L98.4 49.3L164.1 75.8Z" fill="#D9F5EC"/>
<path d="M162.384 226.281L167.852 229.205L229.665 113.587L224.197 110.664L162.384 226.281Z" stroke="#210049" stroke-width="1.8384" stroke-miterlimit="10" stroke-linecap="round" stroke-linejoin="round"/>
<path d="M238 127.6C239.3 126.5 239.5 124.6 238.5 123.2L158.1 23.6L153.3 27.5L233.7 127.1C234.7 128.5 236.7 128.7 238 127.6Z" stroke="#210049" stroke-width="1.8384" stroke-miterlimit="10" stroke-linecap="round" stroke-linejoin="round"/>
<path d="M153.4 38.8C161.077 38.8 167.3 32.5768 167.3 24.9C167.3 17.2232 161.077 11 153.4 11C145.723 11 139.5 17.2232 139.5 24.9C139.5 32.5768 145.723 38.8 153.4 38.8Z" fill="#4376FF"/>
<path d="M226 121.8C230.197 121.8 233.6 118.397 233.6 114.2C233.6 110.003 230.197 106.6 226 106.6C221.803 106.6 218.4 110.003 218.4 114.2C218.4 118.397 221.803 121.8 226 121.8Z" fill="#4376FF"/>
<path d="M195.4 222.1H141.5C133.6 222.1 127.2 228.5 127.2 236.4H209.8C209.8 228.5 203.3 222.1 195.4 222.1Z" fill="#4376FF"/>
<path d="M165.6 80.5L168.7 73.9C177.3 55.6 169.4 33.8 151.1 25.2C132.8 16.6 111 24.5 102.4 42.8L99.1001 50" fill="#B4C8FF"/>
<path d="M168.7 73.9L165.6 80.5L99.1001 50L102.4 42.8" fill="#4376FF"/>
<path d="M155.463 60.337C156.091 58.9848 154.652 56.9826 152.248 55.8649C149.845 54.7473 147.386 54.9374 146.757 56.2896C146.129 57.6418 147.568 59.644 149.972 60.7617C152.376 61.8793 154.834 61.6892 155.463 60.337Z" fill="#FFEAF1"/>
<path d="M115.944 42.0289C116.573 40.6767 115.134 38.6745 112.73 37.5569C110.326 36.4392 107.868 36.6294 107.239 37.9815C106.61 39.3337 108.05 41.3359 110.453 42.4536C112.857 43.5712 115.316 43.3811 115.944 42.0289Z" fill="#FFEAF1"/>
<path d="M104.2 186.4C106.188 186.4 107.8 184.788 107.8 182.8C107.8 180.812 106.188 179.2 104.2 179.2C102.212 179.2 100.6 180.812 100.6 182.8C100.6 184.788 102.212 186.4 104.2 186.4Z" stroke="#210049" stroke-width="1.6838" stroke-miterlimit="10" stroke-linecap="round" stroke-linejoin="round"/>
<path d="M75.6001 185.9V187.8" stroke="#210049" stroke-width="1.6838" stroke-miterlimit="10" stroke-linecap="round" stroke-linejoin="round"/>
<path d="M75.6001 191.6V193.5" stroke="#210049" stroke-width="1.6838" stroke-miterlimit="10" stroke-linecap="round" stroke-linejoin="round"/>
<path d="M71.8 189.7H73.7" stroke="#210049" stroke-width="1.6838" stroke-miterlimit="10" stroke-linecap="round" stroke-linejoin="round"/>
<path d="M77.5 189.7H79.4" stroke="#210049" stroke-width="1.6838" stroke-miterlimit="10" stroke-linecap="round" stroke-linejoin="round"/>
<path d="M84.2001 172.2C85.9122 172.2 87.3001 170.812 87.3001 169.1C87.3001 167.388 85.9122 166 84.2001 166C82.488 166 81.1001 167.388 81.1001 169.1C81.1001 170.812 82.488 172.2 84.2001 172.2Z" fill="#210049"/>
<path d="M129.6 90.3C131.588 90.3 133.2 88.6882 133.2 86.7C133.2 84.7118 131.588 83.1 129.6 83.1C127.612 83.1 126 84.7118 126 86.7C126 88.6882 127.612 90.3 129.6 90.3Z" stroke="#210049" stroke-width="1.6838" stroke-miterlimit="10" stroke-linecap="round" stroke-linejoin="round"/>
<path d="M139 138.5L140.5 137.3" stroke="#210049" stroke-width="1.6838" stroke-miterlimit="10" stroke-linecap="round" stroke-linejoin="round"/>
<path d="M143.5 135L145 133.8" stroke="#210049" stroke-width="1.6838" stroke-miterlimit="10" stroke-linecap="round" stroke-linejoin="round"/>
<path d="M144.3 139.2L143.2 137.7" stroke="#210049" stroke-width="1.6838" stroke-miterlimit="10" stroke-linecap="round" stroke-linejoin="round"/>
<path d="M140.8 134.6L139.7 133.1" stroke="#210049" stroke-width="1.6838" stroke-miterlimit="10" stroke-linecap="round" stroke-linejoin="round"/>
<path d="M95.7001 120.4C97.4122 120.4 98.8001 119.012 98.8001 117.3C98.8001 115.588 97.4122 114.2 95.7001 114.2C93.988 114.2 92.6001 115.588 92.6001 117.3C92.6001 119.012 93.988 120.4 95.7001 120.4Z" fill="#210049"/>
</g>
<rect x="0.5" y="0.5" width="239" height="247" stroke="#2FCAD7" stroke-opacity="0.01" stroke-dasharray="5 5"/>
<defs>
<clipPath id="clip0">
<rect width="240.1" height="225.9" fill="white" transform="translate(0 11)"/>
</clipPath>
</defs>
</svg>
