<svg width="240" height="248" viewBox="0 0 240 248" fill="none" xmlns="http://www.w3.org/2000/svg">
<path opacity="0.3" d="M5.52051 207.5L232.521 207.5" stroke="#210049" stroke-width="1.8384" stroke-miterlimit="10" stroke-linecap="round" stroke-linejoin="round"/>
<path d="M87.7207 168.1L77.5208 231.3H80.7207L105.021 168.1H87.7207Z" fill="#6991FF"/>
<path d="M85.8208 178.1L101.521 175.7L104.821 168.5C99.2208 168.8 92.2208 169.3 87.5208 169.6L85.8208 178.1Z" fill="#4376FF"/>
<path d="M196.021 168.1L206.221 231.3H203.021L178.721 168.1H196.021Z" fill="#6991FF"/>
<path d="M197.921 178.1L182.221 175.7L178.921 168.5C184.521 168.8 191.521 169.3 196.221 169.6L197.921 178.1Z" fill="#4376FF"/>
<path d="M238.221 163.7H49.7207V165.4H238.221V163.7Z" fill="#6991FF"/>
<path d="M238.221 165.4C238.221 168.7 196.021 171.4 144.021 171.4C91.9208 171.4 49.8208 168.7 49.8208 165.4C49.8208 162.1 92.0208 159.4 144.021 159.4C196.021 159.4 238.221 162.1 238.221 165.4Z" fill="#6991FF"/>
<path d="M238.221 163.7C238.221 167 196.021 169.7 144.021 169.7C91.9208 169.7 49.8208 167 49.8208 163.7C49.8208 160.4 92.0208 157.7 144.021 157.7C196.021 157.6 238.221 160.3 238.221 163.7Z" fill="#B4C8FF"/>
<path d="M167.421 163.5L118.021 165.5C116.321 165.6 114.721 165.1 114.521 164.4L111.421 153.6C111.221 153 112.521 152.4 114.221 152.3L163.621 150.3C165.321 150.2 166.921 150.7 167.121 151.4L170.221 162.2C170.421 162.8 169.221 163.4 167.421 163.5Z" fill="white" stroke="#210049" stroke-miterlimit="10" stroke-linecap="round" stroke-linejoin="round"/>
<path d="M119.321 163.3L143.421 162.3" stroke="#4376FF" stroke-width="0.1576" stroke-miterlimit="10" stroke-linecap="round" stroke-linejoin="round"/>
<path d="M139.621 153.3L117.821 154.2C117.521 154.2 117.121 154.1 117.121 154C117.121 153.9 117.321 153.8 117.721 153.7L139.521 152.8C139.821 152.8 140.221 152.9 140.221 153C140.221 153.1 140.021 153.2 139.621 153.3Z" fill="#4376FF"/>
<path d="M136.521 154.1L121.421 154.7C121.221 154.7 121.021 154.6 121.021 154.6V154.5C121.021 154.4 121.121 154.3 121.421 154.3L136.521 153.7C136.721 153.7 136.921 153.8 136.921 153.8V153.9C136.921 154 136.721 154.1 136.521 154.1Z" fill="#4376FF"/>
<path d="M123.321 161.3C124.121 161.9 124.521 162.5 124.521 163.2C124.521 163.5 124.321 163.8 123.621 164C123.421 164.1 123.121 164.1 122.921 164.1C122.721 164.1 122.421 164 122.321 163.9C121.921 163.7 121.921 163.4 122.321 163.2C122.721 163 123.421 162.9 124.121 162.9C125.221 163 125.621 162.3 125.521 162C125.621 162.1 125.521 162.3 125.521 162.4C125.521 162.5 125.821 162.7 126.221 162.7C126.621 162.7 126.921 162.6 126.921 162.4C126.921 162.3 126.821 162.1 126.921 162C126.921 162.2 126.921 162.3 127.021 162.5C127.021 162.6 127.121 162.6 127.221 162.6C127.321 162.6 127.421 162.7 127.621 162.6C127.721 162.6 127.721 162.5 127.821 162.5C128.021 162.3 128.121 162.1 127.921 161.9C127.821 162 127.821 162.2 127.921 162.3C127.921 162.4 128.021 162.4 128.221 162.5C128.421 162.6 128.821 162.5 129.021 162.5C129.221 162.4 129.221 162.3 129.221 162.2" stroke="#4376FF" stroke-width="0.1576" stroke-miterlimit="10" stroke-linecap="round" stroke-linejoin="round"/>
<path d="M131.321 161.4C131.321 161.2 130.621 161 130.121 161.1C129.621 161.2 129.221 161.4 129.121 161.6C128.921 161.9 129.021 162.2 129.521 162.5C129.821 162.7 130.321 162.8 130.721 162.7C130.921 162.7 131.021 162.6 131.221 162.6C131.521 162.5 132.021 161.6 131.321 161.8C131.021 161.9 131.221 162.3 131.421 162.4C131.521 162.5 131.821 162.6 132.021 162.5C132.121 162.5 132.121 162.4 132.221 162.4C132.421 162.2 132.421 162 132.321 161.8C132.321 161.9 132.421 162.2 132.721 162.3C133.721 162.7 133.821 161.9 133.721 161.7C133.821 161.9 133.721 162.3 134.521 162.3C135.421 162.3 135.121 161.8 135.021 161.6C135.121 161.8 135.521 162.3 136.321 162.1C136.821 162 136.821 161.7 136.821 161.5C136.821 161.7 137.221 162.1 138.021 162.1C138.421 162.1 138.721 161.9 138.721 161.8" stroke="#4376FF" stroke-width="0.1576" stroke-miterlimit="10" stroke-linecap="round" stroke-linejoin="round"/>
<path d="M123.021 156.2L117.021 156.4C116.821 156.4 116.721 156.4 116.721 156.3C116.721 156.2 116.821 156.2 117.021 156.2L123.021 156C123.221 156 123.321 156 123.321 156.1C123.321 156.2 123.221 156.2 123.021 156.2Z" fill="#4376FF"/>
<path d="M123.621 157.9L117.621 158.1C117.421 158.1 117.321 158.1 117.321 158C117.321 157.9 117.421 157.9 117.621 157.9L123.621 157.7C123.821 157.7 123.921 157.7 123.921 157.8C123.921 157.8 123.821 157.9 123.621 157.9Z" fill="#4376FF"/>
<path d="M138.421 156.6L119.921 157.3C119.621 157.3 119.321 157.2 119.321 157.1C119.321 157 119.521 156.9 119.821 156.9L138.321 156.2C138.621 156.2 138.921 156.3 138.921 156.4C139.021 156.4 138.721 156.5 138.421 156.6Z" fill="#4376FF"/>
<path d="M138.721 158.2L120.221 158.9C119.921 158.9 119.621 158.8 119.621 158.7C119.621 158.6 119.821 158.5 120.121 158.5L138.621 157.8C138.921 157.8 139.221 157.9 139.221 158C139.221 158.1 139.021 158.2 138.721 158.2Z" fill="#4376FF"/>
<path d="M123.821 159.5L117.821 159.7C117.621 159.7 117.521 159.7 117.521 159.6C117.521 159.5 117.621 159.5 117.821 159.5L123.821 159.3C124.021 159.3 124.121 159.3 124.121 159.4C124.121 159.5 124.021 159.5 123.821 159.5Z" fill="#4376FF"/>
<path d="M132.521 163.4L129.621 163.5C129.421 163.5 129.321 163.5 129.321 163.4C129.321 163.3 129.421 163.3 129.621 163.3L132.521 163.2C132.721 163.2 132.821 163.2 132.821 163.3C132.821 163.3 132.721 163.4 132.521 163.4Z" fill="#4376FF"/>
<path d="M138.921 159.9L120.421 160.6C120.121 160.6 119.821 160.5 119.821 160.4C119.821 160.3 120.021 160.2 120.321 160.2L138.821 159.5C139.121 159.5 139.421 159.6 139.421 159.7C139.521 159.7 139.221 159.9 138.921 159.9Z" fill="#4376FF"/>
<path d="M162.821 153.5L146.421 154.2C145.821 154.2 145.421 154.4 145.521 154.6L147.521 161.7C147.621 161.9 148.121 162.1 148.721 162.1L165.121 161.4C165.721 161.4 166.121 161.2 166.021 161L164.021 153.9C164.021 153.6 163.421 153.5 162.821 153.5Z" fill="#ECF1FF"/>
<path d="M166.121 160.7C166.421 160.9 166.521 161.1 166.021 161.3C165.521 161.5 163.221 161.5 162.421 161.5C161.121 161.6 159.821 161.6 158.421 161.7C155.821 161.8 153.221 161.9 150.621 162C149.921 162 148.921 162.1 148.121 162.1C146.721 162 147.621 161.5 148.121 161.3C149.021 160.9 150.021 160.6 151.321 160.4C153.921 160 156.621 159.9 159.421 159.9C161.721 159.9 164.821 159.9 166.121 160.7Z" fill="#B4C8FF"/>
<path d="M158.621 160.7C158.821 160.7 159.021 160.6 159.121 160.5C159.121 160.4 159.121 160.4 159.021 160.3C158.921 160.2 158.721 160.1 158.621 160C158.521 160 158.521 159.9 158.421 159.9C158.321 159.9 158.121 159.9 158.021 159.9C157.721 159.9 157.321 159.9 157.021 159.9C156.221 159.9 155.321 159.9 154.521 160C154.021 160.1 153.221 160.2 153.121 160.4C152.921 160.7 153.621 160.7 154.321 160.8C155.621 160.9 157.221 160.9 158.621 160.7Z" fill="white"/>
<path d="M152.921 158.2C152.921 158.2 150.721 157.7 150.121 156.7C149.621 155.7 151.421 155.2 151.421 155.2C151.421 155.2 150.121 154.2 153.721 154.1C157.321 154 159.521 153.4 161.321 153.4C163.121 153.4 161.821 155 159.621 155C157.521 155.1 151.821 156.5 152.921 158.2Z" fill="#210049"/>
<path d="M152.821 160.5L152.321 158.5L158.021 159.6L158.821 159.7L158.921 160.3" fill="white"/>
<path d="M152.821 160.5L152.321 158.5L158.021 159.6L158.821 159.7L158.921 160.3" stroke="#210049" stroke-width="0.1568" stroke-miterlimit="10" stroke-linecap="round" stroke-linejoin="round"/>
<path d="M158.021 154.9C158.021 154.9 161.821 154.9 160.821 156.4C160.821 156.5 158.021 155.3 158.021 154.9Z" fill="#210049"/>
<path d="M152.321 158.6L151.821 157.3L151.521 156.6C151.521 156.6 150.821 155.3 153.921 155C156.221 154.8 158.421 154.8 159.721 155.2C160.121 155.4 160.521 155.6 160.621 155.8L161.021 157.1L161.121 157.4L161.421 158.3C161.421 158.3 161.721 159.5 158.321 159.6" fill="white"/>
<path d="M152.321 158.6L151.821 157.3L151.521 156.6C151.521 156.6 150.821 155.3 153.921 155C156.221 154.8 158.421 154.8 159.721 155.2C160.121 155.4 160.521 155.6 160.621 155.8L161.021 157.1L161.121 157.4L161.421 158.3C161.421 158.3 161.721 159.5 158.321 159.6" stroke="#210049" stroke-width="0.1568" stroke-miterlimit="10" stroke-linecap="round" stroke-linejoin="round"/>
<path d="M153.521 157.3C153.521 157.3 154.521 157.9 155.521 157.8C156.521 157.7 157.721 157.6 158.621 157.7C158.621 157.7 160.121 157.4 161.121 157.6C161.821 157.7 161.821 159.4 159.621 159.7C157.421 160 154.421 159.8 153.521 159.1C152.621 158.3 152.521 157.7 152.521 157.7L153.521 157.3Z" fill="#210049"/>
<path d="M156.721 157.9C156.721 157.9 158.621 158.1 160.021 157.9C160.021 157.9 159.921 158.6 158.221 158.5C157.121 158.4 156.721 157.9 156.721 157.9Z" fill="white"/>
<path d="M156.721 157.4C156.721 157.5 156.321 157.6 155.721 157.6C155.121 157.6 154.621 157.6 154.621 157.5C154.621 157.4 155.021 157.3 155.621 157.3C156.221 157.3 156.621 157.4 156.721 157.4Z" fill="#FFD5E3"/>
<g opacity="0.8">
<g opacity="0.8">
<g opacity="0.8">
<g opacity="0.8">
<path opacity="0.8" d="M161.121 157.5C161.021 157.5 160.921 157.5 160.821 157.5C160.221 157.5 159.721 157.5 159.721 157.4C159.721 157.3 160.121 157.2 160.721 157.2C160.821 157.2 160.921 157.2 160.921 157.2L161.121 157.5Z" fill="#FFD5E3"/>
</g>
</g>
</g>
</g>
<path d="M156.521 157C156.521 157.1 156.421 157.2 156.221 157.2C156.021 157.2 155.921 157.1 155.821 157C155.821 156.9 155.921 156.8 156.121 156.8C156.321 156.7 156.521 156.8 156.521 157Z" fill="#210049"/>
<path d="M159.721 156.8C159.721 156.9 159.621 157 159.421 157C159.221 157 159.121 156.9 159.021 156.8C159.021 156.7 159.121 156.6 159.321 156.6C159.521 156.6 159.721 156.7 159.721 156.8Z" fill="#210049"/>
<path d="M158.221 157.5C158.121 157.5 158.121 157.5 158.121 157.5C158.121 157.5 158.121 157.4 158.221 157.5C158.721 157.4 158.921 157.3 158.921 157.2C158.321 156.8 157.721 156.4 157.621 156.4V156.3C157.721 156.3 157.721 156.3 157.821 156.3C157.821 156.3 158.521 156.7 159.121 157.1C159.221 157.3 159.021 157.5 158.221 157.5Z" fill="#210049"/>
<path d="M154.82 156.5C154.82 156.4 155.12 156.1 156.22 156.1C156.32 156.1 156.52 156.1 156.52 156.2C156.62 156.3 156.52 156.3 156.32 156.3C156.02 156.3 155.62 156.4 155.42 156.6C155.32 156.7 155.22 156.7 155.02 156.7C154.82 156.6 154.72 156.5 154.82 156.5Z" fill="#210049"/>
<path d="M160.321 156.3C160.221 156.2 159.921 155.9 158.821 156C158.721 156 158.621 156 158.521 156.1C158.521 156.2 158.621 156.2 158.821 156.2C159.121 156.2 159.521 156.3 159.821 156.4C159.921 156.5 160.121 156.5 160.221 156.4C160.321 156.4 160.421 156.3 160.321 156.3Z" fill="#210049"/>
<path d="M152.521 157.5C152.521 157.5 151.121 156.9 150.221 157.4C149.521 157.8 151.321 158.9 152.721 158.5" fill="white"/>
<path d="M152.521 157.5C152.521 157.5 151.121 156.9 150.221 157.4C149.521 157.8 151.321 158.9 152.721 158.5" stroke="#210049" stroke-width="0.1568" stroke-miterlimit="10" stroke-linecap="round" stroke-linejoin="round"/>
<path d="M159.721 155.3L159.621 155.4C159.021 155.7 157.521 155.6 156.021 155.5C154.521 155.4 153.621 155.8 153.621 155.8C154.121 156.3 152.821 156.4 153.221 156.8C153.621 157.2 153.621 157.7 153.621 157.7H152.821C152.621 157.5 152.221 157.4 151.921 157.4L151.621 156.7C151.621 156.7 150.921 155.4 154.021 155.1C156.221 154.8 158.521 154.9 159.721 155.3Z" fill="#210049"/>
<path d="M36.0205 147.5C36.0205 147.5 57.9205 136.9 47.3205 112.6C36.8205 88.2 53.1205 83.5 36.1205 61.5C36.1205 61.5 22.9205 70.7 25.8205 88.1C29.4205 109.9 19.5205 109.2 21.8205 125.4C23.4205 136.7 36.0205 147.5 36.0205 147.5Z" fill="#8EE2C7"/>
<path d="M45.8205 162.3C45.8205 162.3 70.1205 161.7 70.6205 135.3C71.2205 108.8 88.0205 111.3 81.6205 84.2C81.6205 84.2 65.8205 87.1 61.2205 104.1C55.4205 125.4 46.7205 120.7 42.0205 136.4C38.8205 147.2 45.8205 162.3 45.8205 162.3Z" fill="#D9F5EC"/>
<path d="M25.5206 168.6C25.5206 168.6 41.5206 155 27.4206 136.9C13.3206 118.8 26.0206 111.3 7.02057 96.7C7.02057 96.7 -1.97943 107.3 4.12057 121.2C11.8206 138.6 3.42057 140.2 8.82057 153.3C12.7206 162.3 25.5206 168.6 25.5206 168.6Z" fill="#D9F5EC"/>
<path d="M38.8206 203.7C39.3206 203.7 39.8206 203.3 39.9206 202.7C48.2206 135.5 71.3206 105 71.5206 104.7C71.9206 104.2 71.8206 103.5 71.3206 103.2C70.8206 102.8 70.1206 102.9 69.8206 103.4C69.6206 103.7 46.1206 134.6 37.7206 202.5C37.6206 203.1 38.1206 203.7 38.7206 203.7C38.7206 203.7 38.7206 203.7 38.8206 203.7Z" fill="#43CEA2"/>
<path d="M34.5207 198.7C35.1207 198.7 35.6207 198.3 35.6207 197.7C38.7207 154.6 38.6207 93.7 38.0207 74.4C38.0207 73.8 37.4207 73.3 36.9207 73.3C36.3207 73.3 35.8207 73.8 35.8207 74.4C35.8207 75 37.8207 136 33.4207 197.5C33.4207 198.1 33.8207 198.7 34.5207 198.7Z" fill="#43CEA2"/>
<path d="M31.1207 196.7C31.8207 196.7 32.2207 196.1 32.2207 195.5C30.4207 165.1 13.5207 128.9 13.3207 128.5C13.0207 127.9 12.4207 127.7 11.8207 128C11.2207 128.3 11.0207 128.9 11.3207 129.5C11.5207 129.9 28.2207 165.7 30.0207 195.7C30.0207 196.3 30.5207 196.7 31.1207 196.7Z" fill="#43CEA2"/>
<path d="M55.3205 170.6H20.0205L24.2205 205.9H50.2205L55.3205 170.6Z" fill="#8EE2C7"/>
<path d="M222.304 34.688L122.904 35.5152L123.552 113.415L222.952 112.588L222.304 34.688Z" fill="white" stroke="#D9F5EC" stroke-miterlimit="10"/>
<path d="M217.844 39.6251L127.244 40.3788L127.811 108.479L218.411 107.725L217.844 39.6251Z" fill="#D9F5EC"/>
<path d="M127.821 108.4L159.121 65.9L178.921 92.2L192.121 77.9L218.421 107.7L127.821 108.4Z" fill="#D9F5EC"/>
<path d="M186.921 60.4C186.921 64.3 183.821 67.6 179.821 67.6C175.921 67.6 172.621 64.5 172.621 60.5C172.621 56.6 175.721 53.3 179.721 53.3C183.721 53.3 186.921 56.5 186.921 60.4Z" fill="#D9F5EC"/>
<path d="M115.521 17L115.921 61.8L66.0209 62.3L65.6208 17.5L115.521 17Z" fill="white" stroke="#D9F5EC" stroke-miterlimit="10"/>
<path d="M69.6208 58.3L112.221 57.8L111.921 21L69.3208 21.4L69.6208 58.3Z" fill="#D9F5EC"/>
<path d="M105.321 29.3C105.321 31.7 103.421 33.6 101.021 33.6C98.621 33.6 96.7209 31.7 96.7209 29.3C96.7209 26.9 98.621 25 101.021 25C103.321 25 105.321 27 105.321 29.3Z" fill="#D9F5EC"/>
<path d="M85.8209 54.4C92.9454 54.4 98.7209 48.6245 98.7209 41.5C98.7209 34.3755 92.9454 28.6 85.8209 28.6C78.6964 28.6 72.9209 34.3755 72.9209 41.5C72.9209 48.6245 78.6964 54.4 85.8209 54.4Z" fill="#D9F5EC"/>
<path d="M104.921 42.2C106.191 42.2 107.221 41.1703 107.221 39.9C107.221 38.6298 106.191 37.6 104.921 37.6C103.651 37.6 102.621 38.6298 102.621 39.9C102.621 41.1703 103.651 42.2 104.921 42.2Z" fill="#D9F5EC"/>
<rect x="0.5" y="0.5" width="239" height="247" stroke="#2FCAD7" stroke-opacity="0.01" stroke-dasharray="5 5"/>
</svg>
