<svg width="245" height="248" viewBox="0 0 245 248" fill="none" xmlns="http://www.w3.org/2000/svg">
<g clip-path="url(#clip0)">
<path d="M68.8001 66C73.1001 47.3 81.2001 32.6 100.4 26.1C120.6 19.2 144 16.4 164.2 24.4C180.8 30.9 194.7 45.3 198 62.9C200.4 76.2 196.9 90.4 201.8 103C212 129.2 245 136.6 244.4 168.6C244 187.6 226.8 203 208.4 207.4C188.2 212.2 171.7 203.7 152.2 202.9C136.8 202.3 124.9 212.4 111.8 218.6C96.4001 225.9 74.4001 225 58.2001 221C34.6001 215 13.4001 198.5 4.50006 176C-4.09994 154.2 0.100058 130.8 13.7001 112.2C22.3001 100.5 40.8001 97.2 53.0001 90.3C62.7001 84.6 66.4001 76.4 68.8001 66Z" fill="#D9F5EC"/>
<path d="M148.8 151.7L32.0001 150.9C27.9001 150.9 24.6001 147.5 24.6001 143.4L25.1001 75.1C25.1001 71 28.5001 67.7 32.6001 67.7L149.4 68.5C153.5 68.5 156.8 71.9 156.8 76L156.3 144.3C156.3 148.4 152.9 151.7 148.8 151.7Z" fill="white" stroke="#210049" stroke-width="1.8" stroke-miterlimit="10" stroke-linecap="round" stroke-linejoin="round"/>
<path d="M36.6001 137.6L93.4001 138" stroke="#4376FF" stroke-width="0.6047" stroke-miterlimit="10" stroke-linecap="round" stroke-linejoin="round"/>
<path d="M91.2001 80.5L39.6001 80.2C38.8001 80.2 38.1001 79.5 38.1001 78.7C38.1001 77.9 38.8001 77.2 39.6001 77.2L91.2001 77.5C92.0001 77.5 92.7001 78.2 92.7001 79C92.7001 79.9 92.0001 80.5 91.2001 80.5Z" fill="#4376FF"/>
<path d="M83.2001 85.1L47.5001 84.9C47.0001 84.9 46.6001 84.5 46.6001 84V83.5C46.6001 83 47.0001 82.6 47.5001 82.6L83.2001 82.8C83.7001 82.8 84.1001 83.2 84.1001 83.7V84.2C84.2001 84.7 83.7001 85.1 83.2001 85.1Z" fill="#4376FF"/>
<path d="M47.3 126.5C48.8 130.3 49.3 134.5 48.8 138.5C48.6 140.3 47.9 142.4 46.2 143.2C45.7 143.5 45 143.6 44.5 143.4C43.9 143.2 43.5 142.7 43.2 142.2C42.4 140.8 42.6 138.8 43.7 137.6C44.8 136.3 46.6 135.8 48.2 136.2C50.8 136.8 52.2 132.7 52.1 130.7C52.2 131.6 51.9 132.5 51.9 133.5C51.9 134.5 52.3 135.5 53.2 135.7C54.1 135.8 54.9 135 55.1 134.1C55.3 133.2 55.2 132.3 55.3 131.4C55.1 132.4 55 133.3 55.1 134.3C55.1 134.6 55.2 135 55.4 135.2C55.6 135.5 55.9 135.6 56.2 135.5C56.4 135.4 56.6 135.2 56.7 135C57.4 133.9 57.6 132.7 57.4 131.4C57.1 132.3 57 133.3 57.1 134.2C57.2 134.7 57.3 135.2 57.6 135.5C58.1 136 59 135.9 59.5 135.4C60 134.9 60.2 134.2 60.1 133.5" stroke="#4376FF" stroke-width="0.6047" stroke-miterlimit="10" stroke-linecap="round" stroke-linejoin="round"/>
<path d="M66.0001 129C66.2001 127.7 64.6001 126.6 63.3001 126.8C62.0001 127.1 61.0001 128.2 60.5001 129.5C59.8001 131.3 59.9001 133.4 60.8001 135.2C61.3001 136.3 62.4001 137.3 63.5001 137C64.0001 136.9 64.3001 136.5 64.7001 136.2C65.5001 135.4 67.2001 130.1 65.4001 131.5C64.7001 132 64.9001 134.4 65.2001 135.1C65.4001 135.7 66.0001 136.3 66.5001 136C66.7001 135.9 66.8001 135.7 66.9001 135.4C67.4001 134.3 67.7001 133 67.6001 131.8C67.6001 132.5 67.6001 134.4 68.1001 135C70.2001 137.6 70.9001 132.8 70.7001 131.7C70.9001 133 70.3001 135.5 72.1001 135.8C74.2001 136.2 73.9001 132.8 73.7001 131.5C73.7001 132.7 74.4001 136.1 76.3001 135.2C77.6001 134.6 77.7001 132.6 77.8001 131.4C77.6001 132.9 78.3001 135.3 80.2001 135.2C81.2001 135.1 82.1001 134.3 82.1001 133.3" stroke="#4376FF" stroke-width="0.6047" stroke-miterlimit="10" stroke-linecap="round" stroke-linejoin="round"/>
<path d="M50.3001 94.6L36.1001 94.5C35.7001 94.5 35.4001 94.2 35.4001 93.8C35.4001 93.4 35.7001 93.1 36.1001 93.1L50.3001 93.2C50.7001 93.2 51.0001 93.5 51.0001 93.9C51.0001 94.3 50.7001 94.6 50.3001 94.6Z" fill="#4376FF"/>
<path d="M50.5001 105L36.3001 104.9C35.9001 104.9 35.6001 104.6 35.6001 104.2C35.6001 103.8 35.9001 103.5 36.3001 103.5L50.5001 103.6C50.9001 103.6 51.2001 103.9 51.2001 104.3C51.2001 104.7 50.9001 105 50.5001 105Z" fill="#4376FF"/>
<path d="M86 100.8L42.4 100.5C41.6 100.5 41 99.9 41 99.1C41 98.3 41.6 97.7 42.4 97.7L86 98C86.8 98 87.4 98.6 87.4 99.4C87.4 100.2 86.8 100.8 86 100.8Z" fill="#4376FF"/>
<path d="M85.4001 111.1L41.8001 110.8C41.0001 110.8 40.4001 110.2 40.4001 109.4C40.4001 108.6 41.0001 108 41.8001 108L85.4001 108.3C86.2001 108.3 86.8001 108.9 86.8001 109.7C86.8001 110.5 86.2001 111.1 85.4001 111.1Z" fill="#4376FF"/>
<path d="M49.9 115.4L35.7 115.3C35.3 115.3 35 115 35 114.6C35 114.2 35.3 113.9 35.7 113.9L49.9 114C50.3 114 50.6 114.3 50.6 114.7C50.6 115.1 50.3 115.4 49.9 115.4Z" fill="#4376FF"/>
<path d="M67.4001 141.8H60.5C60.1 141.8 59.8 141.5 59.8 141.1C59.8 140.7 60.1 140.4 60.5 140.4H67.4001C67.8001 140.4 68.1 140.7 68.1 141.1C68.1 141.5 67.8001 141.8 67.4001 141.8Z" fill="#4376FF"/>
<path d="M84.8001 121.5L41.2001 121.2C40.4001 121.2 39.8 120.6 39.8 119.8C39.8 119 40.4001 118.4 41.2001 118.4L84.8001 118.7C85.6001 118.7 86.2 119.3 86.2 120.1C86.2 120.9 85.6001 121.5 84.8001 121.5Z" fill="#4376FF"/>
<path d="M145.2 88.1L106.5 87.8C105.1 87.8 104 88.9 104 90.3L103.7 135.1C103.7 136.5 104.8 137.6 106.2 137.6L144.9 137.9C146.3 137.9 147.4 136.8 147.4 135.4L147.7 90.6C147.7 89.3 146.6 88.1 145.2 88.1Z" fill="#ECF1FF"/>
<path d="M147.7 133.9C148.3 135.1 148.3 136.3 147.1 137.4C145.7 138.8 140.5 137.8 138.6 137.8C135.5 137.8 132.3 137.8 129.2 137.7C123.1 137.7 117 137.6 110.9 137.6C109.2 137.6 106.7 138 105.1 137.6C102 136.7 104.3 133.9 105.7 132.5C108.1 130.1 110.6 128.6 113.9 127.7C120.1 126.1 126.7 125.8 133 126.8C137.9 127.7 145.1 128.8 147.7 133.9Z" fill="#B4C8FF"/>
<path d="M130.1 131.7C130.6 131.5 131.2 131.3 131.4 130.8C131.6 130.4 131.4 129.9 131.3 129.5C131 128.8 130.8 128.1 130.5 127.4C130.4 127.1 130.3 126.8 130 126.6C129.7 126.4 129.3 126.3 129 126.3C128.2 126.2 127.4 126.1 126.6 126.1C124.7 125.9 122.7 125.7 120.8 126.2C119.6 126.5 117.6 127.4 117.1 128.6C116.4 130.3 117.9 130.7 119.6 131.3C122.9 132.5 126.7 132.7 130.1 131.7Z" fill="white"/>
<path d="M118.6 115.1C118.6 115.1 113.8 111.3 113.2 104.8C112.7 98.3 117.4 96.1 117.4 96.1C117.4 96.1 115.1 89.7 123.6 90.1C132.1 90.5 137.6 87 141.7 87.7C145.8 88.4 141.7 98.1 136.6 97.5C131.5 96.9 117.2 104.2 118.6 115.1Z" fill="#210049"/>
<path d="M116.7 129.2L117 116.5L129.6 124.8L131.3 125.9L131.2 129.6" fill="white"/>
<path d="M116.7 129.2L117 116.5L129.6 124.8L131.3 125.9L131.2 129.6" stroke="#210049" stroke-width="0.6017" stroke-miterlimit="10" stroke-linecap="round" stroke-linejoin="round"/>
<path d="M132.8 96C132.8 96 141.7 97.1 138.2 106.3C138.2 106.2 132.6 98.4 132.8 96Z" fill="#210049"/>
<path d="M116.9 117.4L116.7 109.1L116.6 104.7C116.6 104.7 115.8 96.7 123.4 95.4C129 94.5 134.1 95.5 136.7 98.5C137.6 99.6 138.2 100.9 138.3 102.5L138.4 110.5V112.5V118.5C138.4 118.5 138.2 126.1 130.3 125.9" fill="white"/>
<path d="M116.9 117.4L116.7 109.1L116.6 104.7C116.6 104.7 115.8 96.7 123.4 95.4C129 94.5 134.1 95.5 136.7 98.5C137.6 99.6 138.2 100.9 138.3 102.5L138.4 110.5V112.5V118.5C138.4 118.5 138.2 126.1 130.3 125.9" stroke="#210049" stroke-width="0.6017" stroke-miterlimit="10" stroke-linecap="round" stroke-linejoin="round"/>
<path d="M120.6 109.3C120.6 109.3 122.6 113.6 125 112.9C127.4 112.2 130.2 112 132.4 113.1C132.4 113.1 136.1 111.8 138.3 113.4C139.8 114.5 138.7 124.5 133.4 125.8C128.2 127.1 121.2 125.1 119.6 120.2C118 115.3 118.2 111.1 118.2 111.1L120.6 109.3Z" fill="#210049"/>
<path d="M127.7 113.9C127.7 113.9 132.1 115.4 135.4 114.7C135.4 114.7 134.7 118.9 130.9 118C128.3 117.5 127.7 113.9 127.7 113.9Z" fill="white"/>
<path d="M128 111.2C128 111.8 126.8 112.2 125.4 112.1C124 112.1 122.9 111.6 122.9 111C122.9 110.4 124.1 110 125.5 110.1C126.8 110.1 128 110.6 128 111.2Z" fill="#FFD5E3"/>
<g opacity="0.8">
<g opacity="0.8">
<g opacity="0.8">
<g opacity="0.8">
<path opacity="0.8" d="M138.3 112.4C138.1 112.4 137.9 112.4 137.7 112.4C136.3 112.4 135.2 111.9 135.2 111.3C135.2 110.7 136.4 110.3 137.8 110.4C138 110.4 138.2 110.4 138.4 110.4L138.3 112.4Z" fill="#FFD5E3"/>
</g>
</g>
</g>
</g>
<path d="M128 108.1C128 108.9 127.6 109.5 127.2 109.5C126.8 109.5 126.4 108.9 126.5 108.1C126.5 107.3 126.9 106.7 127.3 106.7C127.6 106.7 128 107.3 128 108.1Z" fill="#210049"/>
<path d="M135.5 108.2C135.5 109 135.1 109.6 134.7 109.6C134.3 109.6 133.9 109 134 108.2C134 107.4 134.4 106.8 134.8 106.8C135.2 106.9 135.5 107.5 135.5 108.2Z" fill="#210049"/>
<path d="M131.5 112C131.3 112 131.2 111.9 131.2 111.7C131.2 111.5 131.3 111.4 131.5 111.4C132.6 111.4 133.2 110.8 133.4 110.6C132.2 108 131 105.4 131 105.4C130.9 105.2 131 105.1 131.2 105C131.4 104.9 131.5 105 131.6 105.2C131.6 105.2 132.8 107.9 134 110.6C134 110.7 134 110.8 134 110.9C134 110.8 133.3 112.1 131.5 112Z" fill="#210049"/>
<path d="M124.2 104.5C124.4 103.7 125.1 102.2 127.7 102.2C128 102.2 128.3 102.4 128.4 102.7C128.5 103.1 128.2 103.5 127.9 103.5C127.2 103.6 126.2 104 125.6 105C125.4 105.3 125 105.4 124.6 105.2H124.5C124.3 105.1 124.2 104.8 124.2 104.5Z" fill="#210049"/>
<path d="M137.4 104.9C137.2 104.1 136.6 102.6 134.1 102.4C133.8 102.4 133.5 102.6 133.4 102.9C133.3 103.3 133.5 103.7 133.9 103.8C134.6 103.9 135.6 104.3 136.1 105.5C136.3 105.9 136.7 106 137 105.8H137.1C137.3 105.4 137.4 105.2 137.4 104.9Z" fill="#210049"/>
<path d="M118.2 110.6C118.2 110.6 115.3 106.4 113 109.6C111.1 112.2 114.4 119.2 118.1 116.9" fill="white"/>
<path d="M118.2 110.6C118.2 110.6 115.3 106.4 113 109.6C111.1 112.2 114.4 119.2 118.1 116.9" stroke="#210049" stroke-width="0.6017" stroke-miterlimit="10" stroke-linecap="round" stroke-linejoin="round"/>
<path d="M136.6 98.4C136.5 98.7 136.4 98.9 136.2 99.1C134.6 100.7 131 100 127.7 98.9C124.4 97.8 121.9 100.2 121.9 100.2C122.8 103.4 119.6 103.6 120.2 106.1C120.8 108.6 120.5 111.8 120.5 111.8L118.5 111.5C118.1 110.3 117.2 109.6 116.6 109.2L116.5 104.8C116.5 104.8 115.7 96.8 123.3 95.5C128.9 94.4 134 95.5 136.6 98.4Z" fill="#210049"/>
<path d="M182.4 221.1L98.1 238.9C88.4 240.9 78.9 234.8 76.9 225.1L36.8 43.4C34.8 33.7 40.9 24.2 50.6 22.2L134.9 4.4C144.6 2.4 154.1 8.5 156.1 18.2L196.2 200C198.3 209.6 192.1 219.1 182.4 221.1Z" fill="white" stroke="#210049" stroke-width="1.8" stroke-miterlimit="10" stroke-linecap="round" stroke-linejoin="round"/>
<path d="M181.3 216.2L97.0998 234C90.1998 235.5 83.2998 231 81.8998 224.1L41.6998 41.9C40.1998 35 44.6998 28.1 51.5998 26.7L135.8 8.89999C142.7 7.39999 149.6 11.9 151 18.8L191.1 200.9C192.7 207.9 188.2 214.7 181.3 216.2Z" fill="#B4C8FF"/>
<path d="M117.2 21.4L73.7 30.6C68.6 31.7 63.6 28.4 62.5 23.3L62 20.9L124 7.8L124.5 10.2C125.6 15.3 122.3 20.3 117.2 21.4Z" fill="white"/>
<path opacity="0.4" d="M144.1 201.9C145.2 207.1 141.9 212.2 136.7 213.3C131.5 214.4 126.4 211.1 125.3 205.9C124.2 200.7 127.5 195.6 132.7 194.5C137.9 193.4 143 196.7 144.1 201.9Z" fill="white"/>
<path d="M149.5 200.8C151.2 209 146 217 137.9 218.7C129.7 220.4 121.7 215.2 120 207.1C118.3 198.9 123.5 190.9 131.6 189.2C139.7 187.5 147.8 192.7 149.5 200.8Z" stroke="white" stroke-width="1.9676" stroke-miterlimit="10"/>
<g opacity="0.6">
<path opacity="0.6" d="M65.8999 131.6C65.8999 131.6 65.7999 131.6 65.5999 131.8C65.1999 132.1 65.1999 133.5 65.2999 134.4C65.6999 133.2 65.9999 131.8 65.8999 131.6Z" fill="white"/>
<path opacity="0.6" d="M153.4 148.9C154.6 147.7 155.3 146 155.3 144.3L155.8 76C155.8 74.3 155.1 72.6 153.9 71.4C152.7 70.2 151 69.5 149.3 69.5L47.5999 68.8L49.4999 77.2L91.2999 77.5C92.0999 77.5 92.7999 78.2 92.7999 79C92.7999 79.8 92.0999 80.5 91.2999 80.5L50.1999 80.2L50.6999 82.4L83.2999 82.6C83.7999 82.6 84.1999 83 84.1999 83.5V84C84.1999 84.5 83.7999 84.9 83.2999 84.9L51.1999 84.7L53.9999 97.8L85.9999 98C86.7999 98 87.3999 98.6 87.3999 99.4C87.3999 100.2 86.7999 100.8 85.9999 100.8L54.5999 100.6L56.2999 108.2L85.4999 108.4C86.2999 108.4 86.8999 109 86.8999 109.8C86.8999 110.6 86.2999 111.2 85.4999 111.2L56.9999 111L58.6999 118.6L84.9999 118.8C85.7999 118.8 86.3999 119.4 86.3999 120.2C86.3999 121 85.7999 121.6 84.9999 121.6L59.3999 121.4L60.9999 128.5C61.5999 127.5 62.4999 126.8 63.4999 126.6C64.2999 126.4 65.1999 126.7 65.8999 127.3C66.3999 127.8 66.6999 128.4 66.5999 129.1C66.5999 129.3 66.3999 129.4 66.2999 129.4C66.0999 129.4 65.9999 129.2 65.9999 129.1C66.0999 128.7 65.8999 128.2 65.4999 127.8C64.9999 127.3 64.2999 127.1 63.6999 127.2C62.6999 127.4 61.8999 128.2 61.2999 129.4L62.8999 136.7C63.1999 136.8 63.4999 136.9 63.7999 136.8C64.1999 136.7 64.5999 136.4 64.7999 136.1C64.8999 136 65.0999 135.7 65.1999 135.4V135.3C64.9999 134.7 64.6999 132 65.4999 131.4C66.0999 130.9 66.3999 131.1 66.5999 131.3C67.0999 131.9 66.4999 134 65.8999 135.4C65.9999 135.6 66.1999 135.8 66.3999 135.9C66.4999 135.9 66.5999 135.9 66.6999 135.9C66.7999 135.8 66.8999 135.7 66.9999 135.5C67.4999 134.5 67.6999 133.3 67.6999 132.2V132.1C67.6999 131.9 67.7999 131.8 67.9999 131.8C68.0999 131.8 68.2999 131.9 68.2999 132.1C68.2999 132.2 68.2999 132.2 68.2999 132.3V132.5C68.2999 133.2 68.3999 134.8 68.6999 135.2C68.9999 135.6 69.3999 136 69.6999 135.8C70.4999 135.5 70.8999 133 70.7999 132.1C70.7999 131.9 70.8999 131.8 71.0999 131.8C71.2999 131.8 71.3999 131.9 71.3999 132.1C71.3999 132.4 71.3999 132.8 71.3999 133.2C71.3999 134.7 71.4999 135.8 72.5999 136C72.9999 136.1 73.1999 136 73.3999 135.8C73.7999 135.4 73.9999 134.4 73.8999 133C73.7999 132.6 73.7999 132.3 73.7999 132C73.7999 131.8 73.8999 131.7 74.0999 131.7C74.2999 131.7 74.3999 131.8 74.3999 132C74.3999 132.3 74.4999 132.6 74.4999 133C74.6999 134 75.0999 135.1 75.6999 135.5C75.9999 135.7 76.1999 135.7 76.5999 135.5C77.5999 135 77.7999 133.4 77.8999 132.3V132C77.8999 131.8 78.0999 131.7 78.1999 131.7C78.3999 131.7 78.4999 131.9 78.4999 132C78.3999 132.9 78.5999 134.2 79.2999 134.9C79.5999 135.3 80.0999 135.4 80.5999 135.4C81.3999 135.3 82.1999 134.6 82.1999 133.8C82.1999 133.6 82.3999 133.5 82.4999 133.5C82.6999 133.5 82.7999 133.7 82.7999 133.8C82.6999 134.9 81.6999 135.9 80.5999 136C79.8999 136 79.2999 135.8 78.7999 135.3C78.4999 135 78.2999 134.5 78.0999 134.1C77.8999 134.9 77.4999 135.6 76.7999 135.9C76.2999 136.1 75.7999 136.1 75.3999 135.8C74.9999 135.6 74.6999 135.1 74.4999 134.7C74.3999 135.3 74.1999 135.8 73.8999 136.1C73.4999 136.4 73.0999 136.6 72.4999 136.5C71.5999 136.3 71.1999 135.7 70.9999 135C70.7999 135.6 70.3999 136.2 69.9999 136.4C69.4999 136.6 68.8999 136.4 68.2999 135.6C68.1999 135.4 68.0999 135.2 67.9999 134.9C67.8999 135.3 67.6999 135.6 67.5999 136C67.4999 136.3 67.2999 136.5 66.9999 136.7C66.7999 136.8 66.4999 136.8 66.1999 136.7C65.9999 136.6 65.7999 136.5 65.5999 136.3C65.4999 136.5 65.2999 136.7 65.1999 136.8C64.8999 137.2 64.3999 137.5 63.8999 137.7C63.6999 137.7 63.5999 137.8 63.3999 137.8C63.2999 137.8 63.0999 137.8 62.9999 137.8V138L93.6999 138.2C93.8999 138.2 93.9999 138.3 93.9999 138.5C93.9999 138.7 93.8999 138.8 93.6999 138.8L63.1999 138.6L63.6999 140.9H67.6999C68.0999 140.9 68.3999 141.2 68.3999 141.6C68.3999 142 68.0999 142.3 67.6999 142.3H63.9999L65.8999 150.8L149.2 151.4C150.5 150.8 152.2 150.2 153.4 148.9ZM147.1 137.4C145.7 138.8 140.5 137.8 138.6 137.8C135.5 137.8 132.3 137.8 129.2 137.7C124.7 137.7 120.2 137.6 115.6 137.6H110.9C109.2 137.6 106.7 138 105.1 137.6C103.5 137.1 103.3 136.1 103.8 135.1L104.1 90.3C104.1 88.9 105.2 87.8 106.6 87.8L137.2 88C138.9 87.6 140.5 87.4 141.9 87.6C142.3 87.7 142.6 87.8 142.9 88H145.4C146.8 88 147.9 89.1 147.9 90.5L147.6 133.3C147.7 133.5 147.8 133.6 147.9 133.8C148.3 135.1 148.3 136.3 147.1 137.4Z" fill="white"/>
<path opacity="0.6" d="M155.2 70.2C153.6 68.6 151.6 67.7 149.3 67.7L47.2 67L47.4 67.9L149.4 68.6C153.5 68.6 156.8 72 156.8 76.1L156.3 144.4C156.3 148.5 152.9 151.8 148.8 151.8L65.6999 151.2L65.9 152.1L148.8 152.6C148.8 152.6 148.8 152.6 148.9 152.6C151.1 152.6 153.2 151.7 154.7 150.2C156.3 148.6 157.2 146.6 157.2 144.3L157.7 76C157.7 73.9 156.8 71.8 155.2 70.2Z" fill="#210049"/>
<path opacity="0.6" d="M149.4 69.5C151.1 69.5 152.8 70.2 154 71.4C155.2 72.6 155.9 74.3 155.9 76L155.4 144.3C155.4 146 154.7 147.7 153.5 148.9C152.3 150.1 150.6 150.8 148.9 150.8L65.6 150.2L65.8 151.1L148.9 151.7C153 151.7 156.3 148.4 156.4 144.3L156.9 76C156.9 71.9 153.6 68.6 149.5 68.5L47.5 67.8L47.7 68.7L149.4 69.5Z" fill="#210049"/>
<path opacity="0.6" d="M93.4 138.3C93.6 138.3 93.6999 138.2 93.6999 138C93.6999 137.8 93.6 137.7 93.4 137.7L62.7 137.5L62.7999 138.1L93.4 138.3Z" fill="#4376FF"/>
<path opacity="0.6" d="M91.1999 80.5C91.9999 80.5 92.6999 79.9 92.6999 79C92.6999 78.2 92.0999 77.5 91.1999 77.5L49.3999 77.2L50.0999 80.1L91.1999 80.5Z" fill="#4376FF"/>
<path opacity="0.6" d="M83.1999 85.1C83.6999 85.1 84.0999 84.7 84.0999 84.2V83.7C84.0999 83.2 83.6999 82.8 83.1999 82.8L50.5999 82.6L51.0999 85L83.1999 85.1Z" fill="#4376FF"/>
<path opacity="0.6" d="M63.0999 137.4C63.2999 137.4 63.3999 137.4 63.5999 137.3C64.1999 137.1 64.5999 136.8 64.8999 136.4C64.9999 136.3 65.0999 136.1 65.2999 135.9C65.4999 136.1 65.5999 136.2 65.8999 136.3C66.1999 136.4 66.3999 136.4 66.6999 136.3C66.9999 136.2 67.1999 135.9 67.2999 135.6C67.4999 135.3 67.5999 134.9 67.6999 134.5C67.7999 134.8 67.8999 135.1 67.9999 135.2C68.5999 136 69.1999 136.2 69.6999 136C70.1999 135.8 70.4999 135.3 70.6999 134.6C70.8999 135.3 71.2999 135.9 72.1999 136.1C72.7999 136.2 73.1999 136.1 73.5999 135.7C73.8999 135.4 74.0999 134.9 74.1999 134.3C74.3999 134.8 74.6999 135.2 75.0999 135.4C75.4999 135.7 75.9999 135.7 76.4999 135.5C77.1999 135.2 77.5999 134.4 77.7999 133.7C77.9999 134.2 78.1999 134.6 78.4999 134.9C78.9999 135.4 79.5999 135.6 80.2999 135.6C81.3999 135.5 82.3999 134.5 82.4999 133.4C82.4999 133.2 82.3999 133.1 82.1999 133.1C81.9999 133.1 81.8999 133.2 81.8999 133.4C81.7999 134.2 81.0999 135 80.2999 135C79.7999 135 79.3999 134.9 78.9999 134.5C78.2999 133.8 78.0999 132.5 78.1999 131.6C78.1999 131.4 78.0999 131.3 77.8999 131.3C77.6999 131.3 77.5999 131.4 77.5999 131.6V131.9C77.4999 133 77.2999 134.7 76.2999 135.1C75.9999 135.2 75.6999 135.2 75.3999 135.1C74.7999 134.7 74.3999 133.6 74.1999 132.6C74.1999 132.3 74.0999 131.9 74.0999 131.6C74.0999 131.4 73.9999 131.3 73.7999 131.3C73.5999 131.3 73.4999 131.4 73.4999 131.6C73.4999 131.9 73.4999 132.2 73.5999 132.6C73.6999 134 73.4999 135 73.0999 135.4C72.8999 135.6 72.5999 135.7 72.2999 135.6C71.1999 135.4 71.0999 134.3 71.0999 132.8C71.0999 132.4 71.0999 132 71.0999 131.7C71.0999 131.5 70.8999 131.4 70.7999 131.4C70.5999 131.4 70.4999 131.6 70.4999 131.7C70.5999 132.6 70.1999 135.1 69.3999 135.4C69.0999 135.5 68.6999 135.1 68.3999 134.8C67.9999 134.3 67.9999 132.8 67.9999 132.1V131.9C67.9999 131.8 67.9999 131.8 67.9999 131.7C67.9999 131.5 67.7999 131.4 67.6999 131.4C67.4999 131.4 67.3999 131.5 67.3999 131.7V131.8C67.3999 132.9 67.1999 134.1 66.6999 135.1C66.5999 135.3 66.4999 135.4 66.3999 135.5C66.2999 135.5 66.1999 135.5 66.0999 135.5C65.8999 135.4 65.7999 135.3 65.5999 135C66.1999 133.6 66.7999 131.4 66.2999 130.9C66.0999 130.7 65.7999 130.6 65.1999 131C64.2999 131.7 64.5999 134.3 64.8999 134.9V135C64.7999 135.3 64.5999 135.6 64.4999 135.7C64.1999 136 63.8999 136.3 63.4999 136.4C63.1999 136.5 62.8999 136.4 62.5999 136.3L62.7999 137C62.7999 137.3 62.9999 137.4 63.0999 137.4ZM65.5999 131.7C65.7999 131.6 65.8999 131.5 65.8999 131.5C66.0999 131.8 65.7999 133.1 65.2999 134.3C65.1999 133.4 65.1999 132 65.5999 131.7Z" fill="#4376FF"/>
<path opacity="0.6" d="M63.2999 127.1C63.8999 127 64.5999 127.2 65.0999 127.7C65.4999 128.1 65.6999 128.5 65.5999 129C65.5999 129.2 65.6999 129.3 65.8999 129.3C66.0999 129.3 66.1999 129.2 66.1999 129C66.2999 128.4 65.9999 127.7 65.4999 127.2C64.8999 126.6 63.8999 126.3 63.0999 126.5C62.0999 126.7 61.2999 127.4 60.5999 128.4L60.7999 129.3C61.4999 128.1 62.3999 127.3 63.2999 127.1Z" fill="#4376FF"/>
<path opacity="0.6" d="M86 100.8C86.8 100.8 87.4 100.2 87.4 99.4C87.4 98.6 86.8 98 86 98L54 97.8L54.6 100.6L86 100.8Z" fill="#4376FF"/>
<path opacity="0.6" d="M85.4 111.1C86.2 111.1 86.8 110.5 86.8 109.7C86.8 108.9 86.2 108.3 85.4 108.3L56.2 108.1L56.7999 110.9L85.4 111.1Z" fill="#4376FF"/>
<path opacity="0.6" d="M67.3999 141.8C67.7999 141.8 68.0999 141.5 68.0999 141.1C68.0999 140.7 67.7999 140.4 67.3999 140.4H63.3999L63.6999 141.8H67.3999Z" fill="#4376FF"/>
<path opacity="0.6" d="M84.8 121.5C85.6 121.5 86.2 120.9 86.2 120.1C86.2 119.3 85.6 118.7 84.8 118.7L58.5 118.5L59.1 121.3L84.8 121.5Z" fill="#4376FF"/>
<path opacity="0.6" d="M113.8 127.8C114.7 127.6 115.6 127.4 116.5 127.2L116.7 117.6C116.7 117.6 116.7 117.6 116.6 117.6C115.7 117.6 114.8 117.2 114 116.3C112.4 114.5 111.5 111.1 112.7 109.4C113.1 108.9 113.5 108.5 114 108.3C113.6 107.2 113.3 106 113.2 104.7C112.7 98.2 117.4 96 117.4 96C117.4 96 115.1 89.6 123.6 90C129.3 90.3 133.6 88.8 137.1 88L106.5 87.8C105.1 87.8 104 88.9 104 90.3L103.7 135.1C104.1 134.2 104.9 133.2 105.6 132.6C108 130.2 110.5 128.6 113.8 127.8Z" fill="#ECF1FF"/>
<path opacity="0.6" d="M136.6 97.5C138.4 98.8 139.8 101.1 138.5 105.4L138.6 113.9C139 114.7 139 116.5 138.6 118.4C138.6 118.5 138.5 121.8 136.1 124.1L136 124.2C135.3 125 134.4 125.6 133.4 125.9C132.8 126 132.2 126.1 131.6 126.2V126.8C132 126.9 132.5 126.9 132.9 127C137.8 127.7 144.6 128.8 147.4 133.5L147.7 90.7C147.7 89.3 146.6 88.2 145.2 88.2H142.7C145.1 90.2 141.3 98 136.6 97.5Z" fill="#ECF1FF"/>
<path opacity="0.6" d="M147.4 133.5V135.5C147.4 136.9 146.3 138 144.9 138L115.6 137.8C120.1 137.8 124.6 137.9 129.2 137.9C132.3 137.9 135.5 137.9 138.6 138C140.5 138 145.7 139 147.1 137.6C148.3 136.5 148.3 135.3 147.7 134.1C147.6 133.8 147.5 133.6 147.4 133.5Z" fill="#B4C8FF"/>
<path opacity="0.6" d="M103.7 135.1C103.3 136.1 103.4 137.1 105 137.6C106.7 138.1 109.1 137.6 110.8 137.6H106.1C104.8 137.6 103.7 136.5 103.7 135.1Z" fill="#B4C8FF"/>
<path opacity="0.6" d="M147.4 135.4V133.4C144.6 128.7 137.7 127.6 132.9 126.9C132.5 126.8 132 126.8 131.6 126.7L131.5 129.5C131.5 129.6 131.4 129.7 131.3 129.7C131.4 130 131.5 130.4 131.3 130.7C131.1 131.2 130.5 131.4 130 131.6C126.6 132.6 122.8 132.4 119.5 131.1C118.1 130.6 116.8 130.2 116.9 129.1C116.9 129.3 116.8 129.4 116.6 129.4C116.4 129.4 116.3 129.3 116.3 129.1V127.2C115.4 127.4 114.5 127.6 113.6 127.8C110.3 128.6 107.8 130.2 105.4 132.6C104.7 133.2 103.9 134.2 103.5 135.1C103.5 136.5 104.6 137.6 106 137.6H110.7C112.3 137.6 113.9 137.6 115.4 137.6L144.7 137.8C146.3 137.9 147.4 136.8 147.4 135.4Z" fill="#B4C8FF"/>
<path opacity="0.6" d="M131.2 129.8C131 129.8 130.9 129.7 130.9 129.5L117 129.2C116.9 130.4 118.2 130.7 119.6 131.2C122.9 132.5 126.7 132.7 130.1 131.7C130.6 131.5 131.2 131.3 131.4 130.8C131.5 130.5 131.5 130.1 131.4 129.8C131.3 129.8 131.3 129.8 131.2 129.8Z" fill="white"/>
<path opacity="0.6" d="M141.8 87.7C140.4 87.5 138.9 87.7 137.1 88.1H142.7C142.5 87.9 142.1 87.7 141.8 87.7Z" fill="#210049"/>
<path opacity="0.6" d="M123.6 90C115 89.6 117.4 96 117.4 96C117.4 96 112.7 98.2 113.2 104.7C113.3 106 113.6 107.2 114 108.3C114.3 108.2 114.6 108.1 114.9 108.1C115.4 108.1 115.8 108.3 116.3 108.5L116.2 104.6C116.2 104.5 115.5 96.3 123.3 95C127.7 94.3 131.6 94.8 134.4 96.3C135.1 96.5 135.9 96.9 136.6 97.4C141.2 97.9 145.1 90.1 142.7 88H137.1C133.6 88.9 129.3 90.3 123.6 90Z" fill="#210049"/>
<path opacity="0.6" d="M131 126.2C126.2 126.5 121 124.4 119.7 120.2C119.6 119.7 119.4 119.3 119.3 118.8L117.3 117.5L117.1 127C117.7 126.9 118.4 126.8 119 126.7C119.6 126.4 120.3 126.1 120.9 126C122.8 125.5 124.8 125.7 126.7 125.9C127.5 126 128.3 126.1 129.1 126.1C129.5 126.1 129.8 126.2 130.1 126.4C130.1 126.4 130.1 126.4 130.1 126.5C130.4 126.5 130.7 126.6 131 126.6V126.2Z" fill="white"/>
<path opacity="0.6" d="M117.1 128.5C117.4 127.8 118.1 127.2 118.9 126.8C118.3 126.9 117.6 127 117 127.1L116.9 129.1C117 129 117 128.8 117.1 128.5Z" fill="white"/>
<path opacity="0.6" d="M130.1 126.6C130.3 126.8 130.4 127.1 130.5 127.3C130.7 127.8 130.8 128.2 131 128.7V126.7C130.7 126.7 130.4 126.6 130.1 126.6Z" fill="white"/>
<path opacity="0.6" d="M129 126.2C128.2 126.1 127.4 126 126.6 126C124.7 125.8 122.7 125.6 120.8 126.1C120.3 126.2 119.6 126.5 118.9 126.8C122.6 126.3 126.3 126.2 130 126.6C130 126.6 130 126.6 130 126.5C129.7 126.3 129.4 126.3 129 126.2Z" fill="white"/>
<path opacity="0.6" d="M131 128.7C130.8 128.2 130.7 127.8 130.5 127.3C130.4 127 130.3 126.8 130.1 126.6C126.4 126.3 122.7 126.3 119 126.8C118.2 127.2 117.5 127.8 117.2 128.5C117.1 128.8 117.1 129 117 129.2L130.9 129.5L131 128.7Z" fill="white"/>
<path opacity="0.6" d="M117 117.7C116.9 117.7 116.9 117.7 117 117.7C116.9 117.7 116.9 117.7 117 117.7C116.9 117.7 116.9 117.7 117 117.7C116.9 117.7 116.9 117.7 117 117.7C116.8 117.7 116.8 117.7 116.7 117.7L116.5 127.3C116.6 127.3 116.7 127.3 116.8 127.2L117 117.7Z" fill="#210049"/>
<path opacity="0.6" d="M131.3 126.2V126.7C131.4 126.7 131.5 126.7 131.6 126.7V126.1C131.5 126.2 131.4 126.2 131.3 126.2Z" fill="#210049"/>
<path opacity="0.6" d="M116.7 127.2C116.6 127.2 116.5 127.2 116.4 127.3V129.2C116.4 129.4 116.5 129.5 116.7 129.5C116.9 129.5 117 129.4 117 129.2H116.7V127.2Z" fill="#210049"/>
<path opacity="0.6" d="M131.2 129.5C131.2 129.6 131.3 129.7 131.3 129.8C131.4 129.8 131.5 129.7 131.5 129.6L131.6 126.8C131.5 126.8 131.4 126.8 131.3 126.8L131.2 129.5Z" fill="#210049"/>
<path opacity="0.6" d="M131.2 129.5H130.9C130.9 129.7 131 129.8 131.2 129.8H131.3C131.3 129.7 131.3 129.6 131.2 129.5Z" fill="#210049"/>
<path opacity="0.6" d="M117.2 117.6C117.1 117.6 117 117.6 116.9 117.7L116.7 127.2C116.8 127.2 116.9 127.2 117 127.1L117.2 117.6Z" fill="#210049"/>
<path opacity="0.6" d="M131 126.7C131.1 126.7 131.2 126.7 131.3 126.7V126.2C131.2 126.2 131.1 126.2 131 126.2V126.7Z" fill="#210049"/>
<path opacity="0.6" d="M117 127.1C116.9 127.1 116.8 127.1 116.7 127.2V129.2H117V127.1Z" fill="#210049"/>
<path opacity="0.6" d="M131 128.7C131.1 129 131.2 129.2 131.3 129.5L131.4 126.8C131.3 126.8 131.2 126.8 131.1 126.8L131 128.7Z" fill="#210049"/>
<path opacity="0.6" d="M131 128.7V129.5H131.3V129.4C131.1 129.2 131 128.9 131 128.7Z" fill="#210049"/>
<path opacity="0.6" d="M136 97.5C136.3 97.7 136.6 98 136.8 98.3C137.8 99.5 138.4 100.9 138.5 102.5V105.4C139.8 101.2 138.3 98.8 136.6 97.5C136.4 97.5 136.2 97.5 136 97.5Z" fill="#210049"/>
<path opacity="0.6" d="M136.6 97.5C135.9 97 135.1 96.6 134.4 96.4C135 96.7 135.5 97.1 136 97.5C136.2 97.5 136.4 97.5 136.6 97.5Z" fill="#210049"/>
<path opacity="0.6" d="M137 105.6C136.6 105.8 136.1 105.7 136 105.4C135.5 104.3 134.5 103.9 133.8 103.7C133.4 103.6 133.2 103.2 133.3 102.8C133.4 102.5 133.7 102.3 134 102.3C134.9 102.4 135.5 102.6 136 102.9C135.4 102 134.8 100.9 134.2 99.9C132.8 100.1 131.1 99.8 129.3 99.3C126 101 122.5 103.6 120.4 107C120.5 107.8 120.6 108.5 120.6 109.2C120.6 109.2 122.6 113.5 125 112.8C127.4 112.1 130.2 111.9 132.4 113C132.4 113 135.8 111.8 138 113.1V112.3C137.9 112.3 137.8 112.3 137.7 112.3C136.3 112.3 135.2 111.8 135.2 111.2C135.2 110.6 136.4 110.2 137.8 110.3C137.9 110.3 138 110.3 138.1 110.3V105.7C137.9 105.5 137.8 105.2 137.5 104.9C137.4 105.2 137.3 105.5 137 105.6ZM125.4 112.1C124 112.1 122.9 111.6 122.9 111C122.9 110.4 124.1 110 125.5 110.1C126.9 110.1 128 110.6 128 111.2C127.9 111.7 126.8 112.1 125.4 112.1ZM127.2 109.4C126.8 109.4 126.4 108.8 126.5 108C126.6 107.2 126.9 106.6 127.3 106.6C127.7 106.6 128.1 107.2 128 108C127.9 108.8 127.6 109.4 127.2 109.4ZM127.8 103.5C127.1 103.6 126.1 104 125.5 105C125.3 105.3 124.9 105.4 124.5 105.2H124.4C124.2 105 124 104.8 124.1 104.5C124.3 103.7 125 102.2 127.6 102.2C127.9 102.2 128.2 102.4 128.3 102.7C128.5 103.1 128.2 103.5 127.8 103.5ZM134 110.8C134 110.9 133.3 112.1 131.5 112.1C131.3 112.1 131.2 112 131.2 111.8C131.2 111.6 131.3 111.5 131.5 111.5C132.6 111.5 133.2 110.9 133.4 110.7C132.2 108.1 131 105.5 131 105.5C130.9 105.3 131 105.2 131.2 105.1C131.4 105 131.5 105.1 131.6 105.3C131.6 105.3 132.8 108 134 110.7C134.1 110.6 134.1 110.7 134 110.8ZM134.7 109.6C134.3 109.6 133.9 109 134 108.2C134 107.4 134.4 106.8 134.8 106.8C135.2 106.8 135.6 107.4 135.5 108.2C135.4 109 135.1 109.6 134.7 109.6Z" fill="white"/>
<path opacity="0.6" d="M118.3 116.8C118.3 116.9 118.3 116.9 118.3 117L118.9 117.4C118.7 116.6 118.6 115.8 118.5 115.1C118.5 115.1 118.3 114.9 118.1 114.7V116.6C118.2 116.7 118.3 116.7 118.3 116.8Z" fill="white"/>
<path opacity="0.6" d="M118.3 111.1C118.4 111 118.3 110.9 118.3 110.9H118.2L118.1 114.7C118.3 114.9 118.5 115 118.5 115.1C118.2 112.7 118.3 111.1 118.3 111.1Z" fill="white"/>
<path opacity="0.6" d="M129.3 99.4C128.8 99.3 128.2 99.1 127.7 98.9C124.4 97.8 121.9 100.2 121.9 100.2C122.8 103.4 119.6 103.6 120.2 106.1C120.3 106.4 120.3 106.8 120.4 107.1C122.5 103.7 126 101.1 129.3 99.4Z" fill="white"/>
<path opacity="0.6" d="M117.9 117.4C117.7 117.5 117.5 117.6 117.3 117.6L119.3 118.9C119.2 118.7 119.2 118.4 119.1 118.2L117.9 117.4Z" fill="white"/>
<path opacity="0.6" d="M118.2 117.2L119 117.8C119 117.7 118.9 117.5 118.9 117.4L118.3 117C118.3 117.1 118.3 117.1 118.2 117.2Z" fill="white"/>
<path opacity="0.6" d="M118.2 117.2C118.1 117.3 118 117.3 117.9 117.4L119.1 118.2C119.1 118.1 119 117.9 119 117.8L118.2 117.2Z" fill="white"/>
<path opacity="0.6" d="M134.3 100C134.8 101 135.5 102.1 136.1 103C137 103.6 137.3 104.4 137.4 104.9V105C137.6 105.3 137.8 105.6 138 105.8V102.5C137.9 101.1 137.4 99.8 136.5 98.8C136.4 98.9 136.4 99 136.3 99.1C135.7 99.6 135.1 99.9 134.3 100Z" fill="white"/>
<path opacity="0.6" d="M138.3 110.4V112.4V113.4C138.4 113.5 138.5 113.7 138.6 113.9L138.5 105.4C138.4 105.7 138.3 106 138.2 106.3L138.3 110.4Z" fill="#210049"/>
<path opacity="0.6" d="M136.2 124.1C138.6 121.9 138.7 118.6 138.7 118.4C138.3 120.5 137.5 122.7 136.1 124.2C136.1 124.1 136.1 124.1 136.2 124.1Z" fill="#210049"/>
<path opacity="0.6" d="M116.6 107.7L116.5 104.6C116.5 104.6 116 99.3 119.8 96.7C120.7 96.1 121.8 95.6 123.3 95.4C126.8 94.8 130.1 95 132.7 96H132.8C132.8 96 133.5 96.1 134.4 96.4C131.6 94.9 127.6 94.4 123.3 95.1C115.5 96.4 116.2 104.6 116.2 104.7L116.3 108.6C116.4 108.7 116.5 108.7 116.6 108.8V107.7Z" fill="#210049"/>
<path opacity="0.6" d="M136.8 98.3C136.6 98 136.3 97.8 136 97.5C135.9 97.5 135.7 97.5 135.6 97.5C136 97.8 136.3 98.1 136.6 98.5C137.5 99.6 138.1 100.9 138.2 102.5V106.2C138.3 105.9 138.4 105.6 138.5 105.3V102.4C138.4 100.8 137.8 99.4 136.8 98.3Z" fill="#210049"/>
<path opacity="0.6" d="M132.8 96C133.3 96.2 133.8 96.4 134.2 96.6C134.7 96.9 135.1 97.2 135.5 97.5C135.7 97.5 135.8 97.5 135.9 97.5C135.4 97.1 134.9 96.7 134.3 96.4C133.5 96 132.8 96 132.8 96Z" fill="#210049"/>
<path opacity="0.6" d="M137.9 105.8V110.4C138 110.4 138.1 110.4 138.2 110.4V106.2C138.2 106.2 138.1 106.1 137.9 105.8Z" fill="#210049"/>
<path opacity="0.6" d="M138 113.2C138.1 113.3 138.2 113.3 138.3 113.4V112.4C138.2 112.4 138.1 112.4 138 112.4V113.2Z" fill="#210049"/>
<path opacity="0.6" d="M119.9 96.7C116 99.4 116.6 104.6 116.6 104.6L116.7 107.7L116.6 104.6C116.5 104.6 116 99.4 119.9 96.7Z" fill="#210049"/>
<path opacity="0.6" d="M136.6 98.4C136.6 98.5 136.5 98.6 136.5 98.7C137.4 99.8 137.9 101 138 102.4V105.7C138.2 106 138.3 106.1 138.3 106.1V102.4C138.1 100.9 137.5 99.5 136.6 98.4C136.3 98 135.9 97.7 135.6 97.4C135.9 97.8 136.3 98.1 136.6 98.4Z" fill="#210049"/>
<path opacity="0.6" d="M135.6 97.5C135.2 97.2 134.7 96.9 134.3 96.6C134.7 96.9 135.2 97.1 135.6 97.5Z" fill="#210049"/>
<path opacity="0.6" d="M138.6 113.9V118.4C139 116.4 138.9 114.7 138.6 113.9Z" fill="#210049"/>
<path opacity="0.6" d="M131.6 126.2C132.2 126.1 132.8 126 133.4 125.9C134.4 125.6 135.3 125 136 124.2C134.8 125.3 133.4 125.9 131.6 126V126.2Z" fill="#210049"/>
<path opacity="0.6" d="M130.2 126.1C130 126.1 129.9 126 129.9 125.8C129.9 125.7 129.9 125.7 130 125.7L119.3 119C119.4 119.4 119.5 119.9 119.7 120.4C121 124.6 126.3 126.7 131 126.4V126.2C130.9 126.2 130.7 126.2 130.6 126.2C130.5 126.1 130.4 126.1 130.2 126.1Z" fill="#210049"/>
<path opacity="0.6" d="M131.3 126V126.1C131.4 126.1 131.5 126.1 131.6 126.1V126C131.5 126 131.4 126 131.3 126Z" fill="#210049"/>
<path opacity="0.6" d="M131 126.1V126.3C131.1 126.3 131.2 126.3 131.3 126.3V126.2C131.2 126.1 131.1 126.1 131 126.1Z" fill="#210049"/>
<path opacity="0.6" d="M132.4 113.1C130.2 112 127.4 112.3 125 112.9C122.6 113.5 120.6 109.3 120.6 109.3C120.6 110.7 120.5 111.7 120.5 111.7L118.7 111.4C118.5 112.6 118.4 113.8 118.6 115.1C118.7 115.8 118.8 116.6 119 117.4L131.3 125.5C133.1 125.4 134.6 124.8 135.8 123.7C138 121.6 138.1 118.5 138.1 118.4V113.2C135.8 112 132.4 113.1 132.4 113.1ZM130.8 118C128.2 117.4 127.7 113.8 127.7 113.8C127.7 113.8 132.1 115.3 135.4 114.6C135.4 114.7 134.7 118.9 130.8 118Z" fill="#210049"/>
<path opacity="0.6" d="M118.5 115.1C118.6 115.1 118.6 115.1 118.5 115.1C118.4 113.8 118.4 112.6 118.7 111.5H118.6C118.6 111.4 118.5 111.3 118.4 111.2L118.3 111.3C118.3 111.1 118.2 112.7 118.5 115.1Z" fill="#210049"/>
<path opacity="0.6" d="M130.2 125.5L119.1 118.2C119.2 118.4 119.2 118.7 119.3 118.9L130 125.6C130.1 125.5 130.1 125.5 130.2 125.5Z" fill="#210049"/>
<path opacity="0.6" d="M119 117.8L129.6 124.8L130.7 125.5C130.9 125.5 131.1 125.5 131.2 125.5L118.9 117.4C119 117.5 119 117.6 119 117.8Z" fill="#210049"/>
<path opacity="0.6" d="M119 117.8C119 117.9 119.1 118.1 119.1 118.2L130.2 125.5C130.2 125.5 130.2 125.5 130.3 125.5C130.5 125.5 130.6 125.5 130.8 125.5L129.7 124.8L119 117.8Z" fill="#210049"/>
<path opacity="0.6" d="M138.3 118.4C138.3 118.4 138.1 125.1 131.6 125.7V125.8V126C133.4 125.8 134.9 125.2 136 124.2C137.4 122.7 138.2 120.4 138.6 118.4V113.9C138.5 113.7 138.4 113.5 138.3 113.4V118.4Z" fill="#210049"/>
<path opacity="0.6" d="M130.6 125.8C130.5 125.8 130.4 125.8 130.2 125.8L130 125.6C130 125.6 130 125.7 129.9 125.7C129.9 125.9 130 126 130.2 126C130.3 126 130.4 126 130.5 126C130.7 126 130.8 126 130.9 126L130.6 125.8Z" fill="#210049"/>
<path opacity="0.6" d="M131.3 125.9V126.1C131.4 126.1 131.5 126.1 131.6 126.1V125.9V125.8C131.5 125.8 131.3 125.8 131.2 125.8L131.3 125.9Z" fill="#210049"/>
<path opacity="0.6" d="M131.1 125.7C130.9 125.7 130.8 125.7 130.6 125.7L131 126C131.1 126 131.2 126 131.3 126V125.8L131.1 125.7Z" fill="#210049"/>
<path opacity="0.6" d="M138 113.2V118.4C138 118.4 137.9 121.6 135.7 123.7C134.6 124.8 133.1 125.4 131.2 125.5L131.4 125.7L131.5 125.8C138.1 125.2 138.2 118.5 138.2 118.5V113.5C138.2 113.3 138.1 113.3 138 113.2Z" fill="#210049"/>
<path opacity="0.6" d="M130 125.6L130.2 125.8C130.3 125.8 130.4 125.8 130.6 125.8L130.2 125.5C130.1 125.5 130.1 125.5 130 125.6Z" fill="#210049"/>
<path opacity="0.6" d="M131.3 125.4C131.1 125.4 131 125.4 130.8 125.4L131.2 125.7C131.3 125.7 131.5 125.7 131.6 125.7L131.5 125.6L131.3 125.4Z" fill="#210049"/>
<path opacity="0.6" d="M130.2 125.5L130.6 125.8C130.8 125.8 130.9 125.8 131.1 125.8L130.7 125.5C130.6 125.5 130.4 125.5 130.2 125.5Z" fill="#210049"/>
<path opacity="0.6" d="M127.7 113.9C127.7 113.9 128.2 117.5 130.8 118.1C134.7 119 135.3 114.8 135.3 114.8C132.1 115.4 127.7 113.9 127.7 113.9Z" fill="white"/>
<path opacity="0.6" d="M125.4 110.1C124 110.1 122.8 110.5 122.8 111C122.8 111.6 123.9 112 125.3 112.1C126.7 112.1 127.9 111.7 127.9 111.2C128 110.6 126.8 110.1 125.4 110.1Z" fill="#FFD5E3"/>
<path opacity="0.6" d="M135.2 111.3C135.2 111.9 136.3 112.3 137.7 112.4C137.8 112.4 137.9 112.4 138 112.4V110.4C137.9 110.4 137.8 110.4 137.7 110.4C136.3 110.4 135.2 110.8 135.2 111.3Z" fill="#FFD5E3"/>
<path opacity="0.6" d="M138 112.4C138.1 112.4 138.2 112.4 138.3 112.4V110.4C138.2 110.4 138.1 110.4 138 110.4V112.4Z" fill="#FFD5E3"/>
<path opacity="0.6" d="M127.2 106.7C126.8 106.7 126.4 107.3 126.4 108.1C126.4 108.9 126.7 109.5 127.1 109.5C127.5 109.5 127.9 108.9 127.9 108.1C128 107.3 127.6 106.7 127.2 106.7Z" fill="#210049"/>
<path opacity="0.6" d="M134.7 106.8C134.3 106.8 133.9 107.4 133.9 108.2C133.9 109 134.2 109.6 134.6 109.6C135 109.6 135.4 109 135.4 108.2C135.4 107.4 135.2 106.9 134.7 106.8Z" fill="#210049"/>
<path opacity="0.6" d="M131.6 105.1C131.5 104.9 131.3 104.9 131.2 104.9C131 105 131 105.2 131 105.3C131 105.3 132.2 107.9 133.4 110.5C133.2 110.8 132.7 111.4 131.5 111.3C131.3 111.3 131.2 111.4 131.2 111.6C131.2 111.8 131.3 111.9 131.5 111.9C133.4 111.9 134 110.7 134 110.6C134 110.5 134 110.4 134 110.3C132.8 107.8 131.6 105.1 131.6 105.1Z" fill="#210049"/>
<path opacity="0.6" d="M127.7 102.2C125.1 102.3 124.4 103.7 124.2 104.5C124.1 104.8 124.2 105.1 124.5 105.2H124.6C124.9 105.4 125.4 105.3 125.6 105C126.2 103.9 127.2 103.6 127.9 103.5C128.3 103.4 128.5 103.1 128.4 102.7C128.3 102.4 128 102.2 127.7 102.2Z" fill="#210049"/>
<path opacity="0.6" d="M133.3 102.8C133.2 103.2 133.4 103.6 133.8 103.7C134.5 103.8 135.5 104.2 136 105.4C136.2 105.8 136.6 105.9 136.9 105.7H137C137.2 105.6 137.3 105.3 137.3 105.1C136.9 104.6 136.5 103.9 136 103.1C135.5 102.8 134.9 102.6 134 102.5C133.7 102.3 133.4 102.5 133.3 102.8Z" fill="#210049"/>
<path opacity="0.6" d="M137.4 104.9C137.3 104.4 137 103.6 136.1 103C136.5 103.7 137 104.4 137.4 104.9Z" fill="#210049"/>
<path opacity="0.6" d="M114.2 109C113.9 109.2 113.5 109.4 113.2 109.9C112.2 111.3 112.8 114.3 114.4 116.1C114.8 116.6 115.6 117.2 116.5 117.2L116.4 113C115.7 111.9 114.8 110.5 114.2 109Z" fill="white"/>
<path opacity="0.6" d="M116.3 109.3C115.9 109 115.4 108.8 114.9 108.8C114.6 108.8 114.4 108.9 114.2 109C114.8 110.6 115.7 111.9 116.4 112.9L116.3 109.3Z" fill="white"/>
<path opacity="0.6" d="M117.2 116.2L118 116.7C118.1 116.7 118.1 116.7 118.2 116.7V114.8C117.9 114.6 117.6 114.2 117.1 113.7L117.2 116.2C117.1 116.2 117.2 116.2 117.2 116.2Z" fill="white"/>
<path opacity="0.6" d="M118.1 114.7L118.2 110.9C118.1 110.9 118 110.9 118 110.8C118 110.8 117.6 110.2 117 109.7L117.1 113.6C117.5 114.1 117.9 114.5 118.1 114.7Z" fill="white"/>
<path opacity="0.6" d="M117.9 116.7L117.1 116.2V116.6L117.5 116.9C117.7 116.8 117.8 116.7 117.9 116.7Z" fill="white"/>
<path opacity="0.6" d="M117.2 117C117.3 117 117.5 116.9 117.6 116.8L117.2 116.5V117Z" fill="white"/>
<path opacity="0.6" d="M116.8 116.2L116.7 113.3C116.6 113.2 116.5 113 116.4 112.9L116.5 117.1H116.6V116.5C116.7 116.3 116.8 116.2 116.8 116.2Z" fill="white"/>
<path opacity="0.6" d="M116.8 113.2L116.7 109.4C116.6 109.3 116.5 109.3 116.4 109.2L116.5 112.8C116.6 113 116.7 113.1 116.8 113.2Z" fill="white"/>
<path opacity="0.6" d="M116.9 117.1V116.2C116.8 116.3 116.7 116.3 116.7 116.5V117.1C116.7 117.1 116.8 117.1 116.9 117.1Z" fill="white"/>
<path opacity="0.6" d="M117.1 116.2L117 113.6C116.9 113.5 116.8 113.4 116.7 113.2L116.8 116.1C116.9 116.1 117.1 116.1 117.1 116.2Z" fill="white"/>
<path opacity="0.6" d="M117.1 113.6L117 109.7C116.9 109.6 116.8 109.5 116.7 109.4L116.8 113.2C116.9 113.4 117 113.5 117.1 113.6Z" fill="white"/>
<path opacity="0.6" d="M117.2 116.5V116.1C117.1 116 117 116 116.9 116.1V117H117V116.4L117.2 116.5Z" fill="white"/>
<path opacity="0.6" d="M117.2 116.5L117 116.4V117C117.1 117 117.1 117 117.2 117V116.5Z" fill="white"/>
<path opacity="0.6" d="M116.6 117.4C113.6 117.4 111.4 111.9 113 109.7C113.4 109.2 113.7 108.9 114.1 108.7C114.1 108.6 114 108.5 114 108.4C113.5 108.6 113.1 109 112.7 109.5C111.4 111.2 112.3 114.7 114 116.4C114.8 117.3 115.7 117.7 116.6 117.7C116.6 117.7 116.6 117.7 116.7 117.7V117.6C116.6 117.5 116.6 117.4 116.6 117.4Z" fill="#210049"/>
<path opacity="0.6" d="M116.3 108.9V108.5C115.9 108.3 115.4 108.1 114.9 108.1C114.6 108.1 114.3 108.2 114 108.3C114 108.4 114.1 108.5 114.1 108.6C114.9 108.3 115.7 108.5 116.3 108.9Z" fill="#210049"/>
<path opacity="0.6" d="M116.7 117.6V117.7C116.8 117.7 116.8 117.7 116.9 117.7C116.8 117.7 116.7 117.6 116.7 117.6Z" fill="#210049"/>
<path opacity="0.6" d="M117.1 117.5C117.1 117.6 117 117.6 116.9 117.6C117 117.6 117.1 117.6 117.2 117.5H117.1Z" fill="#210049"/>
<path opacity="0.6" d="M118.4 117C118.4 116.9 118.4 116.9 118.4 116.8C118.3 116.7 118.2 116.7 118.2 116.7V116.8L118.4 117Z" fill="#210049"/>
<path opacity="0.6" d="M118.2 110.7V110.9H118.3C118.3 110.8 118.3 110.8 118.2 110.7Z" fill="#210049"/>
<path opacity="0.6" d="M117.8 110.2C117.5 109.8 117.2 109.5 116.9 109.3C117.3 109.6 117.6 109.9 117.8 110.2Z" fill="#210049"/>
<path opacity="0.6" d="M117.3 117.3V117.6C117.5 117.5 117.7 117.5 117.9 117.4L117.6 117.2C117.5 117.2 117.4 117.3 117.3 117.3Z" fill="#210049"/>
<path opacity="0.6" d="M118.4 117L118.1 116.8V117C118 117 118 117.1 117.9 117.1L118.2 117.3C118.3 117.1 118.3 117.1 118.4 117Z" fill="#210049"/>
<path opacity="0.6" d="M117.9 117C117.8 117.1 117.7 117.1 117.6 117.1L117.9 117.3C118 117.3 118.1 117.2 118.2 117.1L117.9 117Z" fill="#210049"/>
<path opacity="0.6" d="M117.3 117.3C117.2 117.3 117.2 117.3 117.3 117.3C117.2 117.4 117.2 117.5 117.2 117.5L117.3 117.6V117.3Z" fill="#210049"/>
<path opacity="0.6" d="M116.6 117.4C116.6 117.5 116.6 117.5 116.7 117.6L116.6 117.4Z" fill="#210049"/>
<path opacity="0.6" d="M116.6 109.1V108.7C116.5 108.6 116.4 108.6 116.3 108.5V108.9C116.4 108.9 116.5 109 116.6 109.1Z" fill="#210049"/>
<path opacity="0.6" d="M117 117.4C116.8 117.3 116.8 117.4 116.7 117.4V117.6C116.8 117.7 116.8 117.7 116.9 117.7C116.9 117.7 116.9 117.7 117 117.7V117.4Z" fill="#210049"/>
<path opacity="0.6" d="M117 117.6C117.1 117.6 117.1 117.5 117.2 117.5L117 117.4V117.6Z" fill="#210049"/>
<path opacity="0.6" d="M116.8 109.2L116.9 109.3C116.9 109.3 116.9 109.3 116.8 109.2Z" fill="#210049"/>
<path opacity="0.6" d="M116.6 109.1C116.7 109.2 116.7 109.2 116.8 109.2C116.8 109.2 116.7 109.1 116.6 109.1Z" fill="#210049"/>
<path opacity="0.6" d="M117.2 117.3C117.1 117.3 117.1 117.3 117 117.3V117.4L117.2 117.5C117.2 117.5 117.2 117.4 117.2 117.3Z" fill="#210049"/>
<path opacity="0.6" d="M114.4 116C112.8 114.3 112.2 111.2 113.2 109.8C113.5 109.4 113.8 109.1 114.2 108.9C114.2 108.8 114.1 108.7 114.1 108.6C113.7 108.8 113.3 109.1 113 109.6C111.4 111.8 113.6 117.3 116.6 117.3V117C115.6 117.1 114.9 116.4 114.4 116Z" fill="#210049"/>
<path opacity="0.6" d="M115 108.8C115.5 108.8 116 109 116.4 109.3V108.9C115.7 108.5 114.9 108.3 114.2 108.7C114.2 108.8 114.3 108.9 114.3 109C114.5 108.8 114.7 108.8 115 108.8Z" fill="#210049"/>
<path opacity="0.6" d="M118.1 116.7C118 116.7 118 116.7 117.9 116.7L118.1 116.8V116.7Z" fill="#210049"/>
<path opacity="0.6" d="M118 110.8C118.1 110.9 118.1 110.9 118.2 110.9V110.7C118.1 110.5 118 110.3 117.8 110.2C117.6 109.9 117.3 109.6 116.9 109.3V109.7C117.6 110.2 118 110.8 118 110.8Z" fill="#210049"/>
<path opacity="0.6" d="M117.3 117V117.3C117.4 117.3 117.5 117.2 117.6 117.2L117.3 117Z" fill="#210049"/>
<path opacity="0.6" d="M118.1 116.8L117.9 116.7C117.8 116.8 117.7 116.8 117.6 116.9L117.9 117.1C118 117.1 118 117.1 118.1 117V116.8Z" fill="#210049"/>
<path opacity="0.6" d="M117.6 117.2C117.7 117.2 117.8 117.1 117.9 117.1L117.6 116.9C117.5 117 117.3 117 117.2 117.1V117.4H117.3V117.1L117.6 117.2Z" fill="#210049"/>
<path opacity="0.6" d="M116.7 117.1H116.6V117.4H116.7V117.1Z" fill="#210049"/>
<path opacity="0.6" d="M116.6 109.5V109.1C116.5 109 116.4 109 116.3 108.9V109.3C116.4 109.3 116.6 109.4 116.6 109.5Z" fill="#210049"/>
<path opacity="0.6" d="M116.7 117.1V117.4C116.8 117.4 116.8 117.4 116.9 117.4V117.1C116.8 117.1 116.7 117.1 116.7 117.1Z" fill="#210049"/>
<path opacity="0.6" d="M117 109.7V109.3L116.9 109.2C116.8 109.2 116.8 109.1 116.7 109.1V109.5C116.8 109.5 116.9 109.6 117 109.7Z" fill="#210049"/>
<path opacity="0.6" d="M117 117H116.9V117.3H117V117Z" fill="#210049"/>
<path opacity="0.6" d="M117 117V117.3C117.1 117.3 117.1 117.3 117.2 117.3V117C117.1 117 117 117 117 117Z" fill="#210049"/>
<path opacity="0.6" d="M120.4 107.1C119.7 108.2 119.2 109.4 118.8 110.7L120.5 109.3C120.6 108.6 120.6 107.8 120.4 107.1Z" fill="#210049"/>
<path opacity="0.6" d="M134.3 100C133.9 99.3 133.6 98.6 133.3 97.9C132.1 98.2 130.7 98.7 129.4 99.4C131.1 99.9 132.9 100.2 134.3 100Z" fill="#210049"/>
<path opacity="0.6" d="M118.5 110.5C118.6 110.6 118.6 110.8 118.4 110.9H118.3C118.3 111 118.4 111 118.4 111.1L118.9 110.7C119.2 109.4 119.8 108.2 120.5 107.1C120.4 106.8 120.4 106.4 120.3 106.1C119.7 103.6 122.9 103.5 122 100.2C122 100.2 124.4 97.8 127.8 98.9C128.3 99.1 128.9 99.2 129.4 99.4C130.8 98.7 132.1 98.2 133.3 97.9C133.1 97.3 132.9 96.8 132.9 96.3C130.3 95.3 127 95.1 123.4 95.7C120.4 96.2 118.3 97.9 117.4 100.6C116.7 102.7 116.9 104.6 116.9 104.6L117 108.9C117.8 109.6 118.4 110.4 118.5 110.5Z" fill="#210049"/>
<path opacity="0.6" d="M134.3 100C135.1 99.9 135.8 99.6 136.3 99.2C136.4 99.1 136.5 99 136.5 98.9L136.4 98.8C136 98.4 135.6 98 135.1 97.7C134.5 97.8 133.9 97.9 133.2 98.1C133.5 98.5 133.9 99.2 134.3 100Z" fill="#210049"/>
<path opacity="0.6" d="M135.1 97.5C134.4 97 133.7 96.6 132.8 96.3C132.8 96.7 133 97.3 133.2 97.9C133.9 97.7 134.5 97.6 135.1 97.5Z" fill="#210049"/>
<path opacity="0.6" d="M132.7 95.9C130.1 95 126.8 94.8 123.3 95.3C121.9 95.5 120.7 96 119.8 96.6C120.7 96 121.8 95.5 123.3 95.3C126.8 94.8 130.1 95 132.7 95.9Z" fill="#210049"/>
<path opacity="0.6" d="M134.2 96.6C133.8 96.4 133.3 96.2 132.8 96C133.3 96.2 133.8 96.4 134.2 96.6Z" fill="#210049"/>
<path opacity="0.6" d="M116.9 108.9L116.8 104.6C116.8 104.6 116.6 102.6 117.3 100.6C118.3 97.8 120.3 96.2 123.3 95.7C126.9 95.1 130.2 95.4 132.8 96.3C132.8 96.2 132.8 96.1 132.8 96H132.7C130.1 95.1 126.8 94.9 123.3 95.4C121.9 95.6 120.7 96.1 119.8 96.7C115.9 99.4 116.5 104.6 116.5 104.6L116.6 107.7V108.7C116.7 108.8 116.8 108.9 116.9 108.9Z" fill="#210049"/>
<path opacity="0.6" d="M136.4 98.6L136.5 98.7C136.6 98.6 136.6 98.5 136.6 98.4C136.3 98 135.9 97.7 135.6 97.4C135.5 97.4 135.3 97.4 135.1 97.4C135.6 97.9 136 98.2 136.4 98.6Z" fill="#210049"/>
<path opacity="0.6" d="M132.8 96.3C133.6 96.6 134.4 97 135.1 97.5C135.3 97.5 135.4 97.5 135.6 97.5C135.2 97.2 134.7 96.9 134.3 96.6C133.9 96.4 133.4 96.2 132.9 96C132.8 96.1 132.8 96.2 132.8 96.3Z" fill="#210049"/>
<path opacity="0.6" d="M120.5 111.7C120.5 111.7 120.6 110.7 120.6 109.3L118.9 110.7C118.8 110.9 118.8 111.2 118.7 111.4L120.5 111.7Z" fill="#210049"/>
<path opacity="0.6" d="M118.7 111.4C118.7 111.2 118.8 110.9 118.9 110.7L118.4 111.1C118.5 111.2 118.5 111.3 118.6 111.4H118.7Z" fill="#210049"/>
<path opacity="0.6" d="M117.8 110.2C118 110.5 118.2 110.7 118.2 110.7V110.8C118.2 110.9 118.3 110.9 118.3 111H118.4C118.5 110.9 118.6 110.7 118.5 110.6C118.5 110.5 117.9 109.7 117 109.1V109.5C117.2 109.5 117.6 109.8 117.8 110.2Z" fill="#210049"/>
<path opacity="0.6" d="M116.8 109.2C116.8 109.2 116.9 109.2 116.9 109.3V108.9C116.8 108.8 116.7 108.8 116.6 108.7V109.1C116.7 109.1 116.8 109.2 116.8 109.2Z" fill="#210049"/>
<path opacity="0.6" d="M117.8 110.2C117.9 110.4 118.1 110.5 118.2 110.7V110.6C118.2 110.6 118.1 110.5 117.8 110.2Z" fill="#210049"/>
</g>
<path d="M66.5 126.5L69.2 139.2L80.6 136.8" stroke="white" stroke-width="1.2149" stroke-miterlimit="10" stroke-linecap="round" stroke-linejoin="round"/>
<path d="M66.2 68.5L54.8 70.9L57.5 83.6" stroke="white" stroke-width="1.2149" stroke-miterlimit="10" stroke-linecap="round" stroke-linejoin="round"/>
<path d="M155.1 119.6L166.5 117.2L163.9 104.5" stroke="white" stroke-width="1.2149" stroke-miterlimit="10" stroke-linecap="round" stroke-linejoin="round"/>
<path d="M154.8 61.6L152.1 48.9L140.7 51.3" stroke="white" stroke-width="1.2149" stroke-miterlimit="10" stroke-linecap="round" stroke-linejoin="round"/>
</g>
<rect x="2.5" y="0.5" width="239" height="247" stroke="#2FCAD7" stroke-opacity="0.01" stroke-dasharray="5 5"/>
<defs>
<clipPath id="clip0">
<rect width="244.3" height="242.3" fill="white" transform="translate(0 3)"/>
</clipPath>
</defs>
</svg>
