<svg width="240" height="248" viewBox="0 0 240 248" fill="none" xmlns="http://www.w3.org/2000/svg">
<rect x="0.5" y="0.5" width="239" height="247" stroke="#2FCAD7" stroke-opacity="0.01" stroke-dasharray="5 5"/>
<path d="M171.392 60.8474C170.165 55.417 168.238 52.6048 164.996 48.338C159.213 40.7742 153.255 32.9194 145.195 28.4587C124.605 16.919 96.4808 28.9436 86.2298 51.1502C82.2871 59.6838 79.9215 63.7566 72.4742 69.478C59.6824 79.4661 45.0506 85.9633 31.996 95.5635C12.4578 109.818 0.804954 128.631 3.3458 154.814C5.79902 180.026 22.0078 200.681 42.685 203.882C61.4347 206.694 81.7614 196.221 100.248 199.906C113.653 202.524 123.466 211.348 133.717 220.27C144.844 229.967 158.162 236.949 172.356 238.695C211.958 243.349 247.88 193.893 235.526 151.807C231.058 136.583 226.151 127.952 214.06 118.934C203.459 111.079 191.719 104.776 182.431 94.8847C173.933 85.5754 174.196 73.066 171.392 60.8474Z" fill="#D9F5EC"/>
<path d="M212.1 223.7H61.7998C56.4998 223.7 52.2998 219.4 52.2998 214.2V126.4C52.2998 121.1 56.5998 116.9 61.7998 116.9H212.1C217.4 116.9 221.6 121.2 221.6 126.4V214.2C221.6 219.4 217.3 223.7 212.1 223.7Z" fill="#ECF1FF" stroke="#210049" stroke-width="1.8" stroke-miterlimit="10" stroke-linecap="round" stroke-linejoin="round"/>
<path d="M203.7 136.8H173.1C172.1 136.8 171.3 136 171.3 135C171.3 134 172.1 133.2 173.1 133.2H203.7C204.7 133.2 205.5 134 205.5 135C205.4 136 204.6 136.8 203.7 136.8Z" fill="#4376FF"/>
<path d="M170.4 144.2H130.3C129.8 144.2 129.4 143.8 129.4 143.3C129.4 142.8 129.8 142.4 130.3 142.4H170.4C170.9 142.4 171.3 142.8 171.3 143.3C171.3 143.8 170.9 144.2 170.4 144.2Z" fill="#4376FF"/>
<path d="M170.4 157.1H130.3C129.8 157.1 129.4 156.7 129.4 156.2C129.4 155.7 129.8 155.3 130.3 155.3H170.4C170.9 155.3 171.3 155.7 171.3 156.2C171.3 156.7 170.9 157.1 170.4 157.1Z" fill="#4376FF"/>
<path d="M177.6 182.9H137.5C137 182.9 136.6 182.5 136.6 182C136.6 181.5 137 181.1 137.5 181.1H177.6C178.1 181.1 178.5 181.5 178.5 182C178.5 182.5 178.1 182.9 177.6 182.9Z" fill="#4376FF"/>
<path d="M149.5 164.2H138.2C137.3 164.2 136.6 163.5 136.6 162.6C136.6 161.7 137.3 161 138.2 161H149.5C150.4 161 151.1 161.7 151.1 162.6C151.1 163.5 150.4 164.2 149.5 164.2Z" fill="#4376FF"/>
<path d="M169.3 164.2H158C157.1 164.2 156.4 163.5 156.4 162.6C156.4 161.7 157.1 161 158 161H169.3C170.2 161 170.9 161.7 170.9 162.6C170.9 163.5 170.2 164.2 169.3 164.2Z" fill="#4376FF"/>
<path d="M189.1 164.2H177.8C176.9 164.2 176.2 163.5 176.2 162.6C176.2 161.7 176.9 161 177.8 161H189.1C190 161 190.7 161.7 190.7 162.6C190.7 163.5 190 164.2 189.1 164.2Z" fill="#4376FF"/>
<path d="M194.7 151.3H138.2C137.3 151.3 136.6 150.6 136.6 149.7C136.6 148.8 137.3 148.1 138.2 148.1H194.7C195.6 148.1 196.3 148.8 196.3 149.7C196.3 150.6 195.6 151.3 194.7 151.3Z" fill="#4376FF"/>
<path d="M182.3 177.1H138C137.2 177.1 136.6 176.5 136.6 175.7V175.4C136.6 174.6 137.2 174 138 174H182.3C183.1 174 183.7 174.6 183.7 175.4V175.7C183.7 176.5 183.1 177.1 182.3 177.1Z" fill="#4376FF"/>
<path d="M148.6 170H130.3C129.8 170 129.4 169.6 129.4 169.1C129.4 168.6 129.8 168.2 130.3 168.2H148.6C149.1 168.2 149.5 168.6 149.5 169.1C149.5 169.6 149.1 170 148.6 170Z" fill="#4376FF"/>
<path d="M118.9 128.9H72.5C70.9 128.9 69.5 130.2 69.5 131.9V184.6C69.5 186.2 70.8 187.6 72.5 187.6H119C120.6 187.6 122 186.3 122 184.6V131.9C121.9 130.3 120.6 128.9 118.9 128.9Z" fill="white"/>
<path d="M102.4 180C98.2999 181.8 93.5999 181.8 89.3999 180.2C88.9999 180 88.5999 180.2 88.4999 180.6C88.3999 181 88.4999 181.4 88.8999 181.5C93.4999 183.3 98.4999 183.3 103.1 181.3C103.5 181.2 103.7 180.7 103.5 180.4C103.3 180.1 102.8 179.8 102.4 180Z" fill="#4376FF"/>
<path d="M104 135.2C103.7 135 103.2 135.1 103 135.4C102.8 135.7 102.9 136.2 103.2 136.4C103.2 136.4 103.3 136.4 103.3 136.5C106.7 138.3 109.5 141.1 111.1 144.7C111.3 145.1 111.7 145.2 112.1 145.1C112.5 144.9 112.6 144.5 112.5 144.1C110.8 140.2 107.8 137.1 104 135.2Z" fill="#4376FF"/>
<path d="M90.9998 133.8C82.8998 135.9 77.2998 143.2 77.2998 151.6V155.1C77.2998 155.5 77.5998 155.8 77.9998 155.9C78.3998 156 78.6998 155.6 78.7998 155.2C78.7998 155.2 78.7998 155.2 78.7998 155.1V151.6C78.7998 143.9 83.9998 137.2 91.3998 135.2C91.7998 135.1 91.9998 134.7 91.8998 134.3C91.7998 133.9 91.3998 133.7 90.9998 133.8Z" fill="#4376FF"/>
<path d="M106.9 179.2C107 178.8 106.8 178.4 106.4 178.3C105.5 178.1 104.7 177.8 103.9 177.5C97.2999 175.1 91.5999 175.1 86.9999 177.5C86.2999 177.9 85.5999 178.1 84.7999 178.3C84.3999 178.4 84.1999 178.8 84.2999 179.2C84.3999 179.5 84.6999 179.7 84.9999 179.7C85.0999 179.7 85.0999 179.7 85.1999 179.7C85.9999 179.5 86.8999 179.2 87.5999 178.7C91.7999 176.4 97.0999 176.4 103.3 178.7C104.2 179 105.1 179.3 106 179.5C106.4 179.9 106.8 179.6 106.9 179.2Z" fill="#4376FF"/>
<path d="M110.5 177.2C110.9 177.2 111.2 176.9 111.2 176.5C111.2 176.1 110.9 175.8 110.6 175.8C109 175.6 107.4 175.2 105.9 174.5C98.2999 170.9 93.8999 170.7 88.2999 173.4C86.2999 174.4 83.6998 175 80.5998 175.4C80.1998 175.4 79.8999 175.8 79.9999 176.2C79.9999 176.6 80.3999 176.9 80.7999 176.8C84.0999 176.4 86.8999 175.7 88.9999 174.7C93.4999 172.5 97.2999 172.1 105.3 175.9C106.9 176.5 108.6 177 110.5 177.2Z" fill="#4376FF"/>
<path d="M112.7 174C113.1 174 113.4 173.7 113.4 173.3C113.4 172.9 113.1 172.6 112.7 172.6C110.9 172.5 109.2 171.9 107.7 170.9C97.8997 164.5 91.8997 166.8 86.5997 169.8C84.6997 170.9 81.8998 171.6 78.4998 172.1C78.0998 172.2 77.7998 172.5 77.8998 172.9C77.9998 173.3 78.2997 173.5 78.6997 173.5C82.2997 173 85.1998 172.2 87.2998 171C92.4998 168.2 97.8998 166.1 106.9 172.1C108.6 173.2 110.6 173.9 112.7 174Z" fill="#4376FF"/>
<path d="M113.4 158.7C108 157.7 104.4 153.6 103.1 149.9C102.9 149.3 102.6 148.7 102.3 148.1C101 145.9 98.4997 145.1 96.1997 145.9C94.1997 146.6 92.2997 148.5 92.5997 151.4C92.6997 152.2 92.7997 153 93.0997 153.8C97.8997 165.7 107.9 168.5 113.5 169.2H113.6C114 169.2 114.3 168.9 114.3 168.5C114.3 168.1 114 167.8 113.6 167.8C108.4 167.2 98.8997 164.5 94.3997 153.3C94.1997 152.7 93.9997 152 93.9997 151.3C93.7997 149 95.2997 147.7 96.6997 147.3C97.9997 146.9 99.9997 147 101.2 148.9C101.5 149.4 101.7 149.9 101.9 150.4C103.3 154.5 107.4 159.1 113.3 160.2C113.7 160.3 114.1 160 114.1 159.6C114 159.1 113.8 158.7 113.4 158.7Z" fill="#4376FF"/>
<path d="M113.5 163.4C108.7 162.6 104.7 160.3 101.7 156.6C99.4999 153.8 98.6999 151.2 98.6999 151.2C98.5999 150.8 98.1999 150.6 97.7999 150.7C97.3999 150.8 97.1999 151.2 97.2999 151.6C97.2999 151.7 98.1999 154.4 100.5 157.5C102.7 160.3 106.7 163.8 113.2 164.9H113.3C113.7 164.9 114 164.6 114 164.2C114.1 163.8 113.8 163.5 113.5 163.4Z" fill="#4376FF"/>
<path d="M77.9997 170.4H78.0997C82.6997 169.7 86.7996 168.1 90.1996 165.7C92.0996 164.4 94.4997 164.2 96.5997 165.2C97.8997 165.8 99.1997 166.3 100.5 166.7C100.9 166.8 101.3 166.6 101.4 166.2C101.5 165.8 101.3 165.4 100.9 165.3C99.5997 164.9 98.3997 164.5 97.1996 163.9C94.6996 162.7 91.6997 162.9 89.3997 164.5C86.0997 166.8 82.1997 168.3 77.8997 169C77.4997 169.1 77.1997 169.4 77.2997 169.8C77.3997 170.2 77.6997 170.4 77.9997 170.4Z" fill="#4376FF"/>
<path d="M77.2998 166.9C77.3998 167.2 77.6998 167.5 77.9998 167.5H78.0998C83.7998 166.3 88.5998 163.7 92.2998 159.8C92.5998 159.5 92.5998 159.1 92.2998 158.8C91.9998 158.5 91.5998 158.5 91.2998 158.8C87.7998 162.5 83.1998 164.9 77.8998 166C77.4998 166.1 77.2998 166.5 77.2998 166.9Z" fill="#4376FF"/>
<path d="M77.8997 162.5C77.4997 162.6 77.1997 162.9 77.2997 163.3C77.3997 163.7 77.6997 163.9 77.9997 163.9H78.0997C81.6997 163.4 84.5997 161.9 86.4997 159.6C87.9997 157.8 88.7997 155.4 88.5997 153C88.3997 150.1 88.7997 145.1 93.9997 143.2C95.0997 142.8 96.2997 142.6 97.4997 142.6C100.1 142.7 102.2 144 103.7 146.5C106.8 151.6 109.6 154.1 113.1 154.7C113.5 154.8 113.9 154.5 114 154.1C114.1 153.7 113.8 153.3 113.4 153.2C110.4 152.6 107.9 150.4 105 145.7C100.9 139 93.9997 141.6 93.4997 141.8C87.1997 144.1 86.9996 150.5 87.1996 153.1C87.3996 155.1 86.6997 157.1 85.4997 158.6C83.2997 161.2 80.1997 162.2 77.8997 162.5Z" fill="#4376FF"/>
<path d="M94.4999 136.6C86.7999 138.3 83.7999 142.7 83.3999 152.6C83.2999 156 81.3999 158.2 77.7999 159.1C77.3999 159.2 77.1999 159.6 77.2999 160C77.3999 160.3 77.6999 160.6 77.9999 160.6C78.0999 160.6 78.0999 160.6 78.1999 160.6C82.3999 159.5 84.6999 156.8 84.8999 152.8C85.1999 143.6 87.8999 139.8 94.7999 138.2C97.6999 137.5 100.6 138.1 103.2 140C104.9 141.2 106.2 142.7 107.2 144.4C108.1 145.9 110 148.7 113.1 149.9C113.5 150 113.9 149.8 114 149.4C114.1 149 113.9 148.7 113.6 148.5C110.9 147.5 109.2 145 108.5 143.6C107.4 141.6 105.9 140 104.1 138.7C101.1 136.6 97.7999 135.9 94.4999 136.6Z" fill="#4376FF"/>
<path d="M133 212.9H70.7997C70.4997 212.9 70.1997 212.6 70.1997 212.3C70.1997 212 70.4997 211.7 70.7997 211.7H133C133.3 211.7 133.6 212 133.6 212.3C133.6 212.7 133.3 212.9 133 212.9Z" fill="#4376FF"/>
<path d="M172.5 212.9H153.2C152.9 212.9 152.7 212.7 152.7 212.4V212.3C152.7 212 152.9 211.8 153.2 211.8H172.5C172.8 211.8 173 212 173 212.3V212.4C173 212.7 172.8 212.9 172.5 212.9Z" fill="#4376FF"/>
<path d="M201.9 212.9H182.6C182.3 212.9 182.1 212.7 182.1 212.4V212.3C182.1 212 182.3 211.8 182.6 211.8H201.9C202.2 211.8 202.4 212 202.4 212.3V212.4C202.4 212.7 202.2 212.9 201.9 212.9Z" fill="#4376FF"/>
<path d="M102.5 195.3H99.1997V208.9H102.5V195.3Z" fill="#4376FF"/>
<path d="M94.9997 195.3H91.6997V208.9H94.9997V195.3Z" fill="#4376FF"/>
<path d="M81.2995 195.3H77.9995V208.9H81.2995V195.3Z" fill="#4376FF"/>
<path d="M73.7995 195.3H70.4995V208.9H73.7995V195.3Z" fill="#4376FF"/>
<path d="M97.7994 195.3H96.3994V208.9H97.7994V195.3Z" fill="#4376FF"/>
<path d="M89.7994 195.3H88.3994V208.9H89.7994V195.3Z" fill="#4376FF"/>
<path d="M84.0997 195.3H82.6997V208.9H84.0997V195.3Z" fill="#4376FF"/>
<path d="M76.5997 195.3H75.1997V208.9H76.5997V195.3Z" fill="#4376FF"/>
<path d="M86.9996 195.3H85.5996V208.9H86.9996V195.3Z" fill="#4376FF"/>
<path d="M136.2 195.3H132.9V208.9H136.2V195.3Z" fill="#4376FF"/>
<path d="M128.7 195.3H125.4V208.9H128.7V195.3Z" fill="#4376FF"/>
<path d="M115 195.3H111.7V208.9H115V195.3Z" fill="#4376FF"/>
<path d="M107.5 195.3H104.2V208.9H107.5V195.3Z" fill="#4376FF"/>
<path d="M131.5 195.3H130.1V208.9H131.5V195.3Z" fill="#4376FF"/>
<path d="M123.5 195.3H122.1V208.9H123.5V195.3Z" fill="#4376FF"/>
<path d="M117.8 195.3H116.4V208.9H117.8V195.3Z" fill="#4376FF"/>
<path d="M110.3 195.3H108.9V208.9H110.3V195.3Z" fill="#4376FF"/>
<path d="M120.6 195.3H119.2V208.9H120.6V195.3Z" fill="#4376FF"/>
<path d="M169.899 195.3H166.599V208.9H169.899V195.3Z" fill="#4376FF"/>
<path d="M162.399 195.3H159.099V208.9H162.399V195.3Z" fill="#4376FF"/>
<path d="M148.699 195.3H145.399V208.9H148.699V195.3Z" fill="#4376FF"/>
<path d="M141.099 195.3H137.799V208.9H141.099V195.3Z" fill="#4376FF"/>
<path d="M165.199 195.3H163.799V208.9H165.199V195.3Z" fill="#4376FF"/>
<path d="M157.199 195.3H155.799V208.9H157.199V195.3Z" fill="#4376FF"/>
<path d="M151.499 195.3H150.099V208.9H151.499V195.3Z" fill="#4376FF"/>
<path d="M143.999 195.3H142.599V208.9H143.999V195.3Z" fill="#4376FF"/>
<path d="M154.299 195.3H152.899V208.9H154.299V195.3Z" fill="#4376FF"/>
<path d="M203.599 195.3H200.299V208.9H203.599V195.3Z" fill="#4376FF"/>
<path d="M196 195.3H192.7V208.9H196V195.3Z" fill="#4376FF"/>
<path d="M182.4 195.3H179.1V208.9H182.4V195.3Z" fill="#4376FF"/>
<path d="M174.8 195.3H171.5V208.9H174.8V195.3Z" fill="#4376FF"/>
<path d="M198.9 195.3H197.5V208.9H198.9V195.3Z" fill="#4376FF"/>
<path d="M190.799 195.3H189.399V208.9H190.799V195.3Z" fill="#4376FF"/>
<path d="M185.199 195.3H183.799V208.9H185.199V195.3Z" fill="#4376FF"/>
<path d="M177.6 195.3H176.2V208.9H177.6V195.3Z" fill="#4376FF"/>
<path d="M188 195.3H186.6V208.9H188V195.3Z" fill="#4376FF"/>
<path d="M195.3 181.4C196.9 179.6 197.1 176.7 195.8 174.7C195.4 174.1 194.7 173.5 193.9 173.5C193.3 173.6 192.8 174.1 192.5 174.7C192.3 175.3 192.3 175.9 192.2 176.6C192.2 178.8 192.1 181.1 192.6 183.3C192.8 184.3 193.3 185.3 194.2 185.6C194.6 185.7 195.1 185.6 195.5 185.4C196.8 184.8 197.5 183.2 197.8 181.8C198.2 180.2 198.3 178.2 197 177.1C196.8 177 196.6 176.8 196.4 176.8C195.8 176.7 195.3 177.3 195.1 177.9C194.5 179.3 194.7 181 195.5 182.3C195.9 182.9 196.5 183.5 197.1 183.3C197.5 183.2 197.8 183 198 182.7C199.2 181.4 199.4 179.4 198.6 177.9C197.5 179.3 197.3 181.4 198.2 183C198.4 183.4 198.7 183.8 199.2 183.8C199.8 183.9 200.3 183.3 200.6 182.7C201 181.7 201.1 180.6 200.9 179.6C200.6 180.4 200.8 181.3 201.2 182C201.3 182.2 201.5 182.3 201.6 182.4C201.9 182.5 202.2 182.1 202.4 181.8C202.8 180.8 203 179.8 202.9 178.7C202.7 180 203.2 181.5 204.1 182.4C204.3 182.6 204.5 182.8 204.8 182.8C205.6 183 206.4 182.2 206.6 181.3C206.8 180.5 206.6 179.6 206.7 178.7C206.6 179.9 207.7 181.1 208.9 181.1" stroke="#4376FF" stroke-width="0.7778" stroke-miterlimit="10" stroke-linecap="round" stroke-linejoin="round"/>
<path d="M190.2 185.7H210.7" stroke="#4376FF" stroke-width="0.7778" stroke-miterlimit="10" stroke-linecap="round" stroke-linejoin="round"/>
<path d="M190.8 141.2L44.2997 174.6C39.1996 175.8 33.9997 172.5 32.8997 167.4L13.3997 81.8001C12.1996 76.7001 15.4996 71.5001 20.5996 70.4001L167.1 37.0001C172.2 35.8001 177.4 39.1001 178.5 44.2001L198 129.8C199.2 134.8 196 140 190.8 141.2Z" fill="white" stroke="#210049" stroke-width="1.8" stroke-miterlimit="10" stroke-linecap="round" stroke-linejoin="round"/>
<path d="M46.1997 156.6L117.5 140.3" stroke="#4376FF" stroke-width="0.7778" stroke-miterlimit="10" stroke-linecap="round" stroke-linejoin="round"/>
<path d="M97.6994 69.0001L32.9995 83.7001C31.9995 83.9001 30.9995 83.3001 30.6995 82.3001C30.4995 81.3001 31.0995 80.3001 32.0995 80.0001L96.7995 65.2001C97.7995 65.0001 98.7994 65.6001 99.0994 66.6001C99.3995 67.7001 98.7994 68.7001 97.6994 69.0001Z" fill="#4376FF"/>
<path d="M89.0999 77.0001L44.2999 87.3001C43.6999 87.4001 42.9999 87.0001 42.8999 86.4001L42.6999 85.7001C42.5999 85.1001 42.9999 84.4001 43.5999 84.3001L88.3999 74.0001C88.9999 73.9001 89.6999 74.3001 89.7999 74.9001L89.9999 75.6001C90.0999 76.3001 89.6999 76.9001 89.0999 77.0001Z" fill="#4376FF"/>
<path d="M56.3997 139.5C59.3997 143.8 61.2997 148.9 61.7997 154.1C61.9997 156.5 61.7997 159.2 59.9997 160.8C59.3997 161.3 58.6997 161.6 57.8997 161.5C57.0997 161.4 56.4997 161 55.8997 160.4C54.4997 158.8 54.1997 156.4 55.1997 154.5C56.1997 152.6 58.2997 151.4 60.3997 151.4C63.7997 151.4 64.3997 145.9 63.6997 143.4C64.0997 144.5 63.9997 145.8 64.1997 146.9C64.3997 148 65.2997 149.3 66.4997 149.2C67.6997 149.1 68.3997 147.8 68.3997 146.6C68.3997 145.4 67.9997 144.3 67.8997 143.2C67.8997 144.5 68.0997 145.7 68.5997 146.9C68.6997 147.3 68.8997 147.7 69.1997 148C69.4997 148.3 69.9997 148.4 70.3997 148.2C70.6997 148 70.7997 147.7 70.8997 147.4C71.3997 145.9 71.3997 144.2 70.7997 142.7C70.6997 143.9 70.8997 145.1 71.2997 146.3C71.4997 146.9 71.7997 147.5 72.2997 147.8C73.0997 148.2 74.0997 147.9 74.5997 147.1C75.0997 146.4 75.0997 145.4 74.7997 144.6" stroke="#4376FF" stroke-width="0.7778" stroke-miterlimit="10" stroke-linecap="round" stroke-linejoin="round"/>
<path d="M80.3997 137.1C80.1997 135.4 77.9997 134.5 76.3997 135.2C74.7997 135.9 73.9997 137.7 73.6997 139.4C73.3997 141.9 74.0997 144.5 75.6997 146.5C76.6997 147.7 78.2997 148.6 79.5997 147.9C80.0997 147.6 80.4997 147.1 80.7997 146.5C81.4997 145.3 82.1997 138.1 80.2997 140.4C79.5997 141.2 80.4997 144.1 81.0997 144.9C81.4997 145.6 82.3997 146.2 82.9997 145.7C83.1997 145.5 83.2997 145.2 83.3997 144.9C83.6997 143.3 83.6997 141.7 83.2997 140.1C83.5997 141 84.0997 143.4 84.8997 144C88.1997 146.7 87.6997 140.4 87.1997 139C87.7997 140.6 87.7997 143.9 90.1997 143.8C92.8997 143.7 91.4997 139.5 90.8997 137.9C91.2997 139.4 93.1997 143.4 95.1997 141.8C96.5997 140.7 96.1997 138.2 95.9997 136.6C96.1997 138.6 97.6997 141.4 100.1 140.7C101.3 140.3 102.1 139 101.9 137.7" stroke="#4376FF" stroke-width="0.7778" stroke-miterlimit="10" stroke-linecap="round" stroke-linejoin="round"/>
<path d="M50.6994 98.7001L32.8994 102.8C32.3994 102.9 31.8994 102.6 31.7994 102.1C31.6994 101.6 31.9994 101.1 32.4994 101L50.2994 97.0001C50.7994 96.9001 51.2994 97.2001 51.3994 97.7001C51.4994 98.1001 51.1994 98.6001 50.6994 98.7001Z" fill="#4376FF"/>
<path d="M53.9997 111.7L36.1997 115.8C35.6997 115.9 35.1997 115.6 35.0997 115.1C34.9997 114.6 35.2997 114.1 35.7997 114L53.5997 109.9C54.0997 109.8 54.5997 110.1 54.6997 110.6C54.6997 111.1 54.3997 111.5 53.9997 111.7Z" fill="#4376FF"/>
<path d="M97.1999 95.9001L42.4999 108.3C41.4999 108.5 40.5999 107.9 40.3999 107C40.1999 106 40.7999 105.1 41.6999 104.9L96.3999 92.4001C97.3999 92.2001 98.2999 92.8001 98.4999 93.7001C98.7999 94.7001 98.1999 95.6001 97.1999 95.9001Z" fill="#4376FF"/>
<path d="M99.4997 109L44.7997 121.5C43.7997 121.7 42.8997 121.1 42.6997 120.2C42.4997 119.2 43.0997 118.3 43.9997 118.1L98.6997 105.6C99.6997 105.4 100.6 106 100.8 106.9C101.1 107.8 100.5 108.8 99.4997 109Z" fill="#4376FF"/>
<path d="M56.2995 124.8L38.4995 128.9C37.9995 129 37.4995 128.7 37.3995 128.2C37.2995 127.7 37.5995 127.2 38.0995 127.1L55.8995 123C56.3995 122.9 56.8995 123.2 56.9995 123.7C56.9995 124.2 56.6995 124.7 56.2995 124.8Z" fill="#4376FF"/>
<path d="M85.9998 152.7L77.2998 154.7C76.7998 154.8 76.2998 154.5 76.1998 154C76.0998 153.5 76.3998 153 76.8998 152.9L85.5998 150.9C86.0998 150.8 86.5998 151.1 86.6998 151.6C86.7998 152.1 86.4998 152.6 85.9998 152.7Z" fill="#4376FF"/>
<path d="M101.799 122.2L47.0995 134.7C46.0995 134.9 45.1995 134.3 44.9995 133.4C44.7995 132.4 45.3995 131.5 46.2995 131.3L100.999 118.7C101.999 118.5 102.899 119.1 103.099 120C103.399 121 102.799 122 101.799 122.2Z" fill="#4376FF"/>
<path d="M167.6 62.6001L119 73.7001C117.3 74.1001 116.2 75.8001 116.6 77.6001L129.4 133.7C129.8 135.4 131.5 136.5 133.3 136.1L181.9 125C183.6 124.6 184.7 122.9 184.3 121.1L171.5 65.0001C171.1 63.3001 169.4 62.2001 167.6 62.6001Z" fill="#ECF1FF"/>
<path d="M184.2 119.2C185.3 120.5 185.6 122 184.5 123.8C183.1 126 176.4 126.3 173.9 126.9C170 127.8 166 128.7 162.1 129.6C154.4 131.3 146.8 133.1 139.1 134.8C137 135.3 134 136.6 131.8 136.5C127.6 136.3 129.7 132.1 131 130C133.3 126.3 135.9 123.6 139.8 121.6C147.1 117.8 155.3 115.5 163.5 114.9C170.1 114.3 179.5 113.6 184.2 119.2Z" fill="#B4C8FF"/>
<path d="M161.5 121.6C162.1 121.3 162.7 120.8 162.8 120.1C162.9 119.5 162.5 119 162.2 118.5C161.7 117.7 161.1 116.9 160.6 116.1C160.4 115.8 160.2 115.4 159.8 115.2C159.4 115 158.9 115 158.4 115.1C157.4 115.2 156.4 115.4 155.4 115.5C152.9 115.8 150.4 116.2 148.2 117.3C146.8 118 144.6 119.7 144.3 121.4C143.9 123.8 146 123.7 148.2 124.1C152.8 124.7 157.5 123.9 161.5 121.6Z" fill="white"/>
<path d="M142.199 104.2C142.199 104.2 135.099 100.8 132.499 92.8001C129.899 84.8001 135.199 80.6001 135.199 80.6001C135.199 80.6001 130.399 73.2001 141.199 71.3001C151.999 69.4001 157.799 63.3001 163.199 63.0001C168.599 62.7001 166.199 76.0001 159.699 76.8001C152.999 77.7001 137.299 91.0001 142.199 104.2Z" fill="#210049"/>
<path d="M144 122.4L140.6 106.4L158.9 113.1L161.4 114L162.4 118.6" fill="white"/>
<path d="M144 122.4L140.6 106.4L158.9 113.1L161.4 114L162.4 118.6" stroke="#210049" stroke-width="0.7739" stroke-miterlimit="10" stroke-linecap="round" stroke-linejoin="round"/>
<path d="M154.399 76.1001C154.399 76.1001 165.799 74.8001 164.199 87.3001C164.199 87.3001 154.799 79.2001 154.399 76.1001Z" fill="#210049"/>
<path d="M140.699 107.6L137.999 97.2001L136.499 91.7001C136.499 91.7001 133.099 81.9001 142.299 78.1001C148.999 75.3001 155.799 75.1001 159.799 78.0001C161.299 79.1001 162.399 80.6001 162.999 82.6001L165.399 92.5001L165.999 94.9001L167.799 102.4C167.799 102.4 169.799 112 159.899 114" fill="white"/>
<path d="M140.699 107.6L137.999 97.2001L136.499 91.7001C136.499 91.7001 133.099 81.9001 142.299 78.1001C148.999 75.3001 155.799 75.1001 159.799 78.0001C161.299 79.1001 162.399 80.6001 162.999 82.6001L165.399 92.5001L165.999 94.9001L167.799 102.4C167.799 102.4 169.799 112 159.899 114" stroke="#210049" stroke-width="0.7739" stroke-miterlimit="10" stroke-linecap="round" stroke-linejoin="round"/>
<path d="M143 96.4001C143 96.4001 146.7 101.2 149.6 99.6001C152.5 98.0001 155.9 96.9001 158.9 97.6001C158.9 97.6001 163.2 94.9001 166.4 96.2001C168.5 97.1001 170.1 110 164 113.2C157.8 116.4 148.5 115.9 145.1 110.2C141.7 104.5 140.7 99.2001 140.7 99.2001L143 96.4001Z" fill="#210049"/>
<path d="M153.299 100C153.299 100 159.199 100.6 163.099 98.8001C163.099 98.8001 163.499 104.3 158.399 104.3C154.999 104.4 153.299 100 153.299 100Z" fill="white"/>
<path d="M152.799 96.5001C152.899 97.2001 151.599 98.1001 149.899 98.4001C148.099 98.8001 146.599 98.5001 146.399 97.8001C146.299 97.1001 147.599 96.2001 149.299 95.9001C151.099 95.6001 152.599 95.8001 152.799 96.5001Z" fill="#FFD5E3"/>
<g opacity="0.8">
<g opacity="0.8">
<g opacity="0.8">
<g opacity="0.8">
<path opacity="0.8" d="M166.099 95.0001C165.899 95.1001 165.599 95.1001 165.299 95.2001C163.499 95.6001 161.999 95.3001 161.799 94.6001C161.699 93.9001 162.999 93.0001 164.699 92.7001C164.899 92.6001 165.199 92.6001 165.399 92.6001L166.099 95.0001Z" fill="#FFD5E3"/>
</g>
</g>
</g>
</g>
<path d="M151.9 92.6001C152.1 93.6001 151.8 94.4001 151.3 94.5001C150.8 94.6001 150.2 93.9001 150 93.0001C149.8 92.0001 150.1 91.2001 150.6 91.1001C151.1 91.0001 151.7 91.7001 151.9 92.6001Z" fill="#210049"/>
<path d="M161.3 90.7001C161.5 91.7001 161.2 92.5001 160.7 92.6001C160.2 92.7001 159.6 92.0001 159.4 91.1001C159.2 90.1001 159.5 89.3001 160 89.2001C160.5 89.0001 161.1 89.7001 161.3 90.7001Z" fill="#210049"/>
<path d="M157.5 96.6001C157.3 96.6001 157.1 96.5001 157 96.3001C157 96.1001 157.1 95.9001 157.3 95.8001C158.7 95.5001 159.3 94.6001 159.4 94.2001C157.2 91.3001 154.9 88.4001 154.9 88.3001C154.8 88.1001 154.8 87.9001 155 87.7001C155.2 87.6001 155.4 87.6001 155.6 87.8001C155.6 87.8001 158 90.9001 160.2 93.8001C160.3 93.9001 160.3 94.0001 160.3 94.1001C160.2 94.3001 159.8 96.1001 157.5 96.6001Z" fill="#210049"/>
<path d="M146.2 89.3001C146.2 88.2001 146.7 86.2001 149.8 85.4001C150.2 85.3001 150.6 85.5001 150.8 85.8001C151 86.3001 150.8 86.8001 150.4 87.0001C149.6 87.3001 148.4 88.1001 148 89.6001C147.9 90.1001 147.3 90.3001 146.9 90.2001H146.8C146.4 90.0001 146.2 89.7001 146.2 89.3001Z" fill="#210049"/>
<path d="M162.7 85.9001C162.3 84.9001 161 83.2001 157.8 83.7001C157.4 83.8001 157.1 84.1001 157.1 84.5001C157.1 85.0001 157.5 85.4001 158 85.4001C158.9 85.4001 160.2 85.6001 161.2 86.8001C161.5 87.2001 162.1 87.2001 162.5 86.9001L162.6 86.8001C162.8 86.6001 162.9 86.2001 162.7 85.9001Z" fill="#210049"/>
<path d="M140.4 98.7001C140.4 98.7001 135.5 94.4001 133.5 99.0001C131.9 102.8 138.1 110.6 142 106.6" fill="white"/>
<path d="M140.4 98.7001C140.4 98.7001 135.5 94.4001 133.5 99.0001C131.9 102.8 138.1 110.6 142 106.6" stroke="#210049" stroke-width="0.7739" stroke-miterlimit="10" stroke-linecap="round" stroke-linejoin="round"/>
<path d="M159.799 78.1001C159.799 78.5001 159.699 78.8001 159.499 79.0001C157.999 81.4001 153.299 81.7001 148.799 81.2001C144.299 80.8001 141.999 84.5001 141.999 84.5001C143.999 88.3001 140.099 89.5001 141.599 92.4001C143.099 95.3001 143.599 99.4001 143.599 99.4001L140.999 99.6001C140.199 98.3001 138.799 97.6001 137.899 97.2001L136.399 91.7001C136.399 91.7001 132.999 81.9001 142.199 78.1001C148.999 75.3001 155.799 75.1001 159.799 78.1001Z" fill="#210049"/>
</svg>
