<svg width="32" height="32" viewBox="0 0 32 32" fill="none" xmlns="http://www.w3.org/2000/svg">
<path d="M26.9375 20.0375C26.875 19.8125 27.0125 19.5 27.1438 19.275C27.1839 19.208 27.2277 19.1433 27.275 19.0812C28.3977 17.413 28.9982 15.4483 29 13.4375C29.0188 7.675 24.1563 3 18.1437 3C12.9 3 8.52499 6.56875 7.49999 11.3062C7.34665 12.0084 7.26912 12.725 7.26874 13.4438C7.26874 19.2125 11.9437 24.0125 17.9562 24.0125C18.9125 24.0125 20.2 23.725 20.9062 23.5312C21.6125 23.3375 22.3125 23.0813 22.4937 23.0125C22.6795 22.9425 22.8764 22.9065 23.075 22.9062C23.2916 22.9054 23.5063 22.9479 23.7063 23.0312L27.25 24.2875C27.3277 24.3204 27.4098 24.3414 27.4938 24.35C27.6264 24.35 27.7535 24.2973 27.8473 24.2036C27.9411 24.1098 27.9938 23.9826 27.9938 23.85C27.9894 23.7928 27.9789 23.7362 27.9625 23.6812L26.9375 20.0375Z" stroke="#4376FF" stroke-width="1.5" stroke-miterlimit="10" stroke-linecap="round"/>
<path d="M4.15373 14.5C3.334 15.9727 2.93745 17.6433 3.00794 19.3272C3.07842 21.0112 3.61318 22.6429 4.5531 24.0419C4.69748 24.26 4.77873 24.4287 4.75373 24.5419C4.72873 24.655 4.0081 28.4087 4.0081 28.4087C3.99077 28.4966 3.99734 28.5875 4.02714 28.6719C4.05693 28.7563 4.10885 28.8312 4.17748 28.8887C4.26904 28.9617 4.3829 29.001 4.49998 29C4.56254 29.0002 4.62446 28.9874 4.68185 28.9625L8.19498 27.5875C8.43677 27.4922 8.7065 27.4967 8.94498 27.6C10.1287 28.0612 11.4375 28.35 12.7469 28.35C14.5039 28.3518 16.2301 27.8884 17.75 27.0069" stroke="#4376FF" stroke-width="1.5" stroke-miterlimit="10" stroke-linecap="round"/>
</svg>
