<svg width="88" height="88" viewBox="0 0 88 88" fill="none" xmlns="http://www.w3.org/2000/svg">
<path d="M22.0073 81.0919L2.52126 31.8315C1.00778 27.9549 2.89963 23.5111 6.77791 21.9983L56.1551 2.52102C60.0334 1.00823 64.4792 2.89922 65.9927 6.77576L85.4787 56.2253C86.9922 60.1019 85.1004 64.5457 81.2221 66.0585L31.8449 85.4412C27.872 87.0485 23.5208 85.063 22.0073 81.0919Z" fill="#D5F4F7"/>
<path d="M81.5059 46.0139C73.8439 47.6213 65.3306 45.3521 57.8578 48.2831C53.6011 49.985 50.1958 53.2943 46.6013 56.0362C42.1554 59.3454 37.2366 60.6691 31.7503 60.8582C25.8856 61.0473 19.8317 60.5746 14.0615 61.0473L15.8588 65.6803C22.9532 65.2075 30.1422 66.3421 37.1421 65.3966C41.1149 64.8293 44.804 63.4111 48.0202 61.0473C52.1822 58.1163 55.7767 54.3343 60.5064 52.6324C67.79 50.1741 75.9249 52.3488 83.3977 50.7414L81.5059 46.0139Z" fill="#ACEAEF"/>
<path d="M36.1015 53.6725C44.331 51.4978 49.3444 43.272 57.0064 40.2464C63.6279 37.599 71.2898 39.3009 77.7221 36.4644L76.0194 31.926C69.0196 35.2353 60.0333 32.8715 53.0335 36.6535C48.966 38.8282 45.6553 42.232 42.0608 45.0684C37.7096 48.3777 32.9799 49.7014 27.5882 49.6068C21.4397 49.5123 15.0074 47.9049 8.85889 47.3376L10.7507 52.2542C19.1695 53.1997 27.8719 55.8471 36.1015 53.6725Z" fill="#ACEAEF"/>
<path d="M6.77821 42.2318C12.8321 42.2318 19.0752 42.8937 24.9399 42.0427C28.9128 41.4754 32.6019 40.0572 35.8181 37.6934C39.9801 34.7624 43.5746 30.9804 48.3042 29.2785C56.5338 26.5366 65.8984 29.6567 73.9388 26.442L72.1415 21.8091C63.7228 24.9292 53.9798 21.5254 45.6557 24.9292C41.399 26.6311 37.9937 29.9404 34.3992 32.6823C29.9533 35.9916 25.0345 37.3152 19.5482 37.5043C14.6294 37.6934 9.80517 37.3152 4.98096 37.5043L6.77821 42.2318Z" fill="#ACEAEF"/>
<path d="M66.909 54V54.8333C66.909 55.0101 66.842 55.1797 66.7226 55.3047C66.6033 55.4298 66.4414 55.5 66.2726 55.5H63.7272C63.5584 55.5 63.3965 55.4298 63.2772 55.3047C63.1579 55.1797 63.0908 55.0101 63.0908 54.8333V54" stroke="#210049" stroke-linecap="round" stroke-linejoin="round"/>
<path d="M51.1048 18C57.1499 18 61.937 22.2635 61.9988 27.3509C62.1237 37.9112 52.0604 45.4211 41.0312 51.7323C40.7271 51.9067 40.3678 52 40 52C39.6322 52 39.2729 51.9067 38.9688 51.7323C27.9385 45.4211 17.8751 37.9112 18.0012 27.3509C18.063 22.2635 22.8501 18 28.8952 18" stroke="#210049" stroke-width="2" stroke-linejoin="round"/>
<path d="M40 52V63C40 66.3137 42.6863 69 46 69V69C49.3137 69 52 66.3137 52 63V55C52 51.134 55.134 48 59 48H59.2222C62.4132 48 65 50.5868 65 53.7778V54" stroke="#210049" stroke-width="2" stroke-linejoin="round"/>
<path d="M68.125 53.5H61.875C60.5828 53.5 59.5 54.5107 59.5 55.8V70.2C59.5 71.4893 60.5828 72.5 61.875 72.5H68.125C69.4172 72.5 70.5 71.4893 70.5 70.2V55.8C70.5 54.5107 69.4172 53.5 68.125 53.5Z" stroke="#210049" stroke-linecap="round" stroke-linejoin="round"/>
<circle cx="31" cy="18" r="2" stroke="#210049" stroke-linecap="round" stroke-linejoin="round"/>
<circle cx="49" cy="18" r="2" stroke="#210049" stroke-linecap="round" stroke-linejoin="round"/>
</svg>
