<svg width="32" height="32" viewBox="0 0 32 32" fill="none" xmlns="http://www.w3.org/2000/svg">
<path d="M22.7242 5.33337C18.6667 5.33337 16.6667 9.33337 16.6667 9.33337C16.6667 9.33337 14.6667 5.33337 10.6092 5.33337C7.31165 5.33337 4.7004 8.09212 4.66665 11.384C4.5979 18.2171 10.0873 23.0765 16.1042 27.1602C16.27 27.2731 16.466 27.3335 16.6667 27.3335C16.8673 27.3335 17.0633 27.2731 17.2292 27.1602C23.2454 23.0765 28.7348 18.2171 28.6667 11.384C28.6329 8.09212 26.0217 5.33337 22.7242 5.33337Z" stroke="#4376FF" stroke-width="1.5" stroke-linecap="round" stroke-linejoin="round"/>
<path d="M3 13.25H10.5L12 9.75L13.5 17.25L15 12.25H21.5" stroke="#4376FF" stroke-width="1.5" stroke-linecap="round" stroke-linejoin="round"/>
</svg>
