<svg width="88" height="88" viewBox="0 0 88 88" fill="none" xmlns="http://www.w3.org/2000/svg">
<path d="M22.0073 81.0919L2.52126 31.8315C1.00778 27.9549 2.89963 23.5111 6.77791 21.9983L56.1551 2.52102C60.0334 1.00823 64.4792 2.89922 65.9927 6.77576L85.4787 56.2253C86.9922 60.1019 85.1004 64.5457 81.2221 66.0585L31.8449 85.4412C27.872 87.0485 23.5208 85.063 22.0073 81.0919Z" fill="#D9E4FF"/>
<path d="M81.5057 46.0139C73.8438 47.6213 65.3304 45.3521 57.8577 48.2831C53.601 49.985 50.1957 53.2943 46.6012 56.0362C42.1553 59.3454 37.2365 60.6691 31.7502 60.8582C25.8854 61.0473 19.8315 60.5746 14.0614 61.0473L15.8587 65.6803C22.9531 65.2075 30.1421 66.3421 37.1419 65.3966C41.1148 64.8293 44.8039 63.4111 48.0201 61.0473C52.1821 58.1163 55.7766 54.3343 60.5062 52.6324C67.7899 50.1741 75.9248 52.3488 83.3976 50.7414L81.5057 46.0139Z" fill="#B4C8FF"/>
<path d="M36.1015 53.6725C44.331 51.4978 49.3444 43.272 57.0064 40.2464C63.6279 37.599 71.2898 39.3009 77.7221 36.4644L76.0194 31.926C69.0196 35.2353 60.0333 32.8715 53.0335 36.6535C48.966 38.8282 45.6553 42.232 42.0608 45.0684C37.7096 48.3777 32.9799 49.7014 27.5882 49.6068C21.4397 49.5123 15.0074 47.9049 8.85889 47.3376L10.7507 52.2542C19.1695 53.1997 27.8719 55.8471 36.1015 53.6725Z" fill="#B4C8FF"/>
<path d="M6.77833 42.2318C12.8322 42.2318 19.0753 42.8937 24.9401 42.0427C28.9129 41.4754 32.602 40.0572 35.8182 37.6934C39.9802 34.7624 43.5748 30.9804 48.3044 29.2785C56.5339 26.5366 65.8985 29.6567 73.9389 26.442L72.1416 21.8091C63.7229 24.9292 53.9799 21.5254 45.6558 24.9292C41.3991 26.6311 37.9938 29.9404 34.3993 32.6823C29.9535 35.9916 25.0347 37.3152 19.5483 37.5043C14.6295 37.6934 9.80529 37.3152 4.98108 37.5043L6.77833 42.2318Z" fill="#B4C8FF"/>
<path d="M68.2547 53.0844C68.1141 52.5781 68.4235 51.875 68.7188 51.3687C68.8091 51.2181 68.9077 51.0725 69.0141 50.9328C71.5401 47.1793 72.8913 42.7587 72.8954 38.2344C72.9375 25.2688 61.9969 14.75 48.4688 14.75C36.6703 14.75 26.8266 22.7797 24.5203 33.4391C24.1753 35.019 24.0009 36.6313 24 38.2484C24 51.2281 34.5188 62.0281 48.0469 62.0281C50.1985 62.0281 53.0953 61.3812 54.6844 60.9453C56.2735 60.5094 57.8485 59.9328 58.2563 59.7781C58.6743 59.6205 59.1173 59.5395 59.5641 59.5391C60.0515 59.5372 60.5345 59.6328 60.9844 59.8203L68.9579 62.6469C69.1326 62.7209 69.3175 62.7683 69.5063 62.7875C69.8047 62.7875 70.0908 62.669 70.3018 62.458C70.5128 62.247 70.6313 61.9609 70.6313 61.6625C70.6215 61.5338 70.5979 61.4065 70.561 61.2828L68.2547 53.0844Z" stroke="#210049" stroke-width="2" stroke-miterlimit="10" stroke-linecap="round"/>
<path d="M24 35C19 38.5 17.8792 46.5107 18.0262 49.9936C18.1732 53.4766 19.2885 56.8514 21.2487 59.745C21.5498 60.1961 21.7193 60.5452 21.6671 60.7791C21.615 61.0131 20.1121 68.7771 20.1121 68.7771C20.076 68.9588 20.0897 69.1467 20.1518 69.3214C20.2139 69.496 20.3222 69.6509 20.4653 69.7699C20.6563 69.9208 20.8938 70.002 21.1379 70C21.2684 70.0003 21.3975 69.9739 21.5172 69.9224L28.8439 67.0785C29.3482 66.8813 29.9107 66.8906 30.4081 67.1043C32.8768 68.0583 35.6062 68.6556 38.337 68.6556C42 68.6556 48 67.0785 52 61.5" stroke="#210049" stroke-width="2" stroke-miterlimit="10"/>
<circle cx="38" cy="39" r="2" fill="#210049"/>
<circle cx="50" cy="39" r="2" fill="#210049"/>
<circle cx="62" cy="39" r="2" fill="#210049"/>
</svg>
